<svg enable-background="new 0 0 90 90" height="90" viewBox="0 0 90 90" width="90" xmlns="http://www.w3.org/2000/svg" xmlns:xlink="http://www.w3.org/1999/xlink"><clipPath id="a"><path d="m0-15h180v120h-180z"/></clipPath><g clip-path="url(#a)"><g opacity=".3"><path d="m10.538 41.901h21.55l13.313 13.313h18.397c.106.431.478.756.94.756.547 0 .988-.442.988-.987 0-.547-.441-.988-.988-.988-.463 0-.834.324-.94.756h-18.204l-13.313-13.315h-21.935l-10.814 10.813h-47.962v.465h48.155z" fill="#7e39df"/><path d="m14.094 45.048h14.386c.078.389.405.687.817.687.469 0 .85-.379.85-.85 0-.47-.38-.85-.85-.85-.412 0-.738.298-.817.687h-14.521l-9.98 9.979h-42.72v.324h42.855z" fill="#7e39df"/><path d="m4.78 38.692c.149.091.315.157.502.157.546 0 .988-.442.988-.988s-.442-.988-.988-.988-.988.442-.988.988c0 .188.066.353.157.502l-8.33 8.331h-33.7v.465h33.892z" fill="#7e39df"/><path d="m46.994 47.85c-.081.144-.141.299-.141.477 0 .546.442.988.988.988.547 0 .988-.442.988-.988s-.441-.988-.988-.988c-.199 0-.374.073-.527.174l-12.708-12.709h-23.96c-.107-.431-.478-.756-.941-.756-.545 0-.988.442-.988.988s.443.988.988.988c.463 0 .834-.326.941-.756h23.767z" fill="#7e39df"/><path d="m64.236 58.155h10.144c.106.43.478.755.94.755.547 0 .988-.442.988-.988s-.441-.988-.988-.988c-.463 0-.834.326-.94.756h-10.337l-11.336 11.335h-35.154l-8.837-8.836h-46.294v.466h46.102l8.836 8.836h35.539z" fill="#7e39df"/><path d="m59.663 58.705c.149.091.315.156.502.156.546 0 .987-.442.987-.988 0-.545-.441-.988-.987-.988-.545 0-.988.443-.988.988 0 .188.066.354.157.503l-3.771 3.771h-7.549l-3.061-3.061c.086-.146.149-.309.149-.49 0-.546-.442-.988-.988-.988-.545 0-.988.442-.988.988 0 .547.443.988.988.988.193 0 .362-.068.514-.165l3.192 3.192h7.935z" fill="#7e39df"/><path d="m8.243 29.254-13.953 13.953h-31.868v.325h32.003l13.952-13.953h29.166l7.437 7.437h17.239c.079.387.406.684.816.684.469 0 .85-.38.85-.85s-.38-.85-.85-.85c-.413 0-.741.3-.818.69h-17.103l-7.437-7.437z" fill="#7e39df"/><path d="m-8.529 40.036h-29.049v.465h29.241l14.418-14.418h29.611l8.168-8.168h22.324c.106.43.478.756.94.756.546 0 .987-.442.987-.988s-.441-.988-.987-.988c-.463 0-.834.326-.94.756h-22.517l-8.168 8.168h-29.611z" fill="#7e39df"/><path d="m3.369 22.13-9.999 10h-14.428c-.107-.43-.478-.756-.941-.756-.546 0-.988.442-.988.988s.442.988.987.988c.463 0 .834-.325.941-.756h14.621l10-9.999h28.146c.107.43.478.755.941.755.546 0 .988-.442.988-.988 0-.545-.442-.988-.988-.988-.463 0-.834.326-.941.756z" fill="#7e39df"/><path d="m-41.465 36.598c.817-.278 18.127-.147 30.15.015.103.437.476.769.944.769.545 0 .988-.442.988-.988s-.442-.988-.988-.988c-.459 0-.828.319-.939.743-11.596-.158-29.966-.34-30.418.074l.214.233z" fill="#4bb6a1"/><path d="m-3.781 24.8c.135.091.289.156.464.156.469 0 .85-.38.85-.85s-.38-.85-.85-.85-.85.38-.85.85c0 .175.065.329.156.464l-4.257 4.257h-30.861v.325h30.996z" fill="#4bb6a1"/><g fill="#7e39df"><path d="m-.907 23.121c.469 0 .85-.38.85-.85 0-.171-.063-.32-.149-.454l2.664-2.664h7.292c.083.383.407.675.814.675.469 0 .85-.381.85-.85s-.38-.85-.85-.85c-.407 0-.731.292-.814.675h-7.438l-2.767 2.766c-.133-.086-.283-.149-.453-.149-.469 0-.85.381-.85.85s.382.851.851.851z"/><path d="m29.237 32.129h-15.034c-.107-.43-.478-.756-.941-.756-.546 0-.988.442-.988.988s.442.988.988.988c.463 0 .834-.325.941-.756h15.035c.107.431.478.756.941.756.546 0 .988-.442.988-.988s-.442-.988-.988-.988c-.464.001-.835.326-.942.756z"/><path d="m49.436 26.083h14.363c.107.43.479.756.941.756.546 0 .988-.442.988-.988s-.442-.988-.988-.988c-.463 0-.834.326-.941.756h-14.363c-.107-.43-.479-.756-.941-.756-.546 0-.988.442-.988.988s.442.988.988.988c.462 0 .833-.326.941-.756z"/><path d="m60.089 20.211c-.463 0-.834.326-.94.756h-12.335l-4.75 4.75c-.149-.091-.315-.157-.502-.157-.546 0-.988.442-.988.988s.442.988.988.988.988-.442.988-.988c0-.188-.066-.353-.157-.502l4.613-4.613h12.14c.107.43.479.755.941.755.546 0 .988-.442.988-.988.001-.546-.44-.989-.986-.989z"/><path d="m49.535 58.508h5.23c.084.459.469.812.952.812.546 0 .988-.441.988-.987s-.442-.988-.988-.988c-.483 0-.868.354-.952.813h-5.23c-.085-.459-.469-.813-.953-.813-.546 0-.988.442-.988.988s.442.987.988.987c.484 0 .868-.353.953-.812z"/><path d="m21.72 58.059c-.545 0-.988.441-.988.987s.442.988.988.988c.168 0 .318-.052.457-.126l2.517 2.517h4.612c.107.431.478.757.941.757.546 0 .988-.442.988-.988 0-.547-.442-.988-.988-.988-.463 0-.834.326-.941.756h-4.42l-2.365-2.365c.109-.158.188-.341.188-.549-.001-.548-.443-.989-.989-.989z"/><path d="m13.22 49.391c-.546 0-.988.442-.988.988s.442.988.988.988c.463 0 .834-.325.941-.756h17.256l8.47 8.47c-.091.149-.157.315-.157.503 0 .546.442.988.988.988s.988-.442.988-.988-.442-.988-.988-.988c-.188 0-.353.066-.502.157l-8.606-8.606h-17.448c-.107-.43-.478-.756-.942-.756z"/><path d="m11.411 55.395c-.546 0-.988.441-.988.987s.442.988.988.988c.463 0 .834-.326.941-.756h16.325l5.516 5.516c-.073.138-.124.286-.124.453 0 .546.442.987.988.987s.988-.441.988-.987-.442-.988-.988-.988c-.209 0-.392.079-.552.189l-5.636-5.636h-16.517c-.107-.429-.478-.753-.941-.753z"/><path d="m48.493 34.963c.469 0 .85-.38.85-.85s-.38-.85-.85-.85c-.175 0-.328.065-.464.156l-4.086-4.087c.091-.135.156-.289.156-.463 0-.469-.38-.85-.85-.85s-.85.38-.85.85.38.85.85.85c.175 0 .329-.065.463-.156l4.088 4.087c-.091.135-.155.289-.155.464 0 .469.378.849.848.849z"/><path d="m-8.533 50.477c.412 0 .739-.3.817-.688h5.728l11.218-11.218h13.611c.078.388.405.687.817.687.469 0 .85-.381.85-.85s-.38-.85-.85-.85c-.412 0-.739.299-.817.688h-13.745l-11.218 11.217h-5.594c-.078-.389-.405-.688-.816-.688-.469 0-.85.381-.85.851-.001.469.38.851.849.851z"/></g><path d="m-13.381 49.451h-26.973v.35h26.973c.083.383.407.676.814.676.469 0 .85-.382.85-.851 0-.47-.38-.851-.85-.851-.407 0-.732.293-.814.676z" fill="#4bb6a1"/><path d="m39.277 54.877c.469 0 .85-.381.85-.85 0-.471-.38-.851-.85-.851-.175 0-.328.065-.463.156l-5.933-5.932-.048-.047h-14.366c-.078-.39-.405-.688-.817-.688-.469 0-.85.381-.85.851 0 .469.38.85.85.85.412 0 .739-.299.817-.688h14.231l5.885 5.885c-.091.137-.156.289-.156.465 0 .468.381.849.85.849z" fill="#7e39df"/><path d="m51.256 45.082h7.59c.078.389.405.688.817.688.469 0 .851-.38.851-.851 0-.47-.381-.85-.851-.85-.412 0-.739.298-.817.687h-7.59c-.078-.389-.404-.687-.816-.687-.469 0-.851.38-.851.85s.38.851.851.851c.412 0 .738-.3.816-.688z" fill="#7e39df"/><path d="m32.959 39.258c.175 0 .328-.066.463-.156l13.562 13.563.049.047h8.634c.078.39.405.688.817.688.469 0 .85-.381.85-.851s-.38-.851-.85-.851c-.412 0-.738.299-.817.688h-8.5l-13.514-13.514c.091-.135.156-.289.156-.464 0-.469-.38-.85-.85-.85s-.85.38-.85.85.381.85.85.85z" fill="#7e39df"/><path d="m.672 57.76h-37.591v.325h37.591c.079.39.405.687.817.687.469 0 .85-.379.85-.85 0-.469-.38-.85-.85-.85-.412 0-.739.299-.817.688z" fill="#7e39df"/><path d="m14.957 61.193c.175 0 .328-.064.463-.155l4.848 4.848.048.048h28.084c.078.39.406.688.817.688.47 0 .851-.381.851-.85 0-.471-.381-.851-.851-.851-.411 0-.739.299-.817.688h-27.95l-4.8-4.801c.091-.136.156-.289.156-.464 0-.47-.38-.85-.85-.85s-.85.38-.85.85c.001.468.382.849.851.849z" fill="#7e39df"/><path d="m9.333 68.838c-.17 0-.32.062-.453.148l-3.36-3.36-.052-.051h-6.764c-.082-.384-.407-.675-.814-.675-.469 0-.85.38-.85.85 0 .469.381.85.85.85.407 0 .731-.291.814-.675h6.62l3.309 3.31c-.086.134-.149.283-.149.453 0 .47.38.851.85.851s.85-.381.85-.851-.381-.85-.851-.85z" fill="#7e39df"/><path d="m13.22 68.54c-.175 0-.328.065-.463.155l-5.754-5.754-.048-.047h-9.947c-.078-.39-.405-.688-.817-.688-.469 0-.85.38-.85.85 0 .469.38.851.85.851.412 0 .739-.3.817-.688h9.812l5.706 5.707c-.09.135-.156.288-.156.463 0 .471.38.851.85.851s.85-.38.85-.851c0-.468-.381-.849-.85-.849z" fill="#7e39df"/><path d="m34.558 58.956c.469 0 .85-.381.85-.851s-.381-.85-.85-.85c-.175 0-.328.064-.463.155l-4.179-4.179-.048-.047h-14.427v.324h14.292l4.131 4.131c-.091.137-.156.289-.156.465 0 .471.381.852.85.852z" fill="#7e39df"/><path d="m59.102 67.498c-.47 0-.851.381-.851.85 0 .176.065.328.156.465l-3.482 3.481h-14.773c-.078-.389-.405-.688-.817-.688-.469 0-.85.381-.85.851s.38.851.85.851c.412 0 .739-.3.817-.688h14.909l3.578-3.578c.135.091.289.156.463.156.469 0 .85-.381.85-.85s-.382-.85-.85-.85z" fill="#7e39df"/></g><g fill="#4bb6a1" opacity=".3"><path d="m169.479 48.1h-21.551l-13.312-13.312h-18.397c-.106-.43-.478-.756-.94-.756-.547 0-.988.442-.988.988s.441.988.988.988c.464 0 .834-.325.94-.755h18.205l13.313 13.312h21.935l10.813-10.812h47.963v-.465h-48.155z"/><path d="m165.922 44.952h-14.386c-.078-.389-.405-.687-.817-.687-.469 0-.85.38-.85.85s.381.85.85.85c.412 0 .738-.298.817-.687h14.521l9.979-9.979h42.721v-.325h-42.854z"/><path d="m175.236 51.309c-.149-.091-.315-.156-.504-.156-.545 0-.987.441-.987.988 0 .545.442.987.987.987.547 0 .988-.442.988-.987 0-.188-.066-.354-.156-.504l8.33-8.329h33.698v-.465h-33.892z"/><path d="m133.021 42.151c.082-.143.141-.3.141-.477 0-.545-.441-.988-.988-.988-.546 0-.988.442-.988.988s.442.988.988.988c.198 0 .373-.073.528-.174l12.707 12.708h23.96c.107.432.479.757.941.757.545 0 .987-.442.987-.988s-.442-.987-.987-.987c-.463 0-.834.324-.941.756h-23.768z"/><path d="m115.779 31.845h-10.145c-.105-.43-.478-.756-.941-.756-.545 0-.986.443-.986.988 0 .546.441.989.986.989.465 0 .836-.326.943-.756h10.336l11.336-11.336h35.153l8.837 8.836h46.294v-.465h-46.102l-8.837-8.837h-35.539z"/><path d="m120.354 31.295c-.149-.091-.314-.157-.504-.157-.545 0-.988.442-.988.988s.443.988.988.988c.547 0 .989-.442.989-.988 0-.188-.065-.353-.157-.502l3.771-3.771h7.549l3.061 3.06c-.086.147-.148.308-.148.491 0 .545.441.988.988.988.546 0 .988-.443.988-.988 0-.546-.442-.988-.988-.988-.192 0-.362.069-.514.165l-3.193-3.192h-7.936z"/><path d="m171.773 60.746 13.951-13.952h31.868v-.325h-32.002l-13.951 13.952h-29.166l-7.438-7.437h-17.239c-.079-.387-.405-.685-.815-.685-.469 0-.851.38-.851.851 0 .469.382.85.851.85.412 0 .74-.3.816-.689h17.103l7.438 7.437z"/><path d="m188.545 49.964h29.049v-.465h-29.24l-14.418 14.418h-29.61l-8.168 8.168h-22.323c-.105-.431-.479-.756-.941-.756-.545 0-.988.442-.988.987 0 .547.443.988.988.988.465 0 .836-.324.941-.756h22.516l8.17-8.168h29.609z"/><path d="m176.646 67.87 9.998-10h14.43c.105.431.478.756.941.756.545 0 .987-.442.987-.987 0-.546-.442-.988-.987-.988-.465 0-.836.326-.941.756h-14.621l-9.999 10h-28.146c-.106-.432-.479-.756-.941-.756-.547 0-.988.441-.988.988 0 .545.441.987.988.987.464 0 .835-.326.941-.756z"/><path d="m221.48 53.402c-.816.277-18.127.146-30.149-.016-.103-.437-.478-.769-.944-.769-.546 0-.988.442-.988.987 0 .547.442.988.988.988.459 0 .827-.318.938-.742 11.597.156 29.967.34 30.418-.074l-.214-.233z"/><path d="m183.797 65.2c-.136-.091-.289-.156-.464-.156-.47 0-.851.38-.851.851 0 .469.381.85.851.85.469 0 .851-.381.851-.85 0-.176-.065-.328-.156-.465l4.257-4.257h30.86v-.325h-30.995z"/><path d="m180.923 66.88c-.469 0-.851.38-.851.851 0 .17.064.318.15.453l-2.664 2.662h-7.291c-.084-.382-.408-.675-.814-.675-.471 0-.85.381-.85.851s.379.85.85.85c.406 0 .73-.292.814-.676h7.436l2.768-2.766c.133.086.282.149.452.149.47 0 .851-.381.851-.851-.003-.468-.381-.848-.851-.848z"/><path d="m150.777 57.87h15.035c.106.431.479.756.941.756.546 0 .988-.442.988-.987 0-.546-.442-.988-.988-.988-.464 0-.835.326-.941.756h-15.035c-.105-.43-.478-.756-.94-.756-.546 0-.987.442-.987.988 0 .545.441.987.987.987.464 0 .835-.325.94-.756z"/><path d="m130.581 63.917h-14.364c-.105-.431-.479-.756-.941-.756-.545 0-.987.442-.987.987 0 .547.442.988.987.988.465 0 .836-.324.941-.756h14.364c.106.432.479.756.94.756.547 0 .988-.441.988-.988 0-.545-.441-.987-.988-.987-.46 0-.833.325-.94.756z"/><path d="m119.928 69.788c.463 0 .834-.325.94-.756h12.332l4.75-4.749c.149.091.313.156.502.156.546 0 .987-.442.987-.987 0-.546-.441-.988-.987-.988s-.988.442-.988.988c0 .188.065.353.157.502l-4.613 4.612h-12.14c-.107-.43-.479-.756-.941-.756-.546 0-.987.442-.987.988s.441.99.988.99z"/><path d="m130.48 31.492h-5.23c-.085-.459-.469-.814-.953-.814-.546 0-.988.442-.988.988s.442.988.988.988c.484 0 .868-.354.953-.813h5.23c.086.459.47.813.953.813.545 0 .987-.442.987-.988s-.442-.988-.987-.988c-.483 0-.869.355-.953.814z"/><path d="m158.296 31.942c.546 0 .988-.443.988-.988 0-.546-.442-.988-.988-.988-.168 0-.317.052-.456.126l-2.517-2.517h-4.612c-.107-.43-.479-.756-.941-.756-.545 0-.987.443-.987.988 0 .546.442.988.987.988.463 0 .834-.325.941-.755h4.42l2.365 2.365c-.109.159-.188.341-.188.549.001.546.442.988.988.988z"/><path d="m166.796 40.609c.546 0 .988-.443.988-.988 0-.546-.442-.988-.988-.988-.464 0-.834.325-.94.755h-17.256l-8.471-8.47c.092-.149.157-.315.157-.502 0-.546-.442-.988-.988-.988s-.987.442-.987.988.441.988.987.988c.188 0 .353-.066.502-.157l8.606 8.605h17.447c.108.432.479.757.943.757z"/><path d="m168.605 34.607c.545 0 .987-.443.987-.989 0-.545-.442-.988-.987-.988-.465 0-.834.326-.941.756h-16.325l-5.517-5.515c.072-.138.125-.287.125-.453 0-.546-.443-.988-.988-.988-.546 0-.988.442-.988.988 0 .545.442.988.988.988.209 0 .393-.08.553-.19l5.635 5.635h16.519c.105.43.477.756.939.756z"/><path d="m131.521 55.036c-.469 0-.85.381-.85.85 0 .47.381.851.85.851.176 0 .328-.065.465-.155l4.087 4.086c-.091.136-.156.289-.156.464 0 .471.38.85.851.85.469 0 .85-.379.85-.85 0-.47-.381-.85-.85-.85-.177 0-.33.064-.465.156l-4.087-4.088c.091-.135.156-.287.156-.464 0-.469-.38-.85-.851-.85z"/><path d="m188.549 39.524c-.412 0-.738.299-.816.688h-5.729l-11.218 11.218h-13.611c-.077-.389-.405-.688-.815-.688-.471 0-.852.381-.852.85 0 .471.381.85.852.85.41 0 .738-.297.815-.687h13.745l11.219-11.218h5.594c.078.388.404.687.816.687.469 0 .85-.38.85-.85-.001-.469-.381-.85-.85-.85z"/><path d="m193.396 40.549h26.973v-.35h-26.973c-.082-.382-.406-.675-.813-.675-.47 0-.851.38-.851.85 0 .469.381.85.851.85.407 0 .731-.292.813-.675z"/><path d="m140.738 35.123c-.469 0-.85.381-.85.85 0 .47.381.85.85.85.176 0 .328-.066.464-.156l5.933 5.933.049.047h14.365c.077.389.404.688.816.688.47 0 .85-.38.85-.85 0-.469-.38-.85-.85-.85-.411 0-.738.298-.816.688h-14.23l-5.885-5.885c.09-.135.155-.288.155-.463 0-.471-.381-.852-.851-.852z"/><path d="m128.76 44.918h-7.59c-.078-.388-.404-.687-.816-.687-.47 0-.851.381-.851.85 0 .47.381.851.851.851.412 0 .738-.3.816-.688h7.59c.078.389.405.688.817.688.469 0 .851-.381.851-.851 0-.469-.382-.85-.851-.85-.412 0-.739.299-.817.687z"/><path d="m147.057 50.742c-.175 0-.328.064-.464.156l-13.563-13.563-.047-.047h-8.635c-.078-.389-.406-.688-.816-.688-.471 0-.852.381-.852.85s.381.85.852.85c.41 0 .738-.299.816-.687h8.5l13.516 13.515c-.092.136-.156.289-.156.464 0 .471.38.85.85.85.469 0 .851-.379.851-.85-.003-.469-.384-.85-.852-.85z"/><path d="m179.344 32.24h37.592v-.325h-37.592c-.078-.389-.404-.687-.816-.687-.469 0-.85.38-.85.85s.381.85.85.85c.41 0 .738-.299.816-.688z"/><path d="m165.059 28.806c-.175 0-.328.066-.463.156l-4.848-4.848-.048-.047h-28.087c-.077-.388-.404-.687-.815-.687-.47 0-.851.38-.851.85s.381.85.851.85c.411 0 .739-.299.815-.688h27.951l4.801 4.801c-.092.135-.156.288-.156.463 0 .47.381.85.85.85.471 0 .851-.38.851-.85-.002-.469-.383-.85-.851-.85z"/><path d="m170.682 21.162c.172 0 .32-.062.453-.149l3.361 3.361.051.051h6.766c.082.382.406.675.813.675.47 0 .851-.38.851-.85s-.381-.85-.851-.85c-.407 0-.731.292-.813.675h-6.621l-3.309-3.31c.086-.133.149-.283.149-.453 0-.469-.382-.85-.851-.85-.47 0-.851.38-.851.85s.383.85.852.85z"/><path d="m166.796 21.459c.175 0 .328-.065.463-.156l5.755 5.754.049.047h9.946c.078.389.405.687.816.687.47 0 .85-.38.85-.85s-.38-.85-.85-.85c-.411 0-.738.299-.816.687h-9.813l-5.705-5.707c.091-.135.156-.289.156-.463 0-.469-.381-.85-.851-.85s-.851.38-.851.85.381.851.851.851z"/><path d="m145.458 31.044c-.47 0-.851.38-.851.85s.381.85.851.85c.175 0 .328-.065.463-.156l4.179 4.179.049.047h14.427v-.325h-14.292l-4.131-4.131c.091-.135.156-.288.156-.463 0-.471-.381-.851-.851-.851z"/><path d="m120.915 22.502c.469 0 .851-.38.851-.85 0-.175-.065-.329-.156-.463l3.48-3.483h14.773c.078.389.406.688.816.688.471 0 .85-.38.85-.85s-.379-.85-.85-.85c-.41 0-.738.298-.816.687h-14.907l-3.578 3.578c-.135-.09-.288-.156-.463-.156-.47 0-.851.38-.851.85s.381.849.851.849z"/></g></g></svg>