<?xml version="1.0" encoding="utf-8"?>
<!-- Generator: Adobe Illustrator 16.0.0, SVG Export Plug-In . SVG Version: 6.00 Build 0)  -->
<!DOCTYPE svg PUBLIC "-//W3C//DTD SVG 1.1//EN" "http://www.w3.org/Graphics/SVG/1.1/DTD/svg11.dtd">
<svg version="1.1" id="Layer_1" xmlns="http://www.w3.org/2000/svg" xmlns:xlink="http://www.w3.org/1999/xlink" x="0px" y="0px"
	 width="90px" height="90px" viewBox="0 0 90 90" enable-background="new 0 0 90 90" xml:space="preserve">
<g>
	<defs>
		<rect id="SVGID_1_" x="-90" y="-15" width="180" height="120"/>
	</defs>
	<clipPath id="SVGID_2_">
		<use xlink:href="#SVGID_1_"  overflow="visible"/>
	</clipPath>
	<radialGradient id="SVGID_3_" cx="0" cy="45" r="116.3341" gradientUnits="userSpaceOnUse">
		<stop  offset="0.0703" style="stop-color:#FFFFFF"/>
		<stop  offset="0.4386" style="stop-color:#FBFBFB"/>
		<stop  offset="0.832" style="stop-color:#EEEEEE"/>
		<stop  offset="1" style="stop-color:#E6E6E6"/>
	</radialGradient>
	<rect x="-90" y="-15" display="none" clip-path="url(#SVGID_2_)" fill="url(#SVGID_3_)" width="180" height="120"/>
	<g clip-path="url(#SVGID_2_)">
		<g opacity="0.3">
			<path fill="#4BB6A1" d="M-79.462,41.901h21.55l13.313,13.313h18.397c0.107,0.43,0.478,0.756,0.941,0.756
				c0.546,0,0.988-0.442,0.988-0.988s-0.442-0.988-0.988-0.988c-0.463,0-0.834,0.325-0.941,0.756h-18.205l-13.313-13.313h-21.935
				l-10.813,10.813h-47.962v0.465h48.155L-79.462,41.901z"/>
			<path fill="#4BB6A1" d="M-75.906,45.048h14.386c0.078,0.389,0.405,0.687,0.817,0.687c0.469,0,0.85-0.38,0.85-0.85
				s-0.38-0.85-0.85-0.85c-0.412,0-0.738,0.298-0.817,0.687h-14.521l-9.98,9.979h-42.72v0.325h42.855L-75.906,45.048z"/>
			<path fill="#4BB6A1" d="M-85.22,38.692c0.149,0.091,0.315,0.157,0.502,0.157c0.546,0,0.988-0.442,0.988-0.988
				s-0.442-0.988-0.988-0.988s-0.988,0.442-0.988,0.988c0,0.188,0.066,0.353,0.157,0.502l-8.33,8.33h-33.7v0.465h33.892
				L-85.22,38.692z"/>
			<path fill="#4BB6A1" d="M-43.006,47.849c-0.081,0.144-0.14,0.3-0.14,0.477c0,0.546,0.442,0.988,0.988,0.988
				s0.988-0.442,0.988-0.988s-0.442-0.988-0.988-0.988c-0.199,0-0.374,0.073-0.528,0.174l-12.708-12.707h-23.959
				c-0.107-0.431-0.478-0.756-0.941-0.756c-0.545,0-0.988,0.442-0.988,0.988s0.443,0.988,0.988,0.988
				c0.463,0,0.834-0.326,0.941-0.756h23.767L-43.006,47.849z"/>
			<path fill="#4BB6A1" d="M-25.764,58.155h10.144c0.107,0.43,0.478,0.755,0.941,0.755c0.546,0,0.988-0.442,0.988-0.988
				s-0.442-0.988-0.988-0.988c-0.463,0-0.834,0.326-0.941,0.756h-10.336l-11.336,11.337h-35.154l-8.837-8.837h-46.294v0.466h46.102
				l8.836,8.836h35.539L-25.764,58.155z"/>
			<path fill="#4BB6A1" d="M-30.337,58.705c0.149,0.091,0.315,0.156,0.502,0.156c0.546,0,0.988-0.442,0.988-0.988
				c0-0.545-0.442-0.988-0.988-0.988c-0.545,0-0.988,0.443-0.988,0.988c0,0.188,0.066,0.354,0.157,0.503l-3.771,3.771h-7.549
				l-3.061-3.061c0.086-0.146,0.149-0.308,0.149-0.49c0-0.546-0.442-0.988-0.988-0.988c-0.545,0-0.988,0.442-0.988,0.988
				s0.443,0.988,0.988,0.988c0.193,0,0.362-0.069,0.514-0.165l3.192,3.192h7.935L-30.337,58.705z"/>
			<path fill="#4BB6A1" d="M-81.757,29.254L-95.71,43.207h-31.868v0.325h32.003l13.952-13.953h29.166l7.437,7.437h17.239
				c0.079,0.387,0.406,0.684,0.816,0.684c0.469,0,0.85-0.38,0.85-0.85c0-0.47-0.38-0.85-0.85-0.85c-0.413,0-0.741,0.3-0.818,0.69
				h-17.103l-7.437-7.437H-81.757z"/>
			<path fill="#4BB6A1" d="M-98.529,40.036h-29.049v0.465h29.241l14.417-14.418h29.611l8.168-8.168h22.323
				c0.107,0.43,0.478,0.756,0.941,0.756c0.546,0,0.988-0.442,0.988-0.988s-0.442-0.988-0.988-0.988
				c-0.463,0-0.834,0.326-0.941,0.756h-22.516l-8.168,8.168h-29.61L-98.529,40.036z"/>
			<path fill="#4BB6A1" d="M-86.631,22.13l-9.999,10h-14.428c-0.107-0.43-0.478-0.756-0.941-0.756c-0.546,0-0.988,0.442-0.988,0.988
				s0.442,0.988,0.988,0.988c0.463,0,0.834-0.325,0.941-0.756h14.621l10-9.999h28.146c0.107,0.43,0.478,0.755,0.941,0.755
				c0.546,0,0.988-0.442,0.988-0.988c0-0.545-0.442-0.988-0.988-0.988c-0.463,0-0.834,0.326-0.941,0.756H-86.631z"/>
			<path fill="#4BB6A1" d="M-131.465,36.598c0.817-0.278,18.127-0.147,30.15,0.015c0.103,0.437,0.476,0.769,0.944,0.769
				c0.545,0,0.988-0.442,0.988-0.988s-0.442-0.988-0.988-0.988c-0.459,0-0.828,0.319-0.939,0.743
				c-11.596-0.158-29.966-0.34-30.418,0.074l0.214,0.233L-131.465,36.598z"/>
			<path fill="#4BB6A1" d="M-93.781,24.8c0.135,0.091,0.289,0.156,0.464,0.156c0.469,0,0.85-0.38,0.85-0.85s-0.38-0.85-0.85-0.85
				s-0.85,0.38-0.85,0.85c0,0.175,0.065,0.329,0.156,0.464l-4.257,4.257h-30.861v0.325h30.996L-93.781,24.8z"/>
			<path fill="#4BB6A1" d="M-90.907,23.121c0.469,0,0.85-0.38,0.85-0.85c0-0.171-0.063-0.32-0.149-0.454l2.664-2.664h7.292
				c0.083,0.383,0.407,0.675,0.814,0.675c0.469,0,0.85-0.381,0.85-0.85s-0.38-0.85-0.85-0.85c-0.407,0-0.731,0.292-0.814,0.675
				h-7.436l-2.767,2.766c-0.133-0.086-0.283-0.149-0.453-0.149c-0.469,0-0.85,0.381-0.85,0.85S-91.376,23.121-90.907,23.121z"/>
			<path fill="#4BB6A1" d="M-60.763,32.129h-15.035c-0.107-0.43-0.478-0.756-0.941-0.756c-0.546,0-0.988,0.442-0.988,0.988
				s0.442,0.988,0.988,0.988c0.463,0,0.834-0.325,0.941-0.756h15.035c0.107,0.431,0.478,0.756,0.941,0.756
				c0.546,0,0.988-0.442,0.988-0.988s-0.442-0.988-0.988-0.988C-60.285,31.374-60.656,31.699-60.763,32.129z"/>
			<path fill="#4BB6A1" d="M-40.565,26.083h14.364c0.107,0.43,0.478,0.756,0.941,0.756c0.546,0,0.988-0.442,0.988-0.988
				s-0.442-0.988-0.988-0.988c-0.463,0-0.834,0.326-0.941,0.756h-14.364c-0.107-0.43-0.478-0.756-0.941-0.756
				c-0.546,0-0.988,0.442-0.988,0.988s0.442,0.988,0.988,0.988C-41.043,26.839-40.672,26.513-40.565,26.083z"/>
			<path fill="#4BB6A1" d="M-29.911,20.211c-0.463,0-0.834,0.326-0.941,0.756h-12.333l-4.75,4.75
				c-0.149-0.091-0.315-0.157-0.502-0.157c-0.546,0-0.988,0.442-0.988,0.988s0.442,0.988,0.988,0.988s0.988-0.442,0.988-0.988
				c0-0.188-0.066-0.353-0.157-0.502l4.613-4.613h12.14c0.107,0.43,0.478,0.755,0.941,0.755c0.546,0,0.988-0.442,0.988-0.988
				S-29.365,20.211-29.911,20.211z"/>
			<path fill="#4BB6A1" d="M-40.465,58.508h5.23c0.085,0.459,0.469,0.813,0.953,0.813c0.546,0,0.988-0.442,0.988-0.988
				s-0.442-0.988-0.988-0.988c-0.484,0-0.868,0.354-0.953,0.813h-5.23c-0.085-0.459-0.469-0.813-0.953-0.813
				c-0.546,0-0.988,0.442-0.988,0.988s0.442,0.988,0.988,0.988C-40.934,59.321-40.55,58.967-40.465,58.508z"/>
			<path fill="#4BB6A1" d="M-68.28,58.058c-0.545,0-0.988,0.442-0.988,0.988s0.442,0.988,0.988,0.988
				c0.168,0,0.318-0.052,0.457-0.126l2.517,2.517h4.612c0.107,0.431,0.478,0.756,0.941,0.756c0.546,0,0.988-0.442,0.988-0.988
				s-0.442-0.988-0.988-0.988c-0.463,0-0.834,0.326-0.941,0.756h-4.42l-2.365-2.365c0.109-0.159,0.188-0.341,0.188-0.549
				C-67.292,58.5-67.734,58.058-68.28,58.058z"/>
			<path fill="#4BB6A1" d="M-76.78,49.391c-0.546,0-0.988,0.442-0.988,0.988s0.442,0.988,0.988,0.988
				c0.463,0,0.834-0.325,0.941-0.755h17.256l8.47,8.469c-0.091,0.149-0.157,0.315-0.157,0.503c0,0.546,0.442,0.988,0.988,0.988
				s0.988-0.442,0.988-0.988s-0.442-0.988-0.988-0.988c-0.188,0-0.353,0.066-0.502,0.157l-8.606-8.606h-17.448
				C-75.945,49.717-76.316,49.391-76.78,49.391z"/>
			<path fill="#4BB6A1" d="M-78.589,55.394c-0.546,0-0.988,0.442-0.988,0.988s0.442,0.988,0.988,0.988
				c0.463,0,0.834-0.326,0.941-0.756h16.325l5.516,5.516c-0.073,0.137-0.124,0.286-0.124,0.453c0,0.546,0.442,0.988,0.988,0.988
				s0.988-0.442,0.988-0.988s-0.442-0.988-0.988-0.988c-0.209,0-0.392,0.079-0.552,0.189l-5.636-5.635h-16.518
				C-77.755,55.719-78.126,55.394-78.589,55.394z"/>
			<path fill="#4BB6A1" d="M-41.507,34.963c0.469,0,0.85-0.38,0.85-0.85s-0.38-0.85-0.85-0.85c-0.175,0-0.328,0.065-0.463,0.156
				l-4.087-4.087c0.091-0.135,0.156-0.289,0.156-0.463c0-0.469-0.38-0.85-0.85-0.85s-0.85,0.38-0.85,0.85s0.38,0.85,0.85,0.85
				c0.175,0,0.329-0.065,0.463-0.156l4.087,4.086c-0.091,0.135-0.156,0.289-0.156,0.464C-42.356,34.583-41.976,34.963-41.507,34.963
				z"/>
			<path fill="#4BB6A1" d="M-98.533,50.476c0.412,0,0.739-0.299,0.817-0.688h5.728l11.218-11.217h13.611
				c0.078,0.388,0.405,0.687,0.817,0.687c0.469,0,0.85-0.381,0.85-0.85s-0.38-0.85-0.85-0.85c-0.412,0-0.739,0.299-0.817,0.688
				h-13.745l-11.218,11.217h-5.594c-0.078-0.389-0.405-0.687-0.816-0.687c-0.469,0-0.85,0.38-0.85,0.85
				C-99.383,50.095-99.002,50.476-98.533,50.476z"/>
			<path fill="#4BB6A1" d="M-103.381,49.451h-26.973v0.35h26.973c0.083,0.382,0.407,0.675,0.814,0.675c0.469,0,0.85-0.381,0.85-0.85
				c0-0.47-0.38-0.85-0.85-0.85C-102.974,48.776-103.299,49.068-103.381,49.451z"/>
			<path fill="#4BB6A1" d="M-50.723,54.877c0.469,0,0.85-0.381,0.85-0.85c0-0.47-0.38-0.85-0.85-0.85
				c-0.175,0-0.328,0.065-0.463,0.156l-5.933-5.934l-0.048-0.047h-14.366c-0.078-0.389-0.405-0.688-0.817-0.688
				c-0.469,0-0.85,0.381-0.85,0.85c0,0.47,0.38,0.85,0.85,0.85c0.412,0,0.739-0.298,0.817-0.687h14.231l5.885,5.885
				c-0.091,0.136-0.156,0.289-0.156,0.464C-51.573,54.496-51.192,54.877-50.723,54.877z"/>
			<path fill="#4BB6A1" d="M-38.744,45.082h7.59c0.078,0.389,0.405,0.687,0.817,0.687c0.469,0,0.85-0.38,0.85-0.85
				s-0.38-0.85-0.85-0.85c-0.412,0-0.739,0.298-0.817,0.687h-7.59c-0.078-0.389-0.405-0.687-0.817-0.687
				c-0.469,0-0.85,0.38-0.85,0.85s0.38,0.85,0.85,0.85C-39.149,45.769-38.822,45.47-38.744,45.082z"/>
			<path fill="#4BB6A1" d="M-57.041,39.258c0.175,0,0.328-0.066,0.463-0.156l13.563,13.563l0.048,0.047h8.634
				c0.078,0.389,0.405,0.688,0.817,0.688c0.469,0,0.85-0.381,0.85-0.85c0-0.47-0.38-0.851-0.85-0.851
				c-0.412,0-0.738,0.299-0.817,0.688h-8.5l-13.515-13.515c0.091-0.135,0.156-0.289,0.156-0.464c0-0.469-0.38-0.85-0.85-0.85
				s-0.85,0.38-0.85,0.85S-57.51,39.258-57.041,39.258z"/>
			<path fill="#4BB6A1" d="M-89.328,57.76h-37.591v0.325h37.591c0.079,0.389,0.405,0.687,0.817,0.687c0.469,0,0.85-0.38,0.85-0.85
				c0-0.469-0.38-0.85-0.85-0.85C-88.923,57.072-89.25,57.371-89.328,57.76z"/>
			<path fill="#4BB6A1" d="M-75.043,61.194c0.175,0,0.328-0.065,0.463-0.156l4.848,4.848l0.048,0.048h28.085
				c0.078,0.389,0.405,0.687,0.817,0.687c0.469,0,0.85-0.381,0.85-0.85c0-0.47-0.38-0.85-0.85-0.85
				c-0.412,0-0.739,0.299-0.817,0.688H-69.55l-4.8-4.801c0.091-0.135,0.156-0.288,0.156-0.463c0-0.47-0.38-0.85-0.85-0.85
				s-0.85,0.38-0.85,0.85C-75.893,60.813-75.512,61.194-75.043,61.194z"/>
			<path fill="#4BB6A1" d="M-80.667,68.838c-0.17,0-0.32,0.062-0.453,0.149l-3.361-3.361l-0.052-0.051h-6.764
				c-0.083-0.383-0.407-0.675-0.814-0.675c-0.469,0-0.85,0.38-0.85,0.85c0,0.469,0.381,0.85,0.85,0.85
				c0.407,0,0.731-0.292,0.814-0.675h6.62l3.309,3.31c-0.086,0.133-0.149,0.283-0.149,0.453c0,0.469,0.38,0.85,0.85,0.85
				c0.47,0,0.85-0.381,0.85-0.85C-79.816,69.218-80.197,68.838-80.667,68.838z"/>
			<path fill="#4BB6A1" d="M-76.78,68.54c-0.175,0-0.328,0.065-0.463,0.156l-5.754-5.754l-0.048-0.048h-9.947
				c-0.078-0.389-0.405-0.687-0.817-0.687c-0.469,0-0.85,0.38-0.85,0.85c0,0.469,0.38,0.85,0.85,0.85
				c0.412,0,0.739-0.299,0.817-0.688h9.813l5.706,5.707c-0.09,0.135-0.156,0.288-0.156,0.463c0,0.47,0.38,0.85,0.85,0.85
				s0.85-0.38,0.85-0.85C-75.93,68.921-76.311,68.54-76.78,68.54z"/>
			<path fill="#4BB6A1" d="M-55.442,58.956c0.469,0,0.85-0.381,0.85-0.85c0-0.47-0.381-0.85-0.85-0.85
				c-0.175,0-0.328,0.065-0.463,0.155l-4.179-4.179l-0.048-0.047h-14.427v0.325h14.292l4.131,4.131
				c-0.091,0.136-0.156,0.289-0.156,0.464C-56.292,58.575-55.911,58.956-55.442,58.956z"/>
			<path fill="#4BB6A1" d="M-30.899,67.498c-0.469,0-0.85,0.381-0.85,0.85c0,0.175,0.065,0.328,0.156,0.464l-3.482,3.482h-14.773
				c-0.078-0.389-0.405-0.688-0.817-0.688c-0.469,0-0.85,0.38-0.85,0.85s0.38,0.85,0.85,0.85c0.412,0,0.739-0.299,0.817-0.687
				h14.908l3.578-3.578c0.135,0.091,0.289,0.156,0.463,0.156c0.469,0,0.85-0.38,0.85-0.85
				C-30.049,67.879-30.43,67.498-30.899,67.498z"/>
		</g>
		<g opacity="0.3">
			<path fill="#4BB6A1" d="M79.478,48.099h-21.55L44.614,34.786H26.217c-0.106-0.43-0.478-0.756-0.941-0.756
				c-0.546,0-0.988,0.442-0.988,0.988s0.442,0.988,0.988,0.988c0.464,0,0.834-0.325,0.941-0.755h18.205l13.313,13.313H79.67
				l10.813-10.813h47.963v-0.465H90.291L79.478,48.099z"/>
			<path fill="#4BB6A1" d="M75.922,44.952H61.536c-0.078-0.389-0.405-0.687-0.817-0.687c-0.469,0-0.85,0.38-0.85,0.85
				s0.381,0.85,0.85,0.85c0.412,0,0.738-0.298,0.817-0.687h14.521l9.979-9.979h42.721v-0.325H85.901L75.922,44.952z"/>
			<path fill="#4BB6A1" d="M85.236,51.308c-0.149-0.09-0.315-0.156-0.503-0.156c-0.546,0-0.988,0.442-0.988,0.988
				s0.442,0.988,0.988,0.988s0.988-0.442,0.988-0.988c0-0.188-0.066-0.354-0.157-0.503l8.33-8.329h33.699v-0.465H93.702
				L85.236,51.308z"/>
			<path fill="#4BB6A1" d="M43.022,42.151c0.081-0.143,0.14-0.3,0.14-0.477c0-0.545-0.442-0.988-0.988-0.988
				s-0.988,0.442-0.988,0.988c0,0.546,0.442,0.988,0.988,0.988c0.198,0,0.373-0.073,0.528-0.174l12.707,12.708h23.96
				c0.107,0.431,0.479,0.756,0.941,0.756c0.546,0,0.988-0.442,0.988-0.988s-0.442-0.988-0.988-0.988
				c-0.463,0-0.834,0.325-0.941,0.756H55.603L43.022,42.151z"/>
			<path fill="#4BB6A1" d="M25.78,31.845H15.636c-0.106-0.43-0.478-0.756-0.941-0.756c-0.545,0-0.987,0.443-0.987,0.988
				c0,0.546,0.442,0.989,0.987,0.989c0.464,0,0.835-0.326,0.942-0.756h10.336l11.336-11.336h35.154L81.3,29.81h46.294v-0.465H81.492
				l-8.837-8.837H37.116L25.78,31.845z"/>
			<path fill="#4BB6A1" d="M30.353,31.295c-0.149-0.091-0.314-0.157-0.503-0.157c-0.545,0-0.988,0.442-0.988,0.988
				s0.443,0.988,0.988,0.988c0.547,0,0.989-0.442,0.989-0.988c0-0.188-0.066-0.353-0.157-0.502l3.771-3.771h7.549l3.061,3.06
				c-0.087,0.147-0.149,0.308-0.149,0.491c0,0.545,0.442,0.988,0.988,0.988s0.988-0.443,0.988-0.988
				c0-0.546-0.442-0.988-0.988-0.988c-0.192,0-0.362,0.069-0.514,0.165l-3.193-3.192h-7.935L30.353,31.295z"/>
			<path fill="#4BB6A1" d="M81.773,60.746l13.952-13.952h31.868v-0.325H95.591L81.639,60.421H52.473l-7.437-7.437H27.797
				c-0.079-0.387-0.405-0.684-0.816-0.684c-0.469,0-0.85,0.38-0.85,0.85c0,0.469,0.381,0.85,0.85,0.85c0.413,0,0.741-0.3,0.817-0.69
				h17.104l7.438,7.437H81.773z"/>
			<path fill="#4BB6A1" d="M98.545,49.964h29.049v-0.465H98.353L83.936,63.917H54.324l-8.168,8.168H23.833
				c-0.106-0.431-0.478-0.756-0.941-0.756c-0.545,0-0.988,0.442-0.988,0.988s0.443,0.988,0.988,0.988
				c0.464,0,0.835-0.325,0.941-0.756h22.516l8.169-8.168h29.61L98.545,49.964z"/>
			<path fill="#4BB6A1" d="M86.646,67.87l9.999-10h14.429c0.106,0.431,0.478,0.756,0.941,0.756c0.546,0,0.988-0.442,0.988-0.988
				c0-0.545-0.442-0.988-0.988-0.988c-0.464,0-0.835,0.326-0.941,0.756H96.453l-9.999,10H58.308
				c-0.106-0.431-0.478-0.756-0.941-0.756c-0.546,0-0.988,0.442-0.988,0.988s0.442,0.988,0.988,0.988
				c0.464,0,0.835-0.326,0.941-0.756H86.646z"/>
			<path fill="#4BB6A1" d="M131.48,53.402c-0.816,0.278-18.127,0.146-30.149-0.015c-0.103-0.437-0.477-0.769-0.944-0.769
				c-0.546,0-0.988,0.442-0.988,0.988s0.442,0.988,0.988,0.988c0.459,0,0.827-0.319,0.938-0.743
				c11.597,0.157,29.967,0.34,30.418-0.074l-0.214-0.233L131.48,53.402z"/>
			<path fill="#4BB6A1" d="M93.797,65.2c-0.136-0.091-0.289-0.156-0.464-0.156c-0.47,0-0.85,0.38-0.85,0.85
				c0,0.469,0.38,0.85,0.85,0.85c0.469,0,0.85-0.381,0.85-0.85c0-0.175-0.065-0.328-0.156-0.464l4.257-4.257h30.861v-0.325H98.149
				L93.797,65.2z"/>
			<path fill="#4BB6A1" d="M90.923,66.88c-0.469,0-0.85,0.38-0.85,0.85c0,0.17,0.063,0.319,0.149,0.453l-2.664,2.663h-7.291
				c-0.083-0.382-0.407-0.675-0.814-0.675c-0.47,0-0.85,0.381-0.85,0.85c0,0.47,0.38,0.85,0.85,0.85
				c0.407,0,0.731-0.292,0.814-0.675h7.436l2.767-2.766c0.133,0.086,0.283,0.149,0.453,0.149c0.47,0,0.85-0.381,0.85-0.85
				C91.772,67.26,91.393,66.88,90.923,66.88z"/>
			<path fill="#4BB6A1" d="M60.778,57.87h15.035c0.106,0.431,0.478,0.756,0.941,0.756c0.546,0,0.988-0.442,0.988-0.988
				c0-0.545-0.442-0.988-0.988-0.988c-0.464,0-0.835,0.326-0.941,0.756H60.778c-0.106-0.43-0.478-0.756-0.941-0.756
				c-0.546,0-0.988,0.443-0.988,0.988c0,0.546,0.442,0.988,0.988,0.988C60.301,58.626,60.672,58.301,60.778,57.87z"/>
			<path fill="#4BB6A1" d="M40.581,63.917H26.217c-0.106-0.431-0.478-0.756-0.941-0.756c-0.546,0-0.988,0.442-0.988,0.988
				s0.442,0.988,0.988,0.988c0.464,0,0.835-0.325,0.941-0.756h14.364c0.107,0.431,0.479,0.756,0.941,0.756
				c0.546,0,0.988-0.442,0.988-0.988s-0.442-0.988-0.988-0.988C41.06,63.161,40.688,63.486,40.581,63.917z"/>
			<path fill="#4BB6A1" d="M29.927,69.788c0.463,0,0.834-0.325,0.941-0.756H43.2l4.75-4.749c0.149,0.091,0.314,0.157,0.502,0.157
				c0.546,0,0.988-0.443,0.988-0.988c0-0.546-0.442-0.988-0.988-0.988s-0.988,0.442-0.988,0.988c0,0.188,0.066,0.353,0.157,0.502
				l-4.613,4.613h-12.14c-0.107-0.43-0.479-0.756-0.941-0.756c-0.546,0-0.988,0.442-0.988,0.988S29.381,69.788,29.927,69.788z"/>
			<path fill="#4BB6A1" d="M40.48,31.492h-5.23c-0.085-0.459-0.469-0.814-0.953-0.814c-0.546,0-0.988,0.442-0.988,0.988
				s0.442,0.988,0.988,0.988c0.484,0,0.868-0.354,0.953-0.813h5.23c0.086,0.459,0.47,0.813,0.953,0.813
				c0.546,0,0.988-0.442,0.988-0.988s-0.442-0.988-0.988-0.988C40.95,30.678,40.565,31.033,40.48,31.492z"/>
			<path fill="#4BB6A1" d="M68.296,31.942c0.546,0,0.988-0.443,0.988-0.988c0-0.546-0.442-0.988-0.988-0.988
				c-0.168,0-0.318,0.052-0.456,0.126l-2.517-2.517h-4.612c-0.107-0.43-0.479-0.756-0.941-0.756c-0.546,0-0.988,0.443-0.988,0.988
				c0,0.546,0.442,0.988,0.988,0.988c0.463,0,0.834-0.325,0.941-0.755h4.42l2.365,2.365c-0.109,0.159-0.188,0.341-0.188,0.549
				C67.308,31.5,67.75,31.942,68.296,31.942z"/>
			<path fill="#4BB6A1" d="M76.796,40.609c0.546,0,0.988-0.443,0.988-0.988c0-0.546-0.442-0.988-0.988-0.988
				c-0.464,0-0.834,0.325-0.941,0.755H58.599l-8.47-8.47c0.091-0.149,0.157-0.315,0.157-0.502c0-0.546-0.442-0.988-0.988-0.988
				s-0.988,0.442-0.988,0.988s0.442,0.988,0.988,0.988c0.188,0,0.353-0.066,0.502-0.157l8.606,8.605h17.448
				C75.961,40.284,76.332,40.609,76.796,40.609z"/>
			<path fill="#4BB6A1" d="M78.605,34.607c0.546,0,0.988-0.443,0.988-0.989c0-0.545-0.442-0.988-0.988-0.988
				c-0.464,0-0.834,0.326-0.941,0.756H61.339l-5.516-5.515c0.072-0.138,0.124-0.287,0.124-0.453c0-0.546-0.443-0.988-0.988-0.988
				c-0.546,0-0.988,0.442-0.988,0.988c0,0.545,0.442,0.988,0.988,0.988c0.209,0,0.392-0.08,0.552-0.19l5.636,5.635h16.518
				C77.771,34.281,78.142,34.607,78.605,34.607z"/>
			<path fill="#4BB6A1" d="M41.522,55.036c-0.469,0-0.85,0.381-0.85,0.85c0,0.47,0.381,0.85,0.85,0.85
				c0.175,0,0.328-0.065,0.464-0.155l4.087,4.086c-0.091,0.136-0.156,0.289-0.156,0.464c0,0.47,0.38,0.85,0.85,0.85
				c0.469,0,0.85-0.38,0.85-0.85s-0.381-0.85-0.85-0.85c-0.176,0-0.329,0.065-0.464,0.156l-4.087-4.087
				c0.091-0.135,0.156-0.288,0.156-0.464C42.372,55.417,41.992,55.036,41.522,55.036z"/>
			<path fill="#4BB6A1" d="M98.549,39.524c-0.412,0-0.739,0.299-0.817,0.688h-5.728L80.786,51.43H67.175
				c-0.078-0.389-0.405-0.688-0.816-0.688c-0.47,0-0.851,0.381-0.851,0.85c0,0.47,0.381,0.85,0.851,0.85
				c0.411,0,0.738-0.298,0.816-0.687H80.92l11.218-11.218h5.594c0.079,0.388,0.405,0.687,0.817,0.687c0.469,0,0.85-0.38,0.85-0.85
				C99.398,39.905,99.018,39.524,98.549,39.524z"/>
			<path fill="#4BB6A1" d="M103.397,40.549h26.972v-0.35h-26.972c-0.083-0.382-0.407-0.675-0.814-0.675
				c-0.47,0-0.851,0.38-0.851,0.85c0,0.469,0.381,0.85,0.851,0.85C102.99,41.224,103.314,40.932,103.397,40.549z"/>
			<path fill="#4BB6A1" d="M50.739,35.123c-0.47,0-0.85,0.381-0.85,0.85c0,0.47,0.38,0.85,0.85,0.85
				c0.175,0,0.328-0.066,0.463-0.156l5.933,5.933l0.048,0.047h14.366c0.077,0.389,0.404,0.688,0.816,0.688
				c0.47,0,0.85-0.38,0.85-0.85c0-0.469-0.38-0.85-0.85-0.85c-0.411,0-0.738,0.298-0.816,0.687H57.317l-5.885-5.885
				c0.091-0.135,0.156-0.288,0.156-0.463C51.589,35.504,51.208,35.123,50.739,35.123z"/>
			<path fill="#4BB6A1" d="M38.76,44.918h-7.59c-0.078-0.388-0.405-0.687-0.817-0.687c-0.469,0-0.85,0.381-0.85,0.85
				c0,0.47,0.381,0.85,0.85,0.85c0.412,0,0.739-0.299,0.817-0.688h7.59c0.078,0.389,0.405,0.688,0.817,0.688
				c0.469,0,0.85-0.38,0.85-0.85c0-0.469-0.381-0.85-0.85-0.85C39.165,44.231,38.838,44.53,38.76,44.918z"/>
			<path fill="#4BB6A1" d="M57.057,50.742c-0.175,0-0.329,0.065-0.464,0.156L43.03,37.335l-0.048-0.047h-8.635
				c-0.078-0.389-0.405-0.688-0.816-0.688c-0.47,0-0.851,0.381-0.851,0.85s0.381,0.85,0.851,0.85c0.411,0,0.738-0.299,0.816-0.687
				h8.5l13.516,13.515c-0.091,0.136-0.156,0.289-0.156,0.464c0,0.47,0.38,0.85,0.85,0.85c0.469,0,0.85-0.38,0.85-0.85
				C57.906,51.123,57.525,50.742,57.057,50.742z"/>
			<path fill="#4BB6A1" d="M89.344,32.24h37.592v-0.325H89.344c-0.078-0.389-0.405-0.687-0.816-0.687c-0.47,0-0.85,0.38-0.85,0.85
				s0.38,0.85,0.85,0.85C88.938,32.928,89.266,32.629,89.344,32.24z"/>
			<path fill="#4BB6A1" d="M75.059,28.806c-0.175,0-0.328,0.066-0.463,0.156l-4.848-4.848L69.7,24.066H41.614
				c-0.078-0.388-0.405-0.687-0.816-0.687c-0.47,0-0.85,0.38-0.85,0.85s0.38,0.85,0.85,0.85c0.411,0,0.739-0.299,0.816-0.688h27.951
				l4.8,4.801c-0.091,0.135-0.156,0.288-0.156,0.463c0,0.47,0.381,0.85,0.85,0.85c0.47,0,0.85-0.38,0.85-0.85
				C75.908,29.187,75.528,28.806,75.059,28.806z"/>
			<path fill="#4BB6A1" d="M80.682,21.162c0.171,0,0.32-0.062,0.453-0.149l3.361,3.361l0.051,0.051h6.765
				c0.083,0.382,0.407,0.675,0.814,0.675c0.469,0,0.85-0.38,0.85-0.85s-0.381-0.85-0.85-0.85c-0.407,0-0.731,0.292-0.814,0.675
				h-6.62l-3.309-3.31c0.086-0.133,0.149-0.283,0.149-0.453c0-0.469-0.381-0.85-0.851-0.85c-0.469,0-0.85,0.38-0.85,0.85
				S80.213,21.162,80.682,21.162z"/>
			<path fill="#4BB6A1" d="M76.796,21.459c0.175,0,0.328-0.065,0.463-0.156l5.755,5.754l0.048,0.047h9.947
				c0.078,0.389,0.405,0.687,0.816,0.687c0.47,0,0.85-0.38,0.85-0.85s-0.38-0.85-0.85-0.85c-0.411,0-0.738,0.299-0.816,0.687h-9.813
				l-5.706-5.707c0.091-0.135,0.156-0.289,0.156-0.463c0-0.469-0.381-0.85-0.85-0.85c-0.47,0-0.85,0.38-0.85,0.85
				S76.326,21.459,76.796,21.459z"/>
			<path fill="#4BB6A1" d="M55.458,31.044c-0.47,0-0.851,0.38-0.851,0.85s0.381,0.85,0.851,0.85c0.175,0,0.328-0.065,0.463-0.156
				l4.179,4.179l0.048,0.047h14.427v-0.325H60.282l-4.131-4.131c0.091-0.135,0.156-0.288,0.156-0.463
				C56.308,31.424,55.927,31.044,55.458,31.044z"/>
			<path fill="#4BB6A1" d="M30.915,22.502c0.469,0,0.85-0.38,0.85-0.85c0-0.175-0.065-0.329-0.156-0.463l3.481-3.483h14.774
				c0.077,0.389,0.405,0.688,0.816,0.688c0.47,0,0.85-0.38,0.85-0.85s-0.38-0.85-0.85-0.85c-0.411,0-0.738,0.298-0.816,0.687H34.956
				l-3.578,3.578c-0.135-0.09-0.288-0.156-0.463-0.156c-0.47,0-0.85,0.38-0.85,0.85S30.445,22.502,30.915,22.502z"/>
		</g>
	</g>
	<g display="none" clip-path="url(#SVGID_2_)">
		
			<radialGradient id="SVGID_4_" cx="129.1963" cy="-82.9854" r="114.6667" gradientTransform="matrix(-1 0 0 -1 180 -37.9854)" gradientUnits="userSpaceOnUse">
			<stop  offset="0.2" style="stop-color:#0071BC"/>
			<stop  offset="0.399" style="stop-color:#004D80"/>
			<stop  offset="0.6014" style="stop-color:#002C49"/>
			<stop  offset="0.7764" style="stop-color:#001421"/>
			<stop  offset="0.9151" style="stop-color:#000509"/>
			<stop  offset="1" style="stop-color:#000000"/>
		</radialGradient>
		<circle display="inline" fill="url(#SVGID_4_)" cx="50.804" cy="45" r="114.667"/>
		
			<radialGradient id="SVGID_5_" cx="230.21" cy="-82.9854" r="114.6667" gradientTransform="matrix(-1 0 0 -1 180 -37.9854)" gradientUnits="userSpaceOnUse">
			<stop  offset="0.2" style="stop-color:#0071BC"/>
			<stop  offset="0.399" style="stop-color:#004D80"/>
			<stop  offset="0.6014" style="stop-color:#002C49"/>
			<stop  offset="0.7764" style="stop-color:#001421"/>
			<stop  offset="0.9151" style="stop-color:#000509"/>
			<stop  offset="1" style="stop-color:#000000"/>
		</radialGradient>
		<circle display="inline" fill="url(#SVGID_5_)" cx="-50.21" cy="45" r="114.667"/>
	</g>
</g>
<g>
</g>
<g>
</g>
<g>
</g>
<g>
</g>
<g>
</g>
</svg>
