<?xml version="1.0" encoding="utf-8"?>
<!-- Generator: Adobe Illustrator 16.0.0, SVG Export Plug-In . SVG Version: 6.00 Build 0)  -->
<!DOCTYPE svg PUBLIC "-//W3C//DTD SVG 1.1//EN" "http://www.w3.org/Graphics/SVG/1.1/DTD/svg11.dtd">
<svg version="1.1" id="Layer_1" xmlns="http://www.w3.org/2000/svg" xmlns:xlink="http://www.w3.org/1999/xlink" x="0px" y="0px"
	 width="90px" height="90px" viewBox="0 0 90 90" enable-background="new 0 0 90 90" xml:space="preserve">
<g>
	<defs>
		<rect id="SVGID_1_" y="-15" width="180" height="120"/>
	</defs>
	<clipPath id="SVGID_2_">
		<use xlink:href="#SVGID_1_"  overflow="visible"/>
	</clipPath>
	<radialGradient id="SVGID_3_" cx="90" cy="45" r="116.3341" gradientUnits="userSpaceOnUse">
		<stop  offset="0.0703" style="stop-color:#FFFFFF"/>
		<stop  offset="0.4386" style="stop-color:#FBFBFB"/>
		<stop  offset="0.832" style="stop-color:#EEEEEE"/>
		<stop  offset="1" style="stop-color:#E6E6E6"/>
	</radialGradient>
	<rect y="-15" display="none" clip-path="url(#SVGID_2_)" fill="url(#SVGID_3_)" width="180" height="120"/>
	<g clip-path="url(#SVGID_2_)">
		<g opacity="0.3">
			<path fill="#4BB6A1" d="M10.538,41.901h21.55l13.313,13.313h18.397c0.107,0.43,0.478,0.756,0.941,0.756
				c0.546,0,0.988-0.442,0.988-0.988s-0.442-0.988-0.988-0.988c-0.463,0-0.834,0.325-0.941,0.756H45.594L32.281,41.436H10.346
				L-0.468,52.249H-48.43v0.465h48.155L10.538,41.901z"/>
			<path fill="#4BB6A1" d="M14.094,45.048H28.48c0.078,0.389,0.405,0.687,0.817,0.687c0.469,0,0.85-0.38,0.85-0.85
				s-0.38-0.85-0.85-0.85c-0.412,0-0.738,0.298-0.817,0.687H13.959l-9.98,9.979h-42.72v0.325H4.114L14.094,45.048z"/>
			<path fill="#4BB6A1" d="M4.78,38.692c0.149,0.091,0.315,0.157,0.502,0.157c0.546,0,0.988-0.442,0.988-0.988
				s-0.442-0.988-0.988-0.988s-0.988,0.442-0.988,0.988c0,0.188,0.066,0.353,0.157,0.502l-8.33,8.33h-33.7v0.465h33.892L4.78,38.692
				z"/>
			<path fill="#4BB6A1" d="M46.994,47.849c-0.081,0.144-0.14,0.3-0.14,0.477c0,0.546,0.442,0.988,0.988,0.988
				s0.988-0.442,0.988-0.988s-0.442-0.988-0.988-0.988c-0.199,0-0.374,0.073-0.528,0.174L34.606,34.804H10.646
				c-0.107-0.431-0.478-0.756-0.941-0.756c-0.545,0-0.988,0.442-0.988,0.988s0.443,0.988,0.988,0.988
				c0.463,0,0.834-0.326,0.941-0.756h23.767L46.994,47.849z"/>
			<path fill="#4BB6A1" d="M64.236,58.155H74.38c0.107,0.43,0.478,0.755,0.941,0.755c0.546,0,0.988-0.442,0.988-0.988
				s-0.442-0.988-0.988-0.988c-0.463,0-0.834,0.326-0.941,0.756H64.043L52.707,69.026H17.553l-8.837-8.837h-46.294v0.466H8.524
				l8.836,8.836h35.539L64.236,58.155z"/>
			<path fill="#4BB6A1" d="M59.663,58.705c0.149,0.091,0.315,0.156,0.502,0.156c0.546,0,0.988-0.442,0.988-0.988
				c0-0.545-0.442-0.988-0.988-0.988c-0.545,0-0.988,0.443-0.988,0.988c0,0.188,0.066,0.354,0.157,0.503l-3.771,3.771h-7.549
				l-3.061-3.061c0.086-0.146,0.149-0.308,0.149-0.49c0-0.546-0.442-0.988-0.988-0.988c-0.545,0-0.988,0.442-0.988,0.988
				s0.443,0.988,0.988,0.988c0.193,0,0.362-0.069,0.514-0.165l3.192,3.192h7.935L59.663,58.705z"/>
			<path fill="#4BB6A1" d="M8.243,29.254L-5.71,43.207h-31.868v0.325h32.003L8.377,29.579h29.166l7.437,7.437h17.239
				c0.079,0.387,0.406,0.684,0.816,0.684c0.469,0,0.85-0.38,0.85-0.85c0-0.47-0.38-0.85-0.85-0.85c-0.413,0-0.741,0.3-0.818,0.69
				H45.114l-7.437-7.437H8.243z"/>
			<path fill="#4BB6A1" d="M-8.529,40.036h-29.049v0.465h29.241L6.081,26.083h29.611l8.168-8.168h22.323
				c0.107,0.43,0.478,0.756,0.941,0.756c0.546,0,0.988-0.442,0.988-0.988s-0.442-0.988-0.988-0.988
				c-0.463,0-0.834,0.326-0.941,0.756H43.667l-8.168,8.168H5.888L-8.529,40.036z"/>
			<path fill="#4BB6A1" d="M3.369,22.13l-9.999,10h-14.428c-0.107-0.43-0.478-0.756-0.941-0.756c-0.546,0-0.988,0.442-0.988,0.988
				S-22.545,33.35-22,33.35c0.463,0,0.834-0.325,0.941-0.756h14.621l10-9.999h28.146c0.107,0.43,0.478,0.755,0.941,0.755
				c0.546,0,0.988-0.442,0.988-0.988c0-0.545-0.442-0.988-0.988-0.988c-0.463,0-0.834,0.326-0.941,0.756H3.369z"/>
			<path fill="#4BB6A1" d="M-41.465,36.598c0.817-0.278,18.127-0.147,30.15,0.015c0.103,0.437,0.476,0.769,0.944,0.769
				c0.545,0,0.988-0.442,0.988-0.988s-0.442-0.988-0.988-0.988c-0.459,0-0.828,0.319-0.939,0.743
				c-11.596-0.158-29.966-0.34-30.418,0.074l0.214,0.233L-41.465,36.598z"/>
			<path fill="#4BB6A1" d="M-3.781,24.8c0.135,0.091,0.289,0.156,0.464,0.156c0.469,0,0.85-0.38,0.85-0.85s-0.38-0.85-0.85-0.85
				s-0.85,0.38-0.85,0.85c0,0.175,0.065,0.329,0.156,0.464l-4.257,4.257h-30.861v0.325h30.996L-3.781,24.8z"/>
			<path fill="#4BB6A1" d="M-0.907,23.121c0.469,0,0.85-0.38,0.85-0.85c0-0.171-0.063-0.32-0.149-0.454l2.664-2.664h7.292
				c0.083,0.383,0.407,0.675,0.814,0.675c0.469,0,0.85-0.381,0.85-0.85s-0.38-0.85-0.85-0.85c-0.407,0-0.731,0.292-0.814,0.675
				H2.312l-2.767,2.766c-0.133-0.086-0.283-0.149-0.453-0.149c-0.469,0-0.85,0.381-0.85,0.85S-1.376,23.121-0.907,23.121z"/>
			<path fill="#4BB6A1" d="M29.237,32.129H14.203c-0.107-0.43-0.478-0.756-0.941-0.756c-0.546,0-0.988,0.442-0.988,0.988
				s0.442,0.988,0.988,0.988c0.463,0,0.834-0.325,0.941-0.756h15.035c0.107,0.431,0.478,0.756,0.941,0.756
				c0.546,0,0.988-0.442,0.988-0.988s-0.442-0.988-0.988-0.988C29.715,31.374,29.344,31.699,29.237,32.129z"/>
			<path fill="#4BB6A1" d="M49.435,26.083h14.364c0.107,0.43,0.478,0.756,0.941,0.756c0.546,0,0.988-0.442,0.988-0.988
				s-0.442-0.988-0.988-0.988c-0.463,0-0.834,0.326-0.941,0.756H49.435c-0.107-0.43-0.478-0.756-0.941-0.756
				c-0.546,0-0.988,0.442-0.988,0.988s0.442,0.988,0.988,0.988C48.957,26.839,49.328,26.513,49.435,26.083z"/>
			<path fill="#4BB6A1" d="M60.089,20.211c-0.463,0-0.834,0.326-0.941,0.756H46.815l-4.75,4.75
				c-0.149-0.091-0.315-0.157-0.502-0.157c-0.546,0-0.988,0.442-0.988,0.988s0.442,0.988,0.988,0.988s0.988-0.442,0.988-0.988
				c0-0.188-0.066-0.353-0.157-0.502l4.613-4.613h12.14c0.107,0.43,0.478,0.755,0.941,0.755c0.546,0,0.988-0.442,0.988-0.988
				S60.635,20.211,60.089,20.211z"/>
			<path fill="#4BB6A1" d="M49.535,58.508h5.23c0.085,0.459,0.469,0.813,0.953,0.813c0.546,0,0.988-0.442,0.988-0.988
				s-0.442-0.988-0.988-0.988c-0.484,0-0.868,0.354-0.953,0.813h-5.23c-0.085-0.459-0.469-0.813-0.953-0.813
				c-0.546,0-0.988,0.442-0.988,0.988s0.442,0.988,0.988,0.988C49.066,59.321,49.45,58.967,49.535,58.508z"/>
			<path fill="#4BB6A1" d="M21.72,58.058c-0.545,0-0.988,0.442-0.988,0.988s0.442,0.988,0.988,0.988
				c0.168,0,0.318-0.052,0.457-0.126l2.517,2.517h4.612c0.107,0.431,0.478,0.756,0.941,0.756c0.546,0,0.988-0.442,0.988-0.988
				s-0.442-0.988-0.988-0.988c-0.463,0-0.834,0.326-0.941,0.756h-4.42l-2.365-2.365c0.109-0.159,0.188-0.341,0.188-0.549
				C22.708,58.5,22.266,58.058,21.72,58.058z"/>
			<path fill="#4BB6A1" d="M13.22,49.391c-0.546,0-0.988,0.442-0.988,0.988s0.442,0.988,0.988,0.988
				c0.463,0,0.834-0.325,0.941-0.755h17.256l8.47,8.469c-0.091,0.149-0.157,0.315-0.157,0.503c0,0.546,0.442,0.988,0.988,0.988
				s0.988-0.442,0.988-0.988s-0.442-0.988-0.988-0.988c-0.188,0-0.353,0.066-0.502,0.157l-8.606-8.606H14.162
				C14.055,49.717,13.684,49.391,13.22,49.391z"/>
			<path fill="#4BB6A1" d="M11.411,55.394c-0.546,0-0.988,0.442-0.988,0.988s0.442,0.988,0.988,0.988
				c0.463,0,0.834-0.326,0.941-0.756h16.325l5.516,5.516c-0.073,0.137-0.124,0.286-0.124,0.453c0,0.546,0.442,0.988,0.988,0.988
				s0.988-0.442,0.988-0.988s-0.442-0.988-0.988-0.988c-0.209,0-0.392,0.079-0.552,0.189l-5.636-5.635H12.352
				C12.245,55.719,11.874,55.394,11.411,55.394z"/>
			<path fill="#4BB6A1" d="M48.493,34.963c0.469,0,0.85-0.38,0.85-0.85s-0.38-0.85-0.85-0.85c-0.175,0-0.328,0.065-0.463,0.156
				l-4.087-4.087c0.091-0.135,0.156-0.289,0.156-0.463c0-0.469-0.38-0.85-0.85-0.85s-0.85,0.38-0.85,0.85s0.38,0.85,0.85,0.85
				c0.175,0,0.329-0.065,0.463-0.156L47.8,33.65c-0.091,0.135-0.156,0.289-0.156,0.464C47.644,34.583,48.024,34.963,48.493,34.963z"
				/>
			<path fill="#4BB6A1" d="M-8.533,50.476c0.412,0,0.739-0.299,0.817-0.688h5.728L9.23,38.571h13.611
				c0.078,0.388,0.405,0.687,0.817,0.687c0.469,0,0.85-0.381,0.85-0.85s-0.38-0.85-0.85-0.85c-0.412,0-0.739,0.299-0.817,0.688
				H9.096L-2.122,49.463h-5.594c-0.078-0.389-0.405-0.687-0.816-0.687c-0.469,0-0.85,0.38-0.85,0.85
				C-9.383,50.095-9.002,50.476-8.533,50.476z"/>
			<path fill="#4BB6A1" d="M-13.381,49.451h-26.973v0.35h26.973c0.083,0.382,0.407,0.675,0.814,0.675c0.469,0,0.85-0.381,0.85-0.85
				c0-0.47-0.38-0.85-0.85-0.85C-12.974,48.776-13.299,49.068-13.381,49.451z"/>
			<path fill="#4BB6A1" d="M39.277,54.877c0.469,0,0.85-0.381,0.85-0.85c0-0.47-0.38-0.85-0.85-0.85
				c-0.175,0-0.328,0.065-0.463,0.156L32.881,47.4l-0.048-0.047H18.467c-0.078-0.389-0.405-0.688-0.817-0.688
				c-0.469,0-0.85,0.381-0.85,0.85c0,0.47,0.38,0.85,0.85,0.85c0.412,0,0.739-0.298,0.817-0.687h14.231l5.885,5.885
				c-0.091,0.136-0.156,0.289-0.156,0.464C38.427,54.496,38.808,54.877,39.277,54.877z"/>
			<path fill="#4BB6A1" d="M51.256,45.082h7.59c0.078,0.389,0.405,0.687,0.817,0.687c0.469,0,0.85-0.38,0.85-0.85
				s-0.38-0.85-0.85-0.85c-0.412,0-0.739,0.298-0.817,0.687h-7.59c-0.078-0.389-0.405-0.687-0.817-0.687
				c-0.469,0-0.85,0.38-0.85,0.85s0.38,0.85,0.85,0.85C50.851,45.769,51.178,45.47,51.256,45.082z"/>
			<path fill="#4BB6A1" d="M32.959,39.258c0.175,0,0.328-0.066,0.463-0.156l13.563,13.563l0.048,0.047h8.634
				c0.078,0.389,0.405,0.688,0.817,0.688c0.469,0,0.85-0.381,0.85-0.85c0-0.47-0.38-0.851-0.85-0.851
				c-0.412,0-0.738,0.299-0.817,0.688h-8.5L33.653,38.872c0.091-0.135,0.156-0.289,0.156-0.464c0-0.469-0.38-0.85-0.85-0.85
				s-0.85,0.38-0.85,0.85S32.49,39.258,32.959,39.258z"/>
			<path fill="#4BB6A1" d="M0.672,57.76h-37.591v0.325H0.672c0.079,0.389,0.405,0.687,0.817,0.687c0.469,0,0.85-0.38,0.85-0.85
				c0-0.469-0.38-0.85-0.85-0.85C1.077,57.072,0.75,57.371,0.672,57.76z"/>
			<path fill="#4BB6A1" d="M14.957,61.194c0.175,0,0.328-0.065,0.463-0.156l4.848,4.848l0.048,0.048h28.085
				c0.078,0.389,0.405,0.687,0.817,0.687c0.469,0,0.85-0.381,0.85-0.85c0-0.47-0.38-0.85-0.85-0.85
				c-0.412,0-0.739,0.299-0.817,0.688H20.45l-4.8-4.801c0.091-0.135,0.156-0.288,0.156-0.463c0-0.47-0.38-0.85-0.85-0.85
				s-0.85,0.38-0.85,0.85C14.107,60.813,14.488,61.194,14.957,61.194z"/>
			<path fill="#4BB6A1" d="M9.333,68.838c-0.17,0-0.32,0.062-0.453,0.149L5.52,65.626l-0.052-0.051h-6.764
				C-1.378,65.192-1.703,64.9-2.11,64.9c-0.469,0-0.85,0.38-0.85,0.85c0,0.469,0.381,0.85,0.85,0.85
				c0.407,0,0.731-0.292,0.814-0.675h6.62l3.309,3.31c-0.086,0.133-0.149,0.283-0.149,0.453c0,0.469,0.38,0.85,0.85,0.85
				c0.47,0,0.85-0.381,0.85-0.85C10.184,69.218,9.803,68.838,9.333,68.838z"/>
			<path fill="#4BB6A1" d="M13.22,68.54c-0.175,0-0.328,0.065-0.463,0.156l-5.754-5.754l-0.048-0.048h-9.947
				c-0.078-0.389-0.405-0.687-0.817-0.687c-0.469,0-0.85,0.38-0.85,0.85c0,0.469,0.38,0.85,0.85,0.85
				c0.412,0,0.739-0.299,0.817-0.688H6.82l5.706,5.707c-0.09,0.135-0.156,0.288-0.156,0.463c0,0.47,0.38,0.85,0.85,0.85
				s0.85-0.38,0.85-0.85C14.07,68.921,13.689,68.54,13.22,68.54z"/>
			<path fill="#4BB6A1" d="M34.558,58.956c0.469,0,0.85-0.381,0.85-0.85c0-0.47-0.381-0.85-0.85-0.85
				c-0.175,0-0.328,0.065-0.463,0.155l-4.179-4.179l-0.048-0.047H15.441v0.325h14.292l4.131,4.131
				c-0.091,0.136-0.156,0.289-0.156,0.464C33.708,58.575,34.089,58.956,34.558,58.956z"/>
			<path fill="#4BB6A1" d="M59.101,67.498c-0.469,0-0.85,0.381-0.85,0.85c0,0.175,0.065,0.328,0.156,0.464l-3.482,3.482H40.152
				c-0.078-0.389-0.405-0.688-0.817-0.688c-0.469,0-0.85,0.38-0.85,0.85s0.38,0.85,0.85,0.85c0.412,0,0.739-0.299,0.817-0.687H55.06
				l3.578-3.578c0.135,0.091,0.289,0.156,0.463,0.156c0.469,0,0.85-0.38,0.85-0.85C59.951,67.879,59.57,67.498,59.101,67.498z"/>
		</g>
		<g opacity="0.3">
			<path fill="#4BB6A1" d="M169.478,48.099h-21.55l-13.313-13.312h-18.397c-0.106-0.43-0.478-0.756-0.941-0.756
				c-0.546,0-0.988,0.442-0.988,0.988s0.442,0.988,0.988,0.988c0.464,0,0.834-0.325,0.941-0.755h18.205l13.313,13.313h21.935
				l10.813-10.813h47.963v-0.465h-48.155L169.478,48.099z"/>
			<path fill="#4BB6A1" d="M165.922,44.952h-14.386c-0.078-0.389-0.405-0.687-0.817-0.687c-0.469,0-0.85,0.38-0.85,0.85
				s0.381,0.85,0.85,0.85c0.412,0,0.738-0.298,0.817-0.687h14.521l9.979-9.979h42.721v-0.325h-42.855L165.922,44.952z"/>
			<path fill="#4BB6A1" d="M175.236,51.308c-0.149-0.09-0.315-0.156-0.503-0.156c-0.546,0-0.988,0.442-0.988,0.988
				s0.442,0.988,0.988,0.988s0.988-0.442,0.988-0.988c0-0.188-0.066-0.354-0.157-0.503l8.33-8.329h33.699v-0.465h-33.892
				L175.236,51.308z"/>
			<path fill="#4BB6A1" d="M133.022,42.151c0.081-0.143,0.14-0.3,0.14-0.477c0-0.545-0.442-0.988-0.988-0.988
				s-0.988,0.442-0.988,0.988c0,0.546,0.442,0.988,0.988,0.988c0.198,0,0.373-0.073,0.528-0.174l12.707,12.708h23.96
				c0.107,0.431,0.479,0.756,0.941,0.756c0.546,0,0.988-0.442,0.988-0.988s-0.442-0.988-0.988-0.988
				c-0.463,0-0.834,0.325-0.941,0.756h-23.767L133.022,42.151z"/>
			<path fill="#4BB6A1" d="M115.78,31.845h-10.145c-0.106-0.43-0.478-0.756-0.941-0.756c-0.545,0-0.987,0.443-0.987,0.988
				c0,0.546,0.442,0.989,0.987,0.989c0.464,0,0.835-0.326,0.942-0.756h10.336l11.336-11.336h35.154l8.837,8.836h46.294v-0.465
				h-46.102l-8.837-8.837h-35.539L115.78,31.845z"/>
			<path fill="#4BB6A1" d="M120.353,31.295c-0.149-0.091-0.314-0.157-0.503-0.157c-0.545,0-0.988,0.442-0.988,0.988
				s0.443,0.988,0.988,0.988c0.547,0,0.989-0.442,0.989-0.988c0-0.188-0.066-0.353-0.157-0.502l3.771-3.771h7.549l3.061,3.06
				c-0.087,0.147-0.149,0.308-0.149,0.491c0,0.545,0.442,0.988,0.988,0.988s0.988-0.443,0.988-0.988
				c0-0.546-0.442-0.988-0.988-0.988c-0.192,0-0.362,0.069-0.514,0.165l-3.193-3.192h-7.935L120.353,31.295z"/>
			<path fill="#4BB6A1" d="M171.773,60.746l13.952-13.952h31.868v-0.325h-32.003l-13.952,13.952h-29.166l-7.437-7.437h-17.239
				c-0.079-0.387-0.405-0.684-0.816-0.684c-0.469,0-0.85,0.38-0.85,0.85c0,0.469,0.381,0.85,0.85,0.85c0.413,0,0.741-0.3,0.817-0.69
				h17.104l7.438,7.437H171.773z"/>
			<path fill="#4BB6A1" d="M188.545,49.964h29.049v-0.465h-29.241l-14.417,14.418h-29.611l-8.168,8.168h-22.323
				c-0.106-0.431-0.478-0.756-0.941-0.756c-0.545,0-0.988,0.442-0.988,0.988s0.443,0.988,0.988,0.988
				c0.464,0,0.835-0.325,0.941-0.756h22.516l8.169-8.168h29.61L188.545,49.964z"/>
			<path fill="#4BB6A1" d="M176.646,67.87l9.999-10h14.429c0.106,0.431,0.478,0.756,0.941,0.756c0.546,0,0.988-0.442,0.988-0.988
				c0-0.545-0.442-0.988-0.988-0.988c-0.464,0-0.835,0.326-0.941,0.756h-14.621l-9.999,10h-28.146
				c-0.106-0.431-0.478-0.756-0.941-0.756c-0.546,0-0.988,0.442-0.988,0.988s0.442,0.988,0.988,0.988
				c0.464,0,0.835-0.326,0.941-0.756H176.646z"/>
			<path fill="#4BB6A1" d="M221.48,53.402c-0.816,0.278-18.127,0.146-30.149-0.015c-0.103-0.437-0.477-0.769-0.944-0.769
				c-0.546,0-0.988,0.442-0.988,0.988s0.442,0.988,0.988,0.988c0.459,0,0.827-0.319,0.938-0.743
				c11.597,0.157,29.967,0.34,30.418-0.074l-0.214-0.233L221.48,53.402z"/>
			<path fill="#4BB6A1" d="M183.797,65.2c-0.136-0.091-0.289-0.156-0.464-0.156c-0.47,0-0.85,0.38-0.85,0.85
				c0,0.469,0.38,0.85,0.85,0.85c0.469,0,0.85-0.381,0.85-0.85c0-0.175-0.065-0.328-0.156-0.464l4.257-4.257h30.861v-0.325h-30.995
				L183.797,65.2z"/>
			<path fill="#4BB6A1" d="M180.923,66.88c-0.469,0-0.85,0.38-0.85,0.85c0,0.17,0.063,0.319,0.149,0.453l-2.664,2.663h-7.291
				c-0.083-0.382-0.407-0.675-0.814-0.675c-0.47,0-0.85,0.381-0.85,0.85c0,0.47,0.38,0.85,0.85,0.85
				c0.407,0,0.731-0.292,0.814-0.675h7.436l2.767-2.766c0.133,0.086,0.283,0.149,0.453,0.149c0.47,0,0.85-0.381,0.85-0.85
				C181.772,67.26,181.393,66.88,180.923,66.88z"/>
			<path fill="#4BB6A1" d="M150.778,57.87h15.035c0.106,0.431,0.478,0.756,0.941,0.756c0.546,0,0.988-0.442,0.988-0.988
				c0-0.545-0.442-0.988-0.988-0.988c-0.464,0-0.835,0.326-0.941,0.756h-15.035c-0.106-0.43-0.478-0.756-0.941-0.756
				c-0.546,0-0.988,0.443-0.988,0.988c0,0.546,0.442,0.988,0.988,0.988C150.301,58.626,150.672,58.301,150.778,57.87z"/>
			<path fill="#4BB6A1" d="M130.581,63.917h-14.364c-0.106-0.431-0.478-0.756-0.941-0.756c-0.546,0-0.988,0.442-0.988,0.988
				s0.442,0.988,0.988,0.988c0.464,0,0.835-0.325,0.941-0.756h14.364c0.107,0.431,0.479,0.756,0.941,0.756
				c0.546,0,0.988-0.442,0.988-0.988s-0.442-0.988-0.988-0.988C131.06,63.161,130.688,63.486,130.581,63.917z"/>
			<path fill="#4BB6A1" d="M119.927,69.788c0.463,0,0.834-0.325,0.941-0.756H133.2l4.75-4.749c0.149,0.091,0.314,0.157,0.502,0.157
				c0.546,0,0.988-0.443,0.988-0.988c0-0.546-0.442-0.988-0.988-0.988s-0.988,0.442-0.988,0.988c0,0.188,0.066,0.353,0.157,0.502
				l-4.613,4.613h-12.14c-0.107-0.43-0.479-0.756-0.941-0.756c-0.546,0-0.988,0.442-0.988,0.988S119.381,69.788,119.927,69.788z"/>
			<path fill="#4BB6A1" d="M130.48,31.492h-5.23c-0.085-0.459-0.469-0.814-0.953-0.814c-0.546,0-0.988,0.442-0.988,0.988
				s0.442,0.988,0.988,0.988c0.484,0,0.868-0.354,0.953-0.813h5.23c0.086,0.459,0.47,0.813,0.953,0.813
				c0.546,0,0.988-0.442,0.988-0.988s-0.442-0.988-0.988-0.988C130.95,30.678,130.565,31.033,130.48,31.492z"/>
			<path fill="#4BB6A1" d="M158.296,31.942c0.546,0,0.988-0.443,0.988-0.988c0-0.546-0.442-0.988-0.988-0.988
				c-0.168,0-0.318,0.052-0.456,0.126l-2.517-2.517h-4.612c-0.107-0.43-0.479-0.756-0.941-0.756c-0.546,0-0.988,0.443-0.988,0.988
				c0,0.546,0.442,0.988,0.988,0.988c0.463,0,0.834-0.325,0.941-0.755h4.42l2.365,2.365c-0.109,0.159-0.188,0.341-0.188,0.549
				C157.308,31.5,157.75,31.942,158.296,31.942z"/>
			<path fill="#4BB6A1" d="M166.796,40.609c0.546,0,0.988-0.443,0.988-0.988c0-0.546-0.442-0.988-0.988-0.988
				c-0.464,0-0.834,0.325-0.941,0.755h-17.256l-8.47-8.47c0.091-0.149,0.157-0.315,0.157-0.502c0-0.546-0.442-0.988-0.988-0.988
				s-0.988,0.442-0.988,0.988s0.442,0.988,0.988,0.988c0.188,0,0.353-0.066,0.502-0.157l8.606,8.605h17.448
				C165.961,40.284,166.332,40.609,166.796,40.609z"/>
			<path fill="#4BB6A1" d="M168.605,34.607c0.546,0,0.988-0.443,0.988-0.989c0-0.545-0.442-0.988-0.988-0.988
				c-0.464,0-0.834,0.326-0.941,0.756h-16.325l-5.516-5.515c0.072-0.138,0.124-0.287,0.124-0.453c0-0.546-0.443-0.988-0.988-0.988
				c-0.546,0-0.988,0.442-0.988,0.988c0,0.545,0.442,0.988,0.988,0.988c0.209,0,0.392-0.08,0.552-0.19l5.636,5.635h16.518
				C167.771,34.281,168.142,34.607,168.605,34.607z"/>
			<path fill="#4BB6A1" d="M131.522,55.036c-0.469,0-0.85,0.381-0.85,0.85c0,0.47,0.381,0.85,0.85,0.85
				c0.175,0,0.328-0.065,0.464-0.155l4.087,4.086c-0.091,0.136-0.156,0.289-0.156,0.464c0,0.47,0.38,0.85,0.85,0.85
				c0.469,0,0.85-0.38,0.85-0.85s-0.381-0.85-0.85-0.85c-0.176,0-0.329,0.065-0.464,0.156l-4.087-4.087
				c0.091-0.135,0.156-0.288,0.156-0.464C132.372,55.417,131.992,55.036,131.522,55.036z"/>
			<path fill="#4BB6A1" d="M188.549,39.524c-0.412,0-0.739,0.299-0.817,0.688h-5.728L170.786,51.43h-13.611
				c-0.078-0.389-0.405-0.688-0.816-0.688c-0.47,0-0.851,0.381-0.851,0.85c0,0.47,0.381,0.85,0.851,0.85
				c0.411,0,0.738-0.298,0.816-0.687h13.745l11.218-11.218h5.594c0.079,0.388,0.405,0.687,0.817,0.687c0.469,0,0.85-0.38,0.85-0.85
				C189.398,39.905,189.018,39.524,188.549,39.524z"/>
			<path fill="#4BB6A1" d="M193.397,40.549h26.972v-0.35h-26.972c-0.083-0.382-0.407-0.675-0.814-0.675
				c-0.47,0-0.851,0.38-0.851,0.85c0,0.469,0.381,0.85,0.851,0.85C192.99,41.224,193.314,40.932,193.397,40.549z"/>
			<path fill="#4BB6A1" d="M140.739,35.123c-0.47,0-0.85,0.381-0.85,0.85c0,0.47,0.38,0.85,0.85,0.85
				c0.175,0,0.328-0.066,0.463-0.156l5.933,5.933l0.048,0.047h14.366c0.077,0.389,0.404,0.688,0.816,0.688
				c0.47,0,0.85-0.38,0.85-0.85c0-0.469-0.38-0.85-0.85-0.85c-0.411,0-0.738,0.298-0.816,0.687h-14.231l-5.885-5.885
				c0.091-0.135,0.156-0.288,0.156-0.463C141.589,35.504,141.208,35.123,140.739,35.123z"/>
			<path fill="#4BB6A1" d="M128.76,44.918h-7.59c-0.078-0.388-0.405-0.687-0.817-0.687c-0.469,0-0.85,0.381-0.85,0.85
				c0,0.47,0.381,0.85,0.85,0.85c0.412,0,0.739-0.299,0.817-0.688h7.59c0.078,0.389,0.405,0.688,0.817,0.688
				c0.469,0,0.85-0.38,0.85-0.85c0-0.469-0.381-0.85-0.85-0.85C129.165,44.231,128.838,44.53,128.76,44.918z"/>
			<path fill="#4BB6A1" d="M147.057,50.742c-0.175,0-0.329,0.065-0.464,0.156L133.03,37.335l-0.048-0.047h-8.635
				c-0.078-0.389-0.405-0.688-0.816-0.688c-0.47,0-0.851,0.381-0.851,0.85s0.381,0.85,0.851,0.85c0.411,0,0.738-0.299,0.816-0.687
				h8.5l13.516,13.515c-0.091,0.136-0.156,0.289-0.156,0.464c0,0.47,0.38,0.85,0.85,0.85c0.469,0,0.85-0.38,0.85-0.85
				C147.906,51.123,147.525,50.742,147.057,50.742z"/>
			<path fill="#4BB6A1" d="M179.344,32.24h37.592v-0.325h-37.592c-0.078-0.389-0.405-0.687-0.816-0.687c-0.47,0-0.85,0.38-0.85,0.85
				s0.38,0.85,0.85,0.85C178.938,32.928,179.266,32.629,179.344,32.24z"/>
			<path fill="#4BB6A1" d="M165.059,28.806c-0.175,0-0.328,0.066-0.463,0.156l-4.848-4.848l-0.048-0.047h-28.086
				c-0.078-0.388-0.405-0.687-0.816-0.687c-0.47,0-0.85,0.38-0.85,0.85s0.38,0.85,0.85,0.85c0.411,0,0.739-0.299,0.816-0.688h27.951
				l4.8,4.801c-0.091,0.135-0.156,0.288-0.156,0.463c0,0.47,0.381,0.85,0.85,0.85c0.47,0,0.85-0.38,0.85-0.85
				C165.908,29.187,165.528,28.806,165.059,28.806z"/>
			<path fill="#4BB6A1" d="M170.682,21.162c0.171,0,0.32-0.062,0.453-0.149l3.361,3.361l0.051,0.051h6.765
				c0.083,0.382,0.407,0.675,0.814,0.675c0.469,0,0.85-0.38,0.85-0.85s-0.381-0.85-0.85-0.85c-0.407,0-0.731,0.292-0.814,0.675
				h-6.62l-3.309-3.31c0.086-0.133,0.149-0.283,0.149-0.453c0-0.469-0.381-0.85-0.851-0.85c-0.469,0-0.85,0.38-0.85,0.85
				S170.213,21.162,170.682,21.162z"/>
			<path fill="#4BB6A1" d="M166.796,21.459c0.175,0,0.328-0.065,0.463-0.156l5.755,5.754l0.048,0.047h9.947
				c0.078,0.389,0.405,0.687,0.816,0.687c0.47,0,0.85-0.38,0.85-0.85s-0.38-0.85-0.85-0.85c-0.411,0-0.738,0.299-0.816,0.687h-9.813
				l-5.706-5.707c0.091-0.135,0.156-0.289,0.156-0.463c0-0.469-0.381-0.85-0.85-0.85c-0.47,0-0.85,0.38-0.85,0.85
				S166.326,21.459,166.796,21.459z"/>
			<path fill="#4BB6A1" d="M145.458,31.044c-0.47,0-0.851,0.38-0.851,0.85s0.381,0.85,0.851,0.85c0.175,0,0.328-0.065,0.463-0.156
				l4.179,4.179l0.048,0.047h14.427v-0.325h-14.292l-4.131-4.131c0.091-0.135,0.156-0.288,0.156-0.463
				C146.308,31.424,145.927,31.044,145.458,31.044z"/>
			<path fill="#4BB6A1" d="M120.915,22.502c0.469,0,0.85-0.38,0.85-0.85c0-0.175-0.065-0.329-0.156-0.463l3.481-3.483h14.774
				c0.077,0.389,0.405,0.688,0.816,0.688c0.47,0,0.85-0.38,0.85-0.85s-0.38-0.85-0.85-0.85c-0.411,0-0.738,0.298-0.816,0.687
				h-14.908l-3.578,3.578c-0.135-0.09-0.288-0.156-0.463-0.156c-0.47,0-0.85,0.38-0.85,0.85S120.445,22.502,120.915,22.502z"/>
		</g>
	</g>
	<g display="none" clip-path="url(#SVGID_2_)">
		
			<radialGradient id="SVGID_4_" cx="39.1963" cy="-82.9854" r="114.6667" gradientTransform="matrix(-1 0 0 -1 180 -37.9854)" gradientUnits="userSpaceOnUse">
			<stop  offset="0.2" style="stop-color:#0071BC"/>
			<stop  offset="0.399" style="stop-color:#004D80"/>
			<stop  offset="0.6014" style="stop-color:#002C49"/>
			<stop  offset="0.7764" style="stop-color:#001421"/>
			<stop  offset="0.9151" style="stop-color:#000509"/>
			<stop  offset="1" style="stop-color:#000000"/>
		</radialGradient>
		<circle display="inline" fill="url(#SVGID_4_)" cx="140.804" cy="45" r="114.667"/>
		
			<radialGradient id="SVGID_5_" cx="140.21" cy="-82.9854" r="114.6667" gradientTransform="matrix(-1 0 0 -1 180 -37.9854)" gradientUnits="userSpaceOnUse">
			<stop  offset="0.2" style="stop-color:#0071BC"/>
			<stop  offset="0.399" style="stop-color:#004D80"/>
			<stop  offset="0.6014" style="stop-color:#002C49"/>
			<stop  offset="0.7764" style="stop-color:#001421"/>
			<stop  offset="0.9151" style="stop-color:#000509"/>
			<stop  offset="1" style="stop-color:#000000"/>
		</radialGradient>
		<circle display="inline" fill="url(#SVGID_5_)" cx="39.79" cy="45" r="114.667"/>
	</g>
</g>
<g>
</g>
<g>
</g>
<g>
</g>
<g>
</g>
<g>
</g>
</svg>
