<svg enable-background="new 0 0 180 120" height="120" viewBox="0 0 180 120" width="180" xmlns="http://www.w3.org/2000/svg" xmlns:xlink="http://www.w3.org/1999/xlink"><clipPath id="a"><path d="m0 0h180v120h-180z"/></clipPath><g clip-path="url(#a)" fill="#4bb6a1"><g opacity=".3"><path d="m10.538 56.901h21.55l13.313 13.313h18.397c.107.43.478.756.941.756.546 0 .988-.442.988-.988s-.442-.988-.988-.988c-.463 0-.834.325-.941.756h-18.204l-13.313-13.314h-21.935l-10.814 10.813h-47.962v.465h48.155z"/><path d="m14.094 60.048h14.386c.078.389.405.687.817.687.469 0 .85-.38.85-.85s-.38-.85-.85-.85c-.412 0-.738.298-.817.687h-14.521l-9.98 9.979h-42.72v.325h42.855z"/><path d="m4.78 53.692c.149.091.315.157.502.157.546 0 .988-.442.988-.988s-.442-.988-.988-.988-.988.442-.988.988c0 .188.066.353.157.502l-8.33 8.33h-33.7v.465h33.892z"/><path d="m46.994 62.849c-.081.144-.14.3-.14.477 0 .546.442.988.988.988s.988-.442.988-.988-.442-.988-.988-.988c-.199 0-.374.073-.528.174l-12.708-12.708h-23.96c-.107-.431-.478-.756-.941-.756-.545 0-.988.442-.988.988s.443.988.988.988c.463 0 .834-.326.941-.756h23.767z"/><path d="m64.236 73.155h10.144c.107.43.478.755.941.755.546 0 .988-.442.988-.988s-.442-.988-.988-.988c-.463 0-.834.326-.941.756h-10.337l-11.336 11.336h-35.154l-8.837-8.837h-46.294v.466h46.102l8.836 8.836h35.539z"/><path d="m59.663 73.705c.149.091.315.156.502.156.546 0 .988-.442.988-.988 0-.545-.442-.988-.988-.988-.545 0-.988.443-.988.988 0 .188.066.354.157.503l-3.771 3.771h-7.549l-3.061-3.061c.086-.146.149-.308.149-.49 0-.546-.442-.988-.988-.988-.545 0-.988.442-.988.988s.443.988.988.988c.193 0 .362-.069.514-.165l3.192 3.192h7.935z"/><path d="m8.243 44.254-13.953 13.953h-31.868v.325h32.003l13.952-13.953h29.166l7.437 7.437h17.239c.079.387.406.684.816.684.469 0 .85-.38.85-.85s-.38-.85-.85-.85c-.413 0-.741.3-.818.69h-17.103l-7.437-7.437h-29.434z"/><path d="m-8.529 55.036h-29.049v.465h29.241l14.418-14.418h29.611l8.168-8.168h22.323c.107.43.478.756.941.756.546 0 .988-.442.988-.988s-.442-.988-.988-.988c-.463 0-.834.326-.941.756h-22.516l-8.168 8.168h-29.611z"/><path d="m3.369 37.13-9.999 10h-14.428c-.107-.43-.478-.756-.941-.756-.546 0-.988.442-.988.988s.442.988.987.988c.463 0 .834-.325.941-.756h14.621l10-9.999h28.146c.107.43.478.755.941.755.546 0 .988-.442.988-.988 0-.545-.442-.988-.988-.988-.463 0-.834.326-.941.756z"/><path d="m-41.465 51.598c.817-.278 18.127-.147 30.15.015.103.437.476.769.944.769.545 0 .988-.442.988-.988s-.442-.988-.988-.988c-.459 0-.828.319-.939.743-11.596-.158-29.966-.34-30.418.074l.214.233z"/><path d="m-3.781 39.8c.135.091.289.156.464.156.469 0 .85-.38.85-.85s-.38-.85-.85-.85-.85.38-.85.85c0 .175.065.329.156.464l-4.257 4.257h-30.861v.325h30.996z"/><path d="m-.907 38.121c.469 0 .85-.38.85-.85 0-.171-.063-.32-.149-.454l2.664-2.664h7.292c.083.383.407.675.814.675.469 0 .85-.381.85-.85s-.38-.85-.85-.85c-.407 0-.731.292-.814.675h-7.438l-2.767 2.766c-.133-.086-.283-.149-.453-.149-.469 0-.85.381-.85.85s.382.851.851.851z"/><path d="m29.237 47.129h-15.034c-.107-.43-.478-.756-.941-.756-.546 0-.988.442-.988.988s.442.988.988.988c.463 0 .834-.325.941-.756h15.035c.107.431.478.756.941.756.546 0 .988-.442.988-.988s-.442-.988-.988-.988c-.464.001-.835.326-.942.756z"/><path d="m49.435 41.083h14.364c.107.43.478.756.941.756.546 0 .988-.442.988-.988s-.442-.988-.988-.988c-.463 0-.834.326-.941.756h-14.364c-.107-.43-.478-.756-.941-.756-.546 0-.988.442-.988.988s.442.988.988.988c.463 0 .834-.326.941-.756z"/><path d="m60.089 35.211c-.463 0-.834.326-.941.756h-12.333l-4.75 4.75c-.149-.091-.315-.157-.502-.157-.546 0-.988.442-.988.988s.442.988.988.988.988-.442.988-.988c0-.188-.066-.353-.157-.502l4.613-4.613h12.14c.107.43.478.755.941.755.546 0 .988-.442.988-.988s-.441-.989-.987-.989z"/><path d="m49.535 73.508h5.23c.085.459.469.813.953.813.546 0 .988-.442.988-.988s-.442-.988-.988-.988c-.484 0-.868.354-.953.813h-5.23c-.085-.459-.469-.813-.953-.813-.546 0-.988.442-.988.988s.442.988.988.988c.484 0 .868-.354.953-.813z"/><path d="m21.72 73.058c-.545 0-.988.442-.988.988s.442.988.988.988c.168 0 .318-.052.457-.126l2.517 2.517h4.612c.107.431.478.756.941.756.546 0 .988-.442.988-.988s-.442-.988-.988-.988c-.463 0-.834.326-.941.756h-4.42l-2.365-2.365c.109-.159.188-.341.188-.549-.001-.547-.443-.989-.989-.989z"/><path d="m13.22 64.391c-.546 0-.988.442-.988.988s.442.988.988.988c.463 0 .834-.325.941-.755h17.256l8.47 8.469c-.091.149-.157.315-.157.503 0 .546.442.988.988.988s.988-.442.988-.988-.442-.988-.988-.988c-.188 0-.353.066-.502.157l-8.606-8.606h-17.448c-.107-.43-.478-.756-.942-.756z"/><path d="m11.411 70.394c-.546 0-.988.442-.988.988s.442.988.988.988c.463 0 .834-.326.941-.756h16.325l5.516 5.516c-.073.137-.124.286-.124.453 0 .546.442.988.988.988s.988-.442.988-.988-.442-.988-.988-.988c-.209 0-.392.079-.552.189l-5.636-5.635h-16.517c-.107-.43-.478-.755-.941-.755z"/><path d="m48.493 49.963c.469 0 .85-.38.85-.85s-.38-.85-.85-.85c-.175 0-.328.065-.463.156l-4.087-4.087c.091-.135.156-.289.156-.463 0-.469-.38-.85-.85-.85s-.85.38-.85.85.38.85.85.85c.175 0 .329-.065.463-.156l4.088 4.087c-.091.135-.156.289-.156.464 0 .469.38.849.849.849z"/><path d="m-8.533 65.476c.412 0 .739-.299.817-.688h5.728l11.218-11.217h13.611c.078.388.405.687.817.687.469 0 .85-.381.85-.85s-.38-.85-.85-.85c-.412 0-.739.299-.817.688h-13.745l-11.218 11.217h-5.594c-.078-.389-.405-.687-.816-.687-.469 0-.85.38-.85.85-.001.469.38.85.849.85z"/><path d="m-13.381 64.451h-26.973v.35h26.973c.083.382.407.675.814.675.469 0 .85-.381.85-.85 0-.47-.38-.85-.85-.85-.407 0-.732.292-.814.675z"/><path d="m39.277 69.877c.469 0 .85-.381.85-.85 0-.47-.38-.85-.85-.85-.175 0-.328.065-.463.156l-5.933-5.933-.048-.047h-14.366c-.078-.389-.405-.688-.817-.688-.469 0-.85.381-.85.85 0 .47.38.85.85.85.412 0 .739-.298.817-.687h14.231l5.885 5.885c-.091.136-.156.289-.156.464 0 .469.381.85.85.85z"/><path d="m51.256 60.082h7.59c.078.389.405.687.817.687.469 0 .85-.38.85-.85s-.38-.85-.85-.85c-.412 0-.739.298-.817.687h-7.59c-.078-.389-.405-.687-.817-.687-.469 0-.85.38-.85.85s.38.85.85.85c.412 0 .739-.299.817-.687z"/><path d="m32.959 54.258c.175 0 .328-.066.463-.156l13.563 13.563.048.047h8.634c.078.389.405.688.817.688.469 0 .85-.381.85-.85 0-.47-.38-.851-.85-.851-.412 0-.738.299-.817.688h-8.5l-13.514-13.515c.091-.135.156-.289.156-.464 0-.469-.38-.85-.85-.85s-.85.38-.85.85.381.85.85.85z"/><path d="m.672 72.76h-37.591v.325h37.591c.079.389.405.687.817.687.469 0 .85-.38.85-.85 0-.469-.38-.85-.85-.85-.412 0-.739.299-.817.688z"/><path d="m14.957 76.194c.175 0 .328-.065.463-.156l4.848 4.848.048.048h28.085c.078.389.405.687.817.687.469 0 .85-.381.85-.85 0-.47-.38-.85-.85-.85-.412 0-.739.299-.817.688h-27.951l-4.8-4.801c.091-.135.156-.288.156-.463 0-.47-.38-.85-.85-.85s-.85.38-.85.85c.001.468.382.849.851.849z"/><path d="m9.333 83.838c-.17 0-.32.062-.453.149l-3.36-3.361-.052-.051h-6.764c-.082-.383-.407-.675-.814-.675-.469 0-.85.38-.85.85 0 .469.381.85.85.85.407 0 .731-.292.814-.675h6.62l3.309 3.31c-.086.133-.149.283-.149.453 0 .469.38.85.85.85s.85-.381.85-.85c0-.47-.381-.85-.851-.85z"/><path d="m13.22 83.54c-.175 0-.328.065-.463.156l-5.754-5.754-.048-.048h-9.947c-.078-.389-.405-.687-.817-.687-.469 0-.85.38-.85.85 0 .469.38.85.85.85.412 0 .739-.299.817-.688h9.812l5.706 5.707c-.09.135-.156.288-.156.463 0 .47.38.85.85.85s.85-.38.85-.85c0-.468-.381-.849-.85-.849z"/><path d="m34.558 73.956c.469 0 .85-.381.85-.85 0-.47-.381-.85-.85-.85-.175 0-.328.065-.463.155l-4.179-4.179-.048-.047h-14.427v.325h14.292l4.131 4.131c-.091.136-.156.289-.156.464 0 .47.381.851.85.851z"/><path d="m59.101 82.498c-.469 0-.85.381-.85.85 0 .175.065.328.156.464l-3.482 3.482h-14.773c-.078-.389-.405-.688-.817-.688-.469 0-.85.38-.85.85s.38.85.85.85c.412 0 .739-.299.817-.687h14.908l3.578-3.578c.135.091.289.156.463.156.469 0 .85-.38.85-.85 0-.468-.381-.849-.85-.849z"/></g><g opacity=".3"><path d="m169.478 63.099h-21.55l-13.313-13.312h-18.397c-.106-.43-.478-.756-.941-.756-.546 0-.988.442-.988.988s.442.988.988.988c.464 0 .834-.325.941-.755h18.205l13.313 13.313h21.935l10.813-10.813h47.963v-.465h-48.155z"/><path d="m165.922 59.952h-14.386c-.078-.389-.405-.687-.817-.687-.469 0-.85.38-.85.85s.381.85.85.85c.412 0 .738-.298.817-.687h14.521l9.979-9.979h42.721v-.325h-42.855z"/><path d="m175.236 66.308c-.149-.09-.315-.156-.503-.156-.546 0-.988.442-.988.988s.442.988.988.988.988-.442.988-.988c0-.188-.066-.354-.157-.503l8.33-8.329h33.699v-.465h-33.892z"/><path d="m133.022 57.151c.081-.143.14-.3.14-.477 0-.545-.442-.988-.988-.988s-.988.442-.988.988.442.988.988.988c.198 0 .373-.073.528-.174l12.707 12.708h23.96c.107.431.479.756.941.756.546 0 .988-.442.988-.988s-.442-.988-.988-.988c-.463 0-.834.325-.941.756h-23.767z"/><path d="m115.78 46.845h-10.145c-.106-.43-.478-.756-.941-.756-.545 0-.987.443-.987.988 0 .546.442.989.987.989.464 0 .835-.326.942-.756h10.336l11.336-11.336h35.154l8.837 8.836h46.294v-.465h-46.102l-8.837-8.837h-35.539z"/><path d="m120.353 46.295c-.149-.091-.314-.157-.503-.157-.545 0-.988.442-.988.988s.443.988.988.988c.547 0 .989-.442.989-.988 0-.188-.066-.353-.157-.502l3.771-3.771h7.549l3.061 3.06c-.087.147-.149.308-.149.491 0 .545.442.988.988.988s.988-.443.988-.988c0-.546-.442-.988-.988-.988-.192 0-.362.069-.514.165l-3.193-3.192h-7.935z"/><path d="m171.773 75.746 13.952-13.952h31.868v-.325h-32.003l-13.952 13.952h-29.166l-7.437-7.437h-17.239c-.079-.387-.405-.684-.816-.684-.469 0-.85.38-.85.85 0 .469.381.85.85.85.413 0 .741-.3.817-.69h17.104l7.438 7.437h29.434z"/><path d="m188.545 64.964h29.049v-.465h-29.241l-14.417 14.418h-29.611l-8.168 8.168h-22.323c-.106-.431-.478-.756-.941-.756-.545 0-.988.442-.988.988s.443.988.988.988c.464 0 .835-.325.941-.756h22.516l8.169-8.168h29.61z"/><path d="m176.646 82.87 9.999-10h14.429c.106.431.478.756.941.756.546 0 .988-.442.988-.988 0-.545-.442-.988-.988-.988-.464 0-.835.326-.941.756h-14.621l-9.999 10h-28.146c-.106-.431-.478-.756-.941-.756-.546 0-.988.442-.988.988s.442.988.988.988c.464 0 .835-.326.941-.756z"/><path d="m221.48 68.402c-.816.278-18.127.146-30.149-.015-.103-.437-.477-.769-.944-.769-.546 0-.988.442-.988.988s.442.988.988.988c.459 0 .827-.319.938-.743 11.597.157 29.967.34 30.418-.074l-.214-.233z"/><path d="m183.797 80.2c-.136-.091-.289-.156-.464-.156-.47 0-.85.38-.85.85 0 .469.38.85.85.85.469 0 .85-.381.85-.85 0-.175-.065-.328-.156-.464l4.257-4.257h30.861v-.325h-30.995z"/><path d="m180.923 81.88c-.469 0-.85.38-.85.85 0 .17.063.319.149.453l-2.664 2.663h-7.291c-.083-.382-.407-.675-.814-.675-.47 0-.85.381-.85.85 0 .47.38.85.85.85.407 0 .731-.292.814-.675h7.436l2.767-2.766c.133.086.283.149.453.149.47 0 .85-.381.85-.85-.001-.469-.38-.849-.85-.849z"/><path d="m150.778 72.87h15.035c.106.431.478.756.941.756.546 0 .988-.442.988-.988 0-.545-.442-.988-.988-.988-.464 0-.835.326-.941.756h-15.035c-.106-.43-.478-.756-.941-.756-.546 0-.988.443-.988.988 0 .546.442.988.988.988.464 0 .835-.325.941-.756z"/><path d="m130.581 78.917h-14.364c-.106-.431-.478-.756-.941-.756-.546 0-.988.442-.988.988s.442.988.988.988c.464 0 .835-.325.941-.756h14.364c.107.431.479.756.941.756.546 0 .988-.442.988-.988s-.442-.988-.988-.988c-.462 0-.834.325-.941.756z"/><path d="m119.927 84.788c.463 0 .834-.325.941-.756h12.332l4.75-4.749c.149.091.314.157.502.157.546 0 .988-.443.988-.988 0-.546-.442-.988-.988-.988s-.988.442-.988.988c0 .188.066.353.157.502l-4.613 4.613h-12.14c-.107-.43-.479-.756-.941-.756-.546 0-.988.442-.988.988s.442.989.988.989z"/><path d="m130.48 46.492h-5.23c-.085-.459-.469-.814-.953-.814-.546 0-.988.442-.988.988s.442.988.988.988c.484 0 .868-.354.953-.813h5.23c.086.459.47.813.953.813.546 0 .988-.442.988-.988s-.442-.988-.988-.988c-.483 0-.868.355-.953.814z"/><path d="m158.296 46.942c.546 0 .988-.443.988-.988 0-.546-.442-.988-.988-.988-.168 0-.318.052-.456.126l-2.517-2.517h-4.612c-.107-.43-.479-.756-.941-.756-.546 0-.988.443-.988.988 0 .546.442.988.988.988.463 0 .834-.325.941-.755h4.42l2.365 2.365c-.109.159-.188.341-.188.549 0 .546.442.988.988.988z"/><path d="m166.796 55.609c.546 0 .988-.443.988-.988 0-.546-.442-.988-.988-.988-.464 0-.834.325-.941.755h-17.256l-8.47-8.47c.091-.149.157-.315.157-.502 0-.546-.442-.988-.988-.988s-.988.442-.988.988.442.988.988.988c.188 0 .353-.066.502-.157l8.606 8.605h17.448c.107.432.478.757.942.757z"/><path d="m168.605 49.607c.546 0 .988-.443.988-.989 0-.545-.442-.988-.988-.988-.464 0-.834.326-.941.756h-16.325l-5.516-5.515c.072-.138.124-.287.124-.453 0-.546-.443-.988-.988-.988-.546 0-.988.442-.988.988 0 .545.442.988.988.988.209 0 .392-.08.552-.19l5.636 5.635h16.518c.106.43.477.756.94.756z"/><path d="m131.522 70.036c-.469 0-.85.381-.85.85 0 .47.381.85.85.85.175 0 .328-.065.464-.155l4.087 4.086c-.091.136-.156.289-.156.464 0 .47.38.85.85.85.469 0 .85-.38.85-.85s-.381-.85-.85-.85c-.176 0-.329.065-.464.156l-4.087-4.087c.091-.135.156-.288.156-.464 0-.469-.38-.85-.85-.85z"/><path d="m188.549 54.524c-.412 0-.739.299-.817.688h-5.728l-11.218 11.218h-13.611c-.078-.389-.405-.688-.816-.688-.47 0-.851.381-.851.85 0 .47.381.85.851.85.411 0 .738-.298.816-.687h13.745l11.218-11.218h5.594c.079.388.405.687.817.687.469 0 .85-.38.85-.85-.001-.469-.381-.85-.85-.85z"/><path d="m193.397 55.549h26.972v-.35h-26.972c-.083-.382-.407-.675-.814-.675-.47 0-.851.38-.851.85 0 .469.381.85.851.85.407 0 .731-.292.814-.675z"/><path d="m140.739 50.123c-.47 0-.85.381-.85.85 0 .47.38.85.85.85.175 0 .328-.066.463-.156l5.933 5.933.048.047h14.366c.077.389.404.688.816.688.47 0 .85-.38.85-.85 0-.469-.38-.85-.85-.85-.411 0-.738.298-.816.687h-14.231l-5.885-5.885c.091-.135.156-.288.156-.463 0-.47-.381-.851-.85-.851z"/><path d="m128.76 59.918h-7.59c-.078-.388-.405-.687-.817-.687-.469 0-.85.381-.85.85 0 .47.381.85.85.85.412 0 .739-.299.817-.688h7.59c.078.389.405.688.817.688.469 0 .85-.38.85-.85 0-.469-.381-.85-.85-.85-.412 0-.739.299-.817.687z"/><path d="m147.057 65.742c-.175 0-.329.065-.464.156l-13.563-13.563-.048-.047h-8.635c-.078-.389-.405-.688-.816-.688-.47 0-.851.381-.851.85s.381.85.851.85c.411 0 .738-.299.816-.687h8.5l13.516 13.515c-.091.136-.156.289-.156.464 0 .47.38.85.85.85.469 0 .85-.38.85-.85-.001-.469-.382-.85-.85-.85z"/><path d="m179.344 47.24h37.592v-.325h-37.592c-.078-.389-.405-.687-.816-.687-.47 0-.85.38-.85.85s.38.85.85.85c.41 0 .738-.299.816-.688z"/><path d="m165.059 43.806c-.175 0-.328.066-.463.156l-4.848-4.848-.048-.047h-28.086c-.078-.388-.405-.687-.816-.687-.47 0-.85.38-.85.85s.38.85.85.85c.411 0 .739-.299.816-.688h27.951l4.8 4.801c-.091.135-.156.288-.156.463 0 .47.381.85.85.85.47 0 .85-.38.85-.85-.001-.469-.381-.85-.85-.85z"/><path d="m170.682 36.162c.171 0 .32-.062.453-.149l3.361 3.361.051.051h6.765c.083.382.407.675.814.675.469 0 .85-.38.85-.85s-.381-.85-.85-.85c-.407 0-.731.292-.814.675h-6.62l-3.309-3.31c.086-.133.149-.283.149-.453 0-.469-.381-.85-.851-.85-.469 0-.85.38-.85.85s.382.85.851.85z"/><path d="m166.796 36.459c.175 0 .328-.065.463-.156l5.755 5.754.048.047h9.947c.078.389.405.687.816.687.47 0 .85-.38.85-.85s-.38-.85-.85-.85c-.411 0-.738.299-.816.687h-9.813l-5.706-5.707c.091-.135.156-.289.156-.463 0-.469-.381-.85-.85-.85-.47 0-.85.38-.85.85s.38.851.85.851z"/><path d="m145.458 46.044c-.47 0-.851.38-.851.85s.381.85.851.85c.175 0 .328-.065.463-.156l4.179 4.179.048.047h14.427v-.325h-14.292l-4.131-4.131c.091-.135.156-.288.156-.463 0-.471-.381-.851-.85-.851z"/><path d="m120.915 37.502c.469 0 .85-.38.85-.85 0-.175-.065-.329-.156-.463l3.481-3.483h14.774c.077.389.405.688.816.688.47 0 .85-.38.85-.85s-.38-.85-.85-.85c-.411 0-.738.298-.816.687h-14.908l-3.578 3.578c-.135-.09-.288-.156-.463-.156-.47 0-.85.38-.85.85s.38.849.85.849z"/></g></g><g fill="none"><path d="m0 29h78v62h-78z"/><path d="m101 29h79v62h-79z"/></g></svg>