<svg enable-background="new 0 0 141.732 68.031" height="68.031" viewBox="0 0 141.732 68.031" width="141.732" xmlns="http://www.w3.org/2000/svg"><g fill="#4ab6a1"><path d="m138.243 20.475h-.5v-10.479l-5.943-6.02h-16.153v-.5h16.362l6.234 6.315z"/><path d="m114.864 2.901h1.65v1.65h-1.65z"/><path d="m137.167 19.608h1.65v1.65h-1.65z"/></g><path d="m112.788 57.799h-29.943l-1.272-1.166v-3.201l2.239-2.145v-9.367h.5v9.58l-2.239 2.145v2.767l.967.887h29.557l2.799-2.518h4.626v.5h-4.435z" fill="#9bb3b6"/><path d="m83.237 41.135h1.65v1.65h-1.65z" fill="#9bb3b6"/><path d="m119.155 54.205h1.65v1.65h-1.65z" fill="#9bb3b6"/><path d="m133.491 47.605v-19.096l2.227-2.228v-14.322l-6.047-6.047h-20.367l-3.186 3.182h-10.183l-2.545-2.545h-12.414l-3.5 3.5v4.457l2.229 2.228v8.273l-1.91 1.91v10.504l.955.955v10.184l-1.91 1.91v8.592l2.547 2.547h23.871 11.773l1.592 1.592h15.914l4.137-4.139v-8.275zm-1.998-34.565c0-.09.074-.163.164-.163h2.605c.09 0 .164.073.164.163v.223c0 .089-.074.162-.164.162h-2.605c-.09 0-.164-.073-.164-.162zm0 1.244c0-.09.074-.163.164-.163h2.605c.09 0 .164.073.164.163v.223c0 .089-.074.162-.164.162h-2.605c-.09 0-.164-.073-.164-.162zm0 1.244c0-.09.074-.163.164-.163h2.605c.09 0 .164.073.164.163v.223c0 .089-.074.163-.164.163h-2.605c-.09 0-.164-.074-.164-.163zm0 1.244c0-.089.074-.162.164-.162h2.605c.09 0 .164.073.164.162v.223c0 .09-.074.163-.164.163h-2.605c-.09 0-.164-.073-.164-.163zm0 1.244c0-.089.074-.162.164-.162h2.605c.09 0 .164.073.164.162v.223c0 .09-.074.163-.164.163h-2.605c-.09 0-.164-.073-.164-.163zm-23.658-7.297c.596 0 1.078.483 1.078 1.079s-.482 1.078-1.078 1.078-1.078-.482-1.078-1.078.482-1.079 1.078-1.079zm-29.168 2.432c0-.596.482-1.079 1.078-1.079s1.078.483 1.078 1.079-.482 1.078-1.078 1.078-1.078-.482-1.078-1.078zm43.002 48.615c0 .09-.072.162-.162.162h-.223c-.09 0-.164-.072-.164-.162v-2.607c0-.09.074-.162.164-.162h.223c.09 0 .162.072.162.162zm1.244 0c0 .09-.072.162-.162.162h-.223c-.09 0-.162-.072-.162-.162v-2.607c0-.09.072-.162.162-.162h.223c.09 0 .162.072.162.162zm1.244 0c0 .09-.072.162-.162.162h-.223c-.09 0-.162-.072-.162-.162v-2.607c0-.09.072-.162.162-.162h.223c.09 0 .162.072.162.162zm1.244 0c0 .09-.072.162-.162.162h-.223c-.09 0-.162-.072-.162-.162v-2.607c0-.09.072-.162.162-.162h.223c.09 0 .162.072.162.162zm1.245 0c0 .09-.072.162-.162.162h-.223c-.09 0-.162-.072-.162-.162v-2.607c0-.09.072-.162.162-.162h.223c.09 0 .162.072.162.162zm1.244 0c0 .09-.072.162-.162.162h-.223c-.09 0-.162-.072-.162-.162v-2.607c0-.09.072-.162.162-.162h.223c.09 0 .162.072.162.162zm4.009-6.842-2.863 2.865h-13.051l-1.91 1.91h-33.1l-1.908-1.91v-4.137l2.547-2.545v-8.912l-1.592-1.592v-10.821l1.592-1.59v-15.913l3.182-3.185h7.639l4.775 4.774h11.455l1.592-1.59v-3.184l1.592-1.59h15.596l1.91 1.909v11.457l2.545 2.547v31.507zm-.242-35.278c-.09 0-.164-.073-.164-.163v-.222c0-.09.074-.163.164-.163h2.605c.09 0 .164.073.164.163v.222c0 .09-.074.163-.164.163zm2.77 34.188c-.596 0-1.078-.482-1.078-1.078s.482-1.078 1.078-1.078 1.078.482 1.078 1.078-.483 1.078-1.078 1.078z" fill="#e9448f"/><path d="m23.936 64.518h-15.336l-2.682-2.682v-6.797l-2.428-2.4v-4.756h.5v4.547l2.428 2.4v6.799l2.389 2.389h15.129z" fill="#4ab6a1"/><path d="m2.915 47.098h1.65v1.65h-1.65z" fill="#4ab6a1"/><path d="m23.07 63.441h1.65v1.65h-1.65z" fill="#4ab6a1"/><path d="m70.034 19.119h-.499v-10.614l-2.42-2.42h-5.416l-3.232-3.175h-9.093v-.5h9.298l3.232 3.175h5.418l2.712 2.713z" fill="#9bb3b6"/><path d="m48.589 1.834h1.65v1.65h-1.65z" fill="#9bb3b6"/><path d="m68.959 18.252h1.651v1.65h-1.651z" fill="#9bb3b6"/><path d="m66.139 37.113h-1.946l-1.621-1.623v-4.865l1.944-1.947v-5.189l1.947-1.946v-10.704l-2.271-2.271h-5.839l-3.243-3.243h-12.65l-2.919 2.919h-12.001l-1.946-1.946h-12.976l-1.297 1.297v2.272l-5.513 5.513v14.921l2.594 2.594v6.164l-1.623 1.621v9.084l2.596 2.596v6.811l2.271 2.271h16.219l2.271-2.271h9.406l1.946 1.945h8.433l1.946 1.947h12.326l1.297-1.297v-3.244l2.596-2.596v-16.867zm-2.636-27.113c.607 0 1.1.492 1.1 1.1 0 .606-.492 1.099-1.1 1.099s-1.099-.492-1.099-1.099c.001-.607.492-1.1 1.099-1.1zm-56.824 7.007c0-.606.492-1.099 1.1-1.099s1.099.492 1.099 1.099-.491 1.1-1.099 1.1-1.1-.492-1.1-1.1zm10.178 43.682c0 .092-.075.166-.167.166h-.226c-.092 0-.166-.074-.166-.166v-2.656c0-.092.074-.166.166-.166h.226c.092 0 .167.074.167.166zm1.268 0c0 .092-.074.166-.166.166h-.227c-.091 0-.166-.074-.166-.166v-2.656c0-.092.075-.166.166-.166h.227c.092 0 .166.074.166.166zm1.268 0c0 .092-.075.166-.166.166h-.227c-.092 0-.166-.074-.166-.166v-2.656c0-.092.074-.166.166-.166h.227c.091 0 .166.074.166.166zm1.268 0c0 .092-.074.166-.166.166h-.227c-.091 0-.166-.074-.166-.166v-2.656c0-.092.075-.166.166-.166h.227c.092 0 .166.074.166.166zm1.268 0c0 .092-.075.166-.166.166h-.227c-.092 0-.166-.074-.166-.166v-2.656c0-.092.074-.166.166-.166h.227c.091 0 .166.074.166.166zm1.268 0c0 .092-.074.166-.166.166h-.227c-.091 0-.166-.074-.166-.166v-2.656c0-.092.075-.166.166-.166h.227c.092 0 .166.074.166.166zm39.208 1.266c-.607 0-1.1-.492-1.1-1.1s.492-1.1 1.1-1.1c.606 0 1.099.492 1.099 1.1s-.493 1.1-1.099 1.1zm1.464-8.623-1.622 1.621v1.621l-2.92 2.92h-15.893l-2.92-2.92h-5.894l-.974.975h-18.758l-3.567-3.57v-21.407l-3.243-3.243v-2.92l1.621-1.622v-12.001l3.245-3.245h11.353l1.946 1.946h13.946l2.92-2.919h11.678l2.594 2.596h3.568l2.271 2.27v8.759l-1.62 1.621v13.625l2.27 2.27v13.623zm3.683-4.299c0 .092-.075.166-.167.166h-2.656c-.092 0-.166-.074-.166-.166v-.227c0-.092.074-.166.166-.166h2.656c.092 0 .167.074.167.166zm0-1.267c0 .092-.075.166-.167.166h-2.656c-.092 0-.166-.074-.166-.166v-.227c0-.092.074-.166.166-.166h2.656c.092 0 .167.074.167.166zm0-1.268c0 .09-.075.166-.167.166h-2.656c-.092 0-.166-.076-.166-.166v-.227c0-.092.074-.166.166-.166h2.656c.092 0 .167.074.167.166zm0-1.269c0 .092-.075.166-.167.166h-2.656c-.092 0-.166-.074-.166-.166v-.227c0-.09.074-.166.166-.166h2.656c.092 0 .167.076.167.166zm0-1.268c0 .092-.075.166-.167.166h-2.656c-.092 0-.166-.074-.166-.166v-.227c0-.092.074-.166.166-.166h2.656c.092 0 .167.074.167.166zm0-1.268c0 .092-.075.166-.167.166h-2.656c-.092 0-.166-.074-.166-.166v-.227c0-.092.074-.166.166-.166h2.656c.092 0 .167.074.167.166z" fill="#e9448f"/><path d="m3.49 1.834h111.375v45.263h-111.375z" fill="#fff"/><path d="m24.72 21.258h114.097v43.833h-114.097z" fill="#fff"/><path d="m-.009 44.934h30v22h-30z" fill="none"/><path d="m111.991-1.191h29v25h-29z" fill="none"/></svg>