<?xml version="1.0" encoding="utf-8"?>
<!-- Generator: Adobe Illustrator 16.0.0, SVG Export Plug-In . SVG Version: 6.00 Build 0)  -->
<!DOCTYPE svg PUBLIC "-//W3C//DTD SVG 1.1//EN" "http://www.w3.org/Graphics/SVG/1.1/DTD/svg11.dtd">
<svg version="1.1" id="Layer_1" xmlns="http://www.w3.org/2000/svg" xmlns:xlink="http://www.w3.org/1999/xlink" x="0px" y="0px"
	 width="141.732px" height="68.031px" viewBox="0 0 141.732 68.031" enable-background="new 0 0 141.732 68.031"
	 xml:space="preserve">
<g>
	<g>
		<g>
			<polygon fill="#4AB6A1" points="138.243,20.475 137.743,20.475 137.743,9.996 131.8,3.976 115.647,3.976 115.647,3.476 
				132.009,3.476 138.243,9.791 			"/>
		</g>
		<g>
			<g>
				<rect x="114.864" y="2.901" fill="#4AB6A1" width="1.65" height="1.65"/>
			</g>
		</g>
		<g>
			<g>
				<rect x="137.167" y="19.608" fill="#4AB6A1" width="1.65" height="1.65"/>
			</g>
		</g>
	</g>
	<g>
		<g>
			<polygon fill="#9BB3B6" points="112.788,57.799 82.845,57.799 81.573,56.633 81.573,53.432 83.812,51.287 83.812,41.92 
				84.312,41.92 84.312,51.5 82.073,53.645 82.073,56.412 83.04,57.299 112.597,57.299 115.396,54.781 120.022,54.781 
				120.022,55.281 115.587,55.281 			"/>
		</g>
		<g>
			<g>
				<rect x="83.237" y="41.135" fill="#9BB3B6" width="1.65" height="1.65"/>
			</g>
		</g>
		<g>
			<g>
				<rect x="119.155" y="54.205" fill="#9BB3B6" width="1.65" height="1.65"/>
			</g>
		</g>
	</g>
	<g>
		<path fill="#E9448F" d="M133.491,47.605V28.509l2.227-2.228V11.959l-6.047-6.047h-20.367l-3.186,3.182H95.935L93.39,6.549H80.976
			l-3.5,3.5v4.457l2.229,2.228v8.273l-1.91,1.91v10.504l0.955,0.955v10.184l-1.91,1.91v8.592l2.547,2.547h23.871h11.773l1.592,1.592
			h15.914l4.137-4.139v-8.275L133.491,47.605z M131.493,13.04c0-0.09,0.074-0.163,0.164-0.163h2.605c0.09,0,0.164,0.073,0.164,0.163
			v0.223c0,0.089-0.074,0.162-0.164,0.162h-2.605c-0.09,0-0.164-0.073-0.164-0.162V13.04z M131.493,14.284
			c0-0.09,0.074-0.163,0.164-0.163h2.605c0.09,0,0.164,0.073,0.164,0.163v0.223c0,0.089-0.074,0.162-0.164,0.162h-2.605
			c-0.09,0-0.164-0.073-0.164-0.162V14.284z M131.493,15.528c0-0.09,0.074-0.163,0.164-0.163h2.605c0.09,0,0.164,0.073,0.164,0.163
			v0.223c0,0.089-0.074,0.163-0.164,0.163h-2.605c-0.09,0-0.164-0.074-0.164-0.163V15.528z M131.493,16.772
			c0-0.089,0.074-0.162,0.164-0.162h2.605c0.09,0,0.164,0.073,0.164,0.162v0.223c0,0.09-0.074,0.163-0.164,0.163h-2.605
			c-0.09,0-0.164-0.073-0.164-0.163V16.772z M131.493,18.016c0-0.089,0.074-0.162,0.164-0.162h2.605c0.09,0,0.164,0.073,0.164,0.162
			v0.223c0,0.09-0.074,0.163-0.164,0.163h-2.605c-0.09,0-0.164-0.073-0.164-0.163V18.016z M107.835,10.719
			c0.596,0,1.078,0.483,1.078,1.079s-0.482,1.078-1.078,1.078s-1.078-0.482-1.078-1.078S107.239,10.719,107.835,10.719z
			 M78.667,13.151c0-0.596,0.482-1.079,1.078-1.079s1.078,0.483,1.078,1.079s-0.482,1.078-1.078,1.078S78.667,13.747,78.667,13.151z
			 M121.669,61.766c0,0.09-0.072,0.162-0.162,0.162h-0.223c-0.09,0-0.164-0.072-0.164-0.162v-2.607c0-0.09,0.074-0.162,0.164-0.162
			h0.223c0.09,0,0.162,0.072,0.162,0.162V61.766z M122.913,61.766c0,0.09-0.072,0.162-0.162,0.162h-0.223
			c-0.09,0-0.162-0.072-0.162-0.162v-2.607c0-0.09,0.072-0.162,0.162-0.162h0.223c0.09,0,0.162,0.072,0.162,0.162V61.766z
			 M124.157,61.766c0,0.09-0.072,0.162-0.162,0.162h-0.223c-0.09,0-0.162-0.072-0.162-0.162v-2.607c0-0.09,0.072-0.162,0.162-0.162
			h0.223c0.09,0,0.162,0.072,0.162,0.162V61.766z M125.401,61.766c0,0.09-0.072,0.162-0.162,0.162h-0.223
			c-0.09,0-0.162-0.072-0.162-0.162v-2.607c0-0.09,0.072-0.162,0.162-0.162h0.223c0.09,0,0.162,0.072,0.162,0.162V61.766z
			 M126.646,61.766c0,0.09-0.072,0.162-0.162,0.162h-0.223c-0.09,0-0.162-0.072-0.162-0.162v-2.607c0-0.09,0.072-0.162,0.162-0.162
			h0.223c0.09,0,0.162,0.072,0.162,0.162V61.766z M127.89,61.766c0,0.09-0.072,0.162-0.162,0.162h-0.223
			c-0.09,0-0.162-0.072-0.162-0.162v-2.607c0-0.09,0.072-0.162,0.162-0.162h0.223c0.09,0,0.162,0.072,0.162,0.162V61.766z
			 M131.899,54.924l-2.863,2.865h-13.051l-1.91,1.91h-33.1l-1.908-1.91v-4.137l2.547-2.545v-8.912l-1.592-1.592V29.782l1.592-1.59
			V12.279l3.182-3.185h7.639l4.775,4.774h11.455l1.592-1.59V9.094l1.592-1.59h15.596l1.91,1.909v11.457l2.545,2.547V54.924z
			 M131.657,19.646c-0.09,0-0.164-0.073-0.164-0.163v-0.222c0-0.09,0.074-0.163,0.164-0.163h2.605c0.09,0,0.164,0.073,0.164,0.163
			v0.222c0,0.09-0.074,0.163-0.164,0.163H131.657z M134.427,53.834c-0.596,0-1.078-0.482-1.078-1.078s0.482-1.078,1.078-1.078
			s1.078,0.482,1.078,1.078S135.022,53.834,134.427,53.834z"/>
	</g>
</g>
<g>
	<g>
		<g>
			<polygon fill="#4AB6A1" points="23.936,64.518 8.6,64.518 5.918,61.836 5.918,55.039 3.49,52.639 3.49,47.883 3.99,47.883 
				3.99,52.43 6.418,54.83 6.418,61.629 8.807,64.018 23.936,64.018 			"/>
		</g>
		<g>
			<g>
				<rect x="2.915" y="47.098" fill="#4AB6A1" width="1.65" height="1.65"/>
			</g>
		</g>
		<g>
			<g>
				<rect x="23.07" y="63.441" fill="#4AB6A1" width="1.65" height="1.65"/>
			</g>
		</g>
	</g>
	<g>
		<g>
			<polygon fill="#9BB3B6" points="70.034,19.119 69.535,19.119 69.535,8.505 67.115,6.085 61.699,6.085 58.467,2.91 49.374,2.91 
				49.374,2.41 58.672,2.41 61.904,5.585 67.322,5.585 70.034,8.298 			"/>
		</g>
		<g>
			<g>
				<rect x="48.589" y="1.834" fill="#9BB3B6" width="1.65" height="1.65"/>
			</g>
		</g>
		<g>
			<g>
				<rect x="68.959" y="18.252" fill="#9BB3B6" width="1.651" height="1.65"/>
			</g>
		</g>
	</g>
	<g>
		<path fill="#E9448F" d="M66.139,37.113h-1.946l-1.621-1.623v-4.865l1.944-1.947v-5.189l1.947-1.946V10.839l-2.271-2.271h-5.839
			L55.11,5.325H42.46l-2.919,2.919H27.54l-1.946-1.946H12.618l-1.297,1.297v2.272L5.808,15.38v14.921l2.594,2.594v6.164L6.779,40.68
			v9.084l2.596,2.596v6.811l2.271,2.271h16.219l2.271-2.271h9.406l1.946,1.945h8.433l1.946,1.947h12.326l1.297-1.297v-3.244
			l2.596-2.596V39.059L66.139,37.113z M63.503,10c0.607,0,1.1,0.492,1.1,1.1c0,0.606-0.492,1.099-1.1,1.099
			s-1.099-0.492-1.099-1.099C62.405,10.493,62.896,10,63.503,10z M6.679,17.007c0-0.606,0.492-1.099,1.1-1.099
			s1.099,0.492,1.099,1.099c0,0.607-0.491,1.1-1.099,1.1S6.679,17.615,6.679,17.007z M16.857,60.689
			c0,0.092-0.075,0.166-0.167,0.166h-0.226c-0.092,0-0.166-0.074-0.166-0.166v-2.656c0-0.092,0.074-0.166,0.166-0.166h0.226
			c0.092,0,0.167,0.074,0.167,0.166V60.689z M18.125,60.689c0,0.092-0.074,0.166-0.166,0.166h-0.227
			c-0.091,0-0.166-0.074-0.166-0.166v-2.656c0-0.092,0.075-0.166,0.166-0.166h0.227c0.092,0,0.166,0.074,0.166,0.166V60.689z
			 M19.393,60.689c0,0.092-0.075,0.166-0.166,0.166H19c-0.092,0-0.166-0.074-0.166-0.166v-2.656c0-0.092,0.074-0.166,0.166-0.166
			h0.227c0.091,0,0.166,0.074,0.166,0.166V60.689z M20.661,60.689c0,0.092-0.074,0.166-0.166,0.166h-0.227
			c-0.091,0-0.166-0.074-0.166-0.166v-2.656c0-0.092,0.075-0.166,0.166-0.166h0.227c0.092,0,0.166,0.074,0.166,0.166V60.689z
			 M21.929,60.689c0,0.092-0.075,0.166-0.166,0.166h-0.227c-0.092,0-0.166-0.074-0.166-0.166v-2.656
			c0-0.092,0.074-0.166,0.166-0.166h0.227c0.091,0,0.166,0.074,0.166,0.166V60.689z M23.197,60.689c0,0.092-0.074,0.166-0.166,0.166
			h-0.227c-0.091,0-0.166-0.074-0.166-0.166v-2.656c0-0.092,0.075-0.166,0.166-0.166h0.227c0.092,0,0.166,0.074,0.166,0.166V60.689z
			 M62.405,61.955c-0.607,0-1.1-0.492-1.1-1.1s0.492-1.1,1.1-1.1c0.606,0,1.099,0.492,1.099,1.1S63.011,61.955,62.405,61.955z
			 M63.869,53.332l-1.622,1.621v1.621l-2.92,2.92H43.434l-2.92-2.92h-5.894l-0.974,0.975H14.888l-3.567-3.57V32.572l-3.243-3.243
			v-2.92l1.621-1.622V12.786l3.245-3.245h11.353l1.946,1.946h13.946l2.92-2.919h11.678l2.594,2.596h3.568l2.271,2.27v8.759
			l-1.62,1.621v13.625l2.27,2.27V53.332z M67.552,49.033c0,0.092-0.075,0.166-0.167,0.166h-2.656c-0.092,0-0.166-0.074-0.166-0.166
			v-0.227c0-0.092,0.074-0.166,0.166-0.166h2.656c0.092,0,0.167,0.074,0.167,0.166V49.033z M67.552,47.766
			c0,0.092-0.075,0.166-0.167,0.166h-2.656c-0.092,0-0.166-0.074-0.166-0.166v-0.227c0-0.092,0.074-0.166,0.166-0.166h2.656
			c0.092,0,0.167,0.074,0.167,0.166V47.766z M67.552,46.498c0,0.09-0.075,0.166-0.167,0.166h-2.656
			c-0.092,0-0.166-0.076-0.166-0.166v-0.227c0-0.092,0.074-0.166,0.166-0.166h2.656c0.092,0,0.167,0.074,0.167,0.166V46.498z
			 M67.552,45.229c0,0.092-0.075,0.166-0.167,0.166h-2.656c-0.092,0-0.166-0.074-0.166-0.166v-0.227c0-0.09,0.074-0.166,0.166-0.166
			h2.656c0.092,0,0.167,0.076,0.167,0.166V45.229z M67.552,43.961c0,0.092-0.075,0.166-0.167,0.166h-2.656
			c-0.092,0-0.166-0.074-0.166-0.166v-0.227c0-0.092,0.074-0.166,0.166-0.166h2.656c0.092,0,0.167,0.074,0.167,0.166V43.961z
			 M67.552,42.693c0,0.092-0.075,0.166-0.167,0.166h-2.656c-0.092,0-0.166-0.074-0.166-0.166v-0.227
			c0-0.092,0.074-0.166,0.166-0.166h2.656c0.092,0,0.167,0.074,0.167,0.166V42.693z"/>
	</g>
</g>
<rect x="3.49" y="1.834" fill="#FFFFFF" width="111.375" height="45.263"/>
<rect x="24.72" y="21.258" fill="#FFFFFF" width="114.097" height="43.833"/>
<rect id="_x3C_Slice_x3E_" x="-0.009" y="44.934" fill="none" width="30" height="22"/>
<rect id="_x3C_Slice_x3E__1_" x="111.991" y="-1.191" fill="none" width="29" height="25"/>
<g>
</g>
<g>
</g>
<g>
</g>
<g>
</g>
<g>
</g>
<g>
</g>
</svg>
