<?xml version="1.0" encoding="utf-8"?>
<!-- Generator: Adobe Illustrator 16.0.0, SVG Export Plug-In . SVG Version: 6.00 Build 0)  -->
<!DOCTYPE svg PUBLIC "-//W3C//DTD SVG 1.1//EN" "http://www.w3.org/Graphics/SVG/1.1/DTD/svg11.dtd">
<svg version="1.1" id="Layer_1" xmlns="http://www.w3.org/2000/svg" xmlns:xlink="http://www.w3.org/1999/xlink" x="0px" y="0px"
	 width="280.977px" height="158.5px" viewBox="0 0 280.977 158.5" enable-background="new 0 0 280.977 158.5" xml:space="preserve">
<g id="Monitor3">
	<g>
		
			<linearGradient id="SVGID_1_" gradientUnits="userSpaceOnUse" x1="280.8372" y1="78.3066" x2="-0.1409" y2="78.3066" gradientTransform="matrix(1 0 0 -1 0.1401 157.5547)">
			<stop  offset="0" style="stop-color:#4BB6A1"/>
			<stop  offset="1" style="stop-color:#A270E8"/>
		</linearGradient>
		<path fill="url(#SVGID_1_)" d="M277.375,7.204h-57.638L212.533,0H18.012l-7.205,7.204H3.603L0,10.807v140.487l7.205,7.205h32.42
			l3.603-3.604h198.124l3.604,3.604h32.421l3.603-3.604V10.807L277.375,7.204z M277.375,50.432l-3.604,3.602v79.25l3.604,3.602
			v14.41l-3.604,3.603h-25.215l-3.604-3.603h-79.249l-3.604-3.604H72.045l-3.604,3.604H7.205l-3.603-3.604V14.409l3.603-3.603h3.604
			l7.205-7.205h21.612l3.603,3.603h169.307l3.604,3.603h57.635l3.604,3.603v36.022H277.375z"/>
	</g>
	<g id="Group_3_" opacity="0.4">
		<g>
			<rect x="9.006" y="145.893" fill="#4BB6A1" width="3.603" height="3.602"/>
		</g>
		<g>
			<rect x="39.625" y="145.893" fill="#4BB6A1" width="3.603" height="3.602"/>
		</g>
		<g>
			<rect x="33.501" y="145.893" fill="#4BB6A1" width="3.604" height="3.602"/>
		</g>
		<g>
			<rect x="27.377" y="145.893" fill="#4BB6A1" width="3.603" height="3.602"/>
		</g>
		<g>
			<rect x="15.13" y="145.893" fill="#4BB6A1" width="3.603" height="3.602"/>
		</g>
		<g>
			<rect x="21.253" y="145.893" fill="#4BB6A1" width="3.604" height="3.602"/>
		</g>
	</g>
	<g opacity="0.4">
		<g>
			<polygon fill="#A270E8" points="270.263,151.52 252.065,151.52 248.462,147.917 170.494,147.917 170.494,147.466 
				248.649,147.466 252.251,151.068 270.076,151.068 273.546,147.6 273.546,141.675 273.997,141.675 273.997,147.785 			"/>
		</g>
		<g>
			<g>
				<rect x="169.306" y="146.207" fill="#A270E8" width="2.973" height="2.973"/>
			</g>
		</g>
		<g>
			<g>
				<rect x="272.286" y="140.486" fill="#A270E8" width="2.972" height="2.975"/>
			</g>
		</g>
	</g>
	<g opacity="0.4">
		<g>
			<polygon fill="#A270E8" points="273.997,45.417 273.546,45.417 273.546,18.104 270.076,14.634 212.44,14.634 208.837,11.031 
				188.73,11.031 188.73,10.581 209.025,10.581 212.626,14.184 270.263,14.184 273.997,17.918 			"/>
		</g>
		<g>
			<g>
				<rect x="187.318" y="9.32" fill="#A270E8" width="2.974" height="2.973"/>
			</g>
		</g>
		<g>
			<g>
				<rect x="272.286" y="43.856" fill="#A270E8" width="2.972" height="2.973"/>
			</g>
		</g>
	</g>
	<g opacity="0.4">
		<rect x="269.719" y="54.033" fill="#A270E8" width="0.899" height="79.25"/>
	</g>
	<g opacity="0.4">
		<rect x="267.468" y="54.033" fill="#A270E8" width="0.9" height="79.25"/>
	</g>
	<g id="Group_5_" opacity="0.4">
		<g>
			<path fill="#4BB6A1" d="M14.409,9.006l3.604-3.603h3.603l-3.603,3.603H14.409z"/>
		</g>
		<g>
			<path fill="#4BB6A1" d="M18.912,9.006l3.603-3.603h3.604l-3.604,3.603H18.912z"/>
		</g>
		<g>
			<path fill="#4BB6A1" d="M23.415,9.006l3.603-3.603h3.604l-3.604,3.603H23.415z"/>
		</g>
		<g>
			<path fill="#4BB6A1" d="M27.917,9.006l3.604-3.603h3.603L31.52,9.006H27.917z"/>
		</g>
		<g>
			<path fill="#4BB6A1" d="M32.42,9.006l3.604-3.603h3.603l-3.603,3.603H32.42z"/>
		</g>
	</g>
	<g opacity="0.4">
		<rect x="14.184" y="10.581" fill="#4BB6A1" width="25.666" height="0.45"/>
	</g>
</g>
</svg>
