<?xml version="1.0" encoding="utf-8"?>
<!-- Generator: Adobe Illustrator 16.0.0, SVG Export Plug-In . SVG Version: 6.00 Build 0)  -->
<!DOCTYPE svg PUBLIC "-//W3C//DTD SVG 1.1//EN" "http://www.w3.org/Graphics/SVG/1.1/DTD/svg11.dtd">
<svg version="1.1" id="Layer_1" xmlns="http://www.w3.org/2000/svg" xmlns:xlink="http://www.w3.org/1999/xlink" x="0px" y="0px"
	 width="158.5px" height="190.291px" viewBox="0 0 158.5 190.291" enable-background="new 0 0 158.5 190.291" xml:space="preserve">
<g id="Monitor3">
	<g>
		<linearGradient id="SVGID_1_" gradientUnits="userSpaceOnUse" x1="79.25" y1="0" x2="79.25" y2="190.2905">
			<stop  offset="0" style="stop-color:#4BB6A1"/>
			<stop  offset="1" style="stop-color:#7E39DF"/>
		</linearGradient>
		<path fill="url(#SVGID_1_)" d="M151.296,187.853v-39.034l7.203-4.88V12.199l-7.203-4.88V2.44L147.693,0H7.206L0,4.88v21.956
			l3.604,2.44v134.178L0,165.894v21.957l3.604,2.439h144.089L151.296,187.853z M108.068,187.853l-3.604-2.44h-79.25l-3.602,2.44
			H7.203l-3.602-2.44v-17.077l3.602-2.439v-53.672l3.604-2.44v-60.99l-3.604-2.438V4.88l3.604-2.439h133.283l3.604,2.439v2.44
			l7.205,4.879v14.637l-3.604,2.44v114.663l-3.603,2.44v39.032l-3.604,2.44H108.068L108.068,187.853z"/>
	</g>
	<g id="Group_3_" opacity="0.4">
		<g>
			<rect x="9.007" y="9.006" fill="#7E39DF" width="3.602" height="3.603"/>
		</g>
		<g>
			<rect x="9.007" y="39.625" fill="#7E39DF" width="3.602" height="3.603"/>
		</g>
		<g>
			<rect x="9.007" y="33.501" fill="#7E39DF" width="3.602" height="3.604"/>
		</g>
		<g>
			<rect x="9.007" y="27.377" fill="#7E39DF" width="3.602" height="3.603"/>
		</g>
		<g>
			<rect x="9.007" y="15.13" fill="#7E39DF" width="3.602" height="3.603"/>
		</g>
		<g>
			<rect x="9.007" y="21.253" fill="#7E39DF" width="3.602" height="3.604"/>
		</g>
	</g>
	<g id="Group_5_" opacity="0.4">
		<g>
			<path fill="#7E39DF" d="M149.494,14.409l3.604,3.604v3.602l-3.604-3.602V14.409z"/>
		</g>
		<g>
			<path fill="#7E39DF" d="M149.494,18.912l3.604,3.603v3.603l-3.604-3.603V18.912z"/>
		</g>
	</g>
</g>
</svg>
