<svg enable-background="new 0 0 280.977 158.5" height="158.5" viewBox="0 0 280.977 158.5" width="280.977" xmlns="http://www.w3.org/2000/svg" xmlns:xlink="http://www.w3.org/1999/xlink"><linearGradient id="a" gradientTransform="matrix(1 0 0 -1 .1401 157.5547)" gradientUnits="userSpaceOnUse" x1="280.8372" x2="-.1409" y1="78.3066" y2="78.3066"><stop offset="0" stop-color="#4bb6a1"/><stop offset="1" stop-color="#a270e8"/></linearGradient><path d="m277.375 7.204h-57.638l-7.204-7.204h-194.521l-7.205 7.204h-7.204l-3.603 3.603v140.487l7.205 7.205h32.42l3.603-3.604h198.124l3.604 3.604h32.421l3.603-3.604v-144.088zm0 43.228-3.604 3.602v79.25l3.604 3.602v14.41l-3.604 3.603h-25.215l-3.604-3.603h-79.249l-3.604-3.604h-90.054l-3.604 3.604h-61.236l-3.603-3.604v-133.283l3.603-3.603h3.604l7.205-7.205h21.612l3.603 3.603h169.307l3.604 3.603h57.635l3.604 3.603v36.022z" fill="url(#a)"/><g fill="#4bb6a1" opacity=".4"><path d="m9.006 145.893h3.603v3.602h-3.603z"/><path d="m39.625 145.893h3.603v3.602h-3.603z"/><path d="m33.501 145.893h3.604v3.602h-3.604z"/><path d="m27.377 145.893h3.603v3.602h-3.603z"/><path d="m15.13 145.893h3.603v3.602h-3.603z"/><path d="m21.253 145.893h3.604v3.602h-3.604z"/></g><g fill="#a270e8"><g opacity=".4"><path d="m270.263 151.52h-18.198l-3.603-3.603h-77.968v-.451h78.155l3.602 3.602h17.825l3.47-3.468v-5.925h.451v6.11z"/><path d="m169.306 146.207h2.973v2.973h-2.973z"/><path d="m272.286 140.486h2.972v2.975h-2.972z"/></g><g opacity=".4"><path d="m273.997 45.417h-.451v-27.313l-3.47-3.47h-57.636l-3.603-3.603h-20.107v-.45h20.295l3.601 3.603h57.637l3.734 3.734z"/><path d="m187.318 9.32h2.974v2.973h-2.974z"/><path d="m272.286 43.856h2.972v2.973h-2.972z"/></g><path d="m269.719 54.033h.899v79.25h-.899z" opacity=".4"/><path d="m267.468 54.033h.9v79.25h-.9z" opacity=".4"/></g><g fill="#4bb6a1" opacity=".4"><path d="m14.409 9.006 3.604-3.603h3.603l-3.603 3.603z"/><path d="m18.912 9.006 3.603-3.603h3.604l-3.604 3.603z"/><path d="m23.415 9.006 3.603-3.603h3.604l-3.604 3.603z"/><path d="m27.917 9.006 3.604-3.603h3.603l-3.604 3.603z"/><path d="m32.42 9.006 3.604-3.603h3.603l-3.603 3.603z"/></g><path d="m14.184 10.581h25.666v.45h-25.666z" fill="#4bb6a1" opacity=".4"/></svg>