<svg enable-background="new 0 0 158.5 190.291" height="190.291" viewBox="0 0 158.5 190.291" width="158.5" xmlns="http://www.w3.org/2000/svg" xmlns:xlink="http://www.w3.org/1999/xlink"><linearGradient id="a" gradientTransform="matrix(1 0 0 -1 .1401 189.3457)" gradientUnits="userSpaceOnUse" x1="79.1089" x2="79.1089" y1="-.9438" y2="189.3452"><stop offset="0" stop-color="#4bb6a1"/><stop offset="1" stop-color="#7e39df"/></linearGradient><path d="m151.296 187.853v-39.033l7.203-4.881v-131.74l-7.203-4.88v-4.879l-3.603-2.44h-140.487l-7.206 4.88v21.956l3.604 2.44v134.178l-3.604 2.44v21.957l3.604 2.439h144.089zm-43.228 0-3.604-2.439h-79.25l-3.602 2.439h-14.409l-3.602-2.439v-17.077l3.602-2.438v-53.672l3.604-2.44v-60.99l-3.604-2.438v-41.479l3.604-2.439h133.283l3.604 2.439v2.44l7.205 4.879v14.637l-3.604 2.44v114.663l-3.604 2.44v39.032l-3.604 2.439h-36.02v.003z" fill="url(#a)"/><g fill="#4bb6a1"><g opacity=".4"><path d="m9.007 9.006h3.602v3.603h-3.602z"/><path d="m9.007 39.625h3.602v3.603h-3.602z"/><path d="m9.007 33.501h3.602v3.604h-3.602z"/><path d="m9.007 27.377h3.602v3.603h-3.602z"/><path d="m9.007 15.13h3.602v3.603h-3.602z"/><path d="m9.007 21.253h3.602v3.604h-3.602z"/></g><g opacity=".4"><path d="m149.494 14.409 3.604 3.604v3.602l-3.604-3.602z"/><path d="m149.494 18.912 3.604 3.603v3.603l-3.604-3.603z"/></g></g></svg>