<?xml version="1.0" encoding="utf-8"?>
<!-- Generator: Adobe Illustrator 16.0.0, SVG Export Plug-In . SVG Version: 6.00 Build 0)  -->
<!DOCTYPE svg PUBLIC "-//W3C//DTD SVG 1.1//EN" "http://www.w3.org/Graphics/SVG/1.1/DTD/svg11.dtd">
<svg version="1.1" id="Layer_1" xmlns="http://www.w3.org/2000/svg" xmlns:xlink="http://www.w3.org/1999/xlink" x="0px" y="0px"
	 width="59.135px" height="62.57px" viewBox="0 0 59.135 62.57" enable-background="new 0 0 59.135 62.57" xml:space="preserve">
<g>
	<g>
		<g>
			<g>
				<path fill="#E9458F" d="M31.815,0.243C27.23-0.328,22.521,0.109,18.122,1.54l0.781,2.387c4.044-1.313,8.375-1.716,12.594-1.192
					L31.815,0.243z"/>
			</g>
		</g>
	</g>
	<g>
		<g>
			<g>
				<path fill="#23366B" d="M43.886,7.039c-0.52-0.326-1.014-0.697-1.556-0.985l-1.633-0.854l-1.229,2.503l1.476,0.77
					c0.491,0.259,0.934,0.599,1.404,0.891L43.886,7.039z"/>
			</g>
		</g>
	</g>
	<g>
		<g>
			<g>
				<path fill="#23366B" d="M48.998,11.322c-0.887-0.849-1.707-1.771-2.7-2.502l-1.771,2.154c0.901,0.655,1.636,1.497,2.44,2.26
					L48.998,11.322z"/>
			</g>
		</g>
	</g>
	<g>
		<g>
			<g>
				<path fill="#23366B" d="M52.992,16.664c-0.286-0.544-0.667-1.03-0.996-1.548c-0.355-0.5-0.653-1.043-1.056-1.507l-2.215,1.695
					c0.367,0.418,0.631,0.914,0.953,1.366c0.297,0.469,0.648,0.907,0.903,1.399L52.992,16.664z"/>
			</g>
		</g>
	</g>
	<g>
		<g>
			<g>
				<path fill="#42B7AD" d="M36.649,59.188l0.233,0.74l-1.703,0.506c-0.573,0.145-1.16,0.235-1.739,0.355
					c-1.156,0.271-2.34,0.348-3.519,0.46c-0.589,0.077-1.182,0.06-1.773,0.06l-1.775-0.005l-1.767-0.171
					c-0.59-0.058-1.181-0.102-1.758-0.236L22.64,62.13c3.996,0.678,8.125,0.574,12.084-0.316c3.96-0.886,7.742-2.567,11.054-4.897
					c3.315-2.323,6.191-5.29,8.384-8.704c2.198-3.41,3.714-7.252,4.449-11.237c0.739-3.984,0.699-8.113-0.13-12.083
					c-0.823-3.972-2.442-7.779-4.719-11.128c-2.269-3.352-5.188-6.274-8.567-8.521C41.818,2.99,38,1.415,34.027,0.618L33.35,3.99
					c-1.365-0.325-2.766-0.408-4.157-0.547L27.095,3.44l-0.525-0.001l-0.521,0.047l-1.045,0.1c-2.774,0.292-5.535,0.939-8.088,2.089
					c-2.554,1.119-5.002,2.549-7.101,4.406c-2.121,1.814-4.031,3.907-5.485,6.3C1.3,21.092-0.16,26.749,0.014,32.337
					c0.134,2.796,0.659,5.562,1.551,8.217c0.97,2.627,2.312,5.1,3.94,7.378l0.354-0.264L4.831,46.13l-0.516-0.768l-0.437-0.815
					L3.01,42.915l-0.701-1.711c-0.115-0.286-0.238-0.568-0.347-0.856l-0.263-0.886c-0.17-0.593-0.365-1.178-0.517-1.774
					c-0.212-1.214-0.53-2.412-0.589-3.647c-0.544-4.91,0.394-9.93,2.431-14.411l1.12,0.524c2.718-5.909,7.813-10.635,13.812-13.092
					c5.996-2.484,12.935-2.585,19.024-0.312l1.336-3.603c3.904,1.454,7.5,3.732,10.477,6.646c2.976,2.912,5.348,6.436,6.904,10.302
					l-2.436,0.98l-0.049,0.02l-0.703,0.283c0.477,1.024,0.738,2.123,1.073,3.198c0.091,0.267,0.149,0.542,0.196,0.82l0.159,0.829
					l0.162,0.829l0.082,0.414l0.039,0.421c0.1,1.122,0.251,2.24,0.199,3.37c-0.019,0.562,0.036,1.128-0.037,1.688l-0.164,1.682
					c-0.026,0.565-0.182,1.111-0.277,1.666c-0.123,0.549-0.183,1.114-0.354,1.651c-0.333,1.076-0.595,2.177-1.066,3.203
					c-0.778,2.12-1.975,4.05-3.248,5.899l0.652,0.481c2.154-2.921,3.726-6.276,4.564-9.812c0.848-3.532,0.987-7.232,0.405-10.815
					l0.456-0.073c1.059,6.569-0.325,13.493-3.836,19.141c-3.458,5.693-9.12,9.956-15.456,11.918l0.194,0.63l-1.051,0.313
					l-0.525,0.156l-0.537,0.106l-2.151,0.417c-1.454,0.143-2.907,0.328-4.371,0.267c-2.913-0.047-5.851-0.44-8.617-1.397
					c-2.768-0.929-5.413-2.234-7.796-3.932c-2.354-1.735-4.442-3.809-6.23-6.123l-0.604,0.45c1.842,2.389,3.998,4.525,6.432,6.311
					c2.457,1.755,5.194,3.089,8.052,4.037c2.857,0.972,5.885,1.387,8.893,1.409c1.509,0.058,3.01-0.139,4.506-0.305l2.22-0.43
					C35.213,59.653,35.924,59.389,36.649,59.188z"/>
			</g>
		</g>
	</g>
</g>
<g>
</g>
<g>
</g>
<g>
</g>
<g>
</g>
<g>
</g>
<g>
</g>
</svg>
