<?xml version="1.0" encoding="utf-8"?>
<!-- Generator: Adobe Illustrator 16.0.0, SVG Export Plug-In . SVG Version: 6.00 Build 0)  -->
<!DOCTYPE svg PUBLIC "-//W3C//DTD SVG 1.1//EN" "http://www.w3.org/Graphics/SVG/1.1/DTD/svg11.dtd">
<svg version="1.1" id="Layer_1" xmlns="http://www.w3.org/2000/svg" xmlns:xlink="http://www.w3.org/1999/xlink" x="0px" y="0px"
	 width="158.5px" height="280.979px" viewBox="0 0 158.5 280.979" enable-background="new 0 0 158.5 280.979" xml:space="preserve">
<g id="Monitor3">
	<g>
		<linearGradient id="SVGID_1_" gradientUnits="userSpaceOnUse" x1="79.251" y1="-7.324219e-04" x2="79.251" y2="280.9797">
			<stop  offset="0" style="stop-color:#4BB6A1"/>
			<stop  offset="1" style="stop-color:#7E39DF"/>
		</linearGradient>
		<path fill="url(#SVGID_1_)" d="M151.297,277.374v-57.637l7.203-7.205V18.013l-7.203-7.205V3.604l-3.604-3.604H7.207L0.001,7.204
			v32.42l3.604,3.604v198.125l-3.604,3.602v32.422l3.604,3.604h144.089L151.297,277.374z M108.069,277.374l-3.604-3.604h-79.25
			l-3.602,3.604H7.204l-3.602-3.604v-25.215l3.602-3.604v-79.25l3.604-3.604V72.045l-3.604-3.604V7.204l3.604-3.602H144.09
			l3.604,3.602v3.604l7.205,7.205v21.611l-3.604,3.604v169.305l-3.603,3.605v57.635l-3.604,3.604h-36.021L108.069,277.374
			L108.069,277.374z"/>
	</g>
	<g id="Group_3_" opacity="0.4">
		<g>
			<rect x="9.008" y="9.006" fill="#7E39DF" width="3.602" height="3.603"/>
		</g>
		<g>
			<rect x="9.008" y="39.624" fill="#7E39DF" width="3.602" height="3.604"/>
		</g>
		<g>
			<rect x="9.008" y="33.5" fill="#7E39DF" width="3.602" height="3.604"/>
		</g>
		<g>
			<rect x="9.008" y="27.377" fill="#7E39DF" width="3.602" height="3.603"/>
		</g>
		<g>
			<rect x="9.008" y="15.13" fill="#7E39DF" width="3.602" height="3.603"/>
		</g>
		<g>
			<rect x="9.008" y="21.253" fill="#7E39DF" width="3.602" height="3.604"/>
		</g>
	</g>
	<g opacity="0.4">
		<g>
			<polygon fill="#42B7AD" points="6.98,270.264 6.98,252.065 10.583,248.462 10.583,170.493 11.035,170.493 11.035,248.649 
				7.432,252.251 7.432,270.075 10.902,273.546 16.826,273.546 16.826,273.997 10.717,273.997 			"/>
		</g>
		<g>
			<g>
				<rect x="9.322" y="169.307" fill="#42B7AD" width="2.973" height="2.973"/>
			</g>
		</g>
		<g>
			<g>
				<rect x="15.041" y="272.286" fill="#42B7AD" width="2.973" height="2.973"/>
			</g>
		</g>
	</g>
	<g opacity="0.4">
		<g>
			<polygon fill="#42B7AD" points="113.083,273.997 113.083,273.546 140.397,273.546 143.867,270.075 143.867,212.44 
				147.469,208.837 147.469,188.731 147.92,188.731 147.92,209.026 144.317,212.626 144.317,270.264 140.583,273.997 			"/>
		</g>
		<g>
			<g>
				<rect x="146.208" y="187.319" fill="#42B7AD" width="2.973" height="2.973"/>
			</g>
		</g>
		<g>
			<g>
				<rect x="111.672" y="272.286" fill="#42B7AD" width="2.973" height="2.973"/>
			</g>
		</g>
	</g>
	<g opacity="0.4">
		<rect x="25.219" y="269.719" fill="#42B7AD" width="79.248" height="0.898"/>
	</g>
	<g opacity="0.4">
		<rect x="25.219" y="267.468" fill="#42B7AD" width="79.248" height="0.9"/>
	</g>
	<g id="Group_5_" opacity="0.4">
		<g>
			<path fill="#7E39DF" d="M149.495,14.408l3.604,3.604v3.602l-3.604-3.602V14.408z"/>
		</g>
		<g>
			<path fill="#7E39DF" d="M149.495,18.911l3.604,3.604v3.603l-3.604-3.603V18.911z"/>
		</g>
		<g>
			<path fill="#7E39DF" d="M149.495,23.414l3.604,3.604v3.603l-3.604-3.603V23.414z"/>
		</g>
		<g>
			<path fill="#7E39DF" d="M149.495,27.916l3.604,3.604v3.602l-3.604-3.602V27.916z"/>
		</g>
		<g>
			<path fill="#7E39DF" d="M149.495,32.42l3.604,3.604v3.602l-3.604-3.602V32.42z"/>
		</g>
	</g>
	<g opacity="0.4">
		<rect x="147.469" y="14.185" fill="#7E39DF" width="0.451" height="25.666"/>
	</g>
</g>
</svg>
