<svg enable-background="new 61.239 -61.24 158.499 280.978" height="280.978" viewBox="61.239 -61.24 158.499 280.978" width="158.499" xmlns="http://www.w3.org/2000/svg"><g fill="#42b7ad"><path d="m212.534 216.135v-57.637l7.204-7.205v-194.52l-7.204-7.205v-7.204l-3.603-3.604h-140.487l-7.205 7.205v32.42l3.604 3.603v198.124l-3.604 3.603v32.421l3.604 3.603h144.089zm-43.228 0-3.603-3.604h-79.25l-3.602 3.604h-14.41l-3.602-3.604v-25.215l3.602-3.604v-79.249l3.604-3.604v-90.054l-3.604-3.603v-61.237l3.604-3.602h133.283l3.603 3.602v3.604l7.205 7.205v21.612l-3.603 3.603v169.306l-3.603 3.604v57.635l-3.604 3.604h-36.021v-.003z"/><path d="m70.245-52.234h3.602v3.603h-3.602z"/><path d="m70.245-21.615h3.602v3.603h-3.602z"/><path d="m70.245-27.739h3.602v3.604h-3.602z"/><path d="m70.245-33.863h3.602v3.603h-3.602z"/><path d="m70.245-46.11h3.602v3.603h-3.602z"/><path d="m70.245-39.987h3.602v3.604h-3.602z"/><path d="m68.218 209.024v-18.198l3.603-3.604v-77.968h.451v78.156l-3.603 3.601v17.825l3.47 3.47h5.924v.451h-6.109z"/><path d="m70.559 108.067h2.973v2.973h-2.973z"/><path d="m76.278 211.046h2.973v2.972h-2.973z"/><path d="m174.321 212.757v-.451h27.314l3.469-3.47v-57.635l3.603-3.604v-20.106h.45v20.295l-3.603 3.6v57.638l-3.734 3.733z"/><path d="m207.445 126.079h2.973v2.973h-2.973z"/><path d="m172.909 211.046h2.974v2.972h-2.974z"/><path d="m86.456 208.48h79.249v.899h-79.249z"/><path d="m86.456 206.228h79.249v.9h-79.249z"/><path d="m210.732-46.831 3.604 3.604v3.602l-3.604-3.602z"/><path d="m210.732-42.328 3.604 3.603v3.603l-3.604-3.603z"/><path d="m210.732-37.825 3.604 3.603v3.603l-3.604-3.603z"/><path d="m210.732-33.323 3.604 3.604v3.602l-3.604-3.602z"/><path d="m210.732-28.82 3.604 3.604v3.602l-3.604-3.602z"/><path d="m208.707-47.055h.45v25.666h-.45z"/></g></svg>