<svg enable-background="new 0 0 280.977 158.5" height="158.5" viewBox="0 0 280.977 158.5" width="280.977" xmlns="http://www.w3.org/2000/svg" xmlns:xlink="http://www.w3.org/1999/xlink"><linearGradient id="a" gradientUnits="userSpaceOnUse" x1="-.000244" x2="280.9773" y1="79.2495" y2="79.2495"><stop offset="0" stop-color="#4bb6a1"/><stop offset="1" stop-color="#a270e8"/></linearGradient><path d="m277.375 7.204h-57.637l-7.205-7.204h-194.521l-7.205 7.204h-7.204l-3.603 3.603v140.487l7.205 7.205h32.42l3.603-3.604h198.124l3.603 3.604h32.421l3.603-3.604v-144.088zm0 43.228-3.604 3.602v79.25l3.604 3.602v14.41l-3.604 3.602h-25.215l-3.604-3.602h-79.249l-3.604-3.604h-90.054l-3.603 3.604h-61.237l-3.602-3.604v-133.283l3.602-3.603h3.604l7.205-7.205h21.612l3.603 3.603h169.306l3.604 3.603h57.635l3.604 3.603v36.022z" fill="url(#a)"/><g fill="#a270e8" opacity=".4"><path d="m9.006 145.892h3.603v3.602h-3.603z"/><path d="m39.625 145.892h3.603v3.602h-3.603z"/><path d="m33.501 145.892h3.604v3.602h-3.604z"/><path d="m27.377 145.892h3.603v3.602h-3.603z"/><path d="m15.13 145.892h3.603v3.602h-3.603z"/><path d="m21.253 145.892h3.604v3.602h-3.604z"/></g><g fill="#42b7ad"><g opacity=".4"><path d="m270.263 151.52h-18.198l-3.603-3.603h-77.968v-.451h78.155l3.602 3.603h17.825l3.47-3.47v-5.924h.451v6.11z"/><path d="m169.306 146.207h2.973v2.973h-2.973z"/><path d="m272.286 140.487h2.972v2.974h-2.972z"/></g><g opacity=".4"><path d="m273.997 45.417h-.451v-27.313l-3.47-3.47h-57.636l-3.603-3.603h-20.107v-.45h20.295l3.601 3.603h57.637l3.734 3.734z"/><path d="m187.318 9.32h2.973v2.973h-2.973z"/><path d="m272.286 43.856h2.972v2.973h-2.972z"/></g><path d="m269.719 54.033h.899v79.25h-.899z" opacity=".4"/><path d="m267.468 54.033h.9v79.25h-.9z" opacity=".4"/></g><g fill="#a270e8" opacity=".4"><path d="m14.409 9.006 3.604-3.603h3.602l-3.602 3.603z"/><path d="m18.912 9.006 3.603-3.603h3.603l-3.603 3.603z"/><path d="m23.415 9.006 3.603-3.603h3.603l-3.603 3.603z"/><path d="m27.917 9.006 3.604-3.603h3.602l-3.603 3.603z"/><path d="m32.42 9.006 3.604-3.603h3.602l-3.602 3.603z"/></g><path d="m14.184 10.581h25.666v.45h-25.666z" fill="#a270e8" opacity=".4"/></svg>