<svg enable-background="new 0 0 59.135 62.57" height="62.57" viewBox="0 0 59.135 62.57" width="59.135" xmlns="http://www.w3.org/2000/svg"><path d="m31.815.243c-4.585-.571-9.294-.134-13.693 1.297l.781 2.387c4.044-1.313 8.375-1.716 12.594-1.192z" fill="#e9458f"/><g fill="#23366b"><path d="m43.886 7.039c-.52-.326-1.014-.697-1.556-.985l-1.633-.854-1.229 2.503 1.476.77c.491.259.934.599 1.404.891z"/><path d="m48.998 11.322c-.887-.849-1.707-1.771-2.7-2.502l-1.771 2.154c.901.655 1.636 1.497 2.44 2.26z"/><path d="m52.992 16.664c-.286-.544-.667-1.03-.996-1.548-.355-.5-.653-1.043-1.056-1.507l-2.215 1.695c.367.418.631.914.953 1.366.297.469.648.907.903 1.399z"/></g><path d="m36.649 59.188.233.74-1.703.506c-.573.145-1.16.235-1.739.355-1.156.271-2.34.348-3.519.46-.589.077-1.182.06-1.773.06l-1.775-.005-1.767-.171c-.59-.058-1.181-.102-1.758-.236l-.208 1.233c3.996.678 8.125.574 12.084-.316 3.96-.886 7.742-2.567 11.054-4.897 3.315-2.323 6.191-5.29 8.384-8.704 2.198-3.41 3.714-7.252 4.449-11.237.739-3.984.699-8.113-.13-12.083-.823-3.972-2.442-7.779-4.719-11.128-2.269-3.352-5.188-6.274-8.567-8.521-3.377-2.254-7.195-3.829-11.168-4.626l-.677 3.372c-1.365-.325-2.766-.408-4.157-.547l-2.098-.003-.525-.001-.521.047-1.045.1c-2.774.292-5.535.939-8.088 2.089-2.554 1.119-5.002 2.549-7.101 4.406-2.121 1.814-4.031 3.907-5.485 6.3-3.03 4.711-4.49 10.368-4.316 15.956.134 2.796.659 5.562 1.551 8.217.97 2.627 2.312 5.1 3.94 7.378l.354-.264-1.028-1.538-.516-.768-.437-.815-.868-1.632-.701-1.711c-.115-.286-.238-.568-.347-.856l-.263-.886c-.17-.593-.365-1.178-.517-1.774-.212-1.214-.53-2.412-.589-3.647-.544-4.91.394-9.93 2.431-14.411l1.12.524c2.718-5.909 7.813-10.635 13.812-13.092 5.996-2.484 12.935-2.585 19.024-.312l1.336-3.603c3.904 1.454 7.5 3.732 10.477 6.646 2.976 2.912 5.348 6.436 6.904 10.302l-2.436.98-.049.02-.703.283c.477 1.024.738 2.123 1.073 3.198.091.267.149.542.196.82l.159.829.162.829.082.414.039.421c.1 1.122.251 2.24.199 3.37-.019.562.036 1.128-.037 1.688l-.164 1.682c-.026.565-.182 1.111-.277 1.666-.123.549-.183 1.114-.354 1.651-.333 1.076-.595 2.177-1.066 3.203-.778 2.12-1.975 4.05-3.248 5.899l.652.481c2.154-2.921 3.726-6.276 4.564-9.812.848-3.532.987-7.232.405-10.815l.456-.073c1.059 6.569-.325 13.493-3.836 19.141-3.458 5.693-9.12 9.956-15.456 11.918l.194.63-1.051.313-.525.156-.537.106-2.151.417c-1.454.143-2.907.328-4.371.267-2.913-.047-5.851-.44-8.617-1.397-2.768-.929-5.413-2.234-7.796-3.932-2.354-1.735-4.442-3.809-6.23-6.123l-.604.45c1.842 2.389 3.998 4.525 6.432 6.311 2.457 1.755 5.194 3.089 8.052 4.037 2.857.972 5.885 1.387 8.893 1.409 1.509.058 3.01-.139 4.506-.305l2.22-.43c.74-.144 1.451-.408 2.176-.609z" fill="#42b7ad"/></svg>