<svg enable-background="new 61.239 -61.24 158.499 190.291" height="190.291" viewBox="61.239 -61.24 158.499 190.291" width="158.499" xmlns="http://www.w3.org/2000/svg"><g fill="#a270e8"><path d="m212.534 126.612v-39.034l7.204-4.88v-131.739l-7.204-4.88v-4.879l-3.603-2.44h-140.487l-7.205 4.88v21.956l3.604 2.44v134.178l-3.604 2.44v21.957l3.604 2.439h144.089zm-43.228 0-3.603-2.44h-79.25l-3.602 2.44h-14.41l-3.602-2.44v-17.077l3.602-2.44v-53.672l3.604-2.44v-60.99l-3.604-2.439v-41.474l3.604-2.439h133.283l3.603 2.439v2.44l7.205 4.879v14.637l-3.603 2.44v114.663l-3.603 2.44v39.033l-3.604 2.44z"/><path d="m70.245-52.234h3.602v3.603h-3.602z"/><path d="m70.245-21.615h3.602v3.603h-3.602z"/><path d="m70.245-27.739h3.602v3.604h-3.602z"/><path d="m70.245-33.863h3.602v3.603h-3.602z"/><path d="m70.245-46.11h3.602v3.603h-3.602z"/><path d="m70.245-39.987h3.602v3.604h-3.602z"/><path d="m210.732-46.831 3.604 3.604v3.602l-3.604-3.602z"/><path d="m210.732-42.328 3.604 3.603v3.603l-3.604-3.603z"/></g></svg>