<svg enable-background="new 0 0 158.5 280.979" height="280.979" viewBox="0 0 158.5 280.979" width="158.5" xmlns="http://www.w3.org/2000/svg" xmlns:xlink="http://www.w3.org/1999/xlink"><linearGradient id="a" gradientUnits="userSpaceOnUse" x1="79.251" x2="79.251" y1="-.000732" y2="280.9797"><stop offset="0" stop-color="#4bb6a1"/><stop offset="1" stop-color="#7e39df"/></linearGradient><path d="m151.297 277.374v-57.637l7.203-7.205v-194.519l-7.203-7.205v-7.204l-3.604-3.604h-140.486l-7.206 7.204v32.42l3.604 3.604v198.125l-3.604 3.602v32.422l3.604 3.604h144.089zm-43.228 0-3.604-3.604h-79.25l-3.602 3.604h-14.409l-3.602-3.604v-25.215l3.602-3.604v-79.25l3.604-3.604v-90.052l-3.604-3.604v-61.237l3.604-3.602h133.282l3.604 3.602v3.604l7.205 7.205v21.611l-3.604 3.604v169.305l-3.603 3.605v57.635l-3.604 3.604h-36.021z" fill="url(#a)"/><g fill="#7e39df" opacity=".4"><path d="m9.008 9.006h3.602v3.603h-3.602z"/><path d="m9.008 39.624h3.602v3.604h-3.602z"/><path d="m9.008 33.5h3.602v3.604h-3.602z"/><path d="m9.008 27.377h3.602v3.603h-3.602z"/><path d="m9.008 15.13h3.602v3.603h-3.602z"/><path d="m9.008 21.253h3.602v3.604h-3.602z"/></g><g fill="#42b7ad"><g opacity=".4"><path d="m6.98 270.264v-18.199l3.603-3.603v-77.969h.452v78.156l-3.603 3.602v17.824l3.47 3.471h5.924v.451h-6.109z"/><path d="m9.322 169.307h2.973v2.973h-2.973z"/><path d="m15.041 272.286h2.973v2.973h-2.973z"/></g><g opacity=".4"><path d="m113.083 273.997v-.451h27.314l3.47-3.471v-57.635l3.602-3.603v-20.106h.451v20.295l-3.603 3.6v57.638l-3.734 3.733z"/><path d="m146.208 187.319h2.973v2.973h-2.973z"/><path d="m111.672 272.286h2.973v2.973h-2.973z"/></g><path d="m25.219 269.719h79.248v.898h-79.248z" opacity=".4"/><path d="m25.219 267.468h79.248v.9h-79.248z" opacity=".4"/></g><g fill="#7e39df" opacity=".4"><path d="m149.495 14.408 3.604 3.604v3.602l-3.604-3.602z"/><path d="m149.495 18.911 3.604 3.604v3.603l-3.604-3.603z"/><path d="m149.495 23.414 3.604 3.604v3.603l-3.604-3.603z"/><path d="m149.495 27.916 3.604 3.604v3.602l-3.604-3.602z"/><path d="m149.495 32.42 3.604 3.604v3.602l-3.604-3.602z"/></g><path d="m147.469 14.185h.451v25.666h-.451z" fill="#7e39df" opacity=".4"/></svg>