<?xml version="1.0" encoding="utf-8"?>
<!-- Generator: Adobe Illustrator 16.0.0, SVG Export Plug-In . SVG Version: 6.00 Build 0)  -->
<!DOCTYPE svg PUBLIC "-//W3C//DTD SVG 1.1//EN" "http://www.w3.org/Graphics/SVG/1.1/DTD/svg11.dtd">
<svg version="1.1" id="Layer_1" xmlns="http://www.w3.org/2000/svg" xmlns:xlink="http://www.w3.org/1999/xlink" x="0px" y="0px"
	 width="158.499px" height="280.978px" viewBox="61.239 -61.24 158.499 280.978"
	 enable-background="new 61.239 -61.24 158.499 280.978" xml:space="preserve">
<g id="Monitor3">
	<g>
		<path fill="#42B7AD" d="M212.534,216.135v-57.637l7.204-7.205V-43.227l-7.204-7.205v-7.204l-3.603-3.604H68.444l-7.205,7.205
			v32.42l3.604,3.603v198.124l-3.604,3.603v32.421l3.604,3.603h144.089L212.534,216.135z M169.306,216.135l-3.603-3.604h-79.25
			l-3.602,3.604h-14.41l-3.602-3.604v-25.215l3.602-3.604v-79.249l3.604-3.604V10.805l-3.604-3.603v-61.237l3.604-3.602h133.283
			l3.603,3.602v3.604l7.205,7.205v21.612l-3.603,3.603v169.306l-3.603,3.604v57.635l-3.604,3.604h-36.021V216.135z"/>
	</g>
	<g id="Group_3_">
		<g>
			<rect x="70.245" y="-52.234" fill="#42B7AD" width="3.602" height="3.603"/>
		</g>
		<g>
			<rect x="70.245" y="-21.615" fill="#42B7AD" width="3.602" height="3.603"/>
		</g>
		<g>
			<rect x="70.245" y="-27.739" fill="#42B7AD" width="3.602" height="3.604"/>
		</g>
		<g>
			<rect x="70.245" y="-33.863" fill="#42B7AD" width="3.602" height="3.603"/>
		</g>
		<g>
			<rect x="70.245" y="-46.11" fill="#42B7AD" width="3.602" height="3.603"/>
		</g>
		<g>
			<rect x="70.245" y="-39.987" fill="#42B7AD" width="3.602" height="3.604"/>
		</g>
	</g>
	<g>
		<g>
			<polygon fill="#42B7AD" points="68.218,209.024 68.218,190.826 71.821,187.222 71.821,109.254 72.272,109.254 72.272,187.41 
				68.669,191.011 68.669,208.836 72.139,212.306 78.063,212.306 78.063,212.757 71.954,212.757 			"/>
		</g>
		<g>
			<g>
				<rect x="70.559" y="108.067" fill="#42B7AD" width="2.973" height="2.973"/>
			</g>
		</g>
		<g>
			<g>
				<rect x="76.278" y="211.046" fill="#42B7AD" width="2.973" height="2.972"/>
			</g>
		</g>
	</g>
	<g>
		<g>
			<polygon fill="#42B7AD" points="174.321,212.757 174.321,212.306 201.635,212.306 205.104,208.836 205.104,151.201 
				208.707,147.597 208.707,127.491 209.157,127.491 209.157,147.786 205.554,151.386 205.554,209.024 201.82,212.757 			"/>
		</g>
		<g>
			<g>
				<rect x="207.445" y="126.079" fill="#42B7AD" width="2.973" height="2.973"/>
			</g>
		</g>
		<g>
			<g>
				<rect x="172.909" y="211.046" fill="#42B7AD" width="2.974" height="2.972"/>
			</g>
		</g>
	</g>
	<g>
		<rect x="86.456" y="208.48" fill="#42B7AD" width="79.249" height="0.899"/>
	</g>
	<g>
		<rect x="86.456" y="206.228" fill="#42B7AD" width="79.249" height="0.9"/>
	</g>
	<g id="Group_5_">
		<g>
			<path fill="#42B7AD" d="M210.732-46.831l3.604,3.604v3.602l-3.604-3.602V-46.831z"/>
		</g>
		<g>
			<path fill="#42B7AD" d="M210.732-42.328l3.604,3.603v3.603l-3.604-3.603V-42.328z"/>
		</g>
		<g>
			<path fill="#42B7AD" d="M210.732-37.825l3.604,3.603v3.603l-3.604-3.603V-37.825z"/>
		</g>
		<g>
			<path fill="#42B7AD" d="M210.732-33.323l3.604,3.604v3.602l-3.604-3.602V-33.323z"/>
		</g>
		<g>
			<path fill="#42B7AD" d="M210.732-28.82l3.604,3.604v3.602l-3.604-3.602V-28.82z"/>
		</g>
	</g>
	<g>
		<rect x="208.707" y="-47.055" fill="#42B7AD" width="0.45" height="25.666"/>
	</g>
</g>
</svg>
