<?xml version="1.0" encoding="utf-8"?>
<!-- Generator: Adobe Illustrator 16.0.0, SVG Export Plug-In . SVG Version: 6.00 Build 0)  -->
<!DOCTYPE svg PUBLIC "-//W3C//DTD SVG 1.1//EN" "http://www.w3.org/Graphics/SVG/1.1/DTD/svg11.dtd">
<svg version="1.1" id="Layer_1" xmlns="http://www.w3.org/2000/svg" xmlns:xlink="http://www.w3.org/1999/xlink" x="0px" y="0px"
	 width="280.976px" height="158.499px" viewBox="0 0 280.976 158.499" enable-background="new 0 0 280.976 158.499"
	 xml:space="preserve">
<g id="Monitor3">
	<g>
		<path fill="#42B7AD" d="M277.375,7.204h-57.637L212.533,0H18.012l-7.205,7.204H3.603L0,10.807v140.488l7.205,7.204h32.42
			l3.602-3.603h198.124l3.603,3.603h32.421l3.602-3.603V10.807L277.375,7.204z M277.375,50.432l-3.604,3.602v79.25l3.604,3.603
			v14.409l-3.604,3.602h-25.215l-3.603-3.602h-79.249l-3.604-3.603H72.045l-3.603,3.603H7.205l-3.602-3.603V14.409l3.602-3.603
			h3.603l7.205-7.205h21.613l3.602,3.603h169.306l3.604,3.603h57.635l3.604,3.603V50.432z"/>
	</g>
	<g id="Group_3_">
		<g>
			<rect x="9.006" y="145.892" fill="#42B7AD" width="3.602" height="3.602"/>
		</g>
		<g>
			<rect x="39.625" y="145.892" fill="#42B7AD" width="3.602" height="3.602"/>
		</g>
		<g>
			<rect x="33.501" y="145.892" fill="#42B7AD" width="3.603" height="3.602"/>
		</g>
		<g>
			<rect x="27.377" y="145.892" fill="#42B7AD" width="3.602" height="3.602"/>
		</g>
		<g>
			<rect x="15.13" y="145.892" fill="#42B7AD" width="3.602" height="3.602"/>
		</g>
		<g>
			<rect x="21.253" y="145.892" fill="#42B7AD" width="3.603" height="3.602"/>
		</g>
	</g>
	<g>
		<g>
			<polygon fill="#42B7AD" points="270.263,151.52 252.065,151.52 248.462,147.917 170.494,147.917 170.494,147.467 
				248.649,147.467 252.251,151.069 270.076,151.069 273.546,147.599 273.546,141.675 273.997,141.675 273.997,147.785 			"/>
		</g>
		<g>
			<g>
				<rect x="169.306" y="146.206" fill="#42B7AD" width="2.973" height="2.973"/>
			</g>
		</g>
		<g>
			<g>
				<rect x="272.286" y="140.487" fill="#42B7AD" width="2.972" height="2.973"/>
			</g>
		</g>
	</g>
	<g>
		<g>
			<polygon fill="#42B7AD" points="273.997,45.417 273.546,45.417 273.546,18.104 270.076,14.634 212.44,14.634 208.837,11.031 
				188.73,11.031 188.73,10.581 209.025,10.581 212.626,14.184 270.263,14.184 273.997,17.918 			"/>
		</g>
		<g>
			<g>
				<rect x="187.318" y="9.32" fill="#42B7AD" width="2.973" height="2.973"/>
			</g>
		</g>
		<g>
			<g>
				<rect x="272.286" y="43.856" fill="#42B7AD" width="2.972" height="2.973"/>
			</g>
		</g>
	</g>
	<g>
		<rect x="269.719" y="54.033" fill="#42B7AD" width="0.9" height="79.25"/>
	</g>
	<g>
		<rect x="267.468" y="54.033" fill="#42B7AD" width="0.9" height="79.25"/>
	</g>
	<g id="Group_5_">
		<g>
			<path fill="#42B7AD" d="M14.409,9.006l3.603-3.603h3.602l-3.602,3.603H14.409z"/>
		</g>
		<g>
			<path fill="#42B7AD" d="M18.912,9.006l3.602-3.603h3.603l-3.603,3.603H18.912z"/>
		</g>
		<g>
			<path fill="#42B7AD" d="M23.415,9.006l3.602-3.603h3.603l-3.603,3.603H23.415z"/>
		</g>
		<g>
			<path fill="#42B7AD" d="M27.917,9.006l3.603-3.603h3.602L31.52,9.006H27.917z"/>
		</g>
		<g>
			<path fill="#42B7AD" d="M32.42,9.006l3.603-3.603h3.602l-3.602,3.603H32.42z"/>
		</g>
	</g>
	<g>
		<rect x="14.184" y="10.581" fill="#42B7AD" width="25.666" height="0.45"/>
	</g>
</g>
</svg>
