<?xml version="1.0" encoding="utf-8"?>
<!-- Generator: Adobe Illustrator 19.2.1, SVG Export Plug-In . SVG Version: 6.00 Build 0)  -->
<svg version="1.1" id="Layer_1" xmlns="http://www.w3.org/2000/svg" xmlns:xlink="http://www.w3.org/1999/xlink" x="0px" y="0px"
	 viewBox="0 0 220.5 220.5" style="enable-background:new 0 0 220.5 220.5;" xml:space="preserve">
<style type="text/css">
	.st0{fill:none;}
	.st1{fill:#FFFFFF;}
</style>
<g>
	<g>
		<rect class="st0" width="220.5" height="220.5"/>
		<rect x="25.2" y="25.2" class="st0" width="170.1" height="170.1"/>
	</g>
	<g>
		<g>
			<path class="st1" d="M110.3,195.3c-46.8,0-85-38.1-85-85c0-22.7,8.8-44.1,24.9-60.2c16-16.1,37.4-24.9,60.1-25
				c46.9,0,85.1,38.1,85.1,85C195.3,157.1,157.2,195.3,110.3,195.3L110.3,195.3z"/>
		</g>
		<g>
			<path d="M110.2,27.3L110.2,27.3c45.7,0,83,37.2,83,82.9c0,45.7-37.1,83-82.9,83h-0.1c-45.7,0-82.9-37.2-82.9-82.9
				c0-22.2,8.6-43,24.2-58.7C67.2,36,88,27.4,110.2,27.3 M110.2,25.2c-22.7,0-44.1,8.9-60.1,25c-16,16.1-24.9,37.4-24.9,60.2
				c0,46.8,38.2,85,85,85h0.1c46.9,0,85-38.2,85-85.1C195.3,63.3,157.1,25.2,110.2,25.2L110.2,25.2z"/>
		</g>
		<path d="M94.9,57.9v21.2c0,8.5,6.9,15.5,15.5,15.5c8.6,0,15.5-6.9,15.5-15.5V57.9H94.9z M97.4,82.7l2-3.4l2,3.4H97.4z M103.9,82.7
			l-3.2-5.6l1.5-2.6l4.7,8.2H103.9z M109.4,82.7l-6-10.4l1.5-2.6l7.4,13H109.4z M114.9,82.7l-8.8-15.2l1.5-2.5l10.1,17.7H114.9z
			 M120.3,82.7l-11.5-19.9l1.5-2.5l12.9,22.4H120.3z"/>
		<g>
			<g>
				<g>
					<path d="M64,122.8h2.4c3.9,0,4.4-2.3,4.4-8.3c0-6-0.5-8.3-4.4-8.3H64V122.8z M67.4,101.9c6.7,0,8.8,3.6,8.8,12.6
						c0,9-2.1,12.6-8.8,12.6h-8.6v-25.2H67.4z M78.9,101.9h13.6v4.3h-8.3v5.4h7.6v4.4h-7.6v6.7h8.3v4.5H78.9V101.9z M107.1,117.1
						l-2.5-10.4l-2.7,10.4H107.1z M108.2,121.5h-7.3l-1.3,5.6h-5.3l7.1-25.2h6.7l7,25.2h-5.5L108.2,121.5z M116.8,101.9h5.3v11
						l6.6-11h5.5l-7.3,11.6l7.3,13.6H128l-6-12.3v12.3h-5.3V101.9z M136.4,101.9h5.1v25.2h-5.1V101.9z M149.5,110.6v16.5h-4.6v-25.2
						h6.3l6.1,15.5v-15.5h4.6v25.2h-5.8L149.5,110.6z"/>
				</g>
			</g>
			<g>
				<path d="M66.7,141.7V133c0-0.1,0.1-0.1,0.2-0.2c0.1-0.1,0.3-0.1,0.5-0.1c0.2,0,0.4-0.1,0.6-0.1c0.2,0,0.3,0,0.5,0
					c0.2,0,0.3,0.1,0.4,0.2c0.1,0.1,0.2,0.3,0.2,0.4v8.6c0,0.9-0.1,1.7-0.3,2.4c-0.2,0.6-0.5,1.1-0.9,1.5c-0.4,0.4-1,0.7-1.6,0.8
					c-0.6,0.2-1.4,0.2-2.3,0.2h-0.2c-0.8,0-1.6-0.1-2.2-0.2c-0.6-0.2-1.2-0.4-1.6-0.8c-0.4-0.4-0.7-0.9-0.9-1.5
					c-0.2-0.6-0.3-1.4-0.3-2.4V133c0-0.1,0.1-0.1,0.2-0.2c0.1-0.1,0.3-0.1,0.5-0.1c0.2,0,0.4-0.1,0.6-0.1c0.2,0,0.4,0,0.5,0
					c0.2,0,0.3,0.1,0.4,0.2c0.1,0.1,0.2,0.3,0.2,0.4v8.5c0,0.5,0,1,0.1,1.4c0.1,0.4,0.2,0.7,0.4,0.9c0.2,0.2,0.5,0.4,0.8,0.5
					c0.4,0.1,0.8,0.2,1.3,0.2h0.2c0.5,0,1-0.1,1.4-0.2s0.7-0.3,0.9-0.5c0.2-0.2,0.4-0.6,0.5-0.9C66.7,142.7,66.7,142.2,66.7,141.7z"
					/>
				<path d="M80,142.5v-9.6c0-0.1,0.1-0.1,0.2-0.2c0.1,0,0.3-0.1,0.5-0.1c0.2,0,0.4,0,0.6-0.1c0.2,0,0.4,0,0.5,0
					c0.3,0,0.5,0.2,0.5,0.6v13.1c0,0.2-0.1,0.3-0.2,0.4c-0.1,0.1-0.3,0.1-0.4,0.1c-0.1,0-0.2,0-0.4,0s-0.3,0-0.5-0.1
					c-0.2,0-0.3-0.1-0.5-0.1c-0.1,0-0.2-0.1-0.3-0.2l-6.2-9.6v9.4c0,0.2-0.1,0.3-0.2,0.4c-0.1,0.1-0.2,0.1-0.4,0.1
					c-0.1,0-0.3,0-0.5,0c-0.2,0-0.4,0-0.6-0.1c-0.2,0-0.3-0.1-0.5-0.1c-0.1-0.1-0.2-0.1-0.2-0.2V133c0-0.1,0.1-0.1,0.2-0.2
					c0.1-0.1,0.3-0.1,0.5-0.1c0.2,0,0.4,0,0.6-0.1c0.2,0,0.3,0,0.5,0c0.1,0,0.3,0,0.4,0.1c0.1,0.1,0.2,0.2,0.2,0.3L80,142.5z"/>
				<path d="M87,146.3c0,0.2-0.1,0.3-0.2,0.4c-0.1,0.1-0.3,0.1-0.4,0.1c-0.1,0-0.3,0-0.5,0c-0.2,0-0.4,0-0.6-0.1
					c-0.2,0-0.3-0.1-0.5-0.1c-0.1-0.1-0.2-0.1-0.2-0.2V133c0-0.1,0.1-0.1,0.2-0.2c0.1-0.1,0.3-0.1,0.5-0.1c0.2,0,0.4,0,0.6-0.1
					c0.2,0,0.3,0,0.5,0c0.2,0,0.3,0.1,0.4,0.2c0.1,0.1,0.2,0.2,0.2,0.4V146.3z"/>
				<path d="M94.4,142.9l2.9-9.9c0.2-0.2,0.4-0.3,0.6-0.3c0.2,0,0.5-0.1,0.8-0.1c0.1,0,0.3,0,0.4,0c0.1,0,0.2,0,0.3,0.1
					c0.1,0,0.2,0.1,0.2,0.2c0,0.1,0,0.2,0,0.4l-4.4,13.2c0,0.1-0.1,0.2-0.2,0.2c-0.1,0.1-0.2,0.1-0.3,0.1c-0.4,0-0.8,0-1.1-0.1
					s-0.5-0.1-0.5-0.2l-4.4-13.3c0-0.1,0-0.2,0-0.3c0-0.1,0.1-0.1,0.2-0.2c0.1-0.1,0.2-0.1,0.3-0.1s0.2,0,0.2,0c0.2,0,0.4,0,0.6,0
					c0.2,0,0.4,0,0.5,0.1c0.2,0,0.3,0.1,0.4,0.1c0.1,0.1,0.2,0.1,0.2,0.2l2.9,9.8c0.1,0.2,0.1,0.3,0.1,0.5c0,0.2,0,0.3,0.1,0.5
					c0-0.1,0-0.3,0-0.5C94.3,143.2,94.3,143,94.4,142.9z"/>
				<path d="M101.4,146.2v-12.9c0-0.2,0.1-0.3,0.2-0.4c0.1-0.1,0.3-0.1,0.4-0.1h7.7c0.1,0,0.3,0.1,0.4,0.2c0.1,0.1,0.1,0.2,0.1,0.4
					c0,0.1,0,0.2,0,0.4c0,0.2,0,0.3-0.1,0.5c0,0.2-0.1,0.3-0.1,0.4c-0.1,0.1-0.1,0.2-0.2,0.2h-6.1v3.7h5.2c0.1,0,0.2,0.1,0.3,0.2
					c0.1,0.1,0.1,0.2,0.1,0.4c0,0.1,0,0.2,0,0.4c0,0.2,0,0.3-0.1,0.5c0,0.2-0.1,0.3-0.1,0.4c-0.1,0.1-0.1,0.2-0.2,0.2h-5.3v3.9h6
					c0.1,0,0.3,0.1,0.4,0.2c0.1,0.1,0.1,0.2,0.1,0.4c0,0.1,0,0.2,0,0.4c0,0.2,0,0.3-0.1,0.5c0,0.2-0.1,0.3-0.1,0.4s-0.1,0.2-0.2,0.2
					h-7.5c-0.2,0-0.4,0-0.6-0.1C101.5,146.3,101.4,146.3,101.4,146.2z"/>
				<path d="M112.6,146.4v-13.1c0-0.1,0.1-0.3,0.2-0.4c0.1-0.1,0.3-0.1,0.4-0.1h4.2c0.9,0,1.6,0.1,2.2,0.2c0.6,0.1,1.1,0.4,1.5,0.7
					c0.4,0.3,0.7,0.7,0.9,1.3c0.2,0.5,0.3,1.2,0.3,2v0.4c0,0.6,0,1.1-0.1,1.6s-0.2,0.8-0.4,1.1c-0.2,0.3-0.5,0.6-0.8,0.8
					c-0.3,0.2-0.7,0.3-1.2,0.4l2.7,4.6c0.1,0.2,0.2,0.4,0.2,0.6c0,0.1,0,0.1-0.1,0.2c-0.1,0.1-0.1,0.1-0.2,0.1c-0.1,0-0.2,0-0.2,0
					c-0.1,0-0.1,0-0.2,0c-0.1,0-0.3,0-0.4,0c-0.2,0-0.4,0-0.5-0.1c-0.2,0-0.3-0.1-0.5-0.1c-0.1-0.1-0.2-0.2-0.3-0.3l-2.8-4.8h-2.4
					v4.8c0,0.2-0.1,0.3-0.2,0.4c-0.1,0.1-0.2,0.1-0.4,0.1c-0.1,0-0.3,0-0.5,0c-0.2,0-0.4,0-0.6-0.1c-0.2,0-0.3-0.1-0.5-0.1
					C112.6,146.5,112.6,146.5,112.6,146.4z M117.5,134.8h-2.7v4.6h2.7c0.5,0,0.9,0,1.3-0.1c0.3-0.1,0.6-0.2,0.7-0.3
					c0.2-0.2,0.3-0.4,0.3-0.6c0.1-0.3,0.1-0.6,0.1-1.1v-0.4c0-0.4,0-0.8-0.1-1.1c-0.1-0.3-0.2-0.5-0.3-0.6c-0.2-0.2-0.4-0.3-0.7-0.3
					C118.4,134.9,118,134.8,117.5,134.8z"/>
				<path d="M124.8,144.4c0.1,0,0.3,0.1,0.5,0.1c0.2,0.1,0.5,0.1,0.7,0.2c0.3,0.1,0.6,0.1,0.9,0.1c0.3,0,0.7,0.1,1,0.1
					c0.4,0,0.7,0,1-0.1s0.6-0.2,0.9-0.3c0.3-0.1,0.5-0.3,0.6-0.5c0.2-0.2,0.2-0.5,0.2-0.8c0-0.5-0.2-0.8-0.4-1.2
					c-0.3-0.3-0.7-0.6-1.1-0.9c-0.5-0.3-0.9-0.6-1.5-0.9c-0.5-0.3-1-0.6-1.5-1c-0.5-0.4-0.8-0.8-1.1-1.3c-0.3-0.5-0.4-1.1-0.4-1.9
					c0-0.6,0.1-1.2,0.3-1.6c0.2-0.4,0.5-0.8,0.9-1.1c0.4-0.3,0.9-0.5,1.4-0.6c0.5-0.1,1.2-0.2,1.8-0.2c0.1,0,0.4,0,0.6,0
					c0.3,0,0.6,0,0.9,0.1c0.3,0,0.6,0.1,0.9,0.1c0.3,0.1,0.6,0.1,0.8,0.2c0.2,0.1,0.3,0.2,0.3,0.2c0,0.1,0,0.2,0,0.4
					c0,0.3-0.1,0.6-0.2,0.8c-0.1,0.2-0.3,0.3-0.5,0.3c-0.3-0.1-0.7-0.1-1.1-0.2c-0.4-0.1-0.9-0.1-1.4-0.1c-0.8,0-1.4,0.1-1.9,0.3
					c-0.5,0.2-0.7,0.6-0.7,1.1c0,0.4,0.2,0.8,0.4,1.1c0.3,0.3,0.7,0.6,1.1,0.9c0.5,0.3,0.9,0.6,1.5,0.8c0.5,0.3,1,0.6,1.5,1
					c0.5,0.4,0.8,0.9,1.1,1.4c0.3,0.5,0.4,1.2,0.4,2c0,0.7-0.1,1.3-0.4,1.8c-0.3,0.5-0.6,0.8-1.1,1.1c-0.5,0.3-1,0.5-1.6,0.6
					c-0.6,0.1-1.2,0.2-1.8,0.2c-0.3,0-0.6,0-0.9,0c-0.3,0-0.6,0-0.9-0.1c-0.3,0-0.6-0.1-0.9-0.1c-0.3-0.1-0.5-0.1-0.7-0.2
					c-0.2-0.1-0.3-0.1-0.3-0.2c0-0.1,0-0.2,0-0.4c0-0.4,0.1-0.7,0.2-0.9C124.5,144.5,124.7,144.4,124.8,144.4z"/>
				<path d="M137.6,146.3c0,0.2-0.1,0.3-0.2,0.4s-0.3,0.1-0.4,0.1c-0.1,0-0.3,0-0.5,0c-0.2,0-0.4,0-0.6-0.1c-0.2,0-0.3-0.1-0.5-0.1
					c-0.1-0.1-0.2-0.1-0.2-0.2V133c0-0.1,0.1-0.1,0.2-0.2c0.1-0.1,0.3-0.1,0.5-0.1c0.2,0,0.4,0,0.6-0.1c0.2,0,0.3,0,0.5,0
					c0.2,0,0.3,0.1,0.4,0.2c0.1,0.1,0.2,0.2,0.2,0.4V146.3z"/>
				<path d="M145.9,134.9v11.4c0,0.2-0.1,0.3-0.2,0.4c-0.1,0.1-0.3,0.1-0.4,0.1c-0.1,0-0.3,0-0.5,0c-0.2,0-0.4,0-0.6-0.1
					s-0.3-0.1-0.5-0.1c-0.1-0.1-0.2-0.1-0.2-0.2v-11.5h-3.5c-0.1,0-0.3-0.1-0.4-0.2c-0.1-0.1-0.1-0.2-0.1-0.4c0-0.1,0-0.2,0-0.4
					c0-0.2,0-0.3,0.1-0.5c0-0.2,0.1-0.3,0.1-0.4c0.1-0.1,0.1-0.2,0.2-0.2h9.4c0.1,0,0.3,0.1,0.4,0.2c0.1,0.1,0.1,0.2,0.1,0.4
					c0,0.1,0,0.2,0,0.4c0,0.2,0,0.3-0.1,0.5c0,0.2-0.1,0.3-0.1,0.4c-0.1,0.1-0.1,0.2-0.2,0.2H145.9z"/>
				<path d="M158,141.5v4.8c0,0.2-0.1,0.3-0.2,0.4c-0.1,0.1-0.3,0.1-0.4,0.1c-0.1,0-0.3,0-0.4,0c-0.2,0-0.4,0-0.6-0.1
					c-0.2,0-0.3-0.1-0.5-0.1c-0.1-0.1-0.2-0.1-0.2-0.2v-4.9l-4.2-8.1c-0.1-0.3-0.2-0.5-0.1-0.6c0.1-0.1,0.3-0.2,0.6-0.2
					c0.2,0,0.4,0,0.5,0c0.2,0,0.4,0,0.5,0c0.2,0,0.3,0.1,0.4,0.1c0.1,0,0.2,0.1,0.2,0.2l3.1,6.2l3.1-6.2c0-0.1,0.1-0.1,0.2-0.2
					c0.1,0,0.3-0.1,0.4-0.1c0.2,0,0.3,0,0.5,0c0.2,0,0.4,0,0.5,0c0.3,0,0.5,0.1,0.6,0.2c0.1,0.1,0.1,0.3-0.1,0.6L158,141.5z"/>
			</g>
		</g>
	</g>
</g>
</svg>
