<svg enable-background="new 0 0 220.5 220.5" viewBox="0 0 220.5 220.5" xmlns="http://www.w3.org/2000/svg"><path d="m0 0h220.5v220.5h-220.5z" fill="none"/><path d="m25.2 25.2h170.1v170.1h-170.1z" fill="none"/><path d="m110.3 195.3c-46.8 0-85-38.1-85-85 0-22.7 8.8-44.1 24.9-60.2 16-16.1 37.4-24.9 60.1-25 46.9 0 85.1 38.1 85.1 85-.1 47-38.2 85.2-85.1 85.2z" fill="#fff"/><path d="m110.2 27.3c45.7 0 83 37.2 83 82.9s-37.1 83-82.9 83h-.1c-45.7 0-82.9-37.2-82.9-82.9 0-22.2 8.6-43 24.2-58.7 15.7-15.6 36.5-24.2 58.7-24.3m0-2.1c-22.7 0-44.1 8.9-60.1 25s-24.9 37.4-24.9 60.2c0 46.8 38.2 85 85 85h.1c46.9 0 85-38.2 85-85.1 0-47-38.2-85.1-85.1-85.1z"/><path d="m94.9 57.9v21.2c0 8.5 6.9 15.5 15.5 15.5s15.5-6.9 15.5-15.5v-21.2zm2.5 24.8 2-3.4 2 3.4zm6.5 0-3.2-5.6 1.5-2.6 4.7 8.2zm5.5 0-6-10.4 1.5-2.6 7.4 13zm5.5 0-8.8-15.2 1.5-2.5 10.1 17.7zm5.4 0-11.5-19.9 1.5-2.5 12.9 22.4z"/><path d="m64 122.8h2.4c3.9 0 4.4-2.3 4.4-8.3s-.5-8.3-4.4-8.3h-2.4zm3.4-20.9c6.7 0 8.8 3.6 8.8 12.6s-2.1 12.6-8.8 12.6h-8.6v-25.2zm11.5 0h13.6v4.3h-8.3v5.4h7.6v4.4h-7.6v6.7h8.3v4.5h-13.6zm28.2 15.2-2.5-10.4-2.7 10.4zm1.1 4.4h-7.3l-1.3 5.6h-5.3l7.1-25.2h6.7l7 25.2h-5.5zm8.6-19.6h5.3v11l6.6-11h5.5l-7.3 11.6 7.3 13.6h-6.2l-6-12.3v12.3h-5.3v-25.2zm19.6 0h5.1v25.2h-5.1zm13.1 8.7v16.5h-4.6v-25.2h6.3l6.1 15.5v-15.5h4.6v25.2h-5.8z"/><path d="m66.7 141.7v-8.7c0-.1.1-.1.2-.2s.3-.1.5-.1.4-.1.6-.1h.5c.2 0 .3.1.4.2s.2.3.2.4v8.6c0 .9-.1 1.7-.3 2.4-.2.6-.5 1.1-.9 1.5s-1 .7-1.6.8c-.6.2-1.4.2-2.3.2h-.2c-.8 0-1.6-.1-2.2-.2-.6-.2-1.2-.4-1.6-.8s-.7-.9-.9-1.5-.3-1.4-.3-2.4v-8.8c0-.1.1-.1.2-.2s.3-.1.5-.1.4-.1.6-.1h.5c.2 0 .3.1.4.2s.2.3.2.4v8.5c0 .5 0 1 .1 1.4s.2.7.4.9.5.4.8.5c.4.1.8.2 1.3.2h.2c.5 0 1-.1 1.4-.2s.7-.3.9-.5.4-.6.5-.9c-.1-.4-.1-.9-.1-1.4z"/><path d="m80 142.5v-9.6c0-.1.1-.1.2-.2.1 0 .3-.1.5-.1s.4 0 .6-.1h.5c.3 0 .5.2.5.6v13.1c0 .2-.1.3-.2.4s-.3.1-.4.1-.2 0-.4 0-.3 0-.5-.1c-.2 0-.3-.1-.5-.1-.1 0-.2-.1-.3-.2l-6.2-9.6v9.4c0 .2-.1.3-.2.4s-.2.1-.4.1c-.1 0-.3 0-.5 0s-.4 0-.6-.1c-.2 0-.3-.1-.5-.1-.1-.1-.2-.1-.2-.2v-13.2c0-.1.1-.1.2-.2s.3-.1.5-.1.4 0 .6-.1h.5c.1 0 .3 0 .4.1s.2.2.2.3z"/><path d="m87 146.3c0 .2-.1.3-.2.4s-.3.1-.4.1-.3 0-.5 0-.4 0-.6-.1c-.2 0-.3-.1-.5-.1-.1-.1-.2-.1-.2-.2v-13.4c0-.1.1-.1.2-.2s.3-.1.5-.1.4 0 .6-.1h.5c.2 0 .3.1.4.2s.2.2.2.4z"/><path d="m94.4 142.9 2.9-9.9c.2-.2.4-.3.6-.3s.5-.1.8-.1h.4c.1 0 .2 0 .3.1.1 0 .2.1.2.2v.4l-4.4 13.2c0 .1-.1.2-.2.2-.1.1-.2.1-.3.1-.4 0-.8 0-1.1-.1s-.5-.1-.5-.2l-4.4-13.3c0-.1 0-.2 0-.3s.1-.1.2-.2.2-.1.3-.1.2 0 .2 0h.6c.2 0 .4 0 .5.1.2 0 .3.1.4.1.1.1.2.1.2.2l2.9 9.8c.1.2.1.3.1.5s0 .3.1.5c0-.1 0-.3 0-.5.1-.1.1-.3.2-.4z"/><path d="m101.4 146.2v-12.9c0-.2.1-.3.2-.4s.3-.1.4-.1h7.7c.1 0 .3.1.4.2s.1.2.1.4v.4c0 .2 0 .3-.1.5 0 .2-.1.3-.1.4-.1.1-.1.2-.2.2h-6.1v3.7h5.2c.1 0 .2.1.3.2s.1.2.1.4v.4c0 .2 0 .3-.1.5 0 .2-.1.3-.1.4-.1.1-.1.2-.2.2h-5.3v3.9h6c.1 0 .3.1.4.2s.1.2.1.4v.4c0 .2 0 .3-.1.5 0 .2-.1.3-.1.4s-.1.2-.2.2h-7.5c-.2 0-.4 0-.6-.1-.1-.3-.2-.3-.2-.4z"/><path d="m112.6 146.4v-13.1c0-.1.1-.3.2-.4s.3-.1.4-.1h4.2c.9 0 1.6.1 2.2.2s1.1.4 1.5.7.7.7.9 1.3c.2.5.3 1.2.3 2v.4c0 .6 0 1.1-.1 1.6s-.2.8-.4 1.1-.5.6-.8.8-.7.3-1.2.4l2.7 4.6c.1.2.2.4.2.6 0 .1 0 .1-.1.2s-.1.1-.2.1-.2 0-.2 0c-.1 0-.1 0-.2 0s-.3 0-.4 0c-.2 0-.4 0-.5-.1-.2 0-.3-.1-.5-.1-.1-.1-.2-.2-.3-.3l-2.8-4.8h-2.4v4.8c0 .2-.1.3-.2.4s-.2.1-.4.1c-.1 0-.3 0-.5 0s-.4 0-.6-.1c-.2 0-.3-.1-.5-.1-.3-.1-.3-.1-.3-.2zm4.9-11.6h-2.7v4.6h2.7c.5 0 .9 0 1.3-.1.3-.1.6-.2.7-.3.2-.2.3-.4.3-.6.1-.3.1-.6.1-1.1v-.4c0-.4 0-.8-.1-1.1s-.2-.5-.3-.6c-.2-.2-.4-.3-.7-.3-.4 0-.8-.1-1.3-.1z"/><path d="m124.8 144.4c.1 0 .3.1.5.1.2.1.5.1.7.2.3.1.6.1.9.1s.7.1 1 .1c.4 0 .7 0 1-.1s.6-.2.9-.3.5-.3.6-.5c.2-.2.2-.5.2-.8 0-.5-.2-.8-.4-1.2-.3-.3-.7-.6-1.1-.9-.5-.3-.9-.6-1.5-.9-.5-.3-1-.6-1.5-1s-.8-.8-1.1-1.3-.4-1.1-.4-1.9c0-.6.1-1.2.3-1.6s.5-.8.9-1.1.9-.5 1.4-.6 1.2-.2 1.8-.2h.6c.3 0 .6 0 .9.1.3 0 .6.1.9.1.3.1.6.1.8.2s.3.2.3.2v.4c0 .3-.1.6-.2.8s-.3.3-.5.3c-.3-.1-.7-.1-1.1-.2s-.9-.1-1.4-.1c-.8 0-1.4.1-1.9.3s-.7.6-.7 1.1c0 .4.2.8.4 1.1.3.3.7.6 1.1.9.5.3.9.6 1.5.8.5.3 1 .6 1.5 1s.8.9 1.1 1.4.4 1.2.4 2c0 .7-.1 1.3-.4 1.8s-.6.8-1.1 1.1-1 .5-1.6.6-1.2.2-1.8.2c-.3 0-.6 0-.9 0s-.6 0-.9-.1c-.3 0-.6-.1-.9-.1-.3-.1-.5-.1-.7-.2s-.3-.1-.3-.2 0-.2 0-.4c0-.4.1-.7.2-.9.2-.2.4-.3.5-.3z"/><path d="m137.6 146.3c0 .2-.1.3-.2.4s-.3.1-.4.1-.3 0-.5 0-.4 0-.6-.1c-.2 0-.3-.1-.5-.1-.1-.1-.2-.1-.2-.2v-13.4c0-.1.1-.1.2-.2s.3-.1.5-.1.4 0 .6-.1h.5c.2 0 .3.1.4.2s.2.2.2.4z"/><path d="m145.9 134.9v11.4c0 .2-.1.3-.2.4s-.3.1-.4.1-.3 0-.5 0-.4 0-.6-.1-.3-.1-.5-.1c-.1-.1-.2-.1-.2-.2v-11.5h-3.5c-.1 0-.3-.1-.4-.2s-.1-.2-.1-.4c0-.1 0-.2 0-.4s0-.3.1-.5c0-.2.1-.3.1-.4.1-.1.1-.2.2-.2h9.4c.1 0 .3.1.4.2s.1.2.1.4v.4c0 .2 0 .3-.1.5 0 .2-.1.3-.1.4-.1.1-.1.2-.2.2z"/><path d="m158 141.5v4.8c0 .2-.1.3-.2.4s-.3.1-.4.1-.3 0-.4 0c-.2 0-.4 0-.6-.1-.2 0-.3-.1-.5-.1-.1-.1-.2-.1-.2-.2v-4.9l-4.2-8.1c-.1-.3-.2-.5-.1-.6s.3-.2.6-.2h.5.5c.2 0 .3.1.4.1s.2.1.2.2l3.1 6.2 3.1-6.2c0-.1.1-.1.2-.2.1 0 .3-.1.4-.1h.5.5c.3 0 .5.1.6.2s.1.3-.1.6z"/></svg>