<?xml version="1.0" encoding="utf-8"?>
<!-- Generator: Adobe Illustrator 19.2.1, SVG Export Plug-In . SVG Version: 6.00 Build 0)  -->
<svg version="1.1" id="Layer_1" xmlns="http://www.w3.org/2000/svg" xmlns:xlink="http://www.w3.org/1999/xlink" x="0px" y="0px"
	 viewBox="0 0 220.5 220.5" style="enable-background:new 0 0 220.5 220.5;" xml:space="preserve">
<style type="text/css">
	.st0{fill:none;}
	.st1{fill:#FFFFFF;}
</style>
<g>
	<g>
		<rect x="-32.4" y="-32.4" class="st0" width="285.4" height="285.4"/>
		<rect x="0.2" y="0.2" class="st0" width="220.1" height="220.1"/>
	</g>
	<g>
		<g>
			<path class="st1" d="M110,0.2c-29.4,0-57,11.5-77.8,32.3C11.4,53.3,0,81,0,110.4c0.1,60.6,49.4,109.9,110,109.9h0.1
				c60.7-0.1,110-49.5,109.9-110.1C220.1,49.6,170.7,0.2,110,0.2L110,0.2z"/>
		</g>
		<path d="M90,42v27.6c0,11.1,9,20.2,20.2,20.2c11.2,0,20.2-9,20.2-20.2V42H90z M93.3,74.3l2.6-4.4l2.6,4.4H93.3z M101.7,74.3
			L97.5,67l2-3.4l6.1,10.7H101.7z M109,74.3l-7.9-13.5l2-3.4l9.7,16.9H109z M116.2,74.3l-11.5-19.8l1.9-3.3l13.2,23H116.2z
			 M123.2,74.3l-14.9-25.9l2-3.3L127,74.3H123.2z"/>
		<g>
			<g>
				<g>
					<path d="M49.8,126.5h3.1c5.1,0,5.8-3,5.8-10.9c0-7.9-0.6-10.9-5.8-10.9h-3.1V126.5z M54.2,99.3c8.8,0,11.5,4.7,11.5,16.4
						c0,11.8-2.7,16.4-11.5,16.4H42.9V99.3H54.2z M69.2,99.3H87v5.6H76.2v7h10v5.7h-10v8.8H87v5.8H69.2V99.3z M106,119.2l-3.3-13.6
						l-3.5,13.6H106z M107.4,124.9h-9.5l-1.7,7.3h-6.9l9.3-32.9h8.8l9.1,32.9h-7.2L107.4,124.9z M118.5,99.3h6.9v14.3l8.5-14.3h7.2
						l-9.5,15.1l9.5,17.8h-8l-7.8-16v16h-6.9V99.3z M144.1,99.3h6.7v32.9h-6.7V99.3z M161.2,110.7v21.5h-5.9V99.3h8.3l8,20.2V99.3h6
						v32.9h-7.5L161.2,110.7z"/>
				</g>
			</g>
			<g>
				<path d="M53.3,151.2V140c0-0.1,0.1-0.2,0.3-0.3c0.2-0.1,0.4-0.1,0.6-0.2c0.2,0,0.5-0.1,0.7-0.1s0.4,0,0.6,0
					c0.2,0,0.4,0.1,0.5,0.2c0.1,0.2,0.2,0.3,0.2,0.5v11.3c0,1.2-0.1,2.3-0.4,3.1c-0.3,0.8-0.7,1.5-1.2,2c-0.5,0.5-1.2,0.9-2.1,1.1
					c-0.8,0.2-1.8,0.3-3,0.3h-0.2c-1.1,0-2.1-0.1-2.9-0.3c-0.8-0.2-1.5-0.6-2.1-1.1c-0.5-0.5-1-1.2-1.2-2c-0.3-0.8-0.4-1.8-0.4-3.1
					V140c0-0.1,0.1-0.2,0.3-0.3c0.2-0.1,0.4-0.1,0.6-0.2c0.2,0,0.5-0.1,0.7-0.1c0.3,0,0.5,0,0.6,0c0.2,0,0.4,0.1,0.5,0.2
					c0.1,0.2,0.2,0.3,0.2,0.5v11.1c0,0.7,0.1,1.3,0.2,1.8c0.1,0.5,0.3,0.9,0.6,1.2c0.3,0.3,0.6,0.5,1.1,0.7c0.5,0.1,1,0.2,1.7,0.2
					h0.2c0.7,0,1.3-0.1,1.8-0.2c0.5-0.1,0.9-0.4,1.1-0.7c0.3-0.3,0.5-0.7,0.6-1.2C53.3,152.5,53.3,151.9,53.3,151.2z"/>
				<path d="M70.6,152.3v-12.5c0-0.1,0.1-0.2,0.3-0.2c0.2-0.1,0.4-0.1,0.6-0.1c0.2,0,0.5-0.1,0.8-0.1c0.3,0,0.5,0,0.6,0
					c0.4,0,0.6,0.2,0.6,0.7v17.1c0,0.2-0.1,0.4-0.2,0.5c-0.2,0.1-0.3,0.2-0.5,0.2c-0.1,0-0.3,0-0.5,0c-0.2,0-0.4,0-0.7-0.1
					c-0.2,0-0.4-0.1-0.6-0.1c-0.2-0.1-0.3-0.1-0.4-0.2l-8.1-12.5v12.3c0,0.2-0.1,0.4-0.2,0.5c-0.1,0.1-0.3,0.2-0.5,0.2
					c-0.1,0-0.4,0-0.6,0c-0.3,0-0.5,0-0.7-0.1c-0.2,0-0.4-0.1-0.6-0.2c-0.2-0.1-0.3-0.2-0.3-0.3v-17.5c0-0.1,0.1-0.2,0.3-0.3
					c0.2-0.1,0.4-0.1,0.6-0.2c0.2,0,0.5-0.1,0.7-0.1c0.2,0,0.4,0,0.6,0c0.2,0,0.3,0.1,0.5,0.2c0.1,0.1,0.2,0.2,0.3,0.4L70.6,152.3z"
					/>
				<path d="M79.7,157.2c0,0.2-0.1,0.4-0.2,0.5c-0.1,0.1-0.3,0.2-0.5,0.2c-0.1,0-0.3,0-0.6,0c-0.3,0-0.5,0-0.7-0.1
					c-0.2,0-0.4-0.1-0.6-0.2c-0.2-0.1-0.3-0.2-0.3-0.3v-17.5c0-0.1,0.1-0.2,0.3-0.3c0.2-0.1,0.4-0.1,0.6-0.2c0.2,0,0.5-0.1,0.7-0.1
					c0.2,0,0.4,0,0.6,0c0.2,0,0.4,0.1,0.5,0.2c0.1,0.1,0.2,0.3,0.2,0.5V157.2z"/>
				<path d="M89.3,152.8l3.8-12.9c0.2-0.2,0.5-0.4,0.8-0.4c0.3-0.1,0.7-0.1,1.1-0.1c0.2,0,0.3,0,0.5,0c0.2,0,0.3,0.1,0.4,0.1
					c0.1,0.1,0.2,0.1,0.3,0.2c0.1,0.1,0.1,0.3,0,0.5l-5.8,17.3c0,0.1-0.1,0.2-0.3,0.3c-0.1,0.1-0.3,0.1-0.4,0.1c-0.5,0-1,0-1.4-0.1
					c-0.4-0.1-0.6-0.2-0.7-0.3l-5.8-17.3c0-0.2,0-0.3,0-0.4c0-0.1,0.1-0.2,0.2-0.3c0.1-0.1,0.2-0.1,0.3-0.1c0.1,0,0.2,0,0.3,0
					c0.2,0,0.5,0,0.8,0c0.3,0,0.5,0,0.7,0.1c0.2,0,0.4,0.1,0.5,0.2c0.1,0.1,0.2,0.2,0.3,0.3l3.8,12.8c0.1,0.2,0.1,0.4,0.1,0.6
					c0,0.2,0.1,0.4,0.1,0.6c0-0.2,0-0.4,0.1-0.6C89.2,153.2,89.3,153,89.3,152.8z"/>
				<path d="M98.5,157.1v-16.8c0-0.2,0.1-0.4,0.2-0.5c0.1-0.1,0.3-0.2,0.5-0.2h10c0.2,0,0.3,0.1,0.5,0.2c0.1,0.2,0.2,0.3,0.2,0.5
					c0,0.1,0,0.3,0,0.5c0,0.2,0,0.4-0.1,0.6c0,0.2-0.1,0.4-0.1,0.5c-0.1,0.1-0.1,0.2-0.2,0.2h-7.9v4.8h6.8c0.2,0,0.3,0.1,0.4,0.2
					c0.1,0.1,0.2,0.3,0.2,0.5c0,0.1,0,0.3,0,0.5c0,0.2,0,0.4-0.1,0.7c0,0.2-0.1,0.4-0.1,0.5c-0.1,0.1-0.1,0.2-0.2,0.2h-7v5.1h7.8
					c0.2,0,0.3,0.1,0.5,0.2c0.1,0.1,0.2,0.3,0.2,0.5c0,0.1,0,0.3,0,0.5c0,0.2,0,0.4-0.1,0.6c0,0.2-0.1,0.4-0.1,0.5
					c-0.1,0.1-0.1,0.2-0.2,0.2h-9.8c-0.2,0-0.5-0.1-0.7-0.2C98.6,157.3,98.5,157.2,98.5,157.1z"/>
				<path d="M113.1,157.3v-17.1c0-0.2,0.1-0.3,0.2-0.5c0.1-0.1,0.3-0.2,0.5-0.2h5.5c1.1,0,2.1,0.1,2.9,0.2c0.8,0.2,1.5,0.5,2,0.9
					c0.5,0.4,0.9,1,1.1,1.7c0.2,0.7,0.3,1.6,0.3,2.6v0.5c0,0.8-0.1,1.5-0.2,2c-0.1,0.6-0.3,1.1-0.6,1.5c-0.3,0.4-0.6,0.7-1.1,1
					c-0.4,0.3-1,0.4-1.6,0.6l3.5,6c0.2,0.3,0.3,0.6,0.3,0.7c0,0.1,0,0.2-0.1,0.2s-0.2,0.1-0.3,0.1c-0.1,0-0.2,0.1-0.3,0.1
					c-0.1,0-0.2,0-0.2,0c-0.1,0-0.3,0-0.6,0c-0.2,0-0.5,0-0.7-0.1c-0.2,0-0.5-0.1-0.6-0.2c-0.2-0.1-0.3-0.2-0.4-0.3l-3.7-6.3h-3.1
					v6.3c0,0.2-0.1,0.4-0.2,0.5c-0.1,0.1-0.3,0.2-0.5,0.2c-0.1,0-0.3,0-0.6,0c-0.3,0-0.5,0-0.7-0.1c-0.2,0-0.4-0.1-0.6-0.2
					C113.2,157.5,113.1,157.4,113.1,157.3z M119.5,142.3h-3.5v6h3.5c0.7,0,1.2,0,1.6-0.1c0.4-0.1,0.7-0.2,0.9-0.4
					c0.2-0.2,0.4-0.5,0.4-0.8s0.1-0.8,0.1-1.4V145c0-0.6,0-1-0.1-1.4c-0.1-0.4-0.2-0.6-0.4-0.8c-0.2-0.2-0.5-0.3-0.9-0.4
					C120.7,142.3,120.2,142.3,119.5,142.3z"/>
				<path d="M129.1,154.8c0.1,0,0.3,0.1,0.6,0.1c0.3,0.1,0.6,0.1,0.9,0.2s0.7,0.1,1.2,0.2c0.4,0,0.9,0.1,1.3,0.1
					c0.5,0,0.9,0,1.3-0.1s0.8-0.2,1.1-0.4c0.3-0.2,0.6-0.4,0.8-0.7c0.2-0.3,0.3-0.7,0.3-1.1c0-0.6-0.2-1.1-0.6-1.5
					c-0.4-0.4-0.9-0.8-1.5-1.2c-0.6-0.4-1.2-0.7-1.9-1.1c-0.7-0.4-1.3-0.8-1.9-1.3c-0.6-0.5-1.1-1.1-1.5-1.7
					c-0.4-0.7-0.6-1.5-0.6-2.5c0-0.8,0.1-1.5,0.4-2.1c0.3-0.6,0.7-1,1.2-1.4c0.5-0.4,1.1-0.6,1.8-0.8c0.7-0.2,1.5-0.2,2.4-0.2
					c0.2,0,0.5,0,0.8,0c0.4,0,0.8,0,1.2,0.1c0.4,0,0.8,0.1,1.2,0.2c0.4,0.1,0.7,0.2,1,0.3c0.2,0.1,0.4,0.2,0.4,0.3
					c0,0.1,0.1,0.3,0,0.6c0,0.4-0.1,0.8-0.3,1.1c-0.1,0.3-0.4,0.4-0.6,0.4c-0.4-0.1-0.9-0.2-1.4-0.3c-0.5-0.1-1.1-0.1-1.8-0.1
					c-1,0-1.9,0.2-2.5,0.4c-0.6,0.3-1,0.8-1,1.5c0,0.5,0.2,1,0.6,1.4c0.4,0.4,0.9,0.8,1.5,1.1c0.6,0.4,1.2,0.7,1.9,1.1
					c0.7,0.4,1.3,0.8,1.9,1.3c0.6,0.5,1.1,1.1,1.5,1.8c0.4,0.7,0.6,1.6,0.6,2.6c0,0.9-0.2,1.7-0.5,2.3c-0.4,0.6-0.8,1.1-1.4,1.4
					c-0.6,0.3-1.3,0.6-2,0.7c-0.8,0.1-1.6,0.2-2.4,0.2c-0.4,0-0.8,0-1.2,0c-0.4,0-0.8-0.1-1.2-0.1c-0.4,0-0.8-0.1-1.1-0.2
					c-0.4-0.1-0.7-0.1-0.9-0.2c-0.3-0.1-0.4-0.2-0.4-0.3s-0.1-0.3,0-0.6c0-0.5,0.1-0.9,0.3-1.2C128.6,154.9,128.8,154.8,129.1,154.8
					z"/>
				<path d="M145.8,157.2c0,0.2-0.1,0.4-0.2,0.5c-0.1,0.1-0.3,0.2-0.5,0.2c-0.1,0-0.3,0-0.6,0c-0.3,0-0.5,0-0.7-0.1
					c-0.2,0-0.4-0.1-0.6-0.2c-0.2-0.1-0.3-0.2-0.3-0.3v-17.5c0-0.1,0.1-0.2,0.3-0.3c0.2-0.1,0.4-0.1,0.6-0.2c0.2,0,0.5-0.1,0.7-0.1
					c0.2,0,0.4,0,0.6,0c0.2,0,0.4,0.1,0.5,0.2c0.1,0.1,0.2,0.3,0.2,0.5V157.2z"/>
				<path d="M156.5,142.3v14.9c0,0.2-0.1,0.4-0.2,0.5c-0.2,0.1-0.3,0.2-0.5,0.2c-0.1,0-0.4,0-0.6,0c-0.3,0-0.5,0-0.7-0.1
					c-0.2,0-0.4-0.1-0.6-0.2c-0.2-0.1-0.3-0.2-0.3-0.3v-15h-4.6c-0.2,0-0.3-0.1-0.5-0.2c-0.1-0.1-0.2-0.3-0.2-0.5c0-0.1,0-0.3,0-0.5
					c0-0.2,0-0.4,0.1-0.6c0-0.2,0.1-0.4,0.1-0.5c0.1-0.1,0.1-0.2,0.2-0.2H161c0.2,0,0.3,0.1,0.5,0.2c0.1,0.1,0.2,0.3,0.2,0.5
					c0,0.1,0,0.3,0,0.5c0,0.2,0,0.4-0.1,0.6c0,0.2-0.1,0.4-0.1,0.5c-0.1,0.1-0.1,0.2-0.2,0.2H156.5z"/>
				<path d="M172.3,151v6.2c0,0.2-0.1,0.4-0.2,0.5c-0.1,0.1-0.3,0.2-0.5,0.2c-0.1,0-0.3,0-0.6,0c-0.2,0-0.5,0-0.7-0.1
					c-0.2,0-0.4-0.1-0.6-0.2c-0.2-0.1-0.3-0.2-0.3-0.3V151l-5.4-10.6c-0.2-0.4-0.2-0.6-0.1-0.8c0.1-0.2,0.4-0.2,0.8-0.2
					c0.2,0,0.5,0,0.7,0c0.2,0,0.5,0,0.7,0.1c0.2,0,0.4,0.1,0.5,0.1c0.1,0,0.2,0.1,0.3,0.2l4,8.1l4-8.1c0-0.1,0.1-0.2,0.3-0.2
					c0.1-0.1,0.3-0.1,0.5-0.1c0.2,0,0.4-0.1,0.7-0.1c0.2,0,0.5,0,0.7,0c0.4,0,0.6,0.1,0.8,0.2c0.1,0.2,0.1,0.4-0.1,0.8L172.3,151z"
					/>
			</g>
		</g>
	</g>
</g>
</svg>
