<svg enable-background="new 0 0 220.5 220.5" viewBox="0 0 220.5 220.5" xmlns="http://www.w3.org/2000/svg"><path d="m-32.4-32.4h285.4v285.4h-285.4z" fill="none"/><path d="m.2.2h220.1v220.1h-220.1z" fill="none"/><path d="m110 .2c-29.4 0-57 11.5-77.8 32.3s-32.2 48.5-32.2 77.9c.1 60.6 49.4 109.9 110 109.9h.1c60.7-.1 110-49.5 109.9-110.1.1-60.6-49.3-110-110-110z" fill="#fff"/><path d="m90 42v27.6c0 11.1 9 20.2 20.2 20.2s20.2-9 20.2-20.2v-27.6zm3.3 32.3 2.6-4.4 2.6 4.4zm8.4 0-4.2-7.3 2-3.4 6.1 10.7zm7.3 0-7.9-13.5 2-3.4 9.7 16.9zm7.2 0-11.5-19.8 1.9-3.3 13.2 23h-3.6zm7 0-14.9-25.9 2-3.3 16.7 29.2z"/><path d="m49.8 126.5h3.1c5.1 0 5.8-3 5.8-10.9s-.6-10.9-5.8-10.9h-3.1zm4.4-27.2c8.8 0 11.5 4.7 11.5 16.4 0 11.8-2.7 16.4-11.5 16.4h-11.3v-32.8zm15 0h17.8v5.6h-10.8v7h10v5.7h-10v8.8h10.8v5.8h-17.8zm36.8 19.9-3.3-13.6-3.5 13.6zm1.4 5.7h-9.5l-1.7 7.3h-6.9l9.3-32.9h8.8l9.1 32.9h-7.2zm11.1-25.6h6.9v14.3l8.5-14.3h7.2l-9.5 15.1 9.5 17.8h-8l-7.8-16v16h-6.9v-32.9zm25.6 0h6.7v32.9h-6.7zm17.1 11.4v21.5h-5.9v-32.9h8.3l8 20.2v-20.2h6v32.9h-7.5z"/><path d="m53.3 151.2v-11.2c0-.1.1-.2.3-.3s.4-.1.6-.2c.2 0 .5-.1.7-.1s.4 0 .6 0 .4.1.5.2c.1.2.2.3.2.5v11.3c0 1.2-.1 2.3-.4 3.1s-.7 1.5-1.2 2-1.2.9-2.1 1.1c-.8.2-1.8.3-3 .3h-.2c-1.1 0-2.1-.1-2.9-.3s-1.5-.6-2.1-1.1c-.5-.5-1-1.2-1.2-2-.3-.8-.4-1.8-.4-3.1v-11.4c0-.1.1-.2.3-.3s.4-.1.6-.2c.2 0 .5-.1.7-.1h.6c.2 0 .4.1.5.2.1.2.2.3.2.5v11.1c0 .7.1 1.3.2 1.8s.3.9.6 1.2.6.5 1.1.7c.5.1 1 .2 1.7.2h.2c.7 0 1.3-.1 1.8-.2s.9-.4 1.1-.7c.3-.3.5-.7.6-1.2.4-.5.4-1.1.4-1.8z"/><path d="m70.6 152.3v-12.5c0-.1.1-.2.3-.2.2-.1.4-.1.6-.1s.5-.1.8-.1h.6c.4 0 .6.2.6.7v17.1c0 .2-.1.4-.2.5-.2.1-.3.2-.5.2-.1 0-.3 0-.5 0s-.4 0-.7-.1c-.2 0-.4-.1-.6-.1-.2-.1-.3-.1-.4-.2l-8.1-12.5v12.3c0 .2-.1.4-.2.5s-.3.2-.5.2c-.1 0-.4 0-.6 0-.3 0-.5 0-.7-.1-.2 0-.4-.1-.6-.2s-.3-.2-.3-.3v-17.5c0-.1.1-.2.3-.3s.4-.1.6-.2c.2 0 .5-.1.7-.1h.6c.2 0 .3.1.5.2.1.1.2.2.3.4z"/><path d="m79.7 157.2c0 .2-.1.4-.2.5s-.3.2-.5.2c-.1 0-.3 0-.6 0s-.5 0-.7-.1c-.2 0-.4-.1-.6-.2s-.3-.2-.3-.3v-17.5c0-.1.1-.2.3-.3s.4-.1.6-.2c.2 0 .5-.1.7-.1h.6c.2 0 .4.1.5.2s.2.3.2.5z"/><path d="m89.3 152.8 3.8-12.9c.2-.2.5-.4.8-.4.3-.1.7-.1 1.1-.1h.5c.2 0 .3.1.4.1.1.1.2.1.3.2s.1.3 0 .5l-5.8 17.3c0 .1-.1.2-.3.3-.1.1-.3.1-.4.1-.5 0-1 0-1.4-.1s-.6-.2-.7-.3l-5.8-17.3c0-.2 0-.3 0-.4s.1-.2.2-.3.2-.1.3-.1h.3.8c.3 0 .5 0 .7.1.2 0 .4.1.5.2s.2.2.3.3l3.8 12.8c.1.2.1.4.1.6s.1.4.1.6c0-.2 0-.4.1-.6.2-.2.3-.4.3-.6z"/><path d="m98.5 157.1v-16.8c0-.2.1-.4.2-.5s.3-.2.5-.2h10c.2 0 .3.1.5.2.1.2.2.3.2.5v.5c0 .2 0 .4-.1.6 0 .2-.1.4-.1.5-.1.1-.1.2-.2.2h-7.9v4.8h6.8c.2 0 .3.1.4.2s.2.3.2.5v.5c0 .2 0 .4-.1.7 0 .2-.1.4-.1.5-.1.1-.1.2-.2.2h-7v5.1h7.8c.2 0 .3.1.5.2.1.1.2.3.2.5v.5c0 .2 0 .4-.1.6 0 .2-.1.4-.1.5-.1.1-.1.2-.2.2h-9.8c-.2 0-.5-.1-.7-.2-.6.4-.7.3-.7.2z"/><path d="m113.1 157.3v-17.1c0-.2.1-.3.2-.5.1-.1.3-.2.5-.2h5.5c1.1 0 2.1.1 2.9.2.8.2 1.5.5 2 .9s.9 1 1.1 1.7.3 1.6.3 2.6v.5c0 .8-.1 1.5-.2 2-.1.6-.3 1.1-.6 1.5s-.6.7-1.1 1c-.4.3-1 .4-1.6.6l3.5 6c.2.3.3.6.3.7s0 .2-.1.2-.2.1-.3.1-.2.1-.3.1-.2 0-.2 0c-.1 0-.3 0-.6 0-.2 0-.5 0-.7-.1-.2 0-.5-.1-.6-.2-.2-.1-.3-.2-.4-.3l-3.7-6.3h-3.1v6.3c0 .2-.1.4-.2.5s-.3.2-.5.2c-.1 0-.3 0-.6 0s-.5 0-.7-.1c-.2 0-.4-.1-.6-.2-.1.1-.2 0-.2-.1zm6.4-15h-3.5v6h3.5c.7 0 1.2 0 1.6-.1s.7-.2.9-.4.4-.5.4-.8.1-.8.1-1.4v-.6c0-.6 0-1-.1-1.4s-.2-.6-.4-.8-.5-.3-.9-.4-.9-.1-1.6-.1z"/><path d="m129.1 154.8c.1 0 .3.1.6.1.3.1.6.1.9.2s.7.1 1.2.2c.4 0 .9.1 1.3.1.5 0 .9 0 1.3-.1s.8-.2 1.1-.4.6-.4.8-.7.3-.7.3-1.1c0-.6-.2-1.1-.6-1.5s-.9-.8-1.5-1.2-1.2-.7-1.9-1.1-1.3-.8-1.9-1.3-1.1-1.1-1.5-1.7c-.4-.7-.6-1.5-.6-2.5 0-.8.1-1.5.4-2.1s.7-1 1.2-1.4 1.1-.6 1.8-.8 1.5-.2 2.4-.2h.8c.4 0 .8 0 1.2.1.4 0 .8.1 1.2.2s.7.2 1 .3c.2.1.4.2.4.3s.1.3 0 .6c0 .4-.1.8-.3 1.1-.1.3-.4.4-.6.4-.4-.1-.9-.2-1.4-.3s-1.1-.1-1.8-.1c-1 0-1.9.2-2.5.4-.6.3-1 .8-1 1.5 0 .5.2 1 .6 1.4s.9.8 1.5 1.1c.6.4 1.2.7 1.9 1.1s1.3.8 1.9 1.3 1.1 1.1 1.5 1.8.6 1.6.6 2.6c0 .9-.2 1.7-.5 2.3-.4.6-.8 1.1-1.4 1.4s-1.3.6-2 .7c-.8.1-1.6.2-2.4.2-.4 0-.8 0-1.2 0s-.8-.1-1.2-.1-.8-.1-1.1-.2c-.4-.1-.7-.1-.9-.2-.3-.1-.4-.2-.4-.3s-.1-.3 0-.6c0-.5.1-.9.3-1.2 0-.2.2-.3.5-.3z"/><path d="m145.8 157.2c0 .2-.1.4-.2.5s-.3.2-.5.2c-.1 0-.3 0-.6 0s-.5 0-.7-.1c-.2 0-.4-.1-.6-.2s-.3-.2-.3-.3v-17.5c0-.1.1-.2.3-.3s.4-.1.6-.2c.2 0 .5-.1.7-.1h.6c.2 0 .4.1.5.2s.2.3.2.5z"/><path d="m156.5 142.3v14.9c0 .2-.1.4-.2.5-.2.1-.3.2-.5.2-.1 0-.4 0-.6 0-.3 0-.5 0-.7-.1-.2 0-.4-.1-.6-.2s-.3-.2-.3-.3v-15h-4.6c-.2 0-.3-.1-.5-.2-.1-.1-.2-.3-.2-.5 0-.1 0-.3 0-.5s0-.4.1-.6c0-.2.1-.4.1-.5.1-.1.1-.2.2-.2h12.3c.2 0 .3.1.5.2.1.1.2.3.2.5v.5c0 .2 0 .4-.1.6 0 .2-.1.4-.1.5-.1.1-.1.2-.2.2z"/><path d="m172.3 151v6.2c0 .2-.1.4-.2.5s-.3.2-.5.2c-.1 0-.3 0-.6 0-.2 0-.5 0-.7-.1-.2 0-.4-.1-.6-.2s-.3-.2-.3-.3v-6.3l-5.4-10.6c-.2-.4-.2-.6-.1-.8s.4-.2.8-.2h.7c.2 0 .5 0 .7.1.2 0 .4.1.5.1s.2.1.3.2l4 8.1 4-8.1c0-.1.1-.2.3-.2.1-.1.3-.1.5-.1s.4-.1.7-.1h.7c.4 0 .6.1.8.2.1.2.1.4-.1.8z"/></svg>