<?xml version="1.0" encoding="UTF-8"?>
<!DOCTYPE svg PUBLIC "-//W3C//DTD SVG 1.1//EN" "http://www.w3.org/Graphics/SVG/1.1/DTD/svg11.dtd">
<!-- Creator: CorelDRAW X6 -->
<svg xmlns="http://www.w3.org/2000/svg" xml:space="preserve" width="4.98611in" height="3in" version="1.1" style="shape-rendering:geometricPrecision; text-rendering:geometricPrecision; image-rendering:optimizeQuality; fill-rule:evenodd; clip-rule:evenodd"
viewBox="0 0 4986 3000"
 xmlns:xlink="http://www.w3.org/1999/xlink">
 <defs>
  <style type="text/css">
   <![CDATA[
    .fil0 {fill:#1C5083;fill-rule:nonzero}
    .fil1 {fill:#FEFEFE;fill-rule:nonzero}
   ]]>
  </style>
 </defs>
 <g id="Layer_x0020_1">
  <metadata id="CorelCorpID_0Corel-Layer"/>
  <path class="fil0" d="M2500 493c-1110,0 -2000,333 -2000,750 0,415 897,750 2000,750 1103,0 2000,-336 2000,-750 0,-414 -897,-750 -2000,-750z"/>
  <path class="fil1" d="M3288 1402c1,3 5,7 9,8 2,1 2,2 1,5 -12,27 -24,42 -40,65 -14,21 -31,38 -50,54 -30,24 -71,51 -104,33 -15,-8 -22,-29 -21,-46 1,-48 22,-97 61,-146 48,-59 101,-90 136,-73 36,17 25,59 8,92 -1,3 -1,5 -1,7zm387 -374c3,-5 0,-8 -6,-8 -30,0 -70,0 -101,0 -7,0 -11,1 -15,8 -12,22 -153,234 -179,275 -4,6 -10,5 -10,-2 -3,-24 -24,-52 -57,-66 -25,-10 -50,-12 -76,-9 -46,6 -88,31 -124,58 -55,42 -102,96 -163,136 -33,22 -79,41 -110,12 -28,-26 -25,-83 18,-127 4,-5 10,-1 9,3 -4,20 1,40 16,54 18,17 45,18 68,7 27,-13 42,-39 47,-68 7,-45 -28,-85 -71,-88 -35,-2 -69,10 -102,37 -16,14 -26,24 -40,44 -3,5 -9,6 -9,-2 2,-58 -22,-90 -70,-91 -37,-1 -76,19 -107,44 -34,27 -63,63 -95,97 -4,4 -7,4 -8,-4 -1,-38 -11,-75 -28,-101 -6,-9 -19,-14 -30,-7 -5,3 -23,11 -36,21 -6,5 -9,13 -6,23 17,57 13,122 -10,176 -21,50 -62,95 -111,111 -32,10 -65,5 -86,-23 -28,-39 -17,-107 25,-163 37,-50 91,-81 144,-102 6,-2 8,-6 6,-12 -3,-9 -8,-21 -9,-26 -5,-13 -19,-15 -35,-13 -39,5 -74,18 -109,36 -91,49 -136,143 -156,193 -10,24 -18,39 -28,53 -14,18 -32,34 -65,63 -3,3 -5,8 -3,13 3,7 20,31 25,33 5,3 12,-1 14,-3 23,-16 50,-40 64,-57 5,-6 10,-3 12,5 13,45 45,81 91,97 83,28 170,-13 235,-83 41,-45 56,-74 72,-94 27,-33 80,-108 143,-156 23,-18 51,-31 64,-22 11,7 15,24 -3,56 -64,118 -159,256 -177,289 -3,6 0,10 6,10 34,0 67,0 98,0 5,0 7,-3 10,-6 49,-77 96,-151 146,-227 3,-4 5,-1 5,1 1,18 5,42 16,58 19,29 46,42 75,42 24,0 36,-3 61,-13 21,-8 37,-18 50,-27 7,-5 9,3 9,5 -11,61 3,134 64,164 73,36 153,-15 200,-60 5,-4 9,-4 10,6 1,17 9,38 23,53 39,39 117,23 195,-37 50,-39 103,-94 151,-152 2,-2 3,-6 0,-10 -7,-8 -18,-16 -25,-23 -3,-3 -8,-2 -11,0 -49,46 -93,99 -156,143 -21,15 -56,27 -71,6 -6,-8 -5,-19 1,-34 19,-46 311,-492 327,-518z"/>
  <path class="fil1" d="M2297 1082c1,7 4,8 7,7 15,-3 31,-15 41,-29 9,-13 13,-32 4,-39 -8,-7 -21,-5 -30,4 -19,17 -24,40 -22,58l0 0zm-747 574c-109,1 -205,-67 -216,-184 -6,-65 12,-122 49,-170 33,-42 88,-78 134,-86 15,-3 36,-1 44,9 13,15 9,32 -4,39 -36,18 -78,49 -99,92 -17,35 -21,76 6,116 44,66 166,68 280,-38 28,-26 53,-51 79,-80 50,-57 67,-78 133,-170 1,-1 1,-2 1,-3 -1,-1 -1,-2 -3,-2 -44,1 -83,14 -121,43 -11,8 -26,7 -33,-4 -8,-12 -2,-27 10,-36 61,-42 127,-50 194,-61 0,0 5,0 9,-5 28,-36 49,-68 78,-104 30,-37 68,-70 98,-95 41,-35 67,-47 94,-62 7,-4 -1,-8 -3,-8 -149,-28 -305,-64 -453,-9 -103,38 -148,120 -126,174 15,39 66,45 114,22 40,-19 76,-51 102,-91 15,-22 45,-6 29,33 -43,102 -126,183 -227,186 -86,3 -141,-60 -141,-138 0,-154 172,-255 352,-270 217,-18 422,40 637,66 165,20 323,20 489,-18 20,-4 33,8 32,28 -2,29 -24,56 -78,86 -62,34 -127,44 -195,45 -164,1 -317,-63 -475,-97 0,7 2,15 -4,20 -88,65 -167,130 -220,222 -2,2 -1,4 2,4 46,-2 87,-4 130,-7 8,-1 8,-2 7,-8 -4,-32 5,-68 33,-93 29,-26 64,-29 88,-10 27,21 25,59 10,87 -15,29 -40,44 -64,52 0,0 -5,1 -4,6 1,7 33,25 36,30 3,5 1,12 -4,17 -3,4 -9,8 -16,8 -6,0 -9,-2 -16,-6 -15,-8 -33,-21 -45,-36 -4,-5 -6,-5 -17,-5 -47,3 -119,10 -168,16 -12,1 -14,4 -16,8 -78,129 -162,269 -254,362 -99,100 -180,126 -267,127z"/>
  <path class="fil1" d="M2500 616c-1021,0 -1849,282 -1849,628 0,345 828,628 1849,628 1021,0 1849,-282 1849,-628 0,-345 -828,-628 -1849,-628zm0 1312c-1059,0 -1917,-306 -1917,-685 0,-378 858,-685 1917,-685 1058,0 1916,306 1916,685 0,378 -858,685 -1916,685z"/>
  <path class="fil0" d="M726 2743c0,-181 94,-257 263,-257 101,0 162,30 202,71l-75 76c-26,-24 -59,-46 -127,-46 -109,0 -152,54 -152,158 0,109 30,163 150,163 97,0 125,-32 125,-102l0 -11 -139 0 0 -92 249 0 0 82c0,142 -57,216 -240,216 -199,0 -255,-92 -255,-257z"/>
  <path class="fil0" d="M1555 2804c0,-65 -20,-105 -93,-105 -73,0 -93,40 -93,105 0,65 20,106 93,106 73,0 93,-41 93,-106zm-292 -3c0,-128 56,-199 199,-199 143,0 199,71 199,199 0,128 -55,199 -199,199 -143,0 -199,-71 -199,-199z"/>
  <polygon class="fil0" points="1850,2494 2213,2494 2213,2593 1960,2593 1960,2700 2206,2700 2206,2799 1960,2799 1960,2993 1850,2993 "/>
  <path class="fil0" d="M2267 2815l0 -203 106 0 0 205c0,53 1,90 77,90 75,0 76,-38 76,-91l0 -205 104 0 0 203c0,131 -35,185 -181,185 -145,0 -182,-53 -182,-184z"/>
  <path class="fil0" d="M2677 2617l82 -6 11 42c16,-24 63,-44 122,-46l0 101c-90,1 -109,36 -109,96l0 189 -106 0 0 -375z"/>
  <path class="fil0" d="M2918 2611l67 0 18 -93 82 -17 0 110 90 0 0 90 -90 0 0 157c0,30 4,46 49,46l41 0 0 88c-16,1 -44,1 -63,1 -103,0 -133,-35 -133,-120l0 -172 -63 0 0 -90z"/>
  <path class="fil0" d="M3224 2470l105 0 0 167c16,-17 52,-34 124,-34 115,0 137,64 137,159l0 231 -105 0 0 -210c0,-46 -5,-80 -69,-80 -73,0 -86,34 -86,85l0 205 -106 0 0 -523z"/>
  <path class="fil0" d="M3738 2766l169 0c-3,-44 -11,-75 -77,-75 -65,0 -87,29 -92,75zm-102 35c0,-106 35,-199 198,-199 168,0 173,112 170,239l-265 0c6,46 28,73 96,73 59,0 92,-14 120,-35l53 69c-49,37 -98,52 -173,52 -165,0 -199,-90 -199,-199z"/>
  <path class="fil0" d="M4053 2617l82 -6 11 42c16,-24 63,-44 122,-46l0 101c-90,1 -109,36 -109,96l0 189 -106 0 0 -375z"/>
 </g>
</svg>
