<?xml version="1.0" encoding="UTF-8"?>
<!DOCTYPE svg PUBLIC "-//W3C//DTD SVG 1.1//EN" "http://www.w3.org/Graphics/SVG/1.1/DTD/svg11.dtd">
<!-- Creator: CorelDRAW X6 -->
<svg xmlns="http://www.w3.org/2000/svg" xml:space="preserve" width="4.98611in" height="3in" version="1.1" style="shape-rendering:geometricPrecision; text-rendering:geometricPrecision; image-rendering:optimizeQuality; fill-rule:evenodd; clip-rule:evenodd"
viewBox="0 0 4986 3000"
 xmlns:xlink="http://www.w3.org/1999/xlink">
 <defs>
  <style type="text/css">
   <![CDATA[
    .fil0 {fill:#FEFEFE;fill-rule:nonzero}
   ]]>
  </style>
 </defs>
 <g id="Layer_x0020_1">
  <metadata id="CorelCorpID_0Corel-Layer"/>
  <path class="fil0" d="M2304 1089c15,-3 31,-15 41,-29 9,-13 13,-32 4,-39 -8,-7 -21,-5 -30,4 -19,17 -24,40 -22,58 1,7 4,8 7,7z"/>
  <path class="fil0" d="M3280 1303c-35,-17 -88,14 -136,73 -39,48 -61,98 -61,146 0,17 6,38 21,46 34,18 75,-9 104,-33 20,-16 36,-33 50,-54 16,-23 27,-39 40,-65 2,-4 1,-5 -1,-5 -4,-2 -9,-5 -9,-8 -1,-2 -1,-4 1,-7 16,-33 28,-75 -8,-92z"/>
  <path class="fil0" d="M2500 1928c-1059,0 -1917,-306 -1917,-685 0,-378 858,-685 1917,-685 1058,0 1916,306 1916,685 0,378 -858,685 -1916,685zm0 -1435c-1110,0 -2000,333 -2000,750 0,415 897,750 2000,750 1103,0 2000,-336 2000,-750 0,-414 -897,-750 -2000,-750z"/>
  <path class="fil0" d="M3675 1028c-15,26 -308,472 -327,518 -6,15 -7,26 -1,34 15,21 49,9 71,-6 63,-44 107,-97 156,-143 3,-2 8,-3 11,0 7,7 18,15 25,23 3,4 2,7 0,10 -48,58 -100,113 -151,152 -78,61 -157,76 -195,37 -14,-14 -22,-35 -23,-53 0,-10 -5,-10 -10,-6 -46,46 -127,96 -200,60 -61,-30 -75,-103 -64,-164 0,-1 -1,-10 -9,-5 -13,9 -29,19 -50,27 -25,10 -37,13 -61,13 -30,0 -56,-13 -75,-42 -11,-16 -15,-40 -16,-58 0,-2 -3,-5 -5,-1 -50,76 -96,150 -146,227 -3,4 -5,6 -10,6 -31,0 -64,0 -98,0 -6,0 -9,-5 -6,-10 17,-34 112,-172 177,-289 18,-32 14,-49 3,-56 -14,-9 -41,5 -64,22 -63,48 -116,122 -143,156 -16,20 -31,49 -72,94 -65,71 -152,111 -235,83 -45,-15 -78,-52 -91,-97 -3,-9 -7,-11 -12,-5 -13,17 -41,41 -64,57 -2,2 -9,5 -14,3 -5,-2 -22,-26 -25,-33 -3,-5 0,-11 3,-13 33,-29 51,-45 65,-63 11,-13 19,-28 28,-53 20,-50 65,-144 156,-193 35,-19 70,-32 109,-36 17,-2 31,0 35,13 2,5 7,17 9,26 2,5 0,9 -6,12 -54,20 -107,52 -144,102 -42,56 -53,124 -25,163 21,28 54,33 86,23 48,-15 90,-60 111,-111 23,-55 27,-119 10,-176 -3,-10 0,-17 6,-23 13,-10 31,-19 36,-21 11,-6 24,-2 30,7 18,26 27,63 28,101 1,8 5,8 8,4 32,-34 61,-70 95,-97 31,-25 70,-45 107,-44 48,1 71,33 70,91 0,7 5,7 9,2 14,-20 24,-30 40,-44 33,-27 67,-39 102,-37 43,3 78,43 71,88 -5,29 -20,55 -47,68 -23,11 -49,9 -68,-7 -15,-14 -20,-34 -16,-54 1,-4 -5,-8 -9,-3 -42,44 -45,101 -18,127 31,28 76,9 110,-12 61,-40 108,-94 163,-136 36,-28 78,-52 124,-58 26,-3 50,-2 76,9 33,13 54,41 57,66 1,7 6,8 10,2 26,-41 168,-253 179,-275 4,-7 7,-8 15,-8 31,0 71,0 101,0 6,0 9,3 6,8zm-2125 628c-109,1 -205,-67 -216,-184 -6,-65 12,-122 49,-170 33,-42 88,-78 134,-86 15,-3 36,-1 44,9 13,15 9,32 -4,39 -36,18 -78,49 -99,92 -17,35 -21,76 6,116 44,66 166,68 280,-38 28,-26 53,-51 79,-80 50,-57 67,-78 133,-170 1,-1 1,-2 1,-3 -1,-1 -1,-2 -3,-2 -44,1 -83,14 -121,43 -11,8 -26,7 -33,-4 -8,-12 -2,-27 10,-36 61,-42 127,-50 194,-61 0,0 5,0 9,-5 28,-36 49,-68 78,-104 30,-37 68,-70 98,-95 41,-35 67,-47 94,-62 7,-4 -1,-8 -3,-8 -149,-28 -305,-64 -453,-9 -103,38 -148,120 -126,174 15,39 66,45 114,22 40,-19 76,-51 102,-91 15,-22 45,-6 29,33 -43,102 -126,183 -227,186 -86,3 -141,-60 -141,-138 0,-154 172,-255 352,-270 217,-18 422,40 637,66 165,20 323,20 489,-18 20,-4 33,8 32,28 -2,29 -24,56 -78,86 -62,34 -127,44 -195,45 -164,1 -317,-63 -475,-97 0,7 2,15 -4,20 -88,65 -167,130 -220,222 -2,2 -1,4 2,4 46,-2 87,-4 130,-7 8,-1 8,-2 7,-8 -4,-32 5,-68 33,-93 29,-26 64,-29 88,-10 27,21 25,59 10,87 -15,29 -40,44 -64,52 0,0 -5,1 -4,6 1,7 33,25 36,30 3,5 1,12 -4,17 -3,4 -9,8 -16,8 -6,0 -9,-2 -16,-6 -15,-8 -33,-21 -45,-36 -4,-5 -6,-5 -17,-5 -47,3 -119,10 -168,16 -12,1 -14,4 -16,8 -78,129 -162,269 -254,362 -99,100 -180,126 -267,127zm950 -1040c-1021,0 -1849,282 -1849,628 0,345 828,628 1849,628 1021,0 1849,-282 1849,-628 0,-345 -828,-628 -1849,-628z"/>
  <path class="fil0" d="M726 2743c0,-181 94,-257 263,-257 101,0 162,30 202,71l-75 76c-26,-24 -59,-46 -127,-46 -109,0 -152,54 -152,158 0,109 30,163 150,163 97,0 125,-32 125,-102l0 -11 -139 0 0 -92 249 0 0 82c0,142 -57,216 -240,216 -199,0 -255,-92 -255,-257z"/>
  <path class="fil0" d="M1555 2804c0,-65 -20,-105 -93,-105 -73,0 -93,40 -93,105 0,65 20,106 93,106 73,0 93,-41 93,-106zm-292 -3c0,-128 56,-199 199,-199 143,0 199,71 199,199 0,128 -55,199 -199,199 -143,0 -199,-71 -199,-199z"/>
  <polygon class="fil0" points="1850,2494 2213,2494 2213,2593 1960,2593 1960,2700 2206,2700 2206,2799 1960,2799 1960,2993 1850,2993 "/>
  <path class="fil0" d="M2267 2815l0 -203 106 0 0 205c0,53 1,90 77,90 75,0 76,-38 76,-91l0 -205 104 0 0 203c0,131 -35,185 -181,185 -145,0 -182,-53 -182,-184z"/>
  <path class="fil0" d="M2677 2617l82 -6 11 42c16,-24 63,-44 122,-46l0 101c-90,1 -109,36 -109,96l0 189 -106 0 0 -375z"/>
  <path class="fil0" d="M2918 2611l67 0 18 -93 82 -17 0 110 90 0 0 90 -90 0 0 157c0,30 4,46 49,46l41 0 0 88c-16,1 -44,1 -63,1 -103,0 -133,-35 -133,-120l0 -172 -63 0 0 -90z"/>
  <path class="fil0" d="M3224 2470l105 0 0 167c16,-17 52,-34 124,-34 115,0 137,64 137,159l0 231 -105 0 0 -210c0,-46 -5,-80 -69,-80 -73,0 -86,34 -86,85l0 205 -106 0 0 -523z"/>
  <path class="fil0" d="M3738 2766l169 0c-3,-44 -11,-75 -77,-75 -65,0 -87,29 -92,75zm-102 35c0,-106 35,-199 198,-199 168,0 173,112 170,239l-265 0c6,46 28,73 96,73 59,0 92,-14 120,-35l53 69c-49,37 -98,52 -173,52 -165,0 -199,-90 -199,-199z"/>
  <path class="fil0" d="M4053 2617l82 -6 11 42c16,-24 63,-44 122,-46l0 101c-90,1 -109,36 -109,96l0 189 -106 0 0 -375z"/>
 </g>
</svg>
