<svg enable-background="new 0 0 397.122 233.763" height="233.763" viewBox="0 0 397.122 233.763" width="397.122" xmlns="http://www.w3.org/2000/svg" xmlns:xlink="http://www.w3.org/1999/xlink"><clipPath id="a"><path d="m-7.777-9.183h412v242.001h-412z"/></clipPath><clipPath id="b"><path d="m-7.777-8.238h411v241.001h-411z"/></clipPath><clipPath id="c"><path d="m-7.777-8.238h411v241.001h-411z"/></clipPath><clipPath id="d"><path d="m-7.777-8.238h411v241.001h-411z"/></clipPath><clipPath id="e"><path d="m-7.777-8.238h411v241.001h-411z"/></clipPath><clipPath id="f"><path d="m-7.777-8.238h411v241.001h-411z"/></clipPath><clipPath id="g"><path d="m-7.777-8.238h411v241.001h-411z"/></clipPath><clipPath id="h"><path d="m21.223 13.762h353v200.001h-353z"/></clipPath><clipPath id="i"><path d="m21.223 13.762h353v200.001h-353z"/></clipPath><clipPath id="j"><path d="m21.223 13.762h353v200.001h-353z"/></clipPath><clipPath id="k"><path d="m21.223 13.762h353v200.001h-353z"/></clipPath><clipPath id="l"><path d="m-7.777-8.238h411v241.001h-411z"/></clipPath><clipPath id="m"><path d="m-7.777-8.238h411v241.001h-411z"/></clipPath><clipPath id="n"><path d="m-7.777-8.238h411v241.001h-411z"/></clipPath><clipPath id="o"><path d="m-7.777-8.238h411v241.001h-411z"/></clipPath><clipPath id="p"><path d="m-7.777-8.238h411v241.001h-411z"/></clipPath><clipPath id="q"><path d="m-7.777-8.238h411v241.001h-411z"/></clipPath><clipPath id="r"><path d="m-7.777-8.238h411v241.001h-411z"/></clipPath><clipPath id="s"><path d="m-7.777-8.238h411v241.001h-411z"/></clipPath><clipPath id="t"><path d="m-7.777-8.238h411v241.001h-411z"/></clipPath><clipPath id="u"><path d="m-7.777-8.238h411v241.001h-411z"/></clipPath><clipPath id="v"><path d="m-7.777-8.238h411v241.001h-411z"/></clipPath><clipPath id="w"><path d="m-7.777-8.238h411v241.001h-411z"/></clipPath><clipPath id="x"><path d="m-7.777 219.255h107.611v12.004h-107.611z"/></clipPath><clipPath id="y"><path d="m2.778 219.255h155.723v12.004h-155.723z"/></clipPath><clipPath id="z"><path d="m61.445 219.255h155.724v12.004h-155.724z"/></clipPath><clipPath id="A"><path d="m118.812 219.255h158.322v12.004h-158.322z"/></clipPath><clipPath id="B"><path d="m177.479 219.255h158.323v12.004h-158.323z"/></clipPath><clipPath id="C"><path d="m240.043 219.255h150.525v12.004h-150.525z"/></clipPath><clipPath id="D"><path d="m294.811 219.255h108.412v12.004h-108.412z"/></clipPath><clipPath id="E"><path d="m-7.777-8.238h411v241.001h-411z"/></clipPath><clipPath id="F"><path d="m-7.777-8.238h411v241.001h-411z"/></clipPath><clipPath id="G"><path d="m-7.777 33.977h369.563v15.395h-369.563z"/></clipPath><clipPath id="H"><path d="m-7.777-7.238h412v241.001h-412z"/></clipPath><clipPath id="I"><path d="m-7.777-7.238h412v241.001h-412z"/></clipPath><clipPath id="J"><path d="m-7.777-7.238h412v241.001h-412z"/></clipPath><path clip-path="url(#a)" clip-rule="evenodd" d="m-7.777-9.183h412v242.001h-412z" fill="#fff" fill-rule="evenodd" opacity="0"/><path clip-path="url(#a)" clip-rule="evenodd" d="m-7.777-8.683h411.5v241.001h-411.5z" fill="#fff" fill-rule="evenodd"/><g fill="none" stroke-linejoin="round" stroke-miterlimit="10"><path clip-path="url(#b)" d="m374.461 213.224v-199.367" stroke="#000"/><path clip-path="url(#c)" d="m371.223 14.262h3m-3 39h3m-3 40h3m-3 40.001h3m-3 40h3m-3 39.961h3" stroke="#000"/><path clip-path="url(#d)" d="m21.484 213.224v-199.367" stroke="#000"/><path clip-path="url(#e)" d="m21.223 14.262h3m-3 39h3m-3 40h3m-3 40.001h3m-3 40h3m-3 39.961h3" stroke="#000"/><path clip-path="url(#f)" d="m21.484 213.224h352.977" stroke="#000"/><path clip-path="url(#g)" d="m373.223 210.263v2.961m-58-2.961v2.961m-59-2.961v2.961m-59-2.961v2.961m-58-2.961v2.961m-59-2.961v2.961m-59-2.961v2.961" stroke="#000"/><path clip-path="url(#h)" d="m371.223 70.262 2.75-1m-5.75 1h3m-6 0h3m-6 0h3m-6 0h3m-6 0h3m-6 1 3-1m-6 2 3-1m-6 2 3-1m-6 1h3m-6 0h3m-5 1 2-1m-5 1h3m-6 0h3m-6 0h3m-6-1 3 1m-6-1h3m-6 1 3-1m-6 2 3-1m-6 1h3m-6 0h3m-6 0h3m-6 0h3m-6 0h3m-6-1 3 1m-6-2 3 1m-5 0 2-1m-5 3 3-2m-6 4 3-2m-6 3 3-1m-6 1h3m-6 0h3m-6 0h3m-6 0h3m-6 0h3m-6 1 3-1m-6 2 3-1m-6 2 3-1m-6 1h3m-6 0h3m-6-1 3 1m-5 0 2-1m-5 1h3m-6 1 3-1m-6 2 3-1m-6 1h3m-6 0h3m-6 0h3m-6 1 3-1m-6 1h3m-6 1 3-1m-6 2 3-1m-6 2 3-1m-6 1h3m-6 0h3m-6-1 3 1m-5-2 2 1m-5-1h3m-6 0h3m-6 1 3-1m-6 2 3-1m-6 2 3-1m-6 2 3-1m-6 2 3-1m-6 1h3m-6 1 3-1m-6 1h3m-6 1 3-1m-6 1h3m-6 0h3m-6 0h3m-5 1 2-1m-5 2 3-1m-6 1h3m-6 1 3-1m-6 1h3m-6 0h3m-6 1 3-1m-6 1h3m-6 0h3m-6-1 3 1m-6-2 3 1m-6 0 3-1m-6 2 3-1m-6 1h3m-6 0h3m-5 0h2m-5 0h3m-6-1 3 1m-6-1h3m-6-1 3 1m-6-1h3m-6 0h3m-6 0h3m-6 0h3m-6 0h3m-6 1 3-1m-6 1h3m-6 0h3m-6 0h3m-6 1 3-1m-5 2 2-1m-5 2 3-1m-6 2 3-1m-6 1h3m-6 1 3-1m-6 2 3-1m-6 2 3-1m-6 1h3m-6 0h3m-6-1 3 1m-6-1h3m-6 0h3m-6 0h3m-6 0h3m-6 0h3m-5 0h2m-5 1 3-1m-6 1h3m-6 1 3-1" stroke="#6cabdd" stroke-linecap="round" stroke-width="2.25"/><path clip-path="url(#i)" d="m371.223 118.263 2.75 1.584m-5.75-1.584h3m-6 1 3-1m-6 1h3m-6 0h3m-6 0h3m-6 0h3m-6-1 3 1m-6-1h3m-6-1 3 1m-6-1h3m-5 0h2m-5-1 3 1m-6-1h3m-6 1 3-1m-6 1h3m-6 0h3m-6-1 3 1m-6-1h3m-6 0h3m-6-1 3 1m-6-1h3m-6 0h3m-6 0h3m-6 1 3-1m-6 1h3m-5-1 2 1m-5-2 3 1m-6-1h3m-6 0h3m-6 0h3m-6 0h3m-6 0h3m-6 0h3m-6-1 3 1m-6-1h3m-6 0h3m-6-1.001 3 1.001m-6-2.001 3 1m-6-1h3m-6-1 3 1m-5-2 2 1m-5-1h3m-6-1 3 1m-6-1h3m-6 1 3-1m-6 1h3m-6 0h3m-6 0h3m-6-1 3 1m-6-2 3 1m-6-2 3 1m-6-2 3 1m-6-1h3m-6 0h3m-6 1 3-1m-5 2 2-1m-5 1h3m-6 0h3m-6-1 3 1m-6-2 3 1m-6-2 3 1m-6-1h3m-6 0h3m-6 1 3-1m-6 2 3-1m-6 1h3m-6-1 3 1m-6-1h3m-6 1 3-1m-6 1h3m-5-1 2 1m-5-2 3 1m-6-1h3m-6 0h3m-6 1 3-1m-6 2 3-1m-6 0 3 1m-6-1h3m-6-1 3 1m-6-1h3m-6 0h3m-6 0h3m-6 1 3-1m-6 0 3 1m-6-1h3m-5 0h2m-5 0h3m-6 0h3m-6 1 3-1m-6 1h3m-6 0h3m-6 0h3m-6 0h3m-6 0h3m-6 0h3m-6 0h3m-6 0h3m-6 0h3m-6 0h3m-6 0h3m-5 0h2m-5 0h3m-6 0h3m-6 0h3m-6 0h3m-6 0h3m-6 0h3m-6 1 3-1m-6 1h3m-6 1 3-1m-6 0 3 1m-6-1h3m-6-1 3 1m-6-1h3m-6 0h3m-5 0h2m-5 1 3-1m-6 1h3m-6-1 3 1" stroke="#b3b3b3" stroke-linecap="round" stroke-width="2.25"/><path clip-path="url(#j)" d="m371.223 93.808 2.75-.546m-5.75.546h3m-6-.546 3 .546m-6-1.546 3 1m-6-2 3 1m-6-2 3 1m-6-1h3m-6 0h3m-6 0h3m-6 0h3m-6 0h3m-5-1 2 1m-5-1h3m-6-1 3 1m-6-1h3m-6 0h3m-6 0h3m-6 0h3m-6 0h3m-6 0h3m-6-1 3 1m-6-1h3m-6 0h3m-6 0h3m-6 1 3-1m-6 1h3m-5 0h2m-5-1 3 1m-6-3 3 2m-6-3 3 1m-6-3 3 2m-6-2h3m-6 0h3m-6 0h3m-6-1 3 1m-6-1h3m-6 0h3m-6 0h3m-6 0h3m-6 1 3-1m-6 2 3-1m-5 2 2-1m-5 1h3m-6-1 3 1m-6-2 3 1m-6-2 3 1m-6-2 3 1m-6-1h3m-6 0h3m-6 1 3-1m-6 1h3m-6 0h3m-6 0h3m-6 0h3m-6 0h3m-6-1 3 1m-5-1h2m-5 0h3m-6 0h3m-6 0h3m-6 0h3m-6-1 3 1m-6-2 3 1m-6-2 3 1m-6-3 3 2m-6-3 3 1m-6-1h3m-6 0h3m-6 0h3m-6 0h3m-6-1 3 1m-5-1h2m-5-1 3 1m-6-1h3m-6 0h3m-6-1 3 1m-6-2 3 1m-6-2 3 1m-6-1h3m-6 0h3m-6 0h3m-6 0h3m-6-1 3 1m-6-1h3m-6-1 3 1m-6-1h3m-5 0h2m-5 0h3m-6 0h3m-6-1 3 1m-6-1h3m-6 0h3m-6 0h3m-6 1 3-1m-6 1h3m-6-1 3 1m-6-2 3 1m-6-1h3m-6 0h3m-6-1 3 1m-6-2 3 1m-5-2 2 1m-5-2 3 1m-6-2 3 1m-6-2 3 1m-6-2 3 1m-6-2 3 1m-6-2 3 1m-6-2 3 1m-6-1h3m-6 0h3m-6 0h3m-6 1 3-1m-6 0 3 1m-6-1h3m-6 0h3m-5 0h2m-5-1 3 1m-6-2 3 1m-6-2 3 1" stroke="#fdc806" stroke-linecap="round" stroke-width="2.25"/><path clip-path="url(#k)" d="m371.223 171.263h2.75m-5.75 0h3m-6 1 3-1m-6 1h3m-6 1 3-1m-6 1h3m-6 0h3m-6 0h3m-6 0h3m-6 0h3m-6 0h3m-5 0h2m-5 1 3-1m-6 1h3m-6 1 3-1m-6 1h3m-6 0h3m-6 0h3m-6 0h3m-6 0h3m-6 0h3m-6 0h3m-6 0h3m-6 1 3-1m-6 1h3m-6 0h3m-5 0h2m-5 0h3m-6 0h3m-6 1 3-1m-6 2 3-1m-6 1h3m-6 1 3-1m-6 1h3m-6 0h3m-6 0h3m-6-1 3 1m-6-1h3m-6 0h3m-6 1 3-1m-6 1h3m-5 0h2m-5-1 3 1m-6 0 3-1m-6 1h3m-6 0h3m-6 0h3m-6 0h3m-6 0h3m-6 0h3m-6 0h3m-6 0h3m-6 0h3m-6 0h3m-6 0h3m-6 1 3-1m-5 1h2m-5 0h3m-6 0h3m-6 0h3m-6 0h3m-6 1 3-1m-6 1h3m-6 0h3m-6 0h3m-6 1 3-1m-6 1h3m-6-1 3 1m-6-1h3m-6 0h3m-6 0h3m-5 1 2-1m-5 1h3m-6 0h3m-6 0h3m-6 0h3m-6 0h3m-6 0h3m-6 1 3-1m-6 2 3-1m-6 2 3-1m-6 1h3m-6 0h3m-6 0h3m-6 0h3m-6 0h3m-5 1 2-1m-5 1h3m-6 0h3m-6 0h3m-6 1 3-1m-6 1h3m-6 0h3m-6 0h3m-6-1 3 1m-6-1h3m-6 0h3m-6 1 3-1m-6 1h3m-6 1 3-1m-6 1h3m-5 0h2m-5 0h3m-6 0h3m-6 0h3m-6 1 3-1m-6 2 3-1m-6 1h3m-6 0h3m-6 0h3m-6-1 3 1m-6 0 3-1m-6 1h3m-6 0h3m-6 1 3-1m-6 1h3m-5 0h2m-5 0h3m-6 0h3m-6 0h3" stroke="#f1903f" stroke-linecap="round" stroke-width="2.25"/></g><g clip-path="url(#l)"><path d="m383.475 213.693c0-.846.088-1.527.262-2.043s.434-.914.776-1.193c.343-.281.775-.42 1.296-.42.385 0 .722.076 1.012.232.289.154.528.377.717.668s.338.646.445 1.064.16.982.16 1.691c0 .84-.086 1.518-.258 2.035-.173.516-.432.914-.774 1.195s-.777.422-1.302.422c-.689 0-1.231-.246-1.625-.742-.473-.595-.709-1.563-.709-2.909zm.904 0c0 1.176.137 1.957.412 2.348.275.389.614.582 1.018.582s.744-.195 1.019-.586.413-1.172.413-2.344c0-1.178-.139-1.961-.413-2.348-.274-.389-.618-.582-1.028-.582-.403 0-.726.172-.967.514-.303.435-.454 1.242-.454 2.416z"/></g><g clip-path="url(#m)"><path d="m386.786 177.351h-.879v-5.602c-.211.203-.488.404-.832.605-.344.203-.652.354-.926.455v-.85c.492-.232.922-.512 1.289-.84.368-.33.629-.648.781-.957h.566v7.189z"/><path d="m389.038 173.82c0-.846.086-1.527.261-2.043s.433-.914.776-1.193c.344-.281.775-.42 1.297-.42.384 0 .721.076 1.01.232.29.154.529.377.719.668.188.291.336.646.443 1.064s.162.982.162 1.691c0 .84-.087 1.518-.26 2.035-.172.516-.43.914-.773 1.195s-.777.422-1.301.422c-.69 0-1.232-.246-1.627-.742-.472-.595-.707-1.563-.707-2.909zm.902 0c0 1.176.139 1.957.413 2.348.274.389.614.582 1.019.582.403 0 .742-.195 1.018-.586s.412-1.172.412-2.344c0-1.178-.137-1.961-.412-2.348-.275-.389-.617-.582-1.027-.582-.404 0-.727.172-.967.514-.304.435-.456 1.242-.456 2.416z"/></g><g clip-path="url(#n)"><path d="m388.094 136.632v.846h-4.73c-.007-.213.027-.416.102-.611.121-.322.314-.639.579-.951s.648-.674 1.149-1.084c.778-.639 1.305-1.145 1.578-1.516.273-.373.41-.727.41-1.059 0-.348-.125-.641-.374-.881-.249-.238-.573-.359-.974-.359-.424 0-.762.127-1.016.381s-.383.605-.387 1.055l-.902-.092c.062-.674.294-1.188.697-1.541.404-.354.946-.529 1.627-.529.687 0 1.23.189 1.631.57s.6.854.6 1.416c0 .287-.059.568-.176.846-.117.275-.311.568-.583.873-.272.307-.724.727-1.354 1.26-.527.443-.866.744-1.016.902-.15.156-.273.316-.371.475h3.51z"/><path d="m389.038 133.947c0-.846.086-1.527.261-2.043s.433-.914.776-1.193c.344-.281.775-.42 1.297-.42.384 0 .721.076 1.01.232.29.154.529.377.719.668.188.291.336.646.443 1.064s.162.982.162 1.691c0 .84-.087 1.518-.26 2.035-.172.516-.43.914-.773 1.195s-.777.422-1.301.422c-.69 0-1.232-.246-1.627-.742-.472-.595-.707-1.564-.707-2.909zm.902 0c0 1.176.139 1.957.413 2.348.274.389.614.582 1.019.582.403 0 .742-.195 1.018-.586s.412-1.172.412-2.344c0-1.178-.137-1.961-.412-2.348-.275-.389-.617-.582-1.027-.582-.404 0-.727.172-.967.514-.304.435-.456 1.242-.456 2.416z"/></g><g clip-path="url(#o)"><path d="m383.481 95.715.879-.117c.101.498.271.856.515 1.077.243.219.538.329.886.329.414 0 .764-.144 1.048-.43s.427-.642.427-1.064c0-.403-.131-.736-.395-.999-.264-.262-.6-.393-1.006-.393-.166 0-.373.032-.621.098l.098-.771c.059.007.106.01.143.01.374 0 .711-.098 1.01-.293.3-.195.449-.496.449-.903 0-.322-.108-.589-.326-.801-.219-.212-.5-.317-.846-.317-.342 0-.626.107-.854.322-.229.215-.375.537-.439.967l-.879-.156c.107-.589.352-1.046.732-1.369.381-.324.854-.486 1.42-.486.391 0 .751.084 1.08.252.328.167.58.396.754.686s.262.598.262.923c0 .31-.084.591-.25.845s-.411.456-.736.605c.423.098.752.301.986.607.234.309.352.693.352 1.155 0 .625-.229 1.155-.684 1.589-.456.436-1.032.652-1.729.652-.629 0-1.15-.188-1.565-.562s-.652-.86-.711-1.456z"/><path d="m389.038 94.075c0-.847.086-1.527.261-2.044.175-.516.433-.913.776-1.193s.775-.42 1.297-.42c.384 0 .721.077 1.01.232.29.154.529.377.719.668.188.292.336.646.443 1.064.107.419.162.982.162 1.692 0 .84-.087 1.518-.26 2.034-.172.516-.43.914-.773 1.195-.344.282-.777.423-1.301.423-.69 0-1.232-.247-1.627-.742-.472-.595-.707-1.565-.707-2.909zm.902 0c0 1.175.139 1.957.413 2.347.274.389.614.583 1.019.583.403 0 .742-.195 1.018-.586s.412-1.172.412-2.344c0-1.179-.137-1.961-.412-2.349s-.617-.581-1.027-.581c-.404 0-.727.171-.967.513-.304.436-.456 1.242-.456 2.417z"/></g><g clip-path="url(#p)"><path d="m386.293 57.73v-1.714h-3.105v-.806l3.266-4.639h.719v4.639h.967v.806h-.967v1.714zm0-2.52v-3.228l-2.242 3.228z"/><path d="m389.038 54.2c0-.847.086-1.527.261-2.044.175-.516.433-.913.776-1.193s.775-.42 1.297-.42c.384 0 .721.077 1.01.232.29.154.529.377.719.668.188.292.336.646.443 1.064.107.419.162.982.162 1.692 0 .84-.087 1.518-.26 2.034-.172.516-.43.914-.773 1.195-.344.282-.777.423-1.301.423-.69 0-1.232-.247-1.627-.742-.472-.595-.707-1.565-.707-2.909zm.902 0c0 1.175.139 1.957.413 2.347.274.389.614.583 1.019.583.403 0 .742-.195 1.018-.586s.412-1.172.412-2.344c0-1.179-.137-1.961-.412-2.349s-.617-.581-1.027-.581c-.404 0-.727.171-.967.513-.304.436-.456 1.242-.456 2.417z"/></g><g clip-path="url(#q)"><path d="m383.475 15.982.924-.078c.068.449.227.787.476 1.014.249.226.55.339.901.339.423 0 .781-.159 1.074-.479s.439-.742.439-1.27c0-.501-.141-.896-.423-1.187s-.65-.435-1.106-.435c-.283 0-.538.064-.766.192-.229.129-.407.296-.537.501l-.826-.107.693-3.677h3.561v.84h-2.857l-.385 1.924c.43-.3.88-.449 1.352-.449.625 0 1.152.217 1.582.649s.645.989.645 1.67c0 .647-.188 1.208-.566 1.68-.459.579-1.085.869-1.879.869-.651 0-1.184-.183-1.595-.547s-.648-.847-.707-1.449z"/><path d="m389.038 14.327c0-.847.086-1.527.261-2.044.175-.516.433-.913.776-1.193s.775-.42 1.297-.42c.384 0 .721.077 1.01.232.29.154.529.377.719.668.188.292.336.646.443 1.064.107.419.162.982.162 1.692 0 .84-.087 1.518-.26 2.034-.172.516-.43.914-.773 1.195-.344.282-.777.423-1.301.423-.69 0-1.232-.247-1.627-.742-.472-.595-.707-1.565-.707-2.909zm.902 0c0 1.175.139 1.957.413 2.347.274.389.614.583 1.019.583.403 0 .742-.195 1.018-.586s.412-1.172.412-2.344c0-1.179-.137-1.961-.412-2.349s-.617-.581-1.027-.581c-.404 0-.727.171-.967.513-.304.436-.456 1.242-.456 2.417z"/></g><g clip-path="url(#r)"><path d="m7.738 213.693c0-.846.087-1.527.261-2.043s.433-.914.776-1.193c.343-.281.775-.42 1.296-.42.384 0 .721.076 1.011.232.29.154.529.377.718.668s.337.646.444 1.064.161.982.161 1.691c0 .84-.086 1.518-.259 2.035-.172.516-.431.914-.774 1.195s-.777.422-1.301.422c-.69 0-1.232-.246-1.626-.742-.471-.595-.707-1.563-.707-2.909zm.904 0c0 1.176.138 1.957.413 2.348.275.389.614.582 1.018.582s.743-.195 1.018-.586.413-1.172.413-2.344c0-1.178-.138-1.961-.413-2.348-.275-.389-.618-.582-1.028-.582-.404 0-.726.172-.967.514-.303.435-.454 1.242-.454 2.416z"/></g><g clip-path="url(#s)"><path d="m5.487 177.351h-.879v-5.602c-.211.203-.489.404-.833.605-.343.203-.652.354-.925.455v-.85c.492-.232.921-.512 1.289-.84.368-.33.628-.648.781-.957h.566v7.189z"/><path d="m7.738 173.82c0-.846.087-1.527.261-2.043s.433-.914.776-1.193c.343-.281.775-.42 1.296-.42.384 0 .721.076 1.011.232.29.154.529.377.718.668s.337.646.444 1.064.161.982.161 1.691c0 .84-.086 1.518-.259 2.035-.172.516-.431.914-.774 1.195s-.777.422-1.301.422c-.69 0-1.232-.246-1.626-.742-.471-.595-.707-1.563-.707-2.909zm.904 0c0 1.176.138 1.957.413 2.348.275.389.614.582 1.018.582s.743-.195 1.018-.586.413-1.172.413-2.344c0-1.178-.138-1.961-.413-2.348-.275-.389-.618-.582-1.028-.582-.404 0-.726.172-.967.514-.303.435-.454 1.242-.454 2.416z"/></g><g clip-path="url(#t)"><path d="m6.796 136.632v.846h-4.732c-.006-.213.028-.416.103-.611.121-.322.313-.639.579-.951s.648-.674 1.15-1.084c.778-.639 1.304-1.145 1.577-1.516.273-.373.41-.727.41-1.059 0-.348-.125-.641-.374-.881-.249-.238-.574-.359-.974-.359-.423 0-.762.127-1.016.381s-.382.605-.386 1.055l-.903-.092c.062-.674.294-1.188.698-1.541s.946-.529 1.626-.529c.687 0 1.23.189 1.631.57s.601.854.601 1.416c0 .287-.059.568-.176.846-.117.275-.312.568-.583.873-.272.307-.724.727-1.355 1.26-.527.443-.866.744-1.016.902-.15.156-.273.316-.371.475h3.511z"/><path d="m7.738 133.947c0-.846.087-1.527.261-2.043s.433-.914.776-1.193c.343-.281.775-.42 1.296-.42.384 0 .721.076 1.011.232.29.154.529.377.718.668s.337.646.444 1.064.161.982.161 1.691c0 .84-.086 1.518-.259 2.035-.172.516-.431.914-.774 1.195s-.777.422-1.301.422c-.69 0-1.232-.246-1.626-.742-.471-.595-.707-1.564-.707-2.909zm.904 0c0 1.176.138 1.957.413 2.348.275.389.614.582 1.018.582s.743-.195 1.018-.586.413-1.172.413-2.344c0-1.178-.138-1.961-.413-2.348-.275-.389-.618-.582-1.028-.582-.404 0-.726.172-.967.514-.303.435-.454 1.242-.454 2.416z"/></g><g clip-path="url(#u)"><path d="m2.182 95.715.879-.117c.101.498.272.856.515 1.077.243.219.538.329.886.329.414 0 .763-.144 1.047-.43s.427-.642.427-1.064c0-.403-.132-.736-.396-.999-.264-.262-.599-.393-1.006-.393-.166 0-.373.032-.62.098l.098-.771c.059.007.106.01.142.01.375 0 .711-.098 1.011-.293s.449-.496.449-.903c0-.322-.109-.589-.327-.801s-.5-.317-.845-.317c-.342 0-.626.107-.854.322s-.375.537-.44.966l-.878-.156c.107-.589.352-1.046.732-1.369.381-.324.854-.486 1.421-.486.391 0 .75.084 1.079.252.329.167.58.396.754.686s.261.598.261.923c0 .31-.083.591-.249.845s-.412.456-.737.605c.423.098.752.301.986.607.234.309.352.693.352 1.155 0 .625-.228 1.155-.684 1.589-.456.436-1.032.652-1.729.652-.628 0-1.15-.188-1.565-.562s-.651-.859-.709-1.455z"/><path d="m7.738 94.075c0-.847.087-1.527.261-2.044.174-.516.433-.913.776-1.193s.775-.42 1.296-.42c.384 0 .721.077 1.011.232.29.154.529.377.718.668.189.292.337.646.444 1.064.107.419.161.982.161 1.692 0 .84-.086 1.518-.259 2.034-.172.516-.431.914-.774 1.195-.343.282-.777.423-1.301.423-.69 0-1.232-.247-1.626-.742-.471-.595-.707-1.565-.707-2.909zm.904 0c0 1.175.138 1.957.413 2.347.275.389.614.583 1.018.583s.743-.195 1.018-.586.413-1.172.413-2.344c0-1.179-.138-1.961-.413-2.349s-.618-.581-1.028-.581c-.404 0-.726.171-.967.513-.303.436-.454 1.242-.454 2.417z"/></g><g clip-path="url(#v)"><path d="m4.994 57.73v-1.714h-3.105v-.806l3.267-4.639h.718v4.639h.966v.806h-.967v1.714zm0-2.52v-3.228l-2.241 3.228z"/><path d="m7.738 54.2c0-.847.087-1.527.261-2.044.174-.516.433-.913.776-1.193s.775-.42 1.296-.42c.384 0 .721.077 1.011.232.29.154.529.377.718.668.189.292.337.646.444 1.064.107.419.161.982.161 1.692 0 .84-.086 1.518-.259 2.034-.172.516-.431.914-.774 1.195-.343.282-.777.423-1.301.423-.69 0-1.232-.247-1.626-.742-.471-.595-.707-1.565-.707-2.909zm.904 0c0 1.175.138 1.957.413 2.347.275.389.614.583 1.018.583s.743-.195 1.018-.586.413-1.172.413-2.344c0-1.179-.138-1.961-.413-2.349s-.618-.581-1.028-.581c-.404 0-.726.171-.967.513-.303.436-.454 1.242-.454 2.417z"/></g><g clip-path="url(#w)"><path d="m2.177 15.982.923-.078c.068.449.227.787.476 1.014.249.226.549.339.901.339.423 0 .781-.159 1.074-.479s.439-.742.439-1.27c0-.501-.141-.896-.422-1.187s-.65-.435-1.106-.435c-.283 0-.539.064-.767.192-.228.129-.407.296-.537.501l-.825-.107.693-3.677h3.56v.84h-2.857l-.385 1.925c.43-.3.88-.449 1.353-.449.625 0 1.152.217 1.582.649s.645.989.645 1.67c0 .647-.189 1.208-.566 1.68-.459.579-1.085.869-1.88.869-.651 0-1.183-.183-1.594-.547s-.649-.848-.707-1.45z"/><path d="m7.738 14.327c0-.847.087-1.527.261-2.044.174-.516.433-.913.776-1.193s.775-.42 1.296-.42c.384 0 .721.077 1.011.232.29.154.529.377.718.668.189.292.337.646.444 1.064.107.419.161.982.161 1.692 0 .84-.086 1.518-.259 2.034-.172.516-.431.914-.774 1.195-.343.282-.777.423-1.301.423-.69 0-1.232-.247-1.626-.742-.471-.595-.707-1.565-.707-2.909zm.904 0c0 1.175.138 1.957.413 2.347.275.389.614.583 1.018.583s.743-.195 1.018-.586.413-1.172.413-2.344c0-1.179-.138-1.961-.413-2.349s-.618-.581-1.028-.581c-.404 0-.726.171-.967.513-.303.436-.454 1.242-.454 2.417z"/></g><g clip-path="url(#x)"><path d="m14.575 229.257h-.879v-5.602c-.211.203-.489.404-.833.605-.343.203-.652.354-.925.455v-.85c.492-.232.921-.512 1.289-.84.368-.33.628-.648.781-.957h.566v7.189z"/><path d="m16.958 227.601.845-.078c.072.398.208.686.41.865.202.178.46.268.776.268.27 0 .507-.061.71-.186.204-.123.37-.289.5-.494.13-.207.239-.486.327-.838s.132-.711.132-1.074c0-.039-.001-.098-.005-.176-.176.279-.416.506-.72.682-.304.174-.634.26-.989.26-.592 0-1.094-.215-1.504-.645s-.615-.996-.615-1.699c0-.725.214-1.311.642-1.752.428-.443.964-.664 1.609-.664.465 0 .891.125 1.277.375.386.252.679.609.879 1.072.2.465.3 1.135.3 2.014 0 .916-.099 1.645-.298 2.186-.199.543-.494.955-.886 1.238s-.852.424-1.379.424c-.56 0-1.017-.154-1.372-.465-.354-.313-.567-.748-.639-1.313zm3.599-3.158c0-.506-.134-.906-.403-1.201-.269-.297-.592-.445-.969-.445-.391 0-.731.16-1.021.479-.29.32-.435.732-.435 1.24 0 .457.138.826.413 1.111s.614.428 1.018.428c.407 0 .741-.143 1.003-.428s.394-.68.394-1.184z"/><path d="m23.74 225.375c-.365-.133-.635-.324-.811-.57-.176-.248-.264-.545-.264-.889 0-.521.187-.959.562-1.314.375-.354.873-.531 1.494-.531.625 0 1.128.182 1.509.545.381.361.571.805.571 1.324 0 .332-.087.621-.261.867s-.438.436-.793.568c.439.145.774.375 1.003.693.229.32.344.701.344 1.143 0 .613-.216 1.127-.649 1.543-.433.418-1.002.625-1.709.625s-1.276-.209-1.709-.627-.649-.939-.649-1.564c0-.467.118-.855.354-1.17s.572-.528 1.008-.643zm-.459 1.816c0 .252.06.494.178.729s.295.416.53.545c.234.127.487.191.757.191.42 0 .767-.135 1.04-.404.273-.271.41-.613.41-1.031 0-.422-.141-.773-.422-1.049-.282-.277-.634-.416-1.057-.416-.414 0-.756.137-1.028.41s-.408.615-.408 1.025zm.283-3.305c0 .338.109.615.327.83s.501.322.85.322c.338 0 .616-.107.833-.32s.325-.475.325-.783c0-.322-.111-.594-.334-.812-.223-.221-.5-.33-.833-.33-.335 0-.614.107-.835.322s-.333.47-.333.771z"/><path d="m32.51 223.851-.874.068c-.078-.344-.189-.596-.332-.752-.238-.25-.531-.375-.879-.375-.28 0-.526.078-.737.234-.277.201-.495.496-.654.883-.16.389-.243.939-.249 1.656.211-.322.47-.562.776-.719s.626-.234.962-.234c.586 0 1.085.217 1.497.648.412.43.618.988.618 1.672 0 .449-.097.867-.291 1.252-.194.387-.46.682-.798.887s-.723.307-1.152.307c-.732 0-1.33-.27-1.792-.807-.462-.539-.693-1.428-.693-2.664 0-1.385.255-2.391.767-3.018.446-.547 1.046-.82 1.802-.82.563 0 1.024.158 1.384.473.358.317.573.752.645 1.309zm-3.589 3.086c0 .303.064.594.193.869.128.277.309.488.54.633s.474.217.728.217c.371 0 .69-.148.957-.449.267-.299.4-.705.4-1.221 0-.494-.132-.885-.396-1.168-.264-.285-.596-.428-.996-.428-.397 0-.734.143-1.011.428-.277.283-.415.658-.415 1.119z"/></g><g clip-path="url(#y)"><path d="m73.242 229.257h-.879v-5.602c-.211.203-.489.404-.833.605-.343.203-.652.354-.925.455v-.85c.492-.232.921-.512 1.289-.84.368-.33.628-.648.781-.957h.566v7.189z"/><path d="m75.625 227.601.845-.078c.072.398.208.686.41.865.202.178.46.268.776.268.27 0 .507-.061.71-.186.204-.123.37-.289.5-.494.13-.207.239-.486.327-.838s.132-.711.132-1.074c0-.039-.001-.098-.005-.176-.176.279-.416.506-.72.682-.304.174-.634.26-.989.26-.592 0-1.094-.215-1.504-.645s-.615-.996-.615-1.699c0-.725.214-1.311.642-1.752.428-.443.964-.664 1.609-.664.465 0 .891.125 1.277.375.386.252.679.609.879 1.072.2.465.3 1.135.3 2.014 0 .916-.099 1.645-.298 2.186-.199.543-.494.955-.886 1.238s-.852.424-1.379.424c-.56 0-1.017-.154-1.372-.465-.355-.313-.568-.748-.639-1.313zm3.598-3.158c0-.506-.134-.906-.403-1.201-.269-.297-.592-.445-.969-.445-.391 0-.731.16-1.021.479-.29.32-.435.732-.435 1.24 0 .457.138.826.413 1.111s.614.428 1.018.428c.407 0 .741-.143 1.003-.428s.394-.68.394-1.184z"/><path d="m81.186 227.601.845-.078c.072.398.208.686.41.865.202.178.46.268.776.268.27 0 .507-.061.71-.186.204-.123.37-.289.5-.494.13-.207.239-.486.327-.838s.132-.711.132-1.074c0-.039-.001-.098-.005-.176-.176.279-.416.506-.72.682-.304.174-.634.26-.989.26-.592 0-1.094-.215-1.504-.645s-.615-.996-.615-1.699c0-.725.214-1.311.642-1.752.428-.443.964-.664 1.609-.664.465 0 .891.125 1.277.375.386.252.679.609.879 1.072.2.465.3 1.135.3 2.014 0 .916-.099 1.645-.298 2.186-.199.543-.494.955-.886 1.238s-.852.424-1.379.424c-.56 0-1.017-.154-1.372-.465-.354-.313-.567-.748-.639-1.313zm3.599-3.158c0-.506-.134-.906-.403-1.201-.269-.297-.592-.445-.969-.445-.391 0-.731.16-1.021.479-.29.32-.435.732-.435 1.24 0 .457.138.826.413 1.111s.614.428 1.018.428c.407 0 .741-.143 1.003-.428s.394-.68.394-1.184z"/><path d="m89.926 229.257h-.879v-5.602c-.211.203-.489.404-.833.605-.343.203-.652.354-.925.455v-.85c.492-.232.921-.512 1.289-.84.368-.33.628-.648.781-.957h.566v7.189z"/></g><g clip-path="url(#z)"><path d="m131.908 229.257h-.879v-5.602c-.211.203-.489.404-.833.605-.343.203-.652.354-.925.455v-.85c.492-.232.921-.512 1.289-.84.368-.33.628-.648.781-.957h.566v7.189z"/><path d="m134.291 227.601.845-.078c.072.398.208.686.41.865.202.178.46.268.776.268.27 0 .507-.061.71-.186.204-.123.37-.289.5-.494.13-.207.239-.486.327-.838s.132-.711.132-1.074c0-.039-.001-.098-.005-.176-.176.279-.416.506-.72.682-.304.174-.634.26-.989.26-.592 0-1.094-.215-1.504-.645s-.615-.996-.615-1.699c0-.725.214-1.311.642-1.752.428-.443.964-.664 1.609-.664.465 0 .891.125 1.277.375.386.252.679.609.879 1.072.2.465.3 1.135.3 2.014 0 .916-.099 1.645-.298 2.186-.199.543-.494.955-.886 1.238s-.852.424-1.379.424c-.56 0-1.017-.154-1.372-.465-.354-.313-.567-.748-.639-1.313zm3.599-3.158c0-.506-.134-.906-.403-1.201-.269-.297-.592-.445-.969-.445-.391 0-.731.16-1.021.479-.29.32-.435.732-.435 1.24 0 .457.138.826.413 1.111s.614.428 1.018.428c.407 0 .741-.143 1.003-.428s.394-.68.394-1.184z"/><path d="m139.853 227.601.845-.078c.072.398.208.686.41.865.202.178.46.268.776.268.27 0 .507-.061.71-.186.204-.123.37-.289.5-.494.13-.207.239-.486.327-.838s.132-.711.132-1.074c0-.039-.001-.098-.005-.176-.176.279-.416.506-.72.682-.304.174-.634.26-.989.26-.592 0-1.094-.215-1.504-.645s-.615-.996-.615-1.699c0-.725.214-1.311.642-1.752.428-.443.964-.664 1.609-.664.465 0 .891.125 1.277.375.386.252.679.609.879 1.072.2.465.3 1.135.3 2.014 0 .916-.099 1.645-.298 2.186-.199.543-.494.955-.886 1.238s-.852.424-1.379.424c-.56 0-1.017-.154-1.372-.465-.355-.313-.568-.748-.639-1.313zm3.598-3.158c0-.506-.134-.906-.403-1.201-.269-.297-.592-.445-.969-.445-.391 0-.731.16-1.021.479-.29.32-.435.732-.435 1.24 0 .457.138.826.413 1.111s.614.428 1.018.428c.407 0 .741-.143 1.003-.428s.394-.68.394-1.184z"/><path d="m149.843 223.851-.874.068c-.078-.344-.189-.596-.332-.752-.238-.25-.531-.375-.879-.375-.28 0-.526.078-.737.234-.277.201-.495.496-.654.883-.16.389-.243.939-.249 1.656.211-.322.47-.562.776-.719s.626-.234.962-.234c.586 0 1.085.217 1.497.648.412.43.618.988.618 1.672 0 .449-.097.867-.291 1.252-.194.387-.46.682-.798.887s-.723.307-1.152.307c-.732 0-1.33-.27-1.792-.807-.462-.539-.693-1.428-.693-2.664 0-1.385.255-2.391.767-3.018.446-.547 1.046-.82 1.802-.82.563 0 1.024.158 1.384.473.358.317.573.752.645 1.309zm-3.589 3.086c0 .303.064.594.193.869.128.277.309.488.54.633s.474.217.728.217c.371 0 .69-.148.957-.449.267-.299.4-.705.4-1.221 0-.494-.132-.885-.396-1.168-.264-.285-.596-.428-.996-.428-.397 0-.734.143-1.011.428-.277.283-.415.658-.415 1.119z"/></g><g clip-path="url(#A)"><path d="m192.069 228.412v.846h-4.731c-.006-.213.028-.416.103-.611.121-.322.313-.639.579-.951s.648-.674 1.15-1.084c.778-.639 1.304-1.145 1.577-1.516.273-.373.41-.727.41-1.059 0-.348-.125-.641-.374-.881-.249-.238-.574-.359-.974-.359-.423 0-.762.127-1.016.381s-.382.605-.386 1.055l-.903-.092c.062-.674.294-1.188.698-1.541s.946-.529 1.626-.529c.687 0 1.23.189 1.631.57s.601.854.601 1.416c0 .287-.059.568-.176.846-.117.275-.312.568-.583.873-.272.307-.724.727-1.355 1.26-.527.443-.866.744-1.016.902-.15.156-.273.316-.371.475h3.51z"/><path d="m193.012 225.726c0-.846.087-1.527.261-2.043s.433-.914.776-1.193c.343-.281.775-.42 1.296-.42.384 0 .721.076 1.011.232.29.154.529.377.718.668s.337.646.444 1.064.161.982.161 1.691c0 .84-.086 1.518-.259 2.035-.172.516-.431.914-.774 1.195s-.777.422-1.301.422c-.69 0-1.232-.246-1.626-.742-.471-.594-.707-1.563-.707-2.909zm.903 0c0 1.176.138 1.957.413 2.348.275.389.614.582 1.018.582s.743-.195 1.018-.586.413-1.172.413-2.344c0-1.178-.138-1.961-.413-2.348-.275-.389-.618-.582-1.028-.582-.404 0-.726.172-.967.514-.303.436-.454 1.242-.454 2.416z"/><path d="m198.573 225.726c0-.846.087-1.527.261-2.043s.433-.914.776-1.193c.343-.281.775-.42 1.296-.42.385 0 .722.076 1.012.232.289.154.528.377.717.668s.338.646.445 1.064.16.982.16 1.691c0 .84-.086 1.518-.258 2.035-.173.516-.432.914-.774 1.195s-.777.422-1.302.422c-.689 0-1.231-.246-1.625-.742-.472-.594-.708-1.563-.708-2.909zm.904 0c0 1.176.137 1.957.413 2.348.275.389.614.582 1.018.582s.744-.195 1.019-.586.413-1.172.413-2.344c0-1.178-.139-1.961-.413-2.348-.274-.389-.618-.582-1.028-.582-.403 0-.726.172-.967.514-.305.436-.455 1.242-.455 2.416z"/><path d="m207.446 229.257h-.879v-5.602c-.212.203-.49.404-.833.605-.343.203-.651.354-.925.455v-.85c.491-.232.921-.512 1.289-.84.367-.33.628-.648.781-.957h.566v7.189z"/></g><g clip-path="url(#B)"><path d="m250.736 228.412v.846h-4.731c-.006-.213.027-.416.103-.611.12-.322.313-.639.579-.951.265-.312.648-.674 1.149-1.084.778-.639 1.304-1.145 1.577-1.516.273-.373.41-.727.41-1.059 0-.348-.125-.641-.373-.881-.25-.238-.574-.359-.975-.359-.424 0-.762.127-1.016.381s-.383.605-.386 1.055l-.903-.092c.062-.674.295-1.188.698-1.541s.946-.529 1.626-.529c.688 0 1.23.189 1.631.57s.601.854.601 1.416c0 .287-.059.568-.176.846-.117.275-.312.568-.583.873-.272.307-.725.727-1.355 1.26-.527.443-.865.744-1.016.902-.15.156-.273.316-.371.475h3.511z"/><path d="m251.678 225.726c0-.846.087-1.527.262-2.043.174-.516.433-.914.775-1.193.344-.281.775-.42 1.297-.42.385 0 .721.076 1.011.232.29.154.528.377.718.668s.337.646.444 1.064.161.982.161 1.691c0 .84-.086 1.518-.259 2.035-.173.516-.431.914-.774 1.195s-.777.422-1.301.422c-.689 0-1.232-.246-1.626-.742-.471-.594-.708-1.563-.708-2.909zm.904 0c0 1.176.138 1.957.413 2.348.274.389.613.582 1.018.582s.743-.195 1.018-.586.413-1.172.413-2.344c0-1.178-.138-1.961-.413-2.348-.274-.389-.617-.582-1.027-.582-.404 0-.727.172-.967.514-.304.436-.455 1.242-.455 2.416z"/><path d="m257.24 225.726c0-.846.087-1.527.261-2.043.175-.516.434-.914.777-1.193.343-.281.775-.42 1.296-.42.384 0 .722.076 1.011.232.289.154.529.377.718.668s.337.646.444 1.064.161.982.161 1.691c0 .84-.087 1.518-.259 2.035-.172.516-.431.914-.773 1.195-.344.281-.777.422-1.302.422-.69 0-1.231-.246-1.626-.742-.473-.594-.708-1.563-.708-2.909zm.903 0c0 1.176.138 1.957.412 2.348.275.389.615.582 1.019.582s.743-.195 1.019-.586c.274-.391.412-1.172.412-2.344 0-1.178-.138-1.961-.412-2.348-.275-.389-.618-.582-1.028-.582-.403 0-.726.172-.967.514-.304.436-.455 1.242-.455 2.416z"/><path d="m267.362 223.851-.874.068c-.078-.344-.188-.596-.332-.752-.237-.25-.53-.375-.879-.375-.28 0-.526.078-.737.234-.277.201-.494.496-.654.883-.16.389-.242.939-.249 1.656.212-.322.47-.562.776-.719s.627-.234.962-.234c.586 0 1.085.217 1.497.648.411.43.617.988.617 1.672 0 .449-.097.867-.291 1.252-.193.387-.459.682-.798.887s-.723.307-1.152.307c-.732 0-1.329-.27-1.792-.807-.463-.539-.693-1.428-.693-2.664 0-1.385.256-2.391.767-3.018.446-.547 1.046-.82 1.802-.82.562 0 1.024.158 1.385.473.358.317.573.752.645 1.309zm-3.589 3.086c0 .303.064.594.192.869.129.277.309.488.54.633s.474.217.728.217c.371 0 .689-.148.957-.449.268-.299.4-.705.4-1.221 0-.494-.132-.885-.396-1.168-.264-.285-.596-.428-.996-.428-.397 0-.733.143-1.011.428-.276.283-.414.658-.414 1.119z"/></g><g clip-path="url(#C)"><path d="m309.588 228.412v.846h-4.732c-.006-.213.028-.416.104-.611.12-.322.312-.639.578-.951s.648-.674 1.15-1.084c.777-.639 1.303-1.145 1.576-1.516.273-.373.41-.727.41-1.059 0-.348-.124-.641-.373-.881-.249-.238-.574-.359-.975-.359-.423 0-.762.127-1.016.381s-.382.605-.385 1.055l-.904-.092c.062-.674.295-1.188.699-1.541.403-.354.945-.529 1.625-.529.688 0 1.23.189 1.631.57s.602.854.602 1.416c0 .287-.059.568-.176.846-.117.275-.312.568-.584.873-.271.307-.724.727-1.355 1.26-.527.443-.865.744-1.016.902-.149.156-.273.316-.371.475h3.512z"/><path d="m310.53 225.726c0-.846.088-1.527.262-2.043s.434-.914.776-1.193c.343-.281.775-.42 1.296-.42.385 0 .722.076 1.012.232.289.154.528.377.717.668s.338.646.445 1.064.16.982.16 1.691c0 .84-.086 1.518-.258 2.035-.173.516-.432.914-.774 1.195s-.777.422-1.302.422c-.689 0-1.231-.246-1.625-.742-.473-.594-.709-1.563-.709-2.909zm.904 0c0 1.176.137 1.957.412 2.348.275.389.614.582 1.018.582s.744-.195 1.019-.586.413-1.172.413-2.344c0-1.178-.139-1.961-.413-2.348-.274-.389-.618-.582-1.028-.582-.403 0-.726.172-.967.514-.304.436-.454 1.242-.454 2.416z"/><path d="m319.403 229.257h-.879v-5.602c-.212.203-.49.404-.833.605-.343.203-.651.354-.925.455v-.85c.491-.232.921-.512 1.289-.84.367-.33.628-.648.781-.957h.566v7.189z"/><path d="m324.234 229.257h-.879v-5.602c-.212.203-.489.404-.833.605-.343.203-.651.354-.925.455v-.85c.491-.232.921-.512 1.289-.84.368-.33.628-.648.781-.957h.566v7.189z"/></g><g clip-path="url(#D)"><path d="m368.069 228.412v.846h-4.73c-.007-.213.027-.416.102-.611.121-.322.314-.639.579-.951s.648-.674 1.149-1.084c.778-.639 1.305-1.145 1.578-1.516.273-.373.41-.727.41-1.059 0-.348-.125-.641-.374-.881-.249-.238-.573-.359-.974-.359-.424 0-.762.127-1.016.381s-.383.605-.387 1.055l-.902-.092c.062-.674.294-1.188.697-1.541.404-.354.946-.529 1.627-.529.687 0 1.23.189 1.631.57s.6.854.6 1.416c0 .287-.059.568-.176.846-.117.275-.311.568-.583.873-.272.307-.724.727-1.354 1.26-.527.443-.866.744-1.016.902-.15.156-.273.316-.371.475h3.51z"/><path d="m369.012 225.726c0-.846.086-1.527.261-2.043s.433-.914.776-1.193c.344-.281.775-.42 1.297-.42.384 0 .721.076 1.01.232.29.154.529.377.719.668.188.291.336.646.443 1.064s.162.982.162 1.691c0 .84-.087 1.518-.26 2.035-.172.516-.43.914-.773 1.195s-.777.422-1.301.422c-.69 0-1.232-.246-1.627-.742-.471-.594-.707-1.563-.707-2.909zm.903 0c0 1.176.139 1.957.413 2.348.274.389.614.582 1.019.582.403 0 .742-.195 1.018-.586s.412-1.172.412-2.344c0-1.178-.137-1.961-.412-2.348-.275-.389-.617-.582-1.027-.582-.404 0-.727.172-.967.514-.304.436-.456 1.242-.456 2.416z"/><path d="m377.883 229.257h-.879v-5.602c-.211.203-.488.404-.832.605-.344.203-.652.354-.926.455v-.85c.492-.232.922-.512 1.289-.84.368-.33.629-.648.781-.957h.566v7.189z"/><path d="m384.696 223.851-.875.068c-.078-.344-.188-.596-.332-.752-.237-.25-.53-.375-.879-.375-.279 0-.525.078-.736.234-.277.201-.495.496-.654.883-.16.389-.243.939-.25 1.656.212-.322.471-.562.777-.719.306-.156.626-.234.961-.234.586 0 1.086.217 1.497.648.411.43.618.988.618 1.672 0 .449-.098.867-.291 1.252-.193.387-.46.682-.799.887-.338.205-.723.307-1.152.307-.732 0-1.329-.27-1.791-.807-.463-.539-.693-1.428-.693-2.664 0-1.385.255-2.391.766-3.018.446-.547 1.047-.82 1.803-.82.562 0 1.023.158 1.384.473.359.317.574.752.646 1.309zm-3.59 3.086c0 .303.064.594.193.869.129.277.309.488.539.633.231.145.475.217.729.217.371 0 .689-.148.957-.449.267-.299.4-.705.4-1.221 0-.494-.133-.885-.396-1.168-.264-.285-.596-.428-.996-.428-.396 0-.733.143-1.01.428-.277.283-.416.658-.416 1.119z"/></g><g clip-path="url(#E)"><path d="m368.541 3.38c0-.642.141-1.116.423-1.426.281-.31.662-.464 1.145-.464.498 0 .888.153 1.17.462.281.307.422.783.422 1.428 0 .642-.141 1.116-.422 1.426-.282.31-.664.464-1.146.464-.498 0-.888-.153-1.169-.462-.283-.307-.423-.783-.423-1.428zm1.069-.009c0 .466.054.778.161.938.081.117.194.176.337.176.146 0 .26-.059.342-.176.104-.159.156-.472.156-.938s-.053-.776-.156-.933c-.082-.12-.195-.181-.342-.181-.143 0-.256.059-.337.176-.107.159-.161.472-.161.938zm1.543 5.673h-1.016l3.813-7.554h.986zm2.217-1.879c0-.642.141-1.116.422-1.426.282-.31.667-.464 1.155-.464.491 0 .878.154 1.159.464.282.31.423.784.423 1.426 0 .645-.141 1.121-.423 1.431-.281.31-.662.464-1.145.464-.498 0-.888-.154-1.17-.464-.281-.31-.421-.787-.421-1.431zm1.069-.005c0 .466.054.776.161.933.082.12.193.181.337.181.146 0 .259-.059.337-.176.107-.159.161-.472.161-.938s-.052-.778-.156-.938c-.081-.117-.195-.176-.342-.176s-.259.059-.337.176c-.107.159-.161.472-.161.938z"/></g><g clip-path="url(#F)"><path d="m20.12 4.244c0-.642.141-1.116.422-1.426s.663-.464 1.145-.464c.498 0 .888.153 1.169.462.282.307.422.783.422 1.428 0 .642-.141 1.116-.422 1.426s-.663.464-1.145.464c-.498 0-.888-.153-1.169-.462-.281-.307-.422-.784-.422-1.428zm1.069-.01c0 .466.054.778.161.938.082.117.194.176.337.176.146 0 .26-.059.342-.176.104-.159.156-.472.156-.938s-.052-.776-.156-.933c-.082-.12-.195-.181-.342-.181-.143 0-.255.059-.337.176-.107.16-.161.472-.161.938zm1.543 5.674h-1.016l3.813-7.554h.986zm2.217-1.88c0-.642.141-1.116.422-1.426s.667-.464 1.155-.464c.492 0 .878.154 1.16.464s.422.784.422 1.426c0 .645-.141 1.121-.422 1.431s-.663.464-1.145.464c-.498 0-.888-.154-1.169-.464s-.423-.787-.423-1.431zm1.07-.005c0 .466.054.776.161.933.082.12.194.181.337.181.146 0 .259-.059.337-.176.107-.159.161-.472.161-.938s-.052-.778-.156-.938c-.082-.117-.195-.176-.342-.176s-.259.059-.337.176c-.108.16-.161.472-.161.938z"/></g><g clip-path="url(#G)"><path d="m54.457 48.578v-7.874h3.491c.702 0 1.235.07 1.601.212s.657.392.875.75c.218.357.328.753.328 1.187 0 .559-.181 1.029-.542 1.413-.362.383-.92.626-1.676.73.276.132.485.263.628.392.304.279.593.628.865 1.048l1.37 2.143h-1.311l-1.042-1.639c-.304-.473-.555-.834-.752-1.084-.197-.251-.374-.427-.529-.527-.156-.1-.314-.17-.476-.209-.118-.025-.312-.037-.58-.037h-1.208v3.496h-1.042zm1.042-4.399h2.24c.476 0 .849-.05 1.117-.148s.473-.256.612-.473.209-.452.209-.706c0-.372-.135-.679-.406-.919-.27-.239-.697-.359-1.281-.359h-2.492v2.605z"/><path d="m61.901 45.726c0-1.057.293-1.839.881-2.348.491-.423 1.088-.634 1.794-.634.784 0 1.425.257 1.923.771s.747 1.224.747 2.13c0 .734-.11 1.312-.331 1.732-.22.421-.541.747-.961.979-.421.233-.88.35-1.378.35-.798 0-1.444-.256-1.937-.768-.492-.512-.738-1.249-.738-2.212zm.994 0c0 .73.159 1.277.478 1.641s.72.545 1.203.545c.48 0 .879-.183 1.198-.548s.478-.922.478-1.671c0-.705-.16-1.239-.48-1.603-.321-.363-.719-.546-1.195-.546-.483 0-.884.182-1.203.543s-.479.909-.479 1.639z"/><path d="m72.117 48.578v-.838c-.444.645-1.047.967-1.81.967-.336 0-.651-.064-.942-.193-.292-.129-.509-.291-.65-.486s-.241-.434-.298-.717c-.04-.189-.059-.49-.059-.902v-3.534h.967v3.163c0 .506.02.846.059 1.021.061.254.19.453.387.599.197.145.44.218.73.218s.562-.075.816-.224.434-.351.54-.606c.105-.256.158-.628.158-1.115v-3.056h.967v5.704h-.865z"/><path d="m76.607 47.712.14.854c-.272.058-.516.086-.73.086-.351 0-.623-.056-.816-.167-.193-.11-.33-.257-.408-.438s-.118-.561-.118-1.141v-3.282h-.709v-.752h.709v-1.412l.961-.58v1.993h.972v.752h-.972v3.335c0 .276.017.453.051.532s.089.142.166.188.188.069.331.069c.107.001.248-.011.423-.037z"/><path d="m77.558 41.816v-1.112h.967v1.112zm0 6.762v-5.704h.967v5.704z"/><path d="m79.997 48.578v-5.704h.87v.812c.419-.627 1.024-.94 1.815-.94.344 0 .66.062.948.186.289.123.504.285.647.485.143.201.244.439.301.715.036.179.054.492.054.939v3.508h-.967v-3.47c0-.394-.038-.688-.113-.884s-.208-.351-.4-.467-.417-.175-.674-.175c-.412 0-.767.131-1.066.392-.299.262-.449.758-.449 1.488v3.115z"/><path d="m90.019 46.741.999.124c-.158.583-.449 1.036-.875 1.358s-.97.483-1.633.483c-.834 0-1.496-.257-1.985-.771-.488-.514-.733-1.234-.733-2.162 0-.96.247-1.704.741-2.234s1.135-.795 1.923-.795c.763 0 1.386.26 1.869.778.483.52.725 1.25.725 2.191 0 .058-.002.144-.005.258h-4.254c.036.627.213 1.107.532 1.439.319.334.716.5 1.192.5.354 0 .657-.093.908-.279s.449-.482.596-.89zm-3.174-1.564h3.185c-.043-.479-.165-.839-.365-1.079-.308-.372-.707-.559-1.198-.559-.444 0-.817.148-1.12.446s-.47.695-.502 1.192z"/><path d="m95.288 48.578v-5.704h.865v.8c.179-.279.417-.504.714-.674s.636-.255 1.015-.255c.422 0 .769.088 1.039.263.271.176.461.421.572.736.451-.666 1.039-.999 1.762-.999.566 0 1.001.156 1.305.47s.457.796.457 1.447v3.916h-.961v-3.594c0-.387-.031-.665-.094-.835-.062-.17-.176-.307-.341-.411s-.358-.155-.58-.155c-.401 0-.734.134-.999.4s-.397.693-.397 1.28v3.314h-.967v-3.706c0-.43-.079-.752-.236-.967s-.416-.322-.773-.322c-.272 0-.523.071-.755.215-.23.144-.398.353-.502.628-.104.276-.156.674-.156 1.193v2.959h-.968z"/><path d="m108.173 47.875c-.358.304-.703.519-1.034.645-.331.125-.687.188-1.066.188-.626 0-1.108-.153-1.445-.459-.336-.307-.505-.697-.505-1.174 0-.279.063-.534.19-.766.127-.23.294-.416.5-.556s.438-.245.695-.317c.19-.05.476-.098.859-.145.781-.093 1.355-.204 1.724-.333.003-.133.005-.217.005-.253 0-.394-.091-.671-.274-.832-.247-.219-.614-.328-1.101-.328-.455 0-.791.08-1.007.239-.217.159-.377.441-.481.847l-.945-.129c.086-.405.228-.731.424-.98s.481-.44.854-.575c.373-.134.804-.201 1.294-.201.487 0 .883.058 1.187.172s.528.259.671.433.244.393.301.658c.032.164.048.461.048.891v1.289c0 .899.021 1.468.062 1.706s.123.466.244.685h-1.01c-.096-.203-.161-.438-.19-.705zm-.08-2.161c-.351.144-.877.266-1.579.365-.397.058-.679.122-.843.193-.165.072-.292.177-.381.314s-.134.291-.134.459c0 .258.098.473.293.645s.48.258.856.258c.373 0 .704-.081.994-.244s.503-.386.639-.668c.104-.219.156-.541.156-.967v-.355z"/><path d="m110.569 48.578v-5.704h.87v.812c.419-.627 1.024-.94 1.815-.94.344 0 .66.062.948.186.289.123.504.285.647.485.143.201.244.439.301.715.036.179.054.492.054.939v3.508h-.967v-3.47c0-.394-.038-.688-.113-.884s-.208-.351-.4-.467-.417-.175-.674-.175c-.412 0-.767.131-1.066.392-.299.262-.449.758-.449 1.488v3.115z"/><path d="m120.425 48.578v-.838c-.444.645-1.047.967-1.81.967-.336 0-.651-.064-.942-.193-.292-.129-.509-.291-.65-.486s-.241-.434-.298-.717c-.04-.189-.059-.49-.059-.902v-3.534h.967v3.163c0 .506.02.846.059 1.021.061.254.19.453.387.599.197.145.44.218.73.218s.562-.075.816-.224.434-.351.54-.606c.105-.256.158-.628.158-1.115v-3.056h.967v5.704h-.865z"/><path d="m126.526 47.875c-.358.304-.703.519-1.034.645-.331.125-.687.188-1.066.188-.626 0-1.108-.153-1.445-.459-.336-.307-.505-.697-.505-1.174 0-.279.063-.534.19-.766.127-.23.294-.416.5-.556s.438-.245.695-.317c.19-.05.476-.098.859-.145.781-.093 1.355-.204 1.724-.333.003-.133.005-.217.005-.253 0-.394-.091-.671-.274-.832-.247-.219-.614-.328-1.101-.328-.455 0-.791.08-1.007.239-.217.159-.377.441-.481.847l-.945-.129c.086-.405.228-.731.424-.98s.481-.44.854-.575c.373-.134.804-.201 1.294-.201.487 0 .883.058 1.187.172s.528.259.671.433.244.393.301.658c.032.164.048.461.048.891v1.289c0 .899.021 1.468.062 1.706s.123.466.244.685h-1.01c-.096-.203-.161-.438-.19-.705zm-.08-2.161c-.351.144-.877.266-1.579.365-.397.058-.679.122-.843.193-.165.072-.292.177-.381.314s-.134.291-.134.459c0 .258.098.473.293.645s.48.258.856.258c.373 0 .704-.081.994-.244s.503-.386.639-.668c.104-.219.156-.541.156-.967v-.355z"/><path d="m128.9 48.578v-7.874h.967v7.874z"/></g><g clip-path="url(#H)"><path d="m139.494 123.535v-7.873h3.491c.702 0 1.235.07 1.601.211.365.143.657.393.875.75s.328.754.328 1.188c0 .559-.181 1.029-.542 1.412s-.92.627-1.676.73c.276.133.485.264.628.393.304.279.593.627.865 1.047l1.37 2.143h-1.311l-1.042-1.639c-.304-.473-.555-.834-.752-1.084s-.374-.426-.529-.527c-.156-.1-.314-.17-.476-.209-.118-.025-.312-.037-.58-.037h-1.208v3.496h-1.042zm1.042-4.399h2.24c.476 0 .849-.049 1.117-.148.269-.098.473-.256.612-.473s.209-.451.209-.705c0-.373-.135-.68-.406-.92-.27-.238-.697-.359-1.281-.359h-2.492v2.605z"/><path d="m146.938 120.683c0-1.057.293-1.838.881-2.348.491-.422 1.088-.633 1.794-.633.784 0 1.425.256 1.923.77s.747 1.225.747 2.131c0 .734-.11 1.311-.331 1.732-.22.42-.541.746-.961.979-.421.234-.88.35-1.378.35-.798 0-1.444-.256-1.937-.768-.492-.512-.738-1.25-.738-2.213zm.994 0c0 .73.159 1.277.478 1.641s.72.545 1.203.545c.48 0 .879-.182 1.198-.547s.478-.922.478-1.672c0-.705-.16-1.238-.48-1.602-.321-.363-.719-.547-1.195-.547-.483 0-.884.182-1.203.543s-.479.909-.479 1.639z"/><path d="m157.154 123.535v-.838c-.444.645-1.047.967-1.81.967-.336 0-.651-.064-.942-.193-.292-.129-.509-.291-.65-.486s-.241-.434-.298-.717c-.04-.189-.059-.49-.059-.902v-3.533h.967v3.162c0 .506.02.846.059 1.021.061.254.19.453.387.6.197.145.44.217.73.217s.562-.074.816-.223.434-.352.54-.607c.105-.256.158-.627.158-1.115v-3.055h.967v5.703h-.865z"/><path d="m161.644 122.669.14.855c-.272.057-.516.086-.73.086-.351 0-.623-.057-.816-.168-.193-.109-.33-.256-.408-.438-.079-.18-.118-.561-.118-1.141v-3.281h-.709v-.752h.709v-1.414l.961-.58v1.994h.972v.752h-.972v3.334c0 .277.017.453.051.533.034.078.089.141.166.188s.188.07.331.07c.106.001.248-.012.423-.038z"/><path d="m162.595 116.773v-1.111h.967v1.111zm0 6.762v-5.703h.967v5.703z"/><path d="m165.033 123.535v-5.703h.87v.811c.419-.627 1.024-.939 1.815-.939.344 0 .66.061.948.186.289.123.504.285.647.484.143.201.244.439.301.715.036.18.054.492.054.939v3.508h-.967v-3.469c0-.395-.038-.689-.113-.885s-.208-.35-.4-.467c-.192-.115-.417-.174-.674-.174-.412 0-.767.131-1.066.391-.299.262-.449.758-.449 1.488v3.115z"/><path d="m175.056 121.699.999.123c-.158.584-.449 1.037-.875 1.359s-.97.482-1.633.482c-.834 0-1.496-.256-1.985-.77-.488-.514-.733-1.234-.733-2.162 0-.961.247-1.705.741-2.234.494-.531 1.135-.795 1.923-.795.763 0 1.386.26 1.869.777.483.52.725 1.25.725 2.191 0 .059-.002.145-.005.258h-4.254c.036.627.213 1.107.532 1.439.319.334.716.5 1.192.5.354 0 .657-.092.908-.279.25-.184.449-.481.596-.889zm-3.175-1.565h3.185c-.043-.479-.165-.838-.365-1.078-.308-.373-.707-.559-1.198-.559-.444 0-.817.148-1.12.445-.302.298-.469.696-.502 1.192z"/><path d="m184.047 121.445.951.125c-.104.654-.37 1.168-.797 1.539-.428.369-.954.555-1.577.555-.781 0-1.408-.254-1.882-.766-.475-.51-.712-1.24-.712-2.193 0-.615.102-1.154.306-1.617.204-.461.515-.809.932-1.039s.871-.346 1.361-.346c.62 0 1.126.156 1.52.469.394.314.646.76.757 1.336l-.94.145c-.089-.383-.248-.672-.475-.865-.228-.193-.502-.289-.825-.289-.487 0-.883.174-1.187.523s-.457.9-.457 1.656c0 .768.147 1.324.44 1.67.293.348.677.521 1.149.521.379 0 .696-.115.951-.35.256-.232.417-.59.485-1.074z"/><path d="m185.465 120.683c0-1.057.293-1.838.881-2.348.491-.422 1.088-.633 1.794-.633.784 0 1.425.256 1.923.77s.747 1.225.747 2.131c0 .734-.11 1.311-.331 1.732-.22.42-.541.746-.961.979-.421.234-.88.35-1.378.35-.798 0-1.444-.256-1.937-.768-.492-.512-.738-1.25-.738-2.213zm.993 0c0 .73.159 1.277.478 1.641s.72.545 1.203.545c.48 0 .879-.182 1.198-.547s.478-.922.478-1.672c0-.705-.16-1.238-.48-1.602-.321-.363-.719-.547-1.195-.547-.483 0-.884.182-1.203.543s-.479.909-.479 1.639z"/><path d="m191.765 124.007.94.141c.04.289.148.5.328.633.24.18.567.27.983.27.448 0 .793-.09 1.037-.27.244-.178.408-.43.494-.752.05-.197.073-.609.07-1.24-.422.498-.949.746-1.579.746-.784 0-1.391-.283-1.821-.848-.43-.566-.645-1.244-.645-2.037 0-.543.099-1.045.295-1.506.197-.459.482-.814.857-1.066.374-.25.813-.375 1.318-.375.673 0 1.228.271 1.665.816v-.688h.892v4.93c0 .889-.09 1.518-.271 1.889s-.467.662-.859.877-.875.322-1.447.322c-.68 0-1.23-.152-1.649-.459-.42-.305-.622-.765-.608-1.383zm.8-3.425c0 .748.148 1.293.446 1.637s.669.516 1.117.516c.444 0 .816-.17 1.117-.512s.451-.879.451-1.609c0-.697-.155-1.225-.465-1.578-.31-.355-.683-.533-1.12-.533-.43 0-.795.176-1.096.525-.299.347-.45.866-.45 1.554z"/><path d="m198.06 123.535v-5.703h.87v.811c.419-.627 1.023-.939 1.815-.939.344 0 .659.061.948.186.288.123.504.285.646.484.144.201.244.439.301.715.036.18.055.492.055.939v3.508h-.967v-3.469c0-.395-.038-.689-.113-.885s-.209-.35-.4-.467c-.191-.115-.416-.174-.674-.174-.412 0-.768.131-1.066.391-.299.262-.449.758-.449 1.488v3.115z"/><path d="m204.183 116.773v-1.111h.967v1.111zm0 6.762v-5.703h.967v5.703z"/><path d="m208.733 122.669.139.855c-.271.057-.516.086-.73.086-.351 0-.623-.057-.816-.168-.193-.109-.329-.256-.408-.438-.078-.18-.117-.561-.117-1.141v-3.281h-.709v-.752h.709v-1.414l.961-.58v1.994h.973v.752h-.973v3.334c0 .277.018.453.051.533.034.078.09.141.166.188.078.047.188.07.331.07.106.001.247-.012.423-.038z"/><path d="m209.683 116.773v-1.111h.967v1.111zm0 6.762v-5.703h.967v5.703z"/><path d="m213.706 123.535-2.17-5.703h1.021l1.225 3.416c.132.369.254.752.365 1.148.086-.301.205-.662.359-1.084l1.268-3.48h.994l-2.16 5.703z"/><path d="m221.526 121.699 1 .123c-.158.584-.449 1.037-.876 1.359s-.97.482-1.633.482c-.835 0-1.495-.256-1.985-.77-.488-.514-.732-1.234-.732-2.162 0-.961.247-1.705.741-2.234.494-.531 1.136-.795 1.923-.795.763 0 1.386.26 1.869.777.483.52.725 1.25.725 2.191 0 .059-.002.145-.005.258h-4.254c.036.627.213 1.107.532 1.439.318.334.716.5 1.191.5.355 0 .658-.092.908-.279.25-.184.449-.481.596-.889zm-3.174-1.565h3.186c-.043-.479-.165-.838-.365-1.078-.309-.373-.707-.559-1.198-.559-.444 0-.817.148-1.12.445s-.471.696-.503 1.192z"/></g><g clip-path="url(#I)"><path d="m244.309 64.613v-7.874h1.068l4.137 6.183v-6.183h.998v7.874h-1.068l-4.136-6.188v6.188z"/><path d="m251.78 61.761c0-1.057.294-1.839.881-2.348.491-.423 1.089-.634 1.795-.634.783 0 1.425.257 1.922.771.498.514.747 1.224.747 2.13 0 .734-.11 1.312-.331 1.732-.219.421-.54.747-.961.979-.42.233-.88.35-1.377.35-.799 0-1.444-.256-1.938-.768-.492-.512-.738-1.249-.738-2.212zm.994 0c0 .73.159 1.277.479 1.641.318.363.719.545 1.203.545.479 0 .879-.183 1.197-.548s.479-.922.479-1.671c0-.705-.16-1.239-.48-1.603-.321-.363-.72-.546-1.195-.546-.484 0-.885.182-1.203.543-.321.362-.48.909-.48 1.639z"/><path d="m258.258 64.613v-5.704h.869v.812c.42-.627 1.024-.94 1.816-.94.344 0 .659.062.947.186.289.123.504.285.647.485.144.201.243.439.301.715.036.179.054.492.054.939v3.508h-.967v-3.47c0-.394-.037-.688-.113-.884-.074-.195-.208-.351-.399-.467-.192-.116-.417-.175-.675-.175-.411 0-.767.131-1.065.392-.3.262-.448.758-.448 1.488v3.115z"/><path d="m264 62.25v-.973h2.97v.973z"/><path d="m268.028 64.613v-5.704h.87v.864c.222-.404.427-.671.614-.8.189-.129.396-.193.621-.193.326 0 .657.104.994.312l-.334.896c-.236-.139-.473-.209-.709-.209-.211 0-.4.063-.568.19-.169.127-.289.304-.36.529-.107.344-.161.72-.161 1.128v2.986h-.967z"/><path d="m271.342 61.761c0-1.057.293-1.839.881-2.348.49-.423 1.088-.634 1.793-.634.785 0 1.426.257 1.924.771.497.514.746 1.224.746 2.13 0 .734-.109 1.312-.33 1.732s-.541.747-.961.979c-.422.233-.881.35-1.379.35-.798 0-1.443-.256-1.936-.768-.492-.512-.738-1.249-.738-2.212zm.993 0c0 .73.159 1.277.478 1.641.319.363.721.545 1.203.545.48 0 .879-.183 1.198-.548s.478-.922.478-1.671c0-.705-.16-1.239-.48-1.603s-.719-.546-1.195-.546c-.482 0-.884.182-1.203.543-.319.362-.479.909-.479 1.639z"/><path d="m281.557 64.613v-.838c-.443.645-1.047.967-1.81.967-.337 0-.651-.064-.942-.193-.292-.129-.509-.291-.65-.486s-.24-.434-.298-.717c-.04-.189-.06-.49-.06-.902v-3.534h.967v3.163c0 .506.02.846.06 1.021.062.254.19.453.387.599.196.145.44.218.73.218s.562-.075.816-.224.435-.351.54-.606.158-.628.158-1.115v-3.056h.967v5.704h-.865z"/><path d="m286.047 63.748.141.854c-.272.058-.516.086-.73.086-.352 0-.623-.056-.816-.167-.193-.11-.33-.257-.408-.438-.079-.181-.119-.561-.119-1.141v-3.282h-.709v-.752h.709v-1.413l.962-.58v1.993h.972v.752h-.972v3.335c0 .276.017.453.052.532.033.079.089.142.166.188.076.046.188.069.33.069.106.002.248-.011.422-.036z"/><path d="m286.999 57.851v-1.112h.967v1.112zm0 6.762v-5.704h.967v5.704z"/><path d="m289.437 64.613v-5.704h.87v.812c.419-.627 1.023-.94 1.815-.94.344 0 .659.062.948.186.288.123.504.285.646.485.144.201.244.439.301.715.036.179.055.492.055.939v3.508h-.967v-3.47c0-.394-.038-.688-.113-.884s-.209-.351-.4-.467-.416-.175-.674-.175c-.412 0-.768.131-1.066.392-.299.262-.448.758-.448 1.488v3.115z"/><path d="m299.459 62.776.999.124c-.157.583-.449 1.036-.876 1.358-.426.322-.97.483-1.633.483-.834 0-1.495-.257-1.984-.771-.488-.514-.732-1.234-.732-2.162 0-.96.246-1.704.74-2.234s1.136-.795 1.924-.795c.762 0 1.385.26 1.869.778.482.52.725 1.25.725 2.191 0 .058-.002.144-.006.258h-4.254c.036.627.213 1.107.532 1.439.319.334.716.5 1.192.5.354 0 .657-.093.908-.279.251-.185.45-.482.596-.89zm-3.173-1.564h3.185c-.043-.479-.165-.839-.365-1.079-.308-.372-.707-.559-1.198-.559-.443 0-.816.148-1.119.446-.304.298-.472.695-.503 1.192z"/><path d="m308.451 62.523.95.124c-.104.655-.369 1.168-.797 1.539-.428.37-.953.556-1.576.556-.781 0-1.408-.255-1.883-.766-.475-.51-.712-1.241-.712-2.193 0-.616.103-1.155.306-1.617.205-.462.516-.809.933-1.039.417-.231.87-.347 1.361-.347.62 0 1.126.156 1.521.47.394.313.646.759.757 1.335l-.94.146c-.089-.384-.248-.672-.475-.865-.228-.193-.502-.29-.824-.29-.487 0-.883.175-1.188.523-.305.35-.457.901-.457 1.657 0 .767.147 1.323.441 1.67.293.348.676.521 1.148.521.38 0 .697-.116.951-.35.254-.232.416-.59.484-1.074z"/><path d="m309.869 61.761c0-1.057.294-1.839.881-2.348.491-.423 1.089-.634 1.794-.634.784 0 1.426.257 1.923.771s.747 1.224.747 2.13c0 .734-.11 1.312-.331 1.732-.22.421-.54.747-.961.979-.421.233-.88.35-1.378.35-.799 0-1.443-.256-1.937-.768-.492-.512-.738-1.249-.738-2.212zm.993 0c0 .73.16 1.277.479 1.641s.72.545 1.203.545c.48 0 .879-.183 1.197-.548.319-.365.479-.922.479-1.671 0-.705-.16-1.239-.48-1.603s-.719-.546-1.195-.546c-.483 0-.885.182-1.203.543s-.48.909-.48 1.639z"/><path d="m316.168 65.085.94.14c.04.29.148.501.327.634.24.179.568.269.983.269.448 0 .793-.09 1.036-.269.244-.179.408-.43.494-.752.051-.197.074-.61.07-1.24-.422.497-.949.746-1.579.746-.784 0-1.392-.283-1.821-.849s-.645-1.244-.645-2.036c0-.544.1-1.046.296-1.506s.482-.815.856-1.066c.375-.251.814-.376 1.318-.376.674 0 1.229.272 1.666.816v-.688h.891v4.931c0 .888-.09 1.518-.271 1.888-.18.371-.467.663-.859.878-.391.215-.874.322-1.447.322-.68 0-1.229-.152-1.648-.459-.418-.305-.62-.766-.607-1.383zm.801-3.426c0 .748.148 1.294.445 1.638.298.344.67.516 1.117.516.444 0 .816-.171 1.117-.513s.451-.878.451-1.608c0-.698-.154-1.225-.465-1.579-.309-.354-.682-.532-1.119-.532-.43 0-.795.175-1.096.524-.299.348-.45.866-.45 1.554z"/><path d="m322.463 64.613v-5.704h.871v.812c.418-.627 1.023-.94 1.814-.94.344 0 .66.062.948.186.288.123.505.285.647.485.143.201.244.439.301.715.035.179.054.492.054.939v3.508h-.967v-3.47c0-.394-.038-.688-.112-.884-.076-.195-.209-.351-.4-.467s-.416-.175-.674-.175c-.412 0-.768.131-1.066.392-.299.262-.449.758-.449 1.488v3.115z"/><path d="m328.586 57.851v-1.112h.967v1.112zm0 6.762v-5.704h.967v5.704z"/><path d="m333.136 63.748.14.854c-.271.058-.516.086-.73.086-.352 0-.623-.056-.816-.167-.193-.11-.33-.257-.408-.438s-.118-.561-.118-1.141v-3.282h-.709v-.752h.709v-1.413l.962-.58v1.993h.972v.752h-.972v3.335c0 .276.017.453.051.532.033.079.09.142.166.188.077.046.188.069.33.069.106.002.248-.011.423-.036z"/><path d="m334.086 57.851v-1.112h.967v1.112zm0 6.762v-5.704h.967v5.704z"/><path d="m338.11 64.613-2.17-5.704h1.021l1.225 3.416c.132.369.255.752.365 1.149.086-.301.206-.662.36-1.085l1.268-3.48h.993l-2.159 5.704z"/><path d="m345.93 62.776.999.124c-.157.583-.449 1.036-.876 1.358-.426.322-.97.483-1.633.483-.834 0-1.495-.257-1.984-.771-.488-.514-.732-1.234-.732-2.162 0-.96.246-1.704.74-2.234s1.136-.795 1.924-.795c.762 0 1.385.26 1.869.778.482.52.725 1.25.725 2.191 0 .058-.002.144-.006.258h-4.254c.036.627.213 1.107.532 1.439.319.334.716.5 1.192.5.354 0 .657-.093.908-.279.25-.185.45-.482.596-.89zm-3.174-1.564h3.185c-.043-.479-.165-.839-.365-1.079-.308-.372-.707-.559-1.198-.559-.443 0-.816.148-1.119.446s-.471.695-.503 1.192z"/></g><g clip-path="url(#J)"><path d="m248.674 169.15v-7.875h1.069l4.136 6.184v-6.184h.999v7.875h-1.069l-4.135-6.188v6.188z"/><path d="m256.146 166.298c0-1.057.294-1.84.881-2.348.491-.424 1.089-.635 1.794-.635.784 0 1.426.258 1.923.771s.747 1.223.747 2.129c0 .734-.11 1.312-.331 1.732-.22.422-.54.748-.961.98s-.88.35-1.378.35c-.799 0-1.443-.256-1.937-.768-.492-.511-.738-1.248-.738-2.211zm.993 0c0 .73.16 1.277.479 1.641s.72.545 1.203.545c.48 0 .879-.184 1.197-.549.319-.365.479-.922.479-1.67 0-.705-.16-1.24-.48-1.604s-.719-.545-1.195-.545c-.483 0-.885.182-1.203.543s-.48.909-.48 1.639z"/><path d="m262.624 169.15v-5.705h.87v.812c.419-.627 1.024-.941 1.815-.941.344 0 .66.062.947.186.289.123.505.285.648.486s.243.439.301.715c.035.178.053.492.053.939v3.508h-.967v-3.471c0-.393-.037-.688-.112-.883s-.208-.352-.399-.467c-.192-.117-.417-.176-.675-.176-.411 0-.767.131-1.065.393-.3.262-.449.758-.449 1.488v3.115h-.967z"/><path d="m268.366 166.787v-.973h2.97v.973z"/><path d="m272.393 169.15v-5.705h.871v.865c.222-.404.427-.672.614-.801.188-.129.396-.193.62-.193.326 0 .658.104.994.312l-.333.896c-.236-.139-.473-.209-.709-.209-.212 0-.401.062-.569.189s-.288.305-.359.529c-.107.344-.162.721-.162 1.129v2.986h-.967z"/><path d="m275.708 166.298c0-1.057.293-1.84.881-2.348.49-.424 1.088-.635 1.794-.635.784 0 1.425.258 1.923.771s.746 1.223.746 2.129c0 .734-.109 1.312-.33 1.732-.22.422-.541.748-.961.98-.421.232-.881.35-1.378.35-.798 0-1.444-.256-1.937-.768-.492-.511-.738-1.248-.738-2.211zm.994 0c0 .73.158 1.277.478 1.641s.72.545 1.203.545c.479 0 .879-.184 1.198-.549.318-.365.478-.922.478-1.67 0-.705-.16-1.24-.48-1.604-.321-.363-.72-.545-1.195-.545-.483 0-.884.182-1.203.543s-.479.909-.479 1.639z"/><path d="m285.923 169.15v-.838c-.444.645-1.048.967-1.81.967-.337 0-.651-.064-.943-.193-.291-.129-.508-.291-.65-.486-.141-.195-.24-.434-.297-.717-.04-.189-.06-.49-.06-.902v-3.535h.967v3.164c0 .506.02.846.06 1.021.061.254.189.453.387.598.196.145.439.219.73.219.289 0 .562-.076.816-.225.254-.148.434-.35.539-.605s.158-.629.158-1.115v-3.057h.967v5.705h-.864z"/><path d="m290.414 168.285.14.854c-.271.059-.516.086-.73.086-.352 0-.623-.055-.816-.166s-.33-.258-.408-.438c-.078-.182-.118-.561-.118-1.141v-3.283h-.709v-.752h.709v-1.412l.962-.58v1.992h.972v.752h-.972v3.336c0 .275.017.453.051.531.033.08.09.143.166.189.077.045.188.068.33.068.105.001.248-.011.423-.036z"/><path d="m291.364 162.388v-1.113h.967v1.113zm0 6.762v-5.705h.967v5.705z"/><path d="m293.803 169.15v-5.705h.869v.812c.42-.627 1.024-.941 1.816-.941.344 0 .659.062.947.186.289.123.504.285.647.486s.243.439.301.715c.036.178.054.492.054.939v3.508h-.967v-3.471c0-.393-.037-.688-.113-.883-.074-.195-.208-.352-.399-.467-.192-.117-.417-.176-.675-.176-.411 0-.767.131-1.065.393-.3.262-.448.758-.448 1.488v3.115h-.967z"/><path d="m303.825 167.312 1 .125c-.158.582-.449 1.035-.876 1.357s-.97.484-1.633.484c-.835 0-1.495-.258-1.985-.771-.488-.514-.732-1.234-.732-2.162 0-.959.247-1.703.741-2.234.494-.529 1.136-.795 1.923-.795.763 0 1.386.26 1.869.779s.725 1.25.725 2.191c0 .057-.002.143-.005.258h-4.254c.036.627.213 1.107.532 1.439.318.334.716.5 1.191.5.355 0 .658-.094.908-.279.25-.187.449-.484.596-.892zm-3.174-1.562h3.186c-.043-.48-.165-.84-.365-1.08-.309-.371-.707-.559-1.198-.559-.444 0-.817.148-1.12.447-.304.297-.471.693-.503 1.192z"/><path d="m309.094 169.15v-5.705h.865v.801c.179-.279.416-.504.714-.674s.636-.256 1.015-.256c.423 0 .77.088 1.039.264.271.176.462.42.572.736.451-.666 1.039-1 1.762-1 .566 0 1.002.156 1.306.471.304.312.456.795.456 1.447v3.916h-.961v-3.594c0-.387-.031-.666-.094-.836s-.177-.307-.342-.41c-.164-.104-.357-.156-.58-.156-.4 0-.733.135-.998.4-.266.268-.398.693-.398 1.281v3.314h-.967v-3.707c0-.43-.078-.752-.236-.967-.157-.215-.415-.322-.773-.322-.271 0-.523.072-.754.215-.23.145-.398.354-.502.629s-.156.674-.156 1.193v2.959h-.968z"/><path d="m321.979 168.447c-.357.303-.702.518-1.033.645-.332.125-.688.188-1.066.188-.627 0-1.108-.154-1.445-.459-.336-.307-.504-.697-.504-1.174 0-.279.062-.535.189-.766.128-.23.295-.416.5-.557.206-.139.438-.244.695-.316.19-.051.477-.098.859-.145.781-.094 1.355-.205 1.725-.334.004-.133.006-.217.006-.252 0-.395-.092-.672-.274-.832-.247-.219-.614-.328-1.101-.328-.455 0-.791.08-1.008.238-.217.16-.377.441-.48.848l-.945-.129c.086-.406.228-.732.424-.98.197-.25.482-.441.854-.576.372-.133.804-.201 1.294-.201.487 0 .883.059 1.188.172.305.115.528.26.672.434.143.174.243.393.301.658.031.164.048.461.048.891v1.289c0 .898.021 1.467.062 1.705s.123.467.244.686h-1.01c-.101-.203-.166-.438-.195-.705zm-.08-2.16c-.352.143-.877.266-1.579.365-.397.057-.679.121-.843.193-.165.072-.293.176-.382.314-.089.137-.134.291-.134.459 0 .258.098.473.293.645.194.172.48.258.855.258.373 0 .704-.082.994-.244.29-.164.503-.387.639-.668.104-.219.156-.541.156-.967v-.355z"/><path d="m324.375 169.15v-5.705h.869v.812c.42-.627 1.024-.941 1.816-.941.344 0 .659.062.947.186.289.123.504.285.647.486s.243.439.301.715c.036.178.054.492.054.939v3.508h-.967v-3.471c0-.393-.037-.688-.113-.883-.074-.195-.208-.352-.399-.467-.192-.117-.417-.176-.675-.176-.411 0-.767.131-1.065.393-.3.262-.448.758-.448 1.488v3.115h-.967z"/><path d="m334.231 169.15v-.838c-.443.645-1.047.967-1.811.967-.336 0-.65-.064-.941-.193-.293-.129-.51-.291-.65-.486-.142-.195-.241-.434-.299-.717-.039-.189-.059-.49-.059-.902v-3.535h.967v3.164c0 .506.02.846.059 1.021.062.254.19.453.387.598s.441.219.73.219c.291 0 .562-.076.816-.225.255-.148.435-.35.541-.605.105-.256.158-.629.158-1.115v-3.057h.967v5.705h-.865z"/><path d="m340.333 168.447c-.357.303-.703.518-1.034.645-.331.125-.687.188-1.065.188-.627 0-1.109-.154-1.445-.459-.336-.307-.505-.697-.505-1.174 0-.279.063-.535.19-.766s.294-.416.5-.557c.205-.139.438-.244.695-.316.189-.051.477-.098.859-.145.781-.094 1.355-.205 1.725-.334.003-.133.005-.217.005-.252 0-.395-.091-.672-.274-.832-.246-.219-.613-.328-1.101-.328-.454 0-.79.08-1.007.238-.217.16-.377.441-.48.848l-.945-.129c.086-.406.227-.732.424-.98.197-.25.481-.441.854-.576.373-.133.805-.201 1.295-.201.486 0 .883.059 1.188.172.304.115.527.26.671.434s.243.393.301.658c.032.164.048.461.048.891v1.289c0 .898.021 1.467.062 1.705s.123.467.244.686h-1.01c-.102-.203-.166-.438-.195-.705zm-.081-2.16c-.352.143-.878.266-1.58.365-.396.057-.678.121-.843.193s-.292.176-.382.314c-.089.137-.134.291-.134.459 0 .258.098.473.293.645.194.172.48.258.856.258.373 0 .703-.082.994-.244.289-.164.502-.387.639-.668.104-.219.156-.541.156-.967v-.355z"/><path d="m342.707 169.15v-7.875h.967v7.875z"/></g></svg>