<svg enable-background="new 0 0 538.971 269.097" height="269.097" viewBox="0 0 538.971 269.097" width="538.971" xmlns="http://www.w3.org/2000/svg" xmlns:xlink="http://www.w3.org/1999/xlink"><clipPath id="a"><path d="m-55.794-3.904h617v273h-617z"/></clipPath><clipPath id="b"><path d="m-69.794-46.904h657v343h-657z"/></clipPath><clipPath id="c"><path d="m-69.794-46.904h657v343h-657z"/></clipPath><clipPath id="d"><path d="m-69.794-46.904h657v343h-657z"/></clipPath><clipPath id="e"><path d="m-69.794-46.904h657v343h-657z"/></clipPath><clipPath id="f"><path d="m-69.794-46.904h657v343h-657z"/></clipPath><clipPath id="g"><path d="m-69.794-46.904h657v343h-657z"/></clipPath><clipPath id="h"><path d="m-69.794-46.904h657v343h-657z"/></clipPath><clipPath id="i"><path d="m-69.794-46.904h657v343h-657z"/></clipPath><clipPath id="j"><path d="m-69.794-46.904h657v343h-657z"/></clipPath><clipPath id="k"><path d="m-69.794-46.904h657v343h-657z"/></clipPath><clipPath id="l"><path d="m-69.794-46.904h657v343h-657z"/></clipPath><clipPath id="m"><path d="m-69.794-46.904h657v343h-657z"/></clipPath><clipPath id="n"><path d="m-69.794-46.904h657v343h-657z"/></clipPath><clipPath id="o"><path d="m-69.794-46.904h657v343h-657z"/></clipPath><clipPath id="p"><path d="m-69.794-46.904h657v343h-657z"/></clipPath><clipPath id="q"><path d="m-69.794-46.904h657v343h-657z"/></clipPath><clipPath id="r"><path d="m-69.794-46.904h657v343h-657z"/></clipPath><path clip-rule="evenodd" d="m-70.794-47.904h659v345h-659z" fill="#fff" fill-rule="evenodd" opacity="0"/><path clip-path="url(#a)" d="m33.373 21.263h143v-15h-143zm8 34h135v-15h-135zm62 34h73v-15h-73zm0 34h73v-16h-73zm96 68h-23v-16h23zm184 34h-207v-16h207zm127 34h-334v-16h334z" fill="#3e669e"/><path clip-path="url(#b)" d="m176 268.358.001-271.54" fill="none" stroke="#e0e0e0" stroke-linejoin="round" stroke-miterlimit="10"/><g fill="#010202"><g clip-path="url(#c)"><path d="m519.548 251.507c-.364-.135-.635-.324-.811-.572-.176-.246-.264-.543-.264-.889 0-.52.188-.959.562-1.312.374-.355.872-.533 1.494-.533.625 0 1.127.182 1.508.545s.572.805.572 1.326c0 .332-.088.621-.262.865-.174.246-.438.436-.793.57.439.143.773.373 1.003.693.229.318.345.699.345 1.143 0 .611-.217 1.125-.65 1.543-.433.416-1.002.625-1.709.625-.706 0-1.275-.209-1.709-.629-.433-.418-.648-.939-.648-1.564 0-.465.117-.855.354-1.17.236-.313.572-.528 1.008-.641zm-.459 1.816c0 .25.061.492.179.727s.296.416.53.545.486.193.756.193c.42 0 .768-.135 1.041-.406.273-.27.41-.613.41-1.029 0-.424-.141-.773-.423-1.051-.282-.275-.634-.414-1.058-.414-.413 0-.756.137-1.027.41s-.408.615-.408 1.025zm.283-3.306c0 .34.109.615.328.83.218.215.501.322.85.322.338 0 .615-.105.832-.32.217-.213.324-.473.324-.783 0-.322-.111-.594-.334-.812-.223-.221-.5-.33-.832-.33-.336 0-.614.107-.836.322-.221.214-.332.472-.332.771z"/><path d="m523.815 249.167v-.844h4.635v.684c-.456.484-.908 1.129-1.355 1.934-.447.803-.793 1.631-1.037 2.48-.176.598-.289 1.254-.338 1.967h-.902c.01-.562.12-1.242.332-2.041.211-.797.515-1.566.91-2.307s.816-1.365 1.262-1.873z"/><path d="m529.485 249.948c0-.51.128-.945.385-1.303.258-.359.631-.537 1.119-.537.449 0 .82.16 1.115.48s.441.791.441 1.414c0 .605-.148 1.07-.446 1.398-.298.326-.665.49-1.101.49-.434 0-.794-.16-1.082-.482s-.431-.807-.431-1.46zm1.528-1.234c-.218 0-.398.094-.544.283-.146.188-.218.535-.218 1.039 0 .459.074.783.221.969.146.188.326.281.541.281.222 0 .404-.094.55-.283.146-.188.218-.533.218-1.035 0-.461-.074-.787-.221-.975-.147-.185-.329-.279-.547-.279zm.006 6.937 3.916-7.543h.713l-3.902 7.543zm3.095-1.943c0-.514.128-.949.385-1.307.258-.355.632-.533 1.123-.533.449 0 .822.16 1.116.48s.442.791.442 1.414c0 .605-.149 1.07-.447 1.398-.298.326-.666.49-1.105.49-.434 0-.794-.162-1.082-.486-.288-.321-.432-.808-.432-1.456zm1.533-1.234c-.222 0-.404.094-.55.283-.146.188-.218.535-.218 1.039 0 .457.074.779.221.967.146.189.326.283.541.283.225 0 .41-.094.555-.283.145-.188.217-.533.217-1.035 0-.461-.072-.787-.219-.975-.146-.186-.329-.279-.547-.279z"/></g><g clip-path="url(#d)"><path d="m391.21 219.569.923-.078c.068.449.228.787.476 1.014.25.227.55.34.901.34.423 0 .781-.16 1.074-.479.293-.32.439-.742.439-1.27 0-.502-.141-.896-.423-1.188-.281-.289-.65-.434-1.105-.434-.283 0-.539.064-.767.191-.228.129-.407.297-.537.502l-.825-.107.693-3.678h3.56v.84h-2.856l-.386 1.924c.43-.299.88-.449 1.353-.449.625 0 1.152.217 1.582.65.43.432.645.988.645 1.67 0 .646-.189 1.207-.566 1.68-.459.578-1.086.869-1.88.869-.651 0-1.183-.184-1.595-.547-.412-.364-.647-.846-.706-1.45z"/><path d="m399.589 221.444v-1.713h-3.105v-.807l3.267-4.639h.718v4.639h.967v.807h-.967v1.713zm0-2.519v-3.227l-2.241 3.227z"/><path d="m402.499 216.005c0-.51.129-.945.386-1.303.257-.359.63-.537 1.118-.537.449 0 .821.16 1.115.48.295.32.442.791.442 1.414 0 .605-.149 1.07-.446 1.398-.299.326-.666.49-1.102.49-.434 0-.793-.16-1.082-.482-.286-.321-.431-.808-.431-1.46zm1.528-1.234c-.218 0-.399.094-.544.283-.146.188-.218.535-.218 1.039 0 .459.073.783.22.969.146.188.327.281.542.281.222 0 .404-.094.55-.283.145-.188.217-.533.217-1.035 0-.461-.073-.787-.22-.975-.146-.186-.329-.279-.547-.279zm.005 6.937 3.916-7.543h.713l-3.901 7.543zm3.096-1.943c0-.514.129-.949.386-1.307.257-.355.632-.533 1.123-.533.449 0 .821.16 1.116.48.294.32.441.791.441 1.414 0 .605-.148 1.07-.447 1.398-.297.326-.666.49-1.105.49-.434 0-.793-.162-1.082-.486-.288-.322-.432-.808-.432-1.456zm1.533-1.235c-.221 0-.404.094-.549.283-.146.188-.218.535-.218 1.039 0 .457.073.779.22.967.146.189.327.283.542.283.225 0 .409-.094.554-.283.146-.188.218-.533.218-1.035 0-.461-.073-.787-.22-.975-.146-.185-.328-.279-.547-.279z"/></g><g clip-path="url(#e)"><path d="m211.064 182.097-.874.068c-.078-.344-.189-.596-.332-.752-.238-.25-.531-.375-.879-.375-.28 0-.526.078-.737.234-.277.201-.495.496-.654.883-.16.389-.243.939-.249 1.656.211-.322.47-.562.776-.719s.626-.234.962-.234c.586 0 1.085.217 1.497.648.412.43.618.988.618 1.672 0 .449-.097.867-.291 1.252-.194.387-.46.682-.798.887s-.723.307-1.152.307c-.732 0-1.33-.27-1.792-.807-.462-.539-.693-1.428-.693-2.664 0-1.385.255-2.391.767-3.018.446-.547 1.046-.82 1.802-.82.563 0 1.024.158 1.384.473.358.316.574.752.645 1.309zm-3.588 3.086c0 .303.064.594.193.869.128.277.309.488.54.633s.474.217.728.217c.371 0 .69-.148.957-.449.267-.299.4-.705.4-1.221 0-.494-.132-.885-.396-1.168-.264-.285-.596-.428-.996-.428-.397 0-.734.143-1.011.428-.277.283-.415.658-.415 1.119z"/><path d="m212.231 182.063c0-.512.128-.945.386-1.305.257-.357.63-.537 1.118-.537.449 0 .821.16 1.116.482.294.32.442.791.442 1.412 0 .605-.149 1.072-.447 1.4-.298.326-.665.49-1.101.49-.433 0-.793-.162-1.082-.484s-.432-.807-.432-1.458zm1.529-1.236c-.218 0-.399.096-.544.283-.145.189-.217.535-.217 1.041 0 .459.073.781.22.969s.327.281.542.281c.221 0 .404-.096.549-.283.145-.189.217-.535.217-1.035 0-.463-.073-.787-.22-.975s-.329-.281-.547-.281zm.005 6.94 3.916-7.545h.713l-3.901 7.545zm3.095-1.944c0-.516.128-.949.386-1.307.257-.355.631-.535 1.123-.535.449 0 .821.16 1.116.482.294.32.442.791.442 1.412 0 .605-.149 1.072-.447 1.4-.298.326-.667.49-1.106.49-.433 0-.793-.162-1.082-.486s-.432-.809-.432-1.456zm1.534-1.236c-.221 0-.404.096-.549.283-.145.189-.217.535-.217 1.041 0 .455.073.777.22.967.146.188.327.283.542.283.225 0 .409-.096.554-.283.145-.189.217-.535.217-1.035 0-.463-.073-.787-.22-.975s-.329-.281-.547-.281z"/></g><g clip-path="url(#f)"><path d="m183.416 150.03c0-.848.087-1.527.261-2.045.174-.516.433-.912.776-1.193.343-.279.775-.42 1.296-.42.384 0 .721.078 1.011.232s.529.377.718.668c.189.293.337.646.444 1.064.107.42.161.982.161 1.693 0 .84-.086 1.518-.259 2.033s-.431.914-.774 1.195c-.343.283-.777.424-1.301.424-.69 0-1.232-.248-1.626-.742-.472-.594-.707-1.565-.707-2.909zm.903 0c0 1.174.138 1.957.413 2.346s.614.584 1.018.584.743-.195 1.018-.586.413-1.172.413-2.344c0-1.18-.138-1.961-.413-2.35-.275-.387-.618-.58-1.028-.58-.404 0-.726.17-.967.512-.303.438-.454 1.242-.454 2.418z"/><path d="m189.143 148.12c0-.51.128-.945.386-1.303.257-.359.63-.537 1.118-.537.449 0 .821.16 1.116.48s.442.791.442 1.414c0 .605-.149 1.07-.447 1.398-.298.326-.665.49-1.101.49-.433 0-.793-.16-1.082-.482s-.432-.808-.432-1.46zm1.528-1.234c-.218 0-.399.094-.544.283-.145.188-.217.535-.217 1.039 0 .459.073.783.22.969.146.188.327.281.542.281.221 0 .404-.094.549-.283.145-.188.217-.533.217-1.035 0-.461-.073-.787-.22-.975-.146-.186-.328-.279-.547-.279zm.005 6.937 3.916-7.543h.713l-3.901 7.543zm3.096-1.943c0-.514.128-.949.386-1.307.257-.355.631-.533 1.123-.533.449 0 .821.16 1.116.48s.442.791.442 1.414c0 .605-.149 1.07-.447 1.398-.298.326-.667.49-1.106.49-.433 0-.793-.162-1.082-.486-.288-.321-.432-.808-.432-1.456zm1.533-1.234c-.221 0-.404.094-.549.283-.145.188-.217.535-.217 1.039 0 .457.073.779.22.967.146.189.327.283.542.283.225 0 .409-.094.554-.283.145-.188.217-.533.217-1.035 0-.461-.073-.787-.22-.975-.146-.186-.329-.279-.547-.279z"/></g><g clip-path="url(#g)"><path d="m72.86 117.47v-.884h2.7v.884z"/><path d="m79.599 119.618h-.879v-5.601c-.211.202-.489.403-.833.605s-.652.354-.925.454v-.85c.492-.231.921-.511 1.289-.84s.628-.647.781-.957h.566v7.189z"/><path d="m81.981 117.963.845-.078c.072.397.208.686.41.864s.46.269.776.269c.27 0 .507-.062.71-.186s.37-.289.5-.495c.13-.207.239-.486.327-.838s.132-.71.132-1.074c0-.039-.001-.098-.005-.176-.176.28-.416.507-.72.682-.304.174-.634.261-.989.261-.592 0-1.094-.215-1.504-.645s-.615-.996-.615-1.699c0-.726.214-1.311.642-1.753s.964-.664 1.609-.664c.465 0 .891.125 1.277.376s.679.608.879 1.071c.2.465.3 1.136.3 2.015 0 .915-.099 1.644-.298 2.185-.199.543-.494.955-.886 1.238s-.852.425-1.379.425c-.56 0-1.017-.155-1.372-.466-.354-.312-.567-.749-.639-1.312zm3.599-3.159c0-.505-.134-.905-.403-1.201s-.592-.444-.969-.444c-.391 0-.731.159-1.021.479s-.435.732-.435 1.24c0 .456.138.826.413 1.11.275.285.614.428 1.018.428.407 0 .741-.143 1.003-.428.263-.285.394-.679.394-1.184z"/><path d="m87.577 114.179c0-.511.128-.945.386-1.304s.63-.537 1.118-.537c.449 0 .821.16 1.116.481.294.32.442.791.442 1.413 0 .605-.149 1.071-.447 1.399-.298.326-.665.49-1.101.49-.433 0-.793-.161-1.082-.483s-.432-.808-.432-1.459zm1.528-1.236c-.218 0-.399.095-.544.283s-.217.535-.217 1.04c0 .459.073.782.22.969.146.188.327.281.542.281.221 0 .404-.095.549-.283s.217-.534.217-1.035c0-.462-.073-.787-.22-.975-.146-.186-.328-.28-.547-.28zm.005 6.939 3.916-7.544h.713l-3.901 7.544zm3.096-1.944c0-.515.128-.949.386-1.307.257-.355.631-.534 1.123-.534.449 0 .821.16 1.116.481.294.32.442.791.442 1.413 0 .605-.149 1.071-.447 1.399-.298.326-.667.49-1.106.49-.433 0-.793-.162-1.082-.486-.288-.322-.432-.808-.432-1.456zm1.533-1.235c-.221 0-.404.095-.549.283s-.217.535-.217 1.04c0 .456.073.778.22.967s.327.283.542.283c.225 0 .409-.095.554-.283s.217-.534.217-1.035c0-.462-.073-.787-.22-.975-.146-.186-.328-.28-.547-.28z"/></g><g clip-path="url(#h)"><path d="m72.86 83.526v-.884h2.7v.884z"/><path d="m79.599 85.675h-.879v-5.601c-.211.202-.489.403-.833.605s-.652.354-.925.454v-.85c.492-.231.921-.511 1.289-.84s.628-.647.781-.957h.566v7.189z"/><path d="m81.981 84.02.845-.078c.072.397.208.686.41.864s.46.269.776.269c.27 0 .507-.062.71-.186s.37-.289.5-.495c.13-.207.239-.486.327-.838s.132-.71.132-1.074c0-.039-.001-.098-.005-.176-.176.28-.416.507-.72.682-.304.174-.634.261-.989.261-.592 0-1.094-.215-1.504-.645s-.615-.996-.615-1.699c0-.726.214-1.311.642-1.753s.964-.664 1.609-.664c.465 0 .891.125 1.277.376s.679.608.879 1.071c.2.465.3 1.136.3 2.015 0 .915-.099 1.644-.298 2.185-.199.543-.494.955-.886 1.238s-.852.425-1.379.425c-.56 0-1.017-.155-1.372-.466-.354-.312-.567-.749-.639-1.312zm3.599-3.16c0-.505-.134-.905-.403-1.201s-.592-.444-.969-.444c-.391 0-.731.159-1.021.479s-.435.732-.435 1.24c0 .456.138.826.413 1.11.275.285.614.428 1.018.428.407 0 .741-.143 1.003-.428.263-.284.394-.679.394-1.184z"/><path d="m87.577 80.235c0-.511.128-.945.386-1.304s.63-.537 1.118-.537c.449 0 .821.16 1.116.481.294.32.442.791.442 1.413 0 .605-.149 1.071-.447 1.399-.298.326-.665.49-1.101.49-.433 0-.793-.161-1.082-.483s-.432-.807-.432-1.459zm1.528-1.235c-.218 0-.399.095-.544.283s-.217.535-.217 1.04c0 .459.073.782.22.969.146.188.327.281.542.281.221 0 .404-.095.549-.283s.217-.534.217-1.035c0-.462-.073-.787-.22-.975-.146-.186-.328-.28-.547-.28zm.005 6.938 3.916-7.544h.713l-3.901 7.544zm3.096-1.943c0-.515.128-.949.386-1.307.257-.355.631-.534 1.123-.534.449 0 .821.16 1.116.481.294.32.442.791.442 1.413 0 .605-.149 1.071-.447 1.399-.298.326-.667.49-1.106.49-.433 0-.793-.162-1.082-.486-.288-.322-.432-.808-.432-1.456zm1.533-1.235c-.221 0-.404.095-.549.283s-.217.535-.217 1.04c0 .456.073.778.22.967s.327.283.542.283c.225 0 .409-.095.554-.283s.217-.534.217-1.035c0-.462-.073-.787-.22-.975-.146-.186-.328-.28-.547-.28z"/></g><g clip-path="url(#i)"><path d="m11.292 49.583v-.884h2.7v.884z"/><path d="m14.724 49.842.879-.117c.101.498.272.856.515 1.077.243.219.538.329.886.329.414 0 .763-.144 1.047-.43s.427-.642.427-1.064c0-.403-.132-.736-.396-.999-.264-.262-.599-.393-1.006-.393-.166 0-.373.032-.62.098l.098-.771c.059.007.106.01.142.01.375 0 .711-.098 1.011-.293s.449-.496.449-.903c0-.322-.109-.589-.327-.801s-.5-.317-.845-.317c-.342 0-.626.107-.854.322s-.375.537-.439.967l-.879-.156c.107-.589.352-1.046.732-1.369.381-.324.854-.486 1.421-.486.391 0 .75.084 1.079.252.329.167.58.396.754.686s.261.598.261.923c0 .31-.083.591-.249.845s-.412.456-.737.605c.423.098.752.301.986.607.234.309.352.693.352 1.155 0 .625-.228 1.155-.684 1.589-.456.436-1.032.652-1.729.652-.628 0-1.15-.188-1.565-.562s-.65-.86-.709-1.456z"/><path d="m20.281 49.856.923-.078c.068.449.227.787.476 1.014.249.226.549.339.901.339.423 0 .781-.159 1.074-.479s.439-.742.439-1.27c0-.501-.141-.896-.422-1.187s-.65-.435-1.106-.435c-.283 0-.539.064-.767.192-.228.129-.407.296-.537.501l-.825-.107.693-3.677h3.56v.84h-2.856l-.386 1.924c.43-.3.88-.449 1.353-.449.625 0 1.152.217 1.582.649s.645.989.645 1.67c0 .647-.189 1.208-.566 1.68-.459.579-1.085.869-1.88.869-.651 0-1.183-.183-1.594-.547s-.649-.846-.707-1.449z"/><path d="m26.008 46.292c0-.511.128-.945.386-1.304s.63-.537 1.118-.537c.449 0 .821.16 1.116.481.294.32.442.791.442 1.413 0 .605-.149 1.071-.447 1.399-.298.326-.665.49-1.101.49-.433 0-.793-.161-1.082-.483s-.432-.808-.432-1.459zm1.529-1.235c-.218 0-.399.095-.544.283s-.217.535-.217 1.04c0 .459.073.782.22.969.146.188.327.281.542.281.221 0 .404-.095.549-.283s.217-.534.217-1.035c0-.462-.073-.787-.22-.975-.147-.187-.329-.28-.547-.28zm.005 6.938 3.916-7.544h.713l-3.901 7.544zm3.095-1.943c0-.515.128-.949.386-1.307.257-.355.631-.534 1.123-.534.449 0 .821.16 1.116.481.294.32.442.791.442 1.413 0 .605-.149 1.071-.447 1.399-.298.326-.667.49-1.106.49-.433 0-.793-.162-1.082-.486-.288-.322-.432-.809-.432-1.456zm1.533-1.236c-.221 0-.404.095-.549.283s-.217.535-.217 1.04c0 .456.073.778.22.967s.327.283.542.283c.225 0 .409-.095.554-.283s.217-.534.217-1.035c0-.462-.073-.787-.22-.975-.146-.186-.328-.28-.547-.28z"/></g><g clip-path="url(#j)"><path d="m3.595 15.642v-.884h2.7v.884z"/><path d="m7.028 15.9.879-.117c.101.498.272.856.515 1.077.243.219.538.329.886.329.414 0 .763-.144 1.047-.43s.427-.642.427-1.064c0-.403-.132-.736-.396-.999-.264-.262-.599-.393-1.006-.393-.166 0-.373.032-.62.098l.098-.771c.059.007.107.01.142.01.375 0 .711-.098 1.011-.293s.449-.496.449-.903c0-.322-.109-.589-.327-.801s-.5-.317-.845-.317c-.342 0-.626.107-.854.322s-.375.537-.439.967l-.879-.156c.107-.589.352-1.046.732-1.369.381-.324.854-.486 1.421-.486.391 0 .75.084 1.079.252.329.167.58.396.754.686s.261.598.261.923c0 .31-.083.591-.249.845s-.412.456-.737.605c.423.098.752.301.986.607.234.309.352.693.352 1.155 0 .625-.228 1.155-.684 1.589-.455.434-1.031.651-1.728.651-.628 0-1.15-.188-1.565-.562s-.652-.859-.71-1.455z"/><path d="m12.643 11.569v-.845h4.634v.684c-.456.485-.907 1.13-1.355 1.934s-.793 1.631-1.038 2.48c-.176.599-.288 1.255-.337 1.968h-.903c.01-.563.121-1.243.332-2.041s.515-1.566.911-2.307.816-1.365 1.262-1.873z"/><path d="m18.312 12.351c0-.511.128-.945.386-1.304s.63-.537 1.118-.537c.449 0 .821.16 1.116.481.294.32.442.791.442 1.413 0 .605-.149 1.071-.447 1.399-.298.326-.665.49-1.101.49-.433 0-.793-.161-1.082-.483s-.432-.808-.432-1.459zm1.528-1.236c-.218 0-.399.095-.544.283s-.217.535-.217 1.04c0 .459.073.782.22.969.146.188.327.281.542.281.221 0 .404-.095.549-.283s.217-.534.217-1.035c0-.462-.073-.787-.22-.975-.146-.186-.328-.28-.547-.28zm.005 6.939 3.916-7.544h.713l-3.901 7.544zm3.096-1.944c0-.515.128-.949.386-1.307.257-.355.631-.534 1.123-.534.449 0 .821.16 1.116.481.294.32.442.791.442 1.413 0 .605-.149 1.071-.447 1.399-.298.326-.667.49-1.106.49-.433 0-.793-.162-1.082-.486-.288-.322-.432-.808-.432-1.456zm1.533-1.235c-.221 0-.404.095-.549.283s-.217.535-.217 1.04c0 .456.073.778.22.967s.327.283.542.283c.225 0 .409-.095.554-.283s.217-.534.217-1.035c0-.462-.073-.787-.22-.975-.146-.186-.329-.28-.547-.28z"/></g><g clip-path="url(#k)"><path d="m29.896 252.878.947.24c-.199.777-.556 1.371-1.072 1.779s-1.146.613-1.892.613c-.771 0-1.399-.158-1.882-.473-.483-.312-.851-.768-1.104-1.363s-.378-1.236-.378-1.92c0-.744.143-1.395.427-1.951.285-.555.69-.977 1.216-1.264.526-.289 1.104-.432 1.736-.432.716 0 1.318.182 1.807.547.488.363.829.877 1.021 1.537l-.933.221c-.166-.521-.407-.9-.723-1.139-.316-.236-.713-.355-1.191-.355-.55 0-1.01.131-1.379.395s-.629.617-.779 1.062c-.15.443-.225.902-.225 1.375 0 .607.089 1.139.266 1.594.177.453.453.793.828 1.018s.78.338 1.216.338c.531 0 .98-.154 1.348-.459.367-.306.616-.76.746-1.363z"/><path d="m31.571 252.796c0-.961.267-1.672.801-2.135.446-.383.99-.576 1.631-.576.713 0 1.295.234 1.748.701s.679 1.113.679 1.936c0 .668-.1 1.193-.3 1.574-.2.383-.492.68-.874.893-.382.211-.8.316-1.252.316-.726 0-1.312-.232-1.76-.697-.449-.467-.673-1.137-.673-2.012zm.904 0c0 .664.145 1.16.435 1.49.29.332.654.496 1.094.496.436 0 .799-.166 1.089-.498s.435-.838.435-1.518c0-.643-.146-1.127-.437-1.459-.292-.33-.653-.494-1.086-.494-.439 0-.804.164-1.094.492-.291.331-.436.827-.436 1.491z"/><path d="m37.46 255.388v-5.186h.786v.729c.163-.254.379-.459.649-.613s.578-.232.923-.232c.384 0 .699.08.945.24.246.158.419.383.52.668.41-.605.944-.908 1.602-.908.514 0 .91.143 1.187.428s.415.723.415 1.316v3.559h-.874v-3.266c0-.352-.028-.605-.085-.76s-.16-.279-.31-.373c-.15-.096-.326-.143-.527-.143-.365 0-.667.121-.908.363-.241.244-.361.631-.361 1.166v3.012h-.879v-3.369c0-.391-.072-.684-.215-.879s-.377-.293-.703-.293c-.248 0-.476.066-.686.195-.21.131-.362.32-.457.572-.094.25-.142.611-.142 1.084v2.689h-.88z"/><path d="m45.79 255.388v-5.186h.786v.729c.163-.254.379-.459.649-.613s.578-.232.923-.232c.384 0 .699.08.945.24.246.158.419.383.52.668.41-.605.944-.908 1.602-.908.514 0 .91.143 1.187.428s.415.723.415 1.316v3.559h-.874v-3.266c0-.352-.028-.605-.085-.76s-.16-.279-.31-.373c-.15-.096-.326-.143-.527-.143-.365 0-.667.121-.908.363-.241.244-.361.631-.361 1.166v3.012h-.879v-3.369c0-.391-.072-.684-.215-.879s-.377-.293-.703-.293c-.248 0-.476.066-.686.195-.21.131-.362.32-.457.572-.094.25-.142.611-.142 1.084v2.689h-.88z"/><path d="m57.519 255.388v-.762c-.404.586-.952.879-1.646.879-.306 0-.592-.059-.857-.176s-.462-.264-.591-.441-.219-.395-.271-.652c-.036-.172-.054-.445-.054-.82v-3.213h.879v2.877c0 .459.018.768.054.928.055.23.172.412.352.543.179.133.4.199.664.199s.511-.068.742-.203.395-.318.491-.553c.096-.232.144-.57.144-1.012v-2.779h.879v5.186h-.786z"/><path d="m59.682 255.388v-5.186h.791v.738c.381-.57.931-.855 1.65-.855.312 0 .6.057.862.168.262.113.458.26.588.443.13.182.221.398.273.648.033.164.049.447.049.855v3.188h-.879v-3.154c0-.357-.034-.625-.103-.803s-.189-.318-.364-.426c-.174-.105-.378-.158-.613-.158-.375 0-.697.119-.969.357-.272.236-.408.688-.408 1.352v2.832h-.877z"/><path d="m65.248 249.241v-1.012h.879v1.012zm0 6.147v-5.186h.879v5.186z"/><path d="m69.384 254.603.127.775c-.248.053-.469.078-.664.078-.319 0-.566-.051-.742-.15-.176-.102-.299-.234-.371-.398s-.107-.51-.107-1.037v-2.984h-.645v-.684h.645v-1.283l.874-.527v1.811h.884v.684h-.885v3.033c0 .25.016.412.046.482.031.072.082.129.151.172.07.041.17.062.3.062.099-.001.227-.013.387-.034z"/><path d="m70.204 257.386-.098-.826c.192.053.36.078.503.078.195 0 .352-.031.469-.098.117-.064.213-.156.288-.273.055-.088.145-.305.269-.654.016-.049.042-.119.078-.215l-1.968-5.195h.947l1.079 3.004c.14.381.265.781.376 1.201.101-.404.221-.799.361-1.182l1.108-3.023h.879l-1.973 5.273c-.211.57-.376.963-.493 1.178-.156.289-.335.502-.537.637s-.443.203-.723.203c-.168-.001-.356-.038-.565-.108z"/><path d="m82.113 254.544c-.29.322-.605.562-.947.725-.342.16-.711.242-1.108.242-.732 0-1.313-.248-1.743-.742-.348-.404-.522-.855-.522-1.354 0-.441.143-.842.427-1.199.285-.355.71-.668 1.277-.939-.322-.371-.537-.672-.645-.902-.107-.232-.161-.455-.161-.67 0-.43.168-.803.505-1.121.337-.316.761-.475 1.272-.475.488 0 .888.148 1.199.449.311.299.466.658.466 1.078 0 .682-.451 1.262-1.353 1.744l1.284 1.635c.146-.285.26-.617.342-.996l.913.195c-.156.625-.368 1.141-.635 1.543.329.438.702.803 1.118 1.1l-.591.697c-.354-.227-.72-.565-1.098-1.01zm-.551-.693-1.611-1.998c-.475.283-.796.547-.962.789s-.249.482-.249.721c0 .289.116.59.347.902s.558.469.981.469c.264 0 .536-.082.818-.246s.506-.378.676-.637zm-1.236-3.038c.381-.225.627-.422.74-.592.112-.168.168-.355.168-.561 0-.244-.077-.443-.232-.6-.155-.154-.348-.23-.579-.23-.238 0-.436.076-.593.229-.158.154-.237.34-.237.562 0 .109.028.227.085.348.057.123.143.252.256.389z"/><path d="m87.582 255.388v-7.158h2.7c.475 0 .838.023 1.089.068.352.059.646.17.884.334.238.166.429.396.574.691.145.297.217.623.217.977 0 .609-.194 1.125-.581 1.545-.387.422-1.087.633-2.1.633h-1.836v2.91zm.947-3.754h1.851c.612 0 1.046-.115 1.304-.342.257-.229.386-.549.386-.963 0-.299-.076-.555-.227-.77-.151-.213-.351-.354-.598-.422-.16-.041-.454-.062-.884-.062h-1.831v2.559z"/><path d="m97.689 253.718.908.113c-.143.529-.409.941-.796 1.234s-.882.439-1.484.439c-.758 0-1.36-.232-1.804-.701-.444-.467-.667-1.121-.667-1.965 0-.871.225-1.549.674-2.031.449-.48 1.032-.723 1.748-.723.693 0 1.26.236 1.699.709.439.471.659 1.135.659 1.992 0 .051-.001.129-.005.234h-3.867c.033.568.194 1.006.483 1.309s.651.453 1.084.453c.322 0 .597-.084.825-.254.229-.167.41-.438.543-.809zm-2.885-1.42h2.896c-.039-.438-.15-.764-.332-.982-.28-.338-.643-.508-1.089-.508-.404 0-.743.135-1.018.406-.276.269-.428.631-.457 1.084z"/><path d="m99.691 255.388v-5.186h.791v.787c.202-.369.388-.611.559-.729s.359-.176.564-.176c.296 0 .597.096.903.283l-.303.816c-.215-.127-.43-.191-.645-.191-.192 0-.365.059-.518.174s-.262.275-.327.48c-.098.312-.146.654-.146 1.025v2.715h-.878z"/><path d="m102.68 253.841.869-.137c.049.348.185.615.408.801s.535.277.935.277c.404 0 .703-.082.898-.246s.293-.357.293-.578c0-.199-.086-.355-.259-.469-.121-.078-.42-.178-.898-.299-.645-.162-1.091-.303-1.34-.422s-.438-.283-.566-.494c-.128-.209-.193-.441-.193-.695 0-.23.053-.445.159-.643.106-.195.25-.359.432-.49.137-.1.323-.186.559-.256s.489-.105.759-.105c.407 0 .764.059 1.072.176s.535.275.681.477c.146.199.248.469.303.803l-.859.117c-.039-.266-.152-.475-.339-.625-.187-.148-.452-.225-.793-.225-.404 0-.692.066-.864.201-.172.133-.259.289-.259.469 0 .113.036.217.107.307.072.096.184.174.337.234.088.033.347.107.776.225.622.166 1.056.303 1.301.408s.438.26.579.461c.14.203.21.453.21.752 0 .293-.085.568-.256.828-.171.258-.417.459-.74.6-.322.143-.687.213-1.094.213-.674 0-1.188-.139-1.541-.42-.354-.28-.58-.696-.677-1.245z"/><path d="m107.704 252.796c0-.961.267-1.672.801-2.135.446-.383.99-.576 1.631-.576.713 0 1.295.234 1.748.701s.679 1.113.679 1.936c0 .668-.1 1.193-.3 1.574-.2.383-.492.68-.874.893-.382.211-.8.316-1.252.316-.726 0-1.312-.232-1.76-.697-.449-.467-.673-1.137-.673-2.012zm.903 0c0 .664.145 1.16.435 1.49.29.332.654.496 1.094.496.436 0 .799-.166 1.089-.498s.435-.838.435-1.518c0-.643-.146-1.127-.437-1.459-.292-.33-.653-.494-1.086-.494-.439 0-.804.164-1.094.492-.291.331-.436.827-.436 1.491z"/><path d="m113.593 255.388v-5.186h.791v.738c.381-.57.931-.855 1.65-.855.312 0 .6.057.862.168.262.113.458.26.588.443.13.182.221.398.273.648.033.164.049.447.049.855v3.188h-.879v-3.154c0-.357-.034-.625-.103-.803s-.189-.318-.364-.426c-.174-.105-.378-.158-.613-.158-.375 0-.697.119-.969.357-.272.236-.408.688-.408 1.352v2.832h-.877z"/><path d="m122.538 254.749c-.326.275-.639.471-.94.586-.301.113-.624.17-.969.17-.57 0-1.007-.139-1.313-.418-.306-.277-.459-.633-.459-1.066 0-.254.058-.486.173-.695.116-.211.267-.379.454-.506s.398-.223.632-.287c.172-.047.433-.09.781-.133.709-.084 1.232-.186 1.567-.303.003-.119.005-.197.005-.229 0-.359-.083-.611-.249-.758-.225-.197-.558-.297-1.001-.297-.414 0-.719.072-.916.217s-.343.4-.437.77l-.859-.117c.078-.369.207-.666.386-.893.179-.225.438-.4.776-.521.338-.123.731-.184 1.177-.184.443 0 .802.053 1.079.156.277.105.48.236.61.393.13.158.221.357.273.6.029.148.044.42.044.811v1.172c0 .816.019 1.334.056 1.549.038.217.111.426.222.623h-.918c-.089-.183-.148-.396-.174-.64zm-.073-1.963c-.319.129-.797.24-1.436.332-.361.051-.617.109-.767.176-.15.064-.265.16-.347.285s-.122.264-.122.418c0 .234.089.43.266.586s.437.234.779.234c.338 0 .64-.074.903-.223s.458-.352.581-.607c.094-.199.142-.492.142-.879v-.322z"/><path d="m124.696 255.388v-7.158h.879v7.158z"/><path d="m129.506 253.089.894-.078c.042.357.141.65.295.881.155.229.395.414.72.557.326.141.692.213 1.099.213.361 0 .68-.055.957-.162s.482-.254.618-.441.203-.391.203-.613c0-.225-.065-.42-.195-.588s-.345-.309-.645-.422c-.192-.076-.617-.191-1.274-.35s-1.118-.307-1.382-.447c-.342-.178-.597-.4-.764-.666s-.251-.562-.251-.891c0-.361.103-.699.308-1.014s.504-.553.898-.715c.394-.164.832-.244 1.313-.244.531 0 .999.084 1.404.256.405.17.717.422.935.754s.335.709.352 1.129l-.908.068c-.049-.453-.214-.795-.496-1.025-.282-.232-.697-.348-1.248-.348-.573 0-.99.105-1.252.314-.262.211-.393.465-.393.76 0 .258.093.469.278.635.182.166.658.336 1.428.51.77.176 1.298.328 1.584.457.417.193.724.436.923.73s.298.635.298 1.018c0 .381-.109.74-.327 1.076-.218.338-.531.6-.94.787s-.868.281-1.379.281c-.648 0-1.19-.096-1.628-.283-.438-.189-.781-.473-1.03-.854-.251-.379-.382-.807-.395-1.285z"/><path d="m139.936 253.718.908.113c-.143.529-.409.941-.796 1.234s-.882.439-1.484.439c-.758 0-1.36-.232-1.804-.701-.444-.467-.667-1.121-.667-1.965 0-.871.225-1.549.674-2.031.449-.48 1.032-.723 1.748-.723.693 0 1.26.236 1.699.709.439.471.659 1.135.659 1.992 0 .051-.001.129-.005.234h-3.867c.033.568.194 1.006.483 1.309s.651.453 1.084.453c.322 0 .597-.084.825-.254.229-.167.409-.438.543-.809zm-2.886-1.42h2.896c-.039-.438-.15-.764-.332-.982-.28-.338-.643-.508-1.089-.508-.404 0-.743.135-1.018.406-.276.269-.428.631-.457 1.084z"/><path d="m141.938 255.388v-5.186h.791v.787c.202-.369.388-.611.559-.729s.359-.176.564-.176c.296 0 .597.096.903.283l-.303.816c-.215-.127-.43-.191-.645-.191-.192 0-.365.059-.518.174s-.262.275-.327.48c-.098.312-.146.654-.146 1.025v2.715h-.878z"/><path d="m146.718 255.388-1.973-5.186h.928l1.113 3.105c.121.336.231.684.332 1.045.078-.273.187-.602.327-.986l1.152-3.164h.903l-1.963 5.186z"/><path d="m150.282 249.241v-1.012h.879v1.012zm0 6.147v-5.186h.879v5.186z"/><path d="m155.883 253.489.864.111c-.094.596-.336 1.062-.725 1.398-.389.338-.867.506-1.433.506-.709 0-1.28-.232-1.711-.695-.431-.465-.647-1.129-.647-1.994 0-.561.093-1.051.278-1.471s.468-.734.847-.945c.379-.209.792-.314 1.238-.314.563 0 1.024.143 1.382.428s.587.689.688 1.213l-.854.133c-.082-.35-.226-.611-.432-.787s-.457-.264-.75-.264c-.443 0-.802.158-1.079.477-.277.316-.415.82-.415 1.506 0 .697.133 1.203.4 1.52.267.314.615.473 1.045.473.345 0 .633-.105.864-.316.231-.215.378-.539.44-.979z"/><path d="m161.049 253.718.908.113c-.143.529-.409.941-.796 1.234s-.882.439-1.484.439c-.758 0-1.36-.232-1.804-.701-.444-.467-.667-1.121-.667-1.965 0-.871.225-1.549.674-2.031.449-.48 1.032-.723 1.748-.723.693 0 1.26.236 1.699.709.439.471.659 1.135.659 1.992 0 .051-.001.129-.005.234h-3.867c.033.568.194 1.006.483 1.309s.651.453 1.084.453c.322 0 .597-.084.825-.254.229-.167.41-.438.543-.809zm-2.886-1.42h2.896c-.039-.438-.15-.764-.332-.982-.28-.338-.643-.508-1.089-.508-.404 0-.743.135-1.018.406-.275.269-.428.631-.457 1.084z"/><path d="m162.709 253.841.869-.137c.049.348.185.615.408.801s.535.277.935.277c.404 0 .703-.082.898-.246s.293-.357.293-.578c0-.199-.086-.355-.259-.469-.121-.078-.42-.178-.898-.299-.645-.162-1.091-.303-1.34-.422s-.438-.283-.566-.494c-.128-.209-.193-.441-.193-.695 0-.23.053-.445.159-.643.106-.195.25-.359.432-.49.137-.1.323-.186.559-.256s.489-.105.759-.105c.407 0 .764.059 1.072.176s.535.275.681.477c.146.199.248.469.303.803l-.859.117c-.039-.266-.152-.475-.339-.625-.187-.148-.452-.225-.793-.225-.404 0-.692.066-.864.201-.172.133-.259.289-.259.469 0 .113.036.217.107.307.072.096.184.174.337.234.088.033.347.107.776.225.622.166 1.056.303 1.301.408s.438.26.579.461c.14.203.21.453.21.752 0 .293-.085.568-.256.828-.171.258-.417.459-.74.6-.322.143-.687.213-1.094.213-.674 0-1.188-.139-1.541-.42-.354-.28-.579-.696-.677-1.245z"/></g><g clip-path="url(#l)"><path d="m108.144 221.444v-7.158h2.7c.475 0 .838.023 1.089.068.352.059.646.17.884.334.238.166.429.396.574.691.145.297.217.623.217.977 0 .609-.194 1.125-.581 1.545-.387.422-1.087.633-2.1.633h-1.836v2.91zm.947-3.754h1.851c.612 0 1.046-.115 1.304-.342.257-.229.386-.549.386-.963 0-.299-.076-.555-.227-.77-.151-.213-.351-.354-.598-.422-.16-.041-.454-.062-.884-.062h-1.831v2.559z"/><path d="m114.691 221.444v-5.186h.791v.787c.202-.369.388-.611.559-.729s.359-.176.564-.176c.296 0 .597.096.903.283l-.303.816c-.215-.127-.43-.191-.645-.191-.192 0-.365.059-.518.174s-.262.275-.327.48c-.098.312-.146.654-.146 1.025v2.715h-.878z"/><path d="m117.704 218.853c0-.961.267-1.672.801-2.135.446-.383.99-.576 1.631-.576.713 0 1.295.234 1.748.701s.679 1.113.679 1.936c0 .668-.1 1.193-.3 1.574-.2.383-.492.68-.874.893-.382.211-.8.316-1.252.316-.726 0-1.312-.232-1.76-.697-.449-.468-.673-1.137-.673-2.012zm.903 0c0 .664.145 1.16.435 1.49.29.332.654.496 1.094.496.436 0 .799-.166 1.089-.498s.435-.838.435-1.518c0-.643-.146-1.127-.437-1.459-.292-.33-.653-.494-1.086-.494-.439 0-.804.164-1.094.492-.291.33-.436.826-.436 1.491z"/><path d="m123.803 221.444v-4.502h-.776v-.684h.776v-.551c0-.35.031-.607.093-.777.084-.227.233-.412.447-.555.213-.141.512-.211.896-.211.248 0 .521.029.82.088l-.132.766c-.182-.031-.355-.049-.518-.049-.267 0-.456.057-.566.172-.111.113-.166.326-.166.639v.479h1.011v.684h-1.011v4.502h-.874z"/><path d="m129.921 219.774.908.113c-.143.529-.409.941-.796 1.234s-.882.439-1.484.439c-.758 0-1.36-.232-1.804-.701-.444-.467-.667-1.121-.667-1.965 0-.871.225-1.549.674-2.031.449-.48 1.032-.723 1.748-.723.693 0 1.26.236 1.699.709.439.471.659 1.135.659 1.992 0 .051-.001.129-.005.234h-3.867c.033.568.194 1.006.483 1.309s.651.453 1.084.453c.322 0 .597-.084.825-.254.229-.166.41-.437.543-.809zm-2.886-1.42h2.896c-.039-.438-.15-.764-.332-.982-.28-.338-.643-.508-1.089-.508-.404 0-.743.135-1.018.406-.275.27-.428.631-.457 1.084z"/><path d="m131.581 219.897.869-.137c.049.348.185.615.408.801s.535.277.935.277c.404 0 .703-.082.898-.246s.293-.357.293-.578c0-.199-.086-.355-.259-.469-.121-.078-.42-.178-.898-.299-.645-.162-1.091-.303-1.34-.422s-.438-.283-.566-.494c-.128-.209-.193-.441-.193-.695 0-.23.053-.445.159-.643.106-.195.25-.359.432-.49.137-.1.323-.186.559-.256s.489-.105.759-.105c.407 0 .764.059 1.072.176s.535.275.681.477c.146.199.248.469.303.803l-.859.117c-.039-.266-.152-.475-.339-.625-.187-.148-.452-.225-.793-.225-.404 0-.692.066-.864.201-.172.133-.259.289-.259.469 0 .113.036.217.107.307.072.096.184.174.337.234.088.033.347.107.776.225.622.166 1.056.303 1.301.408s.438.26.579.461c.14.203.21.453.21.752 0 .293-.085.568-.256.828-.171.258-.417.459-.74.6-.322.143-.687.213-1.094.213-.674 0-1.188-.139-1.541-.42-.354-.28-.579-.696-.677-1.245z"/><path d="m136.581 219.897.869-.137c.049.348.185.615.408.801s.535.277.935.277c.404 0 .703-.082.898-.246s.293-.357.293-.578c0-.199-.086-.355-.259-.469-.121-.078-.42-.178-.898-.299-.645-.162-1.091-.303-1.34-.422s-.438-.283-.566-.494c-.128-.209-.193-.441-.193-.695 0-.23.053-.445.159-.643.106-.195.25-.359.432-.49.137-.1.323-.186.559-.256s.489-.105.759-.105c.407 0 .764.059 1.072.176s.535.275.681.477c.146.199.248.469.303.803l-.859.117c-.039-.266-.152-.475-.339-.625-.187-.148-.452-.225-.793-.225-.404 0-.692.066-.864.201-.172.133-.259.289-.259.469 0 .113.036.217.107.307.072.096.184.174.337.234.088.033.347.107.776.225.622.166 1.056.303 1.301.408s.438.26.579.461c.14.203.21.453.21.752 0 .293-.085.568-.256.828-.171.258-.417.459-.74.6-.322.143-.687.213-1.094.213-.674 0-1.188-.139-1.541-.42-.354-.28-.579-.696-.677-1.245z"/><path d="m141.938 215.298v-1.012h.879v1.012zm0 6.146v-5.186h.879v5.186z"/><path d="m143.827 218.853c0-.961.267-1.672.801-2.135.446-.383.99-.576 1.631-.576.713 0 1.295.234 1.748.701s.679 1.113.679 1.936c0 .668-.1 1.193-.3 1.574-.2.383-.492.68-.874.893-.382.211-.8.316-1.252.316-.726 0-1.312-.232-1.76-.697-.449-.468-.673-1.137-.673-2.012zm.903 0c0 .664.145 1.16.435 1.49.29.332.654.496 1.094.496.436 0 .799-.166 1.089-.498s.435-.838.435-1.518c0-.643-.146-1.127-.437-1.459-.292-.33-.653-.494-1.086-.494-.439 0-.804.164-1.094.492-.291.33-.436.826-.436 1.491z"/><path d="m149.716 221.444v-5.186h.791v.738c.381-.57.931-.855 1.65-.855.312 0 .6.057.862.168.262.113.458.26.588.443.13.182.221.398.273.648.033.164.049.447.049.855v3.188h-.879v-3.154c0-.357-.034-.625-.103-.803s-.189-.318-.364-.426c-.174-.105-.378-.158-.613-.158-.375 0-.697.119-.969.357-.272.236-.408.688-.408 1.352v2.832h-.877z"/><path d="m158.661 220.806c-.326.275-.639.471-.94.586-.301.113-.624.17-.969.17-.57 0-1.007-.139-1.313-.418-.306-.277-.459-.633-.459-1.066 0-.254.058-.486.173-.695.116-.211.267-.379.454-.506s.398-.223.632-.287c.172-.047.433-.09.781-.133.709-.084 1.232-.186 1.567-.303.003-.119.005-.197.005-.229 0-.359-.083-.611-.249-.758-.225-.197-.558-.297-1.001-.297-.414 0-.719.072-.916.217s-.343.4-.437.77l-.859-.117c.078-.369.207-.666.386-.893.179-.225.438-.4.776-.521.338-.123.731-.184 1.177-.184.443 0 .802.053 1.079.156.277.105.48.236.61.393.13.158.221.357.273.6.029.148.044.42.044.811v1.172c0 .816.019 1.334.056 1.549.038.217.111.426.222.623h-.918c-.089-.183-.148-.396-.174-.64zm-.073-1.963c-.319.129-.797.24-1.436.332-.361.051-.617.109-.767.176-.15.064-.265.16-.347.285s-.122.264-.122.418c0 .234.089.43.266.586s.437.234.779.234c.338 0 .64-.074.903-.223s.458-.352.581-.607c.094-.199.142-.492.142-.879v-.322z"/><path d="m160.819 221.444v-7.158h.879v7.158z"/><path d="m162.709 219.897.869-.137c.049.348.185.615.408.801s.535.277.935.277c.404 0 .703-.082.898-.246s.293-.357.293-.578c0-.199-.086-.355-.259-.469-.121-.078-.42-.178-.898-.299-.645-.162-1.091-.303-1.34-.422s-.438-.283-.566-.494c-.128-.209-.193-.441-.193-.695 0-.23.053-.445.159-.643.106-.195.25-.359.432-.49.137-.1.323-.186.559-.256s.489-.105.759-.105c.407 0 .764.059 1.072.176s.535.275.681.477c.146.199.248.469.303.803l-.859.117c-.039-.266-.152-.475-.339-.625-.187-.148-.452-.225-.793-.225-.404 0-.692.066-.864.201-.172.133-.259.289-.259.469 0 .113.036.217.107.307.072.096.184.174.337.234.088.033.347.107.776.225.622.166 1.056.303 1.301.408s.438.26.579.461c.14.203.21.453.21.752 0 .293-.085.568-.256.828-.171.258-.417.459-.74.6-.322.143-.687.213-1.094.213-.674 0-1.188-.139-1.541-.42-.354-.28-.579-.696-.677-1.245z"/></g><g clip-path="url(#m)"><path d="m123.676 187.503v-7.158h1.426l1.694 5.068c.156.471.27.824.342 1.059.082-.26.208-.643.381-1.146l1.714-4.98h1.274v7.158h-.913v-5.992l-2.08 5.992h-.854l-2.07-6.094v6.094h-.914z"/><path d="m135.307 186.862c-.326.277-.639.473-.94.586-.301.115-.624.172-.969.172-.57 0-1.007-.139-1.313-.418-.306-.277-.459-.635-.459-1.066 0-.254.058-.486.173-.695.116-.211.267-.379.454-.506s.398-.223.632-.289c.172-.045.433-.09.781-.131.709-.086 1.232-.186 1.567-.303.003-.121.005-.197.005-.23 0-.357-.083-.609-.249-.756-.225-.199-.558-.299-1.001-.299-.414 0-.719.072-.916.219-.197.145-.343.4-.437.768l-.859-.117c.078-.367.207-.664.386-.891s.438-.4.776-.521c.338-.123.731-.184 1.177-.184.443 0 .802.051 1.079.156.277.104.48.234.61.393s.221.357.273.598c.029.15.044.42.044.811v1.172c0 .818.019 1.334.056 1.551s.111.424.222.623h-.918c-.09-.186-.148-.399-.174-.643zm-.074-1.963c-.319.131-.797.242-1.436.332-.361.053-.617.111-.767.176-.15.066-.265.16-.347.287-.082.125-.122.264-.122.416 0 .234.089.43.266.586s.437.234.779.234c.338 0 .64-.074.903-.221.264-.148.458-.352.581-.609.094-.197.142-.49.142-.879v-.322z"/><path d="m137.484 187.503v-5.186h.791v.736c.381-.568.931-.854 1.65-.854.312 0 .6.057.862.168.262.113.458.26.588.441.13.184.221.398.273.65.033.162.049.447.049.854v3.189h-.879v-3.154c0-.359-.034-.627-.103-.803-.068-.178-.189-.32-.364-.426s-.378-.158-.613-.158c-.375 0-.697.119-.969.355-.272.238-.408.689-.408 1.354v2.832h-.877z"/><path d="m146.43 186.862c-.326.277-.639.473-.94.586-.301.115-.624.172-.969.172-.57 0-1.007-.139-1.313-.418-.306-.277-.459-.635-.459-1.066 0-.254.058-.486.173-.695.116-.211.267-.379.454-.506s.398-.223.632-.289c.172-.045.433-.09.781-.131.709-.086 1.232-.186 1.567-.303.003-.121.005-.197.005-.23 0-.357-.083-.609-.249-.756-.225-.199-.558-.299-1.001-.299-.414 0-.719.072-.916.219-.197.145-.343.4-.437.768l-.859-.117c.078-.367.207-.664.386-.891s.438-.4.776-.521c.338-.123.731-.184 1.177-.184.443 0 .802.051 1.079.156.277.104.48.234.61.393s.221.357.273.598c.029.15.044.42.044.811v1.172c0 .818.019 1.334.056 1.551s.111.424.222.623h-.918c-.09-.186-.148-.399-.174-.643zm-.074-1.963c-.319.131-.797.242-1.436.332-.361.053-.617.111-.767.176-.15.066-.265.16-.347.287-.082.125-.122.264-.122.416 0 .234.089.43.266.586s.437.234.779.234c.338 0 .64-.074.903-.221.264-.148.458-.352.581-.609.094-.197.142-.49.142-.879v-.322z"/><path d="m148.446 187.933.854.127c.036.264.135.455.298.576.218.162.516.244.894.244.407 0 .721-.082.942-.244.221-.164.371-.391.449-.684.045-.18.067-.555.063-1.129-.384.453-.863.68-1.436.68-.713 0-1.265-.258-1.655-.771-.391-.516-.586-1.131-.586-1.852 0-.494.089-.951.269-1.369s.438-.742.779-.969c.34-.229.74-.342 1.199-.342.612 0 1.117.246 1.514.742v-.625h.811v4.482c0 .807-.082 1.379-.247 1.717-.165.336-.425.602-.781.797s-.795.293-1.316.293c-.619 0-1.118-.139-1.499-.416-.381-.279-.565-.699-.552-1.257zm.728-3.116c0 .68.135 1.176.405 1.488s.609.469 1.016.469c.404 0 .742-.154 1.016-.465.273-.312.41-.799.41-1.463 0-.635-.141-1.113-.422-1.436s-.621-.484-1.018-.484c-.391 0-.723.16-.996.477-.274.319-.411.789-.411 1.414z"/><path d="m157.719 185.833.908.111c-.143.531-.409.943-.796 1.236s-.882.439-1.484.439c-.758 0-1.36-.234-1.804-.701s-.667-1.123-.667-1.965c0-.873.225-1.551.674-2.031.449-.482 1.032-.723 1.748-.723.693 0 1.26.236 1.699.707.439.473.659 1.137.659 1.992 0 .053-.001.131-.005.234h-3.867c.033.57.194 1.006.483 1.309s.651.455 1.084.455c.322 0 .597-.086.825-.254.229-.168.409-.438.543-.809zm-2.886-1.422h2.896c-.039-.436-.15-.764-.332-.98-.28-.34-.643-.508-1.089-.508-.404 0-.743.135-1.018.404-.275.272-.428.633-.457 1.084z"/><path d="m159.721 187.503v-5.186h.791v.785c.202-.367.388-.609.559-.727s.359-.176.564-.176c.296 0 .597.094.903.283l-.303.814c-.215-.127-.43-.189-.645-.189-.192 0-.365.057-.518.174-.153.115-.262.275-.327.48-.098.312-.146.654-.146 1.025v2.715h-.878z"/><path d="m162.709 185.954.869-.137c.049.35.185.615.408.801s.535.279.935.279c.404 0 .703-.082.898-.246.195-.166.293-.357.293-.58 0-.197-.086-.354-.259-.469-.121-.078-.42-.178-.898-.297-.645-.164-1.091-.305-1.34-.422-.249-.119-.438-.283-.566-.494-.128-.209-.193-.441-.193-.695 0-.232.053-.445.159-.643s.25-.361.432-.49c.137-.102.323-.188.559-.256.236-.07.489-.105.759-.105.407 0 .764.059 1.072.176s.535.275.681.477c.146.199.248.467.303.803l-.859.117c-.039-.268-.152-.477-.339-.625-.187-.15-.452-.225-.793-.225-.404 0-.692.066-.864.199-.172.135-.259.291-.259.469 0 .115.036.217.107.309.072.094.184.172.337.234.088.031.347.107.776.225.622.166 1.056.301 1.301.408.246.105.438.258.579.461.14.201.21.451.21.752 0 .293-.085.568-.256.828-.171.258-.417.459-.74.6-.322.143-.687.213-1.094.213-.674 0-1.188-.141-1.541-.42-.354-.282-.579-.696-.677-1.247z"/></g><g clip-path="url(#n)"><path d="m142.836 151.261.894-.078c.042.357.141.65.295.881.155.229.395.414.72.557.326.141.692.213 1.099.213.361 0 .68-.055.957-.162s.482-.254.618-.441.203-.391.203-.613c0-.225-.065-.42-.195-.588s-.345-.309-.645-.422c-.192-.076-.617-.191-1.274-.35s-1.118-.307-1.382-.447c-.342-.178-.597-.4-.764-.666s-.251-.562-.251-.891c0-.361.103-.699.308-1.014s.504-.553.898-.715c.394-.164.832-.244 1.313-.244.531 0 .999.084 1.404.256.405.17.717.422.935.754s.335.709.352 1.129l-.908.068c-.049-.453-.214-.795-.496-1.025-.282-.232-.697-.348-1.248-.348-.573 0-.99.105-1.252.314-.262.211-.393.465-.393.76 0 .258.093.469.278.635.182.166.658.336 1.428.51.77.176 1.298.328 1.584.457.417.193.724.436.923.73s.298.635.298 1.018c0 .381-.109.74-.327 1.076-.218.338-.531.6-.94.787s-.868.281-1.379.281c-.648 0-1.19-.096-1.628-.283-.438-.189-.781-.473-1.03-.854-.251-.379-.382-.807-.395-1.285z"/><path d="m153.1 152.921c-.326.275-.639.471-.94.586-.301.113-.624.17-.969.17-.57 0-1.007-.139-1.313-.418-.306-.277-.459-.633-.459-1.066 0-.254.058-.486.173-.695.116-.211.267-.379.454-.506s.398-.223.632-.287c.172-.047.433-.09.781-.133.709-.084 1.232-.186 1.567-.303.003-.119.005-.197.005-.229 0-.359-.083-.611-.249-.758-.225-.197-.558-.297-1.001-.297-.414 0-.719.072-.916.217s-.343.4-.437.77l-.859-.117c.078-.369.207-.666.386-.893.179-.225.438-.4.776-.521.338-.123.731-.184 1.177-.184.443 0 .802.053 1.079.156.277.105.48.236.61.393.13.158.221.357.273.6.029.148.044.42.044.811v1.172c0 .816.019 1.334.056 1.549.038.217.111.426.222.623h-.918c-.09-.183-.149-.396-.174-.64zm-.074-1.963c-.319.129-.797.24-1.436.332-.361.051-.617.109-.767.176-.15.064-.265.16-.347.285s-.122.264-.122.418c0 .234.089.43.266.586s.437.234.779.234c.338 0 .64-.074.903-.223s.458-.352.581-.607c.094-.199.142-.492.142-.879v-.322z"/><path d="m155.258 153.56v-7.158h.879v7.158z"/><path d="m161.049 151.89.908.113c-.143.529-.409.941-.796 1.234s-.882.439-1.484.439c-.758 0-1.36-.232-1.804-.701-.444-.467-.667-1.121-.667-1.965 0-.871.225-1.549.674-2.031.449-.48 1.032-.723 1.748-.723.693 0 1.26.236 1.699.709.439.471.659 1.135.659 1.992 0 .051-.001.129-.005.234h-3.867c.033.568.194 1.006.483 1.309s.651.453 1.084.453c.322 0 .597-.084.825-.254.229-.167.41-.438.543-.809zm-2.886-1.42h2.896c-.039-.438-.15-.764-.332-.982-.28-.338-.643-.508-1.089-.508-.404 0-.743.135-1.018.406-.275.269-.428.631-.457 1.084z"/><path d="m162.709 152.013.869-.137c.049.348.185.615.408.801s.535.277.935.277c.404 0 .703-.082.898-.246s.293-.357.293-.578c0-.199-.086-.355-.259-.469-.121-.078-.42-.178-.898-.299-.645-.162-1.091-.303-1.34-.422s-.438-.283-.566-.494c-.128-.209-.193-.441-.193-.695 0-.23.053-.445.159-.643.106-.195.25-.359.432-.49.137-.1.323-.186.559-.256s.489-.105.759-.105c.407 0 .764.059 1.072.176s.535.275.681.477c.146.199.248.469.303.803l-.859.117c-.039-.266-.152-.475-.339-.625-.187-.148-.452-.225-.793-.225-.404 0-.692.066-.864.201-.172.133-.259.289-.259.469 0 .113.036.217.107.307.072.096.184.174.337.234.088.033.347.107.776.225.622.166 1.056.303 1.301.408s.438.26.579.461c.14.203.21.453.21.752 0 .293-.085.568-.256.828-.171.258-.417.459-.74.6-.322.143-.687.213-1.094.213-.674 0-1.188-.139-1.541-.42-.354-.28-.579-.696-.677-1.245z"/></g><g clip-path="url(#o)"><path d="m184.948 119.618v-7.158h1.426l1.694 5.068c.156.472.27.825.342 1.06.082-.261.208-.643.381-1.147l1.714-4.98h1.274v7.158h-.913v-5.991l-2.08 5.991h-.854l-2.07-6.094v6.094h-.914z"/><path d="m196.579 118.979c-.326.276-.639.472-.94.586s-.624.171-.969.171c-.57 0-1.007-.139-1.313-.418-.306-.277-.459-.634-.459-1.066 0-.254.058-.486.173-.695.116-.211.267-.379.454-.506s.398-.223.632-.288c.172-.046.433-.09.781-.132.709-.085 1.232-.186 1.567-.303.003-.12.005-.197.005-.229 0-.358-.083-.61-.249-.757-.225-.198-.558-.298-1.001-.298-.414 0-.719.072-.916.218-.197.145-.343.4-.437.769l-.859-.117c.078-.368.207-.665.386-.892.179-.226.438-.4.776-.521.338-.123.731-.184 1.177-.184.443 0 .802.052 1.079.156s.48.235.61.393.221.357.273.599c.029.149.044.42.044.811v1.172c0 .817.019 1.334.056 1.55.038.217.111.425.222.623h-.918c-.089-.185-.148-.398-.174-.642zm-.073-1.963c-.319.13-.797.241-1.436.332-.361.052-.617.11-.767.176s-.265.16-.347.286c-.082.125-.122.264-.122.417 0 .234.089.43.266.586s.437.234.779.234c.338 0 .64-.074.903-.222.264-.148.458-.352.581-.608.094-.198.142-.491.142-.879v-.322z"/><path d="m202.141 117.719.864.112c-.094.596-.336 1.062-.725 1.398-.389.338-.867.506-1.433.506-.709 0-1.28-.232-1.711-.695-.431-.465-.647-1.129-.647-1.995 0-.56.093-1.05.278-1.47s.468-.734.847-.945c.379-.209.792-.314 1.238-.314.563 0 1.024.143 1.382.428.358.284.587.688.688 1.213l-.854.132c-.082-.349-.226-.61-.432-.786s-.457-.264-.75-.264c-.443 0-.802.158-1.079.477-.277.316-.415.819-.415 1.506 0 .696.133 1.203.4 1.519s.615.474 1.045.474c.345 0 .633-.105.864-.317s.378-.54.44-.979z"/><path d="m203.757 119.618v-7.158h.879v2.568c.41-.476.928-.713 1.553-.713.384 0 .718.076 1.001.227.283.152.486.361.608.628s.183.654.183 1.162v3.286h-.879v-3.286c0-.439-.095-.759-.286-.96-.19-.199-.46-.3-.808-.3-.26 0-.505.067-.735.202-.229.136-.393.318-.491.55s-.146.55-.146.957v2.837z"/><path d="m209.323 113.471v-1.011h.879v1.011zm0 6.147v-5.186h.879v5.186z"/><path d="m211.54 119.618v-5.186h.791v.737c.381-.569.931-.854 1.65-.854.312 0 .6.057.862.168.262.113.458.26.588.442s.221.398.273.649c.033.163.049.447.049.854v3.188h-.879v-3.154c0-.358-.034-.626-.103-.803-.068-.178-.189-.319-.364-.426-.174-.105-.378-.158-.613-.158-.375 0-.697.119-.969.356s-.408.688-.408 1.353v2.832h-.877z"/><path d="m220.651 117.948.908.112c-.143.53-.409.942-.796 1.235s-.882.439-1.484.439c-.758 0-1.36-.233-1.804-.701-.444-.467-.667-1.122-.667-1.965 0-.872.225-1.55.674-2.031s1.032-.723 1.748-.723c.693 0 1.26.236 1.699.708s.659 1.136.659 1.992c0 .052-.001.13-.005.234h-3.867c.033.569.194 1.006.483 1.309s.651.454 1.084.454c.322 0 .597-.085.825-.254s.41-.438.543-.809zm-2.885-1.421h2.896c-.039-.437-.15-.764-.332-.981-.28-.339-.643-.508-1.089-.508-.404 0-.743.135-1.018.405s-.428.632-.457 1.084z"/><path d="m222.653 119.618v-5.186h.791v.786c.202-.368.388-.61.559-.728s.359-.176.564-.176c.296 0 .597.095.903.283l-.303.815c-.215-.127-.43-.19-.645-.19-.192 0-.365.058-.518.174-.153.115-.262.275-.327.48-.098.312-.146.654-.146 1.025v2.715h-.878z"/><path d="m225.954 121.615-.098-.825c.192.052.36.078.503.078.195 0 .352-.032.469-.098s.213-.156.288-.273c.055-.088.145-.306.269-.654.016-.049.042-.12.078-.215l-1.968-5.195h.947l1.079 3.003c.14.381.265.781.376 1.201.101-.403.221-.798.361-1.182l1.108-3.022h.879l-1.973 5.273c-.211.569-.376.962-.493 1.177-.156.29-.335.502-.537.638-.202.135-.443.202-.723.202-.168 0-.356-.036-.565-.108z"/><path d="m233.596 116.132c0-1.188.319-2.118.957-2.791.638-.672 1.461-1.008 2.471-1.008.661 0 1.256.158 1.787.474s.935.756 1.213 1.321c.278.564.417 1.205.417 1.921 0 .726-.146 1.375-.439 1.948s-.708 1.007-1.245 1.301c-.537.295-1.117.442-1.738.442-.674 0-1.276-.163-1.807-.488s-.933-.77-1.206-1.333-.41-1.159-.41-1.787zm.976.014c0 .862.232 1.542.696 2.038.464.497 1.046.745 1.746.745.713 0 1.3-.251 1.76-.752s.691-1.213.691-2.134c0-.583-.099-1.092-.295-1.525-.197-.436-.485-.771-.864-1.012-.379-.238-.805-.358-1.277-.358-.67 0-1.248.23-1.731.69-.484.462-.726 1.231-.726 2.308z"/><path d="m241.55 121.605v-7.173h.801v.674c.189-.264.402-.461.64-.594.238-.131.526-.197.864-.197.443 0 .833.114 1.172.342s.594.549.767.965c.172.414.259.869.259 1.364 0 .53-.095 1.009-.286 1.433-.19.426-.467.751-.83.977-.363.227-.745.34-1.145.34-.293 0-.556-.062-.789-.186s-.424-.28-.574-.469v2.524zm.796-4.55c0 .667.135 1.16.405 1.479s.597.479.981.479c.391 0 .725-.165 1.003-.496.278-.33.417-.842.417-1.535 0-.661-.136-1.155-.408-1.484s-.597-.493-.974-.493c-.375 0-.706.175-.994.524-.286.35-.43.859-.43 1.526z"/><path d="m250.661 117.948.908.112c-.143.53-.409.942-.796 1.235s-.882.439-1.484.439c-.758 0-1.36-.233-1.804-.701-.444-.467-.667-1.122-.667-1.965 0-.872.225-1.55.674-2.031s1.032-.723 1.748-.723c.693 0 1.26.236 1.699.708s.659 1.136.659 1.992c0 .052-.001.13-.005.234h-3.867c.033.569.194 1.006.483 1.309s.651.454 1.084.454c.322 0 .597-.085.825-.254s.41-.438.543-.809zm-2.886-1.421h2.896c-.039-.437-.15-.764-.332-.981-.28-.339-.643-.508-1.089-.508-.404 0-.743.135-1.018.405s-.427.632-.457 1.084z"/><path d="m252.663 119.618v-5.186h.791v.786c.202-.368.388-.61.559-.728s.359-.176.564-.176c.296 0 .597.095.903.283l-.303.815c-.215-.127-.43-.19-.645-.19-.192 0-.365.058-.518.174-.153.115-.262.275-.327.48-.098.312-.146.654-.146 1.025v2.715h-.878z"/><path d="m259.387 118.979c-.326.276-.639.472-.94.586s-.624.171-.969.171c-.57 0-1.007-.139-1.313-.418-.306-.277-.459-.634-.459-1.066 0-.254.058-.486.173-.695.116-.211.267-.379.454-.506s.398-.223.632-.288c.172-.046.433-.09.781-.132.709-.085 1.232-.186 1.567-.303.003-.12.005-.197.005-.229 0-.358-.083-.61-.249-.757-.225-.198-.558-.298-1.001-.298-.414 0-.719.072-.916.218-.197.145-.343.4-.437.769l-.859-.117c.078-.368.207-.665.386-.892.179-.226.438-.4.776-.521.338-.123.731-.184 1.177-.184.443 0 .802.052 1.079.156s.48.235.61.393.221.357.273.599c.029.149.044.42.044.811v1.172c0 .817.019 1.334.057 1.55.037.217.111.425.222.623h-.918c-.091-.185-.149-.398-.175-.642zm-.074-1.963c-.319.13-.797.241-1.436.332-.361.052-.617.11-.767.176s-.265.16-.347.286c-.082.125-.122.264-.122.417 0 .234.089.43.266.586s.437.234.779.234c.338 0 .64-.074.903-.222.264-.148.458-.352.581-.608.094-.198.142-.491.142-.879v-.322z"/><path d="m263.483 118.832.127.776c-.248.052-.469.078-.664.078-.318 0-.566-.051-.742-.151s-.299-.233-.371-.397c-.072-.165-.107-.511-.107-1.038v-2.983h-.645v-.684h.645v-1.284l.874-.527v1.812h.884v.684h-.884v3.032c0 .251.016.412.046.483.031.071.082.129.152.171.069.042.17.063.3.063.097-.001.225-.013.385-.035z"/><path d="m264.016 117.025c0-.96.267-1.672.801-2.134.446-.384.989-.576 1.631-.576.713 0 1.296.233 1.748.701.452.467.679 1.112.679 1.936 0 .667-.1 1.192-.301 1.574-.199.383-.491.68-.873.892-.383.212-.801.317-1.253.317-.726 0-1.312-.232-1.761-.698-.448-.466-.671-1.136-.671-2.012zm.903 0c0 .664.145 1.161.435 1.491.29.331.654.496 1.094.496.437 0 .8-.166 1.089-.498s.435-.838.435-1.519c0-.642-.146-1.127-.437-1.458-.292-.33-.654-.495-1.087-.495-.439 0-.804.164-1.094.493s-.435.826-.435 1.49z"/><path d="m269.895 119.618v-5.186h.791v.786c.202-.368.388-.61.56-.728.17-.117.358-.176.563-.176.296 0 .597.095.903.283l-.303.815c-.215-.127-.43-.19-.645-.19-.191 0-.365.058-.518.174-.152.115-.262.275-.327.48-.098.312-.146.654-.146 1.025v2.715h-.878z"/><path d="m272.883 118.07.869-.137c.049.349.185.615.407.801.224.186.535.278.936.278.404 0 .703-.082.898-.246.195-.165.293-.357.293-.579 0-.198-.086-.354-.259-.469-.12-.078-.42-.178-.898-.298-.645-.163-1.091-.304-1.341-.422-.248-.119-.438-.283-.566-.494-.128-.209-.192-.441-.192-.695 0-.231.053-.445.159-.643.105-.196.25-.36.432-.49.137-.101.323-.187.559-.256.236-.07.49-.105.76-.105.406 0 .764.059 1.072.176.307.117.534.275.681.477.146.199.247.468.303.803l-.859.117c-.039-.267-.152-.476-.339-.625-.188-.149-.452-.225-.794-.225-.403 0-.692.066-.864.2s-.259.29-.259.469c0 .114.036.217.107.308.071.095.185.173.337.234.088.032.347.107.776.225.622.166 1.056.302 1.302.408.245.105.438.259.578.461s.21.452.21.752c0 .293-.085.568-.257.828-.17.258-.417.459-.739.6-.322.143-.687.213-1.094.213-.674 0-1.188-.14-1.54-.42-.355-.281-.581-.696-.678-1.246z"/></g><g clip-path="url(#p)"><path d="m186.799 85.675v-6.313h-2.358v-.845h5.674v.845h-2.368v6.313z"/><path d="m193.423 84.005.908.112c-.143.53-.409.942-.796 1.235s-.882.439-1.484.439c-.758 0-1.36-.233-1.804-.701-.444-.467-.667-1.122-.667-1.965 0-.872.225-1.55.674-2.031s1.032-.723 1.748-.723c.693 0 1.26.236 1.699.708s.659 1.136.659 1.992c0 .052-.001.13-.005.234h-3.867c.033.569.194 1.006.483 1.309s.651.454 1.084.454c.322 0 .597-.085.825-.254s.41-.438.543-.809zm-2.885-1.421h2.896c-.039-.437-.15-.764-.332-.981-.28-.339-.643-.508-1.089-.508-.404 0-.743.135-1.018.405s-.428.632-.457 1.084z"/><path d="m198.819 83.775.864.112c-.094.596-.336 1.062-.725 1.398-.389.338-.867.506-1.433.506-.709 0-1.28-.232-1.711-.695-.431-.465-.647-1.129-.647-1.995 0-.56.093-1.05.278-1.47s.468-.734.847-.945c.379-.209.792-.314 1.238-.314.563 0 1.024.143 1.382.428.358.284.587.688.688 1.213l-.854.132c-.082-.349-.226-.61-.432-.786s-.457-.264-.75-.264c-.443 0-.802.158-1.079.477-.277.316-.415.819-.415 1.506 0 .696.133 1.203.4 1.519s.615.474 1.045.474c.345 0 .633-.105.864-.317s.378-.539.44-.979z"/><path d="m200.435 85.675v-7.158h.879v2.568c.41-.476.928-.713 1.553-.713.384 0 .718.076 1.001.227.283.152.486.361.608.628s.183.654.183 1.162v3.286h-.879v-3.286c0-.439-.095-.759-.286-.96-.19-.199-.46-.3-.808-.3-.26 0-.505.067-.735.202-.229.136-.393.318-.491.55s-.146.55-.146.957v2.837z"/><path d="m205.997 85.675v-5.186h.791v.737c.381-.569.931-.854 1.65-.854.312 0 .6.057.862.168.262.113.458.26.588.442s.221.398.273.649c.033.163.049.447.049.854v3.188h-.879v-3.154c0-.358-.034-.626-.103-.803-.068-.178-.189-.319-.364-.426-.174-.105-.378-.158-.613-.158-.375 0-.697.119-.969.356s-.408.688-.408 1.353v2.832h-.877z"/><path d="m211.563 79.527v-1.011h.879v1.011zm0 6.148v-5.186h.879v5.186z"/><path d="m217.164 83.775.864.112c-.094.596-.336 1.062-.725 1.398-.389.338-.867.506-1.433.506-.709 0-1.28-.232-1.711-.695-.431-.465-.647-1.129-.647-1.995 0-.56.093-1.05.278-1.47s.468-.734.847-.945c.379-.209.792-.314 1.238-.314.563 0 1.024.143 1.382.428.358.284.587.688.688 1.213l-.854.132c-.082-.349-.226-.61-.432-.786s-.457-.264-.75-.264c-.443 0-.802.158-1.079.477-.277.316-.415.819-.415 1.506 0 .696.133 1.203.4 1.519s.615.474 1.045.474c.345 0 .633-.105.864-.317s.378-.539.44-.979z"/><path d="m218.785 79.527v-1.011h.879v1.011zm0 6.148v-5.186h.879v5.186z"/><path d="m224.385 85.035c-.326.276-.639.472-.94.586s-.624.171-.969.171c-.57 0-1.007-.139-1.313-.418-.306-.277-.459-.634-.459-1.066 0-.254.058-.486.173-.695.116-.211.267-.379.454-.506s.398-.223.632-.288c.172-.046.433-.09.781-.132.709-.085 1.232-.186 1.567-.303.003-.12.005-.197.005-.229 0-.358-.083-.61-.249-.757-.225-.198-.558-.298-1.001-.298-.414 0-.719.072-.916.218-.197.145-.343.4-.437.769l-.859-.117c.078-.368.207-.665.386-.892.179-.226.438-.4.776-.521.338-.123.731-.184 1.177-.184.443 0 .802.052 1.079.156s.48.235.61.393.221.357.273.599c.029.149.044.42.044.811v1.172c0 .817.019 1.334.056 1.55.038.217.111.425.222.623h-.918c-.089-.185-.148-.398-.174-.642zm-.073-1.963c-.319.13-.797.241-1.436.332-.361.052-.617.11-.767.176s-.265.16-.347.286c-.082.125-.122.264-.122.417 0 .234.089.43.266.586s.437.234.779.234c.338 0 .64-.074.903-.222.264-.148.458-.352.581-.608.094-.198.142-.491.142-.879v-.322z"/><path d="m226.563 85.675v-5.186h.791v.737c.381-.569.931-.854 1.65-.854.312 0 .6.057.862.168.262.113.458.26.588.442s.221.398.273.649c.033.163.049.447.049.854v3.188h-.879v-3.154c0-.358-.034-.626-.103-.803-.068-.178-.189-.319-.364-.426-.174-.105-.378-.158-.613-.158-.375 0-.697.119-.969.356s-.408.688-.408 1.353v2.832h-.877z"/><path d="m231.773 84.127.869-.137c.049.349.185.615.408.801s.535.278.935.278c.404 0 .703-.082.898-.246.195-.165.293-.357.293-.579 0-.198-.086-.354-.259-.469-.121-.078-.42-.178-.898-.298-.645-.163-1.091-.304-1.34-.422-.249-.119-.438-.283-.566-.494-.128-.209-.193-.441-.193-.695 0-.231.053-.445.159-.643.106-.196.25-.36.432-.49.137-.101.323-.187.559-.256.236-.07.489-.105.759-.105.407 0 .764.059 1.072.176s.535.275.681.477c.146.199.248.468.303.803l-.859.117c-.039-.267-.152-.476-.339-.625s-.452-.225-.793-.225c-.404 0-.692.066-.864.2s-.259.29-.259.469c0 .114.036.217.107.308.072.095.184.173.337.234.088.032.347.107.776.225.622.166 1.056.302 1.301.408.246.105.438.259.579.461s.21.452.21.752c0 .293-.085.568-.256.828-.171.258-.417.459-.74.6-.322.143-.687.213-1.094.213-.674 0-1.188-.14-1.541-.42s-.579-.696-.677-1.246z"/><path d="m243.995 84.83c-.29.322-.605.563-.947.726-.342.16-.711.241-1.108.241-.732 0-1.313-.247-1.743-.742-.348-.403-.522-.854-.522-1.353 0-.442.143-.842.427-1.199.285-.355.71-.669 1.277-.939-.322-.371-.537-.672-.645-.903s-.161-.454-.161-.669c0-.43.168-.803.505-1.121.337-.316.761-.476 1.272-.476.488 0 .888.149 1.199.449s.466.659.466 1.079c0 .681-.451 1.262-1.353 1.743l1.284 1.636c.146-.286.26-.618.342-.996l.913.195c-.156.625-.368 1.14-.635 1.543.329.437.702.803 1.118 1.099l-.591.698c-.355-.228-.721-.565-1.098-1.011zm-.552-.693-1.611-1.997c-.475.283-.796.546-.962.789-.166.242-.249.482-.249.72 0 .29.116.591.347.903s.558.469.981.469c.264 0 .536-.082.818-.246.281-.166.506-.378.676-.638zm-1.235-3.037c.381-.225.627-.422.74-.591s.168-.356.168-.562c0-.244-.077-.443-.232-.599-.155-.154-.348-.231-.579-.231-.238 0-.436.076-.593.229s-.237.34-.237.562c0 .11.028.228.085.349.057.123.143.252.256.389z"/><path d="m251.105 85.675v-6.313h-2.358v-.845h5.674v.845h-2.368v6.313z"/><path d="m254.9 85.675v-5.186h.791v.786c.202-.368.388-.61.559-.728s.359-.176.564-.176c.296 0 .597.095.903.283l-.303.815c-.215-.127-.43-.19-.645-.19-.192 0-.365.058-.518.174-.153.115-.262.275-.327.48-.098.312-.146.654-.146 1.025v2.715h-.878z"/><path d="m261.624 85.035c-.326.276-.639.472-.94.586s-.624.171-.969.171c-.57 0-1.007-.139-1.313-.418-.306-.277-.459-.634-.459-1.066 0-.254.058-.486.173-.695.116-.211.267-.379.454-.506s.398-.223.632-.288c.172-.046.433-.09.781-.132.709-.085 1.232-.186 1.567-.303.004-.12.006-.197.006-.229 0-.358-.084-.61-.25-.757-.225-.198-.558-.298-1-.298-.414 0-.719.072-.916.218-.197.145-.343.4-.437.769l-.859-.117c.078-.368.207-.665.386-.892.179-.226.438-.4.776-.521.338-.123.731-.184 1.177-.184.442 0 .802.052 1.078.156.277.104.48.235.611.393.13.158.221.357.273.599.029.149.043.42.043.811v1.172c0 .817.02 1.334.057 1.55.037.217.111.425.223.623h-.918c-.092-.185-.151-.398-.176-.642zm-.074-1.963c-.318.13-.797.241-1.435.332-.361.052-.617.11-.767.176s-.265.16-.347.286c-.082.125-.122.264-.122.417 0 .234.089.43.266.586s.437.234.779.234c.338 0 .639-.074.903-.222s.458-.352.582-.608c.094-.198.141-.491.141-.879z"/><path d="m267.165 85.675v-.654c-.328.515-.812.771-1.449.771-.414 0-.794-.114-1.141-.342s-.615-.546-.806-.955c-.19-.408-.286-.878-.286-1.408 0-.518.087-.987.26-1.408.172-.422.431-.745.775-.97.346-.225.731-.337 1.158-.337.312 0 .59.066.834.197.244.133.443.304.596.516v-2.568h.875v7.158zm-2.777-2.588c0 .664.14 1.16.42 1.489.279.329.609.493.99.493.385 0 .711-.157.979-.471.269-.314.403-.794.403-1.438 0-.71-.137-1.23-.41-1.562s-.611-.498-1.012-.498c-.391 0-.717.159-.979.479s-.391.821-.391 1.508z"/><path d="m272.913 84.005.908.112c-.144.53-.409.942-.797 1.235-.387.293-.882.439-1.484.439-.758 0-1.359-.233-1.804-.701-.444-.467-.667-1.122-.667-1.965 0-.872.225-1.55.674-2.031s1.032-.723 1.748-.723c.693 0 1.26.236 1.699.708s.66 1.136.66 1.992c0 .052-.002.13-.006.234h-3.867c.033.569.194 1.006.484 1.309.289.303.65.454 1.084.454.322 0 .597-.085.824-.254.23-.168.41-.438.544-.809zm-2.887-1.421h2.896c-.039-.437-.15-.764-.332-.981-.28-.339-.644-.508-1.09-.508-.403 0-.742.135-1.018.405s-.426.632-.456 1.084z"/><path d="m274.573 84.127.869-.137c.049.349.184.615.407.801s.534.278.935.278c.404 0 .703-.082.898-.246.195-.165.293-.357.293-.579 0-.198-.086-.354-.258-.469-.121-.078-.42-.178-.898-.298-.645-.163-1.092-.304-1.341-.422-.249-.119-.438-.283-.566-.494-.128-.209-.192-.441-.192-.695 0-.231.053-.445.158-.643.105-.196.25-.36.432-.49.137-.101.324-.187.56-.256.235-.07.489-.105.759-.105.407 0 .765.059 1.072.176s.535.275.682.477c.146.199.247.468.303.803l-.859.117c-.039-.267-.152-.476-.34-.625s-.451-.225-.793-.225c-.404 0-.692.066-.865.2-.172.134-.258.29-.258.469 0 .114.035.217.107.308.071.095.184.173.336.234.088.032.348.107.777.225.621.166 1.055.302 1.301.408.246.105.438.259.578.461.141.202.211.452.211.752 0 .293-.086.568-.257.828-.171.258-.417.459-.739.6-.322.143-.688.213-1.094.213-.674 0-1.188-.14-1.541-.42s-.579-.696-.677-1.246z"/></g><g clip-path="url(#q)"><path d="m184.207 51.731 2.749-7.158h1.021l2.93 7.158h-1.079l-.835-2.168h-2.993l-.786 2.168zm2.065-2.939h2.427l-.747-1.982c-.228-.603-.397-1.097-.508-1.484-.091.459-.22.915-.386 1.367z"/><path d="m194.915 51.731v-.654c-.329.515-.812.771-1.45.771-.414 0-.793-.114-1.14-.342s-.615-.546-.806-.955c-.19-.408-.286-.878-.286-1.408 0-.518.086-.987.259-1.408.172-.422.431-.745.776-.97s.731-.337 1.157-.337c.312 0 .591.066.835.197.244.133.443.304.596.516v-2.568h.874v7.158zm-2.779-2.587c0 .664.14 1.16.42 1.489s.61.493.991.493c.384 0 .71-.157.979-.471s.403-.794.403-1.438c0-.71-.137-1.23-.41-1.562s-.61-.498-1.011-.498c-.391 0-.717.159-.979.479s-.393.821-.393 1.508z"/><path d="m197.112 51.731v-5.186h.786v.728c.163-.254.379-.458.649-.612.27-.155.578-.232.923-.232.384 0 .699.08.945.239s.419.383.52.669c.41-.605.944-.908 1.602-.908.514 0 .91.143 1.187.428.277.284.415.723.415 1.315v3.56h-.874v-3.267c0-.352-.028-.604-.085-.759s-.16-.279-.31-.374-.326-.142-.527-.142c-.365 0-.667.121-.908.363-.241.243-.361.631-.361 1.165v3.013h-.879v-3.369c0-.391-.072-.684-.215-.879s-.377-.293-.703-.293c-.248 0-.476.065-.686.195s-.362.32-.457.571-.142.612-.142 1.084v2.69h-.88z"/><path d="m205.447 45.584v-1.011h.879v1.011zm0 6.147v-5.186h.879v5.186z"/><path d="m207.664 51.731v-5.186h.791v.737c.381-.569.931-.854 1.65-.854.312 0 .6.057.862.168.262.113.458.26.588.442s.221.398.273.649c.033.163.049.447.049.854v3.188h-.879v-3.154c0-.358-.034-.626-.103-.803-.068-.178-.189-.319-.364-.426-.174-.105-.378-.158-.613-.158-.375 0-.697.119-.969.356s-.408.688-.408 1.353v2.832h-.877z"/></g><g clip-path="url(#r)"><path d="m184.938 17.79v-7.158h.947v6.313h3.525v.845z"/><path d="m193.811 17.15c-.326.276-.639.472-.94.586s-.624.171-.969.171c-.57 0-1.007-.139-1.313-.418-.306-.277-.459-.634-.459-1.066 0-.254.058-.486.173-.695.116-.211.267-.379.454-.506s.398-.223.632-.288c.172-.046.433-.09.781-.132.709-.085 1.232-.186 1.567-.303.003-.12.005-.197.005-.229 0-.358-.083-.61-.249-.757-.225-.198-.558-.298-1.001-.298-.414 0-.719.072-.916.218-.197.145-.343.4-.437.769l-.859-.117c.078-.368.207-.665.386-.892.179-.226.438-.4.776-.521.338-.123.731-.184 1.177-.184.443 0 .802.052 1.079.156s.48.235.61.393.221.357.273.599c.029.149.044.42.044.811v1.172c0 .817.019 1.334.056 1.55.038.217.111.425.222.623h-.918c-.09-.185-.149-.397-.174-.642zm-.074-1.962c-.319.13-.797.241-1.436.332-.361.052-.617.11-.767.176s-.265.16-.347.286c-.082.125-.122.264-.122.417 0 .234.089.43.266.586s.437.234.779.234c.338 0 .64-.074.903-.222.264-.148.458-.352.581-.608.094-.198.142-.491.142-.879v-.322z"/><path d="m196.799 17.79h-.815v-7.158h.879v2.554c.371-.466.845-.698 1.421-.698.319 0 .621.064.906.193.285.128.519.309.703.541.184.233.328.514.432.843s.156.681.156 1.055c0 .889-.22 1.575-.659 2.061s-.967.728-1.582.728c-.612 0-1.092-.256-1.44-.767v.648zm-.01-2.632c0 .622.084 1.071.254 1.348.277.452.651.679 1.123.679.384 0 .716-.167.996-.5.28-.334.42-.831.42-1.492 0-.677-.134-1.177-.403-1.499s-.593-.483-.974-.483c-.384 0-.716.167-.996.5s-.42.815-.42 1.447z"/><path d="m201.223 15.197c0-.96.267-1.672.801-2.134.446-.384.99-.576 1.631-.576.713 0 1.295.233 1.748.701.453.467.679 1.112.679 1.936 0 .667-.1 1.192-.3 1.574-.2.383-.492.68-.874.892s-.8.317-1.252.317c-.726 0-1.312-.232-1.76-.698s-.673-1.136-.673-2.012zm.903 0c0 .664.145 1.161.435 1.491.29.331.654.496 1.094.496.436 0 .799-.166 1.089-.498s.435-.838.435-1.519c0-.642-.146-1.127-.437-1.458-.292-.33-.653-.495-1.086-.495-.439 0-.804.164-1.094.493s-.436.826-.436 1.49z"/><path d="m210.51 17.79v-.762c-.404.586-.952.879-1.646.879-.306 0-.592-.059-.857-.176s-.462-.265-.591-.441c-.128-.178-.219-.396-.271-.652-.036-.173-.054-.446-.054-.82v-3.213h.879v2.876c0 .459.018.769.054.928.055.231.172.413.352.544.179.133.4.198.664.198s.511-.067.742-.202c.231-.136.395-.319.491-.553.096-.232.144-.57.144-1.013v-2.778h.879v5.186h-.786z"/><path d="m212.663 17.79v-5.186h.791v.786c.202-.368.388-.61.559-.728s.359-.176.564-.176c.296 0 .597.095.903.283l-.303.815c-.215-.127-.43-.19-.645-.19-.192 0-.365.058-.518.174-.153.115-.262.275-.327.48-.098.312-.146.654-.146 1.025v2.715h-.878z"/><path d="m219.553 16.12.908.112c-.143.53-.409.942-.796 1.235s-.882.439-1.484.439c-.758 0-1.36-.233-1.804-.701-.444-.467-.667-1.122-.667-1.965 0-.872.225-1.55.674-2.031s1.032-.723 1.748-.723c.693 0 1.26.236 1.699.708s.659 1.136.659 1.992c0 .052-.001.13-.005.234h-3.867c.033.569.194 1.006.483 1.309s.651.454 1.084.454c.322 0 .597-.085.825-.254s.409-.438.543-.809zm-2.886-1.421h2.896c-.039-.437-.15-.764-.332-.981-.28-.339-.643-.508-1.089-.508-.404 0-.743.135-1.018.405s-.428.632-.457 1.084z"/><path d="m221.555 17.79v-5.186h.791v.786c.202-.368.388-.61.559-.728s.359-.176.564-.176c.296 0 .597.095.903.283l-.303.815c-.215-.127-.43-.19-.645-.19-.192 0-.365.058-.518.174-.153.115-.262.275-.327.48-.098.312-.146.654-.146 1.025v2.715h-.878z"/><path d="m224.543 16.242.869-.137c.049.349.185.615.408.801s.535.278.935.278c.404 0 .703-.082.898-.246.195-.165.293-.357.293-.579 0-.198-.086-.354-.259-.469-.121-.078-.42-.178-.898-.298-.645-.163-1.091-.304-1.34-.422-.249-.119-.438-.283-.566-.494-.128-.209-.193-.441-.193-.695 0-.231.053-.445.159-.643.106-.196.25-.36.432-.49.137-.101.323-.187.559-.256.236-.07.489-.105.759-.105.407 0 .764.059 1.072.176s.535.275.681.477c.146.199.248.468.303.803l-.859.117c-.039-.267-.152-.476-.339-.625s-.452-.225-.793-.225c-.404 0-.692.066-.864.2s-.259.29-.259.469c0 .114.036.217.107.308.072.095.184.173.337.234.088.032.347.107.776.225.622.166 1.056.302 1.301.408.246.105.438.259.579.461s.21.452.21.752c0 .293-.085.568-.256.828-.171.258-.417.459-.74.6-.322.143-.687.213-1.094.213-.674 0-1.188-.14-1.541-.42s-.579-.696-.677-1.246z"/></g></g></svg>