<?xml version="1.0" encoding="utf-8"?>
<!-- Generator: Adobe Illustrator 16.0.0, SVG Export Plug-In . SVG Version: 6.00 Build 0)  -->
<!DOCTYPE svg PUBLIC "-//W3C//DTD SVG 1.1//EN" "http://www.w3.org/Graphics/SVG/1.1/DTD/svg11.dtd">
<svg version="1.1" id="Layer_1" xmlns="http://www.w3.org/2000/svg" xmlns:xlink="http://www.w3.org/1999/xlink" x="0px" y="0px"
	 width="538.971px" height="269.097px" viewBox="0 0 538.971 269.097" enable-background="new 0 0 538.971 269.097"
	 xml:space="preserve">
<g>
	<rect x="-70.794" y="-47.904" opacity="0" fill-rule="evenodd" clip-rule="evenodd" fill="#FFFFFF" width="659" height="345"/>
</g>
<g>
	<defs>
		<rect id="SVGID_1_" x="-55.794" y="-3.904" width="617" height="273"/>
	</defs>
	<clipPath id="SVGID_2_">
		<use xlink:href="#SVGID_1_"  overflow="visible"/>
	</clipPath>
	<path clip-path="url(#SVGID_2_)" fill="#3E669E" d="M33.373,21.263h143v-15h-143V21.263z M41.373,55.263h135v-15h-135V55.263z
		 M103.373,89.263h73v-15h-73V89.263z M103.373,123.263h73v-16h-73V123.263z M199.373,191.263h-23v-16h23V191.263z M383.373,225.263
		h-207v-16h207V225.263z M510.373,259.263h-334v-16h334V259.263z"/>
</g>
<g>
	<defs>
		<rect id="SVGID_3_" x="-69.794" y="-46.904" width="657" height="343"/>
	</defs>
	<clipPath id="SVGID_4_">
		<use xlink:href="#SVGID_3_"  overflow="visible"/>
	</clipPath>
	
		<line clip-path="url(#SVGID_4_)" fill="none" stroke="#E0E0E0" stroke-linejoin="round" stroke-miterlimit="10" x1="176" y1="268.358" x2="176.001" y2="-3.182"/>
</g>
<g>
	<defs>
		<rect id="SVGID_5_" x="-69.794" y="-46.904" width="657" height="343"/>
	</defs>
	<clipPath id="SVGID_6_">
		<use xlink:href="#SVGID_5_"  overflow="visible"/>
	</clipPath>
	<g clip-path="url(#SVGID_6_)">
		<path fill="#010202" d="M519.548,251.507c-0.364-0.135-0.635-0.324-0.811-0.572c-0.176-0.246-0.264-0.543-0.264-0.889
			c0-0.52,0.188-0.959,0.562-1.312c0.374-0.355,0.872-0.533,1.494-0.533c0.625,0,1.127,0.182,1.508,0.545s0.572,0.805,0.572,1.326
			c0,0.332-0.088,0.621-0.262,0.865c-0.174,0.246-0.438,0.436-0.793,0.57c0.439,0.143,0.773,0.373,1.003,0.693
			c0.229,0.318,0.345,0.699,0.345,1.143c0,0.611-0.217,1.125-0.65,1.543c-0.433,0.416-1.002,0.625-1.709,0.625
			c-0.706,0-1.275-0.209-1.709-0.629c-0.433-0.418-0.648-0.939-0.648-1.564c0-0.465,0.117-0.855,0.354-1.17
			C518.776,251.835,519.112,251.62,519.548,251.507z M519.089,253.323c0,0.25,0.061,0.492,0.179,0.727s0.296,0.416,0.53,0.545
			s0.486,0.193,0.756,0.193c0.42,0,0.768-0.135,1.041-0.406c0.273-0.27,0.41-0.613,0.41-1.029c0-0.424-0.141-0.773-0.423-1.051
			c-0.282-0.275-0.634-0.414-1.058-0.414c-0.413,0-0.756,0.137-1.027,0.41S519.089,252.913,519.089,253.323z M519.372,250.017
			c0,0.34,0.109,0.615,0.328,0.83c0.218,0.215,0.501,0.322,0.85,0.322c0.338,0,0.615-0.105,0.832-0.32
			c0.217-0.213,0.324-0.473,0.324-0.783c0-0.322-0.111-0.594-0.334-0.812c-0.223-0.221-0.5-0.33-0.832-0.33
			c-0.336,0-0.614,0.107-0.836,0.322C519.483,249.46,519.372,249.718,519.372,250.017z"/>
		<path fill="#010202" d="M523.815,249.167v-0.844h4.635v0.684c-0.456,0.484-0.908,1.129-1.355,1.934
			c-0.447,0.803-0.793,1.631-1.037,2.48c-0.176,0.598-0.289,1.254-0.338,1.967h-0.902c0.01-0.562,0.12-1.242,0.332-2.041
			c0.211-0.797,0.515-1.566,0.91-2.307s0.816-1.365,1.262-1.873H523.815z"/>
		<path fill="#010202" d="M529.485,249.948c0-0.51,0.128-0.945,0.385-1.303c0.258-0.359,0.631-0.537,1.119-0.537
			c0.449,0,0.82,0.16,1.115,0.48s0.441,0.791,0.441,1.414c0,0.605-0.148,1.07-0.446,1.398c-0.298,0.326-0.665,0.49-1.101,0.49
			c-0.434,0-0.794-0.16-1.082-0.482S529.485,250.601,529.485,249.948z M531.013,248.714c-0.218,0-0.398,0.094-0.544,0.283
			c-0.146,0.188-0.218,0.535-0.218,1.039c0,0.459,0.074,0.783,0.221,0.969c0.146,0.188,0.326,0.281,0.541,0.281
			c0.222,0,0.404-0.094,0.55-0.283c0.146-0.188,0.218-0.533,0.218-1.035c0-0.461-0.074-0.787-0.221-0.975
			C531.413,248.808,531.231,248.714,531.013,248.714z M531.019,255.651l3.916-7.543h0.713l-3.902,7.543H531.019z M534.114,253.708
			c0-0.514,0.128-0.949,0.385-1.307c0.258-0.355,0.632-0.533,1.123-0.533c0.449,0,0.822,0.16,1.116,0.48s0.442,0.791,0.442,1.414
			c0,0.605-0.149,1.07-0.447,1.398c-0.298,0.326-0.666,0.49-1.105,0.49c-0.434,0-0.794-0.162-1.082-0.486
			C534.258,254.843,534.114,254.356,534.114,253.708z M535.647,252.474c-0.222,0-0.404,0.094-0.55,0.283
			c-0.146,0.188-0.218,0.535-0.218,1.039c0,0.457,0.074,0.779,0.221,0.967c0.146,0.189,0.326,0.283,0.541,0.283
			c0.225,0,0.41-0.094,0.555-0.283c0.145-0.188,0.217-0.533,0.217-1.035c0-0.461-0.072-0.787-0.219-0.975
			C536.048,252.567,535.865,252.474,535.647,252.474z"/>
	</g>
</g>
<g>
	<defs>
		<rect id="SVGID_7_" x="-69.794" y="-46.904" width="657" height="343"/>
	</defs>
	<clipPath id="SVGID_8_">
		<use xlink:href="#SVGID_7_"  overflow="visible"/>
	</clipPath>
	<g clip-path="url(#SVGID_8_)">
		<path fill="#010202" d="M391.21,219.569l0.923-0.078c0.068,0.449,0.228,0.787,0.476,1.014c0.25,0.227,0.55,0.34,0.901,0.34
			c0.423,0,0.781-0.16,1.074-0.479c0.293-0.32,0.439-0.742,0.439-1.27c0-0.502-0.141-0.896-0.423-1.188
			c-0.281-0.289-0.65-0.434-1.105-0.434c-0.283,0-0.539,0.064-0.767,0.191c-0.228,0.129-0.407,0.297-0.537,0.502l-0.825-0.107
			l0.693-3.678h3.56v0.84h-2.856l-0.386,1.924c0.43-0.299,0.88-0.449,1.353-0.449c0.625,0,1.152,0.217,1.582,0.65
			c0.43,0.432,0.645,0.988,0.645,1.67c0,0.646-0.189,1.207-0.566,1.68c-0.459,0.578-1.086,0.869-1.88,0.869
			c-0.651,0-1.183-0.184-1.595-0.547C391.504,220.655,391.269,220.173,391.21,219.569z"/>
		<path fill="#010202" d="M399.589,221.444v-1.713h-3.105v-0.807l3.267-4.639h0.718v4.639h0.967v0.807h-0.967v1.713H399.589z
			 M399.589,218.925v-3.227l-2.241,3.227H399.589z"/>
		<path fill="#010202" d="M402.499,216.005c0-0.51,0.129-0.945,0.386-1.303c0.257-0.359,0.63-0.537,1.118-0.537
			c0.449,0,0.821,0.16,1.115,0.48c0.295,0.32,0.442,0.791,0.442,1.414c0,0.605-0.149,1.07-0.446,1.398
			c-0.299,0.326-0.666,0.49-1.102,0.49c-0.434,0-0.793-0.16-1.082-0.482C402.644,217.144,402.499,216.657,402.499,216.005z
			 M404.027,214.771c-0.218,0-0.399,0.094-0.544,0.283c-0.146,0.188-0.218,0.535-0.218,1.039c0,0.459,0.073,0.783,0.22,0.969
			c0.146,0.188,0.327,0.281,0.542,0.281c0.222,0,0.404-0.094,0.55-0.283c0.145-0.188,0.217-0.533,0.217-1.035
			c0-0.461-0.073-0.787-0.22-0.975C404.428,214.864,404.245,214.771,404.027,214.771z M404.032,221.708l3.916-7.543h0.713
			l-3.901,7.543H404.032z M407.128,219.765c0-0.514,0.129-0.949,0.386-1.307c0.257-0.355,0.632-0.533,1.123-0.533
			c0.449,0,0.821,0.16,1.116,0.48c0.294,0.32,0.441,0.791,0.441,1.414c0,0.605-0.148,1.07-0.447,1.398
			c-0.297,0.326-0.666,0.49-1.105,0.49c-0.434,0-0.793-0.162-1.082-0.486C407.272,220.899,407.128,220.413,407.128,219.765z
			 M408.661,218.53c-0.221,0-0.404,0.094-0.549,0.283c-0.146,0.188-0.218,0.535-0.218,1.039c0,0.457,0.073,0.779,0.22,0.967
			c0.146,0.189,0.327,0.283,0.542,0.283c0.225,0,0.409-0.094,0.554-0.283c0.146-0.188,0.218-0.533,0.218-1.035
			c0-0.461-0.073-0.787-0.22-0.975C409.062,218.624,408.88,218.53,408.661,218.53z"/>
	</g>
</g>
<g>
	<defs>
		<rect id="SVGID_9_" x="-69.794" y="-46.904" width="657" height="343"/>
	</defs>
	<clipPath id="SVGID_10_">
		<use xlink:href="#SVGID_9_"  overflow="visible"/>
	</clipPath>
	<g clip-path="url(#SVGID_10_)">
		<path fill="#010202" d="M211.064,182.097l-0.874,0.068c-0.078-0.344-0.189-0.596-0.332-0.752c-0.238-0.25-0.531-0.375-0.879-0.375
			c-0.28,0-0.526,0.078-0.737,0.234c-0.277,0.201-0.495,0.496-0.654,0.883c-0.16,0.389-0.243,0.939-0.249,1.656
			c0.211-0.322,0.47-0.562,0.776-0.719s0.626-0.234,0.962-0.234c0.586,0,1.085,0.217,1.497,0.648
			c0.412,0.43,0.618,0.988,0.618,1.672c0,0.449-0.097,0.867-0.291,1.252c-0.194,0.387-0.46,0.682-0.798,0.887
			s-0.723,0.307-1.152,0.307c-0.732,0-1.33-0.27-1.792-0.807c-0.462-0.539-0.693-1.428-0.693-2.664c0-1.385,0.255-2.391,0.767-3.018
			c0.446-0.547,1.046-0.82,1.802-0.82c0.563,0,1.024,0.158,1.384,0.473C210.777,181.104,210.993,181.54,211.064,182.097z
			 M207.476,185.183c0,0.303,0.064,0.594,0.193,0.869c0.128,0.277,0.309,0.488,0.54,0.633s0.474,0.217,0.728,0.217
			c0.371,0,0.69-0.148,0.957-0.449c0.267-0.299,0.4-0.705,0.4-1.221c0-0.494-0.132-0.885-0.396-1.168
			c-0.264-0.285-0.596-0.428-0.996-0.428c-0.397,0-0.734,0.143-1.011,0.428C207.614,184.347,207.476,184.722,207.476,185.183z"/>
		<path fill="#010202" d="M212.231,182.063c0-0.512,0.128-0.945,0.386-1.305c0.257-0.357,0.63-0.537,1.118-0.537
			c0.449,0,0.821,0.16,1.116,0.482c0.294,0.32,0.442,0.791,0.442,1.412c0,0.605-0.149,1.072-0.447,1.4
			c-0.298,0.326-0.665,0.49-1.101,0.49c-0.433,0-0.793-0.162-1.082-0.484S212.231,182.714,212.231,182.063z M213.76,180.827
			c-0.218,0-0.399,0.096-0.544,0.283c-0.145,0.189-0.217,0.535-0.217,1.041c0,0.459,0.073,0.781,0.22,0.969s0.327,0.281,0.542,0.281
			c0.221,0,0.404-0.096,0.549-0.283c0.145-0.189,0.217-0.535,0.217-1.035c0-0.463-0.073-0.787-0.22-0.975
			S213.978,180.827,213.76,180.827z M213.765,187.767l3.916-7.545h0.713l-3.901,7.545H213.765z M216.86,185.823
			c0-0.516,0.128-0.949,0.386-1.307c0.257-0.355,0.631-0.535,1.123-0.535c0.449,0,0.821,0.16,1.116,0.482
			c0.294,0.32,0.442,0.791,0.442,1.412c0,0.605-0.149,1.072-0.447,1.4c-0.298,0.326-0.667,0.49-1.106,0.49
			c-0.433,0-0.793-0.162-1.082-0.486S216.86,186.47,216.86,185.823z M218.394,184.587c-0.221,0-0.404,0.096-0.549,0.283
			c-0.145,0.189-0.217,0.535-0.217,1.041c0,0.455,0.073,0.777,0.22,0.967c0.146,0.188,0.327,0.283,0.542,0.283
			c0.225,0,0.409-0.096,0.554-0.283c0.145-0.189,0.217-0.535,0.217-1.035c0-0.463-0.073-0.787-0.22-0.975
			S218.612,184.587,218.394,184.587z"/>
	</g>
</g>
<g>
	<defs>
		<rect id="SVGID_11_" x="-69.794" y="-46.904" width="657" height="343"/>
	</defs>
	<clipPath id="SVGID_12_">
		<use xlink:href="#SVGID_11_"  overflow="visible"/>
	</clipPath>
	<g clip-path="url(#SVGID_12_)">
		<path fill="#010202" d="M183.416,150.03c0-0.848,0.087-1.527,0.261-2.045c0.174-0.516,0.433-0.912,0.776-1.193
			c0.343-0.279,0.775-0.42,1.296-0.42c0.384,0,0.721,0.078,1.011,0.232s0.529,0.377,0.718,0.668
			c0.189,0.293,0.337,0.646,0.444,1.064c0.107,0.42,0.161,0.982,0.161,1.693c0,0.84-0.086,1.518-0.259,2.033
			s-0.431,0.914-0.774,1.195c-0.343,0.283-0.777,0.424-1.301,0.424c-0.69,0-1.232-0.248-1.626-0.742
			C183.651,152.345,183.416,151.374,183.416,150.03z M184.319,150.03c0,1.174,0.138,1.957,0.413,2.346s0.614,0.584,1.018,0.584
			s0.743-0.195,1.018-0.586s0.413-1.172,0.413-2.344c0-1.18-0.138-1.961-0.413-2.35c-0.275-0.387-0.618-0.58-1.028-0.58
			c-0.404,0-0.726,0.17-0.967,0.512C184.47,148.05,184.319,148.854,184.319,150.03z"/>
		<path fill="#010202" d="M189.143,148.12c0-0.51,0.128-0.945,0.386-1.303c0.257-0.359,0.63-0.537,1.118-0.537
			c0.449,0,0.821,0.16,1.116,0.48s0.442,0.791,0.442,1.414c0,0.605-0.149,1.07-0.447,1.398c-0.298,0.326-0.665,0.49-1.101,0.49
			c-0.433,0-0.793-0.16-1.082-0.482S189.143,148.772,189.143,148.12z M190.671,146.886c-0.218,0-0.399,0.094-0.544,0.283
			c-0.145,0.188-0.217,0.535-0.217,1.039c0,0.459,0.073,0.783,0.22,0.969c0.146,0.188,0.327,0.281,0.542,0.281
			c0.221,0,0.404-0.094,0.549-0.283c0.145-0.188,0.217-0.533,0.217-1.035c0-0.461-0.073-0.787-0.22-0.975
			C191.072,146.979,190.89,146.886,190.671,146.886z M190.676,153.823l3.916-7.543h0.713l-3.901,7.543H190.676z M193.772,151.88
			c0-0.514,0.128-0.949,0.386-1.307c0.257-0.355,0.631-0.533,1.123-0.533c0.449,0,0.821,0.16,1.116,0.48s0.442,0.791,0.442,1.414
			c0,0.605-0.149,1.07-0.447,1.398c-0.298,0.326-0.667,0.49-1.106,0.49c-0.433,0-0.793-0.162-1.082-0.486
			C193.916,153.015,193.772,152.528,193.772,151.88z M195.305,150.646c-0.221,0-0.404,0.094-0.549,0.283
			c-0.145,0.188-0.217,0.535-0.217,1.039c0,0.457,0.073,0.779,0.22,0.967c0.146,0.189,0.327,0.283,0.542,0.283
			c0.225,0,0.409-0.094,0.554-0.283c0.145-0.188,0.217-0.533,0.217-1.035c0-0.461-0.073-0.787-0.22-0.975
			C195.706,150.739,195.523,150.646,195.305,150.646z"/>
	</g>
</g>
<g>
	<defs>
		<rect id="SVGID_13_" x="-69.794" y="-46.904" width="657" height="343"/>
	</defs>
	<clipPath id="SVGID_14_">
		<use xlink:href="#SVGID_13_"  overflow="visible"/>
	</clipPath>
	<g clip-path="url(#SVGID_14_)">
		<path fill="#010202" d="M72.86,117.47v-0.884h2.7v0.884H72.86z"/>
		<path fill="#010202" d="M79.599,119.618H78.72v-5.601c-0.211,0.202-0.489,0.403-0.833,0.605s-0.652,0.354-0.925,0.454v-0.85
			c0.492-0.231,0.921-0.511,1.289-0.84s0.628-0.647,0.781-0.957h0.566V119.618z"/>
		<path fill="#010202" d="M81.981,117.963l0.845-0.078c0.072,0.397,0.208,0.686,0.41,0.864s0.46,0.269,0.776,0.269
			c0.27,0,0.507-0.062,0.71-0.186s0.37-0.289,0.5-0.495c0.13-0.207,0.239-0.486,0.327-0.838s0.132-0.71,0.132-1.074
			c0-0.039-0.001-0.098-0.005-0.176c-0.176,0.28-0.416,0.507-0.72,0.682c-0.304,0.174-0.634,0.261-0.989,0.261
			c-0.592,0-1.094-0.215-1.504-0.645s-0.615-0.996-0.615-1.699c0-0.726,0.214-1.311,0.642-1.753s0.964-0.664,1.609-0.664
			c0.465,0,0.891,0.125,1.277,0.376s0.679,0.608,0.879,1.071c0.2,0.465,0.3,1.136,0.3,2.015c0,0.915-0.099,1.644-0.298,2.185
			c-0.199,0.543-0.494,0.955-0.886,1.238s-0.852,0.425-1.379,0.425c-0.56,0-1.017-0.155-1.372-0.466
			C82.266,118.963,82.053,118.526,81.981,117.963z M85.58,114.804c0-0.505-0.134-0.905-0.403-1.201s-0.592-0.444-0.969-0.444
			c-0.391,0-0.731,0.159-1.021,0.479s-0.435,0.732-0.435,1.24c0,0.456,0.138,0.826,0.413,1.11c0.275,0.285,0.614,0.428,1.018,0.428
			c0.407,0,0.741-0.143,1.003-0.428C85.449,115.703,85.58,115.309,85.58,114.804z"/>
		<path fill="#010202" d="M87.577,114.179c0-0.511,0.128-0.945,0.386-1.304s0.63-0.537,1.118-0.537c0.449,0,0.821,0.16,1.116,0.481
			c0.294,0.32,0.442,0.791,0.442,1.413c0,0.605-0.149,1.071-0.447,1.399c-0.298,0.326-0.665,0.49-1.101,0.49
			c-0.433,0-0.793-0.161-1.082-0.483S87.577,114.83,87.577,114.179z M89.105,112.943c-0.218,0-0.399,0.095-0.544,0.283
			s-0.217,0.535-0.217,1.04c0,0.459,0.073,0.782,0.22,0.969c0.146,0.188,0.327,0.281,0.542,0.281c0.221,0,0.404-0.095,0.549-0.283
			s0.217-0.534,0.217-1.035c0-0.462-0.073-0.787-0.22-0.975C89.506,113.037,89.324,112.943,89.105,112.943z M89.11,119.882
			l3.916-7.544h0.713l-3.901,7.544H89.11z M92.206,117.938c0-0.515,0.128-0.949,0.386-1.307c0.257-0.355,0.631-0.534,1.123-0.534
			c0.449,0,0.821,0.16,1.116,0.481c0.294,0.32,0.442,0.791,0.442,1.413c0,0.605-0.149,1.071-0.447,1.399
			c-0.298,0.326-0.667,0.49-1.106,0.49c-0.433,0-0.793-0.162-1.082-0.486C92.35,119.072,92.206,118.586,92.206,117.938z
			 M93.739,116.703c-0.221,0-0.404,0.095-0.549,0.283s-0.217,0.535-0.217,1.04c0,0.456,0.073,0.778,0.22,0.967
			s0.327,0.283,0.542,0.283c0.225,0,0.409-0.095,0.554-0.283s0.217-0.534,0.217-1.035c0-0.462-0.073-0.787-0.22-0.975
			C94.14,116.797,93.958,116.703,93.739,116.703z"/>
	</g>
</g>
<g>
	<defs>
		<rect id="SVGID_15_" x="-69.794" y="-46.904" width="657" height="343"/>
	</defs>
	<clipPath id="SVGID_16_">
		<use xlink:href="#SVGID_15_"  overflow="visible"/>
	</clipPath>
	<g clip-path="url(#SVGID_16_)">
		<path fill="#010202" d="M72.86,83.526v-0.884h2.7v0.884H72.86z"/>
		<path fill="#010202" d="M79.599,85.675H78.72v-5.601c-0.211,0.202-0.489,0.403-0.833,0.605s-0.652,0.354-0.925,0.454v-0.85
			c0.492-0.231,0.921-0.511,1.289-0.84s0.628-0.647,0.781-0.957h0.566V85.675z"/>
		<path fill="#010202" d="M81.981,84.02l0.845-0.078c0.072,0.397,0.208,0.686,0.41,0.864s0.46,0.269,0.776,0.269
			c0.27,0,0.507-0.062,0.71-0.186s0.37-0.289,0.5-0.495c0.13-0.207,0.239-0.486,0.327-0.838s0.132-0.71,0.132-1.074
			c0-0.039-0.001-0.098-0.005-0.176c-0.176,0.28-0.416,0.507-0.72,0.682c-0.304,0.174-0.634,0.261-0.989,0.261
			c-0.592,0-1.094-0.215-1.504-0.645s-0.615-0.996-0.615-1.699c0-0.726,0.214-1.311,0.642-1.753s0.964-0.664,1.609-0.664
			c0.465,0,0.891,0.125,1.277,0.376s0.679,0.608,0.879,1.071c0.2,0.465,0.3,1.136,0.3,2.015c0,0.915-0.099,1.644-0.298,2.185
			c-0.199,0.543-0.494,0.955-0.886,1.238s-0.852,0.425-1.379,0.425c-0.56,0-1.017-0.155-1.372-0.466
			C82.266,85.02,82.053,84.583,81.981,84.02z M85.58,80.86c0-0.505-0.134-0.905-0.403-1.201s-0.592-0.444-0.969-0.444
			c-0.391,0-0.731,0.159-1.021,0.479s-0.435,0.732-0.435,1.24c0,0.456,0.138,0.826,0.413,1.11c0.275,0.285,0.614,0.428,1.018,0.428
			c0.407,0,0.741-0.143,1.003-0.428C85.449,81.76,85.58,81.365,85.58,80.86z"/>
		<path fill="#010202" d="M87.577,80.235c0-0.511,0.128-0.945,0.386-1.304s0.63-0.537,1.118-0.537c0.449,0,0.821,0.16,1.116,0.481
			c0.294,0.32,0.442,0.791,0.442,1.413c0,0.605-0.149,1.071-0.447,1.399c-0.298,0.326-0.665,0.49-1.101,0.49
			c-0.433,0-0.793-0.161-1.082-0.483S87.577,80.887,87.577,80.235z M89.105,79c-0.218,0-0.399,0.095-0.544,0.283
			s-0.217,0.535-0.217,1.04c0,0.459,0.073,0.782,0.22,0.969c0.146,0.188,0.327,0.281,0.542,0.281c0.221,0,0.404-0.095,0.549-0.283
			s0.217-0.534,0.217-1.035c0-0.462-0.073-0.787-0.22-0.975C89.506,79.094,89.324,79,89.105,79z M89.11,85.938l3.916-7.544h0.713
			l-3.901,7.544H89.11z M92.206,83.995c0-0.515,0.128-0.949,0.386-1.307c0.257-0.355,0.631-0.534,1.123-0.534
			c0.449,0,0.821,0.16,1.116,0.481c0.294,0.32,0.442,0.791,0.442,1.413c0,0.605-0.149,1.071-0.447,1.399
			c-0.298,0.326-0.667,0.49-1.106,0.49c-0.433,0-0.793-0.162-1.082-0.486C92.35,85.129,92.206,84.643,92.206,83.995z M93.739,82.76
			c-0.221,0-0.404,0.095-0.549,0.283s-0.217,0.535-0.217,1.04c0,0.456,0.073,0.778,0.22,0.967s0.327,0.283,0.542,0.283
			c0.225,0,0.409-0.095,0.554-0.283s0.217-0.534,0.217-1.035c0-0.462-0.073-0.787-0.22-0.975
			C94.14,82.854,93.958,82.76,93.739,82.76z"/>
	</g>
</g>
<g>
	<defs>
		<rect id="SVGID_17_" x="-69.794" y="-46.904" width="657" height="343"/>
	</defs>
	<clipPath id="SVGID_18_">
		<use xlink:href="#SVGID_17_"  overflow="visible"/>
	</clipPath>
	<g clip-path="url(#SVGID_18_)">
		<path fill="#010202" d="M11.292,49.583v-0.884h2.7v0.884H11.292z"/>
		<path fill="#010202" d="M14.724,49.842l0.879-0.117c0.101,0.498,0.272,0.856,0.515,1.077c0.243,0.219,0.538,0.329,0.886,0.329
			c0.414,0,0.763-0.144,1.047-0.43s0.427-0.642,0.427-1.064c0-0.403-0.132-0.736-0.396-0.999c-0.264-0.262-0.599-0.393-1.006-0.393
			c-0.166,0-0.373,0.032-0.62,0.098l0.098-0.771c0.059,0.007,0.106,0.01,0.142,0.01c0.375,0,0.711-0.098,1.011-0.293
			s0.449-0.496,0.449-0.903c0-0.322-0.109-0.589-0.327-0.801s-0.5-0.317-0.845-0.317c-0.342,0-0.626,0.107-0.854,0.322
			s-0.375,0.537-0.439,0.967l-0.879-0.156c0.107-0.589,0.352-1.046,0.732-1.369c0.381-0.324,0.854-0.486,1.421-0.486
			c0.391,0,0.75,0.084,1.079,0.252c0.329,0.167,0.58,0.396,0.754,0.686s0.261,0.598,0.261,0.923c0,0.31-0.083,0.591-0.249,0.845
			s-0.412,0.456-0.737,0.605c0.423,0.098,0.752,0.301,0.986,0.607c0.234,0.309,0.352,0.693,0.352,1.155
			c0,0.625-0.228,1.155-0.684,1.589c-0.456,0.436-1.032,0.652-1.729,0.652c-0.628,0-1.15-0.188-1.565-0.562
			S14.783,50.438,14.724,49.842z"/>
		<path fill="#010202" d="M20.281,49.856l0.923-0.078c0.068,0.449,0.227,0.787,0.476,1.014c0.249,0.226,0.549,0.339,0.901,0.339
			c0.423,0,0.781-0.159,1.074-0.479s0.439-0.742,0.439-1.27c0-0.501-0.141-0.896-0.422-1.187s-0.65-0.435-1.106-0.435
			c-0.283,0-0.539,0.064-0.767,0.192c-0.228,0.129-0.407,0.296-0.537,0.501l-0.825-0.107l0.693-3.677h3.56v0.84h-2.856l-0.386,1.924
			c0.43-0.3,0.88-0.449,1.353-0.449c0.625,0,1.152,0.217,1.582,0.649s0.645,0.989,0.645,1.67c0,0.647-0.189,1.208-0.566,1.68
			c-0.459,0.579-1.085,0.869-1.88,0.869c-0.651,0-1.183-0.183-1.594-0.547S20.339,50.459,20.281,49.856z"/>
		<path fill="#010202" d="M26.008,46.292c0-0.511,0.128-0.945,0.386-1.304s0.63-0.537,1.118-0.537c0.449,0,0.821,0.16,1.116,0.481
			c0.294,0.32,0.442,0.791,0.442,1.413c0,0.605-0.149,1.071-0.447,1.399c-0.298,0.326-0.665,0.49-1.101,0.49
			c-0.433,0-0.793-0.161-1.082-0.483S26.008,46.943,26.008,46.292z M27.537,45.057c-0.218,0-0.399,0.095-0.544,0.283
			s-0.217,0.535-0.217,1.04c0,0.459,0.073,0.782,0.22,0.969c0.146,0.188,0.327,0.281,0.542,0.281c0.221,0,0.404-0.095,0.549-0.283
			s0.217-0.534,0.217-1.035c0-0.462-0.073-0.787-0.22-0.975C27.937,45.15,27.755,45.057,27.537,45.057z M27.542,51.995l3.916-7.544
			h0.713l-3.901,7.544H27.542z M30.637,50.052c0-0.515,0.128-0.949,0.386-1.307c0.257-0.355,0.631-0.534,1.123-0.534
			c0.449,0,0.821,0.16,1.116,0.481c0.294,0.32,0.442,0.791,0.442,1.413c0,0.605-0.149,1.071-0.447,1.399
			c-0.298,0.326-0.667,0.49-1.106,0.49c-0.433,0-0.793-0.162-1.082-0.486C30.781,51.186,30.637,50.699,30.637,50.052z M32.17,48.816
			c-0.221,0-0.404,0.095-0.549,0.283s-0.217,0.535-0.217,1.04c0,0.456,0.073,0.778,0.22,0.967s0.327,0.283,0.542,0.283
			c0.225,0,0.409-0.095,0.554-0.283s0.217-0.534,0.217-1.035c0-0.462-0.073-0.787-0.22-0.975
			C32.571,48.91,32.389,48.816,32.17,48.816z"/>
	</g>
</g>
<g>
	<defs>
		<rect id="SVGID_19_" x="-69.794" y="-46.904" width="657" height="343"/>
	</defs>
	<clipPath id="SVGID_20_">
		<use xlink:href="#SVGID_19_"  overflow="visible"/>
	</clipPath>
	<g clip-path="url(#SVGID_20_)">
		<path fill="#010202" d="M3.595,15.642v-0.884h2.7v0.884H3.595z"/>
		<path fill="#010202" d="M7.028,15.9l0.879-0.117c0.101,0.498,0.272,0.856,0.515,1.077c0.243,0.219,0.538,0.329,0.886,0.329
			c0.414,0,0.763-0.144,1.047-0.43s0.427-0.642,0.427-1.064c0-0.403-0.132-0.736-0.396-0.999c-0.264-0.262-0.599-0.393-1.006-0.393
			c-0.166,0-0.373,0.032-0.62,0.098l0.098-0.771C8.917,13.637,8.965,13.64,9,13.64c0.375,0,0.711-0.098,1.011-0.293
			s0.449-0.496,0.449-0.903c0-0.322-0.109-0.589-0.327-0.801s-0.5-0.317-0.845-0.317c-0.342,0-0.626,0.107-0.854,0.322
			s-0.375,0.537-0.439,0.967l-0.879-0.156c0.107-0.589,0.352-1.046,0.732-1.369c0.381-0.324,0.854-0.486,1.421-0.486
			c0.391,0,0.75,0.084,1.079,0.252c0.329,0.167,0.58,0.396,0.754,0.686s0.261,0.598,0.261,0.923c0,0.31-0.083,0.591-0.249,0.845
			s-0.412,0.456-0.737,0.605c0.423,0.098,0.752,0.301,0.986,0.607c0.234,0.309,0.352,0.693,0.352,1.155
			c0,0.625-0.228,1.155-0.684,1.589C10.576,17.7,10,17.917,9.303,17.917c-0.628,0-1.15-0.188-1.565-0.562S7.086,16.496,7.028,15.9z"
			/>
		<path fill="#010202" d="M12.643,11.569v-0.845h4.634v0.684c-0.456,0.485-0.907,1.13-1.355,1.934s-0.793,1.631-1.038,2.48
			c-0.176,0.599-0.288,1.255-0.337,1.968h-0.903c0.01-0.563,0.121-1.243,0.332-2.041s0.515-1.566,0.911-2.307
			c0.396-0.741,0.816-1.365,1.262-1.873H12.643z"/>
		<path fill="#010202" d="M18.312,12.351c0-0.511,0.128-0.945,0.386-1.304s0.63-0.537,1.118-0.537c0.449,0,0.821,0.16,1.116,0.481
			c0.294,0.32,0.442,0.791,0.442,1.413c0,0.605-0.149,1.071-0.447,1.399c-0.298,0.326-0.665,0.49-1.101,0.49
			c-0.433,0-0.793-0.161-1.082-0.483S18.312,13.002,18.312,12.351z M19.84,11.115c-0.218,0-0.399,0.095-0.544,0.283
			s-0.217,0.535-0.217,1.04c0,0.459,0.073,0.782,0.22,0.969c0.146,0.188,0.327,0.281,0.542,0.281c0.221,0,0.404-0.095,0.549-0.283
			s0.217-0.534,0.217-1.035c0-0.462-0.073-0.787-0.22-0.975C20.241,11.209,20.059,11.115,19.84,11.115z M19.845,18.054l3.916-7.544
			h0.713l-3.901,7.544H19.845z M22.941,16.11c0-0.515,0.128-0.949,0.386-1.307c0.257-0.355,0.631-0.534,1.123-0.534
			c0.449,0,0.821,0.16,1.116,0.481c0.294,0.32,0.442,0.791,0.442,1.413c0,0.605-0.149,1.071-0.447,1.399
			c-0.298,0.326-0.667,0.49-1.106,0.49c-0.433,0-0.793-0.162-1.082-0.486C23.085,17.244,22.941,16.758,22.941,16.11z M24.474,14.875
			c-0.221,0-0.404,0.095-0.549,0.283s-0.217,0.535-0.217,1.04c0,0.456,0.073,0.778,0.22,0.967s0.327,0.283,0.542,0.283
			c0.225,0,0.409-0.095,0.554-0.283s0.217-0.534,0.217-1.035c0-0.462-0.073-0.787-0.22-0.975
			C24.875,14.969,24.692,14.875,24.474,14.875z"/>
	</g>
</g>
<g>
	<defs>
		<rect id="SVGID_21_" x="-69.794" y="-46.904" width="657" height="343"/>
	</defs>
	<clipPath id="SVGID_22_">
		<use xlink:href="#SVGID_21_"  overflow="visible"/>
	</clipPath>
	<g clip-path="url(#SVGID_22_)">
		<path fill="#010202" d="M29.896,252.878l0.947,0.24c-0.199,0.777-0.556,1.371-1.072,1.779s-1.146,0.613-1.892,0.613
			c-0.771,0-1.399-0.158-1.882-0.473c-0.483-0.312-0.851-0.768-1.104-1.363s-0.378-1.236-0.378-1.92
			c0-0.744,0.143-1.395,0.427-1.951c0.285-0.555,0.69-0.977,1.216-1.264c0.526-0.289,1.104-0.432,1.736-0.432
			c0.716,0,1.318,0.182,1.807,0.547c0.488,0.363,0.829,0.877,1.021,1.537l-0.933,0.221c-0.166-0.521-0.407-0.9-0.723-1.139
			c-0.316-0.236-0.713-0.355-1.191-0.355c-0.55,0-1.01,0.131-1.379,0.395s-0.629,0.617-0.779,1.062
			c-0.15,0.443-0.225,0.902-0.225,1.375c0,0.607,0.089,1.139,0.266,1.594c0.177,0.453,0.453,0.793,0.828,1.018
			s0.78,0.338,1.216,0.338c0.531,0,0.98-0.154,1.348-0.459C29.517,253.935,29.766,253.481,29.896,252.878z"/>
		<path fill="#010202" d="M31.571,252.796c0-0.961,0.267-1.672,0.801-2.135c0.446-0.383,0.99-0.576,1.631-0.576
			c0.713,0,1.295,0.234,1.748,0.701s0.679,1.113,0.679,1.936c0,0.668-0.1,1.193-0.3,1.574c-0.2,0.383-0.492,0.68-0.874,0.893
			c-0.382,0.211-0.8,0.316-1.252,0.316c-0.726,0-1.312-0.232-1.76-0.697C31.795,254.341,31.571,253.671,31.571,252.796z
			 M32.475,252.796c0,0.664,0.145,1.16,0.435,1.49c0.29,0.332,0.654,0.496,1.094,0.496c0.436,0,0.799-0.166,1.089-0.498
			s0.435-0.838,0.435-1.518c0-0.643-0.146-1.127-0.437-1.459c-0.292-0.33-0.653-0.494-1.086-0.494c-0.439,0-0.804,0.164-1.094,0.492
			C32.62,251.636,32.475,252.132,32.475,252.796z"/>
		<path fill="#010202" d="M37.46,255.388v-5.186h0.786v0.729c0.163-0.254,0.379-0.459,0.649-0.613s0.578-0.232,0.923-0.232
			c0.384,0,0.699,0.08,0.945,0.24c0.246,0.158,0.419,0.383,0.52,0.668c0.41-0.605,0.944-0.908,1.602-0.908
			c0.514,0,0.91,0.143,1.187,0.428s0.415,0.723,0.415,1.316v3.559h-0.874v-3.266c0-0.352-0.028-0.605-0.085-0.76
			s-0.16-0.279-0.31-0.373c-0.15-0.096-0.326-0.143-0.527-0.143c-0.365,0-0.667,0.121-0.908,0.363
			c-0.241,0.244-0.361,0.631-0.361,1.166v3.012h-0.879v-3.369c0-0.391-0.072-0.684-0.215-0.879s-0.377-0.293-0.703-0.293
			c-0.248,0-0.476,0.066-0.686,0.195c-0.21,0.131-0.362,0.32-0.457,0.572c-0.094,0.25-0.142,0.611-0.142,1.084v2.689H37.46z"/>
		<path fill="#010202" d="M45.79,255.388v-5.186h0.786v0.729c0.163-0.254,0.379-0.459,0.649-0.613s0.578-0.232,0.923-0.232
			c0.384,0,0.699,0.08,0.945,0.24c0.246,0.158,0.419,0.383,0.52,0.668c0.41-0.605,0.944-0.908,1.602-0.908
			c0.514,0,0.91,0.143,1.187,0.428s0.415,0.723,0.415,1.316v3.559h-0.874v-3.266c0-0.352-0.028-0.605-0.085-0.76
			s-0.16-0.279-0.31-0.373c-0.15-0.096-0.326-0.143-0.527-0.143c-0.365,0-0.667,0.121-0.908,0.363
			c-0.241,0.244-0.361,0.631-0.361,1.166v3.012h-0.879v-3.369c0-0.391-0.072-0.684-0.215-0.879s-0.377-0.293-0.703-0.293
			c-0.248,0-0.476,0.066-0.686,0.195c-0.21,0.131-0.362,0.32-0.457,0.572c-0.094,0.25-0.142,0.611-0.142,1.084v2.689H45.79z"/>
		<path fill="#010202" d="M57.519,255.388v-0.762c-0.404,0.586-0.952,0.879-1.646,0.879c-0.306,0-0.592-0.059-0.857-0.176
			s-0.462-0.264-0.591-0.441s-0.219-0.395-0.271-0.652c-0.036-0.172-0.054-0.445-0.054-0.82v-3.213h0.879v2.877
			c0,0.459,0.018,0.768,0.054,0.928c0.055,0.23,0.172,0.412,0.352,0.543c0.179,0.133,0.4,0.199,0.664,0.199s0.511-0.068,0.742-0.203
			s0.395-0.318,0.491-0.553c0.096-0.232,0.144-0.57,0.144-1.012v-2.779h0.879v5.186H57.519z"/>
		<path fill="#010202" d="M59.682,255.388v-5.186h0.791v0.738c0.381-0.57,0.931-0.855,1.65-0.855c0.312,0,0.6,0.057,0.862,0.168
			c0.262,0.113,0.458,0.26,0.588,0.443c0.13,0.182,0.221,0.398,0.273,0.648c0.033,0.164,0.049,0.447,0.049,0.855v3.188h-0.879
			v-3.154c0-0.357-0.034-0.625-0.103-0.803s-0.189-0.318-0.364-0.426c-0.174-0.105-0.378-0.158-0.613-0.158
			c-0.375,0-0.697,0.119-0.969,0.357c-0.272,0.236-0.408,0.688-0.408,1.352v2.832H59.682z"/>
		<path fill="#010202" d="M65.248,249.241v-1.012h0.879v1.012H65.248z M65.248,255.388v-5.186h0.879v5.186H65.248z"/>
		<path fill="#010202" d="M69.384,254.603l0.127,0.775c-0.248,0.053-0.469,0.078-0.664,0.078c-0.319,0-0.566-0.051-0.742-0.15
			c-0.176-0.102-0.299-0.234-0.371-0.398s-0.107-0.51-0.107-1.037v-2.984h-0.645v-0.684h0.645v-1.283l0.874-0.527v1.811h0.884v0.684
			H68.5v3.033c0,0.25,0.016,0.412,0.046,0.482c0.031,0.072,0.082,0.129,0.151,0.172c0.07,0.041,0.17,0.062,0.3,0.062
			C69.096,254.636,69.224,254.624,69.384,254.603z"/>
		<path fill="#010202" d="M70.204,257.386l-0.098-0.826c0.192,0.053,0.36,0.078,0.503,0.078c0.195,0,0.352-0.031,0.469-0.098
			c0.117-0.064,0.213-0.156,0.288-0.273c0.055-0.088,0.145-0.305,0.269-0.654c0.016-0.049,0.042-0.119,0.078-0.215l-1.968-5.195
			h0.947l1.079,3.004c0.14,0.381,0.265,0.781,0.376,1.201c0.101-0.404,0.221-0.799,0.361-1.182l1.108-3.023h0.879l-1.973,5.273
			c-0.211,0.57-0.376,0.963-0.493,1.178c-0.156,0.289-0.335,0.502-0.537,0.637s-0.443,0.203-0.723,0.203
			C70.601,257.493,70.413,257.456,70.204,257.386z"/>
		<path fill="#010202" d="M82.113,254.544c-0.29,0.322-0.605,0.562-0.947,0.725c-0.342,0.16-0.711,0.242-1.108,0.242
			c-0.732,0-1.313-0.248-1.743-0.742c-0.348-0.404-0.522-0.855-0.522-1.354c0-0.441,0.143-0.842,0.427-1.199
			c0.285-0.355,0.71-0.668,1.277-0.939c-0.322-0.371-0.537-0.672-0.645-0.902c-0.107-0.232-0.161-0.455-0.161-0.67
			c0-0.43,0.168-0.803,0.505-1.121c0.337-0.316,0.761-0.475,1.272-0.475c0.488,0,0.888,0.148,1.199,0.449
			c0.311,0.299,0.466,0.658,0.466,1.078c0,0.682-0.451,1.262-1.353,1.744l1.284,1.635c0.146-0.285,0.26-0.617,0.342-0.996
			l0.913,0.195c-0.156,0.625-0.368,1.141-0.635,1.543c0.329,0.438,0.702,0.803,1.118,1.1l-0.591,0.697
			C82.857,255.327,82.491,254.989,82.113,254.544z M81.562,253.851l-1.611-1.998c-0.475,0.283-0.796,0.547-0.962,0.789
			s-0.249,0.482-0.249,0.721c0,0.289,0.116,0.59,0.347,0.902s0.558,0.469,0.981,0.469c0.264,0,0.536-0.082,0.818-0.246
			S81.392,254.11,81.562,253.851z M80.326,250.813c0.381-0.225,0.627-0.422,0.74-0.592c0.112-0.168,0.168-0.355,0.168-0.561
			c0-0.244-0.077-0.443-0.232-0.6c-0.155-0.154-0.348-0.23-0.579-0.23c-0.238,0-0.436,0.076-0.593,0.229
			c-0.158,0.154-0.237,0.34-0.237,0.562c0,0.109,0.028,0.227,0.085,0.348c0.057,0.123,0.143,0.252,0.256,0.389L80.326,250.813z"/>
		<path fill="#010202" d="M87.582,255.388v-7.158h2.7c0.475,0,0.838,0.023,1.089,0.068c0.352,0.059,0.646,0.17,0.884,0.334
			c0.238,0.166,0.429,0.396,0.574,0.691c0.145,0.297,0.217,0.623,0.217,0.977c0,0.609-0.194,1.125-0.581,1.545
			c-0.387,0.422-1.087,0.633-2.1,0.633h-1.836v2.91H87.582z M88.529,251.634h1.851c0.612,0,1.046-0.115,1.304-0.342
			c0.257-0.229,0.386-0.549,0.386-0.963c0-0.299-0.076-0.555-0.227-0.77c-0.151-0.213-0.351-0.354-0.598-0.422
			c-0.16-0.041-0.454-0.062-0.884-0.062h-1.831V251.634z"/>
		<path fill="#010202" d="M97.689,253.718l0.908,0.113c-0.143,0.529-0.409,0.941-0.796,1.234s-0.882,0.439-1.484,0.439
			c-0.758,0-1.36-0.232-1.804-0.701c-0.444-0.467-0.667-1.121-0.667-1.965c0-0.871,0.225-1.549,0.674-2.031
			c0.449-0.48,1.032-0.723,1.748-0.723c0.693,0,1.26,0.236,1.699,0.709c0.439,0.471,0.659,1.135,0.659,1.992
			c0,0.051-0.001,0.129-0.005,0.234h-3.867c0.033,0.568,0.194,1.006,0.483,1.309s0.651,0.453,1.084,0.453
			c0.322,0,0.597-0.084,0.825-0.254C97.375,254.36,97.556,254.089,97.689,253.718z M94.804,252.298h2.896
			c-0.039-0.438-0.15-0.764-0.332-0.982c-0.28-0.338-0.643-0.508-1.089-0.508c-0.404,0-0.743,0.135-1.018,0.406
			C94.985,251.483,94.833,251.845,94.804,252.298z"/>
		<path fill="#010202" d="M99.691,255.388v-5.186h0.791v0.787c0.202-0.369,0.388-0.611,0.559-0.729s0.359-0.176,0.564-0.176
			c0.296,0,0.597,0.096,0.903,0.283l-0.303,0.816c-0.215-0.127-0.43-0.191-0.645-0.191c-0.192,0-0.365,0.059-0.518,0.174
			s-0.262,0.275-0.327,0.48c-0.098,0.312-0.146,0.654-0.146,1.025v2.715H99.691z"/>
		<path fill="#010202" d="M102.68,253.841l0.869-0.137c0.049,0.348,0.185,0.615,0.408,0.801s0.535,0.277,0.935,0.277
			c0.404,0,0.703-0.082,0.898-0.246s0.293-0.357,0.293-0.578c0-0.199-0.086-0.355-0.259-0.469c-0.121-0.078-0.42-0.178-0.898-0.299
			c-0.645-0.162-1.091-0.303-1.34-0.422s-0.438-0.283-0.566-0.494c-0.128-0.209-0.193-0.441-0.193-0.695
			c0-0.23,0.053-0.445,0.159-0.643c0.106-0.195,0.25-0.359,0.432-0.49c0.137-0.1,0.323-0.186,0.559-0.256s0.489-0.105,0.759-0.105
			c0.407,0,0.764,0.059,1.072,0.176s0.535,0.275,0.681,0.477c0.146,0.199,0.248,0.469,0.303,0.803l-0.859,0.117
			c-0.039-0.266-0.152-0.475-0.339-0.625c-0.187-0.148-0.452-0.225-0.793-0.225c-0.404,0-0.692,0.066-0.864,0.201
			c-0.172,0.133-0.259,0.289-0.259,0.469c0,0.113,0.036,0.217,0.107,0.307c0.072,0.096,0.184,0.174,0.337,0.234
			c0.088,0.033,0.347,0.107,0.776,0.225c0.622,0.166,1.056,0.303,1.301,0.408s0.438,0.26,0.579,0.461
			c0.14,0.203,0.21,0.453,0.21,0.752c0,0.293-0.085,0.568-0.256,0.828c-0.171,0.258-0.417,0.459-0.74,0.6
			c-0.322,0.143-0.687,0.213-1.094,0.213c-0.674,0-1.188-0.139-1.541-0.42C103.003,254.806,102.777,254.39,102.68,253.841z"/>
		<path fill="#010202" d="M107.704,252.796c0-0.961,0.267-1.672,0.801-2.135c0.446-0.383,0.99-0.576,1.631-0.576
			c0.713,0,1.295,0.234,1.748,0.701s0.679,1.113,0.679,1.936c0,0.668-0.1,1.193-0.3,1.574c-0.2,0.383-0.492,0.68-0.874,0.893
			c-0.382,0.211-0.8,0.316-1.252,0.316c-0.726,0-1.312-0.232-1.76-0.697C107.928,254.341,107.704,253.671,107.704,252.796z
			 M108.607,252.796c0,0.664,0.145,1.16,0.435,1.49c0.29,0.332,0.654,0.496,1.094,0.496c0.436,0,0.799-0.166,1.089-0.498
			s0.435-0.838,0.435-1.518c0-0.643-0.146-1.127-0.437-1.459c-0.292-0.33-0.653-0.494-1.086-0.494c-0.439,0-0.804,0.164-1.094,0.492
			C108.752,251.636,108.607,252.132,108.607,252.796z"/>
		<path fill="#010202" d="M113.593,255.388v-5.186h0.791v0.738c0.381-0.57,0.931-0.855,1.65-0.855c0.312,0,0.6,0.057,0.862,0.168
			c0.262,0.113,0.458,0.26,0.588,0.443c0.13,0.182,0.221,0.398,0.273,0.648c0.033,0.164,0.049,0.447,0.049,0.855v3.188h-0.879
			v-3.154c0-0.357-0.034-0.625-0.103-0.803s-0.189-0.318-0.364-0.426c-0.174-0.105-0.378-0.158-0.613-0.158
			c-0.375,0-0.697,0.119-0.969,0.357c-0.272,0.236-0.408,0.688-0.408,1.352v2.832H113.593z"/>
		<path fill="#010202" d="M122.538,254.749c-0.326,0.275-0.639,0.471-0.94,0.586c-0.301,0.113-0.624,0.17-0.969,0.17
			c-0.57,0-1.007-0.139-1.313-0.418c-0.306-0.277-0.459-0.633-0.459-1.066c0-0.254,0.058-0.486,0.173-0.695
			c0.116-0.211,0.267-0.379,0.454-0.506s0.398-0.223,0.632-0.287c0.172-0.047,0.433-0.09,0.781-0.133
			c0.709-0.084,1.232-0.186,1.567-0.303c0.003-0.119,0.005-0.197,0.005-0.229c0-0.359-0.083-0.611-0.249-0.758
			c-0.225-0.197-0.558-0.297-1.001-0.297c-0.414,0-0.719,0.072-0.916,0.217s-0.343,0.4-0.437,0.77l-0.859-0.117
			c0.078-0.369,0.207-0.666,0.386-0.893c0.179-0.225,0.438-0.4,0.776-0.521c0.338-0.123,0.731-0.184,1.177-0.184
			c0.443,0,0.802,0.053,1.079,0.156c0.277,0.105,0.48,0.236,0.61,0.393c0.13,0.158,0.221,0.357,0.273,0.6
			c0.029,0.148,0.044,0.42,0.044,0.811v1.172c0,0.816,0.019,1.334,0.056,1.549c0.038,0.217,0.111,0.426,0.222,0.623h-0.918
			C122.623,255.206,122.564,254.993,122.538,254.749z M122.465,252.786c-0.319,0.129-0.797,0.24-1.436,0.332
			c-0.361,0.051-0.617,0.109-0.767,0.176c-0.15,0.064-0.265,0.16-0.347,0.285s-0.122,0.264-0.122,0.418
			c0,0.234,0.089,0.43,0.266,0.586s0.437,0.234,0.779,0.234c0.338,0,0.64-0.074,0.903-0.223s0.458-0.352,0.581-0.607
			c0.094-0.199,0.142-0.492,0.142-0.879V252.786z"/>
		<path fill="#010202" d="M124.696,255.388v-7.158h0.879v7.158H124.696z"/>
		<path fill="#010202" d="M129.506,253.089l0.894-0.078c0.042,0.357,0.141,0.65,0.295,0.881c0.155,0.229,0.395,0.414,0.72,0.557
			c0.326,0.141,0.692,0.213,1.099,0.213c0.361,0,0.68-0.055,0.957-0.162s0.482-0.254,0.618-0.441s0.203-0.391,0.203-0.613
			c0-0.225-0.065-0.42-0.195-0.588s-0.345-0.309-0.645-0.422c-0.192-0.076-0.617-0.191-1.274-0.35s-1.118-0.307-1.382-0.447
			c-0.342-0.178-0.597-0.4-0.764-0.666s-0.251-0.562-0.251-0.891c0-0.361,0.103-0.699,0.308-1.014s0.504-0.553,0.898-0.715
			c0.394-0.164,0.832-0.244,1.313-0.244c0.531,0,0.999,0.084,1.404,0.256c0.405,0.17,0.717,0.422,0.935,0.754
			s0.335,0.709,0.352,1.129l-0.908,0.068c-0.049-0.453-0.214-0.795-0.496-1.025c-0.282-0.232-0.697-0.348-1.248-0.348
			c-0.573,0-0.99,0.105-1.252,0.314c-0.262,0.211-0.393,0.465-0.393,0.76c0,0.258,0.093,0.469,0.278,0.635
			c0.182,0.166,0.658,0.336,1.428,0.51c0.77,0.176,1.298,0.328,1.584,0.457c0.417,0.193,0.724,0.436,0.923,0.73
			s0.298,0.635,0.298,1.018c0,0.381-0.109,0.74-0.327,1.076c-0.218,0.338-0.531,0.6-0.94,0.787s-0.868,0.281-1.379,0.281
			c-0.648,0-1.19-0.096-1.628-0.283c-0.438-0.189-0.781-0.473-1.03-0.854C129.65,253.995,129.519,253.567,129.506,253.089z"/>
		<path fill="#010202" d="M139.936,253.718l0.908,0.113c-0.143,0.529-0.409,0.941-0.796,1.234s-0.882,0.439-1.484,0.439
			c-0.758,0-1.36-0.232-1.804-0.701c-0.444-0.467-0.667-1.121-0.667-1.965c0-0.871,0.225-1.549,0.674-2.031
			c0.449-0.48,1.032-0.723,1.748-0.723c0.693,0,1.26,0.236,1.699,0.709c0.439,0.471,0.659,1.135,0.659,1.992
			c0,0.051-0.001,0.129-0.005,0.234h-3.867c0.033,0.568,0.194,1.006,0.483,1.309s0.651,0.453,1.084,0.453
			c0.322,0,0.597-0.084,0.825-0.254C139.622,254.36,139.802,254.089,139.936,253.718z M137.05,252.298h2.896
			c-0.039-0.438-0.15-0.764-0.332-0.982c-0.28-0.338-0.643-0.508-1.089-0.508c-0.404,0-0.743,0.135-1.018,0.406
			C137.231,251.483,137.079,251.845,137.05,252.298z"/>
		<path fill="#010202" d="M141.938,255.388v-5.186h0.791v0.787c0.202-0.369,0.388-0.611,0.559-0.729s0.359-0.176,0.564-0.176
			c0.296,0,0.597,0.096,0.903,0.283l-0.303,0.816c-0.215-0.127-0.43-0.191-0.645-0.191c-0.192,0-0.365,0.059-0.518,0.174
			s-0.262,0.275-0.327,0.48c-0.098,0.312-0.146,0.654-0.146,1.025v2.715H141.938z"/>
		<path fill="#010202" d="M146.718,255.388l-1.973-5.186h0.928l1.113,3.105c0.121,0.336,0.231,0.684,0.332,1.045
			c0.078-0.273,0.187-0.602,0.327-0.986l1.152-3.164h0.903l-1.963,5.186H146.718z"/>
		<path fill="#010202" d="M150.282,249.241v-1.012h0.879v1.012H150.282z M150.282,255.388v-5.186h0.879v5.186H150.282z"/>
		<path fill="#010202" d="M155.883,253.489l0.864,0.111c-0.094,0.596-0.336,1.062-0.725,1.398c-0.389,0.338-0.867,0.506-1.433,0.506
			c-0.709,0-1.28-0.232-1.711-0.695c-0.431-0.465-0.647-1.129-0.647-1.994c0-0.561,0.093-1.051,0.278-1.471s0.468-0.734,0.847-0.945
			c0.379-0.209,0.792-0.314,1.238-0.314c0.563,0,1.024,0.143,1.382,0.428s0.587,0.689,0.688,1.213l-0.854,0.133
			c-0.082-0.35-0.226-0.611-0.432-0.787s-0.457-0.264-0.75-0.264c-0.443,0-0.802,0.158-1.079,0.477
			c-0.277,0.316-0.415,0.82-0.415,1.506c0,0.697,0.133,1.203,0.4,1.52c0.267,0.314,0.615,0.473,1.045,0.473
			c0.345,0,0.633-0.105,0.864-0.316C155.674,254.253,155.821,253.929,155.883,253.489z"/>
		<path fill="#010202" d="M161.049,253.718l0.908,0.113c-0.143,0.529-0.409,0.941-0.796,1.234s-0.882,0.439-1.484,0.439
			c-0.758,0-1.36-0.232-1.804-0.701c-0.444-0.467-0.667-1.121-0.667-1.965c0-0.871,0.225-1.549,0.674-2.031
			c0.449-0.48,1.032-0.723,1.748-0.723c0.693,0,1.26,0.236,1.699,0.709c0.439,0.471,0.659,1.135,0.659,1.992
			c0,0.051-0.001,0.129-0.005,0.234h-3.867c0.033,0.568,0.194,1.006,0.483,1.309s0.651,0.453,1.084,0.453
			c0.322,0,0.597-0.084,0.825-0.254C160.735,254.36,160.916,254.089,161.049,253.718z M158.163,252.298h2.896
			c-0.039-0.438-0.15-0.764-0.332-0.982c-0.28-0.338-0.643-0.508-1.089-0.508c-0.404,0-0.743,0.135-1.018,0.406
			C158.345,251.483,158.192,251.845,158.163,252.298z"/>
		<path fill="#010202" d="M162.709,253.841l0.869-0.137c0.049,0.348,0.185,0.615,0.408,0.801s0.535,0.277,0.935,0.277
			c0.404,0,0.703-0.082,0.898-0.246s0.293-0.357,0.293-0.578c0-0.199-0.086-0.355-0.259-0.469c-0.121-0.078-0.42-0.178-0.898-0.299
			c-0.645-0.162-1.091-0.303-1.34-0.422s-0.438-0.283-0.566-0.494c-0.128-0.209-0.193-0.441-0.193-0.695
			c0-0.23,0.053-0.445,0.159-0.643c0.106-0.195,0.25-0.359,0.432-0.49c0.137-0.1,0.323-0.186,0.559-0.256s0.489-0.105,0.759-0.105
			c0.407,0,0.764,0.059,1.072,0.176s0.535,0.275,0.681,0.477c0.146,0.199,0.248,0.469,0.303,0.803l-0.859,0.117
			c-0.039-0.266-0.152-0.475-0.339-0.625c-0.187-0.148-0.452-0.225-0.793-0.225c-0.404,0-0.692,0.066-0.864,0.201
			c-0.172,0.133-0.259,0.289-0.259,0.469c0,0.113,0.036,0.217,0.107,0.307c0.072,0.096,0.184,0.174,0.337,0.234
			c0.088,0.033,0.347,0.107,0.776,0.225c0.622,0.166,1.056,0.303,1.301,0.408s0.438,0.26,0.579,0.461
			c0.14,0.203,0.21,0.453,0.21,0.752c0,0.293-0.085,0.568-0.256,0.828c-0.171,0.258-0.417,0.459-0.74,0.6
			c-0.322,0.143-0.687,0.213-1.094,0.213c-0.674,0-1.188-0.139-1.541-0.42C163.032,254.806,162.807,254.39,162.709,253.841z"/>
	</g>
</g>
<g>
	<defs>
		<rect id="SVGID_23_" x="-69.794" y="-46.904" width="657" height="343"/>
	</defs>
	<clipPath id="SVGID_24_">
		<use xlink:href="#SVGID_23_"  overflow="visible"/>
	</clipPath>
	<g clip-path="url(#SVGID_24_)">
		<path fill="#010202" d="M108.144,221.444v-7.158h2.7c0.475,0,0.838,0.023,1.089,0.068c0.352,0.059,0.646,0.17,0.884,0.334
			c0.238,0.166,0.429,0.396,0.574,0.691c0.145,0.297,0.217,0.623,0.217,0.977c0,0.609-0.194,1.125-0.581,1.545
			c-0.387,0.422-1.087,0.633-2.1,0.633h-1.836v2.91H108.144z M109.091,217.69h1.851c0.612,0,1.046-0.115,1.304-0.342
			c0.257-0.229,0.386-0.549,0.386-0.963c0-0.299-0.076-0.555-0.227-0.77c-0.151-0.213-0.351-0.354-0.598-0.422
			c-0.16-0.041-0.454-0.062-0.884-0.062h-1.831V217.69z"/>
		<path fill="#010202" d="M114.691,221.444v-5.186h0.791v0.787c0.202-0.369,0.388-0.611,0.559-0.729s0.359-0.176,0.564-0.176
			c0.296,0,0.597,0.096,0.903,0.283l-0.303,0.816c-0.215-0.127-0.43-0.191-0.645-0.191c-0.192,0-0.365,0.059-0.518,0.174
			s-0.262,0.275-0.327,0.48c-0.098,0.312-0.146,0.654-0.146,1.025v2.715H114.691z"/>
		<path fill="#010202" d="M117.704,218.853c0-0.961,0.267-1.672,0.801-2.135c0.446-0.383,0.99-0.576,1.631-0.576
			c0.713,0,1.295,0.234,1.748,0.701s0.679,1.113,0.679,1.936c0,0.668-0.1,1.193-0.3,1.574c-0.2,0.383-0.492,0.68-0.874,0.893
			c-0.382,0.211-0.8,0.316-1.252,0.316c-0.726,0-1.312-0.232-1.76-0.697C117.928,220.397,117.704,219.728,117.704,218.853z
			 M118.607,218.853c0,0.664,0.145,1.16,0.435,1.49c0.29,0.332,0.654,0.496,1.094,0.496c0.436,0,0.799-0.166,1.089-0.498
			s0.435-0.838,0.435-1.518c0-0.643-0.146-1.127-0.437-1.459c-0.292-0.33-0.653-0.494-1.086-0.494c-0.439,0-0.804,0.164-1.094,0.492
			C118.752,217.692,118.607,218.188,118.607,218.853z"/>
		<path fill="#010202" d="M123.803,221.444v-4.502h-0.776v-0.684h0.776v-0.551c0-0.35,0.031-0.607,0.093-0.777
			c0.084-0.227,0.233-0.412,0.447-0.555c0.213-0.141,0.512-0.211,0.896-0.211c0.248,0,0.521,0.029,0.82,0.088l-0.132,0.766
			c-0.182-0.031-0.355-0.049-0.518-0.049c-0.267,0-0.456,0.057-0.566,0.172c-0.111,0.113-0.166,0.326-0.166,0.639v0.479h1.011v0.684
			h-1.011v4.502H123.803z"/>
		<path fill="#010202" d="M129.921,219.774l0.908,0.113c-0.143,0.529-0.409,0.941-0.796,1.234s-0.882,0.439-1.484,0.439
			c-0.758,0-1.36-0.232-1.804-0.701c-0.444-0.467-0.667-1.121-0.667-1.965c0-0.871,0.225-1.549,0.674-2.031
			c0.449-0.48,1.032-0.723,1.748-0.723c0.693,0,1.26,0.236,1.699,0.709c0.439,0.471,0.659,1.135,0.659,1.992
			c0,0.051-0.001,0.129-0.005,0.234h-3.867c0.033,0.568,0.194,1.006,0.483,1.309s0.651,0.453,1.084,0.453
			c0.322,0,0.597-0.084,0.825-0.254C129.607,220.417,129.788,220.146,129.921,219.774z M127.035,218.354h2.896
			c-0.039-0.438-0.15-0.764-0.332-0.982c-0.28-0.338-0.643-0.508-1.089-0.508c-0.404,0-0.743,0.135-1.018,0.406
			C127.217,217.54,127.064,217.901,127.035,218.354z"/>
		<path fill="#010202" d="M131.581,219.897l0.869-0.137c0.049,0.348,0.185,0.615,0.408,0.801s0.535,0.277,0.935,0.277
			c0.404,0,0.703-0.082,0.898-0.246s0.293-0.357,0.293-0.578c0-0.199-0.086-0.355-0.259-0.469c-0.121-0.078-0.42-0.178-0.898-0.299
			c-0.645-0.162-1.091-0.303-1.34-0.422s-0.438-0.283-0.566-0.494c-0.128-0.209-0.193-0.441-0.193-0.695
			c0-0.23,0.053-0.445,0.159-0.643c0.106-0.195,0.25-0.359,0.432-0.49c0.137-0.1,0.323-0.186,0.559-0.256s0.489-0.105,0.759-0.105
			c0.407,0,0.764,0.059,1.072,0.176s0.535,0.275,0.681,0.477c0.146,0.199,0.248,0.469,0.303,0.803l-0.859,0.117
			c-0.039-0.266-0.152-0.475-0.339-0.625c-0.187-0.148-0.452-0.225-0.793-0.225c-0.404,0-0.692,0.066-0.864,0.201
			c-0.172,0.133-0.259,0.289-0.259,0.469c0,0.113,0.036,0.217,0.107,0.307c0.072,0.096,0.184,0.174,0.337,0.234
			c0.088,0.033,0.347,0.107,0.776,0.225c0.622,0.166,1.056,0.303,1.301,0.408s0.438,0.26,0.579,0.461
			c0.14,0.203,0.21,0.453,0.21,0.752c0,0.293-0.085,0.568-0.256,0.828c-0.171,0.258-0.417,0.459-0.74,0.6
			c-0.322,0.143-0.687,0.213-1.094,0.213c-0.674,0-1.188-0.139-1.541-0.42C131.904,220.862,131.679,220.446,131.581,219.897z"/>
		<path fill="#010202" d="M136.581,219.897l0.869-0.137c0.049,0.348,0.185,0.615,0.408,0.801s0.535,0.277,0.935,0.277
			c0.404,0,0.703-0.082,0.898-0.246s0.293-0.357,0.293-0.578c0-0.199-0.086-0.355-0.259-0.469c-0.121-0.078-0.42-0.178-0.898-0.299
			c-0.645-0.162-1.091-0.303-1.34-0.422s-0.438-0.283-0.566-0.494c-0.128-0.209-0.193-0.441-0.193-0.695
			c0-0.23,0.053-0.445,0.159-0.643c0.106-0.195,0.25-0.359,0.432-0.49c0.137-0.1,0.323-0.186,0.559-0.256s0.489-0.105,0.759-0.105
			c0.407,0,0.764,0.059,1.072,0.176s0.535,0.275,0.681,0.477c0.146,0.199,0.248,0.469,0.303,0.803l-0.859,0.117
			c-0.039-0.266-0.152-0.475-0.339-0.625c-0.187-0.148-0.452-0.225-0.793-0.225c-0.404,0-0.692,0.066-0.864,0.201
			c-0.172,0.133-0.259,0.289-0.259,0.469c0,0.113,0.036,0.217,0.107,0.307c0.072,0.096,0.184,0.174,0.337,0.234
			c0.088,0.033,0.347,0.107,0.776,0.225c0.622,0.166,1.056,0.303,1.301,0.408s0.438,0.26,0.579,0.461
			c0.14,0.203,0.21,0.453,0.21,0.752c0,0.293-0.085,0.568-0.256,0.828c-0.171,0.258-0.417,0.459-0.74,0.6
			c-0.322,0.143-0.687,0.213-1.094,0.213c-0.674,0-1.188-0.139-1.541-0.42C136.904,220.862,136.679,220.446,136.581,219.897z"/>
		<path fill="#010202" d="M141.938,215.298v-1.012h0.879v1.012H141.938z M141.938,221.444v-5.186h0.879v5.186H141.938z"/>
		<path fill="#010202" d="M143.827,218.853c0-0.961,0.267-1.672,0.801-2.135c0.446-0.383,0.99-0.576,1.631-0.576
			c0.713,0,1.295,0.234,1.748,0.701s0.679,1.113,0.679,1.936c0,0.668-0.1,1.193-0.3,1.574c-0.2,0.383-0.492,0.68-0.874,0.893
			c-0.382,0.211-0.8,0.316-1.252,0.316c-0.726,0-1.312-0.232-1.76-0.697C144.051,220.397,143.827,219.728,143.827,218.853z
			 M144.73,218.853c0,0.664,0.145,1.16,0.435,1.49c0.29,0.332,0.654,0.496,1.094,0.496c0.436,0,0.799-0.166,1.089-0.498
			s0.435-0.838,0.435-1.518c0-0.643-0.146-1.127-0.437-1.459c-0.292-0.33-0.653-0.494-1.086-0.494c-0.439,0-0.804,0.164-1.094,0.492
			C144.875,217.692,144.73,218.188,144.73,218.853z"/>
		<path fill="#010202" d="M149.716,221.444v-5.186h0.791v0.738c0.381-0.57,0.931-0.855,1.65-0.855c0.312,0,0.6,0.057,0.862,0.168
			c0.262,0.113,0.458,0.26,0.588,0.443c0.13,0.182,0.221,0.398,0.273,0.648c0.033,0.164,0.049,0.447,0.049,0.855v3.188h-0.879
			v-3.154c0-0.357-0.034-0.625-0.103-0.803s-0.189-0.318-0.364-0.426c-0.174-0.105-0.378-0.158-0.613-0.158
			c-0.375,0-0.697,0.119-0.969,0.357c-0.272,0.236-0.408,0.688-0.408,1.352v2.832H149.716z"/>
		<path fill="#010202" d="M158.661,220.806c-0.326,0.275-0.639,0.471-0.94,0.586c-0.301,0.113-0.624,0.17-0.969,0.17
			c-0.57,0-1.007-0.139-1.313-0.418c-0.306-0.277-0.459-0.633-0.459-1.066c0-0.254,0.058-0.486,0.173-0.695
			c0.116-0.211,0.267-0.379,0.454-0.506s0.398-0.223,0.632-0.287c0.172-0.047,0.433-0.09,0.781-0.133
			c0.709-0.084,1.232-0.186,1.567-0.303c0.003-0.119,0.005-0.197,0.005-0.229c0-0.359-0.083-0.611-0.249-0.758
			c-0.225-0.197-0.558-0.297-1.001-0.297c-0.414,0-0.719,0.072-0.916,0.217s-0.343,0.4-0.437,0.77l-0.859-0.117
			c0.078-0.369,0.207-0.666,0.386-0.893c0.179-0.225,0.438-0.4,0.776-0.521c0.338-0.123,0.731-0.184,1.177-0.184
			c0.443,0,0.802,0.053,1.079,0.156c0.277,0.105,0.48,0.236,0.61,0.393c0.13,0.158,0.221,0.357,0.273,0.6
			c0.029,0.148,0.044,0.42,0.044,0.811v1.172c0,0.816,0.019,1.334,0.056,1.549c0.038,0.217,0.111,0.426,0.222,0.623h-0.918
			C158.746,221.263,158.687,221.05,158.661,220.806z M158.588,218.843c-0.319,0.129-0.797,0.24-1.436,0.332
			c-0.361,0.051-0.617,0.109-0.767,0.176c-0.15,0.064-0.265,0.16-0.347,0.285s-0.122,0.264-0.122,0.418
			c0,0.234,0.089,0.43,0.266,0.586s0.437,0.234,0.779,0.234c0.338,0,0.64-0.074,0.903-0.223s0.458-0.352,0.581-0.607
			c0.094-0.199,0.142-0.492,0.142-0.879V218.843z"/>
		<path fill="#010202" d="M160.819,221.444v-7.158h0.879v7.158H160.819z"/>
		<path fill="#010202" d="M162.709,219.897l0.869-0.137c0.049,0.348,0.185,0.615,0.408,0.801s0.535,0.277,0.935,0.277
			c0.404,0,0.703-0.082,0.898-0.246s0.293-0.357,0.293-0.578c0-0.199-0.086-0.355-0.259-0.469c-0.121-0.078-0.42-0.178-0.898-0.299
			c-0.645-0.162-1.091-0.303-1.34-0.422s-0.438-0.283-0.566-0.494c-0.128-0.209-0.193-0.441-0.193-0.695
			c0-0.23,0.053-0.445,0.159-0.643c0.106-0.195,0.25-0.359,0.432-0.49c0.137-0.1,0.323-0.186,0.559-0.256s0.489-0.105,0.759-0.105
			c0.407,0,0.764,0.059,1.072,0.176s0.535,0.275,0.681,0.477c0.146,0.199,0.248,0.469,0.303,0.803l-0.859,0.117
			c-0.039-0.266-0.152-0.475-0.339-0.625c-0.187-0.148-0.452-0.225-0.793-0.225c-0.404,0-0.692,0.066-0.864,0.201
			c-0.172,0.133-0.259,0.289-0.259,0.469c0,0.113,0.036,0.217,0.107,0.307c0.072,0.096,0.184,0.174,0.337,0.234
			c0.088,0.033,0.347,0.107,0.776,0.225c0.622,0.166,1.056,0.303,1.301,0.408s0.438,0.26,0.579,0.461
			c0.14,0.203,0.21,0.453,0.21,0.752c0,0.293-0.085,0.568-0.256,0.828c-0.171,0.258-0.417,0.459-0.74,0.6
			c-0.322,0.143-0.687,0.213-1.094,0.213c-0.674,0-1.188-0.139-1.541-0.42C163.032,220.862,162.807,220.446,162.709,219.897z"/>
	</g>
</g>
<g>
	<defs>
		<rect id="SVGID_25_" x="-69.794" y="-46.904" width="657" height="343"/>
	</defs>
	<clipPath id="SVGID_26_">
		<use xlink:href="#SVGID_25_"  overflow="visible"/>
	</clipPath>
	<g clip-path="url(#SVGID_26_)">
		<path fill="#010202" d="M123.676,187.503v-7.158h1.426l1.694,5.068c0.156,0.471,0.27,0.824,0.342,1.059
			c0.082-0.26,0.208-0.643,0.381-1.146l1.714-4.98h1.274v7.158h-0.913v-5.992l-2.08,5.992h-0.854l-2.07-6.094v6.094H123.676z"/>
		<path fill="#010202" d="M135.307,186.862c-0.326,0.277-0.639,0.473-0.94,0.586c-0.301,0.115-0.624,0.172-0.969,0.172
			c-0.57,0-1.007-0.139-1.313-0.418c-0.306-0.277-0.459-0.635-0.459-1.066c0-0.254,0.058-0.486,0.173-0.695
			c0.116-0.211,0.267-0.379,0.454-0.506s0.398-0.223,0.632-0.289c0.172-0.045,0.433-0.09,0.781-0.131
			c0.709-0.086,1.232-0.186,1.567-0.303c0.003-0.121,0.005-0.197,0.005-0.23c0-0.357-0.083-0.609-0.249-0.756
			c-0.225-0.199-0.558-0.299-1.001-0.299c-0.414,0-0.719,0.072-0.916,0.219c-0.197,0.145-0.343,0.4-0.437,0.768l-0.859-0.117
			c0.078-0.367,0.207-0.664,0.386-0.891s0.438-0.4,0.776-0.521c0.338-0.123,0.731-0.184,1.177-0.184
			c0.443,0,0.802,0.051,1.079,0.156c0.277,0.104,0.48,0.234,0.61,0.393s0.221,0.357,0.273,0.598c0.029,0.15,0.044,0.42,0.044,0.811
			v1.172c0,0.818,0.019,1.334,0.056,1.551s0.111,0.424,0.222,0.623h-0.918C135.391,187.319,135.333,187.106,135.307,186.862z
			 M135.233,184.899c-0.319,0.131-0.797,0.242-1.436,0.332c-0.361,0.053-0.617,0.111-0.767,0.176
			c-0.15,0.066-0.265,0.16-0.347,0.287c-0.082,0.125-0.122,0.264-0.122,0.416c0,0.234,0.089,0.43,0.266,0.586
			s0.437,0.234,0.779,0.234c0.338,0,0.64-0.074,0.903-0.221c0.264-0.148,0.458-0.352,0.581-0.609
			c0.094-0.197,0.142-0.49,0.142-0.879V184.899z"/>
		<path fill="#010202" d="M137.484,187.503v-5.186h0.791v0.736c0.381-0.568,0.931-0.854,1.65-0.854c0.312,0,0.6,0.057,0.862,0.168
			c0.262,0.113,0.458,0.26,0.588,0.441c0.13,0.184,0.221,0.398,0.273,0.65c0.033,0.162,0.049,0.447,0.049,0.854v3.189h-0.879v-3.154
			c0-0.359-0.034-0.627-0.103-0.803c-0.068-0.178-0.189-0.32-0.364-0.426s-0.378-0.158-0.613-0.158
			c-0.375,0-0.697,0.119-0.969,0.355c-0.272,0.238-0.408,0.689-0.408,1.354v2.832H137.484z"/>
		<path fill="#010202" d="M146.43,186.862c-0.326,0.277-0.639,0.473-0.94,0.586c-0.301,0.115-0.624,0.172-0.969,0.172
			c-0.57,0-1.007-0.139-1.313-0.418c-0.306-0.277-0.459-0.635-0.459-1.066c0-0.254,0.058-0.486,0.173-0.695
			c0.116-0.211,0.267-0.379,0.454-0.506s0.398-0.223,0.632-0.289c0.172-0.045,0.433-0.09,0.781-0.131
			c0.709-0.086,1.232-0.186,1.567-0.303c0.003-0.121,0.005-0.197,0.005-0.23c0-0.357-0.083-0.609-0.249-0.756
			c-0.225-0.199-0.558-0.299-1.001-0.299c-0.414,0-0.719,0.072-0.916,0.219c-0.197,0.145-0.343,0.4-0.437,0.768l-0.859-0.117
			c0.078-0.367,0.207-0.664,0.386-0.891s0.438-0.4,0.776-0.521c0.338-0.123,0.731-0.184,1.177-0.184
			c0.443,0,0.802,0.051,1.079,0.156c0.277,0.104,0.48,0.234,0.61,0.393s0.221,0.357,0.273,0.598c0.029,0.15,0.044,0.42,0.044,0.811
			v1.172c0,0.818,0.019,1.334,0.056,1.551s0.111,0.424,0.222,0.623h-0.918C146.514,187.319,146.456,187.106,146.43,186.862z
			 M146.356,184.899c-0.319,0.131-0.797,0.242-1.436,0.332c-0.361,0.053-0.617,0.111-0.767,0.176
			c-0.15,0.066-0.265,0.16-0.347,0.287c-0.082,0.125-0.122,0.264-0.122,0.416c0,0.234,0.089,0.43,0.266,0.586
			s0.437,0.234,0.779,0.234c0.338,0,0.64-0.074,0.903-0.221c0.264-0.148,0.458-0.352,0.581-0.609
			c0.094-0.197,0.142-0.49,0.142-0.879V184.899z"/>
		<path fill="#010202" d="M148.446,187.933l0.854,0.127c0.036,0.264,0.135,0.455,0.298,0.576c0.218,0.162,0.516,0.244,0.894,0.244
			c0.407,0,0.721-0.082,0.942-0.244c0.221-0.164,0.371-0.391,0.449-0.684c0.045-0.18,0.067-0.555,0.063-1.129
			c-0.384,0.453-0.863,0.68-1.436,0.68c-0.713,0-1.265-0.258-1.655-0.771c-0.391-0.516-0.586-1.131-0.586-1.852
			c0-0.494,0.089-0.951,0.269-1.369s0.438-0.742,0.779-0.969c0.34-0.229,0.74-0.342,1.199-0.342c0.612,0,1.117,0.246,1.514,0.742
			v-0.625h0.811v4.482c0,0.807-0.082,1.379-0.247,1.717c-0.165,0.336-0.425,0.602-0.781,0.797s-0.795,0.293-1.316,0.293
			c-0.619,0-1.118-0.139-1.499-0.416C148.617,188.911,148.433,188.491,148.446,187.933z M149.174,184.817
			c0,0.68,0.135,1.176,0.405,1.488s0.609,0.469,1.016,0.469c0.404,0,0.742-0.154,1.016-0.465c0.273-0.312,0.41-0.799,0.41-1.463
			c0-0.635-0.141-1.113-0.422-1.436s-0.621-0.484-1.018-0.484c-0.391,0-0.723,0.16-0.996,0.477
			C149.311,183.722,149.174,184.192,149.174,184.817z"/>
		<path fill="#010202" d="M157.719,185.833l0.908,0.111c-0.143,0.531-0.409,0.943-0.796,1.236s-0.882,0.439-1.484,0.439
			c-0.758,0-1.36-0.234-1.804-0.701s-0.667-1.123-0.667-1.965c0-0.873,0.225-1.551,0.674-2.031c0.449-0.482,1.032-0.723,1.748-0.723
			c0.693,0,1.26,0.236,1.699,0.707c0.439,0.473,0.659,1.137,0.659,1.992c0,0.053-0.001,0.131-0.005,0.234h-3.867
			c0.033,0.57,0.194,1.006,0.483,1.309s0.651,0.455,1.084,0.455c0.322,0,0.597-0.086,0.825-0.254
			C157.405,186.474,157.585,186.204,157.719,185.833z M154.833,184.411h2.896c-0.039-0.436-0.15-0.764-0.332-0.98
			c-0.28-0.34-0.643-0.508-1.089-0.508c-0.404,0-0.743,0.135-1.018,0.404C155.015,183.599,154.862,183.96,154.833,184.411z"/>
		<path fill="#010202" d="M159.721,187.503v-5.186h0.791v0.785c0.202-0.367,0.388-0.609,0.559-0.727s0.359-0.176,0.564-0.176
			c0.296,0,0.597,0.094,0.903,0.283l-0.303,0.814c-0.215-0.127-0.43-0.189-0.645-0.189c-0.192,0-0.365,0.057-0.518,0.174
			c-0.153,0.115-0.262,0.275-0.327,0.48c-0.098,0.312-0.146,0.654-0.146,1.025v2.715H159.721z"/>
		<path fill="#010202" d="M162.709,185.954l0.869-0.137c0.049,0.35,0.185,0.615,0.408,0.801s0.535,0.279,0.935,0.279
			c0.404,0,0.703-0.082,0.898-0.246c0.195-0.166,0.293-0.357,0.293-0.58c0-0.197-0.086-0.354-0.259-0.469
			c-0.121-0.078-0.42-0.178-0.898-0.297c-0.645-0.164-1.091-0.305-1.34-0.422c-0.249-0.119-0.438-0.283-0.566-0.494
			c-0.128-0.209-0.193-0.441-0.193-0.695c0-0.232,0.053-0.445,0.159-0.643s0.25-0.361,0.432-0.49
			c0.137-0.102,0.323-0.188,0.559-0.256c0.236-0.07,0.489-0.105,0.759-0.105c0.407,0,0.764,0.059,1.072,0.176
			s0.535,0.275,0.681,0.477c0.146,0.199,0.248,0.467,0.303,0.803l-0.859,0.117c-0.039-0.268-0.152-0.477-0.339-0.625
			c-0.187-0.15-0.452-0.225-0.793-0.225c-0.404,0-0.692,0.066-0.864,0.199c-0.172,0.135-0.259,0.291-0.259,0.469
			c0,0.115,0.036,0.217,0.107,0.309c0.072,0.094,0.184,0.172,0.337,0.234c0.088,0.031,0.347,0.107,0.776,0.225
			c0.622,0.166,1.056,0.301,1.301,0.408c0.246,0.105,0.438,0.258,0.579,0.461c0.14,0.201,0.21,0.451,0.21,0.752
			c0,0.293-0.085,0.568-0.256,0.828c-0.171,0.258-0.417,0.459-0.74,0.6c-0.322,0.143-0.687,0.213-1.094,0.213
			c-0.674,0-1.188-0.141-1.541-0.42C163.032,186.919,162.807,186.505,162.709,185.954z"/>
	</g>
</g>
<g>
	<defs>
		<rect id="SVGID_27_" x="-69.794" y="-46.904" width="657" height="343"/>
	</defs>
	<clipPath id="SVGID_28_">
		<use xlink:href="#SVGID_27_"  overflow="visible"/>
	</clipPath>
	<g clip-path="url(#SVGID_28_)">
		<path fill="#010202" d="M142.836,151.261l0.894-0.078c0.042,0.357,0.141,0.65,0.295,0.881c0.155,0.229,0.395,0.414,0.72,0.557
			c0.326,0.141,0.692,0.213,1.099,0.213c0.361,0,0.68-0.055,0.957-0.162s0.482-0.254,0.618-0.441s0.203-0.391,0.203-0.613
			c0-0.225-0.065-0.42-0.195-0.588s-0.345-0.309-0.645-0.422c-0.192-0.076-0.617-0.191-1.274-0.35s-1.118-0.307-1.382-0.447
			c-0.342-0.178-0.597-0.4-0.764-0.666s-0.251-0.562-0.251-0.891c0-0.361,0.103-0.699,0.308-1.014s0.504-0.553,0.898-0.715
			c0.394-0.164,0.832-0.244,1.313-0.244c0.531,0,0.999,0.084,1.404,0.256c0.405,0.17,0.717,0.422,0.935,0.754
			s0.335,0.709,0.352,1.129l-0.908,0.068c-0.049-0.453-0.214-0.795-0.496-1.025c-0.282-0.232-0.697-0.348-1.248-0.348
			c-0.573,0-0.99,0.105-1.252,0.314c-0.262,0.211-0.393,0.465-0.393,0.76c0,0.258,0.093,0.469,0.278,0.635
			c0.182,0.166,0.658,0.336,1.428,0.51c0.77,0.176,1.298,0.328,1.584,0.457c0.417,0.193,0.724,0.436,0.923,0.73
			s0.298,0.635,0.298,1.018c0,0.381-0.109,0.74-0.327,1.076c-0.218,0.338-0.531,0.6-0.94,0.787s-0.868,0.281-1.379,0.281
			c-0.648,0-1.19-0.096-1.628-0.283c-0.438-0.189-0.781-0.473-1.03-0.854C142.98,152.167,142.849,151.739,142.836,151.261z"/>
		<path fill="#010202" d="M153.1,152.921c-0.326,0.275-0.639,0.471-0.94,0.586c-0.301,0.113-0.624,0.17-0.969,0.17
			c-0.57,0-1.007-0.139-1.313-0.418c-0.306-0.277-0.459-0.633-0.459-1.066c0-0.254,0.058-0.486,0.173-0.695
			c0.116-0.211,0.267-0.379,0.454-0.506s0.398-0.223,0.632-0.287c0.172-0.047,0.433-0.09,0.781-0.133
			c0.709-0.084,1.232-0.186,1.567-0.303c0.003-0.119,0.005-0.197,0.005-0.229c0-0.359-0.083-0.611-0.249-0.758
			c-0.225-0.197-0.558-0.297-1.001-0.297c-0.414,0-0.719,0.072-0.916,0.217s-0.343,0.4-0.437,0.77l-0.859-0.117
			c0.078-0.369,0.207-0.666,0.386-0.893c0.179-0.225,0.438-0.4,0.776-0.521c0.338-0.123,0.731-0.184,1.177-0.184
			c0.443,0,0.802,0.053,1.079,0.156c0.277,0.105,0.48,0.236,0.61,0.393c0.13,0.158,0.221,0.357,0.273,0.6
			c0.029,0.148,0.044,0.42,0.044,0.811v1.172c0,0.816,0.019,1.334,0.056,1.549c0.038,0.217,0.111,0.426,0.222,0.623h-0.918
			C153.184,153.378,153.125,153.165,153.1,152.921z M153.026,150.958c-0.319,0.129-0.797,0.24-1.436,0.332
			c-0.361,0.051-0.617,0.109-0.767,0.176c-0.15,0.064-0.265,0.16-0.347,0.285s-0.122,0.264-0.122,0.418
			c0,0.234,0.089,0.43,0.266,0.586s0.437,0.234,0.779,0.234c0.338,0,0.64-0.074,0.903-0.223s0.458-0.352,0.581-0.607
			c0.094-0.199,0.142-0.492,0.142-0.879V150.958z"/>
		<path fill="#010202" d="M155.258,153.56v-7.158h0.879v7.158H155.258z"/>
		<path fill="#010202" d="M161.049,151.89l0.908,0.113c-0.143,0.529-0.409,0.941-0.796,1.234s-0.882,0.439-1.484,0.439
			c-0.758,0-1.36-0.232-1.804-0.701c-0.444-0.467-0.667-1.121-0.667-1.965c0-0.871,0.225-1.549,0.674-2.031
			c0.449-0.48,1.032-0.723,1.748-0.723c0.693,0,1.26,0.236,1.699,0.709c0.439,0.471,0.659,1.135,0.659,1.992
			c0,0.051-0.001,0.129-0.005,0.234h-3.867c0.033,0.568,0.194,1.006,0.483,1.309s0.651,0.453,1.084,0.453
			c0.322,0,0.597-0.084,0.825-0.254C160.735,152.532,160.916,152.261,161.049,151.89z M158.163,150.47h2.896
			c-0.039-0.438-0.15-0.764-0.332-0.982c-0.28-0.338-0.643-0.508-1.089-0.508c-0.404,0-0.743,0.135-1.018,0.406
			C158.345,149.655,158.192,150.017,158.163,150.47z"/>
		<path fill="#010202" d="M162.709,152.013l0.869-0.137c0.049,0.348,0.185,0.615,0.408,0.801s0.535,0.277,0.935,0.277
			c0.404,0,0.703-0.082,0.898-0.246s0.293-0.357,0.293-0.578c0-0.199-0.086-0.355-0.259-0.469c-0.121-0.078-0.42-0.178-0.898-0.299
			c-0.645-0.162-1.091-0.303-1.34-0.422s-0.438-0.283-0.566-0.494c-0.128-0.209-0.193-0.441-0.193-0.695
			c0-0.23,0.053-0.445,0.159-0.643c0.106-0.195,0.25-0.359,0.432-0.49c0.137-0.1,0.323-0.186,0.559-0.256s0.489-0.105,0.759-0.105
			c0.407,0,0.764,0.059,1.072,0.176s0.535,0.275,0.681,0.477c0.146,0.199,0.248,0.469,0.303,0.803l-0.859,0.117
			c-0.039-0.266-0.152-0.475-0.339-0.625c-0.187-0.148-0.452-0.225-0.793-0.225c-0.404,0-0.692,0.066-0.864,0.201
			c-0.172,0.133-0.259,0.289-0.259,0.469c0,0.113,0.036,0.217,0.107,0.307c0.072,0.096,0.184,0.174,0.337,0.234
			c0.088,0.033,0.347,0.107,0.776,0.225c0.622,0.166,1.056,0.303,1.301,0.408s0.438,0.26,0.579,0.461
			c0.14,0.203,0.21,0.453,0.21,0.752c0,0.293-0.085,0.568-0.256,0.828c-0.171,0.258-0.417,0.459-0.74,0.6
			c-0.322,0.143-0.687,0.213-1.094,0.213c-0.674,0-1.188-0.139-1.541-0.42C163.032,152.978,162.807,152.562,162.709,152.013z"/>
	</g>
</g>
<g>
	<defs>
		<rect id="SVGID_29_" x="-69.794" y="-46.904" width="657" height="343"/>
	</defs>
	<clipPath id="SVGID_30_">
		<use xlink:href="#SVGID_29_"  overflow="visible"/>
	</clipPath>
	<g clip-path="url(#SVGID_30_)">
		<path fill="#010202" d="M184.948,119.618v-7.158h1.426l1.694,5.068c0.156,0.472,0.27,0.825,0.342,1.06
			c0.082-0.261,0.208-0.643,0.381-1.147l1.714-4.98h1.274v7.158h-0.913v-5.991l-2.08,5.991h-0.854l-2.07-6.094v6.094H184.948z"/>
		<path fill="#010202" d="M196.579,118.979c-0.326,0.276-0.639,0.472-0.94,0.586s-0.624,0.171-0.969,0.171
			c-0.57,0-1.007-0.139-1.313-0.418c-0.306-0.277-0.459-0.634-0.459-1.066c0-0.254,0.058-0.486,0.173-0.695
			c0.116-0.211,0.267-0.379,0.454-0.506s0.398-0.223,0.632-0.288c0.172-0.046,0.433-0.09,0.781-0.132
			c0.709-0.085,1.232-0.186,1.567-0.303c0.003-0.12,0.005-0.197,0.005-0.229c0-0.358-0.083-0.61-0.249-0.757
			c-0.225-0.198-0.558-0.298-1.001-0.298c-0.414,0-0.719,0.072-0.916,0.218c-0.197,0.145-0.343,0.4-0.437,0.769l-0.859-0.117
			c0.078-0.368,0.207-0.665,0.386-0.892c0.179-0.226,0.438-0.4,0.776-0.521c0.338-0.123,0.731-0.184,1.177-0.184
			c0.443,0,0.802,0.052,1.079,0.156s0.48,0.235,0.61,0.393c0.13,0.158,0.221,0.357,0.273,0.599c0.029,0.149,0.044,0.42,0.044,0.811
			v1.172c0,0.817,0.019,1.334,0.056,1.55c0.038,0.217,0.111,0.425,0.222,0.623h-0.918
			C196.664,119.436,196.605,119.223,196.579,118.979z M196.506,117.016c-0.319,0.13-0.797,0.241-1.436,0.332
			c-0.361,0.052-0.617,0.11-0.767,0.176s-0.265,0.16-0.347,0.286c-0.082,0.125-0.122,0.264-0.122,0.417
			c0,0.234,0.089,0.43,0.266,0.586s0.437,0.234,0.779,0.234c0.338,0,0.64-0.074,0.903-0.222c0.264-0.148,0.458-0.352,0.581-0.608
			c0.094-0.198,0.142-0.491,0.142-0.879V117.016z"/>
		<path fill="#010202" d="M202.141,117.719l0.864,0.112c-0.094,0.596-0.336,1.062-0.725,1.398c-0.389,0.338-0.867,0.506-1.433,0.506
			c-0.709,0-1.28-0.232-1.711-0.695c-0.431-0.465-0.647-1.129-0.647-1.995c0-0.56,0.093-1.05,0.278-1.47s0.468-0.734,0.847-0.945
			c0.379-0.209,0.792-0.314,1.238-0.314c0.563,0,1.024,0.143,1.382,0.428c0.358,0.284,0.587,0.688,0.688,1.213l-0.854,0.132
			c-0.082-0.349-0.226-0.61-0.432-0.786s-0.457-0.264-0.75-0.264c-0.443,0-0.802,0.158-1.079,0.477
			c-0.277,0.316-0.415,0.819-0.415,1.506c0,0.696,0.133,1.203,0.4,1.519s0.615,0.474,1.045,0.474c0.345,0,0.633-0.105,0.864-0.317
			S202.079,118.158,202.141,117.719z"/>
		<path fill="#010202" d="M203.757,119.618v-7.158h0.879v2.568c0.41-0.476,0.928-0.713,1.553-0.713c0.384,0,0.718,0.076,1.001,0.227
			c0.283,0.152,0.486,0.361,0.608,0.628s0.183,0.654,0.183,1.162v3.286h-0.879v-3.286c0-0.439-0.095-0.759-0.286-0.96
			c-0.19-0.199-0.46-0.3-0.808-0.3c-0.26,0-0.505,0.067-0.735,0.202c-0.229,0.136-0.393,0.318-0.491,0.55s-0.146,0.55-0.146,0.957
			v2.837H203.757z"/>
		<path fill="#010202" d="M209.323,113.471v-1.011h0.879v1.011H209.323z M209.323,119.618v-5.186h0.879v5.186H209.323z"/>
		<path fill="#010202" d="M211.54,119.618v-5.186h0.791v0.737c0.381-0.569,0.931-0.854,1.65-0.854c0.312,0,0.6,0.057,0.862,0.168
			c0.262,0.113,0.458,0.26,0.588,0.442s0.221,0.398,0.273,0.649c0.033,0.163,0.049,0.447,0.049,0.854v3.188h-0.879v-3.154
			c0-0.358-0.034-0.626-0.103-0.803c-0.068-0.178-0.189-0.319-0.364-0.426c-0.174-0.105-0.378-0.158-0.613-0.158
			c-0.375,0-0.697,0.119-0.969,0.356s-0.408,0.688-0.408,1.353v2.832H211.54z"/>
		<path fill="#010202" d="M220.651,117.948l0.908,0.112c-0.143,0.53-0.409,0.942-0.796,1.235s-0.882,0.439-1.484,0.439
			c-0.758,0-1.36-0.233-1.804-0.701c-0.444-0.467-0.667-1.122-0.667-1.965c0-0.872,0.225-1.55,0.674-2.031s1.032-0.723,1.748-0.723
			c0.693,0,1.26,0.236,1.699,0.708s0.659,1.136,0.659,1.992c0,0.052-0.001,0.13-0.005,0.234h-3.867
			c0.033,0.569,0.194,1.006,0.483,1.309s0.651,0.454,1.084,0.454c0.322,0,0.597-0.085,0.825-0.254S220.518,118.319,220.651,117.948z
			 M217.766,116.527h2.896c-0.039-0.437-0.15-0.764-0.332-0.981c-0.28-0.339-0.643-0.508-1.089-0.508
			c-0.404,0-0.743,0.135-1.018,0.405S217.795,116.075,217.766,116.527z"/>
		<path fill="#010202" d="M222.653,119.618v-5.186h0.791v0.786c0.202-0.368,0.388-0.61,0.559-0.728s0.359-0.176,0.564-0.176
			c0.296,0,0.597,0.095,0.903,0.283l-0.303,0.815c-0.215-0.127-0.43-0.19-0.645-0.19c-0.192,0-0.365,0.058-0.518,0.174
			c-0.153,0.115-0.262,0.275-0.327,0.48c-0.098,0.312-0.146,0.654-0.146,1.025v2.715H222.653z"/>
		<path fill="#010202" d="M225.954,121.615l-0.098-0.825c0.192,0.052,0.36,0.078,0.503,0.078c0.195,0,0.352-0.032,0.469-0.098
			s0.213-0.156,0.288-0.273c0.055-0.088,0.145-0.306,0.269-0.654c0.016-0.049,0.042-0.12,0.078-0.215l-1.968-5.195h0.947
			l1.079,3.003c0.14,0.381,0.265,0.781,0.376,1.201c0.101-0.403,0.221-0.798,0.361-1.182l1.108-3.022h0.879l-1.973,5.273
			c-0.211,0.569-0.376,0.962-0.493,1.177c-0.156,0.29-0.335,0.502-0.537,0.638c-0.202,0.135-0.443,0.202-0.723,0.202
			C226.351,121.723,226.163,121.687,225.954,121.615z"/>
		<path fill="#010202" d="M233.596,116.132c0-1.188,0.319-2.118,0.957-2.791c0.638-0.672,1.461-1.008,2.471-1.008
			c0.661,0,1.256,0.158,1.787,0.474s0.935,0.756,1.213,1.321c0.278,0.564,0.417,1.205,0.417,1.921c0,0.726-0.146,1.375-0.439,1.948
			s-0.708,1.007-1.245,1.301c-0.537,0.295-1.117,0.442-1.738,0.442c-0.674,0-1.276-0.163-1.807-0.488s-0.933-0.77-1.206-1.333
			S233.596,116.76,233.596,116.132z M234.572,116.146c0,0.862,0.232,1.542,0.696,2.038c0.464,0.497,1.046,0.745,1.746,0.745
			c0.713,0,1.3-0.251,1.76-0.752s0.691-1.213,0.691-2.134c0-0.583-0.099-1.092-0.295-1.525c-0.197-0.436-0.485-0.771-0.864-1.012
			c-0.379-0.238-0.805-0.358-1.277-0.358c-0.67,0-1.248,0.23-1.731,0.69C234.814,114.3,234.572,115.069,234.572,116.146z"/>
		<path fill="#010202" d="M241.55,121.605v-7.173h0.801v0.674c0.189-0.264,0.402-0.461,0.64-0.594
			c0.238-0.131,0.526-0.197,0.864-0.197c0.443,0,0.833,0.114,1.172,0.342s0.594,0.549,0.767,0.965
			c0.172,0.414,0.259,0.869,0.259,1.364c0,0.53-0.095,1.009-0.286,1.433c-0.19,0.426-0.467,0.751-0.83,0.977
			c-0.363,0.227-0.745,0.34-1.145,0.34c-0.293,0-0.556-0.062-0.789-0.186s-0.424-0.28-0.574-0.469v2.524H241.55z M242.346,117.055
			c0,0.667,0.135,1.16,0.405,1.479s0.597,0.479,0.981,0.479c0.391,0,0.725-0.165,1.003-0.496c0.278-0.33,0.417-0.842,0.417-1.535
			c0-0.661-0.136-1.155-0.408-1.484s-0.597-0.493-0.974-0.493c-0.375,0-0.706,0.175-0.994,0.524
			C242.49,115.879,242.346,116.388,242.346,117.055z"/>
		<path fill="#010202" d="M250.661,117.948l0.908,0.112c-0.143,0.53-0.409,0.942-0.796,1.235s-0.882,0.439-1.484,0.439
			c-0.758,0-1.36-0.233-1.804-0.701c-0.444-0.467-0.667-1.122-0.667-1.965c0-0.872,0.225-1.55,0.674-2.031s1.032-0.723,1.748-0.723
			c0.693,0,1.26,0.236,1.699,0.708s0.659,1.136,0.659,1.992c0,0.052-0.001,0.13-0.005,0.234h-3.867
			c0.033,0.569,0.194,1.006,0.483,1.309s0.651,0.454,1.084,0.454c0.322,0,0.597-0.085,0.825-0.254S250.528,118.319,250.661,117.948z
			 M247.775,116.527h2.896c-0.039-0.437-0.15-0.764-0.332-0.981c-0.28-0.339-0.643-0.508-1.089-0.508
			c-0.404,0-0.743,0.135-1.018,0.405S247.805,116.075,247.775,116.527z"/>
		<path fill="#010202" d="M252.663,119.618v-5.186h0.791v0.786c0.202-0.368,0.388-0.61,0.559-0.728s0.359-0.176,0.564-0.176
			c0.296,0,0.597,0.095,0.903,0.283l-0.303,0.815c-0.215-0.127-0.43-0.19-0.645-0.19c-0.192,0-0.365,0.058-0.518,0.174
			c-0.153,0.115-0.262,0.275-0.327,0.48c-0.098,0.312-0.146,0.654-0.146,1.025v2.715H252.663z"/>
		<path fill="#010202" d="M259.387,118.979c-0.326,0.276-0.639,0.472-0.94,0.586s-0.624,0.171-0.969,0.171
			c-0.57,0-1.007-0.139-1.313-0.418c-0.306-0.277-0.459-0.634-0.459-1.066c0-0.254,0.058-0.486,0.173-0.695
			c0.116-0.211,0.267-0.379,0.454-0.506s0.398-0.223,0.632-0.288c0.172-0.046,0.433-0.09,0.781-0.132
			c0.709-0.085,1.232-0.186,1.567-0.303c0.003-0.12,0.005-0.197,0.005-0.229c0-0.358-0.083-0.61-0.249-0.757
			c-0.225-0.198-0.558-0.298-1.001-0.298c-0.414,0-0.719,0.072-0.916,0.218c-0.197,0.145-0.343,0.4-0.437,0.769l-0.859-0.117
			c0.078-0.368,0.207-0.665,0.386-0.892c0.179-0.226,0.438-0.4,0.776-0.521c0.338-0.123,0.731-0.184,1.177-0.184
			c0.443,0,0.802,0.052,1.079,0.156s0.48,0.235,0.61,0.393c0.13,0.158,0.221,0.357,0.273,0.599c0.029,0.149,0.044,0.42,0.044,0.811
			v1.172c0,0.817,0.019,1.334,0.057,1.55c0.037,0.217,0.111,0.425,0.222,0.623h-0.918
			C259.471,119.436,259.413,119.223,259.387,118.979z M259.313,117.016c-0.319,0.13-0.797,0.241-1.436,0.332
			c-0.361,0.052-0.617,0.11-0.767,0.176s-0.265,0.16-0.347,0.286c-0.082,0.125-0.122,0.264-0.122,0.417
			c0,0.234,0.089,0.43,0.266,0.586s0.437,0.234,0.779,0.234c0.338,0,0.64-0.074,0.903-0.222c0.264-0.148,0.458-0.352,0.581-0.608
			c0.094-0.198,0.142-0.491,0.142-0.879V117.016z"/>
		<path fill="#010202" d="M263.483,118.832l0.127,0.776c-0.248,0.052-0.469,0.078-0.664,0.078c-0.318,0-0.566-0.051-0.742-0.151
			s-0.299-0.233-0.371-0.397c-0.072-0.165-0.107-0.511-0.107-1.038v-2.983h-0.645v-0.684h0.645v-1.284l0.874-0.527v1.812h0.884
			v0.684H262.6v3.032c0,0.251,0.016,0.412,0.046,0.483c0.031,0.071,0.082,0.129,0.152,0.171c0.069,0.042,0.17,0.063,0.3,0.063
			C263.195,118.866,263.323,118.854,263.483,118.832z"/>
		<path fill="#010202" d="M264.016,117.025c0-0.96,0.267-1.672,0.801-2.134c0.446-0.384,0.989-0.576,1.631-0.576
			c0.713,0,1.296,0.233,1.748,0.701c0.452,0.467,0.679,1.112,0.679,1.936c0,0.667-0.1,1.192-0.301,1.574
			c-0.199,0.383-0.491,0.68-0.873,0.892c-0.383,0.212-0.801,0.317-1.253,0.317c-0.726,0-1.312-0.232-1.761-0.698
			C264.239,118.571,264.016,117.901,264.016,117.025z M264.919,117.025c0,0.664,0.145,1.161,0.435,1.491
			c0.29,0.331,0.654,0.496,1.094,0.496c0.437,0,0.8-0.166,1.089-0.498s0.435-0.838,0.435-1.519c0-0.642-0.146-1.127-0.437-1.458
			c-0.292-0.33-0.654-0.495-1.087-0.495c-0.439,0-0.804,0.164-1.094,0.493S264.919,116.361,264.919,117.025z"/>
		<path fill="#010202" d="M269.895,119.618v-5.186h0.791v0.786c0.202-0.368,0.388-0.61,0.56-0.728
			c0.17-0.117,0.358-0.176,0.563-0.176c0.296,0,0.597,0.095,0.903,0.283l-0.303,0.815c-0.215-0.127-0.43-0.19-0.645-0.19
			c-0.191,0-0.365,0.058-0.518,0.174c-0.152,0.115-0.262,0.275-0.327,0.48c-0.098,0.312-0.146,0.654-0.146,1.025v2.715H269.895z"/>
		<path fill="#010202" d="M272.883,118.07l0.869-0.137c0.049,0.349,0.185,0.615,0.407,0.801c0.224,0.186,0.535,0.278,0.936,0.278
			c0.404,0,0.703-0.082,0.898-0.246c0.195-0.165,0.293-0.357,0.293-0.579c0-0.198-0.086-0.354-0.259-0.469
			c-0.12-0.078-0.42-0.178-0.898-0.298c-0.645-0.163-1.091-0.304-1.341-0.422c-0.248-0.119-0.438-0.283-0.566-0.494
			c-0.128-0.209-0.192-0.441-0.192-0.695c0-0.231,0.053-0.445,0.159-0.643c0.105-0.196,0.25-0.36,0.432-0.49
			c0.137-0.101,0.323-0.187,0.559-0.256c0.236-0.07,0.49-0.105,0.76-0.105c0.406,0,0.764,0.059,1.072,0.176
			c0.307,0.117,0.534,0.275,0.681,0.477c0.146,0.199,0.247,0.468,0.303,0.803l-0.859,0.117c-0.039-0.267-0.152-0.476-0.339-0.625
			c-0.188-0.149-0.452-0.225-0.794-0.225c-0.403,0-0.692,0.066-0.864,0.2s-0.259,0.29-0.259,0.469c0,0.114,0.036,0.217,0.107,0.308
			c0.071,0.095,0.185,0.173,0.337,0.234c0.088,0.032,0.347,0.107,0.776,0.225c0.622,0.166,1.056,0.302,1.302,0.408
			c0.245,0.105,0.438,0.259,0.578,0.461s0.21,0.452,0.21,0.752c0,0.293-0.085,0.568-0.257,0.828c-0.17,0.258-0.417,0.459-0.739,0.6
			c-0.322,0.143-0.687,0.213-1.094,0.213c-0.674,0-1.188-0.14-1.54-0.42C273.206,119.035,272.98,118.62,272.883,118.07z"/>
	</g>
</g>
<g>
	<defs>
		<rect id="SVGID_31_" x="-69.794" y="-46.904" width="657" height="343"/>
	</defs>
	<clipPath id="SVGID_32_">
		<use xlink:href="#SVGID_31_"  overflow="visible"/>
	</clipPath>
	<g clip-path="url(#SVGID_32_)">
		<path fill="#010202" d="M186.799,85.675v-6.313h-2.358v-0.845h5.674v0.845h-2.368v6.313H186.799z"/>
		<path fill="#010202" d="M193.423,84.005l0.908,0.112c-0.143,0.53-0.409,0.942-0.796,1.235s-0.882,0.439-1.484,0.439
			c-0.758,0-1.36-0.233-1.804-0.701c-0.444-0.467-0.667-1.122-0.667-1.965c0-0.872,0.225-1.55,0.674-2.031s1.032-0.723,1.748-0.723
			c0.693,0,1.26,0.236,1.699,0.708s0.659,1.136,0.659,1.992c0,0.052-0.001,0.13-0.005,0.234h-3.867
			c0.033,0.569,0.194,1.006,0.483,1.309s0.651,0.454,1.084,0.454c0.322,0,0.597-0.085,0.825-0.254S193.29,84.376,193.423,84.005z
			 M190.538,82.584h2.896c-0.039-0.437-0.15-0.764-0.332-0.981c-0.28-0.339-0.643-0.508-1.089-0.508
			c-0.404,0-0.743,0.135-1.018,0.405S190.567,82.132,190.538,82.584z"/>
		<path fill="#010202" d="M198.819,83.775l0.864,0.112c-0.094,0.596-0.336,1.062-0.725,1.398c-0.389,0.338-0.867,0.506-1.433,0.506
			c-0.709,0-1.28-0.232-1.711-0.695c-0.431-0.465-0.647-1.129-0.647-1.995c0-0.56,0.093-1.05,0.278-1.47s0.468-0.734,0.847-0.945
			c0.379-0.209,0.792-0.314,1.238-0.314c0.563,0,1.024,0.143,1.382,0.428c0.358,0.284,0.587,0.688,0.688,1.213l-0.854,0.132
			c-0.082-0.349-0.226-0.61-0.432-0.786s-0.457-0.264-0.75-0.264c-0.443,0-0.802,0.158-1.079,0.477
			c-0.277,0.316-0.415,0.819-0.415,1.506c0,0.696,0.133,1.203,0.4,1.519s0.615,0.474,1.045,0.474c0.345,0,0.633-0.105,0.864-0.317
			S198.757,84.215,198.819,83.775z"/>
		<path fill="#010202" d="M200.435,85.675v-7.158h0.879v2.568c0.41-0.476,0.928-0.713,1.553-0.713c0.384,0,0.718,0.076,1.001,0.227
			c0.283,0.152,0.486,0.361,0.608,0.628s0.183,0.654,0.183,1.162v3.286h-0.879v-3.286c0-0.439-0.095-0.759-0.286-0.96
			c-0.19-0.199-0.46-0.3-0.808-0.3c-0.26,0-0.505,0.067-0.735,0.202c-0.229,0.136-0.393,0.318-0.491,0.55s-0.146,0.55-0.146,0.957
			v2.837H200.435z"/>
		<path fill="#010202" d="M205.997,85.675v-5.186h0.791v0.737c0.381-0.569,0.931-0.854,1.65-0.854c0.312,0,0.6,0.057,0.862,0.168
			c0.262,0.113,0.458,0.26,0.588,0.442s0.221,0.398,0.273,0.649c0.033,0.163,0.049,0.447,0.049,0.854v3.188h-0.879v-3.154
			c0-0.358-0.034-0.626-0.103-0.803c-0.068-0.178-0.189-0.319-0.364-0.426c-0.174-0.105-0.378-0.158-0.613-0.158
			c-0.375,0-0.697,0.119-0.969,0.356s-0.408,0.688-0.408,1.353v2.832H205.997z"/>
		<path fill="#010202" d="M211.563,79.527v-1.011h0.879v1.011H211.563z M211.563,85.675v-5.186h0.879v5.186H211.563z"/>
		<path fill="#010202" d="M217.164,83.775l0.864,0.112c-0.094,0.596-0.336,1.062-0.725,1.398c-0.389,0.338-0.867,0.506-1.433,0.506
			c-0.709,0-1.28-0.232-1.711-0.695c-0.431-0.465-0.647-1.129-0.647-1.995c0-0.56,0.093-1.05,0.278-1.47s0.468-0.734,0.847-0.945
			c0.379-0.209,0.792-0.314,1.238-0.314c0.563,0,1.024,0.143,1.382,0.428c0.358,0.284,0.587,0.688,0.688,1.213l-0.854,0.132
			c-0.082-0.349-0.226-0.61-0.432-0.786s-0.457-0.264-0.75-0.264c-0.443,0-0.802,0.158-1.079,0.477
			c-0.277,0.316-0.415,0.819-0.415,1.506c0,0.696,0.133,1.203,0.4,1.519s0.615,0.474,1.045,0.474c0.345,0,0.633-0.105,0.864-0.317
			S217.102,84.215,217.164,83.775z"/>
		<path fill="#010202" d="M218.785,79.527v-1.011h0.879v1.011H218.785z M218.785,85.675v-5.186h0.879v5.186H218.785z"/>
		<path fill="#010202" d="M224.385,85.035c-0.326,0.276-0.639,0.472-0.94,0.586s-0.624,0.171-0.969,0.171
			c-0.57,0-1.007-0.139-1.313-0.418c-0.306-0.277-0.459-0.634-0.459-1.066c0-0.254,0.058-0.486,0.173-0.695
			c0.116-0.211,0.267-0.379,0.454-0.506s0.398-0.223,0.632-0.288c0.172-0.046,0.433-0.09,0.781-0.132
			c0.709-0.085,1.232-0.186,1.567-0.303c0.003-0.12,0.005-0.197,0.005-0.229c0-0.358-0.083-0.61-0.249-0.757
			c-0.225-0.198-0.558-0.298-1.001-0.298c-0.414,0-0.719,0.072-0.916,0.218c-0.197,0.145-0.343,0.4-0.437,0.769l-0.859-0.117
			c0.078-0.368,0.207-0.665,0.386-0.892c0.179-0.226,0.438-0.4,0.776-0.521c0.338-0.123,0.731-0.184,1.177-0.184
			c0.443,0,0.802,0.052,1.079,0.156s0.48,0.235,0.61,0.393c0.13,0.158,0.221,0.357,0.273,0.599c0.029,0.149,0.044,0.42,0.044,0.811
			v1.172c0,0.817,0.019,1.334,0.056,1.55c0.038,0.217,0.111,0.425,0.222,0.623h-0.918C224.47,85.492,224.411,85.279,224.385,85.035z
			 M224.312,83.072c-0.319,0.13-0.797,0.241-1.436,0.332c-0.361,0.052-0.617,0.11-0.767,0.176s-0.265,0.16-0.347,0.286
			c-0.082,0.125-0.122,0.264-0.122,0.417c0,0.234,0.089,0.43,0.266,0.586s0.437,0.234,0.779,0.234c0.338,0,0.64-0.074,0.903-0.222
			c0.264-0.148,0.458-0.352,0.581-0.608c0.094-0.198,0.142-0.491,0.142-0.879V83.072z"/>
		<path fill="#010202" d="M226.563,85.675v-5.186h0.791v0.737c0.381-0.569,0.931-0.854,1.65-0.854c0.312,0,0.6,0.057,0.862,0.168
			c0.262,0.113,0.458,0.26,0.588,0.442s0.221,0.398,0.273,0.649c0.033,0.163,0.049,0.447,0.049,0.854v3.188h-0.879v-3.154
			c0-0.358-0.034-0.626-0.103-0.803c-0.068-0.178-0.189-0.319-0.364-0.426c-0.174-0.105-0.378-0.158-0.613-0.158
			c-0.375,0-0.697,0.119-0.969,0.356s-0.408,0.688-0.408,1.353v2.832H226.563z"/>
		<path fill="#010202" d="M231.773,84.127l0.869-0.137c0.049,0.349,0.185,0.615,0.408,0.801s0.535,0.278,0.935,0.278
			c0.404,0,0.703-0.082,0.898-0.246c0.195-0.165,0.293-0.357,0.293-0.579c0-0.198-0.086-0.354-0.259-0.469
			c-0.121-0.078-0.42-0.178-0.898-0.298c-0.645-0.163-1.091-0.304-1.34-0.422c-0.249-0.119-0.438-0.283-0.566-0.494
			c-0.128-0.209-0.193-0.441-0.193-0.695c0-0.231,0.053-0.445,0.159-0.643c0.106-0.196,0.25-0.36,0.432-0.49
			c0.137-0.101,0.323-0.187,0.559-0.256c0.236-0.07,0.489-0.105,0.759-0.105c0.407,0,0.764,0.059,1.072,0.176
			s0.535,0.275,0.681,0.477c0.146,0.199,0.248,0.468,0.303,0.803l-0.859,0.117c-0.039-0.267-0.152-0.476-0.339-0.625
			s-0.452-0.225-0.793-0.225c-0.404,0-0.692,0.066-0.864,0.2s-0.259,0.29-0.259,0.469c0,0.114,0.036,0.217,0.107,0.308
			c0.072,0.095,0.184,0.173,0.337,0.234c0.088,0.032,0.347,0.107,0.776,0.225c0.622,0.166,1.056,0.302,1.301,0.408
			c0.246,0.105,0.438,0.259,0.579,0.461s0.21,0.452,0.21,0.752c0,0.293-0.085,0.568-0.256,0.828c-0.171,0.258-0.417,0.459-0.74,0.6
			c-0.322,0.143-0.687,0.213-1.094,0.213c-0.674,0-1.188-0.14-1.541-0.42S231.871,84.677,231.773,84.127z"/>
		<path fill="#010202" d="M243.995,84.83c-0.29,0.322-0.605,0.563-0.947,0.726c-0.342,0.16-0.711,0.241-1.108,0.241
			c-0.732,0-1.313-0.247-1.743-0.742c-0.348-0.403-0.522-0.854-0.522-1.353c0-0.442,0.143-0.842,0.427-1.199
			c0.285-0.355,0.71-0.669,1.277-0.939c-0.322-0.371-0.537-0.672-0.645-0.903s-0.161-0.454-0.161-0.669
			c0-0.43,0.168-0.803,0.505-1.121c0.337-0.316,0.761-0.476,1.272-0.476c0.488,0,0.888,0.149,1.199,0.449s0.466,0.659,0.466,1.079
			c0,0.681-0.451,1.262-1.353,1.743l1.284,1.636c0.146-0.286,0.26-0.618,0.342-0.996l0.913,0.195
			c-0.156,0.625-0.368,1.14-0.635,1.543c0.329,0.437,0.702,0.803,1.118,1.099l-0.591,0.698
			C244.738,85.613,244.372,85.276,243.995,84.83z M243.443,84.137l-1.611-1.997c-0.475,0.283-0.796,0.546-0.962,0.789
			c-0.166,0.242-0.249,0.482-0.249,0.72c0,0.29,0.116,0.591,0.347,0.903s0.558,0.469,0.981,0.469c0.264,0,0.536-0.082,0.818-0.246
			C243.048,84.609,243.273,84.397,243.443,84.137z M242.208,81.1c0.381-0.225,0.627-0.422,0.74-0.591s0.168-0.356,0.168-0.562
			c0-0.244-0.077-0.443-0.232-0.599c-0.155-0.154-0.348-0.231-0.579-0.231c-0.238,0-0.436,0.076-0.593,0.229
			s-0.237,0.34-0.237,0.562c0,0.11,0.028,0.228,0.085,0.349c0.057,0.123,0.143,0.252,0.256,0.389L242.208,81.1z"/>
		<path fill="#010202" d="M251.105,85.675v-6.313h-2.358v-0.845h5.674v0.845h-2.368v6.313H251.105z"/>
		<path fill="#010202" d="M254.9,85.675v-5.186h0.791v0.786c0.202-0.368,0.388-0.61,0.559-0.728s0.359-0.176,0.564-0.176
			c0.296,0,0.597,0.095,0.903,0.283l-0.303,0.815c-0.215-0.127-0.43-0.19-0.645-0.19c-0.192,0-0.365,0.058-0.518,0.174
			c-0.153,0.115-0.262,0.275-0.327,0.48c-0.098,0.312-0.146,0.654-0.146,1.025v2.715H254.9z"/>
		<path fill="#010202" d="M261.624,85.035c-0.326,0.276-0.639,0.472-0.94,0.586s-0.624,0.171-0.969,0.171
			c-0.57,0-1.007-0.139-1.313-0.418c-0.306-0.277-0.459-0.634-0.459-1.066c0-0.254,0.058-0.486,0.173-0.695
			c0.116-0.211,0.267-0.379,0.454-0.506s0.398-0.223,0.632-0.288c0.172-0.046,0.433-0.09,0.781-0.132
			c0.709-0.085,1.232-0.186,1.567-0.303c0.004-0.12,0.006-0.197,0.006-0.229c0-0.358-0.084-0.61-0.25-0.757
			c-0.225-0.198-0.558-0.298-1-0.298c-0.414,0-0.719,0.072-0.916,0.218c-0.197,0.145-0.343,0.4-0.437,0.769l-0.859-0.117
			c0.078-0.368,0.207-0.665,0.386-0.892c0.179-0.226,0.438-0.4,0.776-0.521c0.338-0.123,0.731-0.184,1.177-0.184
			c0.442,0,0.802,0.052,1.078,0.156c0.277,0.104,0.48,0.235,0.611,0.393c0.13,0.158,0.221,0.357,0.273,0.599
			c0.029,0.149,0.043,0.42,0.043,0.811v1.172c0,0.817,0.02,1.334,0.057,1.55c0.037,0.217,0.111,0.425,0.223,0.623H261.8
			C261.708,85.492,261.649,85.279,261.624,85.035z M261.55,83.072c-0.318,0.13-0.797,0.241-1.435,0.332
			c-0.361,0.052-0.617,0.11-0.767,0.176s-0.265,0.16-0.347,0.286c-0.082,0.125-0.122,0.264-0.122,0.417
			c0,0.234,0.089,0.43,0.266,0.586s0.437,0.234,0.779,0.234c0.338,0,0.639-0.074,0.903-0.222c0.264-0.148,0.458-0.352,0.582-0.608
			c0.094-0.198,0.141-0.491,0.141-0.879V83.072z"/>
		<path fill="#010202" d="M267.165,85.675v-0.654c-0.328,0.515-0.812,0.771-1.449,0.771c-0.414,0-0.794-0.114-1.141-0.342
			s-0.615-0.546-0.806-0.955c-0.19-0.408-0.286-0.878-0.286-1.408c0-0.518,0.087-0.987,0.26-1.408
			c0.172-0.422,0.431-0.745,0.775-0.97c0.346-0.225,0.731-0.337,1.158-0.337c0.312,0,0.59,0.066,0.834,0.197
			c0.244,0.133,0.443,0.304,0.596,0.516v-2.568h0.875v7.158H267.165z M264.388,83.087c0,0.664,0.14,1.16,0.42,1.489
			c0.279,0.329,0.609,0.493,0.99,0.493c0.385,0,0.711-0.157,0.979-0.471c0.269-0.314,0.403-0.794,0.403-1.438
			c0-0.71-0.137-1.23-0.41-1.562s-0.611-0.498-1.012-0.498c-0.391,0-0.717,0.159-0.979,0.479S264.388,82.4,264.388,83.087z"/>
		<path fill="#010202" d="M272.913,84.005l0.908,0.112c-0.144,0.53-0.409,0.942-0.797,1.235c-0.387,0.293-0.882,0.439-1.484,0.439
			c-0.758,0-1.359-0.233-1.804-0.701c-0.444-0.467-0.667-1.122-0.667-1.965c0-0.872,0.225-1.55,0.674-2.031s1.032-0.723,1.748-0.723
			c0.693,0,1.26,0.236,1.699,0.708s0.66,1.136,0.66,1.992c0,0.052-0.002,0.13-0.006,0.234h-3.867
			c0.033,0.569,0.194,1.006,0.484,1.309c0.289,0.303,0.65,0.454,1.084,0.454c0.322,0,0.597-0.085,0.824-0.254
			C272.599,84.646,272.779,84.376,272.913,84.005z M270.026,82.584h2.896c-0.039-0.437-0.15-0.764-0.332-0.981
			c-0.28-0.339-0.644-0.508-1.09-0.508c-0.403,0-0.742,0.135-1.018,0.405S270.056,82.132,270.026,82.584z"/>
		<path fill="#010202" d="M274.573,84.127l0.869-0.137c0.049,0.349,0.184,0.615,0.407,0.801s0.534,0.278,0.935,0.278
			c0.404,0,0.703-0.082,0.898-0.246c0.195-0.165,0.293-0.357,0.293-0.579c0-0.198-0.086-0.354-0.258-0.469
			c-0.121-0.078-0.42-0.178-0.898-0.298c-0.645-0.163-1.092-0.304-1.341-0.422c-0.249-0.119-0.438-0.283-0.566-0.494
			c-0.128-0.209-0.192-0.441-0.192-0.695c0-0.231,0.053-0.445,0.158-0.643c0.105-0.196,0.25-0.36,0.432-0.49
			c0.137-0.101,0.324-0.187,0.56-0.256c0.235-0.07,0.489-0.105,0.759-0.105c0.407,0,0.765,0.059,1.072,0.176
			s0.535,0.275,0.682,0.477c0.146,0.199,0.247,0.468,0.303,0.803l-0.859,0.117c-0.039-0.267-0.152-0.476-0.34-0.625
			s-0.451-0.225-0.793-0.225c-0.404,0-0.692,0.066-0.865,0.2c-0.172,0.134-0.258,0.29-0.258,0.469c0,0.114,0.035,0.217,0.107,0.308
			c0.071,0.095,0.184,0.173,0.336,0.234c0.088,0.032,0.348,0.107,0.777,0.225c0.621,0.166,1.055,0.302,1.301,0.408
			c0.246,0.105,0.438,0.259,0.578,0.461c0.141,0.202,0.211,0.452,0.211,0.752c0,0.293-0.086,0.568-0.257,0.828
			c-0.171,0.258-0.417,0.459-0.739,0.6c-0.322,0.143-0.688,0.213-1.094,0.213c-0.674,0-1.188-0.14-1.541-0.42
			S274.671,84.677,274.573,84.127z"/>
	</g>
</g>
<g>
	<defs>
		<rect id="SVGID_33_" x="-69.794" y="-46.904" width="657" height="343"/>
	</defs>
	<clipPath id="SVGID_34_">
		<use xlink:href="#SVGID_33_"  overflow="visible"/>
	</clipPath>
	<g clip-path="url(#SVGID_34_)">
		<path fill="#010202" d="M184.207,51.731l2.749-7.158h1.021l2.93,7.158h-1.079l-0.835-2.168h-2.993l-0.786,2.168H184.207z
			 M186.272,48.792h2.427l-0.747-1.982c-0.228-0.603-0.397-1.097-0.508-1.484c-0.091,0.459-0.22,0.915-0.386,1.367L186.272,48.792z"
			/>
		<path fill="#010202" d="M194.915,51.731v-0.654c-0.329,0.515-0.812,0.771-1.45,0.771c-0.414,0-0.793-0.114-1.14-0.342
			s-0.615-0.546-0.806-0.955c-0.19-0.408-0.286-0.878-0.286-1.408c0-0.518,0.086-0.987,0.259-1.408
			c0.172-0.422,0.431-0.745,0.776-0.97s0.731-0.337,1.157-0.337c0.312,0,0.591,0.066,0.835,0.197
			c0.244,0.133,0.443,0.304,0.596,0.516v-2.568h0.874v7.158H194.915z M192.136,49.144c0,0.664,0.14,1.16,0.42,1.489
			s0.61,0.493,0.991,0.493c0.384,0,0.71-0.157,0.979-0.471c0.269-0.314,0.403-0.794,0.403-1.438c0-0.71-0.137-1.23-0.41-1.562
			s-0.61-0.498-1.011-0.498c-0.391,0-0.717,0.159-0.979,0.479S192.136,48.457,192.136,49.144z"/>
		<path fill="#010202" d="M197.112,51.731v-5.186h0.786v0.728c0.163-0.254,0.379-0.458,0.649-0.612
			c0.27-0.155,0.578-0.232,0.923-0.232c0.384,0,0.699,0.08,0.945,0.239s0.419,0.383,0.52,0.669c0.41-0.605,0.944-0.908,1.602-0.908
			c0.514,0,0.91,0.143,1.187,0.428c0.277,0.284,0.415,0.723,0.415,1.315v3.56h-0.874v-3.267c0-0.352-0.028-0.604-0.085-0.759
			c-0.057-0.155-0.16-0.279-0.31-0.374s-0.326-0.142-0.527-0.142c-0.365,0-0.667,0.121-0.908,0.363
			c-0.241,0.243-0.361,0.631-0.361,1.165v3.013h-0.879v-3.369c0-0.391-0.072-0.684-0.215-0.879s-0.377-0.293-0.703-0.293
			c-0.248,0-0.476,0.065-0.686,0.195s-0.362,0.32-0.457,0.571s-0.142,0.612-0.142,1.084v2.69H197.112z"/>
		<path fill="#010202" d="M205.447,45.584v-1.011h0.879v1.011H205.447z M205.447,51.731v-5.186h0.879v5.186H205.447z"/>
		<path fill="#010202" d="M207.664,51.731v-5.186h0.791v0.737c0.381-0.569,0.931-0.854,1.65-0.854c0.312,0,0.6,0.057,0.862,0.168
			c0.262,0.113,0.458,0.26,0.588,0.442s0.221,0.398,0.273,0.649c0.033,0.163,0.049,0.447,0.049,0.854v3.188h-0.879v-3.154
			c0-0.358-0.034-0.626-0.103-0.803c-0.068-0.178-0.189-0.319-0.364-0.426c-0.174-0.105-0.378-0.158-0.613-0.158
			c-0.375,0-0.697,0.119-0.969,0.356s-0.408,0.688-0.408,1.353v2.832H207.664z"/>
	</g>
</g>
<g>
	<defs>
		<rect id="SVGID_35_" x="-69.794" y="-46.904" width="657" height="343"/>
	</defs>
	<clipPath id="SVGID_36_">
		<use xlink:href="#SVGID_35_"  overflow="visible"/>
	</clipPath>
	<g clip-path="url(#SVGID_36_)">
		<path fill="#010202" d="M184.938,17.79v-7.158h0.947v6.313h3.525v0.845H184.938z"/>
		<path fill="#010202" d="M193.811,17.15c-0.326,0.276-0.639,0.472-0.94,0.586s-0.624,0.171-0.969,0.171
			c-0.57,0-1.007-0.139-1.313-0.418c-0.306-0.277-0.459-0.634-0.459-1.066c0-0.254,0.058-0.486,0.173-0.695
			c0.116-0.211,0.267-0.379,0.454-0.506s0.398-0.223,0.632-0.288c0.172-0.046,0.433-0.09,0.781-0.132
			c0.709-0.085,1.232-0.186,1.567-0.303c0.003-0.12,0.005-0.197,0.005-0.229c0-0.358-0.083-0.61-0.249-0.757
			c-0.225-0.198-0.558-0.298-1.001-0.298c-0.414,0-0.719,0.072-0.916,0.218c-0.197,0.145-0.343,0.4-0.437,0.769l-0.859-0.117
			c0.078-0.368,0.207-0.665,0.386-0.892c0.179-0.226,0.438-0.4,0.776-0.521c0.338-0.123,0.731-0.184,1.177-0.184
			c0.443,0,0.802,0.052,1.079,0.156s0.48,0.235,0.61,0.393c0.13,0.158,0.221,0.357,0.273,0.599c0.029,0.149,0.044,0.42,0.044,0.811
			v1.172c0,0.817,0.019,1.334,0.056,1.55c0.038,0.217,0.111,0.425,0.222,0.623h-0.918C193.895,17.607,193.836,17.395,193.811,17.15z
			 M193.737,15.188c-0.319,0.13-0.797,0.241-1.436,0.332c-0.361,0.052-0.617,0.11-0.767,0.176s-0.265,0.16-0.347,0.286
			c-0.082,0.125-0.122,0.264-0.122,0.417c0,0.234,0.089,0.43,0.266,0.586s0.437,0.234,0.779,0.234c0.338,0,0.64-0.074,0.903-0.222
			c0.264-0.148,0.458-0.352,0.581-0.608c0.094-0.198,0.142-0.491,0.142-0.879V15.188z"/>
		<path fill="#010202" d="M196.799,17.79h-0.815v-7.158h0.879v2.554c0.371-0.466,0.845-0.698,1.421-0.698
			c0.319,0,0.621,0.064,0.906,0.193c0.285,0.128,0.519,0.309,0.703,0.541c0.184,0.233,0.328,0.514,0.432,0.843
			s0.156,0.681,0.156,1.055c0,0.889-0.22,1.575-0.659,2.061s-0.967,0.728-1.582,0.728c-0.612,0-1.092-0.256-1.44-0.767V17.79z
			 M196.789,15.158c0,0.622,0.084,1.071,0.254,1.348c0.277,0.452,0.651,0.679,1.123,0.679c0.384,0,0.716-0.167,0.996-0.5
			c0.28-0.334,0.42-0.831,0.42-1.492c0-0.677-0.134-1.177-0.403-1.499s-0.593-0.483-0.974-0.483c-0.384,0-0.716,0.167-0.996,0.5
			C196.929,14.044,196.789,14.526,196.789,15.158z"/>
		<path fill="#010202" d="M201.223,15.197c0-0.96,0.267-1.672,0.801-2.134c0.446-0.384,0.99-0.576,1.631-0.576
			c0.713,0,1.295,0.233,1.748,0.701c0.453,0.467,0.679,1.112,0.679,1.936c0,0.667-0.1,1.192-0.3,1.574
			c-0.2,0.383-0.492,0.68-0.874,0.892s-0.8,0.317-1.252,0.317c-0.726,0-1.312-0.232-1.76-0.698S201.223,16.073,201.223,15.197z
			 M202.126,15.197c0,0.664,0.145,1.161,0.435,1.491c0.29,0.331,0.654,0.496,1.094,0.496c0.436,0,0.799-0.166,1.089-0.498
			s0.435-0.838,0.435-1.519c0-0.642-0.146-1.127-0.437-1.458c-0.292-0.33-0.653-0.495-1.086-0.495c-0.439,0-0.804,0.164-1.094,0.493
			S202.126,14.533,202.126,15.197z"/>
		<path fill="#010202" d="M210.51,17.79v-0.762c-0.404,0.586-0.952,0.879-1.646,0.879c-0.306,0-0.592-0.059-0.857-0.176
			s-0.462-0.265-0.591-0.441c-0.128-0.178-0.219-0.396-0.271-0.652c-0.036-0.173-0.054-0.446-0.054-0.82v-3.213h0.879v2.876
			c0,0.459,0.018,0.769,0.054,0.928c0.055,0.231,0.172,0.413,0.352,0.544c0.179,0.133,0.4,0.198,0.664,0.198
			s0.511-0.067,0.742-0.202c0.231-0.136,0.395-0.319,0.491-0.553c0.096-0.232,0.144-0.57,0.144-1.013v-2.778h0.879v5.186H210.51z"/>
		<path fill="#010202" d="M212.663,17.79v-5.186h0.791v0.786c0.202-0.368,0.388-0.61,0.559-0.728s0.359-0.176,0.564-0.176
			c0.296,0,0.597,0.095,0.903,0.283l-0.303,0.815c-0.215-0.127-0.43-0.19-0.645-0.19c-0.192,0-0.365,0.058-0.518,0.174
			c-0.153,0.115-0.262,0.275-0.327,0.48c-0.098,0.312-0.146,0.654-0.146,1.025v2.715H212.663z"/>
		<path fill="#010202" d="M219.553,16.12l0.908,0.112c-0.143,0.53-0.409,0.942-0.796,1.235s-0.882,0.439-1.484,0.439
			c-0.758,0-1.36-0.233-1.804-0.701c-0.444-0.467-0.667-1.122-0.667-1.965c0-0.872,0.225-1.55,0.674-2.031s1.032-0.723,1.748-0.723
			c0.693,0,1.26,0.236,1.699,0.708s0.659,1.136,0.659,1.992c0,0.052-0.001,0.13-0.005,0.234h-3.867
			c0.033,0.569,0.194,1.006,0.483,1.309s0.651,0.454,1.084,0.454c0.322,0,0.597-0.085,0.825-0.254S219.419,16.491,219.553,16.12z
			 M216.667,14.699h2.896c-0.039-0.437-0.15-0.764-0.332-0.981c-0.28-0.339-0.643-0.508-1.089-0.508
			c-0.404,0-0.743,0.135-1.018,0.405S216.696,14.247,216.667,14.699z"/>
		<path fill="#010202" d="M221.555,17.79v-5.186h0.791v0.786c0.202-0.368,0.388-0.61,0.559-0.728s0.359-0.176,0.564-0.176
			c0.296,0,0.597,0.095,0.903,0.283l-0.303,0.815c-0.215-0.127-0.43-0.19-0.645-0.19c-0.192,0-0.365,0.058-0.518,0.174
			c-0.153,0.115-0.262,0.275-0.327,0.48c-0.098,0.312-0.146,0.654-0.146,1.025v2.715H221.555z"/>
		<path fill="#010202" d="M224.543,16.242l0.869-0.137c0.049,0.349,0.185,0.615,0.408,0.801s0.535,0.278,0.935,0.278
			c0.404,0,0.703-0.082,0.898-0.246c0.195-0.165,0.293-0.357,0.293-0.579c0-0.198-0.086-0.354-0.259-0.469
			c-0.121-0.078-0.42-0.178-0.898-0.298c-0.645-0.163-1.091-0.304-1.34-0.422c-0.249-0.119-0.438-0.283-0.566-0.494
			c-0.128-0.209-0.193-0.441-0.193-0.695c0-0.231,0.053-0.445,0.159-0.643c0.106-0.196,0.25-0.36,0.432-0.49
			c0.137-0.101,0.323-0.187,0.559-0.256c0.236-0.07,0.489-0.105,0.759-0.105c0.407,0,0.764,0.059,1.072,0.176
			s0.535,0.275,0.681,0.477c0.146,0.199,0.248,0.468,0.303,0.803l-0.859,0.117c-0.039-0.267-0.152-0.476-0.339-0.625
			s-0.452-0.225-0.793-0.225c-0.404,0-0.692,0.066-0.864,0.2s-0.259,0.29-0.259,0.469c0,0.114,0.036,0.217,0.107,0.308
			c0.072,0.095,0.184,0.173,0.337,0.234c0.088,0.032,0.347,0.107,0.776,0.225c0.622,0.166,1.056,0.302,1.301,0.408
			c0.246,0.105,0.438,0.259,0.579,0.461s0.21,0.452,0.21,0.752c0,0.293-0.085,0.568-0.256,0.828c-0.171,0.258-0.417,0.459-0.74,0.6
			c-0.322,0.143-0.687,0.213-1.094,0.213c-0.674,0-1.188-0.14-1.541-0.42S224.641,16.792,224.543,16.242z"/>
	</g>
</g>
<g>
</g>
<g>
</g>
<g>
</g>
<g>
</g>
<g>
</g>
<g>
</g>
</svg>
