<svg enable-background="new 0 0 498.853 249.212" height="249.212" viewBox="0 0 498.853 249.212" width="498.853" xmlns="http://www.w3.org/2000/svg" xmlns:xlink="http://www.w3.org/1999/xlink"><clipPath id="a"><path d="m-13.147-13h523v358h-523z"/></clipPath><clipPath id="b"><path d="m23.853 0h475v210h-475z"/></clipPath><clipPath id="c"><path d="m-10.147-13h522v357h-522z"/></clipPath><clipPath id="d"><path d="m-10.147-13h522v357h-522z"/></clipPath><clipPath id="e"><path d="m-10.147-13h522v357h-522z"/></clipPath><clipPath id="f"><path d="m-10.147-13h522v357h-522z"/></clipPath><clipPath id="g"><path d="m-10.147-13h522v357h-522z"/></clipPath><clipPath id="h"><path d="m-10.147-13h522v357h-522z"/></clipPath><clipPath id="i"><path d="m-10.147-13h522v357h-522z"/></clipPath><clipPath id="j"><path d="m-10.147-13h522v357h-522z"/></clipPath><clipPath id="k"><path d="m-10.147-13h522v357h-522z"/></clipPath><clipPath id="l"><path d="m-10.147-13h522v357h-522z"/></clipPath><clipPath id="m"><path d="m-10.147-13h522v357h-522z"/></clipPath><clipPath id="n"><path d="m-10.147-13h522v357h-522z"/></clipPath><path clip-path="url(#a)" clip-rule="evenodd" d="m-13.147-13h523v358h-523z" fill="#fff" fill-rule="evenodd" opacity="0"/><path clip-path="url(#a)" clip-rule="evenodd" d="m-12.647-12.5h521.5v356.5h-521.5z" fill="#fff" fill-rule="evenodd"/><path clip-path="url(#b)" d="m462.353 32.5h21v176.807h-21zm-53 45h21v131.807h-21zm-53 78h21v53.807h-21zm-53 32h22v21.807h-22zm-52 1h21v20.807h-21zm-53 5h21v15.807h-21zm-53 3h21v12.807h-21zm-52 3h21v9.807h-21zm-53 4h21v5.807h-21z" fill="#3d659d"/><path clip-path="url(#c)" d="m24.516 209.307v-208.807" fill="none" stroke="#dfdfdf" stroke-linejoin="round" stroke-miterlimit="10"/><path clip-path="url(#d)" d="m24.516 209.307h474.337" fill="none" stroke="#dfdfdf" stroke-linejoin="round" stroke-miterlimit="10"/><g clip-path="url(#e)" fill="#404040"><path d="m44.79 190.268v-.76h4.17v.615c-.41.438-.817 1.018-1.22 1.74-.403.725-.714 1.469-.934 2.232-.158.539-.259 1.129-.303 1.771h-.813c.009-.508.108-1.119.299-1.838.19-.717.464-1.41.819-2.076.356-.666.735-1.229 1.136-1.686h-3.154z"/><path d="m49.892 190.971c0-.459.116-.85.347-1.172s.567-.484 1.006-.484c.404 0 .739.145 1.004.434.265.287.397.713.397 1.271 0 .545-.134.965-.402 1.26-.268.293-.598.441-.991.441-.39 0-.714-.145-.973-.436-.259-.288-.388-.728-.388-1.314zm1.376-1.111c-.196 0-.36.086-.49.256s-.195.48-.195.936c0 .412.066.703.198.871.132.17.294.254.488.254.199 0 .364-.086.494-.256s.196-.48.196-.932c0-.416-.066-.707-.198-.877-.133-.168-.297-.252-.493-.252zm.004 6.244 3.524-6.789h.642l-3.511 6.789zm2.786-1.748c0-.463.116-.855.347-1.176s.568-.48 1.011-.48c.404 0 .739.143 1.004.432s.398.713.398 1.273c0 .545-.134.963-.402 1.258-.269.295-.6.441-.996.441-.39 0-.714-.145-.973-.438-.259-.291-.389-.728-.389-1.31zm1.38-1.111c-.199 0-.364.084-.495.254s-.195.482-.195.936c0 .41.066.701.198.871s.294.254.488.254c.202 0 .368-.084.499-.254.13-.17.195-.48.195-.932 0-.416-.066-.709-.198-.877s-.296-.252-.492-.252z"/></g><g clip-path="url(#f)" fill="#404040"><path d="m97.918 190.624h-.791v-5.041c-.19.184-.44.365-.75.545-.309.184-.586.318-.833.41v-.766c.442-.207.829-.459 1.16-.756.331-.295.565-.582.703-.861h.51v6.469z"/><path d="m104.102 189.864v.76h-4.258c-.006-.189.025-.373.092-.549.108-.291.282-.576.521-.857.238-.281.583-.605 1.035-.975.7-.574 1.173-1.029 1.419-1.365s.369-.652.369-.951c0-.312-.112-.578-.336-.793-.225-.215-.517-.324-.877-.324-.381 0-.686.115-.914.344s-.344.545-.347.949l-.813-.084c.056-.605.265-1.068.628-1.387.363-.316.851-.477 1.463-.477.618 0 1.107.172 1.468.514.36.344.541.77.541 1.275 0 .258-.053.512-.158.76-.105.25-.281.512-.525.787-.245.275-.651.654-1.22 1.133-.475.4-.779.67-.914.812-.135.141-.246.285-.334.428z"/><path d="m105.099 185.729c0-.461.116-.852.347-1.174s.567-.484 1.006-.484c.404 0 .739.145 1.004.434s.397.713.397 1.271c0 .545-.134.965-.402 1.26s-.598.441-.991.441c-.39 0-.714-.145-.973-.436-.258-.289-.388-.726-.388-1.312zm1.376-1.113c-.196 0-.36.086-.49.256s-.195.482-.195.936c0 .414.066.705.198.873s.294.252.488.252c.199 0 .364-.084.494-.254s.196-.48.196-.932c0-.416-.066-.709-.198-.877s-.297-.254-.493-.254zm.004 6.246 3.524-6.791h.642l-3.511 6.791zm2.786-1.75c0-.463.116-.854.347-1.176.231-.32.568-.48 1.011-.48.404 0 .739.145 1.004.434.265.287.398.713.398 1.271 0 .545-.134.965-.402 1.26-.269.293-.6.441-.996.441-.39 0-.714-.146-.973-.438-.259-.291-.389-.728-.389-1.312zm1.38-1.112c-.199 0-.364.086-.495.254-.13.172-.195.482-.195.938 0 .41.066.699.198.869s.294.256.488.256c.202 0 .368-.086.499-.256.13-.17.195-.48.195-.932 0-.416-.066-.707-.198-.877-.132-.168-.296-.252-.492-.252z"/></g><g clip-path="url(#g)" fill="#404040"><path d="m150.623 189.079h-.791v-5.041c-.19.182-.44.363-.75.545s-.586.318-.833.408v-.764c.442-.209.829-.461 1.16-.756.331-.297.565-.584.703-.861h.51v6.469z"/><path d="m152.648 187.391.831-.07c.062.404.204.707.429.912.224.203.494.305.811.305.381 0 .703-.143.967-.43s.396-.668.396-1.143c0-.451-.127-.809-.38-1.068-.254-.262-.585-.391-.996-.391-.255 0-.485.057-.69.172-.205.117-.366.268-.483.451l-.743-.096.624-3.311h3.204v.756h-2.571l-.347 1.732c.387-.27.792-.404 1.217-.404.562 0 1.037.195 1.424.584.387.391.58.891.58 1.504 0 .582-.17 1.086-.51 1.512-.413.521-.977.781-1.692.781-.586 0-1.064-.164-1.435-.492-.371-.327-.583-.763-.636-1.304z"/><path d="m157.803 184.182c0-.459.116-.85.347-1.172s.567-.484 1.006-.484c.404 0 .739.145 1.004.434.265.287.397.713.397 1.271 0 .545-.134.965-.402 1.26-.268.293-.598.441-.991.441-.39 0-.714-.145-.973-.436-.258-.288-.388-.728-.388-1.314zm1.376-1.111c-.196 0-.36.086-.49.256s-.195.48-.195.936c0 .412.066.703.198.871.132.17.294.254.488.254.199 0 .364-.086.494-.256s.196-.48.196-.932c0-.416-.066-.707-.198-.877-.133-.168-.297-.252-.493-.252zm.004 6.244 3.524-6.789h.642l-3.511 6.789zm2.786-1.748c0-.463.116-.855.347-1.176s.568-.48 1.011-.48c.404 0 .739.143 1.004.432s.398.713.398 1.273c0 .545-.134.963-.402 1.258-.269.295-.6.441-.996.441-.39 0-.714-.145-.973-.438-.259-.291-.389-.728-.389-1.31zm1.38-1.111c-.199 0-.364.084-.495.254s-.195.482-.195.936c0 .41.066.701.198.871s.294.254.488.254c.202 0 .368-.084.499-.254.13-.17.195-.48.195-.932 0-.416-.066-.709-.198-.877s-.296-.252-.492-.252z"/></g><g clip-path="url(#h)" fill="#404040"><path d="m203.327 186.684h-.791v-5.041c-.19.182-.44.363-.75.545s-.586.318-.833.408v-.764c.442-.209.829-.461 1.16-.756.331-.297.565-.584.703-.861h.51v6.469z"/><path d="m205.471 185.194.76-.07c.064.357.188.617.369.777.182.162.415.242.699.242.243 0 .456-.055.64-.166.183-.111.333-.262.45-.447s.215-.438.294-.754.119-.639.119-.967c0-.035-.001-.088-.004-.158-.158.252-.375.457-.648.613-.274.156-.571.236-.89.236-.533 0-.984-.193-1.354-.58s-.554-.896-.554-1.529c0-.654.192-1.18.578-1.578s.868-.598 1.448-.598c.419 0 .802.113 1.149.338.347.227.61.547.791.965.18.418.27 1.021.27 1.812 0 .824-.089 1.479-.268 1.967s-.445.859-.798 1.113c-.353.256-.767.383-1.241.383-.504 0-.916-.141-1.235-.42s-.51-.671-.575-1.179zm3.239-2.844c0-.453-.121-.814-.363-1.08-.241-.268-.532-.4-.872-.4-.352 0-.658.145-.918.432s-.391.658-.391 1.115c0 .41.124.744.371 1s.553.385.917.385c.366 0 .667-.129.903-.385s.353-.612.353-1.067z"/><path d="m210.507 181.788c0-.459.116-.85.347-1.172s.567-.484 1.006-.484c.404 0 .739.145 1.004.434.265.287.397.713.397 1.271 0 .545-.134.965-.402 1.26-.268.293-.598.441-.991.441-.39 0-.714-.145-.973-.436-.258-.289-.388-.728-.388-1.314zm1.376-1.112c-.196 0-.36.086-.49.256s-.195.48-.195.936c0 .412.066.703.198.871.132.17.294.254.488.254.199 0 .364-.086.494-.256s.196-.48.196-.932c0-.416-.066-.707-.198-.877-.133-.168-.297-.252-.493-.252zm.004 6.244 3.524-6.789h.642l-3.511 6.789zm2.786-1.748c0-.463.116-.855.347-1.176s.568-.48 1.011-.48c.404 0 .739.143 1.004.432s.398.713.398 1.273c0 .545-.134.963-.402 1.258-.269.295-.6.441-.996.441-.39 0-.714-.145-.973-.438-.259-.29-.389-.728-.389-1.31zm1.38-1.111c-.199 0-.364.084-.495.254s-.195.482-.195.936c0 .41.066.701.198.871s.294.254.488.254c.202 0 .368-.084.499-.254.13-.17.195-.48.195-.932 0-.416-.066-.709-.198-.877s-.295-.252-.492-.252z"/></g><g clip-path="url(#i)" fill="#404040"><path d="m257.406 181.833v.76h-4.259c-.006-.189.024-.373.093-.549.107-.291.281-.576.521-.857.238-.281.583-.605 1.034-.975.701-.574 1.174-1.029 1.42-1.365s.369-.652.369-.951c0-.312-.112-.578-.336-.793-.225-.215-.517-.324-.877-.324-.381 0-.686.115-.914.344s-.344.545-.348.949l-.812-.084c.056-.605.266-1.068.629-1.387.363-.316.851-.477 1.463-.477.618 0 1.107.172 1.468.514.36.344.54.77.54 1.275 0 .258-.053.512-.158.76-.105.25-.28.512-.524.787-.245.275-.651.654-1.22 1.133-.475.4-.779.67-.914.812-.135.141-.246.285-.334.428z"/><path d="m258.253 180.905.83-.07c.062.404.205.709.43.912.223.203.494.305.811.305.381 0 .703-.143.967-.43s.395-.668.395-1.143c0-.451-.127-.807-.379-1.068-.254-.26-.586-.391-.996-.391-.255 0-.484.059-.689.174s-.367.266-.484.449l-.742-.096.624-3.309h3.204v.756h-2.571l-.347 1.73c.387-.27.792-.404 1.217-.404.562 0 1.037.195 1.424.584.387.391.58.893.58 1.504 0 .584-.17 1.088-.51 1.512-.413.521-.977.781-1.691.781-.586 0-1.064-.162-1.436-.492-.373-.326-.584-.761-.637-1.304z"/><path d="m263.408 177.698c0-.461.116-.852.348-1.174s.566-.484 1.006-.484c.404 0 .739.145 1.005.434.265.289.397.713.397 1.271 0 .545-.134.965-.402 1.26s-.598.441-.99.441c-.391 0-.715-.145-.974-.436-.26-.289-.39-.726-.39-1.312zm1.376-1.114c-.196 0-.36.086-.49.256s-.195.482-.195.936c0 .414.065.705.198.873.131.168.294.252.487.252.199 0 .364-.084.494-.254s.196-.48.196-.932c0-.416-.066-.709-.198-.877s-.296-.254-.492-.254zm.005 6.247 3.523-6.791h.643l-3.512 6.791zm2.785-1.75c0-.463.116-.854.348-1.176.231-.32.568-.48 1.011-.48.404 0 .739.145 1.004.434.265.287.397.713.397 1.271 0 .545-.134.965-.401 1.26-.269.293-.601.441-.995.441-.391 0-.715-.146-.974-.438-.26-.291-.39-.728-.39-1.312zm1.381-1.112c-.199 0-.365.086-.495.254-.13.172-.195.482-.195.938 0 .41.065.699.198.869.131.17.294.256.487.256.202 0 .368-.086.499-.256.13-.17.195-.48.195-.932 0-.416-.066-.707-.197-.877-.133-.168-.297-.252-.492-.252z"/></g><g clip-path="url(#j)" fill="#404040"><path d="m310.11 178.983v.76h-4.259c-.006-.189.025-.373.093-.549.108-.291.282-.576.521-.857s.584-.605 1.035-.975c.7-.574 1.174-1.029 1.42-1.365s.369-.652.369-.951c0-.312-.113-.578-.336-.793-.225-.215-.518-.324-.877-.324-.381 0-.686.115-.914.344s-.345.545-.348.949l-.812-.084c.055-.605.265-1.068.628-1.387.363-.316.851-.477 1.464-.477.617 0 1.107.172 1.467.514.361.344.541.77.541 1.275 0 .258-.053.512-.158.76-.105.25-.281.512-.525.787s-.65.654-1.219 1.133c-.475.4-.779.67-.914.812-.135.141-.246.285-.334.428z"/><path d="m315.062 174.877-.786.062c-.07-.311-.17-.537-.299-.678-.214-.225-.478-.338-.791-.338-.252 0-.474.07-.663.211-.25.182-.445.447-.59.795-.143.35-.218.846-.224 1.49.19-.289.423-.506.698-.646s.564-.211.866-.211c.527 0 .976.195 1.347.584.371.387.557.889.557 1.504 0 .404-.088.781-.262 1.127-.175.348-.414.613-.719.799-.305.184-.65.275-1.037.275-.659 0-1.197-.242-1.613-.727s-.623-1.283-.623-2.396c0-1.246.229-2.15.689-2.717.401-.492.941-.738 1.621-.738.508 0 .922.143 1.246.426.325.286.519.678.583 1.178zm-3.229 2.778c0 .273.058.535.174.783.115.25.277.439.485.568.208.131.426.195.654.195.334 0 .621-.133.861-.404.24-.268.361-.635.361-1.098 0-.445-.119-.797-.356-1.053s-.536-.385-.896-.385c-.357 0-.661.129-.909.385-.25.257-.374.595-.374 1.009z"/><path d="m316.113 174.848c0-.461.115-.852.348-1.174.23-.322.566-.484 1.006-.484.404 0 .738.145 1.004.434s.398.713.398 1.271c0 .545-.135.965-.402 1.26s-.599.441-.991.441c-.39 0-.714-.145-.974-.436-.26-.288-.389-.726-.389-1.312zm1.375-1.113c-.195 0-.359.086-.49.256-.13.17-.195.482-.195.936 0 .414.066.705.198.873s.294.252.487.252c.199 0 .364-.084.494-.254.131-.17.196-.48.196-.932 0-.416-.065-.709-.198-.877-.131-.168-.295-.254-.492-.254zm.005 6.246 3.524-6.791h.642l-3.511 6.791zm2.786-1.75c0-.463.115-.854.348-1.176.23-.32.568-.48 1.01-.48.404 0 .739.145 1.004.434.266.287.398.713.398 1.271 0 .545-.135.965-.402 1.26-.268.293-.6.441-.995.441-.39 0-.714-.146-.974-.438s-.389-.728-.389-1.312zm1.38-1.111c-.199 0-.364.086-.495.254-.13.172-.195.482-.195.938 0 .41.066.699.198.869s.294.256.487.256c.203 0 .369-.086.5-.256.129-.17.195-.48.195-.932 0-.416-.066-.707-.198-.877-.132-.168-.296-.252-.492-.252z"/></g><g clip-path="url(#k)" fill="#404040"><path d="m362.761 139.782-.787.062c-.07-.311-.17-.537-.299-.678-.213-.225-.477-.338-.791-.338-.252 0-.473.07-.663.211-.249.182-.445.447-.589.795-.144.35-.219.846-.225 1.49.191-.29.424-.506.699-.646s.564-.211.865-.211c.527 0 .977.194 1.348.583.37.388.556.89.556 1.505 0 .404-.087.78-.261 1.127-.176.348-.414.613-.719.798s-.65.276-1.037.276c-.66 0-1.197-.242-1.613-.727s-.624-1.284-.624-2.397c0-1.245.229-2.15.69-2.716.4-.492.941-.738 1.621-.738.507 0 .922.143 1.246.426.324.285.519.678.583 1.178zm-3.23 2.777c0 .273.059.534.174.783s.277.438.486.568c.207.131.426.195.654.195.334 0 .621-.134.861-.404.24-.269.36-.635.36-1.098 0-.445-.118-.797-.356-1.053-.236-.257-.535-.385-.896-.385-.357 0-.66.128-.909.385s-.374.594-.374 1.009z"/><path d="m363.662 142.959.831-.07c.062.404.204.708.429.912.224.203.494.305.811.305.381 0 .703-.143.967-.43s.396-.668.396-1.143c0-.451-.127-.808-.38-1.068-.254-.261-.586-.391-.996-.391-.254 0-.484.058-.689.173-.205.116-.366.267-.483.45l-.743-.096.625-3.31h3.203v.756h-2.57l-.348 1.731c.387-.27.793-.404 1.217-.404.562 0 1.037.195 1.424.584.387.391.58.892.58 1.504 0 .583-.17 1.087-.51 1.512-.412.521-.977.781-1.691.781-.586 0-1.064-.163-1.435-.492-.374-.326-.586-.762-.638-1.304z"/><path d="m368.817 139.751c0-.46.116-.851.347-1.173.232-.322.567-.484 1.007-.484.404 0 .739.145 1.005.434.264.288.396.713.396 1.271 0 .545-.133.965-.402 1.26-.268.294-.598.441-.99.441-.39 0-.715-.145-.973-.436-.26-.288-.39-.727-.39-1.313zm1.376-1.112c-.197 0-.36.086-.49.256-.131.17-.195.481-.195.936 0 .413.065.704.197.872.132.169.295.253.488.253.199 0 .363-.085.494-.255.13-.17.195-.48.195-.932 0-.416-.066-.708-.197-.877-.133-.168-.297-.253-.492-.253zm.004 6.245 3.524-6.79h.642l-3.512 6.79zm2.786-1.749c0-.463.116-.854.347-1.176.232-.32.568-.48 1.012-.48.404 0 .738.144 1.004.433.265.288.397.713.397 1.272 0 .545-.134.964-.401 1.259-.27.294-.601.441-.996.441-.39 0-.715-.146-.973-.438-.26-.29-.39-.728-.39-1.311zm1.38-1.111c-.199 0-.364.085-.494.254-.131.171-.195.482-.195.937 0 .41.065.7.197.87s.295.255.488.255c.201 0 .367-.085.498-.255s.195-.48.195-.932c0-.416-.065-.708-.197-.877-.132-.168-.296-.252-.492-.252z"/></g><g clip-path="url(#l)" fill="#404040"><path d="m411.64 68.725h-.791v-5.041c-.189.183-.439.364-.749.545-.31.183-.587.318-.833.409v-.765c.443-.208.83-.46 1.16-.756.332-.296.566-.583.703-.861h.51z"/><path d="m413.667 67.038.831-.07c.061.404.203.708.428.912.225.203.494.305.811.305.381 0 .703-.143.967-.43s.396-.668.396-1.143c0-.451-.127-.808-.381-1.068s-.585-.391-.995-.391c-.255 0-.485.058-.69.173-.205.116-.365.267-.482.45l-.743-.096.624-3.31h3.203v.756h-2.57l-.348 1.731c.387-.27.793-.404 1.218-.404.562 0 1.037.195 1.424.584.387.391.58.892.58 1.504 0 .583-.17 1.087-.51 1.512-.413.521-.978.781-1.692.781-.586 0-1.064-.163-1.434-.492-.373-.327-.585-.762-.637-1.304z"/><path d="m419.889 65.231c-.328-.119-.571-.291-.729-.514s-.237-.489-.237-.8c0-.469.169-.862.505-1.183.338-.318.785-.479 1.346-.479.562 0 1.015.163 1.357.49.343.326.514.725.514 1.193 0 .299-.078.559-.234.779-.157.222-.395.393-.715.512.396.13.697.338.903.625.207.287.31.63.31 1.027 0 .552-.194 1.015-.584 1.389-.39.376-.902.562-1.538.562s-1.148-.188-1.538-.564-.584-.846-.584-1.408c0-.419.105-.77.318-1.053.211-.28.514-.473.906-.576zm-.413 1.635c0 .227.053.444.16.655s.266.374.477.49c.211.115.438.173.682.173.378 0 .689-.121.936-.364s.369-.552.369-.927c0-.381-.127-.696-.38-.945s-.57-.373-.951-.373c-.372 0-.681.123-.925.369-.246.246-.368.553-.368.922zm.255-2.975c0 .305.099.554.294.747.197.193.451.29.766.29.305 0 .554-.096.749-.288.194-.191.292-.427.292-.705 0-.29-.101-.534-.301-.731-.201-.198-.451-.297-.75-.297-.301 0-.552.097-.751.29s-.299.425-.299.694z"/><path d="m423.827 63.83c0-.46.116-.851.347-1.173.232-.322.567-.484 1.007-.484.404 0 .739.145 1.005.434.264.288.396.713.396 1.271 0 .545-.133.965-.402 1.26-.268.294-.598.441-.99.441-.39 0-.715-.145-.973-.436-.26-.289-.39-.727-.39-1.313zm1.376-1.113c-.197 0-.36.086-.49.256-.131.17-.195.481-.195.936 0 .413.065.704.197.872.132.169.295.253.488.253.199 0 .363-.085.494-.255.13-.17.195-.48.195-.932 0-.416-.066-.708-.197-.877-.133-.168-.297-.253-.492-.253zm.004 6.245 3.524-6.79h.642l-3.512 6.79zm2.786-1.749c0-.463.116-.854.347-1.176.232-.32.568-.48 1.012-.48.404 0 .738.144 1.004.433.265.288.397.713.397 1.272 0 .545-.134.964-.401 1.259-.27.294-.601.441-.996.441-.39 0-.715-.146-.973-.438-.26-.29-.39-.728-.39-1.311zm1.38-1.111c-.199 0-.364.085-.494.254-.131.171-.195.482-.195.937 0 .41.065.7.197.87s.295.255.488.255c.201 0 .367-.085.498-.255s.195-.48.195-.932c0-.416-.065-.708-.197-.877-.132-.168-.296-.252-.492-.252z"/></g><g clip-path="url(#m)" fill="#404040"><path d="m465.523 22.139v.76h-4.259c-.006-.19.024-.373.093-.549.107-.291.281-.576.521-.857.238-.281.583-.606 1.034-.976.701-.574 1.174-1.029 1.42-1.364.246-.336.369-.652.369-.951 0-.313-.112-.578-.336-.794-.225-.215-.517-.323-.877-.323-.381 0-.686.115-.914.344s-.344.545-.348.949l-.812-.084c.056-.606.266-1.068.629-1.387.363-.317.851-.477 1.463-.477.618 0 1.107.172 1.468.514.36.344.54.769.54 1.275 0 .258-.053.511-.158.76s-.28.512-.524.787c-.245.275-.651.653-1.22 1.133-.475.399-.779.669-.914.812-.135.142-.246.285-.334.429h3.159z"/><path d="m469.35 22.899h-.791v-5.041c-.19.183-.44.364-.749.545-.31.183-.587.318-.833.409v-.765c.442-.208.829-.46 1.16-.756s.565-.583.703-.861h.51z"/><path d="m475.533 22.139v.76h-4.258c-.006-.19.025-.373.092-.549.109-.291.282-.576.521-.857.238-.281.584-.606 1.035-.976.699-.574 1.173-1.029 1.419-1.364.246-.336.369-.652.369-.951 0-.313-.112-.578-.336-.794-.225-.215-.517-.323-.877-.323-.381 0-.686.115-.914.344s-.345.545-.347.949l-.813-.084c.056-.606.265-1.068.628-1.387.363-.317.852-.477 1.464-.477.618 0 1.107.172 1.468.514.36.344.541.769.541 1.275 0 .258-.053.511-.158.76s-.281.512-.525.787c-.245.275-.651.653-1.22 1.133-.475.399-.779.669-.914.812-.135.142-.246.285-.334.429h3.159z"/><path d="m476.531 18.003c0-.46.115-.851.348-1.173.23-.322.566-.484 1.006-.484.404 0 .738.145 1.004.434.266.288.398.713.398 1.271 0 .545-.135.965-.402 1.26-.268.294-.599.441-.991.441-.39 0-.714-.145-.974-.436-.26-.288-.389-.727-.389-1.313zm1.375-1.112c-.195 0-.359.086-.49.256-.13.17-.195.481-.195.936 0 .413.066.704.198.872.132.169.294.253.487.253.199 0 .364-.085.494-.255.131-.17.196-.48.196-.932 0-.416-.065-.708-.198-.877-.131-.168-.295-.253-.492-.253zm.005 6.245 3.524-6.79h.642l-3.511 6.79zm2.786-1.749c0-.463.115-.854.348-1.176.23-.32.568-.48 1.01-.48.404 0 .739.144 1.004.433.266.288.398.713.398 1.272 0 .545-.135.964-.402 1.259-.268.294-.6.441-.995.441-.39 0-.714-.146-.974-.438-.26-.29-.389-.728-.389-1.311zm1.38-1.111c-.199 0-.364.085-.495.254-.13.171-.195.482-.195.937 0 .41.066.7.198.87s.294.255.487.255c.203 0 .369-.085.5-.255.129-.17.195-.48.195-.932 0-.416-.066-.708-.198-.877-.132-.168-.296-.252-.492-.252z"/></g><g clip-path="url(#n)" fill="#59595a"><path d="m7.25 140.891h-.756l-.004-2.729h2.39c.334.419.585.851.754 1.296.168.445.252.902.252 1.371 0 .633-.135 1.208-.406 1.725-.271.518-.662.908-1.176 1.171-.512.264-1.085.396-1.718.396-.627 0-1.212-.131-1.756-.393-.543-.262-.946-.64-1.21-1.132s-.396-1.059-.396-1.701c0-.466.076-.887.227-1.263s.361-.672.631-.886.621-.376 1.055-.488l.211.769c-.328.097-.586.217-.773.36s-.338.349-.45.615c-.113.267-.169.562-.169.888 0 .39.059.727.178 1.011.118.284.274.514.468.688.193.175.406.31.638.407.398.164.83.246 1.296.246.574 0 1.055-.099 1.441-.296.387-.198.674-.486.861-.864s.281-.779.281-1.204c0-.369-.071-.729-.213-1.081-.143-.352-.294-.618-.455-.8h-1.2v1.894z"/><path d="m9.777 137.015h-4.667v-.712h.708c-.331-.182-.55-.349-.655-.503-.105-.153-.158-.323-.158-.507 0-.267.085-.538.255-.813l.734.272c-.115.193-.172.387-.172.58 0 .173.052.328.156.466s.248.236.433.294c.281.088.589.132.923.132h2.443z"/><path d="m7.443 134.304c-.863 0-1.504-.24-1.92-.721-.346-.401-.519-.891-.519-1.468 0-.642.21-1.166.631-1.573.42-.407 1.001-.611 1.742-.611.601 0 1.073.09 1.417.27.345.181.612.443.803.787.189.344.285.72.285 1.127 0 .653-.209 1.182-.629 1.584-.418.404-1.021.605-1.81.605zm0-.813c.598 0 1.046-.13 1.343-.391.298-.261.446-.589.446-.984 0-.393-.149-.719-.448-.98s-.754-.391-1.366-.391c-.577 0-1.015.131-1.312.394-.297.262-.445.588-.445.978 0 .396.147.724.443.984s.741.39 1.339.39z"/><path d="m9.777 128.143-4.667 1.428v-.817l2.694-.743 1.002-.277c-.05-.012-.371-.092-.963-.242l-2.733-.742v-.813l2.707-.699.892-.233-.9-.268-2.698-.8v-.769l4.667 1.459v.822l-2.795.743-.795.18 3.59.945v.826z"/><path d="m9.07 120.777.698-.114c.047.223.07.422.07.598 0 .287-.046.51-.136.668-.091.158-.211.27-.358.334-.148.064-.46.097-.935.097h-2.684v.58h-.615v-.58h-1.155l-.475-.787h1.63v-.795h.615v.795h2.729c.226 0 .37-.014.435-.042s.116-.073.153-.137c.039-.062.058-.153.058-.27 0-.087-.01-.203-.03-.347z"/><path d="m9.777 120.004h-6.443v-.791h2.312c-.428-.369-.642-.835-.642-1.397 0-.346.068-.646.204-.901.137-.255.325-.438.564-.547.241-.11.59-.165 1.047-.165h2.957v.791h-2.956c-.396 0-.684.086-.864.257-.18.172-.271.414-.271.728 0 .234.062.455.183.661.122.207.287.354.495.442s.495.132.861.132h2.553z"/><path d="m9.777 112.384h-6.443v-2.856c0-.574.058-1.011.174-1.31.115-.299.32-.538.612-.716.294-.179.617-.268.972-.268.457 0 .843.148 1.155.444.314.296.514.753.598 1.371.109-.226.216-.397.321-.514.229-.249.515-.485.856-.708l1.754-1.121v1.072l-1.34.853c-.387.249-.683.454-.889.615-.204.161-.348.305-.43.433-.082.127-.14.257-.172.389-.021.097-.031.255-.031.475v.989h2.861v.852zm-3.6-.853v-1.833c0-.39-.04-.694-.12-.914-.081-.22-.21-.387-.387-.501-.178-.114-.37-.171-.578-.171-.305 0-.555.111-.751.332-.196.222-.295.571-.295 1.048v2.039z"/><path d="m9.201 102.953c.25.293.426.575.527.846.103.271.154.562.154.873 0 .513-.125.907-.376 1.182-.25.275-.57.413-.96.413-.229 0-.438-.052-.626-.156-.189-.104-.341-.24-.455-.408s-.2-.358-.259-.569c-.041-.155-.081-.39-.119-.703-.076-.639-.167-1.109-.272-1.411-.108-.003-.177-.004-.206-.004-.322 0-.55.075-.682.224-.179.202-.268.502-.268.901 0 .372.064.647.195.824.13.177.361.308.691.393l-.105.773c-.33-.07-.598-.186-.802-.347-.203-.161-.36-.394-.47-.699s-.165-.658-.165-1.059c0-.398.047-.722.141-.971s.212-.432.354-.549c.143-.117.322-.199.538-.246.136-.026.379-.04.73-.04h1.055c.735 0 1.2-.017 1.395-.05.195-.034.382-.101.561-.2v.826c-.164.081-.356.134-.576.157zm-1.766.066c.117.287.217.718.299 1.292.047.325.1.555.158.69s.144.239.257.312c.112.073.238.11.376.11.211 0 .387-.08.527-.239s.211-.394.211-.701c0-.305-.067-.576-.2-.813-.134-.237-.315-.412-.548-.523-.178-.085-.441-.127-.791-.127h-.289z"/><path d="m9.07 99.266.698-.114c.047.223.07.422.07.598 0 .287-.046.51-.136.668-.091.158-.211.27-.358.334-.148.064-.46.097-.935.097h-2.684v.58h-.615v-.58h-1.155l-.475-.787h1.63v-.795h.615v.795h2.729c.226 0 .37-.014.435-.042s.116-.073.153-.137c.04-.062.058-.153.058-.27 0-.088-.01-.203-.03-.347z"/><path d="m8.274 95.298.101-.817c.479.129.849.368 1.112.716s.396.794.396 1.336c0 .683-.21 1.224-.631 1.624-.42.4-1.01.6-1.769.6-.785 0-1.395-.202-1.828-.606s-.65-.929-.65-1.573c0-.624.213-1.134.638-1.529s1.022-.593 1.793-.593c.047 0 .117.001.211.004v3.48c.513-.029.904-.174 1.178-.435.271-.261.408-.586.408-.976 0-.29-.076-.538-.229-.743s-.396-.368-.73-.488zm-1.278 2.597v-2.606c-.393.035-.688.135-.884.299-.305.252-.457.579-.457.98 0 .363.122.669.364.917.244.247.569.384.977.41z"/><path d="m9.017 87.049h.76v4.258c-.19.006-.373-.025-.549-.092-.291-.108-.576-.282-.857-.521-.281-.238-.606-.583-.976-1.035-.574-.7-1.029-1.173-1.364-1.419-.336-.246-.652-.369-.951-.369-.313 0-.578.112-.794.336-.215.225-.323.517-.323.877 0 .381.115.686.344.914s.545.344.949.347l-.084.813c-.606-.056-1.068-.265-1.387-.628-.317-.363-.477-.851-.477-1.463 0-.618.172-1.107.514-1.468.344-.36.769-.541 1.275-.541.258 0 .511.053.76.158s.512.281.787.525c.275.245.653.651 1.133 1.22.399.475.669.779.812.914.142.135.285.246.429.334v-3.16z"/><path d="m6.599 86.201c-.761 0-1.374-.078-1.839-.235-.464-.157-.822-.39-1.074-.699s-.378-.698-.378-1.167c0-.346.069-.649.209-.91.139-.261.34-.476.602-.646.263-.17.582-.303.958-.4.377-.096.884-.144 1.522-.144.756 0 1.366.078 1.831.233.464.155.823.388 1.076.696.254.31.38.7.38 1.171 0 .621-.222 1.109-.668 1.463-.535.426-1.408.638-2.619.638zm0-.813c1.059 0 1.762-.124 2.112-.371.35-.248.524-.553.524-.917s-.176-.668-.527-.917c-.352-.247-1.055-.371-2.109-.371-1.06 0-1.765.124-2.113.371-.349.248-.523.556-.523.925 0 .363.154.653.462.87.392.274 1.117.41 2.174.41z"/><path d="m9.777 78.216v.791h-5.041c.183.19.364.44.545.75.183.309.318.586.409.833h-.765c-.208-.442-.46-.829-.756-1.16s-.583-.565-.861-.703v-.51h6.469z"/><path d="m9.017 72.033h.76v4.258c-.19.006-.373-.025-.549-.092-.291-.108-.576-.282-.857-.521-.281-.238-.606-.583-.976-1.035-.574-.7-1.029-1.173-1.364-1.419-.336-.246-.652-.369-.951-.369-.313 0-.578.112-.794.336-.215.225-.323.517-.323.877 0 .381.115.686.344.914s.545.344.949.347l-.084.813c-.606-.056-1.068-.265-1.387-.628-.317-.363-.477-.851-.477-1.463 0-.618.172-1.107.514-1.468.344-.36.769-.541 1.275-.541.258 0 .511.053.76.158s.512.281.787.525c.275.245.653.651 1.133 1.22.399.475.669.779.812.914.142.135.285.246.429.334v-3.16z"/><path d="m7.843 71.273h-.795v-2.43h.795z"/><path d="m9.017 64.031h.76v4.258c-.19.006-.373-.025-.549-.092-.291-.108-.576-.282-.857-.521-.281-.238-.606-.583-.976-1.035-.574-.7-1.029-1.173-1.364-1.419-.336-.246-.652-.369-.951-.369-.313 0-.578.112-.794.336-.215.225-.323.517-.323.877 0 .381.115.686.344.914s.545.344.949.347l-.085.813c-.606-.056-1.068-.265-1.387-.628-.317-.363-.477-.851-.477-1.463 0-.618.172-1.107.514-1.468.344-.36.769-.541 1.275-.541.258 0 .511.053.76.158s.512.281.787.525c.275.245.653.651 1.133 1.22.399.475.669.779.812.914.142.135.285.246.429.334z"/><path d="m6.599 63.183c-.761 0-1.374-.078-1.839-.235-.464-.157-.822-.39-1.074-.699s-.378-.698-.378-1.167c0-.346.069-.649.209-.91.139-.261.34-.476.602-.646.263-.17.582-.303.958-.4.377-.097.885-.145 1.522-.145.756 0 1.366.078 1.831.233.464.155.823.388 1.076.696.254.31.38.7.38 1.171 0 .621-.222 1.109-.668 1.463-.535.426-1.408.639-2.619.639zm0-.813c1.059 0 1.762-.124 2.112-.371.35-.248.524-.553.524-.917s-.176-.668-.527-.917c-.352-.247-1.055-.371-2.109-.371-1.06 0-1.765.124-2.113.371-.349.248-.523.556-.523.925 0 .363.154.653.462.87.392.273 1.117.41 2.174.41z"/><path d="m9.777 55.198v.791h-5.041c.183.19.364.44.545.75.183.309.318.586.409.833h-.765c-.208-.442-.46-.829-.756-1.16s-.583-.565-.861-.703v-.51h6.469z"/><path d="m8.089 53.172-.07-.831c.404-.062.708-.204.912-.429.203-.224.305-.494.305-.811 0-.381-.143-.703-.43-.967s-.668-.394-1.142-.394c-.451 0-.808.127-1.068.38-.261.254-.391.585-.391.996 0 .255.058.485.173.69.116.205.267.366.45.483l-.096.743-3.31-.624v-3.204h.756v2.571l1.731.347c-.27-.387-.404-.792-.404-1.217 0-.562.195-1.037.584-1.424.391-.387.892-.58 1.504-.58.583 0 1.087.17 1.512.51.521.413.781.977.781 1.692 0 .586-.163 1.064-.492 1.435-.327.37-.763.581-1.305.634z"/></g><path d="m25.677 217.962h51.471v62.5h-51.471z" fill="none"/><path d="m34.142 224.407v-6.442h4.346v.761h-3.494v1.994h3.023v.761h-3.023v2.927h-.852z" fill="#1d1d1b"/><path d="m39.499 218.874v-.909h.791v.909zm0 5.533v-4.667h.791v4.667z" fill="#1d1d1b"/><path d="m41.494 224.407v-4.667h.712v.663c.343-.512.838-.769 1.485-.769.281 0 .54.051.776.151.235.102.412.234.529.398s.199.358.246.584c.029.146.044.403.044.77v2.869h-.791v-2.839c0-.322-.031-.563-.092-.723-.062-.16-.171-.287-.328-.383-.157-.095-.34-.143-.551-.143-.337 0-.628.107-.873.321s-.367.619-.367 1.217v2.549h-.79z" fill="#1d1d1b"/><path d="m49.544 223.831c-.293.25-.575.426-.846.527-.271.103-.562.154-.873.154-.513 0-.907-.125-1.182-.376-.275-.25-.413-.57-.413-.96 0-.229.052-.438.156-.626.104-.189.24-.341.408-.455s.358-.2.569-.259c.155-.041.39-.081.703-.119.639-.076 1.109-.167 1.411-.272.003-.108.004-.177.004-.206 0-.322-.075-.55-.224-.682-.202-.179-.502-.268-.901-.268-.372 0-.647.064-.824.195-.177.13-.308.361-.393.691l-.773-.105c.07-.33.186-.598.347-.802.161-.203.394-.36.699-.47s.658-.165 1.059-.165c.398 0 .722.047.971.141s.432.212.549.354c.117.143.199.322.246.538.026.136.04.379.04.73v1.055c0 .735.017 1.2.05 1.395.034.195.101.382.2.561h-.826c-.08-.164-.133-.356-.157-.576zm-.065-1.766c-.287.117-.718.217-1.292.299-.325.047-.555.1-.69.158s-.239.144-.312.257c-.073.112-.11.238-.11.376 0 .211.08.387.239.527s.394.211.701.211c.305 0 .576-.067.813-.2.237-.134.412-.315.523-.548.085-.178.127-.441.127-.791v-.289z" fill="#1d1d1b"/><path d="m51.504 224.407v-4.667h.712v.663c.343-.512.838-.769 1.485-.769.281 0 .54.051.776.151.235.102.412.234.529.398s.199.358.246.584c.029.146.044.403.044.77v2.869h-.791v-2.839c0-.322-.031-.563-.092-.723-.062-.16-.171-.287-.328-.383-.157-.095-.34-.143-.551-.143-.337 0-.628.107-.873.321s-.367.619-.367 1.217v2.549h-.79z" fill="#1d1d1b"/><path d="m59.555 222.698.778.101c-.085.536-.303.956-.653 1.259-.35.304-.78.455-1.29.455-.639 0-1.152-.209-1.541-.626-.388-.418-.582-1.016-.582-1.796 0-.503.083-.944.25-1.322s.421-.661.762-.851c.341-.188.713-.283 1.114-.283.507 0 .921.128 1.244.385.322.256.529.62.62 1.092l-.769.118c-.073-.312-.203-.549-.389-.707s-.411-.237-.674-.237c-.398 0-.722.143-.971.429-.249.285-.374.737-.374 1.355 0 .627.12 1.083.36 1.367s.554.426.94.426c.311 0 .57-.095.778-.285s.342-.486.397-.88z" fill="#1d1d1b"/><path d="m61.014 218.874v-.909h.791v.909zm0 5.533v-4.667h.791v4.667z" fill="#1d1d1b"/><path d="m66.055 223.831c-.293.25-.575.426-.846.527-.271.103-.562.154-.873.154-.513 0-.907-.125-1.182-.376-.275-.25-.413-.57-.413-.96 0-.229.052-.438.156-.626.104-.189.24-.341.408-.455s.358-.2.569-.259c.155-.041.39-.081.703-.119.639-.076 1.109-.167 1.411-.272.003-.108.004-.177.004-.206 0-.322-.075-.55-.224-.682-.202-.179-.502-.268-.901-.268-.372 0-.647.064-.824.195-.177.13-.308.361-.393.691l-.773-.105c.07-.33.186-.598.347-.802.161-.203.394-.36.699-.47s.658-.165 1.059-.165c.398 0 .722.047.971.141s.432.212.549.354c.117.143.199.322.246.538.026.136.04.379.04.73v1.055c0 .735.017 1.2.05 1.395.034.195.101.382.2.561h-.826c-.081-.164-.134-.356-.157-.576zm-.066-1.766c-.287.117-.718.217-1.292.299-.325.047-.555.1-.69.158s-.239.144-.312.257c-.073.112-.11.238-.11.376 0 .211.08.387.239.527s.394.211.701.211c.305 0 .576-.067.813-.2.237-.134.412-.315.523-.548.085-.178.127-.441.127-.791v-.289z" fill="#1d1d1b"/><path d="m67.997 224.407v-6.442h.791v6.442z" fill="#1d1d1b"/><path d="m37.734 235.207v-6.442h.791v6.442z" fill="#1d1d1b"/><path d="m39.756 229.673v-.909h.791v.909zm0 5.534v-4.667h.791v4.667z" fill="#1d1d1b"/><path d="m43.478 234.5.114.698c-.223.047-.422.07-.598.07-.287 0-.51-.046-.668-.136-.158-.091-.27-.211-.334-.358-.064-.148-.097-.46-.097-.935v-2.685h-.58v-.615h.58v-1.155l.787-.475v1.63h.795v.615h-.795v2.729c0 .226.014.37.042.435s.073.116.137.153c.062.039.153.058.27.058.088.001.203-.009.347-.029z" fill="#1d1d1b"/><path d="m47.446 233.704.817.101c-.129.479-.368.849-.716 1.112s-.794.396-1.336.396c-.683 0-1.224-.21-1.624-.631-.4-.42-.6-1.01-.6-1.769 0-.785.202-1.395.606-1.828s.929-.65 1.573-.65c.624 0 1.134.213 1.529.638s.593 1.022.593 1.793c0 .047-.001.117-.004.211h-3.48c.029.513.174.904.435 1.178.261.271.586.408.976.408.29 0 .538-.076.743-.229s.368-.396.488-.73zm-2.597-1.279h2.606c-.035-.393-.135-.688-.299-.884-.252-.305-.579-.457-.98-.457-.363 0-.669.122-.917.364-.247.245-.384.57-.41.977z" fill="#1d1d1b"/><path d="m49.248 235.207v-4.667h.712v.708c.182-.331.349-.55.503-.655.153-.105.323-.158.507-.158.267 0 .538.085.813.255l-.272.734c-.193-.115-.387-.172-.58-.172-.173 0-.328.052-.466.156s-.236.248-.294.433c-.088.281-.132.589-.132.923v2.443z" fill="#1d1d1b"/><path d="m55.299 234.63c-.293.25-.575.426-.846.527-.271.103-.562.154-.873.154-.513 0-.907-.125-1.182-.376-.275-.25-.413-.57-.413-.96 0-.229.052-.438.156-.626.104-.189.24-.341.408-.455s.358-.2.569-.259c.155-.041.39-.081.703-.119.639-.076 1.109-.167 1.411-.272.003-.108.004-.177.004-.206 0-.322-.075-.55-.224-.682-.202-.179-.502-.268-.901-.268-.372 0-.647.064-.824.195-.177.13-.308.361-.393.691l-.773-.105c.07-.33.186-.598.347-.802.161-.203.394-.36.699-.47s.658-.165 1.059-.165c.398 0 .722.047.971.141s.432.212.549.354c.117.143.199.322.246.538.026.136.04.379.04.73v1.055c0 .735.017 1.2.05 1.395.034.195.101.382.2.561h-.826c-.081-.164-.133-.355-.157-.576zm-.066-1.765c-.287.117-.718.217-1.292.299-.325.047-.555.1-.69.158s-.239.144-.312.257c-.073.112-.11.238-.11.376 0 .211.08.387.239.527s.394.211.701.211c.305 0 .576-.067.813-.2.237-.134.412-.315.523-.548.085-.178.127-.441.127-.791v-.289z" fill="#1d1d1b"/><path d="m60.305 233.498.778.101c-.085.536-.303.956-.653 1.259-.35.304-.78.455-1.29.455-.639 0-1.152-.209-1.541-.626-.388-.418-.582-1.016-.582-1.796 0-.503.083-.944.25-1.322s.421-.661.762-.851c.341-.188.713-.283 1.114-.283.507 0 .921.128 1.244.385.322.256.529.62.62 1.092l-.769.118c-.073-.312-.203-.549-.389-.707s-.411-.237-.674-.237c-.398 0-.722.143-.971.429-.249.285-.374.737-.374 1.355 0 .627.12 1.083.36 1.367s.554.426.94.426c.311 0 .57-.095.778-.285s.341-.486.397-.88z" fill="#1d1d1b"/><path d="m61.724 237.003-.088-.742c.173.047.324.07.453.07.176 0 .316-.029.422-.088s.192-.141.259-.246c.05-.079.13-.275.242-.589.015-.044.038-.108.07-.193l-1.771-4.676h.853l.971 2.702c.126.344.239.703.338 1.082.091-.363.199-.718.325-1.064l.998-2.72h.791l-1.775 4.746c-.19.513-.338.866-.444 1.06-.141.26-.302.451-.483.573-.182.121-.398.183-.65.183-.153 0-.323-.033-.511-.098z" fill="#1d1d1b"/><path d="m78.147 217.962h51.471v62.5h-51.471z" fill="none"/><path d="m83.668 222.148.853.216c-.179.7-.5 1.233-.965 1.602-.464.367-1.032.551-1.703.551-.694 0-1.259-.141-1.694-.424-.436-.282-.767-.691-.993-1.229-.228-.535-.341-1.111-.341-1.727 0-.671.128-1.256.385-1.756.256-.499.621-.879 1.094-1.138.473-.26.994-.39 1.562-.39.645 0 1.187.165 1.626.492.439.329.746.79.918 1.385l-.839.197c-.149-.468-.366-.81-.65-1.023s-.642-.32-1.072-.32c-.495 0-.909.118-1.241.355-.333.237-.566.556-.701.956-.135.399-.202.812-.202 1.237 0 .548.08 1.025.239 1.435.16.408.408.714.745.916s.702.304 1.094.304c.478 0 .882-.138 1.213-.414.331-.274.555-.683.672-1.225z" fill="#1d1d1b"/><path d="m85.175 222.073c0-.863.24-1.504.721-1.92.401-.346.891-.519 1.468-.519.642 0 1.166.21 1.573.631.407.42.611 1.001.611 1.742 0 .601-.09 1.073-.27 1.417-.181.345-.443.612-.787.803-.344.189-.72.285-1.127.285-.653 0-1.182-.209-1.584-.629-.404-.418-.605-1.021-.605-1.81zm.813 0c0 .598.13 1.046.391 1.343.261.298.589.446.984.446.393 0 .719-.149.98-.448s.391-.754.391-1.366c0-.577-.131-1.015-.394-1.312-.262-.297-.588-.445-.978-.445-.396 0-.724.147-.984.443s-.39.741-.39 1.339z" fill="#1d1d1b"/><path d="m90.475 224.407v-4.667h.708v.655c.146-.229.341-.413.584-.552.243-.14.52-.209.831-.209.346 0 .629.072.851.216.221.144.377.344.468.602.369-.545.85-.817 1.441-.817.463 0 .819.128 1.068.385.249.256.374.651.374 1.185v3.203h-.787v-2.939c0-.316-.026-.545-.077-.684-.052-.14-.145-.251-.279-.336s-.293-.128-.475-.128c-.328 0-.601.109-.817.327-.217.219-.325.568-.325 1.049v2.711h-.791v-3.032c0-.352-.064-.615-.193-.791s-.34-.264-.633-.264c-.223 0-.429.059-.617.176-.189.117-.326.289-.411.515s-.127.551-.127.975v2.422h-.793z" fill="#1d1d1b"/><path d="m97.972 224.407v-4.667h.708v.655c.146-.229.341-.413.584-.552.243-.14.52-.209.831-.209.346 0 .629.072.851.216.221.144.377.344.468.602.369-.545.85-.817 1.441-.817.463 0 .819.128 1.068.385.249.256.374.651.374 1.185v3.203h-.787v-2.939c0-.316-.026-.545-.077-.684-.052-.14-.145-.251-.279-.336s-.293-.128-.475-.128c-.328 0-.601.109-.817.327-.217.219-.325.568-.325 1.049v2.711h-.791v-3.032c0-.352-.064-.615-.193-.791s-.34-.264-.633-.264c-.223 0-.429.059-.617.176-.189.117-.326.289-.411.515s-.127.551-.127.975v2.422h-.793z" fill="#1d1d1b"/><path d="m108.528 224.407v-.686c-.363.527-.857.791-1.481.791-.275 0-.533-.053-.771-.158s-.416-.238-.531-.397c-.116-.16-.197-.355-.244-.587-.032-.155-.048-.401-.048-.738v-2.892h.791v2.589c0 .412.016.691.048.834.05.209.155.372.316.49.161.119.36.178.598.178s.46-.061.668-.182c.208-.122.355-.287.441-.497.086-.209.13-.513.13-.911v-2.501h.791v4.667z" fill="#1d1d1b"/><path d="m110.475 224.407v-4.667h.712v.663c.343-.512.838-.769 1.485-.769.281 0 .54.051.776.151.235.102.412.234.529.398s.199.358.246.584c.029.146.044.403.044.77v2.869h-.791v-2.839c0-.322-.031-.563-.092-.723-.062-.16-.171-.287-.328-.383-.157-.095-.34-.143-.551-.143-.337 0-.628.107-.873.321s-.367.619-.367 1.217v2.549h-.79z" fill="#1d1d1b"/><path d="m115.484 218.874v-.909h.791v.909zm0 5.533v-4.667h.791v4.667z" fill="#1d1d1b"/><path d="m120.525 222.698.778.101c-.085.536-.303.956-.653 1.259-.35.304-.78.455-1.29.455-.639 0-1.152-.209-1.541-.626-.388-.418-.582-1.016-.582-1.796 0-.503.083-.944.25-1.322s.421-.661.762-.851c.341-.188.713-.283 1.114-.283.507 0 .921.128 1.244.385.322.256.529.62.62 1.092l-.769.118c-.073-.312-.203-.549-.389-.707s-.411-.237-.674-.237c-.398 0-.722.143-.971.429-.249.285-.374.737-.374 1.355 0 .627.12 1.083.36 1.367s.554.426.94.426c.311 0 .57-.095.778-.285s.341-.486.397-.88z" fill="#1d1d1b"/><path d="m125.025 223.831c-.293.25-.575.426-.846.527-.271.103-.562.154-.873.154-.513 0-.907-.125-1.182-.376-.275-.25-.413-.57-.413-.96 0-.229.052-.438.156-.626.104-.189.24-.341.408-.455s.358-.2.569-.259c.155-.041.39-.081.703-.119.639-.076 1.109-.167 1.411-.272.003-.108.004-.177.004-.206 0-.322-.075-.55-.224-.682-.202-.179-.502-.268-.901-.268-.372 0-.647.064-.824.195-.177.13-.308.361-.393.691l-.773-.105c.07-.33.186-.598.347-.802.161-.203.394-.36.699-.47s.658-.165 1.059-.165c.398 0 .722.047.971.141s.432.212.549.354c.117.143.199.322.246.538.026.136.04.379.04.73v1.055c0 .735.017 1.2.05 1.395.034.195.101.382.2.561h-.826c-.081-.164-.134-.356-.157-.576zm-.066-1.766c-.287.117-.718.217-1.292.299-.325.047-.555.1-.69.158s-.239.144-.312.257c-.073.112-.11.238-.11.376 0 .211.08.387.239.527s.394.211.701.211c.305 0 .576-.067.813-.2.237-.134.412-.315.523-.548.085-.178.127-.441.127-.791v-.289z" fill="#1d1d1b"/><path d="m126.677 222.473v-.795h2.43v.795z" fill="#1d1d1b"/><path d="m87.948 234.5.114.698c-.223.047-.422.07-.598.07-.287 0-.51-.046-.668-.136-.158-.091-.27-.211-.334-.358-.064-.148-.097-.46-.097-.935v-2.685h-.58v-.615h.58v-1.155l.787-.475v1.63h.795v.615h-.795v2.729c0 .226.014.37.042.435s.073.116.137.153c.062.039.153.058.27.058.088.001.204-.009.347-.029z" fill="#1d1d1b"/><path d="m88.726 229.673v-.909h.791v.909zm0 5.534v-4.667h.791v4.667z" fill="#1d1d1b"/><path d="m90.427 232.873c0-.863.24-1.504.721-1.92.401-.346.891-.519 1.468-.519.642 0 1.166.21 1.573.631.407.42.611 1.001.611 1.742 0 .601-.09 1.073-.27 1.417-.181.345-.443.612-.787.803-.344.189-.72.285-1.127.285-.653 0-1.182-.209-1.584-.629-.404-.418-.605-1.021-.605-1.81zm.813 0c0 .598.13 1.046.391 1.343.261.298.589.446.984.446.393 0 .719-.149.98-.448s.391-.754.391-1.366c0-.577-.131-1.015-.394-1.312-.262-.297-.588-.445-.978-.445-.396 0-.724.147-.984.443s-.39.741-.39 1.339z" fill="#1d1d1b"/><path d="m95.727 235.207v-4.667h.712v.663c.343-.512.838-.769 1.485-.769.281 0 .54.051.776.151.235.102.412.234.529.398s.199.358.246.584c.029.146.044.403.044.77v2.869h-.791v-2.839c0-.322-.031-.563-.092-.723-.062-.16-.171-.287-.328-.383-.157-.095-.34-.143-.551-.143-.337 0-.628.107-.873.321s-.367.619-.367 1.217v2.549h-.79z" fill="#1d1d1b"/><path d="m102.916 233.814.782-.123c.044.313.166.553.367.721.201.166.481.25.842.25.363 0 .633-.074.809-.222s.264-.321.264-.521c0-.179-.078-.319-.233-.422-.108-.07-.378-.16-.809-.269-.58-.146-.982-.273-1.207-.38-.224-.107-.394-.255-.51-.444-.116-.188-.173-.397-.173-.626 0-.208.047-.4.143-.578.095-.177.225-.324.389-.441.123-.091.291-.168.503-.23.212-.063.44-.095.684-.095.366 0 .688.053.965.158.276.105.481.248.613.429.132.18.223.421.272.723l-.773.105c-.035-.24-.137-.428-.305-.562-.169-.135-.407-.202-.714-.202-.363 0-.623.061-.778.181s-.233.261-.233.422c0 .103.032.194.097.276.064.085.166.155.303.211.079.029.312.097.699.202.56.149.95.271 1.171.367.221.095.395.233.521.415s.189.407.189.677c0 .264-.077.512-.231.745-.153.232-.375.413-.666.54-.29.128-.618.191-.984.191-.606 0-1.069-.126-1.386-.378-.32-.252-.523-.625-.611-1.12z" fill="#1d1d1b"/><path d="m107.737 235.207v-6.442h.791v3.674l1.872-1.898h1.024l-1.784 1.731 1.964 2.936h-.976l-1.542-2.387-.558.537v1.85h-.791z" fill="#1d1d1b"/><path d="m112.237 229.673v-.909h.791v.909zm0 5.534v-4.667h.791v4.667z" fill="#1d1d1b"/><path d="m114.214 235.207v-6.442h.791v6.442z" fill="#1d1d1b"/><path d="m116.214 235.207v-6.442h.791v6.442z" fill="#1d1d1b"/><path d="m117.915 233.814.782-.123c.044.313.166.553.367.721.201.166.481.25.842.25.363 0 .633-.074.809-.222s.264-.321.264-.521c0-.179-.078-.319-.233-.422-.108-.07-.378-.16-.809-.269-.58-.146-.982-.273-1.207-.38-.224-.107-.394-.255-.51-.444-.116-.188-.173-.397-.173-.626 0-.208.047-.4.143-.578.095-.177.225-.324.389-.441.123-.091.291-.168.503-.23.212-.063.44-.095.684-.095.366 0 .688.053.965.158.276.105.481.248.613.429.132.18.223.421.272.723l-.773.105c-.035-.24-.137-.428-.305-.562-.169-.135-.407-.202-.714-.202-.363 0-.623.061-.778.181s-.233.261-.233.422c0 .103.032.194.097.276.064.085.166.155.303.211.079.029.312.097.699.202.56.149.95.271 1.171.367.221.095.395.233.521.415s.189.407.189.677c0 .264-.077.512-.231.745-.153.232-.375.413-.666.54-.29.128-.618.191-.984.191-.606 0-1.069-.126-1.386-.378-.321-.252-.524-.625-.611-1.12z" fill="#1d1d1b"/><path d="m130.618 217.962h51.471v62.5h-51.471z" fill="none"/><g fill="#1d1d1b"><path d="m141.001 224.407v-6.442h2.417c.492 0 .887.065 1.185.195.297.131.53.331.698.603.168.271.253.555.253.85 0 .276-.075.535-.224.778s-.375.439-.677.589c.39.114.689.31.899.584.209.276.314.602.314.977 0 .302-.064.582-.191.841-.128.26-.285.46-.473.601s-.423.246-.705.318c-.283.071-.629.107-1.04.107h-2.456zm.853-3.736h1.393c.378 0 .649-.024.813-.075.217-.063.38-.171.49-.32.109-.149.165-.337.165-.562 0-.214-.051-.402-.154-.564-.103-.163-.249-.274-.439-.334-.19-.061-.517-.09-.98-.09h-1.288zm0 2.976h1.604c.275 0 .469-.011.58-.031.196-.035.36-.094.492-.176s.24-.201.325-.358c.085-.156.127-.337.127-.542 0-.24-.062-.449-.185-.627-.123-.177-.294-.302-.512-.373-.219-.072-.533-.107-.943-.107h-1.49v2.214z"/><path d="m149.997 224.407v-.686c-.363.527-.857.791-1.481.791-.275 0-.533-.053-.771-.158s-.416-.238-.531-.397c-.116-.16-.197-.355-.244-.587-.032-.155-.048-.401-.048-.738v-2.892h.791v2.589c0 .412.016.691.048.834.05.209.155.372.316.49.161.119.36.178.598.178s.46-.061.668-.182c.208-.122.355-.287.441-.497.086-.209.13-.513.13-.911v-2.501h.791v4.667z"/><path d="m151.948 218.874v-.909h.791v.909zm0 5.533v-4.667h.791v4.667z"/><path d="m153.926 224.407v-6.442h.791v6.442z"/><path d="m158.971 224.407v-.589c-.296.463-.731.694-1.305.694-.372 0-.714-.103-1.026-.308s-.554-.491-.726-.859c-.171-.367-.257-.79-.257-1.268 0-.466.078-.889.233-1.268.155-.38.388-.671.699-.872.311-.203.658-.304 1.042-.304.281 0 .532.06.751.178.22.119.398.273.536.464v-2.312h.787v6.442h-.734zm-2.501-2.329c0 .598.126 1.045.378 1.341s.549.443.892.443c.346 0 .64-.142.881-.424.242-.283.363-.715.363-1.295 0-.638-.123-1.107-.369-1.406s-.549-.447-.91-.447c-.352 0-.646.144-.881.43-.236.287-.354.739-.354 1.358z"/><path d="m160.953 218.874v-.909h.791v.909zm0 5.533v-4.667h.791v4.667z"/><path d="m162.948 224.407v-4.667h.712v.663c.343-.512.838-.769 1.485-.769.281 0 .54.051.776.151.235.102.412.234.529.398s.199.358.246.584c.029.146.044.403.044.77v2.869h-.791v-2.839c0-.322-.031-.563-.092-.723-.062-.16-.171-.287-.328-.383-.157-.095-.34-.143-.551-.143-.337 0-.628.107-.873.321s-.367.619-.367 1.217v2.549h-.79z"/><path d="m167.808 224.793.769.114c.032.237.122.41.268.519.196.146.464.22.804.22.366 0 .649-.073.848-.22s.334-.352.404-.615c.041-.161.06-.499.057-1.016-.346.408-.776.611-1.292.611-.642 0-1.138-.231-1.49-.694s-.527-1.018-.527-1.665c0-.445.081-.856.242-1.233.161-.376.395-.667.701-.872s.666-.308 1.079-.308c.551 0 1.005.223 1.362.668v-.562h.729v4.034c0 .727-.074 1.241-.222 1.545-.148.303-.383.543-.703.719-.321.176-.716.264-1.185.264-.557 0-1.006-.126-1.349-.376-.341-.252-.507-.629-.495-1.133zm.655-2.803c0 .612.122 1.06.365 1.341s.548.422.914.422c.363 0 .668-.141.914-.42.246-.28.369-.719.369-1.316 0-.571-.127-1.002-.38-1.292-.254-.29-.559-.435-.917-.435-.352 0-.65.143-.896.428s-.369.709-.369 1.272z"/><path d="m143.464 233.704.817.101c-.129.479-.368.849-.716 1.112s-.794.396-1.336.396c-.683 0-1.224-.21-1.624-.631-.4-.42-.6-1.01-.6-1.769 0-.785.202-1.395.606-1.828s.929-.65 1.573-.65c.624 0 1.134.213 1.529.638s.593 1.022.593 1.793c0 .047-.001.117-.004.211h-3.48c.029.513.174.904.435 1.178.261.271.586.408.976.408.29 0 .538-.076.743-.229s.368-.396.488-.73zm-2.597-1.279h2.606c-.035-.393-.135-.688-.299-.884-.252-.305-.579-.457-.98-.457-.363 0-.669.122-.917.364-.247.245-.383.57-.41.977z"/><path d="m145.464 235.207v-4.052h-.699v-.615h.699v-.497c0-.312.028-.546.083-.698.076-.205.21-.371.402-.499.192-.127.461-.191.807-.191.223 0 .469.027.738.08l-.119.689c-.164-.029-.319-.044-.466-.044-.24 0-.41.052-.51.153-.1.104-.149.295-.149.576v.431h.91v.615h-.91v4.052z"/><path d="m147.802 235.207v-4.052h-.699v-.615h.699v-.497c0-.312.028-.546.083-.698.076-.205.21-.371.402-.499.192-.127.461-.191.807-.191.223 0 .469.027.738.08l-.119.689c-.164-.029-.319-.044-.466-.044-.24 0-.41.052-.51.153-.1.104-.149.295-.149.576v.431h.91v.615h-.91v4.052z"/><path d="m153.308 233.704.817.101c-.129.479-.368.849-.716 1.112s-.794.396-1.336.396c-.683 0-1.224-.21-1.624-.631-.4-.42-.6-1.01-.6-1.769 0-.785.202-1.395.606-1.828s.929-.65 1.573-.65c.624 0 1.134.213 1.529.638s.593 1.022.593 1.793c0 .047-.001.117-.004.211h-3.48c.029.513.174.904.435 1.178.261.271.586.408.976.408.29 0 .538-.076.743-.229s.368-.396.488-.73zm-2.597-1.279h2.606c-.035-.393-.135-.688-.299-.884-.252-.305-.579-.457-.98-.457-.363 0-.669.122-.917.364-.247.245-.384.57-.41.977z"/><path d="m158.164 233.498.778.101c-.085.536-.303.956-.653 1.259-.35.304-.78.455-1.29.455-.639 0-1.152-.209-1.541-.626-.388-.418-.582-1.016-.582-1.796 0-.503.083-.944.25-1.322s.421-.661.762-.851c.341-.188.713-.283 1.114-.283.507 0 .921.128 1.244.385.322.256.529.62.62 1.092l-.769.118c-.073-.312-.203-.549-.389-.707s-.411-.237-.674-.237c-.398 0-.722.143-.971.429-.249.285-.374.737-.374 1.355 0 .627.12 1.083.36 1.367s.554.426.94.426c.311 0 .57-.095.778-.285s.341-.486.397-.88z"/><path d="m161.346 234.5.114.698c-.223.047-.422.07-.598.07-.287 0-.51-.046-.668-.136-.158-.091-.27-.211-.334-.358-.064-.148-.097-.46-.097-.935v-2.685h-.58v-.615h.58v-1.155l.787-.475v1.63h.795v.615h-.795v2.729c0 .226.014.37.042.435s.073.116.137.153c.062.039.153.058.27.058.087.001.203-.009.347-.029z"/><path d="m162.124 229.673v-.909h.791v.909zm0 5.534v-4.667h.791v4.667z"/><path d="m165.415 235.207-1.775-4.667h.835l1.002 2.795c.108.302.208.615.299.94.07-.246.168-.542.294-.888l1.037-2.848h.813l-1.767 4.667h-.738z"/><path d="m171.813 233.704.817.101c-.129.479-.368.849-.716 1.112s-.794.396-1.336.396c-.683 0-1.224-.21-1.624-.631-.4-.42-.6-1.01-.6-1.769 0-.785.202-1.395.606-1.828s.929-.65 1.573-.65c.624 0 1.134.213 1.529.638s.593 1.022.593 1.793c0 .047-.001.117-.004.211h-3.48c.029.513.174.904.435 1.178.261.271.586.408.976.408.29 0 .538-.076.743-.229s.368-.396.488-.73zm-2.597-1.279h2.606c-.035-.393-.135-.688-.299-.884-.252-.305-.579-.457-.98-.457-.363 0-.669.122-.917.364-.247.245-.383.57-.41.977z"/><path d="m131.674 246.006v-4.667h.712v.708c.182-.331.349-.55.503-.655.153-.105.323-.158.507-.158.267 0 .538.085.813.255l-.272.734c-.193-.115-.387-.172-.58-.172-.173 0-.328.052-.466.156s-.236.248-.294.433c-.088.281-.132.589-.132.923v2.443z"/><path d="m137.875 244.503.817.101c-.129.479-.368.849-.716 1.112s-.794.396-1.336.396c-.683 0-1.224-.21-1.624-.631-.4-.42-.6-1.01-.6-1.769 0-.785.202-1.395.606-1.828s.929-.65 1.573-.65c.624 0 1.134.213 1.529.638s.593 1.022.593 1.793c0 .047-.001.117-.004.211h-3.48c.029.513.174.904.435 1.178.261.271.586.408.976.408.29 0 .538-.076.743-.229s.367-.396.488-.73zm-2.598-1.278h2.606c-.035-.393-.135-.688-.299-.884-.252-.305-.579-.457-.98-.457-.363 0-.669.122-.917.364-.247.245-.383.57-.41.977z"/><path d="m139.667 246.006v-6.442h.791v6.442z"/><path d="m144.73 245.43c-.293.25-.575.426-.846.527-.271.103-.562.154-.873.154-.513 0-.907-.125-1.182-.376-.275-.25-.413-.57-.413-.96 0-.229.052-.438.156-.626.104-.189.24-.341.408-.455s.358-.2.569-.259c.155-.041.39-.081.703-.119.639-.076 1.109-.167 1.411-.272.003-.108.004-.177.004-.206 0-.322-.075-.55-.224-.682-.202-.179-.502-.268-.901-.268-.372 0-.647.064-.824.195-.177.13-.308.361-.393.691l-.773-.105c.07-.33.186-.598.347-.802.161-.203.394-.36.699-.47s.658-.165 1.059-.165c.398 0 .722.047.971.141s.432.212.549.354c.117.143.199.322.246.538.026.136.04.379.04.73v1.055c0 .735.017 1.2.05 1.395.034.195.101.382.2.561h-.826c-.081-.164-.134-.355-.157-.576zm-.066-1.765c-.287.117-.718.217-1.292.299-.325.047-.555.1-.69.158s-.239.144-.312.257c-.073.112-.11.238-.11.376 0 .211.08.387.239.527s.394.211.701.211c.305 0 .576-.067.813-.2.237-.134.412-.315.523-.548.085-.178.127-.441.127-.791v-.289z"/><path d="m148.417 245.299.114.698c-.223.047-.422.07-.598.07-.287 0-.51-.046-.668-.136-.158-.091-.27-.211-.334-.358-.064-.148-.097-.46-.097-.935v-2.685h-.58v-.615h.58v-1.155l.787-.475v1.63h.795v.615h-.795v2.729c0 .226.014.37.042.435s.073.116.137.153c.062.039.153.058.27.058.088.002.203-.008.347-.029z"/><path d="m149.195 240.473v-.909h.791v.909zm0 5.533v-4.667h.791v4.667z"/><path d="m150.896 243.672c0-.863.24-1.504.721-1.92.401-.346.891-.519 1.468-.519.642 0 1.166.21 1.573.631.407.42.611 1.001.611 1.742 0 .601-.09 1.073-.27 1.417-.181.345-.443.612-.787.803-.344.189-.72.285-1.127.285-.653 0-1.182-.209-1.584-.629-.404-.417-.605-1.021-.605-1.81zm.812 0c0 .598.13 1.046.391 1.343.261.298.589.446.984.446.393 0 .719-.149.98-.448s.391-.754.391-1.366c0-.577-.131-1.015-.394-1.312-.262-.297-.588-.445-.978-.445-.396 0-.724.147-.984.443s-.39.742-.39 1.339z"/><path d="m156.195 246.006v-4.667h.712v.663c.343-.512.838-.769 1.485-.769.281 0 .54.051.776.151.235.102.412.234.529.398s.199.358.246.584c.029.146.044.403.044.77v2.869h-.791v-2.839c0-.322-.031-.563-.092-.723-.062-.16-.171-.287-.328-.383-.157-.095-.34-.143-.551-.143-.337 0-.628.107-.873.321s-.367.619-.367 1.217v2.549h-.79z"/><path d="m160.884 244.614.782-.123c.044.313.166.553.367.721.201.166.481.25.842.25.363 0 .633-.074.809-.222s.264-.321.264-.521c0-.179-.078-.319-.233-.422-.108-.07-.378-.16-.809-.269-.58-.146-.982-.273-1.207-.38-.224-.107-.394-.255-.51-.444-.116-.188-.173-.397-.173-.626 0-.208.047-.4.143-.578.095-.177.225-.324.389-.441.123-.091.291-.168.503-.23.212-.063.44-.095.684-.095.366 0 .688.053.965.158.276.105.481.248.613.429.132.18.223.421.272.723l-.773.105c-.035-.24-.137-.428-.305-.562-.169-.135-.407-.202-.714-.202-.363 0-.623.061-.778.181s-.233.261-.233.422c0 .103.032.194.097.276.064.085.166.155.303.211.079.029.312.097.699.202.56.149.95.271 1.171.367.221.095.395.233.521.415s.189.407.189.677c0 .264-.077.512-.231.745-.153.232-.375.413-.666.54-.29.128-.618.191-.984.191-.606 0-1.069-.126-1.386-.378-.32-.252-.523-.625-.611-1.12z"/><path d="m165.701 246.006v-6.442h.791v2.312c.369-.428.835-.642 1.397-.642.346 0 .646.068.901.204.255.137.438.325.547.564.11.241.165.59.165 1.047v2.957h-.791v-2.957c0-.396-.086-.684-.257-.864-.172-.18-.414-.271-.728-.271-.234 0-.455.062-.661.183-.207.122-.354.287-.442.495s-.132.495-.132.861v2.553z"/><path d="m170.71 240.473v-.909h.791v.909zm0 5.533v-4.667h.791v4.667z"/><path d="m172.706 247.795v-6.456h.721v.606c.17-.237.362-.415.576-.534.214-.118.473-.178.778-.178.398 0 .75.103 1.055.308s.535.494.69.868c.155.373.233.783.233 1.228 0 .479-.085.908-.257 1.29-.171.383-.42.676-.747.879-.327.204-.67.306-1.03.306-.264 0-.5-.056-.71-.167s-.381-.252-.516-.422v2.272zm.716-4.095c0 .601.122 1.044.365 1.331s.538.431.883.431c.352 0 .652-.148.903-.446.25-.297.375-.758.375-1.382 0-.595-.123-1.04-.367-1.336-.245-.296-.537-.443-.877-.443-.337 0-.635.157-.895.472-.257.314-.387.772-.387 1.373z"/><path d="m177.395 244.614.782-.123c.044.313.166.553.367.721.201.166.481.25.842.25.363 0 .633-.074.809-.222s.264-.321.264-.521c0-.179-.078-.319-.233-.422-.108-.07-.378-.16-.809-.269-.58-.146-.982-.273-1.207-.38-.224-.107-.394-.255-.51-.444-.116-.188-.173-.397-.173-.626 0-.208.047-.4.143-.578.095-.177.225-.324.389-.441.123-.091.291-.168.503-.23.212-.063.44-.095.684-.095.366 0 .688.053.965.158.276.105.481.248.613.429.132.18.223.421.272.723l-.773.105c-.035-.24-.137-.428-.305-.562-.169-.135-.407-.202-.714-.202-.363 0-.623.061-.778.181s-.233.261-.233.422c0 .103.032.194.097.276.064.085.166.155.303.211.079.029.312.097.699.202.56.149.95.271 1.171.367.221.095.395.233.521.415s.189.407.189.677c0 .264-.077.512-.231.745-.153.232-.375.413-.666.54-.29.128-.618.191-.984.191-.606 0-1.069-.126-1.386-.378-.321-.252-.524-.625-.611-1.12z"/></g><path d="m183.089 217.962h51.471v62.5h-51.471z" fill="none"/><path d="m189.402 224.407v-5.682h-2.123v-.761h5.106v.761h-2.131v5.682z" fill="#1d1d1b"/><path d="m195.357 222.904.817.101c-.129.479-.368.849-.716 1.112s-.794.396-1.336.396c-.683 0-1.224-.21-1.624-.631-.4-.42-.6-1.01-.6-1.769 0-.785.202-1.395.606-1.828s.929-.65 1.573-.65c.624 0 1.134.213 1.529.638s.593 1.022.593 1.793c0 .047-.001.117-.004.211h-3.48c.029.513.174.904.435 1.178.261.271.586.408.976.408.29 0 .538-.076.743-.229s.368-.396.488-.73zm-2.597-1.279h2.606c-.035-.393-.135-.688-.299-.884-.252-.305-.579-.457-.98-.457-.363 0-.669.122-.917.364-.247.245-.384.57-.41.977z" fill="#1d1d1b"/><path d="m200.213 223.831c-.293.25-.575.426-.846.527-.271.103-.562.154-.873.154-.513 0-.907-.125-1.182-.376-.275-.25-.413-.57-.413-.96 0-.229.052-.438.156-.626.104-.189.24-.341.408-.455s.358-.2.569-.259c.155-.041.39-.081.703-.119.639-.076 1.109-.167 1.411-.272.003-.108.004-.177.004-.206 0-.322-.075-.55-.224-.682-.202-.179-.502-.268-.901-.268-.372 0-.647.064-.824.195-.177.13-.308.361-.393.691l-.773-.105c.07-.33.186-.598.347-.802.161-.203.394-.36.699-.47s.658-.165 1.059-.165c.398 0 .722.047.971.141s.432.212.549.354c.117.143.199.322.246.538.026.136.04.379.04.73v1.055c0 .735.017 1.2.05 1.395.034.195.101.382.2.561h-.826c-.081-.164-.134-.356-.157-.576zm-.066-1.766c-.287.117-.718.217-1.292.299-.325.047-.555.1-.69.158s-.239.144-.312.257c-.073.112-.11.238-.11.376 0 .211.08.387.239.527s.394.211.701.211c.305 0 .576-.067.813-.2.237-.134.412-.315.523-.548.085-.178.127-.441.127-.791v-.289z" fill="#1d1d1b"/><path d="m202.173 224.407v-4.667h.708v.655c.146-.229.341-.413.584-.552.243-.14.52-.209.831-.209.346 0 .629.072.851.216.221.144.377.344.468.602.369-.545.85-.817 1.441-.817.463 0 .819.128 1.068.385.249.256.374.651.374 1.185v3.203h-.787v-2.939c0-.316-.026-.545-.077-.684-.052-.14-.145-.251-.279-.336s-.293-.128-.475-.128c-.328 0-.601.109-.817.327-.217.219-.325.568-.325 1.049v2.711h-.791v-3.032c0-.352-.064-.615-.193-.791s-.34-.264-.633-.264c-.223 0-.429.059-.617.176-.189.117-.326.289-.411.515s-.127.551-.127.975v2.422h-.793z" fill="#1d1d1b"/><path d="m213.032 224.407-1.428-4.667h.817l.743 2.694.277 1.002c.012-.05.092-.371.242-.963l.743-2.733h.813l.699 2.707.233.892.268-.9.8-2.698h.769l-1.459 4.667h-.822l-.743-2.795-.18-.795-.945 3.59h-.827z" fill="#1d1d1b"/><path d="m218.375 222.073c0-.863.24-1.504.721-1.92.401-.346.891-.519 1.468-.519.642 0 1.166.21 1.573.631.407.42.611 1.001.611 1.742 0 .601-.09 1.073-.27 1.417-.181.345-.443.612-.787.803-.344.189-.72.285-1.127.285-.653 0-1.182-.209-1.584-.629-.403-.418-.605-1.021-.605-1.81zm.813 0c0 .598.13 1.046.391 1.343.261.298.589.446.984.446.393 0 .719-.149.98-.448s.391-.754.391-1.366c0-.577-.131-1.015-.394-1.312-.262-.297-.588-.445-.978-.445-.396 0-.724.147-.984.443s-.39.741-.39 1.339z" fill="#1d1d1b"/><path d="m223.667 224.407v-4.667h.712v.708c.182-.331.349-.55.503-.655.153-.105.323-.158.507-.158.267 0 .538.085.813.255l-.272.734c-.193-.115-.387-.172-.58-.172-.173 0-.328.052-.466.156s-.236.248-.294.433c-.088.281-.132.589-.132.923v2.443z" fill="#1d1d1b"/><path d="m226.677 224.407v-6.442h.791v3.674l1.872-1.898h1.024l-1.784 1.731 1.964 2.936h-.976l-1.542-2.387-.558.537v1.85h-.791z" fill="#1d1d1b"/><path d="m235.618 217.962h51.471v62.5h-51.471z" fill="none"/><path d="m236.781 224.407v-6.442h2.43c.428 0 .754.021.98.062.316.053.582.153.795.301.214.148.386.355.516.622s.196.56.196.879c0 .548-.174 1.012-.523 1.391-.349.38-.979.569-1.89.569h-1.652v2.619h-.852zm.852-3.379h1.666c.551 0 .942-.103 1.173-.309.231-.204.347-.493.347-.865 0-.27-.068-.5-.205-.692-.136-.191-.315-.318-.538-.38-.144-.038-.409-.057-.795-.057h-1.648z" fill="#1d1d1b"/><path d="m242.674 224.407v-4.667h.712v.708c.182-.331.349-.55.503-.655.153-.105.323-.158.507-.158.267 0 .538.085.813.255l-.272.734c-.193-.115-.387-.172-.58-.172-.173 0-.328.052-.466.156s-.236.248-.294.433c-.088.281-.132.589-.132.923v2.443z" fill="#1d1d1b"/><path d="m248.875 222.904.817.101c-.129.479-.368.849-.716 1.112s-.794.396-1.336.396c-.683 0-1.224-.21-1.624-.631-.4-.42-.6-1.01-.6-1.769 0-.785.202-1.395.606-1.828s.929-.65 1.573-.65c.624 0 1.134.213 1.529.638s.593 1.022.593 1.793c0 .047-.001.117-.004.211h-3.48c.029.513.174.904.435 1.178.261.271.586.408.976.408.29 0 .538-.076.743-.229s.367-.396.488-.73zm-2.598-1.279h2.606c-.035-.393-.135-.688-.299-.884-.252-.305-.579-.457-.98-.457-.363 0-.669.122-.917.364-.247.245-.383.57-.41.977z" fill="#1d1d1b"/><path d="m250.369 223.014.782-.123c.044.313.166.553.367.721.201.166.482.25.841.25.363 0 .633-.074.809-.222s.264-.321.264-.521c0-.179-.077-.319-.232-.422-.108-.07-.378-.16-.809-.269-.58-.146-.982-.273-1.207-.38-.224-.107-.394-.255-.51-.444-.116-.188-.173-.397-.173-.626 0-.208.047-.4.143-.578.095-.177.225-.324.389-.441.123-.091.291-.168.503-.23.212-.063.441-.095.683-.095.367 0 .688.053.965.158s.481.248.613.429c.132.18.223.421.272.723l-.773.105c-.035-.24-.138-.428-.306-.562s-.406-.202-.714-.202c-.363 0-.623.061-.778.181s-.233.261-.233.422c0 .103.032.194.097.276.064.085.166.155.303.211.079.029.312.097.699.202.56.149.95.271 1.171.367.221.095.395.233.521.415.125.182.188.407.188.677 0 .264-.077.512-.231.745-.152.232-.375.413-.665.54-.29.128-.618.191-.984.191-.606 0-1.069-.126-1.386-.378-.319-.252-.521-.625-.609-1.12z" fill="#1d1d1b"/><path d="m258.38 222.904.816.101c-.129.479-.367.849-.716 1.112s-.794.396-1.336.396c-.683 0-1.224-.21-1.624-.631-.4-.42-.6-1.01-.6-1.769 0-.785.202-1.395.606-1.828s.929-.65 1.573-.65c.624 0 1.134.213 1.529.638s.594 1.022.594 1.793c0 .047-.002.117-.005.211h-3.48c.029.513.175.904.435 1.178.262.271.586.408.977.408.289 0 .537-.076.742-.229s.368-.396.489-.73zm-2.597-1.279h2.605c-.035-.393-.135-.688-.299-.884-.252-.305-.578-.457-.979-.457-.363 0-.669.122-.917.364-.247.245-.384.57-.41.977z" fill="#1d1d1b"/><path d="m260.191 224.407v-4.667h.711v.663c.344-.512.838-.769 1.486-.769.281 0 .539.051.775.151.235.102.412.234.529.398s.199.358.246.584c.029.146.044.403.044.77v2.869h-.791v-2.839c0-.322-.03-.563-.093-.723-.061-.16-.17-.287-.327-.383-.157-.095-.341-.143-.552-.143-.336 0-.627.107-.872.321s-.366.619-.366 1.217v2.549h-.79z" fill="#1d1d1b"/><path d="m266.923 223.7.113.698c-.223.047-.422.07-.598.07-.287 0-.51-.046-.668-.136-.158-.091-.27-.211-.334-.358-.064-.148-.096-.46-.096-.935v-2.685h-.58v-.615h.58v-1.155l.786-.475v1.63h.796v.615h-.796v2.729c0 .226.014.37.042.435.027.064.072.116.137.153.062.039.152.058.27.058.089.001.204-.009.348-.029z" fill="#1d1d1b"/><path d="m270.742 223.831c-.293.25-.575.426-.846.527-.271.103-.562.154-.873.154-.512 0-.906-.125-1.182-.376-.275-.25-.413-.57-.413-.96 0-.229.052-.438.156-.626.104-.189.239-.341.408-.455s.358-.2.569-.259c.155-.041.39-.081.703-.119.639-.076 1.109-.167 1.41-.272.004-.108.005-.177.005-.206 0-.322-.075-.55-.224-.682-.203-.179-.503-.268-.901-.268-.372 0-.647.064-.824.195-.177.13-.308.361-.394.691l-.773-.105c.07-.33.187-.598.348-.802.161-.203.395-.36.699-.47.305-.11.657-.165 1.059-.165.398 0 .723.047.971.141.25.094.433.212.55.354.117.143.199.322.246.538.026.136.04.379.04.73v1.055c0 .735.016 1.2.05 1.395s.101.382.2.561h-.826c-.082-.164-.135-.356-.158-.576zm-.067-1.766c-.287.117-.717.217-1.291.299-.326.047-.556.1-.69.158s-.239.144-.312.257c-.074.112-.11.238-.11.376 0 .211.079.387.239.527s.394.211.701.211c.305 0 .576-.067.812-.2.238-.134.412-.315.523-.548.085-.178.127-.441.127-.791v-.289z" fill="#1d1d1b"/><path d="m274.429 223.7.113.698c-.223.047-.422.07-.598.07-.287 0-.51-.046-.668-.136-.158-.091-.27-.211-.334-.358-.064-.148-.096-.46-.096-.935v-2.685h-.58v-.615h.58v-1.155l.786-.475v1.63h.796v.615h-.796v2.729c0 .226.014.37.042.435.027.064.072.116.137.153.062.039.152.058.27.058.088.001.204-.009.348-.029z" fill="#1d1d1b"/><path d="m275.207 218.874v-.909h.791v.909zm0 5.533v-4.667h.791v4.667z" fill="#1d1d1b"/><path d="m276.908 222.073c0-.863.24-1.504.721-1.92.4-.346.891-.519 1.467-.519.643 0 1.166.21 1.574.631.406.42.61 1.001.61 1.742 0 .601-.091 1.073-.271 1.417-.18.345-.442.612-.787.803-.344.189-.719.285-1.127.285-.652 0-1.182-.209-1.584-.629-.402-.418-.603-1.021-.603-1.81zm.812 0c0 .598.131 1.046.391 1.343.262.298.59.446.984.446.393 0 .72-.149.98-.448s.391-.754.391-1.366c0-.577-.131-1.015-.393-1.312-.263-.297-.588-.445-.979-.445-.395 0-.723.147-.984.443-.259.295-.39.741-.39 1.339z" fill="#1d1d1b"/><path d="m282.207 224.407v-4.667h.713v.663c.342-.512.838-.769 1.484-.769.281 0 .54.051.776.151.235.102.412.234.529.398s.199.358.246.584c.029.146.044.403.044.77v2.869h-.791v-2.839c0-.322-.031-.563-.092-.723-.062-.16-.172-.287-.328-.383-.156-.095-.34-.143-.551-.143-.338 0-.629.107-.873.321s-.367.619-.367 1.217v2.549h-.79z" fill="#1d1d1b"/><path d="m251.88 233.814.782-.123c.044.313.166.553.366.721.201.166.482.25.842.25.363 0 .633-.074.809-.222s.264-.321.264-.521c0-.179-.077-.319-.232-.422-.108-.07-.378-.16-.809-.269-.58-.146-.982-.273-1.207-.38-.223-.107-.394-.255-.51-.444-.115-.188-.173-.397-.173-.626 0-.208.048-.4.144-.578.094-.177.225-.324.389-.441.123-.091.29-.168.502-.23.213-.063.441-.095.684-.095.367 0 .688.053.965.158s.481.248.613.429c.132.18.223.421.272.723l-.773.105c-.035-.24-.138-.428-.306-.562s-.406-.202-.714-.202c-.363 0-.622.061-.778.181-.154.12-.232.261-.232.422 0 .103.032.194.097.276.064.085.165.155.304.211.078.029.312.097.698.202.56.149.95.271 1.171.367.221.095.395.233.521.415.125.182.188.407.188.677 0 .264-.077.512-.231.745-.152.232-.375.413-.665.54-.29.128-.618.191-.984.191-.606 0-1.069-.126-1.386-.378-.32-.252-.523-.625-.611-1.12z" fill="#1d1d1b"/><path d="m256.701 235.207v-6.442h.791v3.674l1.873-1.898h1.023l-1.784 1.731 1.964 2.936h-.975l-1.543-2.387-.559.537v1.85h-.79z" fill="#1d1d1b"/><path d="m261.201 229.673v-.909h.791v.909zm0 5.534v-4.667h.791v4.667z" fill="#1d1d1b"/><path d="m263.179 235.207v-6.442h.791v6.442z" fill="#1d1d1b"/><path d="m265.178 235.207v-6.442h.791v6.442z" fill="#1d1d1b"/><path d="m266.878 233.814.783-.123c.043.313.166.553.366.721.2.166.481.25.842.25.363 0 .633-.074.809-.222s.264-.321.264-.521c0-.179-.077-.319-.233-.422-.107-.07-.377-.16-.809-.269-.58-.146-.981-.273-1.206-.38-.224-.107-.394-.255-.51-.444-.116-.188-.173-.397-.173-.626 0-.208.047-.4.143-.578.095-.177.225-.324.389-.441.123-.091.291-.168.503-.23.212-.063.44-.095.684-.095.366 0 .688.053.965.158.276.105.481.248.612.429.133.18.223.421.273.723l-.773.105c-.035-.24-.138-.428-.306-.562-.169-.135-.407-.202-.714-.202-.363 0-.623.061-.778.181s-.233.261-.233.422c0 .103.033.194.098.276.064.085.165.155.303.211.079.029.312.097.699.202.559.149.949.271 1.171.367.221.095.395.233.521.415s.189.407.189.677c0 .264-.077.512-.231.745-.153.232-.376.413-.665.54-.291.128-.619.191-.984.191-.607 0-1.069-.126-1.387-.378-.321-.252-.524-.625-.612-1.12z" fill="#1d1d1b"/><path d="m288.765 217.962h51.471v62.5h-51.471z" fill="none"/><path d="m298.439 224.407v-6.442h2.43c.428 0 .754.021.98.062.316.053.581.153.795.301s.386.355.516.622c.131.267.196.56.196.879 0 .548-.175 1.012-.522 1.391-.35.38-.979.569-1.891.569h-1.652v2.619h-.852zm.852-3.379h1.666c.551 0 .941-.103 1.174-.309.23-.204.347-.493.347-.865 0-.27-.067-.5-.204-.692-.137-.191-.316-.318-.539-.38-.143-.038-.408-.057-.795-.057h-1.648v2.303z" fill="#1d1d1b"/><path d="m304.332 224.407v-4.667h.712v.708c.182-.331.349-.55.503-.655s.323-.158.508-.158c.267 0 .537.085.812.255l-.271.734c-.193-.115-.387-.172-.58-.172-.174 0-.328.052-.467.156-.137.104-.235.248-.294.433-.088.281-.132.589-.132.923v2.443z" fill="#1d1d1b"/><path d="m307.042 222.073c0-.863.24-1.504.721-1.92.402-.346.891-.519 1.469-.519.641 0 1.166.21 1.572.631.408.42.611 1.001.611 1.742 0 .601-.09 1.073-.27 1.417-.182.345-.443.612-.787.803-.345.189-.721.285-1.127.285-.654 0-1.182-.209-1.584-.629-.403-.418-.605-1.021-.605-1.81zm.814 0c0 .598.13 1.046.392 1.343.26.298.588.446.984.446.393 0 .719-.149.979-.448s.392-.754.392-1.366c0-.577-.132-1.015-.395-1.312-.262-.297-.588-.445-.977-.445-.396 0-.725.147-.984.443-.261.295-.391.741-.391 1.339z" fill="#1d1d1b"/><path d="m313.072 224.407h-.733v-6.442h.791v2.298c.334-.418.761-.628 1.278-.628.287 0 .559.058.815.174.257.115.468.278.633.487.165.21.296.463.39.758.094.297.141.613.141.949 0 .801-.198 1.419-.594 1.855s-.87.654-1.424.654c-.551 0-.982-.229-1.297-.689zm-.008-2.369c0 .561.076.965.229 1.213.248.408.586.611 1.01.611.346 0 .645-.15.896-.45.252-.301.379-.748.379-1.343 0-.609-.121-1.059-.363-1.35-.241-.289-.533-.435-.877-.435-.346 0-.645.15-.896.45-.253.302-.378.736-.378 1.304z" fill="#1d1d1b"/><path d="m317.331 224.407v-6.442h.791v6.442z" fill="#1d1d1b"/><path d="m322.542 222.904.817.101c-.129.479-.368.849-.716 1.112-.35.264-.795.396-1.336.396-.684 0-1.225-.21-1.624-.631-.4-.42-.601-1.01-.601-1.769 0-.785.203-1.395.607-1.828s.928-.65 1.572-.65c.625 0 1.135.213 1.529.638.396.425.594 1.022.594 1.793 0 .047-.002.117-.004.211h-3.48c.029.513.174.904.435 1.178.261.271.586.408.976.408.29 0 .537-.076.742-.229s.369-.396.489-.73zm-2.597-1.279h2.606c-.035-.393-.135-.688-.299-.884-.252-.305-.579-.457-.979-.457-.363 0-.67.122-.917.364-.247.245-.384.57-.411.977z" fill="#1d1d1b"/><path d="m324.353 224.407v-4.667h.707v.655c.146-.229.342-.413.585-.552.243-.14.521-.209.831-.209.346 0 .629.072.85.216s.377.344.469.602c.369-.545.85-.817 1.441-.817.463 0 .818.128 1.067.385.249.256.374.651.374 1.185v3.203h-.787v-2.939c0-.316-.025-.545-.076-.684-.053-.14-.145-.251-.279-.336s-.293-.128-.475-.128c-.328 0-.602.109-.818.327-.217.219-.324.568-.324 1.049v2.711h-.791v-3.032c0-.352-.064-.615-.193-.791s-.34-.264-.633-.264c-.223 0-.43.059-.617.176-.189.117-.326.289-.412.515-.084.226-.127.551-.127.975v2.422h-.792z" fill="#1d1d1b"/><path d="m289.77 233.814.782-.123c.044.313.166.553.367.721.2.166.48.25.842.25.363 0 .633-.074.809-.222s.264-.321.264-.521c0-.179-.078-.319-.233-.422-.108-.07-.378-.16-.809-.269-.58-.146-.981-.273-1.206-.38s-.395-.255-.51-.444c-.116-.188-.174-.397-.174-.626 0-.208.047-.4.143-.578.096-.177.225-.324.389-.441.123-.091.291-.168.504-.23.212-.063.439-.095.684-.095.365 0 .688.053.965.158.275.105.48.248.612.429.132.18.223.421.272.723l-.773.105c-.035-.24-.137-.428-.305-.562-.17-.135-.407-.202-.715-.202-.363 0-.623.061-.777.181-.156.12-.233.261-.233.422 0 .103.032.194.097.276.064.085.166.155.303.211.08.029.312.097.699.202.56.149.949.271 1.172.367.221.095.395.233.52.415.127.182.189.407.189.677 0 .264-.076.512-.23.745-.154.232-.376.413-.666.54-.29.128-.618.191-.984.191-.606 0-1.068-.126-1.387-.378s-.523-.625-.611-1.12z" fill="#1d1d1b"/><path d="m294.292 232.873c0-.863.24-1.504.721-1.92.4-.346.891-.519 1.467-.519.643 0 1.166.21 1.574.631.406.42.61 1.001.61 1.742 0 .601-.091 1.073-.271 1.417-.18.345-.442.612-.787.803-.344.189-.719.285-1.127.285-.652 0-1.182-.209-1.584-.629-.401-.418-.603-1.021-.603-1.81zm.813 0c0 .598.131 1.046.391 1.343.262.298.59.446.984.446.393 0 .72-.149.98-.448s.391-.754.391-1.366c0-.577-.131-1.015-.393-1.312-.263-.297-.588-.445-.979-.445-.395 0-.723.147-.984.443-.259.295-.39.741-.39 1.339z" fill="#1d1d1b"/><path d="m299.574 235.207v-6.442h.791v6.442z" fill="#1d1d1b"/><path d="m302.888 235.207-1.775-4.667h.834l1.002 2.795c.109.302.209.615.299.94.07-.246.169-.542.295-.888l1.037-2.848h.812l-1.766 4.667h-.738z" fill="#1d1d1b"/><path d="m306.095 229.673v-.909h.791v.909zm0 5.534v-4.667h.791v4.667z" fill="#1d1d1b"/><path d="m308.091 235.207v-4.667h.711v.663c.344-.512.838-.769 1.486-.769.281 0 .539.051.775.151.235.102.412.234.529.398s.199.358.246.584c.029.146.044.403.044.77v2.869h-.791v-2.839c0-.322-.03-.563-.093-.723-.061-.16-.17-.287-.327-.383-.157-.095-.341-.143-.552-.143-.336 0-.627.107-.872.321s-.366.619-.366 1.217v2.549h-.79z" fill="#1d1d1b"/><path d="m312.951 235.593.77.114c.032.237.121.41.268.519.197.146.465.22.805.22.366 0 .648-.073.848-.22s.334-.352.404-.615c.041-.161.061-.499.058-1.016-.346.408-.776.611-1.292.611-.642 0-1.139-.231-1.49-.694s-.527-1.018-.527-1.665c0-.445.081-.856.242-1.233.161-.376.395-.667.701-.872s.666-.308 1.078-.308c.551 0 1.006.223 1.363.668v-.562h.729v4.034c0 .727-.074 1.241-.221 1.545-.148.303-.383.543-.703.719-.322.176-.717.264-1.186.264-.557 0-1.006-.126-1.349-.376-.344-.252-.51-.629-.498-1.133zm.655-2.803c0 .612.122 1.06.364 1.341.244.281.549.422.914.422.363 0 .668-.141.914-.42.246-.28.369-.719.369-1.316 0-.571-.127-1.002-.379-1.292-.254-.29-.56-.435-.917-.435-.352 0-.65.143-.896.428s-.369.709-.369 1.272z" fill="#1d1d1b"/><path d="m320.286 233.814.782-.123c.044.313.166.553.367.721.2.166.48.25.842.25.363 0 .633-.074.809-.222s.264-.321.264-.521c0-.179-.078-.319-.233-.422-.108-.07-.378-.16-.809-.269-.58-.146-.981-.273-1.206-.38s-.395-.255-.51-.444c-.116-.188-.174-.397-.174-.626 0-.208.047-.4.143-.578.096-.177.225-.324.389-.441.123-.091.291-.168.504-.23.212-.063.439-.095.684-.095.365 0 .688.053.965.158.275.105.48.248.612.429.132.18.223.421.272.723l-.773.105c-.035-.24-.137-.428-.305-.562-.17-.135-.407-.202-.715-.202-.363 0-.623.061-.777.181-.156.12-.233.261-.233.422 0 .103.032.194.097.276.064.085.166.155.303.211.08.029.312.097.699.202.56.149.949.271 1.172.367.221.095.395.233.52.415.127.182.189.407.189.677 0 .264-.076.512-.23.745-.154.232-.376.413-.666.54-.29.128-.618.191-.984.191-.606 0-1.068-.126-1.387-.378s-.523-.625-.611-1.12z" fill="#1d1d1b"/><path d="m325.107 235.207v-6.442h.791v3.674l1.871-1.898h1.024l-1.784 1.731 1.965 2.936h-.977l-1.542-2.387-.558.537v1.85h-.79z" fill="#1d1d1b"/><path d="m329.607 229.673v-.909h.791v.909zm0 5.534v-4.667h.791v4.667z" fill="#1d1d1b"/><path d="m331.583 235.207v-6.442h.791v6.442z" fill="#1d1d1b"/><path d="m333.583 235.207v-6.442h.791v6.442z" fill="#1d1d1b"/><path d="m335.285 233.814.781-.123c.045.313.166.553.367.721.201.166.481.25.842.25.363 0 .633-.074.809-.222s.264-.321.264-.521c0-.179-.078-.319-.232-.422-.109-.07-.379-.16-.809-.269-.58-.146-.982-.273-1.207-.38-.224-.107-.395-.255-.51-.444-.115-.188-.174-.397-.174-.626 0-.208.048-.4.144-.578.095-.177.225-.324.389-.441.123-.091.29-.168.503-.23.213-.063.44-.095.684-.095.366 0 .688.053.965.158.276.105.48.248.613.429.131.18.223.421.271.723l-.773.105c-.035-.24-.137-.428-.305-.562-.169-.135-.406-.202-.715-.202-.363 0-.622.061-.777.181s-.232.261-.232.422c0 .103.031.194.096.276.064.085.166.155.304.211.079.029.312.097.698.202.561.149.95.271 1.172.367.221.095.395.233.521.415s.188.407.188.677c0 .264-.076.512-.23.745-.153.232-.375.413-.666.54-.289.128-.617.191-.984.191-.605 0-1.068-.126-1.386-.378-.321-.252-.523-.625-.611-1.12z" fill="#1d1d1b"/><path d="m341.647 217.962h51.471v62.5h-51.471z" fill="none"/><path d="m353.919 222.148.854.216c-.18.7-.501 1.233-.965 1.602-.465.367-1.032.551-1.703.551-.694 0-1.26-.141-1.693-.424-.436-.282-.768-.691-.994-1.229-.227-.535-.34-1.111-.34-1.727 0-.671.127-1.256.385-1.756.256-.499.62-.879 1.094-1.138.473-.26.994-.39 1.562-.39.645 0 1.186.165 1.625.492.439.329.746.79.919 1.385l-.839.197c-.15-.468-.367-.81-.65-1.023-.285-.214-.643-.32-1.072-.32-.496 0-.91.118-1.242.355s-.566.556-.701.956c-.135.399-.201.812-.201 1.237 0 .548.079 1.025.238 1.435.16.408.408.714.746.916.336.202.701.304 1.094.304.478 0 .882-.138 1.213-.414.33-.274.553-.683.67-1.225z" fill="#1d1d1b"/><path d="m355.712 224.407v-4.667h.713v.708c.182-.331.349-.55.503-.655.153-.105.323-.158.507-.158.268 0 .538.085.813.255l-.272.734c-.193-.115-.387-.172-.58-.172-.173 0-.328.052-.466.156s-.235.248-.294.433c-.088.281-.133.589-.133.923v2.443z" fill="#1d1d1b"/><path d="m361.914 222.904.817.101c-.129.479-.368.849-.716 1.112-.35.264-.795.396-1.336.396-.684 0-1.225-.21-1.624-.631-.4-.42-.601-1.01-.601-1.769 0-.785.203-1.395.607-1.828s.928-.65 1.572-.65c.625 0 1.135.213 1.529.638.396.425.594 1.022.594 1.793 0 .047-.002.117-.004.211h-3.48c.029.513.174.904.435 1.178.261.271.586.408.976.408.29 0 .537-.076.742-.229s.368-.396.489-.73zm-2.598-1.279h2.606c-.035-.393-.135-.688-.299-.884-.252-.305-.579-.457-.979-.457-.363 0-.67.122-.917.364-.247.245-.384.57-.411.977z" fill="#1d1d1b"/><path d="m366.769 223.831c-.293.25-.574.426-.846.527-.271.103-.562.154-.872.154-.513 0-.907-.125-1.183-.376-.275-.25-.412-.57-.412-.96 0-.229.051-.438.156-.626.104-.189.239-.341.408-.455.168-.114.357-.2.568-.259.156-.041.391-.081.703-.119.639-.076 1.109-.167 1.411-.272.003-.108.005-.177.005-.206 0-.322-.075-.55-.225-.682-.202-.179-.502-.268-.9-.268-.373 0-.647.064-.824.195-.178.13-.309.361-.394.691l-.773-.105c.07-.33.187-.598.347-.802.162-.203.395-.36.699-.47.305-.11.658-.165 1.059-.165.398 0 .723.047.972.141s.433.212.55.354c.117.143.199.322.246.538.025.136.039.379.039.73v1.055c0 .735.017 1.2.051 1.395.033.195.1.382.199.561h-.826c-.082-.164-.135-.356-.158-.576zm-.065-1.766c-.287.117-.718.217-1.292.299-.325.047-.555.1-.689.158s-.239.144-.312.257c-.073.112-.109.238-.109.376 0 .211.079.387.238.527.16.141.395.211.701.211.305 0 .576-.067.813-.2.237-.134.411-.315.522-.548.086-.178.128-.441.128-.791z" fill="#1d1d1b"/><path d="m370.457 223.7.114.698c-.223.047-.422.07-.598.07-.287 0-.51-.046-.668-.136-.158-.091-.27-.211-.334-.358-.064-.148-.097-.46-.097-.935v-2.685h-.58v-.615h.58v-1.155l.787-.475v1.63h.795v.615h-.795v2.729c0 .226.014.37.041.435s.073.116.137.153c.062.039.152.058.27.058.088.001.204-.009.348-.029z" fill="#1d1d1b"/><path d="m371.234 218.874v-.909h.791v.909zm0 5.533v-4.667h.791v4.667z" fill="#1d1d1b"/><path d="m374.526 224.407-1.775-4.667h.835l1.002 2.795c.108.302.208.615.299.94.07-.246.168-.542.295-.888l1.037-2.848h.812l-1.767 4.667h-.738z" fill="#1d1d1b"/><path d="m377.734 218.874v-.909h.791v.909zm0 5.533v-4.667h.791v4.667z" fill="#1d1d1b"/><path d="m381.457 223.7.113.698c-.223.047-.422.07-.598.07-.287 0-.51-.046-.668-.136-.158-.091-.27-.211-.334-.358-.064-.148-.096-.46-.096-.935v-2.685h-.58v-.615h.58v-1.155l.786-.475v1.63h.796v.615h-.796v2.729c0 .226.014.37.042.435.027.064.072.116.137.153.062.039.152.058.27.058.088.001.203-.009.348-.029z" fill="#1d1d1b"/><path d="m382.195 226.204-.088-.742c.172.047.323.07.452.07.176 0 .316-.029.422-.088s.192-.141.259-.246c.051-.079.131-.275.242-.589.015-.044.038-.108.07-.193l-1.771-4.676h.854l.971 2.702c.126.344.238.703.338 1.082.092-.363.199-.718.326-1.064l.997-2.72h.791l-1.775 4.746c-.19.513-.339.866-.444 1.06-.141.26-.301.451-.482.573-.182.121-.398.183-.65.183-.155-.001-.325-.034-.512-.098z" fill="#1d1d1b"/><path d="m395.118 217.962h51.471v62.5h-51.471z" fill="none"/><path d="m412.394 222.148.852.216c-.178.7-.5 1.233-.965 1.602-.464.367-1.031.551-1.702.551-.694 0-1.259-.141-1.694-.424-.436-.282-.766-.691-.992-1.229-.229-.535-.342-1.111-.342-1.727 0-.671.129-1.256.385-1.756.256-.499.621-.879 1.094-1.138.474-.26.994-.39 1.562-.39.645 0 1.188.165 1.627.492.439.329.745.79.918 1.385l-.84.197c-.148-.468-.365-.81-.65-1.023-.283-.214-.641-.32-1.072-.32-.494 0-.908.118-1.24.355-.334.237-.566.556-.701.956-.135.399-.203.812-.203 1.237 0 .548.08 1.025.24 1.435.159.408.408.714.744.916.338.202.702.304 1.095.304.478 0 .882-.138 1.213-.414.329-.274.554-.683.671-1.225z" fill="#1d1d1b"/><path d="m414.187 224.407v-4.667h.711v.708c.182-.331.35-.55.504-.655.153-.105.322-.158.508-.158.266 0 .537.085.812.255l-.272.734c-.193-.115-.387-.172-.58-.172-.173 0-.328.052-.466.156s-.236.248-.295.433c-.088.281-.131.589-.131.923v2.443z" fill="#1d1d1b"/><path d="m417.197 218.874v-.909h.791v.909zm0 5.533v-4.667h.791v4.667z" fill="#1d1d1b"/><path d="m420.919 223.7.113.698c-.223.047-.422.07-.598.07-.287 0-.51-.046-.668-.136-.158-.091-.27-.211-.334-.358-.064-.148-.096-.46-.096-.935v-2.685h-.58v-.615h.58v-1.155l.786-.475v1.63h.796v.615h-.796v2.729c0 .226.014.37.042.435.027.064.072.116.137.153.062.039.152.058.27.058.089.001.204-.009.348-.029z" fill="#1d1d1b"/><path d="m421.697 218.874v-.909h.791v.909zm0 5.533v-4.667h.791v4.667z" fill="#1d1d1b"/><path d="m426.738 222.698.777.101c-.085.536-.303.956-.652 1.259-.351.304-.78.455-1.29.455-.639 0-1.152-.209-1.54-.626-.389-.418-.582-1.016-.582-1.796 0-.503.083-.944.25-1.322s.421-.661.762-.851c.342-.188.713-.283 1.115-.283.506 0 .921.128 1.243.385.322.256.528.62.62 1.092l-.77.118c-.073-.312-.203-.549-.389-.707-.187-.158-.411-.237-.675-.237-.398 0-.722.143-.972.429-.248.285-.373.737-.373 1.355 0 .627.12 1.083.36 1.367s.554.426.94.426c.311 0 .57-.095.777-.285.211-.192.342-.486.399-.88z" fill="#1d1d1b"/><path d="m431.238 223.831c-.293.25-.576.426-.846.527-.271.103-.562.154-.873.154-.513 0-.906-.125-1.182-.376-.275-.25-.414-.57-.414-.96 0-.229.053-.438.156-.626.104-.189.24-.341.408-.455.169-.114.359-.2.57-.259.154-.041.389-.081.703-.119.639-.076 1.108-.167 1.41-.272.003-.108.004-.177.004-.206 0-.322-.074-.55-.224-.682-.202-.179-.503-.268-.901-.268-.371 0-.646.064-.824.195-.177.13-.308.361-.393.691l-.773-.105c.07-.33.186-.598.348-.802.16-.203.394-.36.698-.47.305-.11.657-.165 1.06-.165.398 0 .722.047.971.141s.432.212.549.354c.117.143.199.322.246.538.027.136.04.379.04.73v1.055c0 .735.017 1.2.05 1.395.034.195.102.382.201.561h-.826c-.082-.164-.135-.356-.158-.576zm-.067-1.766c-.287.117-.718.217-1.292.299-.325.047-.556.1-.69.158s-.238.144-.312.257c-.073.112-.11.238-.11.376 0 .211.08.387.24.527.159.141.393.211.701.211.305 0 .575-.067.812-.2.237-.134.412-.315.523-.548.084-.178.127-.441.127-.791v-.289z" fill="#1d1d1b"/><path d="m433.179 224.407v-6.442h.791v6.442z" fill="#1d1d1b"/><path d="m406.177 235.207v-5.682h-2.122v-.761h5.106v.761h-2.131v5.682z" fill="#1d1d1b"/><path d="m409.935 235.207v-6.442h.791v2.312c.369-.428.835-.642 1.397-.642.346 0 .646.068.901.204.254.137.438.325.547.564.109.241.164.59.164 1.047v2.957h-.791v-2.957c0-.396-.086-.684-.256-.864-.172-.18-.414-.271-.729-.271-.234 0-.455.062-.66.183-.207.122-.354.287-.442.495s-.132.495-.132.861v2.553z" fill="#1d1d1b"/><path d="m414.945 229.673v-.909h.791v.909zm0 5.534v-4.667h.791v4.667z" fill="#1d1d1b"/><path d="m416.94 235.207v-4.667h.712v.663c.343-.512.838-.769 1.485-.769.281 0 .54.051.776.151.234.102.412.234.529.398s.199.358.246.584c.029.146.043.403.043.77v2.869h-.791v-2.839c0-.322-.03-.563-.092-.723s-.171-.287-.328-.383c-.156-.095-.34-.143-.551-.143-.337 0-.628.107-.873.321-.244.214-.366.619-.366 1.217v2.549h-.79z" fill="#1d1d1b"/><path d="m421.95 235.207v-6.442h.791v3.674l1.872-1.898h1.023l-1.783 1.731 1.964 2.936h-.976l-1.543-2.387-.558.537v1.85h-.79z" fill="#1d1d1b"/><path d="m426.45 229.673v-.909h.791v.909zm0 5.534v-4.667h.791v4.667z" fill="#1d1d1b"/><path d="m428.445 235.207v-4.667h.712v.663c.343-.512.838-.769 1.485-.769.281 0 .539.051.775.151.236.102.412.234.529.398s.199.358.246.584c.029.146.045.403.045.77v2.869h-.791v-2.839c0-.322-.031-.563-.093-.723s-.171-.287-.327-.383c-.157-.095-.341-.143-.552-.143-.337 0-.628.107-.872.321-.245.214-.367.619-.367 1.217v2.549h-.79z" fill="#1d1d1b"/><path d="m433.305 235.593.769.114c.033.237.122.41.269.519.196.146.464.22.804.22.367 0 .649-.073.849-.22s.334-.352.404-.615c.041-.161.06-.499.058-1.016-.346.408-.777.611-1.293.611-.641 0-1.138-.231-1.489-.694s-.527-1.018-.527-1.665c0-.445.081-.856.241-1.233.162-.376.395-.667.701-.872s.666-.308 1.079-.308c.551 0 1.005.223 1.362.668v-.562h.729v4.034c0 .727-.074 1.241-.222 1.545-.148.303-.383.543-.703.719-.321.176-.716.264-1.185.264-.557 0-1.007-.126-1.349-.376-.344-.252-.509-.629-.497-1.133zm.655-2.803c0 .612.121 1.06.364 1.341s.548.422.914.422c.363 0 .668-.141.914-.42.246-.28.369-.719.369-1.316 0-.571-.127-1.002-.38-1.292-.254-.29-.559-.435-.916-.435-.352 0-.65.143-.896.428s-.369.709-.369 1.272z" fill="#1d1d1b"/><path d="m447.382 217.962h51.471v62.5h-51.471z" fill="none"/><path d="m461.307 224.407v-6.442h2.22c.5 0 .883.03 1.146.093.369.085.684.238.945.461.34.287.594.654.762 1.101s.253.958.253 1.532c0 .489-.058.922-.171 1.301-.115.377-.262.69-.439.938-.18.248-.375.442-.587.585-.213.142-.47.25-.77.323s-.646.109-1.034.109h-2.325zm.853-.76h1.375c.426 0 .759-.04 1-.119.242-.079.435-.19.578-.334.202-.202.359-.474.473-.815.112-.341.169-.755.169-1.241 0-.674-.11-1.191-.332-1.554-.222-.361-.489-.604-.806-.728-.229-.088-.597-.131-1.104-.131h-1.354v4.922z" fill="#1d1d1b"/><path d="m467.71 218.874v-.909h.791v.909zm0 5.533v-4.667h.791v4.667z" fill="#1d1d1b"/><path d="m469.56 224.793.77.114c.031.237.121.41.268.519.196.146.465.22.805.22.365 0 .648-.073.848-.22s.334-.352.404-.615c.041-.161.061-.499.057-1.016-.346.408-.775.611-1.291.611-.643 0-1.139-.231-1.49-.694s-.527-1.018-.527-1.665c0-.445.08-.856.242-1.233.16-.376.395-.667.7-.872s.666-.308 1.079-.308c.551 0 1.005.223 1.362.668v-.562h.729v4.034c0 .727-.074 1.241-.222 1.545-.148.303-.383.543-.703.719-.321.176-.716.264-1.185.264-.557 0-1.006-.126-1.35-.376-.342-.252-.508-.629-.496-1.133zm.654-2.803c0 .612.122 1.06.365 1.341s.548.422.914.422c.363 0 .668-.141.914-.42.246-.28.369-.719.369-1.316 0-.571-.127-1.002-.38-1.292-.254-.29-.56-.435-.917-.435-.352 0-.65.143-.896.428s-.369.709-.369 1.272z" fill="#1d1d1b"/><path d="m474.714 218.874v-.909h.791v.909zm0 5.533v-4.667h.791v4.667z" fill="#1d1d1b"/><path d="m478.437 223.7.114.698c-.223.047-.422.07-.598.07-.287 0-.51-.046-.668-.136-.158-.091-.27-.211-.334-.358-.064-.148-.097-.46-.097-.935v-2.685h-.58v-.615h.58v-1.155l.787-.475v1.63h.795v.615h-.795v2.729c0 .226.014.37.041.435s.073.116.137.153c.062.039.152.058.27.058.088.001.204-.009.348-.029z" fill="#1d1d1b"/><path d="m482.255 223.831c-.293.25-.574.426-.846.527-.271.103-.562.154-.872.154-.513 0-.907-.125-1.183-.376-.275-.25-.412-.57-.412-.96 0-.229.051-.438.156-.626.104-.189.239-.341.408-.455.168-.114.357-.2.568-.259.156-.041.391-.081.703-.119.639-.076 1.109-.167 1.411-.272.003-.108.005-.177.005-.206 0-.322-.075-.55-.225-.682-.202-.179-.502-.268-.9-.268-.373 0-.647.064-.824.195-.178.13-.309.361-.394.691l-.773-.105c.07-.33.187-.598.347-.802.162-.203.395-.36.699-.47.305-.11.658-.165 1.059-.165.398 0 .723.047.972.141s.433.212.55.354c.117.143.199.322.246.538.025.136.039.379.039.73v1.055c0 .735.017 1.2.051 1.395.033.195.1.382.199.561h-.826c-.081-.164-.134-.356-.158-.576zm-.065-1.766c-.287.117-.718.217-1.292.299-.325.047-.555.1-.689.158s-.239.144-.312.257c-.073.112-.109.238-.109.376 0 .211.079.387.238.527.16.141.395.211.701.211.305 0 .576-.067.813-.2.237-.134.411-.315.522-.548.086-.178.128-.441.128-.791z" fill="#1d1d1b"/><path d="m484.199 224.407v-6.442h.791v6.442z" fill="#1d1d1b"/><path d="m458.021 235.207v-6.442h.852v5.683h3.174v.76h-4.026z" fill="#1d1d1b"/><path d="m462.964 229.673v-.909h.791v.909zm0 5.534v-4.667h.791v4.667z" fill="#1d1d1b"/><path d="m466.687 234.5.113.698c-.223.047-.422.07-.598.07-.287 0-.51-.046-.668-.136-.158-.091-.27-.211-.334-.358-.064-.148-.096-.46-.096-.935v-2.685h-.58v-.615h.58v-1.155l.786-.475v1.63h.796v.615h-.796v2.729c0 .226.014.37.042.435.027.064.072.116.137.153.062.039.152.058.27.058.088.001.203-.009.348-.029z" fill="#1d1d1b"/><path d="m470.655 233.704.817.101c-.129.479-.367.849-.717 1.112-.348.264-.793.396-1.336.396-.682 0-1.224-.21-1.623-.631-.4-.42-.6-1.01-.6-1.769 0-.785.201-1.395.605-1.828s.93-.65 1.574-.65c.623 0 1.133.213 1.529.638.395.425.593 1.022.593 1.793 0 .047-.001.117-.005.211h-3.48c.029.513.175.904.436 1.178.261.271.586.408.976.408.29 0 .538-.076.743-.229s.368-.396.488-.73zm-2.597-1.279h2.605c-.035-.393-.135-.688-.299-.884-.252-.305-.578-.457-.98-.457-.363 0-.668.122-.916.364-.248.245-.385.57-.41.977z" fill="#1d1d1b"/><path d="m472.457 235.207v-4.667h.712v.708c.182-.331.349-.55.503-.655s.323-.158.508-.158c.267 0 .537.085.812.255l-.271.734c-.193-.115-.387-.172-.58-.172-.174 0-.328.052-.467.156-.137.104-.235.248-.294.433-.088.281-.132.589-.132.923v2.443z" fill="#1d1d1b"/><path d="m478.507 234.63c-.293.25-.574.426-.846.527-.271.103-.562.154-.872.154-.513 0-.907-.125-1.183-.376-.275-.25-.412-.57-.412-.96 0-.229.051-.438.156-.626.104-.189.239-.341.408-.455.168-.114.357-.2.568-.259.156-.041.391-.081.703-.119.639-.076 1.109-.167 1.411-.272.003-.108.005-.177.005-.206 0-.322-.075-.55-.225-.682-.202-.179-.502-.268-.9-.268-.373 0-.647.064-.824.195-.178.13-.309.361-.394.691l-.773-.105c.07-.33.187-.598.347-.802.162-.203.395-.36.699-.47.305-.11.658-.165 1.059-.165.398 0 .723.047.972.141s.433.212.55.354c.117.143.199.322.246.538.025.136.039.379.039.73v1.055c0 .735.017 1.2.051 1.395.033.195.1.382.199.561h-.826c-.082-.164-.134-.355-.158-.576zm-.065-1.765c-.287.117-.718.217-1.292.299-.325.047-.555.1-.689.158s-.239.144-.312.257c-.073.112-.109.238-.109.376 0 .211.079.387.238.527.16.141.395.211.701.211.305 0 .576-.067.813-.2.237-.134.411-.315.522-.548.086-.178.128-.441.128-.791z" fill="#1d1d1b"/><path d="m483.513 233.498.777.101c-.084.536-.303.956-.652 1.259-.35.304-.779.455-1.289.455-.639 0-1.152-.209-1.541-.626-.389-.418-.582-1.016-.582-1.796 0-.503.084-.944.25-1.322.168-.378.422-.661.763-.851.341-.188.713-.283 1.114-.283.507 0 .922.128 1.244.385.322.256.528.62.619 1.092l-.77.118c-.072-.312-.203-.549-.389-.707s-.41-.237-.674-.237c-.398 0-.723.143-.972.429-.249.285-.374.737-.374 1.355 0 .627.121 1.083.361 1.367s.553.426.939.426c.311 0 .57-.095.778-.285s.343-.486.398-.88z" fill="#1d1d1b"/><path d="m484.933 237.003-.088-.742c.172.047.323.07.452.07.176 0 .316-.029.422-.088s.192-.141.259-.246c.051-.079.131-.275.242-.589.015-.044.038-.108.07-.193l-1.771-4.676h.854l.971 2.702c.126.344.238.703.338 1.082.092-.363.199-.718.326-1.064l.997-2.72h.791l-1.775 4.746c-.19.513-.339.866-.444 1.06-.141.26-.301.451-.482.573-.182.121-.398.183-.65.183-.154 0-.324-.033-.512-.098z" fill="#1d1d1b"/></svg>