<?xml version="1.0" encoding="utf-8"?>
<!-- Generator: Adobe Illustrator 16.0.0, SVG Export Plug-In . SVG Version: 6.00 Build 0)  -->
<!DOCTYPE svg PUBLIC "-//W3C//DTD SVG 1.1//EN" "http://www.w3.org/Graphics/SVG/1.1/DTD/svg11.dtd">
<svg version="1.1" id="Layer_1" xmlns="http://www.w3.org/2000/svg" xmlns:xlink="http://www.w3.org/1999/xlink" x="0px" y="0px"
	 width="397.122px" height="233.763px" viewBox="0 0 397.122 233.763" enable-background="new 0 0 397.122 233.763"
	 xml:space="preserve">
<g>
	<g>
		<defs>
			<rect id="SVGID_1_" x="-7.777" y="-9.183" width="412" height="242.001"/>
		</defs>
		<clipPath id="SVGID_2_">
			<use xlink:href="#SVGID_1_"  overflow="visible"/>
		</clipPath>
		
			<rect x="-7.777" y="-9.183" opacity="0" clip-path="url(#SVGID_2_)" fill-rule="evenodd" clip-rule="evenodd" fill="#FFFFFF" width="412" height="242.001"/>
		
			<rect x="-7.777" y="-8.683" clip-path="url(#SVGID_2_)" fill-rule="evenodd" clip-rule="evenodd" fill="#FFFFFF" width="411.5" height="241.001"/>
	</g>
	<g>
		<defs>
			<rect id="SVGID_3_" x="-7.777" y="-8.238" width="411" height="241.001"/>
		</defs>
		<clipPath id="SVGID_4_">
			<use xlink:href="#SVGID_3_"  overflow="visible"/>
		</clipPath>
		
			<line clip-path="url(#SVGID_4_)" fill="none" stroke="#000000" stroke-linejoin="round" stroke-miterlimit="10" x1="374.461" y1="213.224" x2="374.461" y2="13.857"/>
	</g>
	<g>
		<defs>
			<rect id="SVGID_5_" x="-7.777" y="-8.238" width="411" height="241.001"/>
		</defs>
		<clipPath id="SVGID_6_">
			<use xlink:href="#SVGID_5_"  overflow="visible"/>
		</clipPath>
		<path clip-path="url(#SVGID_6_)" fill="none" stroke="#000000" stroke-linejoin="round" stroke-miterlimit="10" d="
			M371.223,14.262h3 M371.223,53.262h3 M371.223,93.262h3 M371.223,133.263h3 M371.223,173.263h3 M371.223,213.224h3"/>
	</g>
	<g>
		<defs>
			<rect id="SVGID_7_" x="-7.777" y="-8.238" width="411" height="241.001"/>
		</defs>
		<clipPath id="SVGID_8_">
			<use xlink:href="#SVGID_7_"  overflow="visible"/>
		</clipPath>
		
			<line clip-path="url(#SVGID_8_)" fill="none" stroke="#000000" stroke-linejoin="round" stroke-miterlimit="10" x1="21.484" y1="213.224" x2="21.484" y2="13.857"/>
	</g>
	<g>
		<defs>
			<rect id="SVGID_9_" x="-7.777" y="-8.238" width="411" height="241.001"/>
		</defs>
		<clipPath id="SVGID_10_">
			<use xlink:href="#SVGID_9_"  overflow="visible"/>
		</clipPath>
		<path clip-path="url(#SVGID_10_)" fill="none" stroke="#000000" stroke-linejoin="round" stroke-miterlimit="10" d="
			M21.223,14.262h3 M21.223,53.262h3 M21.223,93.262h3 M21.223,133.263h3 M21.223,173.263h3 M21.223,213.224h3"/>
	</g>
	<g>
		<defs>
			<rect id="SVGID_11_" x="-7.777" y="-8.238" width="411" height="241.001"/>
		</defs>
		<clipPath id="SVGID_12_">
			<use xlink:href="#SVGID_11_"  overflow="visible"/>
		</clipPath>
		
			<line clip-path="url(#SVGID_12_)" fill="none" stroke="#000000" stroke-linejoin="round" stroke-miterlimit="10" x1="21.484" y1="213.224" x2="374.461" y2="213.224"/>
	</g>
	<g>
		<defs>
			<rect id="SVGID_13_" x="-7.777" y="-8.238" width="411" height="241.001"/>
		</defs>
		<clipPath id="SVGID_14_">
			<use xlink:href="#SVGID_13_"  overflow="visible"/>
		</clipPath>
		<path clip-path="url(#SVGID_14_)" fill="none" stroke="#000000" stroke-linejoin="round" stroke-miterlimit="10" d="
			M373.223,210.263v2.961 M315.223,210.263v2.961 M256.223,210.263v2.961 M197.223,210.263v2.961 M139.223,210.263v2.961
			 M80.223,210.263v2.961 M21.223,210.263v2.961"/>
	</g>
	<g>
		<defs>
			<rect id="SVGID_15_" x="21.223" y="13.762" width="353" height="200.001"/>
		</defs>
		<clipPath id="SVGID_16_">
			<use xlink:href="#SVGID_15_"  overflow="visible"/>
		</clipPath>
		
			<path clip-path="url(#SVGID_16_)" fill="none" stroke="#6CABDD" stroke-width="2.25" stroke-linecap="round" stroke-linejoin="round" stroke-miterlimit="10" d="
			M371.223,70.262l2.75-1 M368.223,70.262h3 M365.223,70.262h3 M362.223,70.262h3 M359.223,70.262h3 M356.223,70.262h3
			 M353.223,71.262l3-1 M350.223,72.262l3-1 M347.223,73.262l3-1 M344.223,73.262h3 M341.223,73.262h3 M339.223,74.262l2-1
			 M336.223,74.262h3 M333.223,74.262h3 M330.223,74.262h3 M327.223,73.262l3,1 M324.223,73.262h3 M321.223,74.262l3-1
			 M318.223,75.262l3-1 M315.223,75.262h3 M312.223,75.262h3 M309.223,75.262h3 M306.223,75.262h3 M303.223,75.262h3
			 M300.223,74.262l3,1 M297.223,73.262l3,1 M295.223,74.262l2-1 M292.223,76.262l3-2 M289.223,78.262l3-2 M286.223,79.262l3-1
			 M283.223,79.262h3 M280.223,79.262h3 M277.223,79.262h3 M274.223,79.262h3 M271.223,79.262h3 M268.223,80.262l3-1
			 M265.223,81.262l3-1 M262.223,82.262l3-1 M259.223,82.262h3 M256.223,82.262h3 M253.223,81.262l3,1 M251.223,82.262l2-1
			 M248.223,82.262h3 M245.223,83.262l3-1 M242.223,84.262l3-1 M239.223,84.262h3 M236.223,84.262h3 M233.223,84.262h3
			 M230.223,85.262l3-1 M227.223,85.262h3 M224.223,86.262l3-1 M221.223,87.262l3-1 M218.223,88.262l3-1 M215.223,88.262h3
			 M212.223,88.262h3 M209.223,87.262l3,1 M207.223,86.262l2,1 M204.223,86.262h3 M201.223,86.262h3 M198.223,87.262l3-1
			 M195.223,88.262l3-1 M192.223,89.262l3-1 M189.223,90.262l3-1 M186.223,91.262l3-1 M183.223,91.262h3 M180.223,92.262l3-1
			 M177.223,92.262h3 M174.223,93.262l3-1 M171.223,93.262h3 M168.223,93.262h3 M165.223,93.262h3 M163.223,94.262l2-1
			 M160.223,95.262l3-1 M157.223,95.262h3 M154.223,96.262l3-1 M151.223,96.262h3 M148.223,96.262h3 M145.223,97.262l3-1
			 M142.223,97.262h3 M139.223,97.262h3 M136.223,96.262l3,1 M133.223,95.262l3,1 M130.223,96.262l3-1 M127.223,97.262l3-1
			 M124.223,97.262h3 M121.223,97.262h3 M119.223,97.262h2 M116.223,97.262h3 M113.223,96.262l3,1 M110.223,96.262h3
			 M107.223,95.262l3,1 M104.223,95.262h3 M101.223,95.262h3 M98.223,95.262h3 M95.223,95.262h3 M92.223,95.262h3 M89.223,96.262
			l3-1 M86.223,96.262h3 M83.223,96.262h3 M80.223,96.262h3 M77.223,97.262l3-1 M75.223,98.262l2-1 M72.223,99.262l3-1
			 M69.223,100.262l3-1 M66.223,100.262h3 M63.223,101.262l3-1 M60.223,102.262l3-1 M57.223,103.262l3-1 M54.223,103.262h3
			 M51.223,103.262h3 M48.223,102.262l3,1 M45.223,102.262h3 M42.223,102.262h3 M39.223,102.262h3 M36.223,102.262h3
			 M33.223,102.262h3 M31.223,102.262h2 M28.223,103.262l3-1 M25.223,103.262h3 M22.223,104.262l3-1"/>
	</g>
	<g>
		<defs>
			<rect id="SVGID_17_" x="21.223" y="13.762" width="353" height="200.001"/>
		</defs>
		<clipPath id="SVGID_18_">
			<use xlink:href="#SVGID_17_"  overflow="visible"/>
		</clipPath>
		
			<path clip-path="url(#SVGID_18_)" fill="none" stroke="#B3B3B3" stroke-width="2.25" stroke-linecap="round" stroke-linejoin="round" stroke-miterlimit="10" d="
			M371.223,118.263l2.75,1.584 M368.223,118.263h3 M365.223,119.263l3-1 M362.223,119.263h3 M359.223,119.263h3 M356.223,119.263h3
			 M353.223,119.263h3 M350.223,118.263l3,1 M347.223,118.263h3 M344.223,117.263l3,1 M341.223,117.263h3 M339.223,117.263h2
			 M336.223,116.263l3,1 M333.223,116.263h3 M330.223,117.263l3-1 M327.223,117.263h3 M324.223,117.263h3 M321.223,116.263l3,1
			 M318.223,116.263h3 M315.223,116.263h3 M312.223,115.263l3,1 M309.223,115.263h3 M306.223,115.263h3 M303.223,115.263h3
			 M300.223,116.263l3-1 M297.223,116.263h3 M295.223,115.263l2,1 M292.223,114.263l3,1 M289.223,114.263h3 M286.223,114.263h3
			 M283.223,114.263h3 M280.223,114.263h3 M277.223,114.263h3 M274.223,114.263h3 M271.223,113.263l3,1 M268.223,113.263h3
			 M265.223,113.263h3 M262.223,112.262l3,1.001 M259.223,111.262l3,1 M256.223,111.262h3 M253.223,110.262l3,1 M251.223,109.262
			l2,1 M248.223,109.262h3 M245.223,108.262l3,1 M242.223,108.262h3 M239.223,109.262l3-1 M236.223,109.262h3 M233.223,109.262h3
			 M230.223,109.262h3 M227.223,108.262l3,1 M224.223,107.262l3,1 M221.223,106.262l3,1 M218.223,105.262l3,1 M215.223,105.262h3
			 M212.223,105.262h3 M209.223,106.262l3-1 M207.223,107.262l2-1 M204.223,107.262h3 M201.223,107.262h3 M198.223,106.262l3,1
			 M195.223,105.262l3,1 M192.223,104.262l3,1 M189.223,104.262h3 M186.223,104.262h3 M183.223,105.262l3-1 M180.223,106.262l3-1
			 M177.223,106.262h3 M174.223,105.262l3,1 M171.223,105.262h3 M168.223,106.262l3-1 M165.223,106.262h3 M163.223,105.262l2,1
			 M160.223,104.262l3,1 M157.223,104.262h3 M154.223,104.262h3 M151.223,105.262l3-1 M148.223,106.262l3-1 M145.223,105.262l3,1
			 M142.223,105.262h3 M139.223,104.262l3,1 M136.223,104.262h3 M133.223,104.262h3 M130.223,104.262h3 M127.223,105.262l3-1
			 M124.223,104.262l3,1 M121.223,104.262h3 M119.223,104.262h2 M116.223,104.262h3 M113.223,104.262h3 M110.223,105.262l3-1
			 M107.223,105.262h3 M104.223,105.262h3 M101.223,105.262h3 M98.223,105.262h3 M95.223,105.262h3 M92.223,105.262h3
			 M89.223,105.262h3 M86.223,105.262h3 M83.223,105.262h3 M80.223,105.262h3 M77.223,105.262h3 M75.223,105.262h2 M72.223,105.262
			h3 M69.223,105.262h3 M66.223,105.262h3 M63.223,105.262h3 M60.223,105.262h3 M57.223,105.262h3 M54.223,106.262l3-1
			 M51.223,106.262h3 M48.223,107.262l3-1 M45.223,106.262l3,1 M42.223,106.262h3 M39.223,105.262l3,1 M36.223,105.262h3
			 M33.223,105.262h3 M31.223,105.262h2 M28.223,106.262l3-1 M25.223,106.262h3 M22.223,105.262l3,1"/>
	</g>
	<g>
		<defs>
			<rect id="SVGID_19_" x="21.223" y="13.762" width="353" height="200.001"/>
		</defs>
		<clipPath id="SVGID_20_">
			<use xlink:href="#SVGID_19_"  overflow="visible"/>
		</clipPath>
		
			<path clip-path="url(#SVGID_20_)" fill="none" stroke="#FDC806" stroke-width="2.25" stroke-linecap="round" stroke-linejoin="round" stroke-miterlimit="10" d="
			M371.223,93.808l2.75-0.546 M368.223,93.808h3 M365.223,93.262l3,0.546 M362.223,92.262l3,1 M359.223,91.262l3,1 M356.223,90.262
			l3,1 M353.223,90.262h3 M350.223,90.262h3 M347.223,90.262h3 M344.223,90.262h3 M341.223,90.262h3 M339.223,89.262l2,1
			 M336.223,89.262h3 M333.223,88.262l3,1 M330.223,88.262h3 M327.223,88.262h3 M324.223,88.262h3 M321.223,88.262h3
			 M318.223,88.262h3 M315.223,88.262h3 M312.223,87.262l3,1 M309.223,87.262h3 M306.223,87.262h3 M303.223,87.262h3
			 M300.223,88.262l3-1 M297.223,88.262h3 M295.223,88.262h2 M292.223,87.262l3,1 M289.223,85.262l3,2 M286.223,84.262l3,1
			 M283.223,82.262l3,2 M280.223,82.262h3 M277.223,82.262h3 M274.223,82.262h3 M271.223,81.262l3,1 M268.223,81.262h3
			 M265.223,81.262h3 M262.223,81.262h3 M259.223,81.262h3 M256.223,82.262l3-1 M253.223,83.262l3-1 M251.223,84.262l2-1
			 M248.223,84.262h3 M245.223,83.262l3,1 M242.223,82.262l3,1 M239.223,81.262l3,1 M236.223,80.262l3,1 M233.223,80.262h3
			 M230.223,80.262h3 M227.223,81.262l3-1 M224.223,81.262h3 M221.223,81.262h3 M218.223,81.262h3 M215.223,81.262h3
			 M212.223,81.262h3 M209.223,80.262l3,1 M207.223,80.262h2 M204.223,80.262h3 M201.223,80.262h3 M198.223,80.262h3
			 M195.223,80.262h3 M192.223,79.262l3,1 M189.223,78.262l3,1 M186.223,77.262l3,1 M183.223,75.262l3,2 M180.223,74.262l3,1
			 M177.223,74.262h3 M174.223,74.262h3 M171.223,74.262h3 M168.223,74.262h3 M165.223,73.262l3,1 M163.223,73.262h2
			 M160.223,72.262l3,1 M157.223,72.262h3 M154.223,72.262h3 M151.223,71.262l3,1 M148.223,70.262l3,1 M145.223,69.262l3,1
			 M142.223,69.262h3 M139.223,69.262h3 M136.223,69.262h3 M133.223,69.262h3 M130.223,68.262l3,1 M127.223,68.262h3
			 M124.223,67.262l3,1 M121.223,67.262h3 M119.223,67.262h2 M116.223,67.262h3 M113.223,67.262h3 M110.223,66.262l3,1
			 M107.223,66.262h3 M104.223,66.262h3 M101.223,66.262h3 M98.223,67.262l3-1 M95.223,67.262h3 M92.223,66.262l3,1 M89.223,65.262
			l3,1 M86.223,65.262h3 M83.223,65.262h3 M80.223,64.262l3,1 M77.223,63.262l3,1 M75.223,62.262l2,1 M72.223,61.262l3,1
			 M69.223,60.262l3,1 M66.223,59.262l3,1 M63.223,58.262l3,1 M60.223,57.262l3,1 M57.223,56.262l3,1 M54.223,55.262l3,1
			 M51.223,55.262h3 M48.223,55.262h3 M45.223,55.262h3 M42.223,56.262l3-1 M39.223,55.262l3,1 M36.223,55.262h3 M33.223,55.262h3
			 M31.223,55.262h2 M28.223,54.262l3,1 M25.223,53.262l3,1 M22.223,52.262l3,1"/>
	</g>
	<g>
		<defs>
			<rect id="SVGID_21_" x="21.223" y="13.762" width="353" height="200.001"/>
		</defs>
		<clipPath id="SVGID_22_">
			<use xlink:href="#SVGID_21_"  overflow="visible"/>
		</clipPath>
		
			<path clip-path="url(#SVGID_22_)" fill="none" stroke="#F1903F" stroke-width="2.25" stroke-linecap="round" stroke-linejoin="round" stroke-miterlimit="10" d="
			M371.223,171.263h2.75 M368.223,171.263h3 M365.223,172.263l3-1 M362.223,172.263h3 M359.223,173.263l3-1 M356.223,173.263h3
			 M353.223,173.263h3 M350.223,173.263h3 M347.223,173.263h3 M344.223,173.263h3 M341.223,173.263h3 M339.223,173.263h2
			 M336.223,174.263l3-1 M333.223,174.263h3 M330.223,175.263l3-1 M327.223,175.263h3 M324.223,175.263h3 M321.223,175.263h3
			 M318.223,175.263h3 M315.223,175.263h3 M312.223,175.263h3 M309.223,175.263h3 M306.223,175.263h3 M303.223,176.263l3-1
			 M300.223,176.263h3 M297.223,176.263h3 M295.223,176.263h2 M292.223,176.263h3 M289.223,176.263h3 M286.223,177.263l3-1
			 M283.223,178.263l3-1 M280.223,178.263h3 M277.223,179.263l3-1 M274.223,179.263h3 M271.223,179.263h3 M268.223,179.263h3
			 M265.223,178.263l3,1 M262.223,178.263h3 M259.223,178.263h3 M256.223,179.263l3-1 M253.223,179.263h3 M251.223,179.263h2
			 M248.223,178.263l3,1 M245.223,179.263l3-1 M242.223,179.263h3 M239.223,179.263h3 M236.223,179.263h3 M233.223,179.263h3
			 M230.223,179.263h3 M227.223,179.263h3 M224.223,179.263h3 M221.223,179.263h3 M218.223,179.263h3 M215.223,179.263h3
			 M212.223,179.263h3 M209.223,180.263l3-1 M207.223,180.263h2 M204.223,180.263h3 M201.223,180.263h3 M198.223,180.263h3
			 M195.223,180.263h3 M192.223,181.263l3-1 M189.223,181.263h3 M186.223,181.263h3 M183.223,181.263h3 M180.223,182.263l3-1
			 M177.223,182.263h3 M174.223,181.263l3,1 M171.223,181.263h3 M168.223,181.263h3 M165.223,181.263h3 M163.223,182.263l2-1
			 M160.223,182.263h3 M157.223,182.263h3 M154.223,182.263h3 M151.223,182.263h3 M148.223,182.263h3 M145.223,182.263h3
			 M142.223,183.263l3-1 M139.223,184.263l3-1 M136.223,185.263l3-1 M133.223,185.263h3 M130.223,185.263h3 M127.223,185.263h3
			 M124.223,185.263h3 M121.223,185.263h3 M119.223,186.263l2-1 M116.223,186.263h3 M113.223,186.263h3 M110.223,186.263h3
			 M107.223,187.263l3-1 M104.223,187.263h3 M101.223,187.263h3 M98.223,187.263h3 M95.223,186.263l3,1 M92.223,186.263h3
			 M89.223,186.263h3 M86.223,187.263l3-1 M83.223,187.263h3 M80.223,188.263l3-1 M77.223,188.263h3 M75.223,188.263h2
			 M72.223,188.263h3 M69.223,188.263h3 M66.223,188.263h3 M63.223,189.263l3-1 M60.223,190.263l3-1 M57.223,190.263h3
			 M54.223,190.263h3 M51.223,190.263h3 M48.223,189.263l3,1 M45.223,190.263l3-1 M42.223,190.263h3 M39.223,190.263h3
			 M36.223,191.263l3-1 M33.223,191.263h3 M31.223,191.263h2 M28.223,191.263h3 M25.223,191.263h3 M22.223,191.263h3"/>
	</g>
	<g>
		<defs>
			<rect id="SVGID_23_" x="-7.777" y="-8.238" width="411" height="241.001"/>
		</defs>
		<clipPath id="SVGID_24_">
			<use xlink:href="#SVGID_23_"  overflow="visible"/>
		</clipPath>
		<g clip-path="url(#SVGID_24_)">
			<path d="M383.475,213.693c0-0.846,0.088-1.527,0.262-2.043s0.434-0.914,0.776-1.193c0.343-0.281,0.775-0.42,1.296-0.42
				c0.385,0,0.722,0.076,1.012,0.232c0.289,0.154,0.528,0.377,0.717,0.668c0.189,0.291,0.338,0.646,0.445,1.064
				s0.16,0.982,0.16,1.691c0,0.84-0.086,1.518-0.258,2.035c-0.173,0.516-0.432,0.914-0.774,1.195s-0.777,0.422-1.302,0.422
				c-0.689,0-1.231-0.246-1.625-0.742C383.711,216.007,383.475,215.039,383.475,213.693z M384.379,213.693
				c0,1.176,0.137,1.957,0.412,2.348c0.275,0.389,0.614,0.582,1.018,0.582c0.404,0,0.744-0.195,1.019-0.586s0.413-1.172,0.413-2.344
				c0-1.178-0.139-1.961-0.413-2.348c-0.274-0.389-0.618-0.582-1.028-0.582c-0.403,0-0.726,0.172-0.967,0.514
				C384.53,211.712,384.379,212.519,384.379,213.693z"/>
		</g>
	</g>
	<g>
		<defs>
			<rect id="SVGID_25_" x="-7.777" y="-8.238" width="411" height="241.001"/>
		</defs>
		<clipPath id="SVGID_26_">
			<use xlink:href="#SVGID_25_"  overflow="visible"/>
		</clipPath>
		<g clip-path="url(#SVGID_26_)">
			<path d="M386.786,177.351h-0.879v-5.602c-0.211,0.203-0.488,0.404-0.832,0.605c-0.344,0.203-0.652,0.354-0.926,0.455v-0.85
				c0.492-0.232,0.922-0.512,1.289-0.84c0.368-0.33,0.629-0.648,0.781-0.957h0.566V177.351z"/>
			<path d="M389.038,173.82c0-0.846,0.086-1.527,0.261-2.043s0.433-0.914,0.776-1.193c0.344-0.281,0.775-0.42,1.297-0.42
				c0.384,0,0.721,0.076,1.01,0.232c0.29,0.154,0.529,0.377,0.719,0.668c0.188,0.291,0.336,0.646,0.443,1.064
				s0.162,0.982,0.162,1.691c0,0.84-0.087,1.518-0.26,2.035c-0.172,0.516-0.43,0.914-0.773,1.195s-0.777,0.422-1.301,0.422
				c-0.69,0-1.232-0.246-1.627-0.742C389.273,176.134,389.038,175.166,389.038,173.82z M389.94,173.82
				c0,1.176,0.139,1.957,0.413,2.348c0.274,0.389,0.614,0.582,1.019,0.582c0.403,0,0.742-0.195,1.018-0.586s0.412-1.172,0.412-2.344
				c0-1.178-0.137-1.961-0.412-2.348c-0.275-0.389-0.617-0.582-1.027-0.582c-0.404,0-0.727,0.172-0.967,0.514
				C390.092,171.839,389.94,172.646,389.94,173.82z"/>
		</g>
	</g>
	<g>
		<defs>
			<rect id="SVGID_27_" x="-7.777" y="-8.238" width="411" height="241.001"/>
		</defs>
		<clipPath id="SVGID_28_">
			<use xlink:href="#SVGID_27_"  overflow="visible"/>
		</clipPath>
		<g clip-path="url(#SVGID_28_)">
			<path d="M388.094,136.632v0.846h-4.73c-0.007-0.213,0.027-0.416,0.102-0.611c0.121-0.322,0.314-0.639,0.579-0.951
				s0.648-0.674,1.149-1.084c0.778-0.639,1.305-1.145,1.578-1.516c0.273-0.373,0.41-0.727,0.41-1.059
				c0-0.348-0.125-0.641-0.374-0.881c-0.249-0.238-0.573-0.359-0.974-0.359c-0.424,0-0.762,0.127-1.016,0.381
				s-0.383,0.605-0.387,1.055l-0.902-0.092c0.062-0.674,0.294-1.188,0.697-1.541c0.404-0.354,0.946-0.529,1.627-0.529
				c0.687,0,1.23,0.189,1.631,0.57s0.6,0.854,0.6,1.416c0,0.287-0.059,0.568-0.176,0.846c-0.117,0.275-0.311,0.568-0.583,0.873
				c-0.272,0.307-0.724,0.727-1.354,1.26c-0.527,0.443-0.866,0.744-1.016,0.902c-0.15,0.156-0.273,0.316-0.371,0.475H388.094z"/>
			<path d="M389.038,133.947c0-0.846,0.086-1.527,0.261-2.043s0.433-0.914,0.776-1.193c0.344-0.281,0.775-0.42,1.297-0.42
				c0.384,0,0.721,0.076,1.01,0.232c0.29,0.154,0.529,0.377,0.719,0.668c0.188,0.291,0.336,0.646,0.443,1.064
				s0.162,0.982,0.162,1.691c0,0.84-0.087,1.518-0.26,2.035c-0.172,0.516-0.43,0.914-0.773,1.195s-0.777,0.422-1.301,0.422
				c-0.69,0-1.232-0.246-1.627-0.742C389.273,136.261,389.038,135.292,389.038,133.947z M389.94,133.947
				c0,1.176,0.139,1.957,0.413,2.348c0.274,0.389,0.614,0.582,1.019,0.582c0.403,0,0.742-0.195,1.018-0.586s0.412-1.172,0.412-2.344
				c0-1.178-0.137-1.961-0.412-2.348c-0.275-0.389-0.617-0.582-1.027-0.582c-0.404,0-0.727,0.172-0.967,0.514
				C390.092,131.966,389.94,132.773,389.94,133.947z"/>
		</g>
	</g>
	<g>
		<defs>
			<rect id="SVGID_29_" x="-7.777" y="-8.238" width="411" height="241.001"/>
		</defs>
		<clipPath id="SVGID_30_">
			<use xlink:href="#SVGID_29_"  overflow="visible"/>
		</clipPath>
		<g clip-path="url(#SVGID_30_)">
			<path d="M383.481,95.715l0.879-0.117c0.101,0.498,0.271,0.856,0.515,1.077c0.243,0.219,0.538,0.329,0.886,0.329
				c0.414,0,0.764-0.144,1.048-0.43s0.427-0.642,0.427-1.064c0-0.403-0.131-0.736-0.395-0.999c-0.264-0.262-0.6-0.393-1.006-0.393
				c-0.166,0-0.373,0.032-0.621,0.098l0.098-0.771c0.059,0.007,0.106,0.01,0.143,0.01c0.374,0,0.711-0.098,1.01-0.293
				c0.3-0.195,0.449-0.496,0.449-0.903c0-0.322-0.108-0.589-0.326-0.801c-0.219-0.212-0.5-0.317-0.846-0.317
				c-0.342,0-0.626,0.107-0.854,0.322c-0.229,0.215-0.375,0.537-0.439,0.967l-0.879-0.156c0.107-0.589,0.352-1.046,0.732-1.369
				c0.381-0.324,0.854-0.486,1.42-0.486c0.391,0,0.751,0.084,1.08,0.252c0.328,0.167,0.58,0.396,0.754,0.686
				s0.262,0.598,0.262,0.923c0,0.31-0.084,0.591-0.25,0.845s-0.411,0.456-0.736,0.605c0.423,0.098,0.752,0.301,0.986,0.607
				c0.234,0.309,0.352,0.693,0.352,1.155c0,0.625-0.229,1.155-0.684,1.589c-0.456,0.436-1.032,0.652-1.729,0.652
				c-0.629,0-1.15-0.188-1.565-0.562S383.54,96.311,383.481,95.715z"/>
			<path d="M389.038,94.075c0-0.847,0.086-1.527,0.261-2.044c0.175-0.516,0.433-0.913,0.776-1.193s0.775-0.42,1.297-0.42
				c0.384,0,0.721,0.077,1.01,0.232c0.29,0.154,0.529,0.377,0.719,0.668c0.188,0.292,0.336,0.646,0.443,1.064
				c0.107,0.419,0.162,0.982,0.162,1.692c0,0.84-0.087,1.518-0.26,2.034c-0.172,0.516-0.43,0.914-0.773,1.195
				c-0.344,0.282-0.777,0.423-1.301,0.423c-0.69,0-1.232-0.247-1.627-0.742C389.273,96.389,389.038,95.419,389.038,94.075z
				 M389.94,94.075c0,1.175,0.139,1.957,0.413,2.347c0.274,0.389,0.614,0.583,1.019,0.583c0.403,0,0.742-0.195,1.018-0.586
				s0.412-1.172,0.412-2.344c0-1.179-0.137-1.961-0.412-2.349s-0.617-0.581-1.027-0.581c-0.404,0-0.727,0.171-0.967,0.513
				C390.092,92.094,389.94,92.9,389.94,94.075z"/>
		</g>
	</g>
	<g>
		<defs>
			<rect id="SVGID_31_" x="-7.777" y="-8.238" width="411" height="241.001"/>
		</defs>
		<clipPath id="SVGID_32_">
			<use xlink:href="#SVGID_31_"  overflow="visible"/>
		</clipPath>
		<g clip-path="url(#SVGID_32_)">
			<path d="M386.293,57.73v-1.714h-3.105V55.21l3.266-4.639h0.719v4.639h0.967v0.806h-0.967v1.714H386.293z M386.293,55.21v-3.228
				l-2.242,3.228H386.293z"/>
			<path d="M389.038,54.2c0-0.847,0.086-1.527,0.261-2.044c0.175-0.516,0.433-0.913,0.776-1.193s0.775-0.42,1.297-0.42
				c0.384,0,0.721,0.077,1.01,0.232c0.29,0.154,0.529,0.377,0.719,0.668c0.188,0.292,0.336,0.646,0.443,1.064
				c0.107,0.419,0.162,0.982,0.162,1.692c0,0.84-0.087,1.518-0.26,2.034c-0.172,0.516-0.43,0.914-0.773,1.195
				c-0.344,0.282-0.777,0.423-1.301,0.423c-0.69,0-1.232-0.247-1.627-0.742C389.273,56.514,389.038,55.544,389.038,54.2z
				 M389.94,54.2c0,1.175,0.139,1.957,0.413,2.347c0.274,0.389,0.614,0.583,1.019,0.583c0.403,0,0.742-0.195,1.018-0.586
				s0.412-1.172,0.412-2.344c0-1.179-0.137-1.961-0.412-2.349s-0.617-0.581-1.027-0.581c-0.404,0-0.727,0.171-0.967,0.513
				C390.092,52.219,389.94,53.025,389.94,54.2z"/>
		</g>
	</g>
	<g>
		<defs>
			<rect id="SVGID_33_" x="-7.777" y="-8.238" width="411" height="241.001"/>
		</defs>
		<clipPath id="SVGID_34_">
			<use xlink:href="#SVGID_33_"  overflow="visible"/>
		</clipPath>
		<g clip-path="url(#SVGID_34_)">
			<path d="M383.475,15.982l0.924-0.078c0.068,0.449,0.227,0.787,0.476,1.014c0.249,0.226,0.55,0.339,0.901,0.339
				c0.423,0,0.781-0.159,1.074-0.479s0.439-0.742,0.439-1.27c0-0.501-0.141-0.896-0.423-1.187s-0.65-0.435-1.106-0.435
				c-0.283,0-0.538,0.064-0.766,0.192c-0.229,0.129-0.407,0.296-0.537,0.501l-0.826-0.107l0.693-3.677h3.561v0.84h-2.857
				l-0.385,1.924c0.43-0.3,0.88-0.449,1.352-0.449c0.625,0,1.152,0.217,1.582,0.649s0.645,0.989,0.645,1.67
				c0,0.647-0.188,1.208-0.566,1.68c-0.459,0.579-1.085,0.869-1.879,0.869c-0.651,0-1.184-0.183-1.595-0.547
				S383.534,16.584,383.475,15.982z"/>
			<path d="M389.038,14.327c0-0.847,0.086-1.527,0.261-2.044c0.175-0.516,0.433-0.913,0.776-1.193s0.775-0.42,1.297-0.42
				c0.384,0,0.721,0.077,1.01,0.232c0.29,0.154,0.529,0.377,0.719,0.668c0.188,0.292,0.336,0.646,0.443,1.064
				c0.107,0.419,0.162,0.982,0.162,1.692c0,0.84-0.087,1.518-0.26,2.034c-0.172,0.516-0.43,0.914-0.773,1.195
				c-0.344,0.282-0.777,0.423-1.301,0.423c-0.69,0-1.232-0.247-1.627-0.742C389.273,16.641,389.038,15.671,389.038,14.327z
				 M389.94,14.327c0,1.175,0.139,1.957,0.413,2.347c0.274,0.389,0.614,0.583,1.019,0.583c0.403,0,0.742-0.195,1.018-0.586
				s0.412-1.172,0.412-2.344c0-1.179-0.137-1.961-0.412-2.349s-0.617-0.581-1.027-0.581c-0.404,0-0.727,0.171-0.967,0.513
				C390.092,12.346,389.94,13.152,389.94,14.327z"/>
		</g>
	</g>
	<g>
		<defs>
			<rect id="SVGID_35_" x="-7.777" y="-8.238" width="411" height="241.001"/>
		</defs>
		<clipPath id="SVGID_36_">
			<use xlink:href="#SVGID_35_"  overflow="visible"/>
		</clipPath>
		<g clip-path="url(#SVGID_36_)">
			<path d="M7.738,213.693c0-0.846,0.087-1.527,0.261-2.043s0.433-0.914,0.776-1.193c0.343-0.281,0.775-0.42,1.296-0.42
				c0.384,0,0.721,0.076,1.011,0.232c0.29,0.154,0.529,0.377,0.718,0.668s0.337,0.646,0.444,1.064s0.161,0.982,0.161,1.691
				c0,0.84-0.086,1.518-0.259,2.035c-0.172,0.516-0.431,0.914-0.774,1.195s-0.777,0.422-1.301,0.422
				c-0.69,0-1.232-0.246-1.626-0.742C7.974,216.007,7.738,215.039,7.738,213.693z M8.642,213.693c0,1.176,0.138,1.957,0.413,2.348
				c0.275,0.389,0.614,0.582,1.018,0.582s0.743-0.195,1.018-0.586s0.413-1.172,0.413-2.344c0-1.178-0.138-1.961-0.413-2.348
				c-0.275-0.389-0.618-0.582-1.028-0.582c-0.404,0-0.726,0.172-0.967,0.514C8.793,211.712,8.642,212.519,8.642,213.693z"/>
		</g>
	</g>
	<g>
		<defs>
			<rect id="SVGID_37_" x="-7.777" y="-8.238" width="411" height="241.001"/>
		</defs>
		<clipPath id="SVGID_38_">
			<use xlink:href="#SVGID_37_"  overflow="visible"/>
		</clipPath>
		<g clip-path="url(#SVGID_38_)">
			<path d="M5.487,177.351H4.608v-5.602c-0.211,0.203-0.489,0.404-0.833,0.605c-0.343,0.203-0.652,0.354-0.925,0.455v-0.85
				c0.492-0.232,0.921-0.512,1.289-0.84c0.368-0.33,0.628-0.648,0.781-0.957h0.566V177.351z"/>
			<path d="M7.738,173.82c0-0.846,0.087-1.527,0.261-2.043s0.433-0.914,0.776-1.193c0.343-0.281,0.775-0.42,1.296-0.42
				c0.384,0,0.721,0.076,1.011,0.232c0.29,0.154,0.529,0.377,0.718,0.668s0.337,0.646,0.444,1.064s0.161,0.982,0.161,1.691
				c0,0.84-0.086,1.518-0.259,2.035c-0.172,0.516-0.431,0.914-0.774,1.195s-0.777,0.422-1.301,0.422
				c-0.69,0-1.232-0.246-1.626-0.742C7.974,176.134,7.738,175.166,7.738,173.82z M8.642,173.82c0,1.176,0.138,1.957,0.413,2.348
				c0.275,0.389,0.614,0.582,1.018,0.582s0.743-0.195,1.018-0.586s0.413-1.172,0.413-2.344c0-1.178-0.138-1.961-0.413-2.348
				c-0.275-0.389-0.618-0.582-1.028-0.582c-0.404,0-0.726,0.172-0.967,0.514C8.793,171.839,8.642,172.646,8.642,173.82z"/>
		</g>
	</g>
	<g>
		<defs>
			<rect id="SVGID_39_" x="-7.777" y="-8.238" width="411" height="241.001"/>
		</defs>
		<clipPath id="SVGID_40_">
			<use xlink:href="#SVGID_39_"  overflow="visible"/>
		</clipPath>
		<g clip-path="url(#SVGID_40_)">
			<path d="M6.796,136.632v0.846H2.064c-0.006-0.213,0.028-0.416,0.103-0.611c0.121-0.322,0.313-0.639,0.579-0.951
				s0.648-0.674,1.15-1.084c0.778-0.639,1.304-1.145,1.577-1.516c0.273-0.373,0.41-0.727,0.41-1.059
				c0-0.348-0.125-0.641-0.374-0.881c-0.249-0.238-0.574-0.359-0.974-0.359c-0.423,0-0.762,0.127-1.016,0.381
				s-0.382,0.605-0.386,1.055l-0.903-0.092c0.062-0.674,0.294-1.188,0.698-1.541s0.946-0.529,1.626-0.529
				c0.687,0,1.23,0.189,1.631,0.57s0.601,0.854,0.601,1.416c0,0.287-0.059,0.568-0.176,0.846c-0.117,0.275-0.312,0.568-0.583,0.873
				c-0.272,0.307-0.724,0.727-1.355,1.26c-0.527,0.443-0.866,0.744-1.016,0.902c-0.15,0.156-0.273,0.316-0.371,0.475H6.796z"/>
			<path d="M7.738,133.947c0-0.846,0.087-1.527,0.261-2.043s0.433-0.914,0.776-1.193c0.343-0.281,0.775-0.42,1.296-0.42
				c0.384,0,0.721,0.076,1.011,0.232c0.29,0.154,0.529,0.377,0.718,0.668s0.337,0.646,0.444,1.064s0.161,0.982,0.161,1.691
				c0,0.84-0.086,1.518-0.259,2.035c-0.172,0.516-0.431,0.914-0.774,1.195s-0.777,0.422-1.301,0.422
				c-0.69,0-1.232-0.246-1.626-0.742C7.974,136.261,7.738,135.292,7.738,133.947z M8.642,133.947c0,1.176,0.138,1.957,0.413,2.348
				c0.275,0.389,0.614,0.582,1.018,0.582s0.743-0.195,1.018-0.586s0.413-1.172,0.413-2.344c0-1.178-0.138-1.961-0.413-2.348
				c-0.275-0.389-0.618-0.582-1.028-0.582c-0.404,0-0.726,0.172-0.967,0.514C8.793,131.966,8.642,132.773,8.642,133.947z"/>
		</g>
	</g>
	<g>
		<defs>
			<rect id="SVGID_41_" x="-7.777" y="-8.238" width="411" height="241.001"/>
		</defs>
		<clipPath id="SVGID_42_">
			<use xlink:href="#SVGID_41_"  overflow="visible"/>
		</clipPath>
		<g clip-path="url(#SVGID_42_)">
			<path d="M2.182,95.715l0.879-0.117c0.101,0.498,0.272,0.856,0.515,1.077c0.243,0.219,0.538,0.329,0.886,0.329
				c0.414,0,0.763-0.144,1.047-0.43s0.427-0.642,0.427-1.064c0-0.403-0.132-0.736-0.396-0.999c-0.264-0.262-0.599-0.393-1.006-0.393
				c-0.166,0-0.373,0.032-0.62,0.098l0.098-0.771c0.059,0.007,0.106,0.01,0.142,0.01c0.375,0,0.711-0.098,1.011-0.293
				s0.449-0.496,0.449-0.903c0-0.322-0.109-0.589-0.327-0.801s-0.5-0.317-0.845-0.317c-0.342,0-0.626,0.107-0.854,0.322
				S3.213,92,3.148,92.429L2.27,92.273c0.107-0.589,0.352-1.046,0.732-1.369c0.381-0.324,0.854-0.486,1.421-0.486
				c0.391,0,0.75,0.084,1.079,0.252c0.329,0.167,0.58,0.396,0.754,0.686s0.261,0.598,0.261,0.923c0,0.31-0.083,0.591-0.249,0.845
				s-0.412,0.456-0.737,0.605c0.423,0.098,0.752,0.301,0.986,0.607c0.234,0.309,0.352,0.693,0.352,1.155
				c0,0.625-0.228,1.155-0.684,1.589c-0.456,0.436-1.032,0.652-1.729,0.652c-0.628,0-1.15-0.188-1.565-0.562
				S2.24,96.311,2.182,95.715z"/>
			<path d="M7.738,94.075c0-0.847,0.087-1.527,0.261-2.044c0.174-0.516,0.433-0.913,0.776-1.193s0.775-0.42,1.296-0.42
				c0.384,0,0.721,0.077,1.011,0.232c0.29,0.154,0.529,0.377,0.718,0.668c0.189,0.292,0.337,0.646,0.444,1.064
				c0.107,0.419,0.161,0.982,0.161,1.692c0,0.84-0.086,1.518-0.259,2.034c-0.172,0.516-0.431,0.914-0.774,1.195
				c-0.343,0.282-0.777,0.423-1.301,0.423c-0.69,0-1.232-0.247-1.626-0.742C7.974,96.389,7.738,95.419,7.738,94.075z M8.642,94.075
				c0,1.175,0.138,1.957,0.413,2.347c0.275,0.389,0.614,0.583,1.018,0.583s0.743-0.195,1.018-0.586s0.413-1.172,0.413-2.344
				c0-1.179-0.138-1.961-0.413-2.349s-0.618-0.581-1.028-0.581c-0.404,0-0.726,0.171-0.967,0.513
				C8.793,92.094,8.642,92.9,8.642,94.075z"/>
		</g>
	</g>
	<g>
		<defs>
			<rect id="SVGID_43_" x="-7.777" y="-8.238" width="411" height="241.001"/>
		</defs>
		<clipPath id="SVGID_44_">
			<use xlink:href="#SVGID_43_"  overflow="visible"/>
		</clipPath>
		<g clip-path="url(#SVGID_44_)">
			<path d="M4.994,57.73v-1.714H1.889V55.21l3.267-4.639h0.718v4.639H6.84v0.806H5.873v1.714H4.994z M4.994,55.21v-3.228
				L2.753,55.21H4.994z"/>
			<path d="M7.738,54.2c0-0.847,0.087-1.527,0.261-2.044c0.174-0.516,0.433-0.913,0.776-1.193s0.775-0.42,1.296-0.42
				c0.384,0,0.721,0.077,1.011,0.232c0.29,0.154,0.529,0.377,0.718,0.668c0.189,0.292,0.337,0.646,0.444,1.064
				c0.107,0.419,0.161,0.982,0.161,1.692c0,0.84-0.086,1.518-0.259,2.034c-0.172,0.516-0.431,0.914-0.774,1.195
				c-0.343,0.282-0.777,0.423-1.301,0.423c-0.69,0-1.232-0.247-1.626-0.742C7.974,56.514,7.738,55.544,7.738,54.2z M8.642,54.2
				c0,1.175,0.138,1.957,0.413,2.347c0.275,0.389,0.614,0.583,1.018,0.583s0.743-0.195,1.018-0.586s0.413-1.172,0.413-2.344
				c0-1.179-0.138-1.961-0.413-2.349s-0.618-0.581-1.028-0.581c-0.404,0-0.726,0.171-0.967,0.513
				C8.793,52.219,8.642,53.025,8.642,54.2z"/>
		</g>
	</g>
	<g>
		<defs>
			<rect id="SVGID_45_" x="-7.777" y="-8.238" width="411" height="241.001"/>
		</defs>
		<clipPath id="SVGID_46_">
			<use xlink:href="#SVGID_45_"  overflow="visible"/>
		</clipPath>
		<g clip-path="url(#SVGID_46_)">
			<path d="M2.177,15.982L3.1,15.904c0.068,0.449,0.227,0.787,0.476,1.014c0.249,0.226,0.549,0.339,0.901,0.339
				c0.423,0,0.781-0.159,1.074-0.479s0.439-0.742,0.439-1.27c0-0.501-0.141-0.896-0.422-1.187s-0.65-0.435-1.106-0.435
				c-0.283,0-0.539,0.064-0.767,0.192c-0.228,0.129-0.407,0.296-0.537,0.501l-0.825-0.107l0.693-3.677h3.56v0.84H3.729L3.344,13.56
				c0.43-0.3,0.88-0.449,1.353-0.449c0.625,0,1.152,0.217,1.582,0.649s0.645,0.989,0.645,1.67c0,0.647-0.189,1.208-0.566,1.68
				c-0.459,0.579-1.085,0.869-1.88,0.869c-0.651,0-1.183-0.183-1.594-0.547S2.235,16.584,2.177,15.982z"/>
			<path d="M7.738,14.327c0-0.847,0.087-1.527,0.261-2.044c0.174-0.516,0.433-0.913,0.776-1.193s0.775-0.42,1.296-0.42
				c0.384,0,0.721,0.077,1.011,0.232c0.29,0.154,0.529,0.377,0.718,0.668c0.189,0.292,0.337,0.646,0.444,1.064
				c0.107,0.419,0.161,0.982,0.161,1.692c0,0.84-0.086,1.518-0.259,2.034c-0.172,0.516-0.431,0.914-0.774,1.195
				c-0.343,0.282-0.777,0.423-1.301,0.423c-0.69,0-1.232-0.247-1.626-0.742C7.974,16.641,7.738,15.671,7.738,14.327z M8.642,14.327
				c0,1.175,0.138,1.957,0.413,2.347c0.275,0.389,0.614,0.583,1.018,0.583s0.743-0.195,1.018-0.586s0.413-1.172,0.413-2.344
				c0-1.179-0.138-1.961-0.413-2.349s-0.618-0.581-1.028-0.581c-0.404,0-0.726,0.171-0.967,0.513
				C8.793,12.346,8.642,13.152,8.642,14.327z"/>
		</g>
	</g>
	<g>
		<defs>
			<rect id="SVGID_47_" x="-7.777" y="219.255" width="107.611" height="12.004"/>
		</defs>
		<clipPath id="SVGID_48_">
			<use xlink:href="#SVGID_47_"  overflow="visible"/>
		</clipPath>
		<g clip-path="url(#SVGID_48_)">
			<path d="M14.575,229.257h-0.879v-5.602c-0.211,0.203-0.489,0.404-0.833,0.605c-0.343,0.203-0.652,0.354-0.925,0.455v-0.85
				c0.492-0.232,0.921-0.512,1.289-0.84c0.368-0.33,0.628-0.648,0.781-0.957h0.566V229.257z"/>
			<path d="M16.958,227.601l0.845-0.078c0.072,0.398,0.208,0.686,0.41,0.865c0.202,0.178,0.46,0.268,0.776,0.268
				c0.27,0,0.507-0.061,0.71-0.186c0.204-0.123,0.37-0.289,0.5-0.494c0.13-0.207,0.239-0.486,0.327-0.838s0.132-0.711,0.132-1.074
				c0-0.039-0.001-0.098-0.005-0.176c-0.176,0.279-0.416,0.506-0.72,0.682c-0.304,0.174-0.634,0.26-0.989,0.26
				c-0.592,0-1.094-0.215-1.504-0.645s-0.615-0.996-0.615-1.699c0-0.725,0.214-1.311,0.642-1.752
				c0.428-0.443,0.964-0.664,1.609-0.664c0.465,0,0.891,0.125,1.277,0.375c0.386,0.252,0.679,0.609,0.879,1.072
				c0.2,0.465,0.3,1.135,0.3,2.014c0,0.916-0.099,1.645-0.298,2.186c-0.199,0.543-0.494,0.955-0.886,1.238s-0.852,0.424-1.379,0.424
				c-0.56,0-1.017-0.154-1.372-0.465C17.243,228.601,17.03,228.166,16.958,227.601z M20.557,224.443
				c0-0.506-0.134-0.906-0.403-1.201c-0.269-0.297-0.592-0.445-0.969-0.445c-0.391,0-0.731,0.16-1.021,0.479
				c-0.29,0.32-0.435,0.732-0.435,1.24c0,0.457,0.138,0.826,0.413,1.111s0.614,0.428,1.018,0.428c0.407,0,0.741-0.143,1.003-0.428
				S20.557,224.947,20.557,224.443z"/>
			<path d="M23.74,225.375c-0.365-0.133-0.635-0.324-0.811-0.57c-0.176-0.248-0.264-0.545-0.264-0.889
				c0-0.521,0.187-0.959,0.562-1.314c0.375-0.354,0.873-0.531,1.494-0.531c0.625,0,1.128,0.182,1.509,0.545
				c0.381,0.361,0.571,0.805,0.571,1.324c0,0.332-0.087,0.621-0.261,0.867s-0.438,0.436-0.793,0.568
				c0.439,0.145,0.774,0.375,1.003,0.693c0.229,0.32,0.344,0.701,0.344,1.143c0,0.613-0.216,1.127-0.649,1.543
				c-0.433,0.418-1.002,0.625-1.709,0.625s-1.276-0.209-1.709-0.627s-0.649-0.939-0.649-1.564c0-0.467,0.118-0.855,0.354-1.17
				S23.304,225.49,23.74,225.375z M23.281,227.191c0,0.252,0.06,0.494,0.178,0.729s0.295,0.416,0.53,0.545
				c0.234,0.127,0.487,0.191,0.757,0.191c0.42,0,0.767-0.135,1.04-0.404c0.273-0.271,0.41-0.613,0.41-1.031
				c0-0.422-0.141-0.773-0.422-1.049c-0.282-0.277-0.634-0.416-1.057-0.416c-0.414,0-0.756,0.137-1.028,0.41
				S23.281,226.781,23.281,227.191z M23.564,223.886c0,0.338,0.109,0.615,0.327,0.83s0.501,0.322,0.85,0.322
				c0.338,0,0.616-0.107,0.833-0.32s0.325-0.475,0.325-0.783c0-0.322-0.111-0.594-0.334-0.812c-0.223-0.221-0.5-0.33-0.833-0.33
				c-0.335,0-0.614,0.107-0.835,0.322S23.564,223.585,23.564,223.886z"/>
			<path d="M32.51,223.851l-0.874,0.068c-0.078-0.344-0.189-0.596-0.332-0.752c-0.238-0.25-0.531-0.375-0.879-0.375
				c-0.28,0-0.526,0.078-0.737,0.234c-0.277,0.201-0.495,0.496-0.654,0.883c-0.16,0.389-0.243,0.939-0.249,1.656
				c0.211-0.322,0.47-0.562,0.776-0.719s0.626-0.234,0.962-0.234c0.586,0,1.085,0.217,1.497,0.648
				c0.412,0.43,0.618,0.988,0.618,1.672c0,0.449-0.097,0.867-0.291,1.252c-0.194,0.387-0.46,0.682-0.798,0.887
				s-0.723,0.307-1.152,0.307c-0.732,0-1.33-0.27-1.792-0.807c-0.462-0.539-0.693-1.428-0.693-2.664
				c0-1.385,0.255-2.391,0.767-3.018c0.446-0.547,1.046-0.82,1.802-0.82c0.563,0,1.024,0.158,1.384,0.473
				C32.223,222.859,32.438,223.294,32.51,223.851z M28.921,226.937c0,0.303,0.064,0.594,0.193,0.869
				c0.128,0.277,0.309,0.488,0.54,0.633s0.474,0.217,0.728,0.217c0.371,0,0.69-0.148,0.957-0.449c0.267-0.299,0.4-0.705,0.4-1.221
				c0-0.494-0.132-0.885-0.396-1.168c-0.264-0.285-0.596-0.428-0.996-0.428c-0.397,0-0.734,0.143-1.011,0.428
				C29.059,226.101,28.921,226.476,28.921,226.937z"/>
		</g>
	</g>
	<g>
		<defs>
			<rect id="SVGID_49_" x="2.778" y="219.255" width="155.723" height="12.004"/>
		</defs>
		<clipPath id="SVGID_50_">
			<use xlink:href="#SVGID_49_"  overflow="visible"/>
		</clipPath>
		<g clip-path="url(#SVGID_50_)">
			<path d="M73.242,229.257h-0.879v-5.602c-0.211,0.203-0.489,0.404-0.833,0.605c-0.343,0.203-0.652,0.354-0.925,0.455v-0.85
				c0.492-0.232,0.921-0.512,1.289-0.84c0.368-0.33,0.628-0.648,0.781-0.957h0.566V229.257z"/>
			<path d="M75.625,227.601l0.845-0.078c0.072,0.398,0.208,0.686,0.41,0.865c0.202,0.178,0.46,0.268,0.776,0.268
				c0.27,0,0.507-0.061,0.71-0.186c0.204-0.123,0.37-0.289,0.5-0.494c0.13-0.207,0.239-0.486,0.327-0.838s0.132-0.711,0.132-1.074
				c0-0.039-0.001-0.098-0.005-0.176c-0.176,0.279-0.416,0.506-0.72,0.682c-0.304,0.174-0.634,0.26-0.989,0.26
				c-0.592,0-1.094-0.215-1.504-0.645s-0.615-0.996-0.615-1.699c0-0.725,0.214-1.311,0.642-1.752
				c0.428-0.443,0.964-0.664,1.609-0.664c0.465,0,0.891,0.125,1.277,0.375c0.386,0.252,0.679,0.609,0.879,1.072
				c0.2,0.465,0.3,1.135,0.3,2.014c0,0.916-0.099,1.645-0.298,2.186c-0.199,0.543-0.494,0.955-0.886,1.238s-0.852,0.424-1.379,0.424
				c-0.56,0-1.017-0.154-1.372-0.465C75.909,228.601,75.696,228.166,75.625,227.601z M79.223,224.443
				c0-0.506-0.134-0.906-0.403-1.201c-0.269-0.297-0.592-0.445-0.969-0.445c-0.391,0-0.731,0.16-1.021,0.479
				c-0.29,0.32-0.435,0.732-0.435,1.24c0,0.457,0.138,0.826,0.413,1.111s0.614,0.428,1.018,0.428c0.407,0,0.741-0.143,1.003-0.428
				S79.223,224.947,79.223,224.443z"/>
			<path d="M81.186,227.601l0.845-0.078c0.072,0.398,0.208,0.686,0.41,0.865c0.202,0.178,0.46,0.268,0.776,0.268
				c0.27,0,0.507-0.061,0.71-0.186c0.204-0.123,0.37-0.289,0.5-0.494c0.13-0.207,0.239-0.486,0.327-0.838s0.132-0.711,0.132-1.074
				c0-0.039-0.001-0.098-0.005-0.176c-0.176,0.279-0.416,0.506-0.72,0.682c-0.304,0.174-0.634,0.26-0.989,0.26
				c-0.592,0-1.094-0.215-1.504-0.645s-0.615-0.996-0.615-1.699c0-0.725,0.214-1.311,0.642-1.752
				c0.428-0.443,0.964-0.664,1.609-0.664c0.465,0,0.891,0.125,1.277,0.375c0.386,0.252,0.679,0.609,0.879,1.072
				c0.2,0.465,0.3,1.135,0.3,2.014c0,0.916-0.099,1.645-0.298,2.186c-0.199,0.543-0.494,0.955-0.886,1.238s-0.852,0.424-1.379,0.424
				c-0.56,0-1.017-0.154-1.372-0.465C81.471,228.601,81.258,228.166,81.186,227.601z M84.785,224.443
				c0-0.506-0.134-0.906-0.403-1.201c-0.269-0.297-0.592-0.445-0.969-0.445c-0.391,0-0.731,0.16-1.021,0.479
				c-0.29,0.32-0.435,0.732-0.435,1.24c0,0.457,0.138,0.826,0.413,1.111s0.614,0.428,1.018,0.428c0.407,0,0.741-0.143,1.003-0.428
				S84.785,224.947,84.785,224.443z"/>
			<path d="M89.926,229.257h-0.879v-5.602c-0.211,0.203-0.489,0.404-0.833,0.605c-0.343,0.203-0.652,0.354-0.925,0.455v-0.85
				c0.492-0.232,0.921-0.512,1.289-0.84c0.368-0.33,0.628-0.648,0.781-0.957h0.566V229.257z"/>
		</g>
	</g>
	<g>
		<defs>
			<rect id="SVGID_51_" x="61.445" y="219.255" width="155.724" height="12.004"/>
		</defs>
		<clipPath id="SVGID_52_">
			<use xlink:href="#SVGID_51_"  overflow="visible"/>
		</clipPath>
		<g clip-path="url(#SVGID_52_)">
			<path d="M131.908,229.257h-0.879v-5.602c-0.211,0.203-0.489,0.404-0.833,0.605c-0.343,0.203-0.652,0.354-0.925,0.455v-0.85
				c0.492-0.232,0.921-0.512,1.289-0.84c0.368-0.33,0.628-0.648,0.781-0.957h0.566V229.257z"/>
			<path d="M134.291,227.601l0.845-0.078c0.072,0.398,0.208,0.686,0.41,0.865c0.202,0.178,0.46,0.268,0.776,0.268
				c0.27,0,0.507-0.061,0.71-0.186c0.204-0.123,0.37-0.289,0.5-0.494c0.13-0.207,0.239-0.486,0.327-0.838s0.132-0.711,0.132-1.074
				c0-0.039-0.001-0.098-0.005-0.176c-0.176,0.279-0.416,0.506-0.72,0.682c-0.304,0.174-0.634,0.26-0.989,0.26
				c-0.592,0-1.094-0.215-1.504-0.645s-0.615-0.996-0.615-1.699c0-0.725,0.214-1.311,0.642-1.752
				c0.428-0.443,0.964-0.664,1.609-0.664c0.465,0,0.891,0.125,1.277,0.375c0.386,0.252,0.679,0.609,0.879,1.072
				c0.2,0.465,0.3,1.135,0.3,2.014c0,0.916-0.099,1.645-0.298,2.186c-0.199,0.543-0.494,0.955-0.886,1.238s-0.852,0.424-1.379,0.424
				c-0.56,0-1.017-0.154-1.372-0.465C134.576,228.601,134.363,228.166,134.291,227.601z M137.89,224.443
				c0-0.506-0.134-0.906-0.403-1.201c-0.269-0.297-0.592-0.445-0.969-0.445c-0.391,0-0.731,0.16-1.021,0.479
				c-0.29,0.32-0.435,0.732-0.435,1.24c0,0.457,0.138,0.826,0.413,1.111s0.614,0.428,1.018,0.428c0.407,0,0.741-0.143,1.003-0.428
				S137.89,224.947,137.89,224.443z"/>
			<path d="M139.853,227.601l0.845-0.078c0.072,0.398,0.208,0.686,0.41,0.865c0.202,0.178,0.46,0.268,0.776,0.268
				c0.27,0,0.507-0.061,0.71-0.186c0.204-0.123,0.37-0.289,0.5-0.494c0.13-0.207,0.239-0.486,0.327-0.838s0.132-0.711,0.132-1.074
				c0-0.039-0.001-0.098-0.005-0.176c-0.176,0.279-0.416,0.506-0.72,0.682c-0.304,0.174-0.634,0.26-0.989,0.26
				c-0.592,0-1.094-0.215-1.504-0.645s-0.615-0.996-0.615-1.699c0-0.725,0.214-1.311,0.642-1.752
				c0.428-0.443,0.964-0.664,1.609-0.664c0.465,0,0.891,0.125,1.277,0.375c0.386,0.252,0.679,0.609,0.879,1.072
				c0.2,0.465,0.3,1.135,0.3,2.014c0,0.916-0.099,1.645-0.298,2.186c-0.199,0.543-0.494,0.955-0.886,1.238s-0.852,0.424-1.379,0.424
				c-0.56,0-1.017-0.154-1.372-0.465C140.137,228.601,139.924,228.166,139.853,227.601z M143.451,224.443
				c0-0.506-0.134-0.906-0.403-1.201c-0.269-0.297-0.592-0.445-0.969-0.445c-0.391,0-0.731,0.16-1.021,0.479
				c-0.29,0.32-0.435,0.732-0.435,1.24c0,0.457,0.138,0.826,0.413,1.111s0.614,0.428,1.018,0.428c0.407,0,0.741-0.143,1.003-0.428
				S143.451,224.947,143.451,224.443z"/>
			<path d="M149.843,223.851l-0.874,0.068c-0.078-0.344-0.189-0.596-0.332-0.752c-0.238-0.25-0.531-0.375-0.879-0.375
				c-0.28,0-0.526,0.078-0.737,0.234c-0.277,0.201-0.495,0.496-0.654,0.883c-0.16,0.389-0.243,0.939-0.249,1.656
				c0.211-0.322,0.47-0.562,0.776-0.719s0.626-0.234,0.962-0.234c0.586,0,1.085,0.217,1.497,0.648
				c0.412,0.43,0.618,0.988,0.618,1.672c0,0.449-0.097,0.867-0.291,1.252c-0.194,0.387-0.46,0.682-0.798,0.887
				s-0.723,0.307-1.152,0.307c-0.732,0-1.33-0.27-1.792-0.807c-0.462-0.539-0.693-1.428-0.693-2.664
				c0-1.385,0.255-2.391,0.767-3.018c0.446-0.547,1.046-0.82,1.802-0.82c0.563,0,1.024,0.158,1.384,0.473
				C149.556,222.859,149.771,223.294,149.843,223.851z M146.254,226.937c0,0.303,0.064,0.594,0.193,0.869
				c0.128,0.277,0.309,0.488,0.54,0.633s0.474,0.217,0.728,0.217c0.371,0,0.69-0.148,0.957-0.449c0.267-0.299,0.4-0.705,0.4-1.221
				c0-0.494-0.132-0.885-0.396-1.168c-0.264-0.285-0.596-0.428-0.996-0.428c-0.397,0-0.734,0.143-1.011,0.428
				C146.392,226.101,146.254,226.476,146.254,226.937z"/>
		</g>
	</g>
	<g>
		<defs>
			<rect id="SVGID_53_" x="118.812" y="219.255" width="158.322" height="12.004"/>
		</defs>
		<clipPath id="SVGID_54_">
			<use xlink:href="#SVGID_53_"  overflow="visible"/>
		</clipPath>
		<g clip-path="url(#SVGID_54_)">
			<path d="M192.069,228.412v0.846h-4.731c-0.006-0.213,0.028-0.416,0.103-0.611c0.121-0.322,0.313-0.639,0.579-0.951
				s0.648-0.674,1.15-1.084c0.778-0.639,1.304-1.145,1.577-1.516c0.273-0.373,0.41-0.727,0.41-1.059
				c0-0.348-0.125-0.641-0.374-0.881c-0.249-0.238-0.574-0.359-0.974-0.359c-0.423,0-0.762,0.127-1.016,0.381
				s-0.382,0.605-0.386,1.055l-0.903-0.092c0.062-0.674,0.294-1.188,0.698-1.541s0.946-0.529,1.626-0.529
				c0.687,0,1.23,0.189,1.631,0.57s0.601,0.854,0.601,1.416c0,0.287-0.059,0.568-0.176,0.846c-0.117,0.275-0.312,0.568-0.583,0.873
				c-0.272,0.307-0.724,0.727-1.355,1.26c-0.527,0.443-0.866,0.744-1.016,0.902c-0.15,0.156-0.273,0.316-0.371,0.475H192.069z"/>
			<path d="M193.012,225.726c0-0.846,0.087-1.527,0.261-2.043s0.433-0.914,0.776-1.193c0.343-0.281,0.775-0.42,1.296-0.42
				c0.384,0,0.721,0.076,1.011,0.232c0.29,0.154,0.529,0.377,0.718,0.668s0.337,0.646,0.444,1.064s0.161,0.982,0.161,1.691
				c0,0.84-0.086,1.518-0.259,2.035c-0.172,0.516-0.431,0.914-0.774,1.195s-0.777,0.422-1.301,0.422
				c-0.69,0-1.232-0.246-1.626-0.742C193.248,228.041,193.012,227.072,193.012,225.726z M193.915,225.726
				c0,1.176,0.138,1.957,0.413,2.348c0.275,0.389,0.614,0.582,1.018,0.582s0.743-0.195,1.018-0.586s0.413-1.172,0.413-2.344
				c0-1.178-0.138-1.961-0.413-2.348c-0.275-0.389-0.618-0.582-1.028-0.582c-0.404,0-0.726,0.172-0.967,0.514
				C194.066,223.746,193.915,224.552,193.915,225.726z"/>
			<path d="M198.573,225.726c0-0.846,0.087-1.527,0.261-2.043s0.433-0.914,0.776-1.193c0.343-0.281,0.775-0.42,1.296-0.42
				c0.385,0,0.722,0.076,1.012,0.232c0.289,0.154,0.528,0.377,0.717,0.668c0.189,0.291,0.338,0.646,0.445,1.064
				s0.16,0.982,0.16,1.691c0,0.84-0.086,1.518-0.258,2.035c-0.173,0.516-0.432,0.914-0.774,1.195s-0.777,0.422-1.302,0.422
				c-0.689,0-1.231-0.246-1.625-0.742C198.809,228.041,198.573,227.072,198.573,225.726z M199.477,225.726
				c0,1.176,0.137,1.957,0.413,2.348c0.275,0.389,0.614,0.582,1.018,0.582c0.404,0,0.744-0.195,1.019-0.586s0.413-1.172,0.413-2.344
				c0-1.178-0.139-1.961-0.413-2.348c-0.274-0.389-0.618-0.582-1.028-0.582c-0.403,0-0.726,0.172-0.967,0.514
				C199.627,223.746,199.477,224.552,199.477,225.726z"/>
			<path d="M207.446,229.257h-0.879v-5.602c-0.212,0.203-0.49,0.404-0.833,0.605c-0.343,0.203-0.651,0.354-0.925,0.455v-0.85
				c0.491-0.232,0.921-0.512,1.289-0.84c0.367-0.33,0.628-0.648,0.781-0.957h0.566V229.257z"/>
		</g>
	</g>
	<g>
		<defs>
			<rect id="SVGID_55_" x="177.479" y="219.255" width="158.323" height="12.004"/>
		</defs>
		<clipPath id="SVGID_56_">
			<use xlink:href="#SVGID_55_"  overflow="visible"/>
		</clipPath>
		<g clip-path="url(#SVGID_56_)">
			<path d="M250.736,228.412v0.846h-4.731c-0.006-0.213,0.027-0.416,0.103-0.611c0.12-0.322,0.313-0.639,0.579-0.951
				c0.265-0.312,0.648-0.674,1.149-1.084c0.778-0.639,1.304-1.145,1.577-1.516c0.273-0.373,0.41-0.727,0.41-1.059
				c0-0.348-0.125-0.641-0.373-0.881c-0.25-0.238-0.574-0.359-0.975-0.359c-0.424,0-0.762,0.127-1.016,0.381
				s-0.383,0.605-0.386,1.055l-0.903-0.092c0.062-0.674,0.295-1.188,0.698-1.541s0.946-0.529,1.626-0.529
				c0.688,0,1.23,0.189,1.631,0.57s0.601,0.854,0.601,1.416c0,0.287-0.059,0.568-0.176,0.846c-0.117,0.275-0.312,0.568-0.583,0.873
				c-0.272,0.307-0.725,0.727-1.355,1.26c-0.527,0.443-0.865,0.744-1.016,0.902c-0.15,0.156-0.273,0.316-0.371,0.475H250.736z"/>
			<path d="M251.678,225.726c0-0.846,0.087-1.527,0.262-2.043c0.174-0.516,0.433-0.914,0.775-1.193
				c0.344-0.281,0.775-0.42,1.297-0.42c0.385,0,0.721,0.076,1.011,0.232c0.29,0.154,0.528,0.377,0.718,0.668
				s0.337,0.646,0.444,1.064s0.161,0.982,0.161,1.691c0,0.84-0.086,1.518-0.259,2.035c-0.173,0.516-0.431,0.914-0.774,1.195
				c-0.343,0.281-0.777,0.422-1.301,0.422c-0.689,0-1.232-0.246-1.626-0.742C251.915,228.041,251.678,227.072,251.678,225.726z
				 M252.582,225.726c0,1.176,0.138,1.957,0.413,2.348c0.274,0.389,0.613,0.582,1.018,0.582s0.743-0.195,1.018-0.586
				c0.275-0.391,0.413-1.172,0.413-2.344c0-1.178-0.138-1.961-0.413-2.348c-0.274-0.389-0.617-0.582-1.027-0.582
				c-0.404,0-0.727,0.172-0.967,0.514C252.733,223.746,252.582,224.552,252.582,225.726z"/>
			<path d="M257.24,225.726c0-0.846,0.087-1.527,0.261-2.043c0.175-0.516,0.434-0.914,0.777-1.193
				c0.343-0.281,0.775-0.42,1.296-0.42c0.384,0,0.722,0.076,1.011,0.232c0.289,0.154,0.529,0.377,0.718,0.668
				s0.337,0.646,0.444,1.064s0.161,0.982,0.161,1.691c0,0.84-0.087,1.518-0.259,2.035c-0.172,0.516-0.431,0.914-0.773,1.195
				c-0.344,0.281-0.777,0.422-1.302,0.422c-0.69,0-1.231-0.246-1.626-0.742C257.475,228.041,257.24,227.072,257.24,225.726z
				 M258.143,225.726c0,1.176,0.138,1.957,0.412,2.348c0.275,0.389,0.615,0.582,1.019,0.582s0.743-0.195,1.019-0.586
				c0.274-0.391,0.412-1.172,0.412-2.344c0-1.178-0.138-1.961-0.412-2.348c-0.275-0.389-0.618-0.582-1.028-0.582
				c-0.403,0-0.726,0.172-0.967,0.514C258.294,223.746,258.143,224.552,258.143,225.726z"/>
			<path d="M267.362,223.851l-0.874,0.068c-0.078-0.344-0.188-0.596-0.332-0.752c-0.237-0.25-0.53-0.375-0.879-0.375
				c-0.28,0-0.526,0.078-0.737,0.234c-0.277,0.201-0.494,0.496-0.654,0.883c-0.16,0.389-0.242,0.939-0.249,1.656
				c0.212-0.322,0.47-0.562,0.776-0.719s0.627-0.234,0.962-0.234c0.586,0,1.085,0.217,1.497,0.648
				c0.411,0.43,0.617,0.988,0.617,1.672c0,0.449-0.097,0.867-0.291,1.252c-0.193,0.387-0.459,0.682-0.798,0.887
				s-0.723,0.307-1.152,0.307c-0.732,0-1.329-0.27-1.792-0.807c-0.463-0.539-0.693-1.428-0.693-2.664
				c0-1.385,0.256-2.391,0.767-3.018c0.446-0.547,1.046-0.82,1.802-0.82c0.562,0,1.024,0.158,1.385,0.473
				C267.075,222.859,267.29,223.294,267.362,223.851z M263.773,226.937c0,0.303,0.064,0.594,0.192,0.869
				c0.129,0.277,0.309,0.488,0.54,0.633s0.474,0.217,0.728,0.217c0.371,0,0.689-0.148,0.957-0.449c0.268-0.299,0.4-0.705,0.4-1.221
				c0-0.494-0.132-0.885-0.396-1.168c-0.264-0.285-0.596-0.428-0.996-0.428c-0.397,0-0.733,0.143-1.011,0.428
				C263.911,226.101,263.773,226.476,263.773,226.937z"/>
		</g>
	</g>
	<g>
		<defs>
			<rect id="SVGID_57_" x="240.043" y="219.255" width="150.525" height="12.004"/>
		</defs>
		<clipPath id="SVGID_58_">
			<use xlink:href="#SVGID_57_"  overflow="visible"/>
		</clipPath>
		<g clip-path="url(#SVGID_58_)">
			<path d="M309.588,228.412v0.846h-4.732c-0.006-0.213,0.028-0.416,0.104-0.611c0.12-0.322,0.312-0.639,0.578-0.951
				s0.648-0.674,1.15-1.084c0.777-0.639,1.303-1.145,1.576-1.516c0.273-0.373,0.41-0.727,0.41-1.059
				c0-0.348-0.124-0.641-0.373-0.881c-0.249-0.238-0.574-0.359-0.975-0.359c-0.423,0-0.762,0.127-1.016,0.381
				s-0.382,0.605-0.385,1.055l-0.904-0.092c0.062-0.674,0.295-1.188,0.699-1.541c0.403-0.354,0.945-0.529,1.625-0.529
				c0.688,0,1.23,0.189,1.631,0.57s0.602,0.854,0.602,1.416c0,0.287-0.059,0.568-0.176,0.846c-0.117,0.275-0.312,0.568-0.584,0.873
				c-0.271,0.307-0.724,0.727-1.355,1.26c-0.527,0.443-0.865,0.744-1.016,0.902c-0.149,0.156-0.273,0.316-0.371,0.475H309.588z"/>
			<path d="M310.53,225.726c0-0.846,0.088-1.527,0.262-2.043s0.434-0.914,0.776-1.193c0.343-0.281,0.775-0.42,1.296-0.42
				c0.385,0,0.722,0.076,1.012,0.232c0.289,0.154,0.528,0.377,0.717,0.668c0.189,0.291,0.338,0.646,0.445,1.064
				s0.16,0.982,0.16,1.691c0,0.84-0.086,1.518-0.258,2.035c-0.173,0.516-0.432,0.914-0.774,1.195s-0.777,0.422-1.302,0.422
				c-0.689,0-1.231-0.246-1.625-0.742C310.766,228.041,310.53,227.072,310.53,225.726z M311.434,225.726
				c0,1.176,0.137,1.957,0.412,2.348c0.275,0.389,0.614,0.582,1.018,0.582c0.404,0,0.744-0.195,1.019-0.586s0.413-1.172,0.413-2.344
				c0-1.178-0.139-1.961-0.413-2.348c-0.274-0.389-0.618-0.582-1.028-0.582c-0.403,0-0.726,0.172-0.967,0.514
				C311.584,223.746,311.434,224.552,311.434,225.726z"/>
			<path d="M319.403,229.257h-0.879v-5.602c-0.212,0.203-0.49,0.404-0.833,0.605c-0.343,0.203-0.651,0.354-0.925,0.455v-0.85
				c0.491-0.232,0.921-0.512,1.289-0.84c0.367-0.33,0.628-0.648,0.781-0.957h0.566V229.257z"/>
			<path d="M324.234,229.257h-0.879v-5.602c-0.212,0.203-0.489,0.404-0.833,0.605c-0.343,0.203-0.651,0.354-0.925,0.455v-0.85
				c0.491-0.232,0.921-0.512,1.289-0.84c0.368-0.33,0.628-0.648,0.781-0.957h0.566V229.257z"/>
		</g>
	</g>
	<g>
		<defs>
			<rect id="SVGID_59_" x="294.811" y="219.255" width="108.412" height="12.004"/>
		</defs>
		<clipPath id="SVGID_60_">
			<use xlink:href="#SVGID_59_"  overflow="visible"/>
		</clipPath>
		<g clip-path="url(#SVGID_60_)">
			<path d="M368.069,228.412v0.846h-4.73c-0.007-0.213,0.027-0.416,0.102-0.611c0.121-0.322,0.314-0.639,0.579-0.951
				s0.648-0.674,1.149-1.084c0.778-0.639,1.305-1.145,1.578-1.516c0.273-0.373,0.41-0.727,0.41-1.059
				c0-0.348-0.125-0.641-0.374-0.881c-0.249-0.238-0.573-0.359-0.974-0.359c-0.424,0-0.762,0.127-1.016,0.381
				s-0.383,0.605-0.387,1.055l-0.902-0.092c0.062-0.674,0.294-1.188,0.697-1.541c0.404-0.354,0.946-0.529,1.627-0.529
				c0.687,0,1.23,0.189,1.631,0.57s0.6,0.854,0.6,1.416c0,0.287-0.059,0.568-0.176,0.846c-0.117,0.275-0.311,0.568-0.583,0.873
				c-0.272,0.307-0.724,0.727-1.354,1.26c-0.527,0.443-0.866,0.744-1.016,0.902c-0.15,0.156-0.273,0.316-0.371,0.475H368.069z"/>
			<path d="M369.012,225.726c0-0.846,0.086-1.527,0.261-2.043s0.433-0.914,0.776-1.193c0.344-0.281,0.775-0.42,1.297-0.42
				c0.384,0,0.721,0.076,1.01,0.232c0.29,0.154,0.529,0.377,0.719,0.668c0.188,0.291,0.336,0.646,0.443,1.064
				s0.162,0.982,0.162,1.691c0,0.84-0.087,1.518-0.26,2.035c-0.172,0.516-0.43,0.914-0.773,1.195s-0.777,0.422-1.301,0.422
				c-0.69,0-1.232-0.246-1.627-0.742C369.248,228.041,369.012,227.072,369.012,225.726z M369.915,225.726
				c0,1.176,0.139,1.957,0.413,2.348c0.274,0.389,0.614,0.582,1.019,0.582c0.403,0,0.742-0.195,1.018-0.586s0.412-1.172,0.412-2.344
				c0-1.178-0.137-1.961-0.412-2.348c-0.275-0.389-0.617-0.582-1.027-0.582c-0.404,0-0.727,0.172-0.967,0.514
				C370.067,223.746,369.915,224.552,369.915,225.726z"/>
			<path d="M377.883,229.257h-0.879v-5.602c-0.211,0.203-0.488,0.404-0.832,0.605c-0.344,0.203-0.652,0.354-0.926,0.455v-0.85
				c0.492-0.232,0.922-0.512,1.289-0.84c0.368-0.33,0.629-0.648,0.781-0.957h0.566V229.257z"/>
			<path d="M384.696,223.851l-0.875,0.068c-0.078-0.344-0.188-0.596-0.332-0.752c-0.237-0.25-0.53-0.375-0.879-0.375
				c-0.279,0-0.525,0.078-0.736,0.234c-0.277,0.201-0.495,0.496-0.654,0.883c-0.16,0.389-0.243,0.939-0.25,1.656
				c0.212-0.322,0.471-0.562,0.777-0.719c0.306-0.156,0.626-0.234,0.961-0.234c0.586,0,1.086,0.217,1.497,0.648
				c0.411,0.43,0.618,0.988,0.618,1.672c0,0.449-0.098,0.867-0.291,1.252c-0.193,0.387-0.46,0.682-0.799,0.887
				c-0.338,0.205-0.723,0.307-1.152,0.307c-0.732,0-1.329-0.27-1.791-0.807c-0.463-0.539-0.693-1.428-0.693-2.664
				c0-1.385,0.255-2.391,0.766-3.018c0.446-0.547,1.047-0.82,1.803-0.82c0.562,0,1.023,0.158,1.384,0.473
				C384.409,222.859,384.624,223.294,384.696,223.851z M381.106,226.937c0,0.303,0.064,0.594,0.193,0.869
				c0.129,0.277,0.309,0.488,0.539,0.633c0.231,0.145,0.475,0.217,0.729,0.217c0.371,0,0.689-0.148,0.957-0.449
				c0.267-0.299,0.4-0.705,0.4-1.221c0-0.494-0.133-0.885-0.396-1.168c-0.264-0.285-0.596-0.428-0.996-0.428
				c-0.396,0-0.733,0.143-1.01,0.428C381.245,226.101,381.106,226.476,381.106,226.937z"/>
		</g>
	</g>
	<g>
		<defs>
			<rect id="SVGID_61_" x="-7.777" y="-8.238" width="411" height="241.001"/>
		</defs>
		<clipPath id="SVGID_62_">
			<use xlink:href="#SVGID_61_"  overflow="visible"/>
		</clipPath>
		<g clip-path="url(#SVGID_62_)">
			<path d="M368.541,3.38c0-0.642,0.141-1.116,0.423-1.426c0.281-0.31,0.662-0.464,1.145-0.464c0.498,0,0.888,0.153,1.17,0.462
				c0.281,0.307,0.422,0.783,0.422,1.428c0,0.642-0.141,1.116-0.422,1.426c-0.282,0.31-0.664,0.464-1.146,0.464
				c-0.498,0-0.888-0.153-1.169-0.462C368.681,4.501,368.541,4.025,368.541,3.38z M369.61,3.371c0,0.466,0.054,0.778,0.161,0.938
				c0.081,0.117,0.194,0.176,0.337,0.176c0.146,0,0.26-0.059,0.342-0.176c0.104-0.159,0.156-0.472,0.156-0.938
				s-0.053-0.776-0.156-0.933c-0.082-0.12-0.195-0.181-0.342-0.181c-0.143,0-0.256,0.059-0.337,0.176
				C369.664,2.592,369.61,2.905,369.61,3.371z M371.153,9.044h-1.016l3.813-7.554h0.986L371.153,9.044z M373.37,7.165
				c0-0.642,0.141-1.116,0.422-1.426c0.282-0.31,0.667-0.464,1.155-0.464c0.491,0,0.878,0.154,1.159,0.464
				c0.282,0.31,0.423,0.784,0.423,1.426c0,0.645-0.141,1.121-0.423,1.431c-0.281,0.31-0.662,0.464-1.145,0.464
				c-0.498,0-0.888-0.154-1.17-0.464C373.51,8.286,373.37,7.809,373.37,7.165z M374.439,7.16c0,0.466,0.054,0.776,0.161,0.933
				c0.082,0.12,0.193,0.181,0.337,0.181c0.146,0,0.259-0.059,0.337-0.176c0.107-0.159,0.161-0.472,0.161-0.938
				s-0.052-0.778-0.156-0.938c-0.081-0.117-0.195-0.176-0.342-0.176s-0.259,0.059-0.337,0.176
				C374.493,6.381,374.439,6.694,374.439,7.16z"/>
		</g>
	</g>
	<g>
		<defs>
			<rect id="SVGID_63_" x="-7.777" y="-8.238" width="411" height="241.001"/>
		</defs>
		<clipPath id="SVGID_64_">
			<use xlink:href="#SVGID_63_"  overflow="visible"/>
		</clipPath>
		<g clip-path="url(#SVGID_64_)">
			<path d="M20.12,4.244c0-0.642,0.141-1.116,0.422-1.426s0.663-0.464,1.145-0.464c0.498,0,0.888,0.153,1.169,0.462
				c0.282,0.307,0.422,0.783,0.422,1.428c0,0.642-0.141,1.116-0.422,1.426s-0.663,0.464-1.145,0.464
				c-0.498,0-0.888-0.153-1.169-0.462C20.261,5.365,20.12,4.888,20.12,4.244z M21.189,4.234c0,0.466,0.054,0.778,0.161,0.938
				c0.082,0.117,0.194,0.176,0.337,0.176c0.146,0,0.26-0.059,0.342-0.176c0.104-0.159,0.156-0.472,0.156-0.938
				s-0.052-0.776-0.156-0.933c-0.082-0.12-0.195-0.181-0.342-0.181c-0.143,0-0.255,0.059-0.337,0.176
				C21.243,3.456,21.189,3.768,21.189,4.234z M22.732,9.908h-1.016l3.813-7.554h0.986L22.732,9.908z M24.949,8.028
				c0-0.642,0.141-1.116,0.422-1.426s0.667-0.464,1.155-0.464c0.492,0,0.878,0.154,1.16,0.464s0.422,0.784,0.422,1.426
				c0,0.645-0.141,1.121-0.422,1.431s-0.663,0.464-1.145,0.464c-0.498,0-0.888-0.154-1.169-0.464S24.949,8.672,24.949,8.028z
				 M26.019,8.023c0,0.466,0.054,0.776,0.161,0.933c0.082,0.12,0.194,0.181,0.337,0.181c0.146,0,0.259-0.059,0.337-0.176
				c0.107-0.159,0.161-0.472,0.161-0.938s-0.052-0.778-0.156-0.938c-0.082-0.117-0.195-0.176-0.342-0.176s-0.259,0.059-0.337,0.176
				C26.072,7.245,26.019,7.557,26.019,8.023z"/>
		</g>
	</g>
	<g>
		<defs>
			<rect id="SVGID_65_" x="-7.777" y="33.977" width="369.563" height="15.395"/>
		</defs>
		<clipPath id="SVGID_66_">
			<use xlink:href="#SVGID_65_"  overflow="visible"/>
		</clipPath>
		<g clip-path="url(#SVGID_66_)">
			<path d="M54.457,48.578v-7.874h3.491c0.702,0,1.235,0.07,1.601,0.212s0.657,0.392,0.875,0.75
				c0.218,0.357,0.328,0.753,0.328,1.187c0,0.559-0.181,1.029-0.542,1.413c-0.362,0.383-0.92,0.626-1.676,0.73
				c0.276,0.132,0.485,0.263,0.628,0.392c0.304,0.279,0.593,0.628,0.865,1.048l1.37,2.143h-1.311l-1.042-1.639
				c-0.304-0.473-0.555-0.834-0.752-1.084c-0.197-0.251-0.374-0.427-0.529-0.527c-0.156-0.1-0.314-0.17-0.476-0.209
				c-0.118-0.025-0.312-0.037-0.58-0.037h-1.208v3.496H54.457z M55.499,44.179h2.24c0.476,0,0.849-0.05,1.117-0.148
				s0.473-0.256,0.612-0.473s0.209-0.452,0.209-0.706c0-0.372-0.135-0.679-0.406-0.919c-0.27-0.239-0.697-0.359-1.281-0.359h-2.492
				V44.179z"/>
			<path d="M61.901,45.726c0-1.057,0.293-1.839,0.881-2.348c0.491-0.423,1.088-0.634,1.794-0.634c0.784,0,1.425,0.257,1.923,0.771
				s0.747,1.224,0.747,2.13c0,0.734-0.11,1.312-0.331,1.732c-0.22,0.421-0.541,0.747-0.961,0.979c-0.421,0.233-0.88,0.35-1.378,0.35
				c-0.798,0-1.444-0.256-1.937-0.768C62.147,47.426,61.901,46.689,61.901,45.726z M62.895,45.726c0,0.73,0.159,1.277,0.478,1.641
				s0.72,0.545,1.203,0.545c0.48,0,0.879-0.183,1.198-0.548s0.478-0.922,0.478-1.671c0-0.705-0.16-1.239-0.48-1.603
				c-0.321-0.363-0.719-0.546-1.195-0.546c-0.483,0-0.884,0.182-1.203,0.543S62.895,44.996,62.895,45.726z"/>
			<path d="M72.117,48.578V47.74c-0.444,0.645-1.047,0.967-1.81,0.967c-0.336,0-0.651-0.064-0.942-0.193
				c-0.292-0.129-0.509-0.291-0.65-0.486c-0.141-0.195-0.241-0.434-0.298-0.717c-0.04-0.189-0.059-0.49-0.059-0.902v-3.534h0.967
				v3.163c0,0.506,0.02,0.846,0.059,1.021c0.061,0.254,0.19,0.453,0.387,0.599c0.197,0.145,0.44,0.218,0.73,0.218
				s0.562-0.075,0.816-0.224s0.434-0.351,0.54-0.606c0.105-0.256,0.158-0.628,0.158-1.115v-3.056h0.967v5.704H72.117z"/>
			<path d="M76.607,47.712l0.14,0.854c-0.272,0.058-0.516,0.086-0.73,0.086c-0.351,0-0.623-0.056-0.816-0.167
				c-0.193-0.11-0.33-0.257-0.408-0.438s-0.118-0.561-0.118-1.141v-3.282h-0.709v-0.752h0.709V41.46l0.961-0.58v1.993h0.972v0.752
				h-0.972v3.335c0,0.276,0.017,0.453,0.051,0.532c0.034,0.079,0.089,0.142,0.166,0.188c0.077,0.046,0.188,0.069,0.331,0.069
				C76.291,47.75,76.432,47.738,76.607,47.712z"/>
			<path d="M77.558,41.816v-1.112h0.967v1.112H77.558z M77.558,48.578v-5.704h0.967v5.704H77.558z"/>
			<path d="M79.997,48.578v-5.704h0.87v0.812c0.419-0.627,1.024-0.94,1.815-0.94c0.344,0,0.66,0.062,0.948,0.186
				c0.289,0.123,0.504,0.285,0.647,0.485c0.143,0.201,0.244,0.439,0.301,0.715c0.036,0.179,0.054,0.492,0.054,0.939v3.508h-0.967
				v-3.47c0-0.394-0.038-0.688-0.113-0.884s-0.208-0.351-0.4-0.467c-0.192-0.116-0.417-0.175-0.674-0.175
				c-0.412,0-0.767,0.131-1.066,0.392c-0.299,0.262-0.449,0.758-0.449,1.488v3.115H79.997z"/>
			<path d="M90.019,46.741l0.999,0.124c-0.158,0.583-0.449,1.036-0.875,1.358s-0.97,0.483-1.633,0.483
				c-0.834,0-1.496-0.257-1.985-0.771c-0.488-0.514-0.733-1.234-0.733-2.162c0-0.96,0.247-1.704,0.741-2.234
				s1.135-0.795,1.923-0.795c0.763,0,1.386,0.26,1.869,0.778c0.483,0.52,0.725,1.25,0.725,2.191c0,0.058-0.002,0.144-0.005,0.258
				h-4.254c0.036,0.627,0.213,1.107,0.532,1.439c0.319,0.334,0.716,0.5,1.192,0.5c0.354,0,0.657-0.093,0.908-0.279
				S89.872,47.149,90.019,46.741z M86.845,45.177h3.185c-0.043-0.479-0.165-0.839-0.365-1.079c-0.308-0.372-0.707-0.559-1.198-0.559
				c-0.444,0-0.817,0.148-1.12,0.446C87.044,44.283,86.877,44.68,86.845,45.177z"/>
			<path d="M95.288,48.578v-5.704h0.865v0.8c0.179-0.279,0.417-0.504,0.714-0.674s0.636-0.255,1.015-0.255
				c0.422,0,0.769,0.088,1.039,0.263c0.271,0.176,0.461,0.421,0.572,0.736c0.451-0.666,1.039-0.999,1.762-0.999
				c0.566,0,1.001,0.156,1.305,0.47s0.457,0.796,0.457,1.447v3.916h-0.961v-3.594c0-0.387-0.031-0.665-0.094-0.835
				c-0.062-0.17-0.176-0.307-0.341-0.411c-0.165-0.104-0.358-0.155-0.58-0.155c-0.401,0-0.734,0.134-0.999,0.4
				s-0.397,0.693-0.397,1.28v3.314h-0.967v-3.706c0-0.43-0.079-0.752-0.236-0.967s-0.416-0.322-0.773-0.322
				c-0.272,0-0.523,0.071-0.755,0.215c-0.23,0.144-0.398,0.353-0.502,0.628c-0.104,0.276-0.156,0.674-0.156,1.193v2.959H95.288z"/>
			<path d="M108.173,47.875c-0.358,0.304-0.703,0.519-1.034,0.645c-0.331,0.125-0.687,0.188-1.066,0.188
				c-0.626,0-1.108-0.153-1.445-0.459c-0.336-0.307-0.505-0.697-0.505-1.174c0-0.279,0.063-0.534,0.19-0.766
				c0.127-0.23,0.294-0.416,0.5-0.556c0.206-0.14,0.438-0.245,0.695-0.317c0.19-0.05,0.476-0.098,0.859-0.145
				c0.781-0.093,1.355-0.204,1.724-0.333c0.003-0.133,0.005-0.217,0.005-0.253c0-0.394-0.091-0.671-0.274-0.832
				c-0.247-0.219-0.614-0.328-1.101-0.328c-0.455,0-0.791,0.08-1.007,0.239c-0.217,0.159-0.377,0.441-0.481,0.847l-0.945-0.129
				c0.086-0.405,0.228-0.731,0.424-0.98s0.481-0.44,0.854-0.575c0.373-0.134,0.804-0.201,1.294-0.201
				c0.487,0,0.883,0.058,1.187,0.172s0.528,0.259,0.671,0.433s0.244,0.393,0.301,0.658c0.032,0.164,0.048,0.461,0.048,0.891v1.289
				c0,0.899,0.021,1.468,0.062,1.706c0.041,0.238,0.123,0.466,0.244,0.685h-1.01C108.267,48.377,108.202,48.142,108.173,47.875z
				 M108.093,45.714c-0.351,0.144-0.877,0.266-1.579,0.365c-0.397,0.058-0.679,0.122-0.843,0.193
				c-0.165,0.072-0.292,0.177-0.381,0.314s-0.134,0.291-0.134,0.459c0,0.258,0.098,0.473,0.293,0.645
				c0.195,0.172,0.48,0.258,0.856,0.258c0.373,0,0.704-0.081,0.994-0.244s0.503-0.386,0.639-0.668
				c0.104-0.219,0.156-0.541,0.156-0.967V45.714z"/>
			<path d="M110.569,48.578v-5.704h0.87v0.812c0.419-0.627,1.024-0.94,1.815-0.94c0.344,0,0.66,0.062,0.948,0.186
				c0.289,0.123,0.504,0.285,0.647,0.485c0.143,0.201,0.244,0.439,0.301,0.715c0.036,0.179,0.054,0.492,0.054,0.939v3.508h-0.967
				v-3.47c0-0.394-0.038-0.688-0.113-0.884s-0.208-0.351-0.4-0.467c-0.192-0.116-0.417-0.175-0.674-0.175
				c-0.412,0-0.767,0.131-1.066,0.392c-0.299,0.262-0.449,0.758-0.449,1.488v3.115H110.569z"/>
			<path d="M120.425,48.578V47.74c-0.444,0.645-1.047,0.967-1.81,0.967c-0.336,0-0.651-0.064-0.942-0.193
				c-0.292-0.129-0.509-0.291-0.65-0.486c-0.141-0.195-0.241-0.434-0.298-0.717c-0.04-0.189-0.059-0.49-0.059-0.902v-3.534h0.967
				v3.163c0,0.506,0.02,0.846,0.059,1.021c0.061,0.254,0.19,0.453,0.387,0.599c0.197,0.145,0.44,0.218,0.73,0.218
				s0.562-0.075,0.816-0.224s0.434-0.351,0.54-0.606c0.105-0.256,0.158-0.628,0.158-1.115v-3.056h0.967v5.704H120.425z"/>
			<path d="M126.526,47.875c-0.358,0.304-0.703,0.519-1.034,0.645c-0.331,0.125-0.687,0.188-1.066,0.188
				c-0.626,0-1.108-0.153-1.445-0.459c-0.336-0.307-0.505-0.697-0.505-1.174c0-0.279,0.063-0.534,0.19-0.766
				c0.127-0.23,0.294-0.416,0.5-0.556c0.206-0.14,0.438-0.245,0.695-0.317c0.19-0.05,0.476-0.098,0.859-0.145
				c0.781-0.093,1.355-0.204,1.724-0.333c0.003-0.133,0.005-0.217,0.005-0.253c0-0.394-0.091-0.671-0.274-0.832
				c-0.247-0.219-0.614-0.328-1.101-0.328c-0.455,0-0.791,0.08-1.007,0.239c-0.217,0.159-0.377,0.441-0.481,0.847l-0.945-0.129
				c0.086-0.405,0.228-0.731,0.424-0.98s0.481-0.44,0.854-0.575c0.373-0.134,0.804-0.201,1.294-0.201
				c0.487,0,0.883,0.058,1.187,0.172s0.528,0.259,0.671,0.433s0.244,0.393,0.301,0.658c0.032,0.164,0.048,0.461,0.048,0.891v1.289
				c0,0.899,0.021,1.468,0.062,1.706c0.041,0.238,0.123,0.466,0.244,0.685h-1.01C126.62,48.377,126.555,48.142,126.526,47.875z
				 M126.446,45.714c-0.351,0.144-0.877,0.266-1.579,0.365c-0.397,0.058-0.679,0.122-0.843,0.193
				c-0.165,0.072-0.292,0.177-0.381,0.314s-0.134,0.291-0.134,0.459c0,0.258,0.098,0.473,0.293,0.645
				c0.195,0.172,0.48,0.258,0.856,0.258c0.373,0,0.704-0.081,0.994-0.244s0.503-0.386,0.639-0.668
				c0.104-0.219,0.156-0.541,0.156-0.967V45.714z"/>
			<path d="M128.9,48.578v-7.874h0.967v7.874H128.9z"/>
		</g>
	</g>
	<g>
		<defs>
			<rect id="SVGID_67_" x="-7.777" y="-7.238" width="412" height="241.001"/>
		</defs>
		<clipPath id="SVGID_68_">
			<use xlink:href="#SVGID_67_"  overflow="visible"/>
		</clipPath>
		<g clip-path="url(#SVGID_68_)">
			<path d="M139.494,123.535v-7.873h3.491c0.702,0,1.235,0.07,1.601,0.211c0.365,0.143,0.657,0.393,0.875,0.75
				s0.328,0.754,0.328,1.188c0,0.559-0.181,1.029-0.542,1.412s-0.92,0.627-1.676,0.73c0.276,0.133,0.485,0.264,0.628,0.393
				c0.304,0.279,0.593,0.627,0.865,1.047l1.37,2.143h-1.311l-1.042-1.639c-0.304-0.473-0.555-0.834-0.752-1.084
				s-0.374-0.426-0.529-0.527c-0.156-0.1-0.314-0.17-0.476-0.209c-0.118-0.025-0.312-0.037-0.58-0.037h-1.208v3.496H139.494z
				 M140.536,119.136h2.24c0.476,0,0.849-0.049,1.117-0.148c0.269-0.098,0.473-0.256,0.612-0.473s0.209-0.451,0.209-0.705
				c0-0.373-0.135-0.68-0.406-0.92c-0.27-0.238-0.697-0.359-1.281-0.359h-2.492V119.136z"/>
			<path d="M146.938,120.683c0-1.057,0.293-1.838,0.881-2.348c0.491-0.422,1.088-0.633,1.794-0.633c0.784,0,1.425,0.256,1.923,0.77
				s0.747,1.225,0.747,2.131c0,0.734-0.11,1.311-0.331,1.732c-0.22,0.42-0.541,0.746-0.961,0.979c-0.421,0.234-0.88,0.35-1.378,0.35
				c-0.798,0-1.444-0.256-1.937-0.768C147.184,122.384,146.938,121.646,146.938,120.683z M147.932,120.683
				c0,0.73,0.159,1.277,0.478,1.641s0.72,0.545,1.203,0.545c0.48,0,0.879-0.182,1.198-0.547s0.478-0.922,0.478-1.672
				c0-0.705-0.16-1.238-0.48-1.602c-0.321-0.363-0.719-0.547-1.195-0.547c-0.483,0-0.884,0.182-1.203,0.543
				S147.932,119.953,147.932,120.683z"/>
			<path d="M157.154,123.535v-0.838c-0.444,0.645-1.047,0.967-1.81,0.967c-0.336,0-0.651-0.064-0.942-0.193
				c-0.292-0.129-0.509-0.291-0.65-0.486c-0.141-0.195-0.241-0.434-0.298-0.717c-0.04-0.189-0.059-0.49-0.059-0.902v-3.533h0.967
				v3.162c0,0.506,0.02,0.846,0.059,1.021c0.061,0.254,0.19,0.453,0.387,0.6c0.197,0.145,0.44,0.217,0.73,0.217
				s0.562-0.074,0.816-0.223s0.434-0.352,0.54-0.607c0.105-0.256,0.158-0.627,0.158-1.115v-3.055h0.967v5.703H157.154z"/>
			<path d="M161.644,122.669l0.14,0.855c-0.272,0.057-0.516,0.086-0.73,0.086c-0.351,0-0.623-0.057-0.816-0.168
				c-0.193-0.109-0.33-0.256-0.408-0.438c-0.079-0.18-0.118-0.561-0.118-1.141v-3.281h-0.709v-0.752h0.709v-1.414l0.961-0.58v1.994
				h0.972v0.752h-0.972v3.334c0,0.277,0.017,0.453,0.051,0.533c0.034,0.078,0.089,0.141,0.166,0.188
				c0.077,0.047,0.188,0.07,0.331,0.07C161.327,122.708,161.469,122.695,161.644,122.669z"/>
			<path d="M162.595,116.773v-1.111h0.967v1.111H162.595z M162.595,123.535v-5.703h0.967v5.703H162.595z"/>
			<path d="M165.033,123.535v-5.703h0.87v0.811c0.419-0.627,1.024-0.939,1.815-0.939c0.344,0,0.66,0.061,0.948,0.186
				c0.289,0.123,0.504,0.285,0.647,0.484c0.143,0.201,0.244,0.439,0.301,0.715c0.036,0.18,0.054,0.492,0.054,0.939v3.508h-0.967
				v-3.469c0-0.395-0.038-0.689-0.113-0.885s-0.208-0.35-0.4-0.467c-0.192-0.115-0.417-0.174-0.674-0.174
				c-0.412,0-0.767,0.131-1.066,0.391c-0.299,0.262-0.449,0.758-0.449,1.488v3.115H165.033z"/>
			<path d="M175.056,121.699l0.999,0.123c-0.158,0.584-0.449,1.037-0.875,1.359s-0.97,0.482-1.633,0.482
				c-0.834,0-1.496-0.256-1.985-0.77c-0.488-0.514-0.733-1.234-0.733-2.162c0-0.961,0.247-1.705,0.741-2.234
				c0.494-0.531,1.135-0.795,1.923-0.795c0.763,0,1.386,0.26,1.869,0.777c0.483,0.52,0.725,1.25,0.725,2.191
				c0,0.059-0.002,0.145-0.005,0.258h-4.254c0.036,0.627,0.213,1.107,0.532,1.439c0.319,0.334,0.716,0.5,1.192,0.5
				c0.354,0,0.657-0.092,0.908-0.279C174.71,122.404,174.909,122.107,175.056,121.699z M171.881,120.134h3.185
				c-0.043-0.479-0.165-0.838-0.365-1.078c-0.308-0.373-0.707-0.559-1.198-0.559c-0.444,0-0.817,0.148-1.12,0.445
				C172.081,119.24,171.914,119.638,171.881,120.134z"/>
			<path d="M184.047,121.445l0.951,0.125c-0.104,0.654-0.37,1.168-0.797,1.539c-0.428,0.369-0.954,0.555-1.577,0.555
				c-0.781,0-1.408-0.254-1.882-0.766c-0.475-0.51-0.712-1.24-0.712-2.193c0-0.615,0.102-1.154,0.306-1.617
				c0.204-0.461,0.515-0.809,0.932-1.039c0.417-0.23,0.871-0.346,1.361-0.346c0.62,0,1.126,0.156,1.52,0.469
				c0.394,0.314,0.646,0.76,0.757,1.336l-0.94,0.145c-0.089-0.383-0.248-0.672-0.475-0.865c-0.228-0.193-0.502-0.289-0.825-0.289
				c-0.487,0-0.883,0.174-1.187,0.523s-0.457,0.9-0.457,1.656c0,0.768,0.147,1.324,0.44,1.67c0.293,0.348,0.677,0.521,1.149,0.521
				c0.379,0,0.696-0.115,0.951-0.35C183.818,122.287,183.979,121.929,184.047,121.445z"/>
			<path d="M185.465,120.683c0-1.057,0.293-1.838,0.881-2.348c0.491-0.422,1.088-0.633,1.794-0.633c0.784,0,1.425,0.256,1.923,0.77
				s0.747,1.225,0.747,2.131c0,0.734-0.11,1.311-0.331,1.732c-0.22,0.42-0.541,0.746-0.961,0.979c-0.421,0.234-0.88,0.35-1.378,0.35
				c-0.798,0-1.444-0.256-1.937-0.768C185.711,122.384,185.465,121.646,185.465,120.683z M186.458,120.683
				c0,0.73,0.159,1.277,0.478,1.641s0.72,0.545,1.203,0.545c0.48,0,0.879-0.182,1.198-0.547s0.478-0.922,0.478-1.672
				c0-0.705-0.16-1.238-0.48-1.602c-0.321-0.363-0.719-0.547-1.195-0.547c-0.483,0-0.884,0.182-1.203,0.543
				S186.458,119.953,186.458,120.683z"/>
			<path d="M191.765,124.007l0.94,0.141c0.04,0.289,0.148,0.5,0.328,0.633c0.24,0.18,0.567,0.27,0.983,0.27
				c0.448,0,0.793-0.09,1.037-0.27c0.244-0.178,0.408-0.43,0.494-0.752c0.05-0.197,0.073-0.609,0.07-1.24
				c-0.422,0.498-0.949,0.746-1.579,0.746c-0.784,0-1.391-0.283-1.821-0.848c-0.43-0.566-0.645-1.244-0.645-2.037
				c0-0.543,0.099-1.045,0.295-1.506c0.197-0.459,0.482-0.814,0.857-1.066c0.374-0.25,0.813-0.375,1.318-0.375
				c0.673,0,1.228,0.271,1.665,0.816v-0.688h0.892v4.93c0,0.889-0.09,1.518-0.271,1.889c-0.181,0.371-0.467,0.662-0.859,0.877
				c-0.392,0.215-0.875,0.322-1.447,0.322c-0.68,0-1.23-0.152-1.649-0.459C191.953,125.085,191.751,124.625,191.765,124.007z
				 M192.565,120.582c0,0.748,0.148,1.293,0.446,1.637s0.669,0.516,1.117,0.516c0.444,0,0.816-0.17,1.117-0.512
				s0.451-0.879,0.451-1.609c0-0.697-0.155-1.225-0.465-1.578c-0.31-0.355-0.683-0.533-1.12-0.533c-0.43,0-0.795,0.176-1.096,0.525
				C192.716,119.375,192.565,119.894,192.565,120.582z"/>
			<path d="M198.06,123.535v-5.703h0.87v0.811c0.419-0.627,1.023-0.939,1.815-0.939c0.344,0,0.659,0.061,0.948,0.186
				c0.288,0.123,0.504,0.285,0.646,0.484c0.144,0.201,0.244,0.439,0.301,0.715c0.036,0.18,0.055,0.492,0.055,0.939v3.508h-0.967
				v-3.469c0-0.395-0.038-0.689-0.113-0.885s-0.209-0.35-0.4-0.467c-0.191-0.115-0.416-0.174-0.674-0.174
				c-0.412,0-0.768,0.131-1.066,0.391c-0.299,0.262-0.449,0.758-0.449,1.488v3.115H198.06z"/>
			<path d="M204.183,116.773v-1.111h0.967v1.111H204.183z M204.183,123.535v-5.703h0.967v5.703H204.183z"/>
			<path d="M208.733,122.669l0.139,0.855c-0.271,0.057-0.516,0.086-0.73,0.086c-0.351,0-0.623-0.057-0.816-0.168
				c-0.193-0.109-0.329-0.256-0.408-0.438c-0.078-0.18-0.117-0.561-0.117-1.141v-3.281h-0.709v-0.752h0.709v-1.414l0.961-0.58v1.994
				h0.973v0.752h-0.973v3.334c0,0.277,0.018,0.453,0.051,0.533c0.034,0.078,0.09,0.141,0.166,0.188
				c0.078,0.047,0.188,0.07,0.331,0.07C208.416,122.708,208.557,122.695,208.733,122.669z"/>
			<path d="M209.683,116.773v-1.111h0.967v1.111H209.683z M209.683,123.535v-5.703h0.967v5.703H209.683z"/>
			<path d="M213.706,123.535l-2.17-5.703h1.021l1.225,3.416c0.132,0.369,0.254,0.752,0.365,1.148
				c0.086-0.301,0.205-0.662,0.359-1.084l1.268-3.48h0.994l-2.16,5.703H213.706z"/>
			<path d="M221.526,121.699l1,0.123c-0.158,0.584-0.449,1.037-0.876,1.359s-0.97,0.482-1.633,0.482
				c-0.835,0-1.495-0.256-1.985-0.77c-0.488-0.514-0.732-1.234-0.732-2.162c0-0.961,0.247-1.705,0.741-2.234
				c0.494-0.531,1.136-0.795,1.923-0.795c0.763,0,1.386,0.26,1.869,0.777c0.483,0.52,0.725,1.25,0.725,2.191
				c0,0.059-0.002,0.145-0.005,0.258h-4.254c0.036,0.627,0.213,1.107,0.532,1.439c0.318,0.334,0.716,0.5,1.191,0.5
				c0.355,0,0.658-0.092,0.908-0.279C221.18,122.404,221.379,122.107,221.526,121.699z M218.352,120.134h3.186
				c-0.043-0.479-0.165-0.838-0.365-1.078c-0.309-0.373-0.707-0.559-1.198-0.559c-0.444,0-0.817,0.148-1.12,0.445
				S218.384,119.638,218.352,120.134z"/>
		</g>
	</g>
	<g>
		<defs>
			<rect id="SVGID_69_" x="-7.777" y="-7.238" width="412" height="241.001"/>
		</defs>
		<clipPath id="SVGID_70_">
			<use xlink:href="#SVGID_69_"  overflow="visible"/>
		</clipPath>
		<g clip-path="url(#SVGID_70_)">
			<path d="M244.309,64.613v-7.874h1.068l4.137,6.183v-6.183h0.998v7.874h-1.068l-4.136-6.188v6.188H244.309z"/>
			<path d="M251.78,61.761c0-1.057,0.294-1.839,0.881-2.348c0.491-0.423,1.089-0.634,1.795-0.634c0.783,0,1.425,0.257,1.922,0.771
				c0.498,0.514,0.747,1.224,0.747,2.13c0,0.734-0.11,1.312-0.331,1.732c-0.219,0.421-0.54,0.747-0.961,0.979
				c-0.42,0.233-0.88,0.35-1.377,0.35c-0.799,0-1.444-0.256-1.938-0.768C252.026,63.461,251.78,62.724,251.78,61.761z
				 M252.774,61.761c0,0.73,0.159,1.277,0.479,1.641c0.318,0.363,0.719,0.545,1.203,0.545c0.479,0,0.879-0.183,1.197-0.548
				s0.479-0.922,0.479-1.671c0-0.705-0.16-1.239-0.48-1.603c-0.321-0.363-0.72-0.546-1.195-0.546c-0.484,0-0.885,0.182-1.203,0.543
				C252.933,60.484,252.774,61.031,252.774,61.761z"/>
			<path d="M258.258,64.613v-5.704h0.869v0.812c0.42-0.627,1.024-0.94,1.816-0.94c0.344,0,0.659,0.062,0.947,0.186
				c0.289,0.123,0.504,0.285,0.647,0.485c0.144,0.201,0.243,0.439,0.301,0.715c0.036,0.179,0.054,0.492,0.054,0.939v3.508h-0.967
				v-3.47c0-0.394-0.037-0.688-0.113-0.884c-0.074-0.195-0.208-0.351-0.399-0.467c-0.192-0.116-0.417-0.175-0.675-0.175
				c-0.411,0-0.767,0.131-1.065,0.392c-0.3,0.262-0.448,0.758-0.448,1.488v3.115H258.258z"/>
			<path d="M264,62.25v-0.973h2.97v0.973H264z"/>
			<path d="M268.028,64.613v-5.704h0.87v0.864c0.222-0.404,0.427-0.671,0.614-0.8c0.189-0.129,0.396-0.193,0.621-0.193
				c0.326,0,0.657,0.104,0.994,0.312l-0.334,0.896c-0.236-0.139-0.473-0.209-0.709-0.209c-0.211,0-0.4,0.063-0.568,0.19
				c-0.169,0.127-0.289,0.304-0.36,0.529c-0.107,0.344-0.161,0.72-0.161,1.128v2.986H268.028z"/>
			<path d="M271.342,61.761c0-1.057,0.293-1.839,0.881-2.348c0.49-0.423,1.088-0.634,1.793-0.634c0.785,0,1.426,0.257,1.924,0.771
				c0.497,0.514,0.746,1.224,0.746,2.13c0,0.734-0.109,1.312-0.33,1.732s-0.541,0.747-0.961,0.979
				c-0.422,0.233-0.881,0.35-1.379,0.35c-0.798,0-1.443-0.256-1.936-0.768C271.588,63.461,271.342,62.724,271.342,61.761z
				 M272.335,61.761c0,0.73,0.159,1.277,0.478,1.641c0.319,0.363,0.721,0.545,1.203,0.545c0.48,0,0.879-0.183,1.198-0.548
				s0.478-0.922,0.478-1.671c0-0.705-0.16-1.239-0.48-1.603s-0.719-0.546-1.195-0.546c-0.482,0-0.884,0.182-1.203,0.543
				C272.495,60.484,272.335,61.031,272.335,61.761z"/>
			<path d="M281.557,64.613v-0.838c-0.443,0.645-1.047,0.967-1.81,0.967c-0.337,0-0.651-0.064-0.942-0.193
				c-0.292-0.129-0.509-0.291-0.65-0.486c-0.141-0.195-0.24-0.434-0.298-0.717c-0.04-0.189-0.06-0.49-0.06-0.902v-3.534h0.967v3.163
				c0,0.506,0.02,0.846,0.06,1.021c0.062,0.254,0.19,0.453,0.387,0.599c0.196,0.145,0.44,0.218,0.73,0.218s0.562-0.075,0.816-0.224
				s0.435-0.351,0.54-0.606s0.158-0.628,0.158-1.115v-3.056h0.967v5.704H281.557z"/>
			<path d="M286.047,63.748l0.141,0.854c-0.272,0.058-0.516,0.086-0.73,0.086c-0.352,0-0.623-0.056-0.816-0.167
				c-0.193-0.11-0.33-0.257-0.408-0.438c-0.079-0.181-0.119-0.561-0.119-1.141v-3.282h-0.709v-0.752h0.709v-1.413l0.962-0.58v1.993
				h0.972v0.752h-0.972v3.335c0,0.276,0.017,0.453,0.052,0.532c0.033,0.079,0.089,0.142,0.166,0.188
				c0.076,0.046,0.188,0.069,0.33,0.069C285.731,63.786,285.873,63.773,286.047,63.748z"/>
			<path d="M286.999,57.851v-1.112h0.967v1.112H286.999z M286.999,64.613v-5.704h0.967v5.704H286.999z"/>
			<path d="M289.437,64.613v-5.704h0.87v0.812c0.419-0.627,1.023-0.94,1.815-0.94c0.344,0,0.659,0.062,0.948,0.186
				c0.288,0.123,0.504,0.285,0.646,0.485c0.144,0.201,0.244,0.439,0.301,0.715c0.036,0.179,0.055,0.492,0.055,0.939v3.508h-0.967
				v-3.47c0-0.394-0.038-0.688-0.113-0.884s-0.209-0.351-0.4-0.467s-0.416-0.175-0.674-0.175c-0.412,0-0.768,0.131-1.066,0.392
				c-0.299,0.262-0.448,0.758-0.448,1.488v3.115H289.437z"/>
			<path d="M299.459,62.776l0.999,0.124c-0.157,0.583-0.449,1.036-0.876,1.358c-0.426,0.322-0.97,0.483-1.633,0.483
				c-0.834,0-1.495-0.257-1.984-0.771c-0.488-0.514-0.732-1.234-0.732-2.162c0-0.96,0.246-1.704,0.74-2.234s1.136-0.795,1.924-0.795
				c0.762,0,1.385,0.26,1.869,0.778c0.482,0.52,0.725,1.25,0.725,2.191c0,0.058-0.002,0.144-0.006,0.258h-4.254
				c0.036,0.627,0.213,1.107,0.532,1.439c0.319,0.334,0.716,0.5,1.192,0.5c0.354,0,0.657-0.093,0.908-0.279
				C299.114,63.481,299.313,63.184,299.459,62.776z M296.286,61.212h3.185c-0.043-0.479-0.165-0.839-0.365-1.079
				c-0.308-0.372-0.707-0.559-1.198-0.559c-0.443,0-0.816,0.148-1.119,0.446C296.485,60.318,296.317,60.715,296.286,61.212z"/>
			<path d="M308.451,62.523l0.95,0.124c-0.104,0.655-0.369,1.168-0.797,1.539c-0.428,0.37-0.953,0.556-1.576,0.556
				c-0.781,0-1.408-0.255-1.883-0.766c-0.475-0.51-0.712-1.241-0.712-2.193c0-0.616,0.103-1.155,0.306-1.617
				c0.205-0.462,0.516-0.809,0.933-1.039c0.417-0.231,0.87-0.347,1.361-0.347c0.62,0,1.126,0.156,1.521,0.47
				c0.394,0.313,0.646,0.759,0.757,1.335l-0.94,0.146c-0.089-0.384-0.248-0.672-0.475-0.865c-0.228-0.193-0.502-0.29-0.824-0.29
				c-0.487,0-0.883,0.175-1.188,0.523c-0.305,0.35-0.457,0.901-0.457,1.657c0,0.767,0.147,1.323,0.441,1.67
				c0.293,0.348,0.676,0.521,1.148,0.521c0.38,0,0.697-0.116,0.951-0.35C308.221,63.365,308.383,63.007,308.451,62.523z"/>
			<path d="M309.869,61.761c0-1.057,0.294-1.839,0.881-2.348c0.491-0.423,1.089-0.634,1.794-0.634c0.784,0,1.426,0.257,1.923,0.771
				s0.747,1.224,0.747,2.13c0,0.734-0.11,1.312-0.331,1.732c-0.22,0.421-0.54,0.747-0.961,0.979c-0.421,0.233-0.88,0.35-1.378,0.35
				c-0.799,0-1.443-0.256-1.937-0.768C310.115,63.461,309.869,62.724,309.869,61.761z M310.862,61.761
				c0,0.73,0.16,1.277,0.479,1.641s0.72,0.545,1.203,0.545c0.48,0,0.879-0.183,1.197-0.548c0.319-0.365,0.479-0.922,0.479-1.671
				c0-0.705-0.16-1.239-0.48-1.603s-0.719-0.546-1.195-0.546c-0.483,0-0.885,0.182-1.203,0.543S310.862,61.031,310.862,61.761z"/>
			<path d="M316.168,65.085l0.94,0.14c0.04,0.29,0.148,0.501,0.327,0.634c0.24,0.179,0.568,0.269,0.983,0.269
				c0.448,0,0.793-0.09,1.036-0.269c0.244-0.179,0.408-0.43,0.494-0.752c0.051-0.197,0.074-0.61,0.07-1.24
				c-0.422,0.497-0.949,0.746-1.579,0.746c-0.784,0-1.392-0.283-1.821-0.849s-0.645-1.244-0.645-2.036
				c0-0.544,0.1-1.046,0.296-1.506s0.482-0.815,0.856-1.066c0.375-0.251,0.814-0.376,1.318-0.376c0.674,0,1.229,0.272,1.666,0.816
				v-0.688h0.891v4.931c0,0.888-0.09,1.518-0.271,1.888c-0.18,0.371-0.467,0.663-0.859,0.878c-0.391,0.215-0.874,0.322-1.447,0.322
				c-0.68,0-1.229-0.152-1.648-0.459C316.357,66.163,316.155,65.702,316.168,65.085z M316.969,61.659
				c0,0.748,0.148,1.294,0.445,1.638c0.298,0.344,0.67,0.516,1.117,0.516c0.444,0,0.816-0.171,1.117-0.513s0.451-0.878,0.451-1.608
				c0-0.698-0.154-1.225-0.465-1.579c-0.309-0.354-0.682-0.532-1.119-0.532c-0.43,0-0.795,0.175-1.096,0.524
				C317.12,60.453,316.969,60.971,316.969,61.659z"/>
			<path d="M322.463,64.613v-5.704h0.871v0.812c0.418-0.627,1.023-0.94,1.814-0.94c0.344,0,0.66,0.062,0.948,0.186
				c0.288,0.123,0.505,0.285,0.647,0.485c0.143,0.201,0.244,0.439,0.301,0.715c0.035,0.179,0.054,0.492,0.054,0.939v3.508h-0.967
				v-3.47c0-0.394-0.038-0.688-0.112-0.884c-0.076-0.195-0.209-0.351-0.4-0.467s-0.416-0.175-0.674-0.175
				c-0.412,0-0.768,0.131-1.066,0.392c-0.299,0.262-0.449,0.758-0.449,1.488v3.115H322.463z"/>
			<path d="M328.586,57.851v-1.112h0.967v1.112H328.586z M328.586,64.613v-5.704h0.967v5.704H328.586z"/>
			<path d="M333.136,63.748l0.14,0.854c-0.271,0.058-0.516,0.086-0.73,0.086c-0.352,0-0.623-0.056-0.816-0.167
				c-0.193-0.11-0.33-0.257-0.408-0.438s-0.118-0.561-0.118-1.141v-3.282h-0.709v-0.752h0.709v-1.413l0.962-0.58v1.993h0.972v0.752
				h-0.972v3.335c0,0.276,0.017,0.453,0.051,0.532c0.033,0.079,0.09,0.142,0.166,0.188c0.077,0.046,0.188,0.069,0.33,0.069
				C332.819,63.786,332.961,63.773,333.136,63.748z"/>
			<path d="M334.086,57.851v-1.112h0.967v1.112H334.086z M334.086,64.613v-5.704h0.967v5.704H334.086z"/>
			<path d="M338.11,64.613l-2.17-5.704h1.021l1.225,3.416c0.132,0.369,0.255,0.752,0.365,1.149c0.086-0.301,0.206-0.662,0.36-1.085
				l1.268-3.48h0.993l-2.159,5.704H338.11z"/>
			<path d="M345.93,62.776l0.999,0.124c-0.157,0.583-0.449,1.036-0.876,1.358c-0.426,0.322-0.97,0.483-1.633,0.483
				c-0.834,0-1.495-0.257-1.984-0.771c-0.488-0.514-0.732-1.234-0.732-2.162c0-0.96,0.246-1.704,0.74-2.234s1.136-0.795,1.924-0.795
				c0.762,0,1.385,0.26,1.869,0.778c0.482,0.52,0.725,1.25,0.725,2.191c0,0.058-0.002,0.144-0.006,0.258h-4.254
				c0.036,0.627,0.213,1.107,0.532,1.439c0.319,0.334,0.716,0.5,1.192,0.5c0.354,0,0.657-0.093,0.908-0.279
				C345.584,63.481,345.784,63.184,345.93,62.776z M342.756,61.212h3.185c-0.043-0.479-0.165-0.839-0.365-1.079
				c-0.308-0.372-0.707-0.559-1.198-0.559c-0.443,0-0.816,0.148-1.119,0.446C342.956,60.318,342.788,60.715,342.756,61.212z"/>
		</g>
	</g>
	<g>
		<defs>
			<rect id="SVGID_71_" x="-7.777" y="-7.238" width="412" height="241.001"/>
		</defs>
		<clipPath id="SVGID_72_">
			<use xlink:href="#SVGID_71_"  overflow="visible"/>
		</clipPath>
		<g clip-path="url(#SVGID_72_)">
			<path d="M248.674,169.15v-7.875h1.069l4.136,6.184v-6.184h0.999v7.875h-1.069l-4.135-6.188v6.188H248.674z"/>
			<path d="M256.146,166.298c0-1.057,0.294-1.84,0.881-2.348c0.491-0.424,1.089-0.635,1.794-0.635c0.784,0,1.426,0.258,1.923,0.771
				s0.747,1.223,0.747,2.129c0,0.734-0.11,1.312-0.331,1.732c-0.22,0.422-0.54,0.748-0.961,0.98s-0.88,0.35-1.378,0.35
				c-0.799,0-1.443-0.256-1.937-0.768C256.392,167.998,256.146,167.261,256.146,166.298z M257.139,166.298
				c0,0.73,0.16,1.277,0.479,1.641s0.72,0.545,1.203,0.545c0.48,0,0.879-0.184,1.197-0.549c0.319-0.365,0.479-0.922,0.479-1.67
				c0-0.705-0.16-1.24-0.48-1.604s-0.719-0.545-1.195-0.545c-0.483,0-0.885,0.182-1.203,0.543S257.139,165.568,257.139,166.298z"/>
			<path d="M262.624,169.15v-5.705h0.87v0.812c0.419-0.627,1.024-0.941,1.815-0.941c0.344,0,0.66,0.062,0.947,0.186
				c0.289,0.123,0.505,0.285,0.648,0.486c0.143,0.201,0.243,0.439,0.301,0.715c0.035,0.178,0.053,0.492,0.053,0.939v3.508h-0.967
				v-3.471c0-0.393-0.037-0.688-0.112-0.883s-0.208-0.352-0.399-0.467c-0.192-0.117-0.417-0.176-0.675-0.176
				c-0.411,0-0.767,0.131-1.065,0.393c-0.3,0.262-0.449,0.758-0.449,1.488v3.115H262.624z"/>
			<path d="M268.366,166.787v-0.973h2.97v0.973H268.366z"/>
			<path d="M272.393,169.15v-5.705h0.871v0.865c0.222-0.404,0.427-0.672,0.614-0.801c0.188-0.129,0.396-0.193,0.62-0.193
				c0.326,0,0.658,0.104,0.994,0.312l-0.333,0.896c-0.236-0.139-0.473-0.209-0.709-0.209c-0.212,0-0.401,0.062-0.569,0.189
				s-0.288,0.305-0.359,0.529c-0.107,0.344-0.162,0.721-0.162,1.129v2.986H272.393z"/>
			<path d="M275.708,166.298c0-1.057,0.293-1.84,0.881-2.348c0.49-0.424,1.088-0.635,1.794-0.635c0.784,0,1.425,0.258,1.923,0.771
				s0.746,1.223,0.746,2.129c0,0.734-0.109,1.312-0.33,1.732c-0.22,0.422-0.541,0.748-0.961,0.98
				c-0.421,0.232-0.881,0.35-1.378,0.35c-0.798,0-1.444-0.256-1.937-0.768C275.954,167.998,275.708,167.261,275.708,166.298z
				 M276.702,166.298c0,0.73,0.158,1.277,0.478,1.641s0.72,0.545,1.203,0.545c0.479,0,0.879-0.184,1.198-0.549
				c0.318-0.365,0.478-0.922,0.478-1.67c0-0.705-0.16-1.24-0.48-1.604c-0.321-0.363-0.72-0.545-1.195-0.545
				c-0.483,0-0.884,0.182-1.203,0.543S276.702,165.568,276.702,166.298z"/>
			<path d="M285.923,169.15v-0.838c-0.444,0.645-1.048,0.967-1.81,0.967c-0.337,0-0.651-0.064-0.943-0.193
				c-0.291-0.129-0.508-0.291-0.65-0.486c-0.141-0.195-0.24-0.434-0.297-0.717c-0.04-0.189-0.06-0.49-0.06-0.902v-3.535h0.967v3.164
				c0,0.506,0.02,0.846,0.06,1.021c0.061,0.254,0.189,0.453,0.387,0.598c0.196,0.145,0.439,0.219,0.73,0.219
				c0.289,0,0.562-0.076,0.816-0.225c0.254-0.148,0.434-0.35,0.539-0.605s0.158-0.629,0.158-1.115v-3.057h0.967v5.705H285.923z"/>
			<path d="M290.414,168.285l0.14,0.854c-0.271,0.059-0.516,0.086-0.73,0.086c-0.352,0-0.623-0.055-0.816-0.166
				s-0.33-0.258-0.408-0.438c-0.078-0.182-0.118-0.561-0.118-1.141v-3.283h-0.709v-0.752h0.709v-1.412l0.962-0.58v1.992h0.972v0.752
				h-0.972v3.336c0,0.275,0.017,0.453,0.051,0.531c0.033,0.08,0.09,0.143,0.166,0.189c0.077,0.045,0.188,0.068,0.33,0.068
				C290.096,168.322,290.239,168.31,290.414,168.285z"/>
			<path d="M291.364,162.388v-1.113h0.967v1.113H291.364z M291.364,169.15v-5.705h0.967v5.705H291.364z"/>
			<path d="M293.803,169.15v-5.705h0.869v0.812c0.42-0.627,1.024-0.941,1.816-0.941c0.344,0,0.659,0.062,0.947,0.186
				c0.289,0.123,0.504,0.285,0.647,0.486s0.243,0.439,0.301,0.715c0.036,0.178,0.054,0.492,0.054,0.939v3.508h-0.967v-3.471
				c0-0.393-0.037-0.688-0.113-0.883c-0.074-0.195-0.208-0.352-0.399-0.467c-0.192-0.117-0.417-0.176-0.675-0.176
				c-0.411,0-0.767,0.131-1.065,0.393c-0.3,0.262-0.448,0.758-0.448,1.488v3.115H293.803z"/>
			<path d="M303.825,167.312l1,0.125c-0.158,0.582-0.449,1.035-0.876,1.357s-0.97,0.484-1.633,0.484
				c-0.835,0-1.495-0.258-1.985-0.771c-0.488-0.514-0.732-1.234-0.732-2.162c0-0.959,0.247-1.703,0.741-2.234
				c0.494-0.529,1.136-0.795,1.923-0.795c0.763,0,1.386,0.26,1.869,0.779s0.725,1.25,0.725,2.191c0,0.057-0.002,0.143-0.005,0.258
				h-4.254c0.036,0.627,0.213,1.107,0.532,1.439c0.318,0.334,0.716,0.5,1.191,0.5c0.355,0,0.658-0.094,0.908-0.279
				C303.479,168.017,303.678,167.72,303.825,167.312z M300.651,165.75h3.186c-0.043-0.48-0.165-0.84-0.365-1.08
				c-0.309-0.371-0.707-0.559-1.198-0.559c-0.444,0-0.817,0.148-1.12,0.447C300.85,164.855,300.683,165.251,300.651,165.75z"/>
			<path d="M309.094,169.15v-5.705h0.865v0.801c0.179-0.279,0.416-0.504,0.714-0.674s0.636-0.256,1.015-0.256
				c0.423,0,0.77,0.088,1.039,0.264c0.271,0.176,0.462,0.42,0.572,0.736c0.451-0.666,1.039-1,1.762-1
				c0.566,0,1.002,0.156,1.306,0.471c0.304,0.312,0.456,0.795,0.456,1.447v3.916h-0.961v-3.594c0-0.387-0.031-0.666-0.094-0.836
				s-0.177-0.307-0.342-0.41c-0.164-0.104-0.357-0.156-0.58-0.156c-0.4,0-0.733,0.135-0.998,0.4
				c-0.266,0.268-0.398,0.693-0.398,1.281v3.314h-0.967v-3.707c0-0.43-0.078-0.752-0.236-0.967
				c-0.157-0.215-0.415-0.322-0.773-0.322c-0.271,0-0.523,0.072-0.754,0.215c-0.23,0.145-0.398,0.354-0.502,0.629
				c-0.104,0.275-0.156,0.674-0.156,1.193v2.959H309.094z"/>
			<path d="M321.979,168.447c-0.357,0.303-0.702,0.518-1.033,0.645c-0.332,0.125-0.688,0.188-1.066,0.188
				c-0.627,0-1.108-0.154-1.445-0.459c-0.336-0.307-0.504-0.697-0.504-1.174c0-0.279,0.062-0.535,0.189-0.766
				c0.128-0.23,0.295-0.416,0.5-0.557c0.206-0.139,0.438-0.244,0.695-0.316c0.19-0.051,0.477-0.098,0.859-0.145
				c0.781-0.094,1.355-0.205,1.725-0.334c0.004-0.133,0.006-0.217,0.006-0.252c0-0.395-0.092-0.672-0.274-0.832
				c-0.247-0.219-0.614-0.328-1.101-0.328c-0.455,0-0.791,0.08-1.008,0.238c-0.217,0.16-0.377,0.441-0.48,0.848l-0.945-0.129
				c0.086-0.406,0.228-0.732,0.424-0.98c0.197-0.25,0.482-0.441,0.854-0.576c0.372-0.133,0.804-0.201,1.294-0.201
				c0.487,0,0.883,0.059,1.188,0.172c0.305,0.115,0.528,0.26,0.672,0.434c0.143,0.174,0.243,0.393,0.301,0.658
				c0.031,0.164,0.048,0.461,0.048,0.891v1.289c0,0.898,0.021,1.467,0.062,1.705s0.123,0.467,0.244,0.686h-1.01
				C322.073,168.949,322.008,168.714,321.979,168.447z M321.899,166.287c-0.352,0.143-0.877,0.266-1.579,0.365
				c-0.397,0.057-0.679,0.121-0.843,0.193c-0.165,0.072-0.293,0.176-0.382,0.314c-0.089,0.137-0.134,0.291-0.134,0.459
				c0,0.258,0.098,0.473,0.293,0.645c0.194,0.172,0.48,0.258,0.855,0.258c0.373,0,0.704-0.082,0.994-0.244
				c0.29-0.164,0.503-0.387,0.639-0.668c0.104-0.219,0.156-0.541,0.156-0.967V166.287z"/>
			<path d="M324.375,169.15v-5.705h0.869v0.812c0.42-0.627,1.024-0.941,1.816-0.941c0.344,0,0.659,0.062,0.947,0.186
				c0.289,0.123,0.504,0.285,0.647,0.486s0.243,0.439,0.301,0.715c0.036,0.178,0.054,0.492,0.054,0.939v3.508h-0.967v-3.471
				c0-0.393-0.037-0.688-0.113-0.883c-0.074-0.195-0.208-0.352-0.399-0.467c-0.192-0.117-0.417-0.176-0.675-0.176
				c-0.411,0-0.767,0.131-1.065,0.393c-0.3,0.262-0.448,0.758-0.448,1.488v3.115H324.375z"/>
			<path d="M334.231,169.15v-0.838c-0.443,0.645-1.047,0.967-1.811,0.967c-0.336,0-0.65-0.064-0.941-0.193
				c-0.293-0.129-0.51-0.291-0.65-0.486c-0.142-0.195-0.241-0.434-0.299-0.717c-0.039-0.189-0.059-0.49-0.059-0.902v-3.535h0.967
				v3.164c0,0.506,0.02,0.846,0.059,1.021c0.062,0.254,0.19,0.453,0.387,0.598c0.197,0.145,0.441,0.219,0.73,0.219
				c0.291,0,0.562-0.076,0.816-0.225c0.255-0.148,0.435-0.35,0.541-0.605c0.105-0.256,0.158-0.629,0.158-1.115v-3.057h0.967v5.705
				H334.231z"/>
			<path d="M340.333,168.447c-0.357,0.303-0.703,0.518-1.034,0.645c-0.331,0.125-0.687,0.188-1.065,0.188
				c-0.627,0-1.109-0.154-1.445-0.459c-0.336-0.307-0.505-0.697-0.505-1.174c0-0.279,0.063-0.535,0.19-0.766s0.294-0.416,0.5-0.557
				c0.205-0.139,0.438-0.244,0.695-0.316c0.189-0.051,0.477-0.098,0.859-0.145c0.781-0.094,1.355-0.205,1.725-0.334
				c0.003-0.133,0.005-0.217,0.005-0.252c0-0.395-0.091-0.672-0.274-0.832c-0.246-0.219-0.613-0.328-1.101-0.328
				c-0.454,0-0.79,0.08-1.007,0.238c-0.217,0.16-0.377,0.441-0.48,0.848l-0.945-0.129c0.086-0.406,0.227-0.732,0.424-0.98
				c0.197-0.25,0.481-0.441,0.854-0.576c0.373-0.133,0.805-0.201,1.295-0.201c0.486,0,0.883,0.059,1.188,0.172
				c0.304,0.115,0.527,0.26,0.671,0.434s0.243,0.393,0.301,0.658c0.032,0.164,0.048,0.461,0.048,0.891v1.289
				c0,0.898,0.021,1.467,0.062,1.705s0.123,0.467,0.244,0.686h-1.01C340.426,168.949,340.362,168.714,340.333,168.447z
				 M340.252,166.287c-0.352,0.143-0.878,0.266-1.58,0.365c-0.396,0.057-0.678,0.121-0.843,0.193s-0.292,0.176-0.382,0.314
				c-0.089,0.137-0.134,0.291-0.134,0.459c0,0.258,0.098,0.473,0.293,0.645c0.194,0.172,0.48,0.258,0.856,0.258
				c0.373,0,0.703-0.082,0.994-0.244c0.289-0.164,0.502-0.387,0.639-0.668c0.104-0.219,0.156-0.541,0.156-0.967V166.287z"/>
			<path d="M342.707,169.15v-7.875h0.967v7.875H342.707z"/>
		</g>
	</g>
</g>
<g>
</g>
<g>
</g>
<g>
</g>
<g>
</g>
<g>
</g>
<g>
</g>
</svg>
