<svg enable-background="new 0 0 228.966 195.862" height="195.862" viewBox="0 0 228.966 195.862" width="228.966" xmlns="http://www.w3.org/2000/svg" xmlns:xlink="http://www.w3.org/1999/xlink"><clipPath id="a"><path d="m-23.552-6.688h272.457v254.303h-272.457z"/></clipPath><clipPath id="b"><path d="m-23.552-6.688h272.457v254.303h-272.457z"/></clipPath><clipPath id="c"><path d="m-23.552-6.688h272.457v254.303h-272.457z"/></clipPath><clipPath id="d"><path d="m-23.552-6.688h272.457v254.303h-272.457z"/></clipPath><path d="m78.415 5.675v9.8h-.995v-7.84l-3.85 6.594h-.49l-3.85-6.552v7.798h-.994v-9.8h.854l4.256 7.266 4.214-7.266z" fill="#57bcaf"/><path d="m86.184 8.775c.513.481.77 1.192.77 2.135v4.564h-.952v-1.148c-.224.383-.553.682-.987.896s-.95.322-1.547.322c-.821 0-1.475-.196-1.96-.588-.485-.393-.728-.91-.728-1.555 0-.625.226-1.129.679-1.512.452-.383 1.173-.574 2.163-.574h2.338v-.448c0-.634-.178-1.117-.532-1.448-.355-.331-.873-.497-1.554-.497-.467 0-.915.077-1.344.23-.429.154-.798.366-1.106.638l-.448-.742c.374-.317.821-.562 1.344-.735.522-.173 1.073-.259 1.652-.259.962.001 1.699.241 2.212.721zm-1.12 5.601c.401-.257.7-.628.896-1.113v-1.204h-2.31c-1.26 0-1.89.438-1.89 1.316 0 .429.163.768.49 1.015.326.247.784.371 1.372.371.56 0 1.041-.128 1.442-.385z" fill="#57bcaf"/><path d="m89.657 5.087h.994v10.388h-.994z" fill="#57bcaf"/><path d="m99.834 12.101h-6.16c.056.766.35 1.384.882 1.855s1.204.707 2.016.707c.457 0 .877-.082 1.26-.245s.714-.404.994-.722l.56.645c-.327.392-.735.69-1.225.896s-1.029.309-1.617.309c-.756 0-1.426-.161-2.009-.483s-1.039-.768-1.365-1.337-.49-1.213-.49-1.932.156-1.363.469-1.933c.313-.569.742-1.013 1.288-1.33.546-.316 1.16-.476 1.841-.476s1.292.159 1.834.476c.541.317.966.759 1.274 1.323s.462 1.211.462 1.939zm-5.341-2.513c-.481.452-.754 1.043-.819 1.771h5.222c-.065-.728-.338-1.318-.819-1.771s-1.081-.68-1.799-.68c-.709 0-1.304.227-1.785.68z" fill="#57bcaf"/><path d="m102.137 15.285c-.546-.172-.973-.389-1.281-.65l.448-.784c.308.243.695.441 1.162.595.466.154.952.231 1.456.231.672 0 1.169-.105 1.491-.315s.483-.506.483-.889c0-.271-.088-.483-.266-.637s-.401-.271-.672-.351c-.271-.079-.63-.156-1.078-.23-.598-.112-1.078-.227-1.442-.344-.364-.116-.674-.314-.931-.595-.257-.28-.385-.667-.385-1.162 0-.615.257-1.12.77-1.512s1.227-.588 2.142-.588c.476 0 .952.062 1.428.188s.868.292 1.176.497l-.434.799c-.607-.421-1.33-.631-2.17-.631-.635 0-1.113.112-1.435.336-.322.225-.483.519-.483.883 0 .279.091.504.273.672s.408.292.679.371.644.161 1.12.245c.588.111 1.06.224 1.414.336.354.111.658.303.91.573.252.271.378.645.378 1.12 0 .645-.269 1.155-.805 1.533s-1.281.567-2.233.567c-.597.002-1.169-.085-1.715-.258z" fill="#57bcaf"/><g fill="#0c4686"><path d="m38.151 39.303c-.429-.15-.76-.348-.995-.594l.261-.514c.228.229.531.413.909.554.378.142.768.212 1.17.212.564 0 .987-.104 1.269-.311s.423-.476.423-.806c0-.252-.077-.453-.229-.604-.153-.149-.341-.265-.562-.346-.222-.081-.531-.17-.927-.266-.474-.12-.852-.235-1.134-.347-.282-.111-.523-.28-.725-.509-.201-.228-.301-.537-.301-.927 0-.318.084-.607.252-.868.168-.262.426-.47.774-.626s.78-.233 1.296-.233c.36 0 .712.049 1.058.148.345.099.644.235.896.409l-.225.531c-.264-.174-.546-.305-.846-.392s-.594-.131-.882-.131c-.552 0-.967.106-1.247.319-.279.213-.418.488-.418.824 0 .252.077.454.229.607.153.152.345.27.576.351s.542.17.932.266c.462.114.835.227 1.12.338.285.11.527.278.725.504.198.225.297.529.297.913 0 .318-.085.607-.256.868-.171.262-.434.469-.788.621-.354.153-.789.229-1.305.229-.47.004-.918-.07-1.347-.22z"/><path d="m46.238 35.167c.33.31.495.767.495 1.373v2.934h-.612v-.738c-.144.246-.355.438-.635.576-.279.139-.61.207-.994.207-.528 0-.948-.126-1.26-.378s-.468-.585-.468-.999c0-.402.146-.726.437-.972s.754-.369 1.39-.369h1.503v-.288c0-.408-.114-.719-.342-.932s-.561-.319-.999-.319c-.3 0-.588.05-.864.148-.276.099-.513.235-.711.409l-.288-.477c.24-.204.528-.361.864-.473s.69-.166 1.062-.166c.618.001 1.092.155 1.422.464zm-.72 3.601c.258-.165.45-.404.576-.716v-.774h-1.485c-.81 0-1.215.282-1.215.847 0 .275.105.493.315.652s.504.238.882.238c.36 0 .668-.082.927-.247z"/><path d="m48.469 32.796h.639v6.678h-.639z"/><path d="m55.012 37.305h-3.96c.036.492.225.89.567 1.192.342.303.774.454 1.296.454.294 0 .564-.052.81-.157.246-.104.459-.259.639-.463l.36.414c-.21.252-.473.443-.788.575-.315.133-.662.198-1.04.198-.486 0-.917-.104-1.292-.311s-.667-.493-.877-.859-.315-.78-.315-1.242.101-.876.301-1.242c.201-.365.477-.65.828-.854s.746-.306 1.184-.306.831.102 1.179.306.621.487.819.851c.198.363.297.778.297 1.246zm-3.433-1.616c-.309.291-.485.67-.526 1.138h3.357c-.042-.468-.218-.847-.527-1.138s-.694-.437-1.156-.437c-.457.001-.839.146-1.148.437z"/><path d="m56.493 39.353c-.351-.111-.625-.251-.824-.419l.288-.504c.198.156.447.283.747.383.3.099.612.148.936.148.432 0 .751-.067.958-.203.207-.135.311-.325.311-.571 0-.174-.057-.311-.171-.409-.114-.1-.258-.174-.432-.226-.174-.051-.405-.1-.693-.148-.384-.071-.693-.146-.927-.22-.234-.075-.434-.203-.599-.383s-.248-.429-.248-.747c0-.396.165-.72.495-.972s.789-.378 1.377-.378c.306 0 .612.04.918.121s.558.188.756.319l-.279.513c-.39-.27-.855-.404-1.395-.404-.408 0-.715.071-.922.216-.207.144-.311.333-.311.566 0 .181.059.324.176.433.117.107.262.188.436.238.174.051.414.104.72.157.378.072.681.145.909.217.228.071.423.194.585.368.162.175.243.414.243.721 0 .414-.172.742-.517.985s-.824.364-1.436.364c-.383.001-.75-.055-1.101-.165z"/><path d="m67.171 37.791h-3.51l-.756 1.683h-.693l2.88-6.3h.657l2.88 6.3h-.702zm-.243-.54-1.512-3.385-1.512 3.385z"/><path d="m69.668 39.353c-.351-.111-.625-.251-.824-.419l.288-.504c.198.156.447.283.747.383.3.099.612.148.936.148.432 0 .751-.067.958-.203.207-.135.311-.325.311-.571 0-.174-.057-.311-.171-.409-.114-.1-.258-.174-.432-.226-.174-.051-.405-.1-.693-.148-.384-.071-.693-.146-.927-.22-.234-.075-.434-.203-.599-.383s-.248-.429-.248-.747c0-.396.165-.72.495-.972s.789-.378 1.377-.378c.306 0 .612.04.918.121s.558.188.756.319l-.279.513c-.39-.27-.855-.404-1.395-.404-.408 0-.715.071-.922.216-.207.144-.311.333-.311.566 0 .181.059.324.176.433.117.107.262.188.436.238.174.051.414.104.72.157.378.072.681.145.909.217.228.071.423.194.585.368.162.175.243.414.243.721 0 .414-.172.742-.517.985s-.824.364-1.436.364c-.382.001-.749-.055-1.101-.165z"/><path d="m74.07 39.353c-.351-.111-.625-.251-.824-.419l.288-.504c.198.156.447.283.747.383.3.099.612.148.936.148.432 0 .751-.067.958-.203.207-.135.311-.325.311-.571 0-.174-.057-.311-.171-.409-.114-.1-.258-.174-.432-.226-.174-.051-.405-.1-.693-.148-.384-.071-.693-.146-.927-.22-.234-.075-.434-.203-.599-.383s-.248-.429-.248-.747c0-.396.165-.72.495-.972s.789-.378 1.377-.378c.306 0 .612.04.918.121s.558.188.756.319l-.279.513c-.39-.27-.855-.404-1.395-.404-.408 0-.715.071-.922.216-.207.144-.311.333-.311.566 0 .181.059.324.176.433.117.107.262.188.436.238.174.051.414.104.72.157.378.072.681.145.909.217.228.071.423.194.585.368.162.175.243.414.243.721 0 .414-.172.742-.517.985s-.824.364-1.436.364c-.383.001-.75-.055-1.101-.165z"/><path d="m78.295 33.569c-.09-.09-.135-.197-.135-.323 0-.12.045-.226.135-.315.09-.09.201-.135.333-.135s.243.043.333.13.135.19.135.311c0 .133-.045.243-.135.333s-.201.136-.333.136-.243-.047-.333-.137zm.009 1.17h.639v4.734h-.639z"/><path d="m80.892 39.353c-.351-.111-.625-.251-.824-.419l.288-.504c.198.156.447.283.747.383.3.099.612.148.936.148.432 0 .751-.067.958-.203.207-.135.311-.325.311-.571 0-.174-.057-.311-.171-.409-.114-.1-.258-.174-.432-.226-.174-.051-.405-.1-.693-.148-.384-.071-.693-.146-.927-.22-.234-.075-.434-.203-.599-.383s-.248-.429-.248-.747c0-.396.165-.72.495-.972s.789-.378 1.377-.378c.306 0 .612.04.918.121s.558.188.756.319l-.279.513c-.39-.27-.855-.404-1.395-.404-.408 0-.715.071-.922.216-.207.144-.311.333-.311.566 0 .181.059.324.176.433.117.107.262.188.436.238.174.051.414.104.72.157.378.072.681.145.909.217.228.071.423.194.585.368.162.175.243.414.243.721 0 .414-.172.742-.517.985s-.824.364-1.436.364c-.383.001-.75-.055-1.101-.165z"/><path d="m87.619 39.186c-.12.108-.269.19-.445.248-.177.057-.361.085-.554.085-.444 0-.786-.12-1.026-.36-.24-.239-.36-.578-.36-1.017v-2.862h-.846v-.54h.846v-1.034h.639v1.034h1.44v.54h-1.44v2.826c0 .282.07.497.211.644s.343.221.607.221c.132 0 .259-.021.382-.063s.229-.102.32-.18z"/><path d="m91.858 35.167c.33.31.495.767.495 1.373v2.934h-.612v-.738c-.144.246-.355.438-.635.576-.279.139-.61.207-.994.207-.528 0-.948-.126-1.26-.378s-.468-.585-.468-.999c0-.402.146-.726.437-.972s.754-.369 1.39-.369h1.503v-.288c0-.408-.114-.719-.342-.932s-.561-.319-.999-.319c-.3 0-.588.05-.864.148-.276.099-.513.235-.711.409l-.288-.477c.24-.204.528-.361.864-.473s.69-.166 1.062-.166c.618.001 1.092.155 1.422.464zm-.72 3.601c.258-.165.45-.404.576-.716v-.774h-1.485c-.81 0-1.215.282-1.215.847 0 .275.105.493.315.652s.504.238.882.238c.36 0 .668-.082.927-.247z"/><path d="m97.919 35.221c.351.346.526.848.526 1.508v2.745h-.639v-2.682c0-.492-.123-.867-.369-1.125s-.597-.388-1.053-.388c-.51 0-.914.152-1.21.455s-.446.722-.446 1.255v2.484h-.638v-4.734h.612v.873c.174-.288.416-.511.725-.67s.667-.238 1.076-.238c.593 0 1.065.172 1.416.517z"/><path d="m102.675 39.186c-.12.108-.269.19-.445.248-.177.057-.361.085-.554.085-.444 0-.786-.12-1.026-.36-.24-.239-.36-.578-.36-1.017v-2.862h-.846v-.54h.846v-1.034h.639v1.034h1.44v.54h-1.44v2.826c0 .282.07.497.211.644s.343.221.607.221c.132 0 .259-.021.382-.063s.229-.102.32-.18z"/><path d="m104.003 39.353c-.351-.111-.625-.251-.824-.419l.288-.504c.198.156.447.283.747.383.3.099.612.148.936.148.432 0 .751-.067.958-.203.207-.135.311-.325.311-.571 0-.174-.057-.311-.171-.409-.114-.1-.258-.174-.432-.226-.174-.051-.405-.1-.693-.148-.384-.071-.693-.146-.927-.22-.234-.075-.434-.203-.599-.383s-.248-.429-.248-.747c0-.396.165-.72.495-.972s.789-.378 1.377-.378c.306 0 .612.04.918.121s.558.188.756.319l-.279.513c-.39-.27-.855-.404-1.395-.404-.408 0-.715.071-.922.216-.207.144-.311.333-.311.566 0 .181.059.324.176.433.117.107.262.188.436.238.174.051.414.104.72.157.378.072.681.145.909.217.228.071.423.194.585.368.162.175.243.414.243.721 0 .414-.172.742-.517.985s-.824.364-1.436.364c-.382.001-.75-.055-1.101-.165z"/><path d="m67.424 55.318c-.18-.717-.27-1.486-.27-2.309s.09-1.595.27-2.317c.18-.724.438-1.354.774-1.895h.612c-.354.605-.613 1.257-.778 1.953-.165.695-.248 1.448-.248 2.259 0 .81.083 1.562.248 2.259s.424 1.347.778 1.953h-.612c-.336-.551-.594-1.186-.774-1.903z"/><path d="m74.642 52.325h.639v2.403c-.294.258-.642.456-1.044.594-.402.139-.825.207-1.269.207-.63 0-1.197-.138-1.701-.414-.504-.275-.9-.658-1.188-1.147-.288-.488-.432-1.036-.432-1.643 0-.605.144-1.153.432-1.643.288-.488.684-.871 1.188-1.147.504-.275 1.074-.413 1.71-.413.48 0 .921.076 1.323.229.402.152.741.379 1.017.679l-.414.423c-.498-.491-1.131-.737-1.899-.737-.51 0-.971.112-1.382.337-.411.226-.733.537-.967.937-.234.398-.351.845-.351 1.336 0 .492.117.937.351 1.332.234.396.555.708.963.937.408.228.867.342 1.377.342.648 0 1.197-.162 1.647-.486z"/><path d="m81.149 53.307h-3.96c.036.492.225.89.567 1.192.342.303.774.454 1.296.454.294 0 .564-.052.81-.157.246-.104.459-.259.639-.463l.36.414c-.21.252-.473.443-.788.575-.315.133-.662.198-1.04.198-.486 0-.917-.104-1.292-.311s-.667-.493-.877-.859-.315-.78-.315-1.242.101-.876.301-1.242c.201-.365.477-.65.828-.854s.746-.306 1.184-.306.831.102 1.179.306.621.487.819.851c.198.363.297.778.297 1.246zm-3.434-1.616c-.309.291-.485.67-.526 1.138h3.357c-.042-.468-.218-.847-.527-1.138s-.694-.437-1.156-.437c-.456.001-.839.146-1.148.437z"/><path d="m86.292 51.223c.351.346.526.848.526 1.508v2.745h-.638v-2.682c0-.492-.123-.867-.369-1.125s-.597-.388-1.053-.388c-.51 0-.914.152-1.21.455s-.446.722-.446 1.255v2.484h-.639v-4.734h.612v.873c.174-.288.416-.511.725-.67s.667-.238 1.076-.238c.593 0 1.065.172 1.416.517z"/><path d="m92.696 53.307h-3.96c.036.492.225.89.567 1.192.342.303.774.454 1.296.454.294 0 .564-.052.81-.157.246-.104.459-.259.639-.463l.36.414c-.21.252-.473.443-.788.575-.315.133-.662.198-1.04.198-.486 0-.917-.104-1.292-.311s-.667-.493-.877-.859-.315-.78-.315-1.242.101-.876.301-1.242c.201-.365.477-.65.828-.854s.746-.306 1.184-.306.831.102 1.179.306.621.487.819.851c.198.363.297.778.297 1.246zm-3.434-1.616c-.309.291-.485.67-.526 1.138h3.357c-.042-.468-.218-.847-.527-1.138s-.694-.437-1.156-.437c-.456.001-.839.146-1.148.437z"/><path d="m95.292 50.948c.297-.162.665-.242 1.103-.242v.62l-.153-.009c-.498 0-.888.153-1.17.459-.282.307-.423.735-.423 1.287v2.412h-.639v-4.734h.612v.928c.149-.318.373-.559.67-.721z"/><path d="m100.615 51.169c.33.31.495.767.495 1.373v2.934h-.612v-.738c-.144.246-.355.438-.635.576-.279.139-.61.207-.994.207-.528 0-.948-.126-1.26-.378s-.468-.585-.468-.999c0-.402.146-.726.437-.972s.754-.369 1.39-.369h1.503v-.288c0-.408-.114-.719-.342-.932s-.561-.319-.999-.319c-.3 0-.588.05-.864.148-.276.099-.513.235-.711.409l-.288-.477c.24-.204.528-.361.864-.473s.69-.166 1.062-.166c.618.001 1.092.155 1.422.464zm-.72 3.601c.258-.165.45-.404.576-.716v-.774h-1.485c-.81 0-1.215.282-1.215.847 0 .275.105.493.315.652s.504.238.882.238c.36 0 .669-.082.927-.247z"/><path d="m102.847 48.798h.639v6.678h-.639z"/><path d="m104.737 57.222c.354-.606.615-1.256.783-1.948.168-.693.252-1.448.252-2.264s-.084-1.57-.252-2.264-.429-1.343-.783-1.948h.612c.336.54.595 1.171.778 1.895.183.723.274 1.495.274 2.317s-.09 1.593-.27 2.312c-.18.721-.441 1.354-.783 1.899h-.611z"/><path d="m69.623 63.073v8.4h-.864v-7.632h-1.98v-.769h2.844z"/><path d="m77.554 63.073v.612l-3.516 7.788h-.936l3.456-7.632h-4.32v1.572h-.852v-2.341h6.168z"/><path d="m80.08 71.029c-.508-.344-.904-.838-1.188-1.481-.284-.645-.426-1.402-.426-2.274s.142-1.63.426-2.273c.284-.645.68-1.139 1.188-1.482.508-.344 1.086-.516 1.734-.516s1.226.172 1.734.516.906.838 1.194 1.482.432 1.401.432 2.273-.144 1.63-.432 2.274-.686 1.138-1.194 1.481c-.508.345-1.086.517-1.734.517s-1.226-.172-1.734-.517zm3.024-.683c.372-.271.662-.668.87-1.188s.312-1.147.312-1.884c0-.735-.104-1.363-.312-1.884-.208-.52-.498-.916-.87-1.188-.372-.271-.802-.407-1.29-.407s-.918.136-1.29.407c-.372.272-.662.669-.87 1.188-.208.521-.312 1.148-.312 1.884s.104 1.364.312 1.884c.208.521.498.917.87 1.188.372.272.802.408 1.29.408s.918-.136 1.29-.408z"/><path d="m87.406 70.412c.12.124.18.277.18.462 0 .096-.014.199-.042.312s-.07.24-.126.384l-.504 1.656h-.576l.408-1.74c-.128-.04-.232-.113-.312-.222-.08-.108-.12-.238-.12-.39 0-.185.06-.338.18-.462s.272-.187.456-.187c.184.001.336.063.456.187z"/><path d="m91.03 63.073v8.4h-.864v-7.632h-1.98v-.769h2.844z"/><path d="m97.984 66.758c.428.208.762.502 1.002.882s.36.822.36 1.326c0 .512-.124.964-.372 1.355-.248.393-.59.694-1.026.906s-.926.318-1.47.318c-1.112 0-1.964-.366-2.556-1.099-.592-.731-.888-1.766-.888-3.102 0-.937.16-1.729.48-2.376.32-.648.768-1.138 1.344-1.47s1.248-.498 2.016-.498c.832 0 1.496.151 1.992.456l-.348.695c-.4-.264-.944-.396-1.632-.396-.928 0-1.656.294-2.184.882s-.792 1.442-.792 2.562c0 .2.012.429.036.685.208-.456.54-.811.996-1.062.456-.252.979-.378 1.572-.378.551.001 1.042.106 1.47.314zm-.06 3.557c.38-.332.57-.773.57-1.326 0-.552-.19-.991-.57-1.319s-.894-.492-1.542-.492c-.424 0-.798.08-1.122.24s-.578.38-.762.659c-.184.28-.276.593-.276.937 0 .32.086.616.258.888s.426.492.762.66.736.252 1.2.252c.607-.001 1.101-.167 1.482-.499z"/><path d="m106.372 67.861c.284.353.426.776.426 1.272 0 .488-.132.914-.396 1.278-.264.363-.642.644-1.134.84s-1.07.294-1.734.294c-1.008 0-1.8-.216-2.376-.648s-.864-1.02-.864-1.764c0-.504.138-.93.414-1.278s.678-.609 1.206-.786c-.432-.168-.76-.409-.984-.726s-.336-.69-.336-1.122c0-.68.266-1.22.798-1.62.532-.399 1.246-.6 2.142-.6.592 0 1.11.09 1.554.27s.79.438 1.038.774.372.728.372 1.176c0 .432-.116.806-.348 1.122s-.564.558-.996.726c.528.177.934.441 1.218.792zm-1.092 2.496c.42-.304.63-.716.63-1.235 0-.521-.21-.931-.63-1.23s-1.002-.45-1.746-.45c-.736 0-1.314.15-1.734.45s-.63.71-.63 1.23c0 .527.208.941.624 1.241.416.301.996.45 1.74.45s1.326-.151 1.746-.456zm-3.27-4.007c.368.272.876.408 1.524.408s1.158-.136 1.53-.408c.372-.271.558-.636.558-1.092 0-.472-.19-.844-.57-1.116-.38-.271-.886-.408-1.518-.408-.64 0-1.146.137-1.518.408-.372.272-.558.641-.558 1.104s.184.832.552 1.104z"/><path d="m50.576 89.749h-2.214v-.576h5.094v.576h-2.214v5.724h-.666z"/><path d="m55.548 90.945c.297-.162.665-.242 1.103-.242v.62l-.153-.009c-.498 0-.888.153-1.17.459-.282.307-.423.735-.423 1.287v2.412h-.639v-4.734h.612v.928c.15-.318.373-.559.67-.721z"/><path d="m62.141 90.738v4.734h-.612v-.864c-.168.288-.399.512-.693.671s-.63.238-1.008.238c-.618 0-1.106-.172-1.463-.518-.357-.345-.535-.851-.535-1.517v-2.745h.639v2.683c0 .498.123.876.369 1.134s.597.387 1.053.387c.498 0 .891-.151 1.179-.454s.432-.725.432-1.265v-2.484z"/><path d="m64.639 95.212c-.369-.204-.659-.491-.869-.859-.21-.369-.315-.785-.315-1.247s.105-.876.315-1.242c.21-.365.5-.65.869-.854s.787-.306 1.255-.306c.408 0 .772.079 1.093.238s.575.392.761.697l-.477.324c-.156-.234-.354-.41-.594-.526-.24-.117-.501-.176-.783-.176-.342 0-.649.076-.922.229s-.486.37-.639.652-.229.604-.229.963c0 .366.077.688.229.968s.366.495.639.647c.273.153.581.229.922.229.282 0 .543-.057.783-.171.24-.113.438-.288.594-.521l.477.324c-.186.306-.441.538-.765.697s-.687.238-1.089.238c-.468.002-.887-.1-1.255-.304z"/><path d="m70.691 93.097-1.116 1.026v1.35h-.639v-6.678h.639v4.526l2.826-2.583h.792l-2.025 1.936 2.214 2.799h-.783z"/><path d="m76.837 89.173h2.565c.666 0 1.254.134 1.764.4.51.267.906.639 1.188 1.116s.423 1.021.423 1.633-.141 1.157-.423 1.634c-.282.478-.678.85-1.188 1.116-.51.267-1.098.4-1.764.4h-2.565zm2.53 5.723c.552 0 1.035-.109 1.449-.328s.735-.522.963-.909.342-.833.342-1.337-.114-.949-.342-1.336-.549-.69-.963-.909-.897-.328-1.449-.328h-1.863v5.147z"/><path d="m85.419 90.945c.297-.162.665-.242 1.103-.242v.62l-.153-.009c-.498 0-.888.153-1.17.459-.282.307-.423.735-.423 1.287v2.412h-.639v-4.734h.612v.928c.149-.318.373-.559.67-.721z"/><path d="m87.664 89.568c-.09-.09-.135-.197-.135-.323 0-.12.045-.226.135-.315.09-.09.201-.135.333-.135s.243.043.333.13.135.19.135.311c0 .133-.045.243-.135.333s-.201.136-.333.136-.243-.047-.333-.137zm.009 1.17h.639v4.734h-.639z"/><path d="m94.073 90.738-2.106 4.734h-.657l-2.097-4.734h.666l1.773 4.032 1.791-4.032z"/><path d="m98.969 93.304h-3.96c.036.492.225.89.567 1.192.342.303.774.454 1.296.454.294 0 .564-.052.81-.157.246-.104.459-.259.639-.463l.36.414c-.21.252-.473.443-.788.575-.315.133-.662.198-1.04.198-.486 0-.917-.104-1.292-.311s-.667-.493-.877-.859-.315-.78-.315-1.242.101-.876.301-1.242c.201-.365.477-.65.828-.854s.746-.306 1.184-.306.831.102 1.179.306.621.487.819.851c.198.363.297.778.297 1.246zm-3.434-1.616c-.309.291-.485.67-.526 1.138h3.357c-.042-.468-.218-.847-.527-1.138s-.694-.437-1.156-.437c-.456.001-.839.146-1.148.437z"/><path d="m101.564 90.945c.297-.162.665-.242 1.103-.242v.62l-.153-.009c-.498 0-.888.153-1.17.459-.282.307-.423.735-.423 1.287v2.412h-.639v-4.734h.612v.928c.15-.318.374-.559.67-.721z"/><path d="m104.031 95.352c-.351-.111-.625-.251-.824-.419l.288-.504c.198.156.447.283.747.383.3.099.612.148.936.148.432 0 .751-.067.958-.203.207-.135.311-.325.311-.571 0-.174-.057-.311-.171-.409-.114-.1-.258-.174-.432-.226-.174-.051-.405-.1-.693-.148-.384-.071-.693-.146-.927-.22-.234-.075-.434-.203-.599-.383s-.248-.429-.248-.747c0-.396.165-.72.495-.972s.789-.378 1.377-.378c.306 0 .612.04.918.121s.558.188.756.319l-.279.513c-.39-.27-.855-.404-1.395-.404-.408 0-.715.071-.922.216-.207.144-.311.333-.311.566 0 .181.059.324.176.433.117.107.262.188.436.238.174.051.414.104.72.157.378.072.681.145.909.217.228.071.423.194.585.368.162.175.243.414.243.721 0 .414-.172.742-.517.985s-.824.364-1.436.364c-.383.001-.75-.055-1.101-.165z"/><path d="m69.275 103.072v8.4h-.864v-7.632h-1.98v-.769h2.844z"/><path d="m78.419 109.265h-1.68v2.208h-.864v-2.208h-4.74v-.624l4.452-5.568h.96l-4.296 5.425h3.648v-1.944h.84v1.944h1.68z"/><path d="m84.911 110.705v.768h-5.892v-.612l3.492-3.42c.44-.432.738-.806.894-1.122.156-.315.234-.634.234-.954 0-.495-.17-.882-.51-1.157-.34-.276-.826-.414-1.458-.414-.984 0-1.748.312-2.292.936l-.612-.528c.328-.384.746-.68 1.254-.888s1.082-.312 1.722-.312c.856 0 1.534.202 2.034.605.5.404.75.958.75 1.662 0 .432-.096.849-.288 1.248-.192.4-.556.86-1.092 1.38l-2.856 2.809h4.62z"/><path d="m87.215 110.411c.12.124.18.277.18.462 0 .096-.014.199-.042.312s-.07.24-.126.384l-.504 1.656h-.576l.408-1.74c-.128-.04-.232-.113-.312-.222-.08-.108-.12-.238-.12-.39 0-.185.06-.338.18-.462s.272-.187.456-.187c.183.001.336.063.456.187z"/><path d="m94.438 103.072v.612l-3.516 7.788h-.936l3.456-7.632h-4.32v1.572h-.852v-2.341h6.168z"/><path d="m98.026 103.072v8.4h-.864v-7.632h-1.98v-.769h2.844z"/><path d="m101.644 111.028c-.508-.344-.904-.838-1.188-1.481-.284-.645-.426-1.402-.426-2.274s.142-1.63.426-2.273c.284-.645.68-1.139 1.188-1.482.508-.344 1.086-.516 1.734-.516s1.226.172 1.734.516.906.838 1.194 1.482.432 1.401.432 2.273-.144 1.63-.432 2.274-.686 1.138-1.194 1.481c-.508.345-1.086.517-1.734.517s-1.226-.172-1.734-.517zm3.024-.683c.372-.271.662-.668.87-1.188s.312-1.147.312-1.884c0-.735-.104-1.363-.312-1.884-.208-.52-.498-.916-.87-1.188-.372-.271-.802-.407-1.29-.407s-.918.136-1.29.407c-.372.272-.662.669-.87 1.188-.208.521-.312 1.148-.312 1.884s.104 1.364.312 1.884c.208.521.498.917.87 1.188.372.272.802.408 1.29.408s.918-.136 1.29-.408z"/><path d="m60.917 134.896v.576h-4.455v-6.299h4.32v.576h-3.654v2.24h3.258v.566h-3.258v2.34h3.789z"/><path d="m62.348 128.794h.639v6.678h-.639z"/><path d="m68.891 133.304h-3.96c.036.492.225.889.567 1.191.342.303.774.455 1.296.455.294 0 .564-.053.81-.158.246-.104.459-.258.639-.463l.36.414c-.21.252-.473.443-.788.576s-.662.197-1.04.197c-.486 0-.917-.104-1.292-.311s-.667-.492-.877-.859c-.21-.365-.315-.779-.315-1.242 0-.461.101-.875.301-1.242.201-.365.477-.65.828-.854.351-.205.746-.307 1.184-.307s.831.102 1.179.307c.348.203.621.486.819.85.198.363.297.779.297 1.246zm-3.433-1.615c-.309.291-.485.67-.526 1.137h3.357c-.042-.467-.218-.846-.527-1.137s-.694-.438-1.156-.438c-.457 0-.839.147-1.148.438z"/><path d="m70.912 135.212c-.369-.205-.659-.492-.869-.859-.21-.369-.315-.785-.315-1.248 0-.461.105-.875.315-1.242.21-.365.5-.65.869-.854.369-.205.787-.307 1.255-.307.408 0 .772.08 1.093.238.321.16.575.393.761.697l-.477.324c-.156-.234-.354-.41-.594-.525-.24-.117-.501-.176-.783-.176-.342 0-.649.076-.922.229-.273.154-.486.371-.639.652-.153.283-.229.604-.229.963 0 .367.077.689.229.969s.366.494.639.646c.273.154.581.23.922.23.282 0 .543-.057.783-.172.24-.113.438-.287.594-.521l.477.324c-.186.307-.441.539-.765.697-.324.16-.687.238-1.089.238-.468.002-.887-.099-1.255-.303z"/><path d="m77.818 135.185c-.12.107-.269.189-.445.248-.177.057-.361.084-.554.084-.444 0-.786-.119-1.026-.359s-.36-.578-.36-1.018v-2.861h-.846v-.541h.846v-1.033h.639v1.033h1.44v.541h-1.44v2.826c0 .281.07.496.211.643.141.148.343.221.607.221.132 0 .259-.021.382-.062.123-.043.229-.102.32-.18z"/><path d="m80.262 130.945c.297-.162.665-.242 1.103-.242v.621l-.153-.01c-.498 0-.888.154-1.17.459-.282.307-.423.736-.423 1.287v2.412h-.639v-4.734h.612v.928c.15-.319.373-.559.67-.721z"/><path d="m82.507 129.568c-.09-.09-.135-.197-.135-.322 0-.121.045-.227.135-.316.09-.09.201-.135.333-.135s.243.043.333.131c.09.086.135.189.135.311 0 .133-.045.242-.135.332s-.201.137-.333.137-.242-.048-.333-.138zm.01 1.17h.639v4.734h-.639z"/><path d="m85.644 135.212c-.369-.205-.659-.492-.869-.859-.21-.369-.315-.785-.315-1.248 0-.461.105-.875.315-1.242.21-.365.5-.65.869-.854.369-.205.787-.307 1.255-.307.408 0 .772.08 1.093.238.321.16.575.393.761.697l-.477.324c-.156-.234-.354-.41-.594-.525-.24-.117-.501-.176-.783-.176-.342 0-.649.076-.922.229-.273.154-.486.371-.639.652-.153.283-.229.604-.229.963 0 .367.077.689.229.969s.366.494.639.646c.273.154.581.23.922.23.282 0 .543-.057.783-.172.24-.113.438-.287.594-.521l.477.324c-.186.307-.441.539-.765.697-.324.16-.687.238-1.089.238-.468.002-.886-.099-1.255-.303z"/><path d="m89.995 129.568c-.09-.09-.135-.197-.135-.322 0-.121.045-.227.135-.316.09-.09.201-.135.333-.135s.243.043.333.131c.09.086.135.189.135.311 0 .133-.045.242-.135.332s-.201.137-.333.137-.243-.048-.333-.138zm.009 1.17h.639v4.734h-.639z"/><path d="m95.503 131.166c.33.311.495.768.495 1.373v2.934h-.612v-.738c-.144.246-.355.439-.635.576-.279.139-.61.207-.994.207-.528 0-.948-.125-1.26-.377s-.468-.586-.468-1c0-.402.146-.725.437-.971s.754-.369 1.39-.369h1.503v-.289c0-.408-.114-.719-.342-.932s-.561-.318-.999-.318c-.3 0-.588.049-.864.148-.276.098-.513.234-.711.408l-.288-.477c.24-.203.528-.361.864-.473s.69-.166 1.062-.166c.618.001 1.092.155 1.422.464zm-.72 3.601c.258-.166.45-.404.576-.717v-.773h-1.485c-.81 0-1.215.281-1.215.846 0 .275.105.494.315.652.21.16.504.238.882.238.36 0 .669-.082.927-.246z"/><path d="m101.565 131.22c.351.346.526.848.526 1.508v2.744h-.639v-2.682c0-.492-.123-.867-.369-1.125s-.597-.387-1.053-.387c-.51 0-.914.152-1.21.455s-.446.721-.446 1.254v2.484h-.639v-4.734h.612v.873c.174-.287.416-.51.725-.67.309-.158.667-.238 1.076-.238.593.001 1.066.173 1.417.518z"/><path d="m103.995 135.351c-.351-.111-.625-.25-.824-.418l.288-.504c.198.156.447.283.747.383.3.098.612.148.936.148.432 0 .751-.068.958-.203s.311-.326.311-.572c0-.174-.057-.311-.171-.408-.114-.1-.258-.174-.432-.227-.174-.051-.405-.1-.693-.148-.384-.07-.693-.145-.927-.219-.234-.076-.434-.203-.599-.383s-.248-.43-.248-.748c0-.396.165-.719.495-.971s.789-.379 1.377-.379c.306 0 .612.041.918.121.306.082.558.188.756.32l-.279.512c-.39-.27-.855-.404-1.395-.404-.408 0-.715.072-.922.217-.207.143-.311.332-.311.566 0 .18.059.324.176.432.117.107.262.188.436.238.174.051.414.104.72.158.378.072.681.145.909.217.228.07.423.193.585.367.162.176.243.414.243.721 0 .414-.172.742-.517.986-.345.242-.824.363-1.436.363-.383.001-.75-.054-1.101-.165z"/><path d="m70.139 143.072v8.4h-.864v-7.631h-1.98v-.77h2.844z"/><path d="m74.471 143.072v8.4h-.864v-7.631h-1.98v-.77h2.844z"/><path d="m81.341 147.386c.459.428.69.986.69 1.674 0 .48-.116.906-.348 1.279-.232.371-.576.666-1.032.881-.456.217-1.012.324-1.668.324-.608 0-1.182-.098-1.722-.293-.54-.197-.974-.459-1.302-.787l.42-.684c.28.287.652.521 1.116.701.464.182.96.271 1.488.271.688 0 1.22-.15 1.596-.451.376-.299.564-.713.564-1.242 0-.52-.188-.928-.564-1.223-.376-.297-.944-.445-1.704-.445h-.6v-.635l2.328-2.916h-4.296v-.77h5.4v.613l-2.376 2.988c.879.049 1.549.287 2.01.715z"/><path d="m84.358 150.412c.12.123.18.277.18.461 0 .096-.014.199-.042.312-.028.111-.07.24-.126.383l-.504 1.656h-.576l.408-1.74c-.128-.039-.232-.113-.312-.221-.08-.109-.12-.238-.12-.391 0-.184.06-.338.18-.461.12-.125.272-.188.456-.188.184.001.336.064.456.189z"/><path d="m92.782 149.265h-1.68v2.207h-.864v-2.207h-4.74v-.625l4.452-5.568h.96l-4.296 5.426h3.648v-1.945h.84v1.945h1.68z"/><path d="m98.393 147.171c.556.436.834 1.045.834 1.83 0 .486-.114.924-.342 1.307-.228.385-.57.688-1.026.906-.456.221-1.016.33-1.68.33-.6 0-1.17-.098-1.71-.293-.54-.197-.974-.459-1.302-.787l.42-.684c.28.287.648.521 1.104.701.456.182.948.271 1.476.271.696 0 1.234-.156 1.614-.469s.57-.729.57-1.248c0-.576-.214-1.012-.642-1.309-.428-.295-1.15-.443-2.166-.443h-1.788l.432-4.213h4.596v.77h-3.84l-.288 2.676h1.08c1.215.001 2.101.218 2.658.655z"/><path d="m106.348 147.861c.284.352.426.775.426 1.271 0 .488-.132.914-.396 1.279-.264.363-.642.643-1.134.84-.492.195-1.07.293-1.734.293-1.008 0-1.8-.215-2.376-.648-.576-.432-.864-1.02-.864-1.764 0-.504.138-.93.414-1.277.276-.348.678-.609 1.206-.787-.432-.168-.76-.408-.984-.725s-.336-.691-.336-1.123c0-.68.266-1.219.798-1.619s1.246-.6 2.142-.6c.592 0 1.11.09 1.554.27s.79.438 1.038.773c.248.336.372.729.372 1.176 0 .432-.116.807-.348 1.123s-.564.557-.996.725c.528.178.934.441 1.218.793zm-1.092 2.496c.42-.305.63-.717.63-1.236s-.21-.93-.63-1.23c-.42-.299-1.002-.449-1.746-.449-.736 0-1.314.15-1.734.449-.42.301-.63.711-.63 1.23 0 .527.208.941.624 1.242s.996.449 1.74.449 1.326-.15 1.746-.455zm-3.27-4.008c.368.271.876.408 1.524.408s1.158-.137 1.53-.408.558-.637.558-1.092c0-.473-.19-.844-.57-1.117-.38-.271-.886-.408-1.518-.408-.64 0-1.146.137-1.518.408-.372.273-.558.641-.558 1.105 0 .463.184.833.552 1.104z"/><path d="m5.311 175.111c-.501-.275-.895-.658-1.179-1.146-.285-.488-.428-1.037-.428-1.643s.143-1.154.428-1.643c.285-.488.68-.871 1.184-1.148.504-.275 1.068-.412 1.692-.412.468 0 .9.076 1.296.232s.732.385 1.008.686l-.423.422c-.492-.498-1.113-.746-1.863-.746-.498 0-.951.113-1.359.342s-.728.539-.958.936c-.231.396-.347.84-.347 1.332s.115.936.347 1.332c.231.396.55.707.958.936s.861.342 1.359.342c.756 0 1.377-.252 1.863-.756l.423.424c-.276.299-.614.529-1.013.688-.399.16-.833.238-1.3.238-.625-.002-1.187-.139-1.688-.416z"/><path d="m13.613 171.166c.33.309.495.766.495 1.373v2.934h-.612v-.738c-.144.246-.355.438-.635.576-.279.139-.61.207-.994.207-.528 0-.948-.127-1.26-.379s-.468-.584-.468-.998c0-.402.146-.727.437-.973s.754-.369 1.39-.369h1.503v-.287c0-.408-.114-.719-.342-.932s-.561-.32-.999-.32c-.3 0-.588.051-.864.148-.276.1-.513.236-.711.41l-.288-.477c.24-.205.528-.361.864-.473s.69-.166 1.062-.166c.618.001 1.092.155 1.422.464zm-.72 3.599c.258-.164.45-.404.576-.715v-.775h-1.485c-.81 0-1.215.283-1.215.848 0 .275.105.492.315.652.21.158.504.238.882.238.36 0 .669-.082.927-.248z"/><path d="m17.127 170.945c.297-.162.665-.242 1.103-.242v.619l-.153-.008c-.498 0-.888.152-1.17.459s-.423.734-.423 1.287v2.412h-.639v-4.734h.612v.928c.15-.319.374-.559.67-.721z"/><path d="m23.036 171.003c.36.201.642.484.846.85.204.367.306.783.306 1.252 0 .475-.102.895-.306 1.26s-.484.65-.841.85c-.357.201-.761.303-1.21.303-.384 0-.73-.08-1.04-.238-.309-.16-.562-.393-.761-.697v2.637h-.639v-6.48h.612v.936c.192-.312.446-.551.761-.719s.67-.252 1.066-.252c.444-.002.846.097 1.206.298zm-.351 3.717c.27-.152.481-.371.634-.652s.229-.604.229-.963-.076-.68-.229-.959-.364-.496-.634-.652-.57-.234-.9-.234c-.336 0-.638.078-.905.234s-.477.373-.63.652-.229.6-.229.959.077.682.229.963.363.5.63.652.568.229.905.229c.33 0 .63-.076.9-.229z"/><path d="m29.615 173.302h-3.96c.036.492.225.891.567 1.193.342.303.774.453 1.296.453.294 0 .564-.051.81-.156s.459-.26.639-.463l.36.414c-.21.252-.473.443-.788.574-.315.133-.662.199-1.04.199-.486 0-.917-.104-1.292-.311s-.667-.494-.877-.859c-.21-.367-.315-.781-.315-1.242 0-.463.101-.877.301-1.242.201-.365.477-.65.828-.855.351-.203.746-.305 1.184-.305s.831.102 1.179.305c.348.205.621.488.819.852.198.363.297.777.297 1.246zm-3.433-1.615c-.309.291-.485.67-.526 1.139h3.357c-.042-.469-.218-.848-.527-1.139s-.694-.436-1.156-.436c-.457 0-.839.145-1.148.436z"/><path d="m34.759 171.218c.351.346.526.848.526 1.508v2.746h-.639v-2.682c0-.492-.123-.867-.369-1.125s-.597-.389-1.053-.389c-.51 0-.914.152-1.21.455s-.446.723-.446 1.256v2.484h-.639v-4.734h.612v.873c.174-.289.416-.512.725-.67.309-.16.667-.238 1.076-.238.593.001 1.066.173 1.417.516z"/><path d="m39.515 175.183c-.12.109-.269.191-.445.248-.177.057-.361.086-.554.086-.444 0-.786-.121-1.026-.361-.24-.238-.36-.578-.36-1.016v-2.863h-.846v-.539h.846v-1.035h.639v1.035h1.44v.539h-1.44v2.826c0 .283.07.498.211.645.141.146.343.221.607.221.132 0 .259-.021.382-.064.123-.041.229-.102.32-.18z"/><path d="m44.627 173.302h-3.96c.036.492.225.891.567 1.193.342.303.774.453 1.296.453.294 0 .564-.051.81-.156s.459-.26.639-.463l.36.414c-.21.252-.473.443-.788.574-.315.133-.662.199-1.04.199-.486 0-.917-.104-1.292-.311s-.667-.494-.877-.859c-.21-.367-.315-.781-.315-1.242 0-.463.101-.877.301-1.242.201-.365.477-.65.828-.855.351-.203.746-.305 1.184-.305s.831.102 1.179.305c.348.205.621.488.819.852.198.363.297.777.297 1.246zm-3.434-1.615c-.309.291-.485.67-.526 1.139h3.357c-.042-.469-.218-.848-.527-1.139s-.694-.436-1.156-.436c-.456 0-.839.145-1.148.436z"/><path d="m47.223 170.945c.297-.162.665-.242 1.103-.242v.619l-.153-.008c-.498 0-.888.152-1.17.459s-.423.734-.423 1.287v2.412h-.639v-4.734h.612v.928c.15-.319.373-.559.67-.721z"/><path d="m49.689 175.351c-.351-.111-.625-.252-.824-.42l.288-.504c.198.156.447.283.747.383s.612.148.936.148c.432 0 .751-.066.958-.203.207-.135.311-.324.311-.57 0-.174-.057-.311-.171-.41-.114-.1-.258-.174-.432-.225s-.405-.1-.693-.148c-.384-.072-.693-.146-.927-.221s-.434-.203-.599-.383-.248-.428-.248-.746c0-.396.165-.721.495-.973s.789-.377 1.377-.377c.306 0 .612.039.918.121.306.08.558.188.756.318l-.279.514c-.39-.27-.855-.404-1.395-.404-.408 0-.715.07-.922.215s-.311.334-.311.566c0 .182.059.324.176.434.117.107.262.188.436.238.174.051.414.104.72.156.378.072.681.145.909.217s.423.195.585.369.243.414.243.721c0 .414-.172.742-.517.984-.345.244-.824.365-1.436.365-.383.001-.75-.056-1.101-.165z"/><path d="m59.36 171.166c.33.309.495.766.495 1.373v2.934h-.612v-.738c-.144.246-.355.438-.635.576-.279.139-.61.207-.994.207-.528 0-.948-.127-1.26-.379s-.468-.584-.468-.998c0-.402.146-.727.437-.973s.754-.369 1.39-.369h1.503v-.287c0-.408-.114-.719-.342-.932s-.561-.32-.999-.32c-.3 0-.588.051-.864.148-.276.1-.513.236-.711.41l-.288-.477c.24-.205.528-.361.864-.473s.69-.166 1.062-.166c.618.001 1.092.155 1.422.464zm-.72 3.599c.258-.164.45-.404.576-.715v-.775h-1.486c-.81 0-1.215.283-1.215.848 0 .275.105.492.315.652.21.158.504.238.882.238.361 0 .669-.082.928-.248z"/><path d="m65.421 171.218c.351.346.526.848.526 1.508v2.746h-.639v-2.682c0-.492-.123-.867-.369-1.125s-.597-.389-1.053-.389c-.51 0-.914.152-1.21.455s-.446.723-.446 1.256v2.484h-.639v-4.734h.612v.873c.174-.289.416-.512.725-.67.309-.16.667-.238 1.076-.238.593.001 1.066.173 1.417.516z"/><path d="m72.022 168.794v6.678h-.612v-.936c-.192.316-.446.561-.761.729s-.67.252-1.066.252c-.444 0-.846-.102-1.206-.307-.36-.203-.642-.488-.846-.855-.204-.365-.306-.783-.306-1.25 0-.469.102-.885.306-1.252.204-.365.486-.648.846-.85s.762-.301 1.206-.301c.384 0 .73.078 1.04.238.309.158.562.391.76.697v-2.844h.639zm-1.489 5.926c.267-.152.477-.371.63-.652s.229-.604.229-.963-.077-.682-.229-.963c-.153-.283-.363-.5-.63-.652-.267-.154-.566-.23-.896-.23-.336 0-.638.076-.905.23-.267.152-.477.369-.63.652-.153.281-.229.604-.229.963s.077.682.229.963.363.5.63.652.568.229.905.229c.33 0 .629-.076.896-.229z"/><path d="m75.973 175.292c-.306-.156-.555-.379-.747-.666l.396-.451c.348.516.801.773 1.359.773.78 0 1.17-.461 1.17-1.385v-3.816h-2.304v-.576h2.961v4.365c0 .66-.155 1.156-.463 1.49-.309.332-.767.498-1.373.498-.36.001-.693-.075-.999-.232z"/><path d="m81.373 175.207c-.366-.207-.654-.494-.864-.859-.21-.367-.315-.781-.315-1.242 0-.463.105-.877.315-1.242s.498-.65.864-.855c.366-.203.777-.305 1.233-.305s.867.102 1.233.305c.366.205.652.49.859.855s.311.779.311 1.242c0 .461-.104.875-.311 1.242-.207.365-.494.652-.859.859-.366.207-.777.311-1.233.311-.456-.001-.867-.104-1.233-.311zm2.138-.487c.267-.152.476-.371.625-.652s.225-.604.225-.963-.075-.682-.225-.963c-.15-.283-.358-.5-.625-.652-.267-.154-.568-.23-.904-.23s-.638.076-.905.23c-.267.152-.477.369-.63.652-.153.281-.229.604-.229.963s.077.682.229.963.363.5.63.652.568.229.905.229c.335 0 .637-.076.904-.229z"/><path d="m86.305 169.568c-.09-.09-.135-.197-.135-.324 0-.119.045-.225.135-.314.09-.09.201-.135.333-.135s.243.043.333.129c.09.088.135.191.135.311 0 .133-.045.244-.135.334s-.201.135-.333.135-.243-.046-.333-.136zm.009 1.17h.639v4.734h-.639z"/><path d="m92.565 171.218c.351.346.526.848.526 1.508v2.746h-.639v-2.682c0-.492-.123-.867-.369-1.125s-.597-.389-1.053-.389c-.51 0-.914.152-1.21.455s-.446.723-.446 1.256v2.484h-.639v-4.734h.612v.873c.174-.289.416-.512.725-.67.309-.16.667-.238 1.076-.238.593.001 1.066.173 1.417.516z"/><path d="m98.968 173.302h-3.96c.036.492.225.891.567 1.193.342.303.774.453 1.296.453.294 0 .564-.051.81-.156s.459-.26.639-.463l.36.414c-.21.252-.473.443-.788.574-.315.133-.662.199-1.04.199-.486 0-.917-.104-1.292-.311s-.667-.494-.877-.859c-.21-.367-.315-.781-.315-1.242 0-.463.101-.877.301-1.242.201-.365.477-.65.828-.855.351-.203.746-.305 1.184-.305s.831.102 1.179.305c.348.205.621.488.819.852.198.363.297.777.297 1.246zm-3.433-1.615c-.309.291-.485.67-.526 1.139h3.357c-.042-.469-.218-.848-.527-1.139s-.694-.436-1.156-.436c-.457 0-.839.145-1.148.436z"/><path d="m101.564 170.945c.297-.162.665-.242 1.103-.242v.619l-.153-.008c-.498 0-.888.152-1.17.459s-.423.734-.423 1.287v2.412h-.639v-4.734h.612v.928c.149-.319.373-.559.67-.721z"/><path d="m104.021 175.351c-.351-.111-.625-.252-.824-.42l.288-.504c.198.156.447.283.747.383s.612.148.936.148c.432 0 .751-.066.958-.203.207-.135.311-.324.311-.57 0-.174-.057-.311-.171-.41-.114-.1-.258-.174-.432-.225s-.405-.1-.693-.148c-.384-.072-.693-.146-.927-.221s-.434-.203-.599-.383-.248-.428-.248-.746c0-.396.165-.721.495-.973s.789-.377 1.377-.377c.306 0 .612.039.918.121.306.08.558.188.756.318l-.279.514c-.39-.27-.855-.404-1.395-.404-.408 0-.715.07-.922.215s-.311.334-.311.566c0 .182.059.324.176.434.117.107.262.188.436.238.174.051.414.104.72.156.378.072.681.145.909.217s.423.195.585.369.243.414.243.721c0 .414-.172.742-.517.984-.345.244-.824.365-1.436.365-.382.001-.749-.056-1.101-.165z"/><path d="m72.275 183.072v8.4h-.864v-7.633h-1.98v-.768h2.844z"/><path d="m75.893 191.027c-.508-.344-.904-.838-1.188-1.48-.284-.645-.426-1.402-.426-2.275 0-.871.142-1.629.426-2.273.284-.645.68-1.139 1.188-1.482.508-.344 1.086-.516 1.734-.516s1.226.172 1.734.516.906.838 1.194 1.482.432 1.402.432 2.273c0 .873-.144 1.631-.432 2.275-.288.643-.686 1.137-1.194 1.48-.508.346-1.086.518-1.734.518s-1.226-.172-1.734-.518zm3.024-.684c.372-.271.662-.668.87-1.188s.312-1.148.312-1.885c0-.734-.104-1.363-.312-1.883s-.498-.916-.87-1.189c-.372-.271-.802-.406-1.29-.406s-.918.135-1.29.406c-.372.273-.662.67-.87 1.189s-.312 1.148-.312 1.883c0 .736.104 1.365.312 1.885s.498.916.87 1.188c.372.273.802.408 1.29.408s.918-.134 1.29-.408z"/><path d="m84.539 183.072v8.4h-.864v-7.633h-1.98v-.768h2.844z"/><path d="m87.659 190.41c.12.125.18.277.18.463 0 .096-.014.199-.042.311-.028.113-.07.24-.126.385l-.504 1.656h-.577l.408-1.74c-.128-.041-.232-.113-.312-.223-.08-.107-.12-.238-.12-.389 0-.186.06-.338.18-.463.12-.123.272-.186.456-.186s.337.063.457.186z"/><path d="m91.282 183.072v8.4h-.864v-7.633h-1.98v-.768h2.844z"/><path d="m98.152 187.386c.459.428.69.986.69 1.674 0 .48-.116.906-.348 1.277-.232.373-.576.666-1.032.883-.456.215-1.012.324-1.668.324-.608 0-1.182-.098-1.722-.295-.54-.195-.974-.457-1.302-.785l.42-.686c.28.289.652.523 1.116.703s.96.27 1.488.27c.688 0 1.22-.15 1.596-.449.376-.301.564-.715.564-1.242 0-.52-.188-.928-.564-1.225-.376-.295-.944-.443-1.704-.443h-.6v-.637l2.328-2.916h-4.296v-.768h5.4v.611l-2.376 2.988c.88.05 1.55.288 2.01.716z"/><path d="m107.194 189.263h-1.68v2.209h-.864v-2.209h-4.74v-.623l4.452-5.568h.96l-4.296 5.424h3.648v-1.943h.84v1.943h1.68z"/></g><path d="m143.985 6.57v3.851h5.068v.896h-5.068v4.158h-1.035v-9.8h6.719v.895z" fill="#ec609e"/><path d="m157.775 12.101h-6.159c.055.766.35 1.384.881 1.855.532.471 1.205.707 2.017.707.457 0 .877-.082 1.26-.245s.714-.404.994-.722l.56.645c-.326.392-.734.69-1.225.896-.49.206-1.029.309-1.617.309-.756 0-1.426-.161-2.009-.483s-1.038-.768-1.365-1.337-.489-1.213-.489-1.932.156-1.363.469-1.933.742-1.013 1.287-1.33c.547-.316 1.16-.476 1.842-.476s1.293.159 1.834.476.966.759 1.273 1.323c.309.564.463 1.211.463 1.939zm-5.34-2.513c-.48.452-.754 1.043-.818 1.771h5.221c-.064-.728-.338-1.318-.818-1.771s-1.08-.68-1.799-.68c-.71 0-1.306.227-1.786.68z" fill="#ec609e"/><path d="m171.181 8.853c.527.532.791 1.316.791 2.353v4.27h-.994v-4.172c0-.766-.186-1.349-.553-1.75-.369-.401-.89-.603-1.562-.603-.766 0-1.368.236-1.806.707-.439.472-.658 1.123-.658 1.953v3.864h-.994v-4.172c0-.766-.185-1.349-.553-1.75-.369-.401-.895-.603-1.575-.603-.757 0-1.356.236-1.8.707-.443.472-.664 1.123-.664 1.953v3.864h-.994v-7.364h.951v1.345c.262-.448.626-.794 1.093-1.036.466-.243 1.003-.364 1.61-.364.615 0 1.15.131 1.603.392.452.262.791.649 1.015 1.162.271-.485.66-.865 1.17-1.141.508-.275 1.089-.413 1.742-.413.924 0 1.65.265 2.178.798z" fill="#ec609e"/><path d="m179.461 8.775c.513.481.771 1.192.771 2.135v4.564h-.952v-1.148c-.224.383-.554.682-.987.896s-.949.322-1.547.322c-.821 0-1.475-.196-1.96-.588-.485-.393-.728-.91-.728-1.555 0-.625.226-1.129.679-1.512.452-.383 1.173-.574 2.163-.574h2.338v-.448c0-.634-.178-1.117-.532-1.448s-.872-.497-1.554-.497c-.467 0-.915.077-1.344.23-.43.154-.799.366-1.106.638l-.448-.742c.373-.317.821-.562 1.344-.735s1.074-.259 1.652-.259c.96.001 1.698.241 2.211.721zm-1.12 5.601c.401-.257.7-.628.896-1.113v-1.204h-2.311c-1.26 0-1.89.438-1.89 1.316 0 .429.163.768.49 1.015.326.247.784.371 1.372.371.561 0 1.042-.128 1.443-.385z" fill="#ec609e"/><path d="m182.933 5.087h.994v10.388h-.994z" fill="#ec609e"/><path d="m193.11 12.101h-6.159c.056.766.35 1.384.882 1.855.531.471 1.204.707 2.016.707.457 0 .877-.082 1.26-.245s.715-.404.994-.722l.561.645c-.327.392-.734.69-1.225.896-.49.206-1.029.309-1.617.309-.756 0-1.426-.161-2.01-.483-.583-.322-1.038-.768-1.365-1.337-.326-.569-.489-1.213-.489-1.932s.156-1.363.469-1.933c.313-.569.742-1.013 1.288-1.33.546-.316 1.16-.476 1.842-.476.681 0 1.292.159 1.834.476.541.317.965.759 1.273 1.323s.462 1.211.462 1.939zm-5.339-2.513c-.481.452-.754 1.043-.819 1.771h5.222c-.065-.728-.338-1.318-.818-1.771-.481-.453-1.081-.68-1.799-.68-.711 0-1.306.227-1.786.68z" fill="#ec609e"/><path d="m195.414 15.285c-.546-.172-.974-.389-1.281-.65l.448-.784c.309.243.695.441 1.162.595s.951.231 1.456.231c.672 0 1.169-.105 1.491-.315s.482-.506.482-.889c0-.271-.088-.483-.266-.637s-.401-.271-.672-.351c-.271-.079-.631-.156-1.078-.23-.598-.112-1.078-.227-1.442-.344-.364-.116-.675-.314-.931-.595-.257-.28-.385-.667-.385-1.162 0-.615.256-1.12.77-1.512s1.227-.588 2.143-.588c.476 0 .951.062 1.428.188.476.126.867.292 1.176.497l-.434.799c-.607-.421-1.33-.631-2.17-.631-.635 0-1.113.112-1.436.336-.322.225-.482.519-.482.883 0 .279.09.504.272.672s.408.292.679.371.645.161 1.12.245c.589.111 1.06.224 1.414.336.354.111.658.303.91.573.252.271.378.645.378 1.12 0 .645-.269 1.155-.805 1.533-.537.378-1.281.567-2.233.567-.596.002-1.168-.085-1.714-.258z" fill="#ec609e"/><path d="m142.771 39.303c-.429-.15-.76-.348-.994-.594l.262-.514c.228.229.53.413.908.554.379.142.768.212 1.17.212.564 0 .987-.104 1.27-.311.281-.207.423-.476.423-.806 0-.252-.077-.453-.229-.604-.153-.149-.341-.265-.562-.346-.223-.081-.531-.17-.928-.266-.474-.12-.852-.235-1.133-.347-.283-.111-.523-.28-.725-.509-.201-.228-.302-.537-.302-.927 0-.318.084-.607.252-.868.168-.262.426-.47.774-.626s.779-.233 1.295-.233c.36 0 .713.049 1.059.148.344.099.643.235.895.409l-.225.531c-.264-.174-.546-.305-.846-.392-.301-.087-.594-.131-.883-.131-.552 0-.967.106-1.246.319s-.418.488-.418.824c0 .252.076.454.229.607.154.152.346.27.576.351.231.081.542.17.932.266.463.114.836.227 1.121.338.285.11.526.278.725.504.197.225.297.529.297.913 0 .318-.086.607-.257.868-.171.262-.434.469-.788.621-.354.153-.789.229-1.305.229-.47.004-.918-.07-1.347-.22z" fill="#0c4686"/><path d="m150.858 35.167c.329.31.494.767.494 1.373v2.934h-.611v-.738c-.145.246-.355.438-.635.576-.279.139-.611.207-.994.207-.529 0-.949-.126-1.261-.378s-.468-.585-.468-.999c0-.402.146-.726.437-.972s.755-.369 1.39-.369h1.504v-.288c0-.408-.114-.719-.342-.932-.229-.213-.562-.319-1-.319-.299 0-.588.05-.863.148-.276.099-.514.235-.711.409l-.288-.477c.239-.204.528-.361.864-.473s.689-.166 1.062-.166c.618.001 1.092.155 1.422.464zm-.72 3.601c.258-.165.45-.404.576-.716v-.774h-1.485c-.81 0-1.215.282-1.215.847 0 .275.104.493.315.652.209.159.504.238.881.238.361 0 .67-.082.928-.247z" fill="#0c4686"/><path d="m153.089 32.796h.639v6.678h-.639z" fill="#0c4686"/><path d="m159.632 37.305h-3.959c.035.492.225.89.566 1.192s.773.454 1.296.454c.294 0 .563-.052.81-.157.246-.104.459-.259.64-.463l.36.414c-.211.252-.473.443-.788.575-.315.133-.661.198-1.04.198-.485 0-.916-.104-1.291-.311s-.668-.493-.877-.859c-.211-.366-.315-.78-.315-1.242s.101-.876.302-1.242c.201-.365.477-.65.828-.854s.745-.306 1.184-.306c.438 0 .83.102 1.178.306.349.204.621.487.82.851.197.363.297.778.297 1.246zm-3.434-1.616c-.309.291-.484.67-.525 1.138h3.356c-.042-.468-.218-.847-.526-1.138-.31-.291-.695-.437-1.156-.437-.457.001-.839.146-1.149.437z" fill="#0c4686"/><path d="m161.112 39.353c-.351-.111-.625-.251-.823-.419l.288-.504c.198.156.447.283.747.383.3.099.612.148.937.148.432 0 .751-.067.958-.203.207-.135.311-.325.311-.571 0-.174-.058-.311-.171-.409-.114-.1-.258-.174-.432-.226-.175-.051-.406-.1-.693-.148-.385-.071-.693-.146-.928-.22-.233-.075-.434-.203-.598-.383-.166-.18-.248-.429-.248-.747 0-.396.165-.72.495-.972s.789-.378 1.377-.378c.306 0 .612.04.918.121s.558.188.757.319l-.279.513c-.391-.27-.855-.404-1.396-.404-.407 0-.716.071-.923.216-.207.144-.311.333-.311.566 0 .181.059.324.176.433.117.107.263.188.437.238.175.051.414.104.72.157.379.072.682.145.91.217.228.071.422.194.584.368.162.175.243.414.243.721 0 .414-.173.742-.517.985-.346.243-.824.364-1.436.364-.384.001-.751-.055-1.103-.165z" fill="#0c4686"/><path d="m171.791 37.791h-3.511l-.756 1.683h-.692l2.88-6.3h.657l2.88 6.3h-.702zm-.243-.54-1.512-3.385-1.512 3.385z" fill="#0c4686"/><path d="m174.288 39.353c-.351-.111-.625-.251-.823-.419l.288-.504c.198.156.447.283.747.383.3.099.612.148.937.148.432 0 .751-.067.958-.203.207-.135.311-.325.311-.571 0-.174-.058-.311-.171-.409-.114-.1-.258-.174-.432-.226-.175-.051-.406-.1-.693-.148-.385-.071-.693-.146-.928-.22-.233-.075-.434-.203-.598-.383-.166-.18-.248-.429-.248-.747 0-.396.165-.72.495-.972s.789-.378 1.377-.378c.306 0 .612.04.918.121s.558.188.757.319l-.279.513c-.391-.27-.855-.404-1.396-.404-.407 0-.716.071-.923.216-.207.144-.311.333-.311.566 0 .181.059.324.176.433.117.107.263.188.437.238.175.051.414.104.72.157.379.072.682.145.91.217.228.071.422.194.584.368.162.175.243.414.243.721 0 .414-.173.742-.517.985-.346.243-.824.364-1.436.364-.384.001-.751-.055-1.103-.165z" fill="#0c4686"/><path d="m178.69 39.353c-.352-.111-.626-.251-.824-.419l.288-.504c.198.156.446.283.747.383.3.099.611.148.936.148.433 0 .752-.067.959-.203.207-.135.311-.325.311-.571 0-.174-.057-.311-.171-.409-.114-.1-.259-.174-.433-.226-.174-.051-.404-.1-.692-.148-.384-.071-.693-.146-.927-.22-.234-.075-.434-.203-.6-.383-.164-.18-.247-.429-.247-.747 0-.396.165-.72.495-.972s.789-.378 1.377-.378c.307 0 .612.04.918.121.307.081.559.188.756.319l-.279.513c-.39-.27-.854-.404-1.395-.404-.408 0-.715.071-.922.216-.207.144-.311.333-.311.566 0 .181.059.324.176.433.116.107.262.188.436.238s.414.104.721.157c.377.072.681.145.908.217.229.071.424.194.586.368.162.175.242.414.242.721 0 .414-.172.742-.518.985-.345.243-.823.364-1.436.364-.383.001-.75-.055-1.101-.165z" fill="#0c4686"/><path d="m182.915 33.569c-.09-.09-.135-.197-.135-.323 0-.12.045-.226.135-.315s.201-.135.333-.135.243.043.333.13.135.19.135.311c0 .133-.045.243-.135.333s-.201.136-.333.136-.243-.047-.333-.137zm.01 1.17h.639v4.734h-.639z" fill="#0c4686"/><path d="m185.512 39.353c-.351-.111-.626-.251-.823-.419l.287-.504c.199.156.447.283.748.383.299.099.611.148.936.148.432 0 .752-.067.959-.203.207-.135.311-.325.311-.571 0-.174-.058-.311-.172-.409-.113-.1-.258-.174-.432-.226-.174-.051-.405-.1-.693-.148-.384-.071-.693-.146-.927-.22-.233-.075-.434-.203-.599-.383s-.248-.429-.248-.747c0-.396.166-.72.496-.972s.789-.378 1.377-.378c.306 0 .611.04.918.121.306.081.558.188.756.319l-.279.513c-.391-.27-.855-.404-1.395-.404-.408 0-.716.071-.923.216-.207.144-.311.333-.311.566 0 .181.059.324.176.433.116.107.263.188.437.238s.414.104.72.157c.378.072.681.145.909.217.229.071.423.194.585.368.162.175.243.414.243.721 0 .414-.173.742-.518.985-.346.243-.824.364-1.436.364-.385.001-.752-.055-1.102-.165z" fill="#0c4686"/><path d="m192.239 39.186c-.121.108-.27.19-.445.248-.178.057-.361.085-.555.085-.443 0-.785-.12-1.025-.36-.24-.239-.359-.578-.359-1.017v-2.862h-.847v-.54h.847v-1.034h.639v1.034h1.439v.54h-1.439v2.826c0 .282.07.497.211.644s.344.221.607.221c.133 0 .26-.021.383-.063s.229-.102.32-.18z" fill="#0c4686"/><path d="m196.478 35.167c.33.31.495.767.495 1.373v2.934h-.612v-.738c-.144.246-.355.438-.635.576-.278.139-.609.207-.994.207-.527 0-.947-.126-1.26-.378s-.468-.585-.468-.999c0-.402.146-.726.437-.972s.754-.369 1.391-.369h1.503v-.288c0-.408-.114-.719-.343-.932-.228-.213-.561-.319-.998-.319-.301 0-.588.05-.864.148s-.513.235-.711.409l-.288-.477c.24-.204.527-.361.863-.473s.69-.166 1.062-.166c.618.001 1.091.155 1.422.464zm-.72 3.601c.258-.165.45-.404.576-.716v-.774h-1.485c-.811 0-1.215.282-1.215.847 0 .275.105.493.314.652.211.159.504.238.883.238.359 0 .668-.082.927-.247z" fill="#0c4686"/><path d="m202.54 35.221c.35.346.525.848.525 1.508v2.745h-.639v-2.682c0-.492-.123-.867-.369-1.125s-.597-.388-1.053-.388c-.51 0-.914.152-1.211.455s-.445.722-.445 1.255v2.484h-.639v-4.734h.611v.873c.174-.288.416-.511.725-.67.31-.159.668-.238 1.076-.238.595 0 1.067.172 1.419.517z" fill="#0c4686"/><path d="m207.296 39.186c-.121.108-.27.19-.445.248-.178.057-.361.085-.555.085-.443 0-.785-.12-1.025-.36-.24-.239-.359-.578-.359-1.017v-2.862h-.847v-.54h.847v-1.034h.639v1.034h1.439v.54h-1.439v2.826c0 .282.07.497.211.644s.344.221.607.221c.133 0 .26-.021.383-.063s.229-.102.32-.18z" fill="#0c4686"/><path d="m208.624 39.353c-.352-.111-.626-.251-.824-.419l.288-.504c.198.156.446.283.747.383.3.099.611.148.936.148.433 0 .752-.067.959-.203.207-.135.311-.325.311-.571 0-.174-.057-.311-.171-.409-.114-.1-.259-.174-.433-.226-.174-.051-.404-.1-.692-.148-.384-.071-.693-.146-.927-.22-.234-.075-.434-.203-.6-.383-.164-.18-.247-.429-.247-.747 0-.396.165-.72.495-.972s.789-.378 1.377-.378c.307 0 .612.04.918.121.307.081.559.188.756.319l-.279.513c-.39-.27-.854-.404-1.395-.404-.408 0-.715.071-.922.216-.207.144-.311.333-.311.566 0 .181.059.324.176.433.116.107.262.188.436.238s.414.104.721.157c.377.072.681.145.908.217.229.071.424.194.586.368.162.175.242.414.242.721 0 .414-.172.742-.518.985-.345.243-.823.364-1.436.364-.383.001-.75-.055-1.101-.165z" fill="#0c4686"/><path d="m142.56 55.318c-.18-.717-.27-1.486-.27-2.309s.09-1.595.27-2.317c.18-.724.438-1.354.773-1.895h.612c-.354.605-.613 1.257-.778 1.953-.165.695-.248 1.448-.248 2.259 0 .81.083 1.562.248 2.259s.424 1.347.778 1.953h-.612c-.336-.551-.594-1.186-.773-1.903z" fill="#0c4686"/><path d="m149.777 52.325h.64v2.403c-.295.258-.643.456-1.045.594-.402.139-.824.207-1.269.207-.63 0-1.197-.138-1.701-.414-.504-.275-.899-.658-1.188-1.147-.287-.488-.432-1.036-.432-1.643 0-.605.145-1.153.432-1.643.289-.488.685-.871 1.188-1.147.504-.275 1.074-.413 1.71-.413.48 0 .921.076 1.323.229.401.152.741.379 1.017.679l-.414.423c-.498-.491-1.131-.737-1.898-.737-.51 0-.971.112-1.382.337-.411.226-.733.537-.968.937-.233.398-.351.845-.351 1.336 0 .492.117.937.351 1.332.234.396.555.708.963.937.408.228.867.342 1.377.342.648 0 1.197-.162 1.647-.486z" fill="#0c4686"/><path d="m156.284 53.307h-3.959c.035.492.225.89.566 1.192s.773.454 1.296.454c.294 0 .563-.052.81-.157.246-.104.459-.259.64-.463l.36.414c-.211.252-.473.443-.788.575-.315.133-.661.198-1.04.198-.485 0-.916-.104-1.291-.311s-.668-.493-.877-.859c-.211-.366-.315-.78-.315-1.242s.101-.876.302-1.242c.201-.365.477-.65.828-.854s.745-.306 1.184-.306c.438 0 .83.102 1.178.306.349.204.621.487.82.851.197.363.297.778.297 1.246zm-3.433-1.616c-.309.291-.484.67-.525 1.138h3.356c-.042-.468-.218-.847-.526-1.138-.31-.291-.695-.437-1.156-.437-.458.001-.84.146-1.149.437z" fill="#0c4686"/><path d="m161.429 51.223c.35.346.525.848.525 1.508v2.745h-.639v-2.682c0-.492-.123-.867-.369-1.125s-.597-.388-1.053-.388c-.51 0-.914.152-1.211.455s-.445.722-.445 1.255v2.484h-.639v-4.734h.611v.873c.174-.288.416-.511.725-.67.31-.159.668-.238 1.076-.238.594 0 1.067.172 1.419.517z" fill="#0c4686"/><path d="m167.831 53.307h-3.959c.035.492.225.89.566 1.192s.773.454 1.296.454c.294 0 .563-.052.81-.157.246-.104.459-.259.64-.463l.36.414c-.211.252-.473.443-.788.575-.315.133-.661.198-1.04.198-.485 0-.916-.104-1.291-.311s-.668-.493-.877-.859c-.211-.366-.315-.78-.315-1.242s.101-.876.302-1.242c.201-.365.477-.65.828-.854s.745-.306 1.184-.306c.438 0 .83.102 1.178.306.349.204.621.487.82.851.197.363.297.778.297 1.246zm-3.434-1.616c-.309.291-.484.67-.525 1.138h3.356c-.042-.468-.218-.847-.526-1.138-.31-.291-.695-.437-1.156-.437-.457.001-.839.146-1.149.437z" fill="#0c4686"/><path d="m170.427 50.948c.298-.162.665-.242 1.104-.242v.62l-.153-.009c-.498 0-.888.153-1.17.459-.282.307-.423.735-.423 1.287v2.412h-.639v-4.734h.611v.928c.15-.318.373-.559.67-.721z" fill="#0c4686"/><path d="m175.751 51.169c.33.31.494.767.494 1.373v2.934h-.611v-.738c-.145.246-.355.438-.635.576-.279.139-.61.207-.994.207-.528 0-.948-.126-1.26-.378s-.469-.585-.469-.999c0-.402.146-.726.438-.972s.754-.369 1.39-.369h1.503v-.288c0-.408-.113-.719-.342-.932s-.561-.319-.999-.319c-.3 0-.588.05-.864.148-.275.099-.513.235-.711.409l-.287-.477c.239-.204.527-.361.863-.473s.689-.166 1.062-.166c.617.001 1.092.155 1.422.464zm-.721 3.601c.258-.165.451-.404.576-.716v-.774h-1.484c-.811 0-1.215.282-1.215.847 0 .275.104.493.314.652s.504.238.882.238c.361 0 .669-.082.927-.247z" fill="#0c4686"/><path d="m177.983 48.798h.639v6.678h-.639z" fill="#0c4686"/><path d="m179.872 57.222c.354-.606.615-1.256.783-1.948.168-.693.252-1.448.252-2.264s-.084-1.57-.252-2.264-.429-1.343-.783-1.948h.613c.336.54.595 1.171.777 1.895.184.723.275 1.495.275 2.317s-.09 1.593-.271 2.312c-.18.721-.44 1.354-.782 1.899h-.612z" fill="#0c4686"/><path d="m146.844 67.388c.46.428.69.986.69 1.674 0 .48-.117.906-.349 1.278s-.576.666-1.032.882c-.455.216-1.012.324-1.668.324-.607 0-1.182-.098-1.722-.294s-.974-.458-1.302-.786l.42-.685c.279.288.652.522 1.115.702.465.181.961.271 1.488.271.688 0 1.221-.15 1.596-.45.377-.3.564-.714.564-1.242 0-.52-.188-.928-.564-1.224-.375-.296-.943-.444-1.703-.444h-.601v-.636l2.328-2.916h-4.296v-.769h5.4v.612l-2.377 2.988c.883.049 1.553.287 2.013.715z" fill="#0c4686"/><path d="m153.504 67.172c.556.436.834 1.046.834 1.83 0 .487-.114.924-.343 1.308-.228.384-.569.687-1.025.906s-1.016.33-1.68.33c-.601 0-1.17-.098-1.711-.294-.539-.196-.974-.458-1.301-.786l.42-.685c.279.288.647.522 1.104.702.456.181.947.271 1.477.271.695 0 1.233-.156 1.613-.469.38-.312.57-.728.57-1.247 0-.576-.215-1.013-.643-1.309s-1.15-.444-2.166-.444h-1.787l.432-4.212h4.596v.769h-3.84l-.288 2.676h1.08c1.216 0 2.102.217 2.658.654z" fill="#0c4686"/><path d="m160.235 67.172c.557.436.834 1.046.834 1.83 0 .487-.113.924-.342 1.308s-.57.687-1.025.906c-.457.22-1.017.33-1.681.33-.601 0-1.17-.098-1.71-.294s-.975-.458-1.302-.786l.42-.685c.28.288.647.522 1.104.702.455.181.947.271 1.476.271.696 0 1.233-.156 1.614-.469.379-.312.57-.728.57-1.247 0-.576-.215-1.013-.643-1.309s-1.15-.444-2.166-.444h-1.788l.433-4.212h4.596v.769h-3.84l-.289 2.676h1.08c1.218 0 2.104.217 2.659.654z" fill="#0c4686"/><path d="m163.277 70.412c.12.124.18.277.18.462 0 .096-.015.199-.042.312s-.07.24-.126.384l-.504 1.656h-.576l.408-1.74c-.128-.04-.232-.113-.312-.222-.08-.108-.121-.238-.121-.39 0-.185.061-.338.181-.462s.272-.187.456-.187.336.063.456.187z" fill="#0c4686"/><path d="m170.854 67.861c.285.353.427.776.427 1.272 0 .488-.132.914-.396 1.278-.265.363-.643.644-1.135.84s-1.07.294-1.734.294c-1.008 0-1.799-.216-2.375-.648s-.864-1.02-.864-1.764c0-.504.138-.93.414-1.278s.678-.609 1.206-.786c-.432-.168-.76-.409-.984-.726s-.336-.69-.336-1.122c0-.68.266-1.22.798-1.62.532-.399 1.246-.6 2.142-.6.592 0 1.11.09 1.555.27.443.18.79.438 1.038.774.247.336.372.728.372 1.176 0 .432-.116.806-.348 1.122s-.564.558-.996.726c.527.177.933.441 1.216.792zm-1.091 2.496c.42-.304.631-.716.631-1.235 0-.521-.211-.931-.631-1.23s-1.002-.45-1.746-.45c-.735 0-1.313.15-1.733.45s-.63.71-.63 1.23c0 .527.208.941.624 1.241.415.301.995.45 1.739.45s1.326-.151 1.746-.456zm-3.27-4.007c.367.272.876.408 1.523.408.648 0 1.158-.136 1.531-.408.371-.271.557-.636.557-1.092 0-.472-.189-.844-.569-1.116-.38-.271-.886-.408-1.519-.408-.64 0-1.146.137-1.518.408-.372.272-.558.641-.558 1.104s.185.832.553 1.104z" fill="#0c4686"/><path d="m179.621 69.266h-1.681v2.208h-.863v-2.208h-4.74v-.624l4.452-5.568h.96l-4.296 5.425h3.647v-1.944h.84v1.944h1.681z" fill="#0c4686"/><path d="m185.099 67.388c.46.428.69.986.69 1.674 0 .48-.116.906-.349 1.278-.231.372-.576.666-1.031.882-.456.216-1.012.324-1.668.324-.608 0-1.182-.098-1.723-.294-.539-.196-.974-.458-1.302-.786l.42-.685c.28.288.652.522 1.116.702.464.181.96.271 1.488.271.688 0 1.22-.15 1.596-.45s.564-.714.564-1.242c0-.52-.188-.928-.564-1.224s-.943-.444-1.704-.444h-.601v-.636l2.328-2.916h-4.295v-.769h5.399v.612l-2.376 2.988c.882.049 1.552.287 2.012.715z" fill="#0c4686"/><path d="m146.682 95.473-1.44-2.025c-.162.019-.33.027-.504.027h-1.691v1.998h-.666v-6.3h2.357c.805 0 1.434.192 1.891.576.455.384.684.912.684 1.584 0 .491-.125.907-.373 1.246-.25.339-.605.584-1.066.733l1.539 2.16h-.731zm-.532-2.979c.33-.276.495-.663.495-1.161 0-.511-.165-.901-.495-1.175s-.808-.409-1.431-.409h-1.674v3.158h1.674c.624 0 1.101-.137 1.431-.413z" fill="#0c4686"/><path d="m152.874 93.304h-3.961c.036.492.225.89.567 1.192.342.303.774.454 1.296.454.294 0 .564-.052.811-.157.246-.104.459-.259.639-.463l.359.414c-.209.252-.473.443-.787.575-.314.133-.662.198-1.039.198-.486 0-.917-.104-1.292-.311s-.667-.493-.878-.859c-.209-.366-.314-.78-.314-1.242s.101-.876.301-1.242c.201-.365.478-.65.828-.854.352-.204.746-.306 1.184-.306s.832.102 1.18.306.621.487.818.851c.198.363.297.778.297 1.246zm-3.434-1.616c-.31.291-.485.67-.527 1.138h3.357c-.042-.468-.218-.847-.527-1.138s-.693-.437-1.156-.437c-.455.001-.838.146-1.147.437z" fill="#0c4686"/><path d="m158.57 90.738v4.158c0 .804-.196 1.399-.589 1.787-.394.387-.986.58-1.777.58-.439 0-.854-.064-1.247-.193-.394-.129-.713-.308-.958-.536l.323-.485c.228.204.505.362.833.477.326.114.67.171 1.03.171.6 0 1.04-.139 1.323-.418.281-.279.422-.713.422-1.301v-.603c-.197.3-.457.527-.777.684-.321.156-.677.234-1.066.234-.445 0-.848-.098-1.211-.293-.363-.194-.648-.468-.855-.818-.207-.352-.311-.749-.311-1.193 0-.443.104-.84.311-1.188s.49-.618.852-.811c.359-.191.764-.287 1.215-.287.401 0 .765.08 1.088.242.324.162.586.396.783.702v-.909zm-1.494 3.767c.276-.146.491-.353.644-.616.153-.264.229-.563.229-.9 0-.336-.076-.634-.229-.896-.152-.261-.365-.465-.639-.611-.273-.147-.584-.221-.932-.221-.342 0-.649.072-.922.216-.273.145-.486.348-.64.612-.153.264-.229.563-.229.899 0 .337.076.637.229.9s.366.47.64.616c.272.147.58.221.922.221s.651-.073.927-.22z" fill="#0c4686"/><path d="m160.353 89.568c-.09-.09-.135-.197-.135-.323 0-.12.045-.226.135-.315s.201-.135.332-.135c.133 0 .244.043.334.13s.135.19.135.311c0 .133-.045.243-.135.333s-.201.136-.334.136c-.131-.001-.243-.047-.332-.137zm.008 1.17h.639v4.734h-.639z" fill="#0c4686"/><path d="m162.948 95.352c-.351-.111-.625-.251-.823-.419l.288-.504c.198.156.447.283.747.383.3.099.612.148.937.148.432 0 .751-.067.958-.203.207-.135.311-.325.311-.571 0-.174-.058-.311-.171-.409-.114-.1-.258-.174-.432-.226-.175-.051-.406-.1-.693-.148-.385-.071-.693-.146-.928-.22-.233-.075-.434-.203-.598-.383-.166-.18-.248-.429-.248-.747 0-.396.165-.72.495-.972s.789-.378 1.377-.378c.306 0 .612.04.918.121s.558.188.757.319l-.279.513c-.391-.27-.855-.404-1.396-.404-.407 0-.716.071-.923.216-.207.144-.311.333-.311.566 0 .181.059.324.176.433.117.107.263.188.437.238.175.051.414.104.72.157.379.072.682.145.91.217.228.071.422.194.584.368.162.175.243.414.243.721 0 .414-.173.742-.517.985-.346.243-.824.364-1.436.364-.384.001-.751-.055-1.103-.165z" fill="#0c4686"/><path d="m169.676 95.185c-.12.108-.269.19-.445.248-.177.057-.361.085-.554.085-.443 0-.785-.12-1.025-.36-.24-.239-.36-.578-.36-1.017v-2.862h-.847v-.54h.847v-1.034h.64v1.034h1.439v.54h-1.439v2.826c0 .282.07.497.211.644s.344.221.607.221c.132 0 .26-.021.383-.063s.229-.102.319-.18z" fill="#0c4686"/><path d="m174.798 93.304h-3.961c.036.492.225.89.567 1.192.342.303.774.454 1.296.454.294 0 .564-.052.811-.157.246-.104.459-.259.639-.463l.359.414c-.209.252-.473.443-.787.575-.314.133-.662.198-1.039.198-.486 0-.917-.104-1.292-.311s-.667-.493-.878-.859c-.209-.366-.314-.78-.314-1.242s.101-.876.301-1.242c.201-.365.478-.65.828-.854.352-.204.746-.306 1.184-.306s.832.102 1.18.306.621.487.818.851c.198.363.297.778.297 1.246zm-3.434-1.616c-.31.291-.485.67-.527 1.138h3.357c-.042-.468-.218-.847-.527-1.138s-.693-.437-1.156-.437c-.455.001-.838.146-1.147.437z" fill="#0c4686"/><path d="m177.394 90.945c.297-.162.664-.242 1.103-.242v.62l-.153-.009c-.498 0-.888.153-1.17.459-.281.307-.423.735-.423 1.287v2.412h-.639v-4.734h.612v.928c.149-.318.373-.559.67-.721z" fill="#0c4686"/><path d="m183.726 93.304h-3.961c.036.492.225.89.567 1.192.342.303.774.454 1.296.454.294 0 .564-.052.811-.157.246-.104.459-.259.639-.463l.359.414c-.209.252-.473.443-.787.575-.314.133-.662.198-1.039.198-.486 0-.917-.104-1.292-.311s-.667-.493-.878-.859c-.209-.366-.314-.78-.314-1.242s.101-.876.301-1.242c.201-.365.478-.65.828-.854.352-.204.746-.306 1.184-.306s.832.102 1.18.306.621.487.818.851c.198.363.297.778.297 1.246zm-3.434-1.616c-.31.291-.485.67-.527 1.138h3.357c-.042-.468-.218-.847-.527-1.138s-.693-.437-1.156-.437c-.456.001-.838.146-1.147.437z" fill="#0c4686"/><path d="m189.358 88.795v6.678h-.611v-.936c-.192.317-.445.561-.761.729s-.671.252-1.066.252c-.444 0-.847-.102-1.206-.306s-.643-.489-.846-.855c-.204-.365-.307-.783-.307-1.251s.103-.885.307-1.251c.203-.366.486-.649.846-.851s.762-.301 1.206-.301c.384 0 .73.079 1.04.238.309.159.562.392.76.697v-2.844h.638zm-1.488 5.926c.266-.152.477-.37.629-.652.153-.281.23-.603.23-.963 0-.359-.077-.681-.23-.963-.152-.282-.363-.499-.629-.652-.268-.153-.566-.229-.896-.229-.336 0-.637.076-.904.229s-.477.37-.63.652-.229.604-.229.963c0 .36.076.682.229.963.153.282.362.5.63.652.268.153.568.229.904.229.33 0 .629-.076.896-.229z" fill="#0c4686"/><path d="m198.899 89.173v6.3h-.549l-4.05-5.113v5.112h-.666v-6.3h.549l4.059 5.111v-5.111h.657z" fill="#0c4686"/><path d="m205.082 90.738v4.734h-.612v-.864c-.168.288-.398.512-.693.671-.293.159-.629.238-1.008.238-.617 0-1.105-.172-1.463-.518-.356-.345-.535-.851-.535-1.517v-2.745h.639v2.683c0 .498.123.876.369 1.134s.598.387 1.054.387c.497 0 .891-.151 1.179-.454s.432-.725.432-1.265v-2.484z" fill="#0c4686"/><path d="m208.155 90.945c.297-.162.664-.242 1.102-.242v.62l-.152-.009c-.498 0-.889.153-1.17.459-.282.307-.424.735-.424 1.287v2.412h-.639v-4.734h.612v.928c.15-.318.374-.559.671-.721z" fill="#0c4686"/><path d="m210.621 95.352c-.351-.111-.626-.251-.823-.419l.287-.504c.199.156.447.283.748.383.299.099.611.148.936.148.432 0 .752-.067.959-.203.207-.135.311-.325.311-.571 0-.174-.058-.311-.172-.409-.113-.1-.258-.174-.432-.226-.174-.051-.405-.1-.693-.148-.384-.071-.693-.146-.927-.22-.233-.075-.434-.203-.599-.383s-.248-.429-.248-.747c0-.396.166-.72.496-.972s.789-.378 1.377-.378c.306 0 .611.04.918.121.306.081.558.188.756.319l-.279.513c-.391-.27-.855-.404-1.395-.404-.408 0-.716.071-.923.216-.207.144-.311.333-.311.566 0 .181.059.324.176.433.116.107.263.188.437.238s.414.104.72.157c.378.072.681.145.909.217.229.071.423.194.585.368.162.175.243.414.243.721 0 .414-.173.742-.518.985-.346.243-.824.364-1.436.364-.384.001-.751-.055-1.102-.165z" fill="#0c4686"/><path d="m218.978 93.304h-3.96c.036.492.225.89.567 1.192.342.303.773.454 1.295.454.295 0 .564-.052.811-.157.246-.104.459-.259.639-.463l.36.414c-.21.252-.473.443-.788.575-.314.133-.661.198-1.039.198-.486 0-.916-.104-1.291-.311s-.668-.493-.878-.859-.315-.78-.315-1.242.102-.876.302-1.242c.201-.365.478-.65.828-.854s.745-.306 1.184-.306.831.102 1.179.306.621.487.819.851.297.778.297 1.246zm-3.434-1.616c-.309.291-.484.67-.526 1.138h3.356c-.041-.468-.217-.847-.526-1.138s-.694-.437-1.156-.437c-.457.001-.839.146-1.148.437z" fill="#0c4686"/><path d="m220.458 95.352c-.352-.111-.625-.251-.824-.419l.289-.504c.197.156.446.283.746.383.301.099.612.148.937.148.433 0 .751-.067.958-.203.207-.135.311-.325.311-.571 0-.174-.057-.311-.17-.409-.115-.1-.259-.174-.433-.226-.175-.051-.405-.1-.692-.148-.385-.071-.693-.146-.928-.22-.234-.075-.434-.203-.599-.383s-.247-.429-.247-.747c0-.396.164-.72.494-.972s.789-.378 1.377-.378c.307 0 .613.04.918.121.307.081.559.188.757.319l-.279.513c-.39-.27-.854-.404-1.396-.404-.407 0-.715.071-.922.216-.207.144-.311.333-.311.566 0 .181.059.324.176.433.117.107.262.188.436.238.175.051.414.104.721.157.378.072.682.145.909.217.228.071.423.194.585.368.162.175.242.414.242.721 0 .414-.172.742-.517.985s-.823.364-1.436.364c-.383.001-.75-.055-1.102-.165z" fill="#0c4686"/><path d="m144.306 103.072v8.4h-.864v-7.632h-1.979v-.769h2.843z" fill="#0c4686"/><path d="m151.481 104.099c.592.732.889 1.766.889 3.102 0 .937-.16 1.729-.48 2.376-.32.648-.768 1.139-1.344 1.471s-1.248.498-2.016.498c-.833 0-1.496-.152-1.992-.456l.348-.696c.4.264.943.396 1.632.396.928 0 1.655-.294 2.185-.883.527-.588.791-1.441.791-2.562 0-.208-.012-.436-.035-.684-.209.455-.541.81-.996 1.062-.457.252-.98.378-1.572.378-.553 0-1.042-.104-1.471-.312-.428-.208-.762-.502-1.002-.883-.239-.38-.359-.821-.359-1.325 0-.513.124-.964.372-1.356.247-.392.59-.694 1.026-.906s.926-.317 1.47-.317c1.111-.001 1.963.364 2.554 1.097zm-1.337 3.03c.324-.16.578-.38.762-.66s.276-.592.276-.937c0-.319-.086-.615-.259-.888-.172-.271-.426-.492-.762-.66s-.736-.252-1.199-.252c-.608 0-1.103.166-1.482.498s-.57.774-.57 1.326.19.992.57 1.32.895.492 1.542.492c.423.001.797-.079 1.122-.239z" fill="#0c4686"/><path d="m159.461 103.072v.612l-3.516 7.788h-.937l3.457-7.632h-4.32v1.572h-.853v-2.341h6.169z" fill="#0c4686"/><path d="m161.093 110.411c.12.124.18.277.18.462 0 .096-.014.199-.041.312-.028.112-.07.24-.127.384l-.504 1.656h-.576l.408-1.74c-.127-.04-.232-.113-.312-.222-.08-.108-.12-.238-.12-.39 0-.185.061-.338.18-.462.121-.124.272-.187.457-.187.183.001.336.063.455.187z" fill="#0c4686"/><path d="m164.718 103.072v8.4h-.865v-7.632h-1.979v-.769h2.844z" fill="#0c4686"/><path d="m172.457 110.705v.768h-5.892v-.612l3.492-3.42c.439-.432.738-.806.894-1.122.155-.315.233-.634.233-.954 0-.495-.17-.882-.51-1.157-.34-.276-.826-.414-1.457-.414-.984 0-1.748.312-2.293.936l-.611-.528c.328-.384.746-.68 1.254-.888s1.082-.312 1.722-.312c.856 0 1.534.202 2.034.605.5.404.75.958.75 1.662 0 .432-.096.849-.288 1.248-.192.4-.556.86-1.092 1.38l-2.856 2.809h4.62z" fill="#0c4686"/><path d="m180.401 109.265h-1.681v2.208h-.864v-2.208h-4.74v-.624l4.453-5.568h.959l-4.295 5.425h3.647v-1.944h.84v1.944h1.681z" fill="#0c4686"/><path d="m146.816 132.322h.64v2.404c-.295.258-.643.455-1.045.594s-.824.207-1.269.207c-.63 0-1.197-.139-1.701-.414s-.899-.658-1.188-1.148c-.287-.488-.432-1.035-.432-1.643 0-.605.145-1.152.432-1.643.289-.488.685-.871 1.188-1.146s1.074-.414 1.71-.414c.48 0 .921.076 1.323.23.401.152.741.379 1.017.678l-.414.424c-.498-.492-1.131-.738-1.898-.738-.51 0-.971.113-1.382.338s-.733.537-.968.936c-.233.398-.351.846-.351 1.336 0 .492.117.938.351 1.332.234.396.555.709.963.938.408.227.867.342 1.377.342.648 0 1.197-.162 1.647-.486z" fill="#0c4686"/><path d="m153.323 133.304h-3.959c.035.492.225.889.566 1.191s.773.455 1.296.455c.294 0 .563-.053.81-.158.246-.104.459-.258.64-.463l.36.414c-.211.252-.473.443-.788.576s-.661.197-1.04.197c-.485 0-.916-.104-1.291-.311s-.668-.492-.877-.859c-.211-.365-.315-.779-.315-1.242 0-.461.101-.875.302-1.242.201-.365.477-.65.828-.854.351-.205.745-.307 1.184-.307.438 0 .83.102 1.178.307.349.203.621.486.82.85.197.363.297.779.297 1.246zm-3.433-1.615c-.309.291-.484.67-.525 1.137h3.356c-.042-.467-.218-.846-.526-1.137-.31-.291-.695-.438-1.156-.438-.458 0-.84.147-1.149.438z" fill="#0c4686"/><path d="m158.468 131.22c.35.346.525.848.525 1.508v2.744h-.639v-2.682c0-.492-.123-.867-.369-1.125s-.597-.387-1.053-.387c-.51 0-.914.152-1.211.455s-.445.721-.445 1.254v2.484h-.639v-4.734h.611v.873c.174-.287.416-.51.725-.67.31-.158.668-.238 1.076-.238.595.001 1.067.173 1.419.518z" fill="#0c4686"/><path d="m164.87 133.304h-3.959c.035.492.225.889.566 1.191s.773.455 1.296.455c.294 0 .563-.053.81-.158.246-.104.459-.258.64-.463l.36.414c-.211.252-.473.443-.788.576s-.661.197-1.04.197c-.485 0-.916-.104-1.291-.311s-.668-.492-.877-.859c-.211-.365-.315-.779-.315-1.242 0-.461.101-.875.302-1.242.201-.365.477-.65.828-.854.351-.205.745-.307 1.184-.307.438 0 .83.102 1.178.307.349.203.621.486.82.85.197.363.297.779.297 1.246zm-3.433-1.615c-.309.291-.484.67-.525 1.137h3.356c-.042-.467-.218-.846-.526-1.137-.31-.291-.695-.438-1.156-.438-.458 0-.84.147-1.149.438z" fill="#0c4686"/><path d="m167.466 130.945c.298-.162.665-.242 1.104-.242v.621l-.153-.01c-.498 0-.888.154-1.17.459-.282.307-.423.736-.423 1.287v2.412h-.639v-4.734h.611v.928c.15-.319.373-.559.67-.721z" fill="#0c4686"/><path d="m172.8 131.166c.329.311.494.768.494 1.373v2.934h-.611v-.738c-.145.246-.355.439-.635.576-.279.139-.611.207-.994.207-.529 0-.949-.125-1.261-.377s-.468-.586-.468-1c0-.402.146-.725.437-.971s.755-.369 1.39-.369h1.504v-.289c0-.408-.114-.719-.342-.932-.229-.213-.562-.318-1-.318-.299 0-.588.049-.863.148-.276.098-.514.234-.711.408l-.288-.477c.239-.203.528-.361.864-.473s.689-.166 1.062-.166c.617.001 1.092.155 1.422.464zm-.721 3.601c.258-.166.45-.404.576-.717v-.773h-1.485c-.81 0-1.215.281-1.215.846 0 .275.104.494.315.652.209.16.504.238.881.238.362 0 .67-.082.928-.246z" fill="#0c4686"/><path d="m175.031 128.794h.639v6.678h-.639z" fill="#0c4686"/><path d="m180.993 135.113c-.501-.275-.895-.658-1.179-1.148-.285-.488-.428-1.035-.428-1.643 0-.605.143-1.152.428-1.643.284-.488.68-.871 1.184-1.146s1.067-.414 1.692-.414c.467 0 .899.078 1.295.234s.732.383 1.009.684l-.423.424c-.492-.498-1.113-.748-1.863-.748-.498 0-.951.115-1.359.342-.408.229-.727.541-.958.936-.231.396-.347.842-.347 1.332 0 .492.115.938.347 1.332.231.396.55.709.958.938.408.227.861.342 1.359.342.756 0 1.377-.252 1.863-.756l.423.422c-.276.301-.614.529-1.013.689-.398.158-.832.238-1.301.238-.623-.001-1.186-.14-1.687-.415z" fill="#0c4686"/><path d="m186.28 128.794h.639v6.678h-.639z" fill="#0c4686"/><path d="m192.824 133.304h-3.96c.035.492.225.889.566 1.191s.774.455 1.297.455c.293 0 .563-.053.81-.158.246-.104.459-.258.64-.463l.359.414c-.21.252-.473.443-.787.576-.315.133-.662.197-1.04.197-.485 0-.917-.104-1.292-.311s-.667-.492-.877-.859c-.21-.365-.314-.779-.314-1.242 0-.461.1-.875.301-1.242.201-.365.477-.65.828-.854.352-.205.746-.307 1.184-.307s.831.102 1.179.307c.349.203.621.486.819.85.197.363.297.779.297 1.246zm-3.433-1.615c-.31.291-.485.67-.526 1.137h3.357c-.043-.467-.219-.846-.527-1.137s-.694-.438-1.156-.438c-.457 0-.839.147-1.148.438z" fill="#0c4686"/><path d="m195.42 130.945c.298-.162.665-.242 1.103-.242v.621l-.152-.01c-.498 0-.889.154-1.17.459-.283.307-.424.736-.424 1.287v2.412h-.639v-4.734h.611v.928c.15-.319.374-.559.671-.721z" fill="#0c4686"/><path d="m199.43 133.097-1.116 1.025v1.35h-.639v-6.678h.639v4.527l2.826-2.584h.792l-2.024 1.936 2.213 2.799h-.782z" fill="#0c4686"/><path d="m203.115 135.351c-.351-.111-.626-.25-.823-.418l.287-.504c.199.156.447.283.748.383.299.098.611.148.936.148.432 0 .752-.068.959-.203s.311-.326.311-.572c0-.174-.058-.311-.172-.408-.113-.1-.258-.174-.432-.227-.174-.051-.405-.1-.693-.148-.384-.07-.693-.145-.927-.219-.233-.076-.434-.203-.599-.383s-.248-.43-.248-.748c0-.396.166-.719.496-.971s.789-.379 1.377-.379c.306 0 .611.041.918.121.306.082.558.188.756.32l-.279.512c-.391-.27-.855-.404-1.395-.404-.408 0-.716.072-.923.217-.207.143-.311.332-.311.566 0 .18.059.324.176.432.116.107.263.188.437.238s.414.104.72.158c.378.072.681.145.909.217.229.07.423.193.585.367.162.176.243.414.243.721 0 .414-.173.742-.518.986-.346.242-.824.363-1.436.363-.384.001-.751-.054-1.102-.165z" fill="#0c4686"/><path d="m144.306 143.072v8.4h-.864v-7.631h-1.979v-.77h2.843z" fill="#0c4686"/><path d="m152.339 147.861c.285.352.427.775.427 1.271 0 .488-.132.914-.396 1.279-.265.363-.643.643-1.135.84-.492.195-1.07.293-1.734.293-1.008 0-1.799-.215-2.375-.648-.576-.432-.864-1.02-.864-1.764 0-.504.138-.93.414-1.277s.678-.609 1.206-.787c-.432-.168-.76-.408-.984-.725s-.336-.691-.336-1.123c0-.68.266-1.219.798-1.619s1.246-.6 2.142-.6c.592 0 1.11.09 1.555.27.443.18.79.438 1.038.773.247.336.372.729.372 1.176 0 .432-.116.807-.348 1.123s-.564.557-.996.725c.526.178.933.441 1.216.793zm-1.092 2.496c.42-.305.631-.717.631-1.236s-.211-.93-.631-1.23c-.42-.299-1.002-.449-1.746-.449-.735 0-1.313.15-1.733.449-.42.301-.63.711-.63 1.23 0 .527.208.941.624 1.242.415.301.995.449 1.739.449s1.326-.15 1.746-.455zm-3.269-4.008c.367.271.876.408 1.523.408.648 0 1.158-.137 1.531-.408.371-.271.557-.637.557-1.092 0-.473-.189-.844-.569-1.117-.38-.271-.886-.408-1.519-.408-.64 0-1.146.137-1.518.408-.372.273-.558.641-.558 1.105.001.463.184.833.553 1.104z" fill="#0c4686"/><path d="m158.915 146.757c.428.207.762.502 1.002.881.24.381.36.822.36 1.326 0 .512-.124.965-.372 1.355-.248.393-.59.695-1.025.906-.437.213-.927.318-1.471.318-1.111 0-1.964-.365-2.556-1.098-.593-.732-.888-1.766-.888-3.102 0-.938.16-1.729.479-2.377s.769-1.137 1.345-1.469c.575-.332 1.247-.498 2.016-.498.832 0 1.496.15 1.992.455l-.349.695c-.399-.264-.944-.395-1.632-.395-.928 0-1.656.293-2.184.881s-.793 1.443-.793 2.562c0 .199.013.428.037.684.207-.455.539-.811.996-1.062.455-.252.979-.377 1.571-.377.554.003 1.044.106 1.472.315zm-.06 3.557c.38-.332.569-.773.569-1.326 0-.551-.189-.99-.569-1.318s-.894-.492-1.542-.492c-.424 0-.799.08-1.122.24-.324.16-.578.379-.763.658-.184.281-.275.594-.275.938 0 .32.086.615.258.887.172.273.426.492.762.66s.736.252 1.201.252c.607-.001 1.102-.167 1.481-.499z" fill="#0c4686"/><path d="m162.497 150.412c.12.123.18.277.18.461 0 .096-.014.199-.041.312-.028.111-.07.24-.127.383l-.504 1.656h-.576l.408-1.74c-.127-.039-.232-.113-.312-.221-.08-.109-.12-.238-.12-.391 0-.184.061-.338.18-.461.121-.125.272-.188.457-.188.184.001.336.064.455.189z" fill="#0c4686"/><path d="m168.792 147.171c.555.436.834 1.045.834 1.83 0 .486-.115.924-.343 1.307-.228.385-.569.688-1.026.906-.455.221-1.016.33-1.68.33-.6 0-1.17-.098-1.71-.293-.54-.197-.974-.459-1.302-.787l.42-.684c.279.287.648.521 1.104.701.457.182.948.271 1.477.271.695 0 1.234-.156 1.613-.469.381-.312.57-.729.57-1.248 0-.576-.214-1.012-.642-1.309-.429-.295-1.15-.443-2.166-.443h-1.788l.432-4.213h4.596v.77h-3.84l-.287 2.676h1.08c1.215.001 2.101.218 2.658.655z" fill="#0c4686"/><path d="m176.405 150.705v.768h-5.893v-.611l3.492-3.42c.439-.432.738-.807.895-1.123.155-.314.233-.633.233-.953 0-.496-.17-.883-.51-1.158-.341-.275-.826-.414-1.458-.414-.984 0-1.748.312-2.292.936l-.612-.527c.328-.385.746-.68 1.254-.889.508-.207 1.082-.311 1.723-.311.855 0 1.533.201 2.033.605s.75.957.75 1.662c0 .432-.096.848-.287 1.248-.192.4-.557.859-1.092 1.379l-2.856 2.809h4.62z" fill="#0c4686"/><path d="m182.657 144.099c.592.732.888 1.766.888 3.102 0 .936-.16 1.729-.479 2.375-.32.648-.769 1.139-1.345 1.471-.575.332-1.248.498-2.016.498-.833 0-1.496-.152-1.992-.455l.349-.697c.399.264.943.396 1.631.396.928 0 1.656-.293 2.185-.883.528-.588.792-1.441.792-2.561 0-.209-.012-.436-.036-.684-.208.455-.54.809-.996 1.061s-.979.379-1.571.379c-.553 0-1.043-.104-1.471-.312-.428-.207-.762-.502-1.002-.883-.24-.379-.359-.82-.359-1.324 0-.514.123-.965.371-1.357.248-.391.59-.693 1.026-.906.437-.211.926-.316 1.47-.316 1.111-.002 1.963.364 2.555 1.096zm-1.338 3.029c.324-.16.577-.379.762-.66.184-.279.275-.592.275-.936 0-.32-.086-.615-.258-.889-.172-.271-.426-.492-.762-.66s-.736-.252-1.2-.252c-.608 0-1.103.166-1.481.498-.381.332-.57.775-.57 1.326 0 .553.189.992.57 1.32.379.328.894.492 1.541.492.424.002.799-.078 1.123-.239z" fill="#0c4686"/><path d="m146.682 175.472-1.44-2.025c-.162.018-.33.027-.504.027h-1.691v1.998h-.666v-6.301h2.357c.805 0 1.434.193 1.891.576.455.385.684.912.684 1.584 0 .492-.125.908-.373 1.246-.25.34-.605.584-1.066.734l1.539 2.16h-.731zm-.532-2.978c.33-.277.495-.664.495-1.162 0-.51-.165-.9-.495-1.174s-.808-.41-1.431-.41h-1.674v3.158h1.674c.624 0 1.101-.137 1.431-.412z" fill="#0c4686"/><path d="m152.874 173.302h-3.961c.036.492.225.891.567 1.193.342.303.774.453 1.296.453.294 0 .564-.051.811-.156s.459-.26.639-.463l.359.414c-.209.252-.473.443-.787.574-.314.133-.662.199-1.039.199-.486 0-.917-.104-1.292-.311s-.667-.494-.878-.859c-.209-.367-.314-.781-.314-1.242 0-.463.101-.877.301-1.242.201-.365.478-.65.828-.855.352-.203.746-.305 1.184-.305s.832.102 1.18.305c.348.205.621.488.818.852.198.363.297.777.297 1.246zm-3.434-1.615c-.31.291-.485.67-.527 1.139h3.357c-.042-.469-.218-.848-.527-1.139s-.693-.436-1.156-.436c-.455 0-.838.145-1.147.436z" fill="#0c4686"/><path d="m154.894 175.21c-.369-.203-.658-.49-.868-.859s-.315-.785-.315-1.246c0-.463.105-.877.315-1.242s.499-.65.868-.855c.369-.203.787-.305 1.256-.305.408 0 .772.078 1.094.238.32.158.574.391.76.697l-.477.324c-.156-.234-.354-.41-.594-.527s-.502-.176-.783-.176c-.342 0-.649.076-.922.23-.273.152-.486.369-.64.652-.153.281-.229.604-.229.963 0 .365.076.688.229.967s.366.496.64.648c.272.152.58.229.922.229.281 0 .543-.057.783-.17s.438-.289.594-.521l.477.324c-.186.305-.44.537-.765.697-.323.158-.687.238-1.089.238-.469.001-.887-.1-1.256-.306z" fill="#0c4686"/><path d="m163.304 173.302h-3.959c.035.492.225.891.566 1.193s.773.453 1.296.453c.294 0 .563-.051.81-.156s.459-.26.64-.463l.36.414c-.211.252-.473.443-.788.574-.315.133-.661.199-1.04.199-.485 0-.916-.104-1.291-.311s-.668-.494-.877-.859c-.211-.367-.315-.781-.315-1.242 0-.463.101-.877.302-1.242s.477-.65.828-.855c.351-.203.745-.305 1.184-.305.438 0 .83.102 1.178.305.349.205.621.488.82.852.197.363.297.777.297 1.246zm-3.434-1.615c-.309.291-.484.67-.525 1.139h3.356c-.042-.469-.218-.848-.526-1.139-.31-.291-.695-.436-1.156-.436-.457 0-.839.145-1.149.436z" fill="#0c4686"/><path d="m168.263 171.003c.36.201.643.484.846.85.205.367.307.783.307 1.252 0 .475-.102.895-.307 1.26-.203.365-.484.65-.841.85-.356.201-.761.303-1.21.303-.385 0-.73-.08-1.04-.238-.31-.16-.562-.393-.761-.697v2.637h-.639v-6.48h.611v.936c.192-.312.446-.551.762-.719.314-.168.67-.252 1.066-.252.444-.002.846.097 1.206.298zm-.351 3.717c.271-.152.481-.371.634-.652.154-.281.23-.604.23-.963s-.076-.68-.23-.959c-.152-.279-.363-.496-.634-.652s-.57-.234-.899-.234c-.337 0-.639.078-.905.234s-.478.373-.63.652-.229.6-.229.959.077.682.229.963.363.5.63.652.568.229.905.229c.329 0 .629-.076.899-.229z" fill="#0c4686"/><path d="m173.213 175.183c-.12.109-.269.191-.445.248s-.361.086-.554.086c-.443 0-.785-.121-1.025-.361-.24-.238-.36-.578-.36-1.016v-2.863h-.847v-.539h.847v-1.035h.64v1.035h1.439v.539h-1.439v2.826c0 .283.07.498.211.645s.344.221.607.221c.132 0 .26-.021.383-.064.123-.041.229-.102.319-.18z" fill="#0c4686"/><path d="m174.364 169.568c-.09-.09-.135-.197-.135-.324 0-.119.045-.225.135-.314.091-.09.201-.135.334-.135.131 0 .242.043.332.129.091.088.136.191.136.311 0 .133-.045.244-.136.334-.09.09-.201.135-.332.135-.133-.001-.243-.046-.334-.136zm.01 1.17h.639v4.734h-.639z" fill="#0c4686"/><path d="m177.497 175.207c-.366-.207-.654-.494-.864-.859-.21-.367-.315-.781-.315-1.242 0-.463.105-.877.315-1.242s.498-.65.864-.855c.365-.203.777-.305 1.232-.305.456 0 .867.102 1.233.305.366.205.652.49.859.855s.311.779.311 1.242c0 .461-.104.875-.311 1.242-.207.365-.493.652-.859.859s-.777.311-1.233.311c-.455-.001-.867-.104-1.232-.311zm2.137-.487c.268-.152.477-.371.626-.652s.226-.604.226-.963-.076-.682-.226-.963c-.149-.283-.358-.5-.626-.652-.267-.154-.568-.23-.904-.23s-.637.076-.904.23c-.268.152-.477.369-.63.652-.153.281-.229.604-.229.963s.076.682.229.963.362.5.63.652.568.229.904.229.637-.076.904-.229z" fill="#0c4686"/><path d="m186.268 171.218c.351.346.526.848.526 1.508v2.746h-.639v-2.682c0-.492-.123-.867-.369-1.125s-.598-.389-1.053-.389c-.511 0-.914.152-1.211.455s-.445.723-.445 1.256v2.484h-.639v-4.734h.611v.873c.174-.289.416-.512.725-.67.309-.16.668-.238 1.076-.238.594.001 1.067.173 1.418.516z" fill="#0c4686"/><path d="m188.521 169.568c-.09-.09-.135-.197-.135-.324 0-.119.045-.225.135-.314.091-.09.201-.135.333-.135s.243.043.333.129c.091.088.136.191.136.311 0 .133-.045.244-.136.334-.09.09-.201.135-.333.135s-.242-.046-.333-.136zm.009 1.17h.639v4.734h-.639z" fill="#0c4686"/><path d="m191.118 175.351c-.351-.111-.625-.252-.823-.42l.288-.504c.198.156.447.283.747.383s.612.148.937.148c.432 0 .751-.066.958-.203.207-.135.311-.324.311-.57 0-.174-.058-.311-.171-.41-.114-.1-.258-.174-.432-.225-.175-.051-.406-.1-.693-.148-.385-.072-.693-.146-.928-.221-.233-.074-.434-.203-.598-.383-.166-.18-.248-.428-.248-.746 0-.396.165-.721.495-.973s.789-.377 1.377-.377c.306 0 .612.039.918.121.306.08.558.188.757.318l-.279.514c-.391-.27-.855-.404-1.396-.404-.407 0-.716.07-.923.215s-.311.334-.311.566c0 .182.059.324.176.434.117.107.263.188.437.238.175.051.414.104.72.156.379.072.682.145.91.217s.422.195.584.369.243.414.243.721c0 .414-.173.742-.517.984-.346.244-.824.365-1.436.365-.384.001-.751-.056-1.103-.165z" fill="#0c4686"/><path d="m197.846 175.183c-.12.109-.269.191-.445.248s-.361.086-.554.086c-.443 0-.785-.121-1.025-.361-.24-.238-.36-.578-.36-1.016v-2.863h-.847v-.539h.847v-1.035h.64v1.035h1.439v.539h-1.439v2.826c0 .283.07.498.211.645s.344.221.607.221c.132 0 .26-.021.383-.064.123-.041.229-.102.319-.18z" fill="#0c4686"/><path d="m199.173 175.351c-.351-.111-.625-.252-.823-.42l.288-.504c.198.156.447.283.747.383s.612.148.937.148c.432 0 .751-.066.958-.203.207-.135.311-.324.311-.57 0-.174-.058-.311-.171-.41-.114-.1-.258-.174-.432-.225-.175-.051-.406-.1-.693-.148-.385-.072-.693-.146-.928-.221-.233-.074-.434-.203-.598-.383-.166-.18-.248-.428-.248-.746 0-.396.165-.721.495-.973s.789-.377 1.377-.377c.306 0 .612.039.918.121.306.08.558.188.757.318l-.279.514c-.391-.27-.855-.404-1.396-.404-.407 0-.716.07-.923.215s-.311.334-.311.566c0 .182.059.324.176.434.117.107.263.188.437.238.175.051.414.104.72.156.379.072.682.145.91.217s.422.195.584.369.243.414.243.721c0 .414-.173.742-.517.984-.346.244-.824.365-1.436.365-.384.001-.752-.056-1.103-.165z" fill="#0c4686"/><path d="m144.306 183.072v8.4h-.864v-7.633h-1.979v-.768h2.843z" fill="#0c4686"/><path d="m153.45 189.263h-1.681v2.209h-.864v-2.209h-4.74v-.623l4.453-5.568h.959l-4.295 5.424h3.647v-1.943h.84v1.943h1.681z" fill="#0c4686"/><path d="m159.191 186.755c.428.209.762.502 1.002.883.239.379.36.822.36 1.326 0 .512-.125.963-.373 1.355s-.59.693-1.025.906c-.436.211-.926.318-1.471.318-1.111 0-1.963-.367-2.555-1.1-.593-.73-.889-1.766-.889-3.102 0-.936.16-1.729.48-2.375.319-.648.768-1.139 1.344-1.471s1.248-.498 2.016-.498c.832 0 1.496.152 1.992.457l-.348.695c-.4-.264-.944-.396-1.633-.396-.928 0-1.656.295-2.184.883s-.792 1.441-.792 2.561c0 .201.013.43.036.686.208-.457.54-.811.996-1.062.455-.252.979-.379 1.572-.379.553.001 1.044.106 1.472.313zm-.059 3.559c.379-.332.569-.773.569-1.326s-.19-.992-.569-1.32c-.381-.328-.895-.492-1.543-.492-.424 0-.798.08-1.121.24-.324.16-.578.381-.763.66s-.276.592-.276.936c0 .32.086.617.258.889s.427.492.763.66.735.252 1.2.252c.607-.001 1.101-.167 1.482-.499z" fill="#0c4686"/><path d="m162.773 190.41c.12.125.18.277.18.463 0 .096-.015.199-.042.311-.027.113-.07.24-.126.385l-.504 1.656h-.576l.408-1.74c-.128-.041-.232-.113-.312-.223-.08-.107-.121-.238-.121-.389 0-.186.061-.338.181-.463.12-.123.272-.186.456-.186s.336.063.456.186z" fill="#0c4686"/><path d="m169.031 186.755c.428.209.762.502 1.002.883.239.379.36.822.36 1.326 0 .512-.125.963-.373 1.355s-.59.693-1.025.906c-.436.211-.926.318-1.471.318-1.111 0-1.963-.367-2.555-1.1-.593-.73-.889-1.766-.889-3.102 0-.936.16-1.729.48-2.375.319-.648.768-1.139 1.344-1.471s1.248-.498 2.016-.498c.832 0 1.496.152 1.992.457l-.348.695c-.4-.264-.944-.396-1.633-.396-.928 0-1.656.295-2.184.883s-.792 1.441-.792 2.561c0 .201.013.43.036.686.208-.457.54-.811.996-1.062.455-.252.979-.379 1.572-.379.553.001 1.044.106 1.472.313zm-.059 3.559c.379-.332.569-.773.569-1.326s-.19-.992-.569-1.32c-.381-.328-.895-.492-1.543-.492-.424 0-.798.08-1.121.24-.324.16-.578.381-.763.66s-.276.592-.276.936c0 .32.086.617.258.889s.427.492.763.66.735.252 1.2.252c.607-.001 1.101-.167 1.482-.499z" fill="#0c4686"/><path d="m176.562 184.097c.592.732.888 1.766.888 3.102 0 .938-.16 1.729-.479 2.377-.32.648-.769 1.139-1.345 1.471-.575.332-1.248.498-2.016.498-.833 0-1.496-.152-1.992-.457l.349-.695c.399.264.943.396 1.631.396.928 0 1.656-.295 2.185-.883s.792-1.441.792-2.562c0-.207-.012-.436-.036-.684-.208.455-.54.811-.996 1.062s-.979.377-1.571.377c-.553 0-1.043-.104-1.471-.311-.428-.209-.762-.502-1.002-.883s-.359-.822-.359-1.326c0-.512.123-.963.371-1.355s.59-.695 1.026-.906c.437-.213.926-.318 1.47-.318 1.11 0 1.963.365 2.555 1.097zm-1.338 3.031c.324-.16.577-.381.762-.66.184-.281.275-.592.275-.938 0-.318-.086-.615-.258-.887s-.426-.492-.762-.66-.736-.252-1.2-.252c-.608 0-1.103.166-1.481.498-.381.332-.57.773-.57 1.326 0 .551.189.992.57 1.32.379.328.894.492 1.541.492.423.002.798-.078 1.123-.239z" fill="#0c4686"/><path d="m184.728 187.859c.283.354.426.777.426 1.273 0 .488-.132.914-.396 1.277s-.642.645-1.134.84c-.491.197-1.069.295-1.733.295-1.008 0-1.801-.217-2.377-.648s-.863-1.02-.863-1.764c0-.504.138-.93.414-1.279.275-.348.678-.609 1.205-.785-.432-.168-.76-.41-.983-.727s-.336-.689-.336-1.121c0-.68.267-1.221.798-1.621.532-.398 1.246-.6 2.143-.6.592 0 1.109.09 1.554.27s.79.439 1.038.775.371.727.371 1.176c0 .432-.115.805-.348 1.121s-.563.559-.996.727c.526.176.932.439 1.217.791zm-1.092 2.496c.42-.303.629-.715.629-1.234 0-.521-.209-.932-.629-1.23-.42-.301-1.002-.451-1.746-.451-.736 0-1.314.15-1.734.451-.42.299-.63.709-.63 1.23 0 .527.208.941.624 1.24.416.301.996.451 1.74.451s1.326-.152 1.746-.457zm-3.271-4.008c.368.273.876.408 1.524.408.647 0 1.158-.135 1.529-.408.372-.271.559-.635.559-1.092 0-.471-.19-.844-.57-1.115s-.887-.408-1.518-.408c-.641 0-1.146.137-1.519.408s-.558.641-.558 1.104c.001.464.185.832.553 1.103z" fill="#0c4686"/><path clip-path="url(#a)" d="m124.251 181.533c4.697 0 8.504-3.809 8.504-8.506 0-4.695-3.807-8.504-8.504-8.504-4.696 0-8.504 3.809-8.504 8.504 0 4.697 3.808 8.506 8.504 8.506" fill="#4c79ab"/><path d="m127.546 175.019h-1.68v2.209h-.864v-2.209h-4.74v-.623l4.452-5.568h.96l-4.296 5.424h3.648v-1.943h.84v1.943h1.68z" fill="#fff"/><path clip-path="url(#b)" d="m124.251 141.328c4.697 0 8.504-3.1 8.504-7.795 0-4.697-3.807-9.213-8.504-9.213-4.696 0-8.504 3.807-8.504 8.504s3.808 8.504 8.504 8.504" fill="#4c79ab"/><path d="m125.854 132.937c.459.428.689.986.689 1.674 0 .48-.116.906-.348 1.279-.232.371-.576.666-1.033.881-.455.217-1.012.324-1.668.324-.607 0-1.182-.098-1.721-.293-.541-.197-.975-.459-1.303-.787l.42-.684c.28.287.652.521 1.116.701.464.182.96.271 1.487.271.688 0 1.221-.15 1.597-.451.376-.299.563-.713.563-1.242 0-.52-.188-.928-.563-1.223-.376-.297-.944-.445-1.704-.445h-.6v-.635l2.328-2.916h-4.297v-.77h5.4v.613l-2.376 2.988c.883.049 1.553.287 2.013.715z" fill="#fff"/><path clip-path="url(#c)" d="m124.251 101.122c4.697 0 8.504-3.807 8.504-8.504 0-4.695-3.807-8.504-8.504-8.504-4.696 0-8.504 3.809-8.504 8.504 0 4.697 3.808 8.504 8.504 8.504" fill="#4c79ab"/><path d="m126.699 96.051v.768h-5.892v-.612l3.492-3.42c.439-.432.738-.806.894-1.122.155-.315.233-.634.233-.954 0-.495-.17-.882-.51-1.157-.34-.276-.826-.414-1.457-.414-.984 0-1.748.312-2.293.936l-.611-.528c.328-.384.746-.68 1.254-.888s1.082-.312 1.722-.312c.856 0 1.534.202 2.034.605.5.404.75.958.75 1.662 0 .432-.096.849-.288 1.248-.192.4-.556.86-1.092 1.38l-2.856 2.809h4.62z" fill="#fff"/><path clip-path="url(#d)" d="m124.251 54.54c4.697 0 8.504-3.808 8.504-8.505 0-4.695-3.807-8.504-8.504-8.504-4.696 0-8.504 3.809-8.504 8.504 0 4.697 3.808 8.505 8.504 8.505" fill="#4c79ab"/><path d="m124.534 41.835v8.4h-.865v-7.632h-1.979v-.769h2.844z" fill="#fff"/></svg>