<?xml version="1.0" encoding="utf-8"?>
<!-- Generator: Adobe Illustrator 16.0.0, SVG Export Plug-In . SVG Version: 6.00 Build 0)  -->
<!DOCTYPE svg PUBLIC "-//W3C//DTD SVG 1.1//EN" "http://www.w3.org/Graphics/SVG/1.1/DTD/svg11.dtd">
<svg version="1.1" id="Layer_1" xmlns="http://www.w3.org/2000/svg" xmlns:xlink="http://www.w3.org/1999/xlink" x="0px" y="0px"
	 width="542.446px" height="469.784px" viewBox="0 0 542.446 469.784" enable-background="new 0 0 542.446 469.784"
	 xml:space="preserve">
<g>
	<defs>
		<rect id="SVGID_1_" x="-16.101" y="28.574" width="658" height="419"/>
	</defs>
	<clipPath id="SVGID_2_">
		<use xlink:href="#SVGID_1_"  overflow="visible"/>
	</clipPath>
	<path clip-path="url(#SVGID_2_)" fill-rule="evenodd" clip-rule="evenodd" fill="#3C659D" d="M312.899,41.574
		c108.524,0,196.5,87.976,196.5,196.5c0,49.979-19.045,98.081-53.258,134.514L312.899,238.074V41.574z"/>
	<path clip-path="url(#SVGID_2_)" fill="none" stroke="#FFFFFF" stroke-linejoin="round" stroke-miterlimit="10" d="M312.899,41.574
		c108.523,0,196.5,87.977,196.5,196.5c0,49.979-19.045,98.081-53.258,134.514L312.899,238.074V41.574z"/>
</g>
<g>
	<defs>
		<rect id="SVGID_3_" x="-16.101" y="28.574" width="658" height="419"/>
	</defs>
	<clipPath id="SVGID_4_">
		<use xlink:href="#SVGID_3_"  overflow="visible"/>
	</clipPath>
	<path clip-path="url(#SVGID_4_)" fill-rule="evenodd" clip-rule="evenodd" fill="#4673B1" d="M456.142,372.588
		c-67.771,72.168-178.648,82.648-258.742,24.457l115.5-158.971L456.142,372.588z"/>
	<path clip-path="url(#SVGID_4_)" fill="none" stroke="#FFFFFF" stroke-linejoin="round" stroke-miterlimit="10" d="
		M456.142,372.588c-67.771,72.168-178.648,82.65-258.742,24.457l115.5-158.971L456.142,372.588z"/>
</g>
<g>
	<defs>
		<rect id="SVGID_5_" x="-16.101" y="28.574" width="658" height="419"/>
	</defs>
	<clipPath id="SVGID_6_">
		<use xlink:href="#SVGID_5_"  overflow="visible"/>
	</clipPath>
	<path clip-path="url(#SVGID_6_)" fill-rule="evenodd" clip-rule="evenodd" fill="#4E7DBE" d="M197.399,397.045
		c-40.434-29.377-68.154-73.057-77.52-122.15l193.02-36.821L197.399,397.045z"/>
	<path clip-path="url(#SVGID_6_)" fill="none" stroke="#FFFFFF" stroke-linejoin="round" stroke-miterlimit="10" d="
		M197.399,397.045c-40.434-29.377-68.154-73.057-77.52-122.15l193.02-36.821L197.399,397.045z"/>
</g>
<g>
	<defs>
		<rect id="SVGID_7_" x="-16.101" y="28.574" width="658" height="419"/>
	</defs>
	<clipPath id="SVGID_8_">
		<use xlink:href="#SVGID_7_"  overflow="visible"/>
	</clipPath>
	<path clip-path="url(#SVGID_8_)" fill-rule="evenodd" clip-rule="evenodd" fill="#5685C4" d="M119.88,274.895
		c-8.568-44.917-1.204-91.416,20.825-131.486l172.194,94.665L119.88,274.895z"/>
	<path clip-path="url(#SVGID_8_)" fill="none" stroke="#FFFFFF" stroke-linejoin="round" stroke-miterlimit="10" d="M119.88,274.895
		c-8.568-44.917-1.204-91.416,20.825-131.486l172.194,94.665L119.88,274.895z"/>
</g>
<g>
	<defs>
		<rect id="SVGID_9_" x="-16.101" y="28.574" width="658" height="419"/>
	</defs>
	<clipPath id="SVGID_10_">
		<use xlink:href="#SVGID_9_"  overflow="visible"/>
	</clipPath>
	<path clip-path="url(#SVGID_10_)" fill-rule="evenodd" clip-rule="evenodd" fill="#92A8D7" d="M140.705,143.409
		c15.945-29.004,38.958-53.511,66.904-71.245l105.29,165.91L140.705,143.409z"/>
	<path clip-path="url(#SVGID_10_)" fill="none" stroke="#FFFFFF" stroke-linejoin="round" stroke-miterlimit="10" d="
		M140.705,143.41c15.945-29.005,38.958-53.512,66.904-71.246l105.29,165.91L140.705,143.41z"/>
</g>
<g>
	<defs>
		<rect id="SVGID_11_" x="-16.101" y="28.574" width="658" height="419"/>
	</defs>
	<clipPath id="SVGID_12_">
		<use xlink:href="#SVGID_11_"  overflow="visible"/>
	</clipPath>
	<path clip-path="url(#SVGID_12_)" fill-rule="evenodd" clip-rule="evenodd" fill="#B5C2E2" d="M207.609,72.164
		c17.41-11.049,36.45-19.288,56.422-24.416l48.868,190.326L207.609,72.164z"/>
	<path clip-path="url(#SVGID_12_)" fill="none" stroke="#FFFFFF" stroke-linejoin="round" stroke-miterlimit="10" d="
		M207.609,72.164c17.41-11.049,36.45-19.288,56.422-24.416l48.868,190.326L207.609,72.164z"/>
</g>
<g>
	<defs>
		<rect id="SVGID_13_" x="-16.101" y="28.574" width="658" height="419"/>
	</defs>
	<clipPath id="SVGID_14_">
		<use xlink:href="#SVGID_13_"  overflow="visible"/>
	</clipPath>
	<path clip-path="url(#SVGID_14_)" fill-rule="evenodd" clip-rule="evenodd" fill="#CDD5E9" d="M264.032,47.748
		c15.966-4.1,32.384-6.174,48.868-6.174v196.5L264.032,47.748z"/>
	<path clip-path="url(#SVGID_14_)" fill="none" stroke="#FFFFFF" stroke-linejoin="round" stroke-miterlimit="10" d="
		M264.032,47.748c15.966-4.1,32.384-6.174,48.868-6.174v196.5L264.032,47.748z"/>
</g>
<g>
	<rect x="441.079" y="70.943" fill="none" width="125.899" height="27.777"/>
	<path fill="#1D1D1B" d="M442.005,79.535v-8.59h3.24c0.57,0,1.006,0.027,1.307,0.082c0.422,0.07,0.775,0.204,1.061,0.401
		s0.515,0.474,0.688,0.829s0.261,0.746,0.261,1.172c0,0.73-0.232,1.349-0.697,1.854s-1.305,0.759-2.52,0.759h-2.203v3.492H442.005z
		 M443.142,75.029h2.221c0.734,0,1.256-0.137,1.564-0.41s0.463-0.658,0.463-1.154c0-0.359-0.091-0.667-0.272-0.923
		s-0.421-0.425-0.718-0.507c-0.191-0.051-0.545-0.076-1.061-0.076h-2.197V75.029z"/>
	<path fill="#1D1D1B" d="M449.862,79.535v-6.223h0.949v0.943c0.242-0.441,0.466-0.732,0.671-0.873s0.431-0.211,0.677-0.211
		c0.355,0,0.717,0.113,1.084,0.34l-0.363,0.979c-0.258-0.152-0.516-0.229-0.773-0.229c-0.23,0-0.438,0.069-0.621,0.208
		s-0.314,0.331-0.393,0.577c-0.117,0.375-0.176,0.785-0.176,1.23v3.258H449.862z"/>
	<path fill="#1D1D1B" d="M453.478,76.423c0-1.152,0.32-2.006,0.961-2.561c0.535-0.461,1.188-0.691,1.957-0.691
		c0.855,0,1.555,0.28,2.098,0.841s0.814,1.335,0.814,2.323c0,0.801-0.12,1.431-0.36,1.89s-0.59,0.815-1.049,1.069
		s-0.96,0.381-1.503,0.381c-0.871,0-1.575-0.279-2.112-0.838S453.478,77.474,453.478,76.423z M454.562,76.423
		c0,0.797,0.174,1.394,0.521,1.79s0.785,0.595,1.312,0.595c0.523,0,0.959-0.199,1.307-0.598s0.521-1.006,0.521-1.822
		c0-0.77-0.175-1.353-0.524-1.749s-0.784-0.595-1.304-0.595c-0.527,0-0.965,0.197-1.312,0.592S454.562,75.626,454.562,76.423z"/>
	<path fill="#1D1D1B" d="M460.796,79.535v-5.402h-0.932v-0.82h0.932V72.65c0-0.418,0.037-0.729,0.111-0.932
		c0.102-0.273,0.28-0.495,0.536-0.665s0.614-0.255,1.075-0.255c0.297,0,0.625,0.035,0.984,0.105l-0.158,0.92
		c-0.219-0.039-0.426-0.059-0.621-0.059c-0.32,0-0.547,0.068-0.68,0.205s-0.199,0.393-0.199,0.768v0.574h1.213v0.82h-1.213v5.402
		H460.796z"/>
	<path fill="#1D1D1B" d="M468.138,77.531l1.09,0.135c-0.172,0.637-0.49,1.131-0.955,1.482s-1.059,0.527-1.781,0.527
		c-0.91,0-1.632-0.28-2.165-0.841s-0.8-1.347-0.8-2.358c0-1.047,0.27-1.859,0.809-2.438s1.238-0.867,2.098-0.867
		c0.832,0,1.512,0.283,2.039,0.85s0.791,1.363,0.791,2.391c0,0.062-0.002,0.156-0.006,0.281h-4.641
		c0.039,0.684,0.232,1.207,0.58,1.57s0.781,0.545,1.301,0.545c0.387,0,0.717-0.102,0.99-0.305S467.978,77.976,468.138,77.531z
		 M464.675,75.826h3.475c-0.047-0.523-0.18-0.916-0.398-1.178c-0.336-0.406-0.771-0.609-1.307-0.609
		c-0.484,0-0.892,0.162-1.222,0.486S464.71,75.283,464.675,75.826z"/>
	<path fill="#1D1D1B" d="M470.13,77.677l1.043-0.164c0.059,0.418,0.222,0.738,0.489,0.961s0.642,0.334,1.122,0.334
		c0.484,0,0.844-0.099,1.078-0.296s0.352-0.429,0.352-0.694c0-0.238-0.104-0.426-0.311-0.562c-0.145-0.094-0.504-0.213-1.078-0.357
		c-0.773-0.195-1.31-0.364-1.608-0.507s-0.525-0.34-0.68-0.592s-0.231-0.53-0.231-0.835c0-0.277,0.063-0.534,0.19-0.771
		s0.3-0.433,0.519-0.589c0.164-0.121,0.388-0.224,0.671-0.308s0.587-0.126,0.911-0.126c0.488,0,0.917,0.07,1.286,0.211
		s0.642,0.331,0.817,0.571s0.297,0.562,0.363,0.964l-1.031,0.141c-0.047-0.32-0.183-0.57-0.407-0.75s-0.542-0.27-0.952-0.27
		c-0.484,0-0.83,0.08-1.037,0.24s-0.311,0.348-0.311,0.562c0,0.137,0.043,0.26,0.129,0.369c0.086,0.113,0.221,0.207,0.404,0.281
		c0.105,0.039,0.416,0.129,0.932,0.27c0.746,0.199,1.267,0.362,1.562,0.489s0.526,0.312,0.694,0.554s0.252,0.543,0.252,0.902
		c0,0.352-0.103,0.683-0.308,0.993s-0.501,0.551-0.888,0.721s-0.824,0.255-1.312,0.255c-0.809,0-1.425-0.168-1.849-0.504
		S470.247,78.337,470.13,77.677z"/>
	<path fill="#1D1D1B" d="M476.13,77.677l1.043-0.164c0.059,0.418,0.222,0.738,0.489,0.961s0.642,0.334,1.122,0.334
		c0.484,0,0.844-0.099,1.078-0.296s0.352-0.429,0.352-0.694c0-0.238-0.104-0.426-0.311-0.562c-0.145-0.094-0.504-0.213-1.078-0.357
		c-0.773-0.195-1.31-0.364-1.608-0.507s-0.525-0.34-0.68-0.592s-0.231-0.53-0.231-0.835c0-0.277,0.063-0.534,0.19-0.771
		s0.3-0.433,0.519-0.589c0.164-0.121,0.388-0.224,0.671-0.308s0.587-0.126,0.911-0.126c0.488,0,0.917,0.07,1.286,0.211
		s0.642,0.331,0.817,0.571s0.297,0.562,0.363,0.964l-1.031,0.141c-0.047-0.32-0.183-0.57-0.407-0.75s-0.542-0.27-0.952-0.27
		c-0.484,0-0.83,0.08-1.037,0.24s-0.311,0.348-0.311,0.562c0,0.137,0.043,0.26,0.129,0.369c0.086,0.113,0.221,0.207,0.404,0.281
		c0.105,0.039,0.416,0.129,0.932,0.27c0.746,0.199,1.267,0.362,1.562,0.489s0.526,0.312,0.694,0.554s0.252,0.543,0.252,0.902
		c0,0.352-0.103,0.683-0.308,0.993s-0.501,0.551-0.888,0.721s-0.824,0.255-1.312,0.255c-0.809,0-1.425-0.168-1.849-0.504
		S476.247,78.337,476.13,77.677z"/>
	<path fill="#1D1D1B" d="M482.558,72.158v-1.213h1.055v1.213H482.558z M482.558,79.535v-6.223h1.055v6.223H482.558z"/>
	<path fill="#1D1D1B" d="M484.825,76.423c0-1.152,0.32-2.006,0.961-2.561c0.535-0.461,1.188-0.691,1.957-0.691
		c0.855,0,1.555,0.28,2.098,0.841s0.814,1.335,0.814,2.323c0,0.801-0.12,1.431-0.36,1.89s-0.59,0.815-1.049,1.069
		s-0.96,0.381-1.503,0.381c-0.871,0-1.575-0.279-2.112-0.838S484.825,77.474,484.825,76.423z M485.909,76.423
		c0,0.797,0.174,1.394,0.521,1.79s0.785,0.595,1.312,0.595c0.523,0,0.959-0.199,1.307-0.598s0.521-1.006,0.521-1.822
		c0-0.77-0.175-1.353-0.524-1.749s-0.784-0.595-1.304-0.595c-0.527,0-0.965,0.197-1.312,0.592S485.909,75.626,485.909,76.423z"/>
	<path fill="#1D1D1B" d="M491.892,79.535v-6.223h0.949v0.885c0.457-0.684,1.117-1.025,1.98-1.025c0.375,0,0.72,0.067,1.034,0.202
		s0.55,0.312,0.706,0.53s0.266,0.479,0.328,0.779c0.039,0.195,0.059,0.537,0.059,1.025v3.826h-1.055V75.75
		c0-0.43-0.041-0.751-0.123-0.964s-0.228-0.383-0.437-0.51s-0.454-0.19-0.735-0.19c-0.449,0-0.837,0.143-1.163,0.428
		s-0.489,0.826-0.489,1.623v3.398H491.892z"/>
	<path fill="#1D1D1B" d="M502.626,78.767c-0.391,0.332-0.767,0.566-1.128,0.703s-0.749,0.205-1.163,0.205
		c-0.684,0-1.209-0.167-1.576-0.501s-0.551-0.761-0.551-1.28c0-0.305,0.069-0.583,0.208-0.835s0.32-0.454,0.545-0.606
		s0.478-0.268,0.759-0.346c0.207-0.055,0.52-0.107,0.938-0.158c0.852-0.102,1.479-0.223,1.881-0.363
		c0.004-0.145,0.006-0.236,0.006-0.275c0-0.43-0.1-0.732-0.299-0.908c-0.27-0.238-0.67-0.357-1.201-0.357
		c-0.496,0-0.862,0.087-1.099,0.261s-0.411,0.481-0.524,0.923l-1.031-0.141c0.094-0.441,0.248-0.798,0.463-1.069
		s0.525-0.48,0.932-0.627s0.877-0.22,1.412-0.22c0.531,0,0.963,0.062,1.295,0.188s0.576,0.282,0.732,0.472s0.266,0.429,0.328,0.718
		c0.035,0.18,0.053,0.504,0.053,0.973v1.406c0,0.98,0.022,1.601,0.067,1.86s0.134,0.509,0.267,0.747h-1.102
		C502.728,79.316,502.657,79.06,502.626,78.767z M502.538,76.412c-0.383,0.156-0.957,0.289-1.723,0.398
		c-0.434,0.062-0.74,0.133-0.92,0.211s-0.318,0.192-0.416,0.343s-0.146,0.317-0.146,0.501c0,0.281,0.106,0.516,0.319,0.703
		s0.524,0.281,0.935,0.281c0.406,0,0.768-0.089,1.084-0.267s0.549-0.421,0.697-0.729c0.113-0.238,0.17-0.59,0.17-1.055V76.412z"/>
	<path fill="#1D1D1B" d="M505.216,79.535v-8.59h1.055v8.59H505.216z"/>
	<path fill="#1D1D1B" d="M507.483,77.677l1.043-0.164c0.059,0.418,0.222,0.738,0.489,0.961s0.642,0.334,1.122,0.334
		c0.484,0,0.844-0.099,1.078-0.296s0.352-0.429,0.352-0.694c0-0.238-0.104-0.426-0.311-0.562c-0.145-0.094-0.504-0.213-1.078-0.357
		c-0.773-0.195-1.31-0.364-1.608-0.507s-0.525-0.34-0.68-0.592s-0.231-0.53-0.231-0.835c0-0.277,0.063-0.534,0.19-0.771
		s0.3-0.433,0.519-0.589c0.164-0.121,0.388-0.224,0.671-0.308s0.587-0.126,0.911-0.126c0.488,0,0.917,0.07,1.286,0.211
		s0.642,0.331,0.817,0.571s0.297,0.562,0.363,0.964l-1.031,0.141c-0.047-0.32-0.183-0.57-0.407-0.75s-0.542-0.27-0.952-0.27
		c-0.484,0-0.83,0.08-1.037,0.24s-0.311,0.348-0.311,0.562c0,0.137,0.043,0.26,0.129,0.369c0.086,0.113,0.221,0.207,0.404,0.281
		c0.105,0.039,0.416,0.129,0.932,0.27c0.746,0.199,1.267,0.362,1.562,0.489s0.526,0.312,0.694,0.554s0.252,0.543,0.252,0.902
		c0,0.352-0.103,0.683-0.308,0.993s-0.501,0.551-0.888,0.721s-0.824,0.255-1.312,0.255c-0.809,0-1.425-0.168-1.849-0.504
		S507.601,78.337,507.483,77.677z"/>
	<path fill="#1D1D1B" d="M516.899,77.255l1.594-0.193c0.051,0.406,0.188,0.717,0.41,0.932s0.492,0.322,0.809,0.322
		c0.34,0,0.626-0.129,0.858-0.387s0.349-0.605,0.349-1.043c0-0.414-0.111-0.742-0.334-0.984s-0.494-0.363-0.814-0.363
		c-0.211,0-0.463,0.041-0.756,0.123l0.182-1.342c0.445,0.012,0.785-0.085,1.02-0.29s0.352-0.478,0.352-0.817
		c0-0.289-0.086-0.52-0.258-0.691s-0.4-0.258-0.686-0.258c-0.281,0-0.521,0.098-0.721,0.293s-0.32,0.48-0.363,0.855l-1.518-0.258
		c0.105-0.52,0.265-0.935,0.478-1.245s0.51-0.555,0.891-0.732s0.808-0.267,1.28-0.267c0.809,0,1.457,0.258,1.945,0.773
		c0.402,0.422,0.604,0.898,0.604,1.43c0,0.754-0.412,1.355-1.236,1.805c0.492,0.105,0.886,0.342,1.181,0.709s0.442,0.811,0.442,1.33
		c0,0.754-0.275,1.396-0.826,1.928s-1.236,0.797-2.057,0.797c-0.777,0-1.422-0.224-1.934-0.671S516.981,77.978,516.899,77.255z"/>
	<path fill="#1D1D1B" d="M523.632,72.591v-1.529h5.631v1.195c-0.465,0.457-0.938,1.113-1.418,1.969s-0.847,1.765-1.099,2.728
		s-0.376,1.823-0.372,2.581h-1.588c0.027-1.188,0.272-2.398,0.735-3.633s1.081-2.338,1.854-3.311H523.632z"/>
	<path fill="#1D1D1B" d="M530.317,73.066c0-0.77,0.169-1.34,0.507-1.711s0.796-0.557,1.374-0.557c0.598,0,1.065,0.185,1.403,0.554
		s0.507,0.94,0.507,1.714c0,0.77-0.169,1.34-0.507,1.711s-0.796,0.557-1.374,0.557c-0.598,0-1.065-0.185-1.403-0.554
		S530.317,73.839,530.317,73.066z M531.601,73.054c0,0.559,0.064,0.934,0.193,1.125c0.098,0.141,0.232,0.211,0.404,0.211
		c0.176,0,0.312-0.07,0.41-0.211c0.125-0.191,0.188-0.566,0.188-1.125s-0.062-0.932-0.188-1.119
		c-0.098-0.145-0.234-0.217-0.41-0.217c-0.172,0-0.307,0.07-0.404,0.211C531.665,72.121,531.601,72.496,531.601,73.054z
		 M533.452,79.863h-1.219l4.576-9.064h1.184L533.452,79.863z M536.112,77.607c0-0.77,0.169-1.34,0.507-1.711s0.8-0.557,1.386-0.557
		c0.59,0,1.054,0.186,1.392,0.557s0.507,0.941,0.507,1.711c0,0.773-0.169,1.346-0.507,1.717s-0.796,0.557-1.374,0.557
		c-0.598,0-1.065-0.186-1.403-0.557S536.112,78.38,536.112,77.607z M537.396,77.601c0,0.559,0.064,0.932,0.193,1.119
		c0.098,0.145,0.232,0.217,0.404,0.217c0.176,0,0.311-0.07,0.404-0.211c0.129-0.191,0.193-0.566,0.193-1.125
		s-0.062-0.934-0.188-1.125c-0.098-0.141-0.234-0.211-0.41-0.211s-0.311,0.07-0.404,0.211
		C537.46,76.667,537.396,77.042,537.396,77.601z"/>
</g>
<g>
	<rect x="153.116" y="44.911" fill="none" width="99.281" height="26.48"/>
	<path fill="#1D1D1B" d="M153.995,53.503v-8.59h1.137v7.576h4.23v1.014H153.995z"/>
	<path fill="#1D1D1B" d="M164.641,52.735c-0.391,0.332-0.767,0.566-1.128,0.703s-0.749,0.205-1.163,0.205
		c-0.684,0-1.209-0.167-1.576-0.501s-0.551-0.761-0.551-1.28c0-0.305,0.069-0.583,0.208-0.835s0.32-0.454,0.545-0.606
		s0.478-0.268,0.759-0.346c0.207-0.055,0.52-0.107,0.938-0.158c0.852-0.102,1.479-0.223,1.881-0.363
		c0.004-0.145,0.006-0.236,0.006-0.275c0-0.43-0.1-0.732-0.299-0.908c-0.27-0.238-0.67-0.357-1.201-0.357
		c-0.496,0-0.862,0.087-1.099,0.261s-0.411,0.481-0.524,0.923l-1.031-0.141c0.094-0.441,0.248-0.798,0.463-1.069
		s0.525-0.48,0.932-0.627s0.877-0.22,1.412-0.22c0.531,0,0.963,0.062,1.295,0.188s0.576,0.282,0.732,0.472s0.266,0.429,0.328,0.718
		c0.035,0.18,0.053,0.504,0.053,0.973v1.406c0,0.98,0.022,1.601,0.067,1.86s0.134,0.509,0.267,0.747h-1.102
		C164.743,53.284,164.672,53.028,164.641,52.735z M164.553,50.38c-0.383,0.156-0.957,0.289-1.723,0.398
		c-0.434,0.062-0.74,0.133-0.92,0.211s-0.318,0.192-0.416,0.343s-0.146,0.317-0.146,0.501c0,0.281,0.106,0.516,0.319,0.703
		s0.524,0.281,0.935,0.281c0.406,0,0.768-0.089,1.084-0.267s0.549-0.421,0.697-0.729c0.113-0.238,0.17-0.59,0.17-1.055V50.38z"/>
	<path fill="#1D1D1B" d="M168.227,53.503h-0.979v-8.59h1.055v3.064c0.445-0.559,1.014-0.838,1.705-0.838
		c0.383,0,0.745,0.077,1.087,0.231s0.623,0.371,0.844,0.65s0.394,0.616,0.519,1.011s0.188,0.816,0.188,1.266
		c0,1.066-0.264,1.891-0.791,2.473s-1.16,0.873-1.898,0.873c-0.734,0-1.311-0.307-1.729-0.92V53.503z M168.215,50.345
		c0,0.746,0.102,1.285,0.305,1.617c0.332,0.543,0.781,0.814,1.348,0.814c0.461,0,0.859-0.2,1.195-0.601s0.504-0.997,0.504-1.79
		c0-0.812-0.161-1.412-0.483-1.799s-0.712-0.58-1.169-0.58c-0.461,0-0.859,0.2-1.195,0.601S168.215,49.587,168.215,50.345z"/>
	<path fill="#1D1D1B" d="M173.536,50.392c0-1.152,0.32-2.006,0.961-2.561c0.535-0.461,1.188-0.691,1.957-0.691
		c0.855,0,1.555,0.28,2.098,0.841s0.814,1.335,0.814,2.323c0,0.801-0.12,1.431-0.36,1.89s-0.59,0.815-1.049,1.069
		s-0.96,0.381-1.503,0.381c-0.871,0-1.575-0.279-2.112-0.838S173.536,51.442,173.536,50.392z M174.62,50.392
		c0,0.797,0.174,1.394,0.521,1.79s0.785,0.595,1.312,0.595c0.523,0,0.959-0.199,1.307-0.598s0.521-1.006,0.521-1.822
		c0-0.77-0.175-1.353-0.524-1.749s-0.784-0.595-1.304-0.595c-0.527,0-0.965,0.197-1.312,0.592S174.62,49.595,174.62,50.392z"/>
	<path fill="#1D1D1B" d="M184.68,53.503v-0.914c-0.484,0.703-1.143,1.055-1.975,1.055c-0.367,0-0.71-0.07-1.028-0.211
		s-0.555-0.317-0.709-0.53s-0.263-0.474-0.325-0.782c-0.043-0.207-0.064-0.535-0.064-0.984V47.28h1.055v3.451
		c0,0.551,0.021,0.922,0.064,1.113c0.066,0.277,0.207,0.495,0.422,0.653s0.48,0.237,0.797,0.237s0.613-0.081,0.891-0.243
		s0.474-0.383,0.589-0.662s0.173-0.685,0.173-1.216V47.28h1.055v6.223H184.68z"/>
	<path fill="#1D1D1B" d="M187.264,53.503V47.28h0.949v0.943c0.242-0.441,0.466-0.732,0.671-0.873s0.431-0.211,0.677-0.211
		c0.355,0,0.717,0.113,1.084,0.34l-0.363,0.979c-0.258-0.152-0.516-0.229-0.773-0.229c-0.23,0-0.438,0.069-0.621,0.208
		s-0.314,0.331-0.393,0.577c-0.117,0.375-0.176,0.785-0.176,1.23v3.258H187.264z"/>
	<path fill="#1D1D1B" d="M195.532,51.499l1.09,0.135c-0.172,0.637-0.49,1.131-0.955,1.482s-1.059,0.527-1.781,0.527
		c-0.91,0-1.632-0.28-2.165-0.841s-0.8-1.347-0.8-2.358c0-1.047,0.27-1.859,0.809-2.438s1.238-0.867,2.098-0.867
		c0.832,0,1.512,0.283,2.039,0.85s0.791,1.363,0.791,2.391c0,0.062-0.002,0.156-0.006,0.281h-4.641
		c0.039,0.684,0.232,1.207,0.58,1.57s0.781,0.545,1.301,0.545c0.387,0,0.717-0.102,0.99-0.305S195.372,51.944,195.532,51.499z
		 M192.069,49.794h3.475c-0.047-0.523-0.18-0.916-0.398-1.178c-0.336-0.406-0.771-0.609-1.307-0.609
		c-0.484,0-0.892,0.162-1.222,0.486S192.104,49.251,192.069,49.794z"/>
	<path fill="#1D1D1B" d="M197.934,53.503V47.28h0.949v0.943c0.242-0.441,0.466-0.732,0.671-0.873s0.431-0.211,0.677-0.211
		c0.355,0,0.717,0.113,1.084,0.34l-0.363,0.979c-0.258-0.152-0.516-0.229-0.773-0.229c-0.23,0-0.438,0.069-0.621,0.208
		s-0.314,0.331-0.393,0.577c-0.117,0.375-0.176,0.785-0.176,1.23v3.258H197.934z"/>
	<path fill="#1D1D1B" d="M201.52,51.646l1.043-0.164c0.059,0.418,0.222,0.738,0.489,0.961s0.642,0.334,1.122,0.334
		c0.484,0,0.844-0.099,1.078-0.296s0.352-0.429,0.352-0.694c0-0.238-0.104-0.426-0.311-0.562c-0.145-0.094-0.504-0.213-1.078-0.357
		c-0.773-0.195-1.31-0.364-1.608-0.507s-0.525-0.34-0.68-0.592s-0.231-0.53-0.231-0.835c0-0.277,0.063-0.534,0.19-0.771
		s0.3-0.433,0.519-0.589c0.164-0.121,0.388-0.224,0.671-0.308s0.587-0.126,0.911-0.126c0.488,0,0.917,0.07,1.286,0.211
		s0.642,0.331,0.817,0.571s0.297,0.562,0.363,0.964l-1.031,0.141c-0.047-0.32-0.183-0.57-0.407-0.75s-0.542-0.27-0.952-0.27
		c-0.484,0-0.83,0.08-1.037,0.24s-0.311,0.348-0.311,0.562c0,0.137,0.043,0.26,0.129,0.369c0.086,0.113,0.221,0.207,0.404,0.281
		c0.105,0.039,0.416,0.129,0.932,0.27c0.746,0.199,1.267,0.362,1.562,0.489s0.526,0.312,0.694,0.554s0.252,0.543,0.252,0.902
		c0,0.352-0.103,0.683-0.308,0.993s-0.501,0.551-0.888,0.721s-0.824,0.255-1.312,0.255c-0.809,0-1.425-0.168-1.849-0.504
		S201.637,52.306,201.52,51.646z"/>
	<path fill="#1D1D1B" d="M216.194,47.207h-3.022l-0.168,1.199c0.168-0.024,0.312-0.024,0.504-0.024c0.743,0,1.499,0.168,2.051,0.563
		c0.588,0.396,0.947,1.043,0.947,1.955c0,1.451-1.247,2.734-3.346,2.734c-0.948,0-1.739-0.216-2.171-0.444l0.323-1.367
		c0.349,0.168,1.056,0.384,1.764,0.384c0.755,0,1.559-0.36,1.559-1.187c0-0.804-0.636-1.295-2.194-1.295
		c-0.432,0-0.731,0.024-1.056,0.072l0.516-4.09h4.294V47.207z"/>
	<path fill="#1D1D1B" d="M221.75,47.89c0,1.631-1.031,2.482-2.159,2.482c-1.187,0-2.122-0.887-2.122-2.351
		c0-1.391,0.852-2.447,2.183-2.447C220.995,45.575,221.75,46.559,221.75,47.89z M218.824,47.974c0,0.815,0.276,1.403,0.804,1.403
		c0.516,0,0.768-0.528,0.768-1.403c0-0.792-0.216-1.403-0.779-1.403C219.076,46.571,218.824,47.194,218.824,47.974z M219.688,53.635
		l4.474-8.06h0.983l-4.486,8.06H219.688z M227.364,51.128c0,1.631-1.032,2.482-2.159,2.482c-1.176,0-2.11-0.888-2.123-2.351
		c0-1.391,0.852-2.447,2.183-2.447C226.608,48.813,227.364,49.797,227.364,51.128z M224.449,51.212
		c-0.012,0.815,0.264,1.403,0.792,1.403c0.516,0,0.768-0.527,0.768-1.403c0-0.792-0.204-1.403-0.768-1.403
		C224.689,49.809,224.449,50.433,224.449,51.212z"/>
</g>
<g>
	<rect x="64.626" y="90.796" fill="none" width="99.281" height="37.981"/>
	<path fill="#1D1D1B" d="M65.165,96.628l1.072-0.094c0.051,0.43,0.169,0.782,0.354,1.058s0.474,0.498,0.864,0.668
		s0.83,0.255,1.318,0.255c0.434,0,0.816-0.064,1.148-0.193s0.579-0.306,0.741-0.53s0.243-0.47,0.243-0.735
		c0-0.27-0.078-0.505-0.234-0.706s-0.414-0.37-0.773-0.507c-0.23-0.09-0.74-0.229-1.529-0.419s-1.342-0.368-1.658-0.536
		c-0.41-0.215-0.716-0.481-0.917-0.8s-0.302-0.675-0.302-1.069c0-0.434,0.123-0.839,0.369-1.216s0.605-0.663,1.078-0.858
		s0.998-0.293,1.576-0.293c0.637,0,1.198,0.103,1.685,0.308s0.86,0.507,1.122,0.905s0.402,0.85,0.422,1.354l-1.09,0.082
		c-0.059-0.543-0.257-0.953-0.595-1.23s-0.837-0.416-1.497-0.416c-0.688,0-1.188,0.126-1.503,0.378s-0.472,0.556-0.472,0.911
		c0,0.309,0.111,0.562,0.334,0.762c0.219,0.199,0.79,0.403,1.714,0.612s1.558,0.392,1.901,0.548c0.5,0.23,0.869,0.522,1.107,0.876
		s0.357,0.761,0.357,1.222c0,0.457-0.131,0.888-0.393,1.292s-0.638,0.719-1.128,0.943s-1.042,0.337-1.655,0.337
		c-0.777,0-1.429-0.113-1.954-0.34s-0.938-0.567-1.236-1.022S65.181,97.202,65.165,96.628z"/>
	<path fill="#1D1D1B" d="M77.481,98.62c-0.391,0.332-0.767,0.566-1.128,0.703s-0.749,0.205-1.163,0.205
		c-0.684,0-1.209-0.167-1.576-0.501s-0.551-0.761-0.551-1.28c0-0.305,0.069-0.583,0.208-0.835s0.32-0.454,0.545-0.606
		s0.478-0.268,0.759-0.346c0.207-0.055,0.52-0.107,0.938-0.158c0.852-0.102,1.479-0.223,1.881-0.363
		c0.004-0.145,0.006-0.236,0.006-0.275c0-0.43-0.1-0.732-0.299-0.908c-0.27-0.238-0.67-0.357-1.201-0.357
		c-0.496,0-0.862,0.087-1.099,0.261s-0.411,0.481-0.524,0.923l-1.031-0.141c0.094-0.441,0.248-0.798,0.463-1.069
		s0.525-0.48,0.932-0.627s0.877-0.22,1.412-0.22c0.531,0,0.963,0.062,1.295,0.188s0.576,0.282,0.732,0.472s0.266,0.429,0.328,0.718
		c0.035,0.18,0.053,0.504,0.053,0.973v1.406c0,0.98,0.022,1.601,0.067,1.86s0.134,0.509,0.267,0.747h-1.102
		C77.583,99.169,77.513,98.913,77.481,98.62z M77.394,96.265c-0.383,0.156-0.957,0.289-1.723,0.398
		c-0.434,0.062-0.74,0.133-0.92,0.211s-0.318,0.192-0.416,0.343s-0.146,0.317-0.146,0.501c0,0.281,0.106,0.516,0.319,0.703
		s0.524,0.281,0.935,0.281c0.406,0,0.768-0.089,1.084-0.267s0.549-0.421,0.697-0.729c0.113-0.238,0.17-0.59,0.17-1.055V96.265z"/>
	<path fill="#1D1D1B" d="M80.071,99.388v-8.59h1.055v8.59H80.071z"/>
	<path fill="#1D1D1B" d="M87.021,97.384l1.09,0.135c-0.172,0.637-0.49,1.131-0.955,1.482s-1.059,0.527-1.781,0.527
		c-0.91,0-1.632-0.28-2.165-0.841s-0.8-1.347-0.8-2.358c0-1.047,0.27-1.859,0.809-2.438s1.238-0.867,2.098-0.867
		c0.832,0,1.512,0.283,2.039,0.85s0.791,1.363,0.791,2.391c0,0.062-0.002,0.156-0.006,0.281h-4.641
		c0.039,0.684,0.232,1.207,0.58,1.57s0.781,0.545,1.301,0.545c0.387,0,0.717-0.102,0.99-0.305S86.86,97.829,87.021,97.384z
		 M83.558,95.679h3.475c-0.047-0.523-0.18-0.916-0.398-1.178c-0.336-0.406-0.771-0.609-1.307-0.609
		c-0.484,0-0.892,0.162-1.222,0.486S83.593,95.136,83.558,95.679z"/>
	<path fill="#1D1D1B" d="M89.013,97.53l1.043-0.164c0.059,0.418,0.222,0.738,0.489,0.961s0.642,0.334,1.122,0.334
		c0.484,0,0.844-0.099,1.078-0.296s0.352-0.429,0.352-0.694c0-0.238-0.104-0.426-0.311-0.562c-0.145-0.094-0.504-0.213-1.078-0.357
		c-0.773-0.195-1.31-0.364-1.608-0.507s-0.525-0.34-0.68-0.592s-0.231-0.53-0.231-0.835c0-0.277,0.063-0.534,0.19-0.771
		s0.3-0.433,0.519-0.589c0.164-0.121,0.388-0.224,0.671-0.308s0.587-0.126,0.911-0.126c0.488,0,0.917,0.07,1.286,0.211
		s0.642,0.331,0.817,0.571s0.297,0.562,0.363,0.964l-1.031,0.141c-0.047-0.32-0.183-0.57-0.407-0.75s-0.542-0.27-0.952-0.27
		c-0.484,0-0.83,0.08-1.037,0.24s-0.311,0.348-0.311,0.562c0,0.137,0.043,0.26,0.129,0.369c0.086,0.113,0.221,0.207,0.404,0.281
		c0.105,0.039,0.416,0.129,0.932,0.27c0.746,0.199,1.267,0.362,1.562,0.489s0.526,0.312,0.694,0.554s0.252,0.543,0.252,0.902
		c0,0.352-0.103,0.683-0.308,0.993s-0.501,0.551-0.888,0.721s-0.824,0.255-1.312,0.255c-0.809,0-1.425-0.168-1.849-0.504
		S89.13,98.19,89.013,97.53z"/>
	<path fill="#1D1D1B" d="M100.403,99.388l-2.279-8.59h1.166l1.307,5.631c0.141,0.59,0.262,1.176,0.363,1.758
		c0.219-0.918,0.348-1.447,0.387-1.588l1.635-5.801h1.371l1.23,4.348c0.309,1.078,0.531,2.092,0.668,3.041
		c0.109-0.543,0.252-1.166,0.428-1.869l1.348-5.52h1.143l-2.355,8.59h-1.096l-1.811-6.545c-0.152-0.547-0.242-0.883-0.27-1.008
		c-0.09,0.395-0.174,0.73-0.252,1.008l-1.822,6.545H100.403z"/>
	<path fill="#1D1D1B" d="M109.485,96.276c0-1.152,0.32-2.006,0.961-2.561c0.535-0.461,1.188-0.691,1.957-0.691
		c0.855,0,1.555,0.28,2.098,0.841s0.814,1.335,0.814,2.323c0,0.801-0.12,1.431-0.36,1.89s-0.59,0.815-1.049,1.069
		s-0.96,0.381-1.503,0.381c-0.871,0-1.575-0.279-2.112-0.838S109.485,97.327,109.485,96.276z M110.569,96.276
		c0,0.797,0.174,1.394,0.521,1.79s0.785,0.595,1.312,0.595c0.523,0,0.959-0.199,1.307-0.598s0.521-1.006,0.521-1.822
		c0-0.77-0.175-1.353-0.524-1.749s-0.784-0.595-1.304-0.595c-0.527,0-0.965,0.197-1.312,0.592S110.569,95.479,110.569,96.276z"/>
	<path fill="#1D1D1B" d="M116.54,99.388v-6.223h0.949v0.943c0.242-0.441,0.466-0.732,0.671-0.873s0.431-0.211,0.677-0.211
		c0.355,0,0.717,0.113,1.084,0.34l-0.363,0.979c-0.258-0.152-0.516-0.229-0.773-0.229c-0.23,0-0.438,0.069-0.621,0.208
		s-0.314,0.331-0.393,0.577c-0.117,0.375-0.176,0.785-0.176,1.23v3.258H116.54z"/>
	<path fill="#1D1D1B" d="M120.554,99.388v-8.59h1.055v4.898l2.496-2.531h1.365l-2.379,2.309l2.619,3.914h-1.301l-2.057-3.182
		l-0.744,0.715v2.467H120.554z"/>
	<path fill="#1D1D1B" d="M130.808,97.384l1.09,0.135c-0.172,0.637-0.49,1.131-0.955,1.482s-1.059,0.527-1.781,0.527
		c-0.91,0-1.632-0.28-2.165-0.841s-0.8-1.347-0.8-2.358c0-1.047,0.27-1.859,0.809-2.438s1.238-0.867,2.098-0.867
		c0.832,0,1.512,0.283,2.039,0.85s0.791,1.363,0.791,2.391c0,0.062-0.002,0.156-0.006,0.281h-4.641
		c0.039,0.684,0.232,1.207,0.58,1.57s0.781,0.545,1.301,0.545c0.387,0,0.717-0.102,0.99-0.305S130.647,97.829,130.808,97.384z
		 M127.345,95.679h3.475c-0.047-0.523-0.18-0.916-0.398-1.178c-0.336-0.406-0.771-0.609-1.307-0.609
		c-0.484,0-0.892,0.162-1.222,0.486S127.38,95.136,127.345,95.679z"/>
	<path fill="#1D1D1B" d="M133.21,99.388v-6.223h0.949v0.943c0.242-0.441,0.466-0.732,0.671-0.873s0.431-0.211,0.677-0.211
		c0.355,0,0.717,0.113,1.084,0.34l-0.363,0.979c-0.258-0.152-0.516-0.229-0.773-0.229c-0.23,0-0.438,0.069-0.621,0.208
		s-0.314,0.331-0.393,0.577c-0.117,0.375-0.176,0.785-0.176,1.23v3.258H133.21z"/>
	<path fill="#1D1D1B" d="M136.796,97.53l1.043-0.164c0.059,0.418,0.222,0.738,0.489,0.961s0.642,0.334,1.122,0.334
		c0.484,0,0.844-0.099,1.078-0.296s0.352-0.429,0.352-0.694c0-0.238-0.104-0.426-0.311-0.562c-0.145-0.094-0.504-0.213-1.078-0.357
		c-0.773-0.195-1.31-0.364-1.608-0.507s-0.525-0.34-0.68-0.592s-0.231-0.53-0.231-0.835c0-0.277,0.063-0.534,0.19-0.771
		s0.3-0.433,0.519-0.589c0.164-0.121,0.388-0.224,0.671-0.308s0.587-0.126,0.911-0.126c0.488,0,0.917,0.07,1.286,0.211
		s0.642,0.331,0.817,0.571s0.297,0.562,0.363,0.964l-1.031,0.141c-0.047-0.32-0.183-0.57-0.407-0.75s-0.542-0.27-0.952-0.27
		c-0.484,0-0.83,0.08-1.037,0.24s-0.311,0.348-0.311,0.562c0,0.137,0.043,0.26,0.129,0.369c0.086,0.113,0.221,0.207,0.404,0.281
		c0.105,0.039,0.416,0.129,0.932,0.27c0.746,0.199,1.267,0.362,1.562,0.489s0.526,0.312,0.694,0.554s0.252,0.543,0.252,0.902
		c0,0.352-0.103,0.683-0.308,0.993s-0.501,0.551-0.888,0.721s-0.824,0.255-1.312,0.255c-0.809,0-1.425-0.168-1.849-0.504
		S136.913,98.19,136.796,97.53z"/>
	<path fill="#1D1D1B" d="M147.683,94.753c-0.426-0.18-0.735-0.427-0.929-0.741s-0.29-0.659-0.29-1.034
		c0-0.641,0.224-1.17,0.671-1.588s1.083-0.627,1.907-0.627c0.816,0,1.45,0.209,1.901,0.627s0.677,0.947,0.677,1.588
		c0,0.398-0.104,0.753-0.311,1.063s-0.498,0.548-0.873,0.712c0.477,0.191,0.839,0.471,1.087,0.838s0.372,0.791,0.372,1.271
		c0,0.793-0.253,1.438-0.759,1.934s-1.179,0.744-2.019,0.744c-0.781,0-1.432-0.205-1.951-0.615c-0.613-0.484-0.92-1.148-0.92-1.992
		c0-0.465,0.115-0.892,0.346-1.28S147.187,94.964,147.683,94.753z M147.87,96.774c0,0.453,0.116,0.807,0.349,1.061
		s0.522,0.381,0.87,0.381c0.34,0,0.621-0.122,0.844-0.366s0.334-0.597,0.334-1.058c0-0.402-0.113-0.726-0.34-0.97
		s-0.514-0.366-0.861-0.366c-0.402,0-0.702,0.139-0.899,0.416S147.87,96.45,147.87,96.774z M148.022,93.095
		c0,0.328,0.093,0.584,0.278,0.768s0.433,0.275,0.741,0.275c0.312,0,0.562-0.093,0.75-0.278s0.281-0.442,0.281-0.771
		c0-0.309-0.093-0.556-0.278-0.741s-0.431-0.278-0.735-0.278c-0.316,0-0.568,0.094-0.756,0.281S148.022,92.786,148.022,93.095z"/>
	<path fill="#1D1D1B" d="M152.956,92.919c0-0.77,0.169-1.34,0.507-1.711s0.796-0.557,1.374-0.557c0.598,0,1.065,0.185,1.403,0.554
		s0.507,0.94,0.507,1.714c0,0.77-0.169,1.34-0.507,1.711s-0.796,0.557-1.374,0.557c-0.598,0-1.065-0.185-1.403-0.554
		S152.956,93.692,152.956,92.919z M154.239,92.907c0,0.559,0.064,0.934,0.193,1.125c0.098,0.141,0.232,0.211,0.404,0.211
		c0.176,0,0.312-0.07,0.41-0.211c0.125-0.191,0.188-0.566,0.188-1.125s-0.062-0.932-0.188-1.119
		c-0.098-0.145-0.234-0.217-0.41-0.217c-0.172,0-0.307,0.07-0.404,0.211C154.304,91.974,154.239,92.349,154.239,92.907z
		 M156.091,99.716h-1.219l4.576-9.064h1.184L156.091,99.716z M158.751,97.46c0-0.77,0.169-1.34,0.507-1.711s0.8-0.557,1.386-0.557
		c0.59,0,1.054,0.186,1.392,0.557s0.507,0.941,0.507,1.711c0,0.773-0.169,1.346-0.507,1.717s-0.796,0.557-1.374,0.557
		c-0.598,0-1.065-0.186-1.403-0.557S158.751,98.233,158.751,97.46z M160.034,97.454c0,0.559,0.064,0.932,0.193,1.119
		c0.098,0.145,0.232,0.217,0.404,0.217c0.176,0,0.311-0.07,0.404-0.211c0.129-0.191,0.193-0.566,0.193-1.125
		s-0.062-0.934-0.188-1.125c-0.098-0.141-0.234-0.211-0.41-0.211s-0.311,0.07-0.404,0.211
		C160.099,96.521,160.034,96.896,160.034,97.454z"/>
</g>
<g>
	<rect x="-4.316" y="176.127" fill="none" width="116.583" height="67.197"/>
	<path fill="#1D1D1B" d="M29.321,184.719v-7.576h-2.83v-1.014H33.3v1.014h-2.842v7.576H29.321z"/>
	<path fill="#1D1D1B" d="M37.261,182.715l1.09,0.135c-0.172,0.637-0.49,1.131-0.955,1.482s-1.059,0.527-1.781,0.527
		c-0.91,0-1.632-0.28-2.165-0.841s-0.8-1.347-0.8-2.358c0-1.047,0.27-1.859,0.809-2.438s1.238-0.867,2.098-0.867
		c0.832,0,1.512,0.283,2.039,0.85s0.791,1.363,0.791,2.391c0,0.062-0.002,0.156-0.006,0.281h-4.641
		c0.039,0.684,0.232,1.207,0.58,1.57s0.781,0.545,1.301,0.545c0.387,0,0.717-0.102,0.99-0.305S37.101,183.16,37.261,182.715z
		 M33.798,181.01h3.475c-0.047-0.523-0.18-0.916-0.398-1.178c-0.336-0.406-0.771-0.609-1.307-0.609
		c-0.484,0-0.892,0.162-1.222,0.486S33.833,180.467,33.798,181.01z"/>
	<path fill="#1D1D1B" d="M43.735,182.439l1.037,0.135c-0.113,0.715-0.403,1.274-0.87,1.679s-1.04,0.606-1.72,0.606
		c-0.852,0-1.536-0.278-2.054-0.835s-0.776-1.354-0.776-2.394c0-0.672,0.111-1.26,0.334-1.764s0.562-0.882,1.017-1.134
		s0.95-0.378,1.485-0.378c0.676,0,1.229,0.171,1.658,0.513s0.705,0.827,0.826,1.456l-1.025,0.158
		c-0.098-0.418-0.271-0.732-0.519-0.943s-0.548-0.316-0.899-0.316c-0.531,0-0.963,0.19-1.295,0.571s-0.498,0.983-0.498,1.808
		c0,0.836,0.16,1.443,0.48,1.822s0.738,0.568,1.254,0.568c0.414,0,0.76-0.127,1.037-0.381S43.661,182.967,43.735,182.439z"/>
	<path fill="#1D1D1B" d="M45.675,184.719v-8.59h1.055v3.082c0.492-0.57,1.113-0.855,1.863-0.855c0.461,0,0.861,0.091,1.201,0.272
		s0.583,0.433,0.729,0.753s0.22,0.785,0.22,1.395v3.943h-1.055v-3.943c0-0.527-0.114-0.911-0.343-1.151s-0.552-0.36-0.97-0.36
		c-0.312,0-0.606,0.081-0.882,0.243s-0.472,0.382-0.589,0.659s-0.176,0.66-0.176,1.148v3.404H45.675z"/>
	<path fill="#1D1D1B" d="M52.349,184.719v-6.223h0.949v0.885c0.457-0.684,1.117-1.025,1.98-1.025c0.375,0,0.72,0.067,1.034,0.202
		s0.55,0.312,0.706,0.53s0.266,0.479,0.328,0.779c0.039,0.195,0.059,0.537,0.059,1.025v3.826h-1.055v-3.785
		c0-0.43-0.041-0.751-0.123-0.964s-0.228-0.383-0.437-0.51s-0.454-0.19-0.735-0.19c-0.449,0-0.837,0.143-1.163,0.428
		s-0.489,0.826-0.489,1.623v3.398H52.349z"/>
	<path fill="#1D1D1B" d="M59.028,177.342v-1.213h1.055v1.213H59.028z M59.028,184.719v-6.223h1.055v6.223H59.028z"/>
	<path fill="#1D1D1B" d="M65.749,182.439l1.037,0.135c-0.113,0.715-0.403,1.274-0.87,1.679s-1.04,0.606-1.72,0.606
		c-0.852,0-1.536-0.278-2.054-0.835s-0.776-1.354-0.776-2.394c0-0.672,0.111-1.26,0.334-1.764s0.562-0.882,1.017-1.134
		s0.95-0.378,1.485-0.378c0.676,0,1.229,0.171,1.658,0.513s0.705,0.827,0.826,1.456l-1.025,0.158
		c-0.098-0.418-0.271-0.732-0.519-0.943s-0.548-0.316-0.899-0.316c-0.531,0-0.963,0.19-1.295,0.571s-0.498,0.983-0.498,1.808
		c0,0.836,0.16,1.443,0.48,1.822s0.738,0.568,1.254,0.568c0.414,0,0.76-0.127,1.037-0.381S65.675,182.967,65.749,182.439z"/>
	<path fill="#1D1D1B" d="M67.694,177.342v-1.213h1.055v1.213H67.694z M67.694,184.719v-6.223h1.055v6.223H67.694z"/>
	<path fill="#1D1D1B" d="M74.415,183.951c-0.391,0.332-0.767,0.566-1.128,0.703s-0.749,0.205-1.163,0.205
		c-0.684,0-1.209-0.167-1.576-0.501s-0.551-0.761-0.551-1.28c0-0.305,0.069-0.583,0.208-0.835s0.32-0.454,0.545-0.606
		s0.478-0.268,0.759-0.346c0.207-0.055,0.52-0.107,0.938-0.158c0.852-0.102,1.479-0.223,1.881-0.363
		c0.004-0.145,0.006-0.236,0.006-0.275c0-0.43-0.1-0.732-0.299-0.908c-0.27-0.238-0.67-0.357-1.201-0.357
		c-0.496,0-0.862,0.087-1.099,0.261s-0.411,0.481-0.524,0.923l-1.031-0.141c0.094-0.441,0.248-0.798,0.463-1.069
		s0.525-0.48,0.932-0.627s0.877-0.22,1.412-0.22c0.531,0,0.963,0.062,1.295,0.188s0.576,0.282,0.732,0.472s0.266,0.429,0.328,0.718
		c0.035,0.18,0.053,0.504,0.053,0.973v1.406c0,0.98,0.022,1.601,0.067,1.86s0.134,0.509,0.267,0.747h-1.102
		C74.517,184.5,74.446,184.244,74.415,183.951z M74.327,181.596c-0.383,0.156-0.957,0.289-1.723,0.398
		c-0.434,0.062-0.74,0.133-0.92,0.211s-0.318,0.192-0.416,0.343s-0.146,0.317-0.146,0.501c0,0.281,0.106,0.516,0.319,0.703
		s0.524,0.281,0.935,0.281c0.406,0,0.768-0.089,1.084-0.267s0.549-0.421,0.697-0.729c0.113-0.238,0.17-0.59,0.17-1.055V181.596z"/>
	<path fill="#1D1D1B" d="M77.028,184.719v-6.223h0.949v0.885c0.457-0.684,1.117-1.025,1.98-1.025c0.375,0,0.72,0.067,1.034,0.202
		s0.55,0.312,0.706,0.53s0.266,0.479,0.328,0.779c0.039,0.195,0.059,0.537,0.059,1.025v3.826H81.03v-3.785
		c0-0.43-0.041-0.751-0.123-0.964s-0.228-0.383-0.437-0.51s-0.454-0.19-0.735-0.19c-0.449,0-0.837,0.143-1.163,0.428
		s-0.489,0.826-0.489,1.623v3.398H77.028z"/>
	<path fill="#1D1D1B" d="M83.28,182.861l1.043-0.164c0.059,0.418,0.222,0.738,0.489,0.961s0.642,0.334,1.122,0.334
		c0.484,0,0.844-0.099,1.078-0.296s0.352-0.429,0.352-0.694c0-0.238-0.104-0.426-0.311-0.562c-0.145-0.094-0.504-0.213-1.078-0.357
		c-0.773-0.195-1.31-0.364-1.608-0.507s-0.525-0.34-0.68-0.592s-0.231-0.53-0.231-0.835c0-0.277,0.063-0.534,0.19-0.771
		s0.3-0.433,0.519-0.589c0.164-0.121,0.388-0.224,0.671-0.308s0.587-0.126,0.911-0.126c0.488,0,0.917,0.07,1.286,0.211
		s0.642,0.331,0.817,0.571s0.297,0.562,0.363,0.964l-1.031,0.141c-0.047-0.32-0.183-0.57-0.407-0.75s-0.542-0.27-0.952-0.27
		c-0.484,0-0.83,0.08-1.037,0.24s-0.311,0.348-0.311,0.562c0,0.137,0.043,0.26,0.129,0.369c0.086,0.113,0.221,0.207,0.404,0.281
		c0.105,0.039,0.416,0.129,0.932,0.27c0.746,0.199,1.267,0.362,1.562,0.489s0.526,0.312,0.694,0.554s0.252,0.543,0.252,0.902
		c0,0.352-0.103,0.683-0.308,0.993s-0.501,0.551-0.888,0.721s-0.824,0.255-1.312,0.255c-0.809,0-1.425-0.168-1.849-0.504
		S83.397,183.521,83.28,182.861z"/>
	<path fill="#1D1D1B" d="M97.097,183.951c-0.391,0.332-0.767,0.566-1.128,0.703s-0.749,0.205-1.163,0.205
		c-0.684,0-1.209-0.167-1.576-0.501s-0.551-0.761-0.551-1.28c0-0.305,0.069-0.583,0.208-0.835s0.32-0.454,0.545-0.606
		s0.478-0.268,0.759-0.346c0.207-0.055,0.52-0.107,0.938-0.158c0.852-0.102,1.479-0.223,1.881-0.363
		c0.004-0.145,0.006-0.236,0.006-0.275c0-0.43-0.1-0.732-0.299-0.908c-0.27-0.238-0.67-0.357-1.201-0.357
		c-0.496,0-0.862,0.087-1.099,0.261s-0.411,0.481-0.524,0.923l-1.031-0.141c0.094-0.441,0.248-0.798,0.463-1.069
		s0.525-0.48,0.932-0.627s0.877-0.22,1.412-0.22c0.531,0,0.963,0.062,1.295,0.188s0.576,0.282,0.732,0.472s0.266,0.429,0.328,0.718
		c0.035,0.18,0.053,0.504,0.053,0.973v1.406c0,0.98,0.022,1.601,0.067,1.86s0.134,0.509,0.267,0.747h-1.102
		C97.198,184.5,97.128,184.244,97.097,183.951z M97.009,181.596c-0.383,0.156-0.957,0.289-1.723,0.398
		c-0.434,0.062-0.74,0.133-0.92,0.211s-0.318,0.192-0.416,0.343s-0.146,0.317-0.146,0.501c0,0.281,0.106,0.516,0.319,0.703
		s0.524,0.281,0.935,0.281c0.406,0,0.768-0.089,1.084-0.267s0.549-0.421,0.697-0.729c0.113-0.238,0.17-0.59,0.17-1.055V181.596z"/>
	<path fill="#1D1D1B" d="M99.71,184.719v-6.223h0.949v0.885c0.457-0.684,1.117-1.025,1.98-1.025c0.375,0,0.72,0.067,1.034,0.202
		s0.55,0.312,0.706,0.53s0.266,0.479,0.328,0.779c0.039,0.195,0.059,0.537,0.059,1.025v3.826h-1.055v-3.785
		c0-0.43-0.041-0.751-0.123-0.964s-0.228-0.383-0.437-0.51s-0.454-0.19-0.735-0.19c-0.449,0-0.837,0.143-1.163,0.428
		s-0.489,0.826-0.489,1.623v3.398H99.71z"/>
	<path fill="#1D1D1B" d="M110.421,184.719v-0.785c-0.395,0.617-0.975,0.926-1.74,0.926c-0.496,0-0.952-0.137-1.368-0.41
		s-0.738-0.655-0.967-1.146s-0.343-1.054-0.343-1.69c0-0.621,0.104-1.185,0.311-1.69s0.518-0.894,0.932-1.163
		s0.877-0.404,1.389-0.404c0.375,0,0.709,0.079,1.002,0.237s0.531,0.364,0.715,0.618v-3.082h1.049v8.59H110.421z M107.087,181.613
		c0,0.797,0.168,1.393,0.504,1.787s0.732,0.592,1.189,0.592c0.461,0,0.853-0.188,1.175-0.565s0.483-0.952,0.483-1.726
		c0-0.852-0.164-1.477-0.492-1.875s-0.732-0.598-1.213-0.598c-0.469,0-0.86,0.191-1.175,0.574S107.087,180.789,107.087,181.613z"/>
	<path fill="#1D1D1B" d="M4.003,199.119v-7.576h-2.83v-1.014h6.809v1.014H5.14v7.576H4.003z"/>
	<path fill="#1D1D1B" d="M8.556,199.119v-6.223h0.949v0.943c0.242-0.441,0.466-0.732,0.671-0.873s0.431-0.211,0.677-0.211
		c0.355,0,0.717,0.113,1.084,0.34l-0.363,0.979c-0.258-0.152-0.516-0.229-0.773-0.229c-0.23,0-0.438,0.069-0.621,0.208
		s-0.314,0.331-0.393,0.577c-0.117,0.375-0.176,0.785-0.176,1.23v3.258H8.556z"/>
	<path fill="#1D1D1B" d="M16.624,198.351c-0.391,0.332-0.767,0.566-1.128,0.703s-0.749,0.205-1.163,0.205
		c-0.684,0-1.209-0.167-1.576-0.501s-0.551-0.761-0.551-1.28c0-0.305,0.069-0.583,0.208-0.835s0.32-0.454,0.545-0.606
		s0.478-0.268,0.759-0.346c0.207-0.055,0.52-0.107,0.938-0.158c0.852-0.102,1.479-0.223,1.881-0.363
		c0.004-0.145,0.006-0.236,0.006-0.275c0-0.43-0.1-0.732-0.299-0.908c-0.27-0.238-0.67-0.357-1.201-0.357
		c-0.496,0-0.862,0.087-1.099,0.261s-0.411,0.481-0.524,0.923l-1.031-0.141c0.094-0.441,0.248-0.798,0.463-1.069
		s0.525-0.48,0.932-0.627s0.877-0.22,1.412-0.22c0.531,0,0.963,0.062,1.295,0.188s0.576,0.282,0.732,0.472s0.266,0.429,0.328,0.718
		c0.035,0.18,0.053,0.504,0.053,0.973v1.406c0,0.98,0.022,1.601,0.067,1.86s0.134,0.509,0.267,0.747h-1.102
		C16.726,198.9,16.655,198.644,16.624,198.351z M16.536,195.996c-0.383,0.156-0.957,0.289-1.723,0.398
		c-0.434,0.062-0.74,0.133-0.92,0.211s-0.318,0.192-0.416,0.343s-0.146,0.317-0.146,0.501c0,0.281,0.106,0.516,0.319,0.703
		s0.524,0.281,0.935,0.281c0.406,0,0.768-0.089,1.084-0.267s0.549-0.421,0.697-0.729c0.113-0.238,0.17-0.59,0.17-1.055V195.996z"/>
	<path fill="#1D1D1B" d="M23.274,199.119v-0.785c-0.395,0.617-0.975,0.926-1.74,0.926c-0.496,0-0.952-0.137-1.368-0.41
		s-0.738-0.655-0.967-1.146s-0.343-1.054-0.343-1.69c0-0.621,0.104-1.185,0.311-1.69s0.518-0.894,0.932-1.163
		s0.877-0.404,1.389-0.404c0.375,0,0.709,0.079,1.002,0.237s0.531,0.364,0.715,0.618v-3.082h1.049v8.59H23.274z M19.94,196.013
		c0,0.797,0.168,1.393,0.504,1.787s0.732,0.592,1.189,0.592c0.461,0,0.853-0.188,1.175-0.565s0.483-0.952,0.483-1.726
		c0-0.852-0.164-1.477-0.492-1.875s-0.732-0.598-1.213-0.598c-0.469,0-0.86,0.191-1.175,0.574S19.94,195.189,19.94,196.013z"/>
	<path fill="#1D1D1B" d="M30.171,197.115l1.09,0.135c-0.172,0.637-0.49,1.131-0.955,1.482s-1.059,0.527-1.781,0.527
		c-0.91,0-1.632-0.28-2.165-0.841s-0.8-1.347-0.8-2.358c0-1.047,0.27-1.859,0.809-2.438s1.238-0.867,2.098-0.867
		c0.832,0,1.512,0.283,2.039,0.85s0.791,1.363,0.791,2.391c0,0.062-0.002,0.156-0.006,0.281h-4.641
		c0.039,0.684,0.232,1.207,0.58,1.57s0.781,0.545,1.301,0.545c0.387,0,0.717-0.102,0.99-0.305S30.011,197.56,30.171,197.115z
		 M26.708,195.41h3.475c-0.047-0.523-0.18-0.916-0.398-1.178c-0.336-0.406-0.771-0.609-1.307-0.609
		c-0.484,0-0.892,0.162-1.222,0.486S26.743,194.867,26.708,195.41z"/>
	<path fill="#1D1D1B" d="M32.163,197.261l1.043-0.164c0.059,0.418,0.222,0.738,0.489,0.961s0.642,0.334,1.122,0.334
		c0.484,0,0.844-0.099,1.078-0.296s0.352-0.429,0.352-0.694c0-0.238-0.104-0.426-0.311-0.562c-0.145-0.094-0.504-0.213-1.078-0.357
		c-0.773-0.195-1.31-0.364-1.608-0.507s-0.525-0.34-0.68-0.592s-0.231-0.53-0.231-0.835c0-0.277,0.063-0.534,0.19-0.771
		s0.3-0.433,0.519-0.589c0.164-0.121,0.388-0.224,0.671-0.308s0.587-0.126,0.911-0.126c0.488,0,0.917,0.07,1.286,0.211
		s0.642,0.331,0.817,0.571s0.297,0.562,0.363,0.964l-1.031,0.141c-0.047-0.32-0.183-0.57-0.407-0.75s-0.542-0.27-0.952-0.27
		c-0.484,0-0.83,0.08-1.037,0.24s-0.311,0.348-0.311,0.562c0,0.137,0.043,0.26,0.129,0.369c0.086,0.113,0.221,0.207,0.404,0.281
		c0.105,0.039,0.416,0.129,0.932,0.27c0.746,0.199,1.267,0.362,1.562,0.489s0.526,0.312,0.694,0.554s0.252,0.543,0.252,0.902
		c0,0.352-0.103,0.683-0.308,0.993s-0.501,0.551-0.888,0.721s-0.824,0.255-1.312,0.255c-0.809,0-1.425-0.168-1.849-0.504
		S32.28,197.921,32.163,197.261z"/>
	<path fill="#1D1D1B" d="M43.554,199.119l-2.279-8.59h1.166l1.307,5.631c0.141,0.59,0.262,1.176,0.363,1.758
		c0.219-0.918,0.348-1.447,0.387-1.588l1.635-5.801h1.371l1.23,4.348c0.309,1.078,0.531,2.092,0.668,3.041
		c0.109-0.543,0.252-1.166,0.428-1.869l1.348-5.52h1.143l-2.355,8.59h-1.096l-1.811-6.545c-0.152-0.547-0.242-0.883-0.27-1.008
		c-0.09,0.395-0.174,0.73-0.252,1.008l-1.822,6.545H43.554z"/>
	<path fill="#1D1D1B" d="M52.636,196.007c0-1.152,0.32-2.006,0.961-2.561c0.535-0.461,1.188-0.691,1.957-0.691
		c0.855,0,1.555,0.28,2.098,0.841s0.814,1.335,0.814,2.323c0,0.801-0.12,1.431-0.36,1.89s-0.59,0.815-1.049,1.069
		s-0.96,0.381-1.503,0.381c-0.871,0-1.575-0.279-2.112-0.838S52.636,197.058,52.636,196.007z M53.72,196.007
		c0,0.797,0.174,1.394,0.521,1.79s0.785,0.595,1.312,0.595c0.523,0,0.959-0.199,1.307-0.598s0.521-1.006,0.521-1.822
		c0-0.77-0.175-1.353-0.524-1.749s-0.784-0.595-1.304-0.595c-0.527,0-0.965,0.197-1.312,0.592S53.72,195.21,53.72,196.007z"/>
	<path fill="#1D1D1B" d="M59.69,199.119v-6.223h0.949v0.943c0.242-0.441,0.466-0.732,0.671-0.873s0.431-0.211,0.677-0.211
		c0.355,0,0.717,0.113,1.084,0.34l-0.363,0.979c-0.258-0.152-0.516-0.229-0.773-0.229c-0.23,0-0.438,0.069-0.621,0.208
		s-0.314,0.331-0.393,0.577c-0.117,0.375-0.176,0.785-0.176,1.23v3.258H59.69z"/>
	<path fill="#1D1D1B" d="M63.704,199.119v-8.59h1.055v4.898l2.496-2.531h1.365l-2.379,2.309l2.619,3.914H67.56l-2.057-3.182
		l-0.744,0.715v2.467H63.704z"/>
	<path fill="#1D1D1B" d="M73.958,197.115l1.09,0.135c-0.172,0.637-0.49,1.131-0.955,1.482s-1.059,0.527-1.781,0.527
		c-0.91,0-1.632-0.28-2.165-0.841s-0.8-1.347-0.8-2.358c0-1.047,0.27-1.859,0.809-2.438s1.238-0.867,2.098-0.867
		c0.832,0,1.512,0.283,2.039,0.85s0.791,1.363,0.791,2.391c0,0.062-0.002,0.156-0.006,0.281h-4.641
		c0.039,0.684,0.232,1.207,0.58,1.57s0.781,0.545,1.301,0.545c0.387,0,0.717-0.102,0.99-0.305S73.798,197.56,73.958,197.115z
		 M70.495,195.41h3.475c-0.047-0.523-0.18-0.916-0.398-1.178c-0.336-0.406-0.771-0.609-1.307-0.609
		c-0.484,0-0.892,0.162-1.222,0.486S70.53,194.867,70.495,195.41z"/>
	<path fill="#1D1D1B" d="M76.36,199.119v-6.223h0.949v0.943c0.242-0.441,0.466-0.732,0.671-0.873s0.431-0.211,0.677-0.211
		c0.355,0,0.717,0.113,1.084,0.34l-0.363,0.979c-0.258-0.152-0.516-0.229-0.773-0.229c-0.23,0-0.438,0.069-0.621,0.208
		s-0.314,0.331-0.393,0.577c-0.117,0.375-0.176,0.785-0.176,1.23v3.258H76.36z"/>
	<path fill="#1D1D1B" d="M79.946,197.261l1.043-0.164c0.059,0.418,0.222,0.738,0.489,0.961s0.642,0.334,1.122,0.334
		c0.484,0,0.844-0.099,1.078-0.296s0.352-0.429,0.352-0.694c0-0.238-0.104-0.426-0.311-0.562c-0.145-0.094-0.504-0.213-1.078-0.357
		c-0.773-0.195-1.31-0.364-1.608-0.507s-0.525-0.34-0.68-0.592s-0.231-0.53-0.231-0.835c0-0.277,0.063-0.534,0.19-0.771
		s0.3-0.433,0.519-0.589c0.164-0.121,0.388-0.224,0.671-0.308s0.587-0.126,0.911-0.126c0.488,0,0.917,0.07,1.286,0.211
		s0.642,0.331,0.817,0.571s0.297,0.562,0.363,0.964l-1.031,0.141c-0.047-0.32-0.183-0.57-0.407-0.75s-0.542-0.27-0.952-0.27
		c-0.484,0-0.83,0.08-1.037,0.24s-0.311,0.348-0.311,0.562c0,0.137,0.043,0.26,0.129,0.369c0.086,0.113,0.221,0.207,0.404,0.281
		c0.105,0.039,0.416,0.129,0.932,0.27c0.746,0.199,1.267,0.362,1.562,0.489s0.526,0.312,0.694,0.554s0.252,0.543,0.252,0.902
		c0,0.352-0.103,0.683-0.308,0.993s-0.501,0.551-0.888,0.721s-0.824,0.255-1.312,0.255c-0.809,0-1.425-0.168-1.849-0.504
		S80.063,197.921,79.946,197.261z"/>
	<path fill="#1D1D1B" d="M93.634,199.119h-1.646v-6.205c-0.602,0.562-1.311,0.979-2.127,1.248v-1.494
		c0.43-0.141,0.896-0.407,1.4-0.8s0.85-0.851,1.037-1.374h1.336V199.119z"/>
	<path fill="#1D1D1B" d="M99.646,199.119h-1.646v-6.205c-0.602,0.562-1.311,0.979-2.127,1.248v-1.494
		c0.43-0.141,0.896-0.407,1.4-0.8s0.85-0.851,1.037-1.374h1.336V199.119z"/>
	<path fill="#1D1D1B" d="M102.118,192.65c0-0.77,0.169-1.34,0.507-1.711s0.796-0.557,1.374-0.557c0.598,0,1.065,0.185,1.403,0.554
		s0.507,0.94,0.507,1.714c0,0.77-0.169,1.34-0.507,1.711s-0.796,0.557-1.374,0.557c-0.598,0-1.065-0.185-1.403-0.554
		S102.118,193.423,102.118,192.65z M103.401,192.638c0,0.559,0.064,0.934,0.193,1.125c0.098,0.141,0.232,0.211,0.404,0.211
		c0.176,0,0.312-0.07,0.41-0.211c0.125-0.191,0.188-0.566,0.188-1.125s-0.062-0.932-0.188-1.119
		c-0.098-0.145-0.234-0.217-0.41-0.217c-0.172,0-0.307,0.07-0.404,0.211C103.466,191.705,103.401,192.08,103.401,192.638z
		 M105.253,199.447h-1.219l4.576-9.064h1.184L105.253,199.447z M107.913,197.191c0-0.77,0.169-1.34,0.507-1.711
		s0.8-0.557,1.386-0.557c0.59,0,1.054,0.186,1.392,0.557s0.507,0.941,0.507,1.711c0,0.773-0.169,1.346-0.507,1.717
		s-0.796,0.557-1.374,0.557c-0.598,0-1.065-0.186-1.403-0.557S107.913,197.964,107.913,197.191z M109.196,197.185
		c0,0.559,0.064,0.932,0.193,1.119c0.098,0.145,0.232,0.217,0.404,0.217c0.176,0,0.311-0.07,0.404-0.211
		c0.129-0.191,0.193-0.566,0.193-1.125s-0.062-0.934-0.188-1.125c-0.098-0.141-0.234-0.211-0.41-0.211s-0.311,0.07-0.404,0.211
		C109.261,196.251,109.196,196.626,109.196,197.185z"/>
</g>
<g>
	<rect x="23.022" y="343.033" fill="none" width="116.583" height="67.197"/>
	<path fill="#1D1D1B" d="M59.782,351.625v-8.59h1.711l2.033,6.082c0.188,0.566,0.324,0.99,0.41,1.271
		c0.098-0.312,0.25-0.771,0.457-1.377l2.057-5.977h1.529v8.59h-1.096v-7.189l-2.496,7.189h-1.025l-2.484-7.312v7.312H59.782z"/>
	<path fill="#1D1D1B" d="M73.739,350.857c-0.391,0.332-0.767,0.566-1.128,0.703s-0.749,0.205-1.163,0.205
		c-0.684,0-1.209-0.167-1.576-0.501s-0.551-0.761-0.551-1.28c0-0.305,0.069-0.583,0.208-0.835s0.32-0.454,0.545-0.606
		s0.478-0.268,0.759-0.346c0.207-0.055,0.52-0.107,0.938-0.158c0.852-0.102,1.479-0.223,1.881-0.363
		c0.004-0.145,0.006-0.236,0.006-0.275c0-0.43-0.1-0.732-0.299-0.908c-0.27-0.238-0.67-0.357-1.201-0.357
		c-0.496,0-0.862,0.087-1.099,0.261s-0.411,0.481-0.524,0.923l-1.031-0.141c0.094-0.441,0.248-0.798,0.463-1.069
		s0.525-0.48,0.932-0.627s0.877-0.22,1.412-0.22c0.531,0,0.963,0.062,1.295,0.188s0.576,0.282,0.732,0.472s0.266,0.429,0.328,0.718
		c0.035,0.18,0.053,0.504,0.053,0.973v1.406c0,0.98,0.022,1.601,0.067,1.86s0.134,0.509,0.267,0.747H73.95
		C73.841,351.406,73.771,351.15,73.739,350.857z M73.651,348.502c-0.383,0.156-0.957,0.289-1.723,0.398
		c-0.434,0.062-0.74,0.133-0.92,0.211s-0.318,0.192-0.416,0.343s-0.146,0.317-0.146,0.501c0,0.281,0.106,0.516,0.319,0.703
		s0.524,0.281,0.935,0.281c0.406,0,0.768-0.089,1.084-0.267s0.549-0.421,0.697-0.729c0.113-0.238,0.17-0.59,0.17-1.055V348.502z"/>
	<path fill="#1D1D1B" d="M76.353,351.625v-6.223h0.949v0.885c0.457-0.684,1.117-1.025,1.98-1.025c0.375,0,0.72,0.067,1.034,0.202
		s0.55,0.312,0.706,0.53s0.266,0.479,0.328,0.779c0.039,0.195,0.059,0.537,0.059,1.025v3.826h-1.055v-3.785
		c0-0.43-0.041-0.751-0.123-0.964s-0.228-0.383-0.437-0.51s-0.454-0.19-0.735-0.19c-0.449,0-0.837,0.143-1.163,0.428
		s-0.489,0.826-0.489,1.623v3.398H76.353z"/>
	<path fill="#1D1D1B" d="M87.087,350.857c-0.391,0.332-0.767,0.566-1.128,0.703s-0.749,0.205-1.163,0.205
		c-0.684,0-1.209-0.167-1.576-0.501s-0.551-0.761-0.551-1.28c0-0.305,0.069-0.583,0.208-0.835s0.32-0.454,0.545-0.606
		s0.478-0.268,0.759-0.346c0.207-0.055,0.52-0.107,0.938-0.158c0.852-0.102,1.479-0.223,1.881-0.363
		c0.004-0.145,0.006-0.236,0.006-0.275c0-0.43-0.1-0.732-0.299-0.908c-0.27-0.238-0.67-0.357-1.201-0.357
		c-0.496,0-0.862,0.087-1.099,0.261s-0.411,0.481-0.524,0.923l-1.031-0.141c0.094-0.441,0.248-0.798,0.463-1.069
		s0.525-0.48,0.932-0.627s0.877-0.22,1.412-0.22c0.531,0,0.963,0.062,1.295,0.188s0.576,0.282,0.732,0.472s0.266,0.429,0.328,0.718
		c0.035,0.18,0.053,0.504,0.053,0.973v1.406c0,0.98,0.022,1.601,0.067,1.86s0.134,0.509,0.267,0.747h-1.102
		C87.188,351.406,87.118,351.15,87.087,350.857z M86.999,348.502c-0.383,0.156-0.957,0.289-1.723,0.398
		c-0.434,0.062-0.74,0.133-0.92,0.211s-0.318,0.192-0.416,0.343s-0.146,0.317-0.146,0.501c0,0.281,0.106,0.516,0.319,0.703
		s0.524,0.281,0.935,0.281c0.406,0,0.768-0.089,1.084-0.267s0.549-0.421,0.697-0.729c0.113-0.238,0.17-0.59,0.17-1.055V348.502z"/>
	<path fill="#1D1D1B" d="M89.507,352.141l1.025,0.152c0.043,0.316,0.162,0.547,0.357,0.691c0.262,0.195,0.619,0.293,1.072,0.293
		c0.488,0,0.865-0.098,1.131-0.293s0.445-0.469,0.539-0.82c0.055-0.215,0.08-0.666,0.076-1.354
		c-0.461,0.543-1.035,0.814-1.723,0.814c-0.855,0-1.518-0.309-1.986-0.926s-0.703-1.357-0.703-2.221
		c0-0.594,0.107-1.142,0.322-1.644s0.526-0.89,0.935-1.163s0.888-0.41,1.438-0.41c0.734,0,1.34,0.297,1.816,0.891v-0.75h0.973v5.379
		c0,0.969-0.099,1.655-0.296,2.06s-0.51,0.724-0.938,0.958s-0.954,0.352-1.579,0.352c-0.742,0-1.342-0.167-1.799-0.501
		S89.491,352.812,89.507,352.141z M90.38,348.402c0,0.816,0.162,1.412,0.486,1.787s0.73,0.562,1.219,0.562
		c0.484,0,0.891-0.187,1.219-0.56s0.492-0.958,0.492-1.755c0-0.762-0.169-1.336-0.507-1.723s-0.745-0.58-1.222-0.58
		c-0.469,0-0.867,0.19-1.195,0.571S90.38,347.652,90.38,348.402z"/>
	<path fill="#1D1D1B" d="M100.634,349.621l1.09,0.135c-0.172,0.637-0.49,1.131-0.955,1.482s-1.059,0.527-1.781,0.527
		c-0.91,0-1.632-0.28-2.165-0.841s-0.8-1.347-0.8-2.358c0-1.047,0.27-1.859,0.809-2.438s1.238-0.867,2.098-0.867
		c0.832,0,1.512,0.283,2.039,0.85s0.791,1.363,0.791,2.391c0,0.062-0.002,0.156-0.006,0.281h-4.641
		c0.039,0.684,0.232,1.207,0.58,1.57s0.781,0.545,1.301,0.545c0.387,0,0.717-0.102,0.99-0.305S100.474,350.066,100.634,349.621z
		 M97.171,347.916h3.475c-0.047-0.523-0.18-0.916-0.398-1.178c-0.336-0.406-0.771-0.609-1.307-0.609
		c-0.484,0-0.892,0.162-1.222,0.486S97.206,347.373,97.171,347.916z"/>
	<path fill="#1D1D1B" d="M103.036,351.625v-6.223h0.949v0.943c0.242-0.441,0.466-0.732,0.671-0.873s0.431-0.211,0.677-0.211
		c0.355,0,0.717,0.113,1.084,0.34l-0.363,0.979c-0.258-0.152-0.516-0.229-0.773-0.229c-0.23,0-0.438,0.069-0.621,0.208
		s-0.314,0.331-0.393,0.577c-0.117,0.375-0.176,0.785-0.176,1.23v3.258H103.036z"/>
	<path fill="#1D1D1B" d="M106.622,349.768l1.043-0.164c0.059,0.418,0.222,0.738,0.489,0.961s0.642,0.334,1.122,0.334
		c0.484,0,0.844-0.099,1.078-0.296s0.352-0.429,0.352-0.694c0-0.238-0.104-0.426-0.311-0.562c-0.145-0.094-0.504-0.213-1.078-0.357
		c-0.773-0.195-1.31-0.364-1.608-0.507s-0.525-0.34-0.68-0.592s-0.231-0.53-0.231-0.835c0-0.277,0.063-0.534,0.19-0.771
		s0.3-0.433,0.519-0.589c0.164-0.121,0.388-0.224,0.671-0.308s0.587-0.126,0.911-0.126c0.488,0,0.917,0.07,1.286,0.211
		s0.642,0.331,0.817,0.571s0.297,0.562,0.363,0.964l-1.031,0.141c-0.047-0.32-0.183-0.57-0.407-0.75s-0.542-0.27-0.952-0.27
		c-0.484,0-0.83,0.08-1.037,0.24s-0.311,0.348-0.311,0.562c0,0.137,0.043,0.26,0.129,0.369c0.086,0.113,0.221,0.207,0.404,0.281
		c0.105,0.039,0.416,0.129,0.932,0.27c0.746,0.199,1.267,0.362,1.562,0.489s0.526,0.312,0.694,0.554s0.252,0.543,0.252,0.902
		c0,0.352-0.103,0.683-0.308,0.993s-0.501,0.551-0.888,0.721s-0.824,0.255-1.312,0.255c-0.809,0-1.425-0.168-1.849-0.504
		S106.739,350.428,106.622,349.768z"/>
	<path fill="#1D1D1B" d="M120.31,351.625h-1.646v-6.205c-0.602,0.562-1.311,0.979-2.127,1.248v-1.494
		c0.43-0.141,0.896-0.407,1.4-0.8s0.85-0.851,1.037-1.374h1.336V351.625z"/>
	<path fill="#1D1D1B" d="M128.331,350.096v1.529h-5.771c0.062-0.578,0.25-1.126,0.562-1.644s0.93-1.204,1.852-2.06
		c0.742-0.691,1.197-1.16,1.365-1.406c0.227-0.34,0.34-0.676,0.34-1.008c0-0.367-0.099-0.649-0.296-0.847s-0.47-0.296-0.817-0.296
		c-0.344,0-0.617,0.104-0.82,0.311s-0.32,0.551-0.352,1.031l-1.641-0.164c0.098-0.906,0.404-1.557,0.92-1.951
		s1.16-0.592,1.934-0.592c0.848,0,1.514,0.229,1.998,0.686s0.727,1.025,0.727,1.705c0,0.387-0.069,0.755-0.208,1.104
		s-0.358,0.716-0.659,1.099c-0.199,0.254-0.559,0.619-1.078,1.096s-0.849,0.793-0.987,0.949s-0.251,0.309-0.337,0.457H128.331z"/>
	<path fill="#1D1D1B" d="M129.456,345.156c0-0.77,0.169-1.34,0.507-1.711s0.796-0.557,1.374-0.557c0.598,0,1.065,0.185,1.403,0.554
		s0.507,0.94,0.507,1.714c0,0.77-0.169,1.34-0.507,1.711s-0.796,0.557-1.374,0.557c-0.598,0-1.065-0.185-1.403-0.554
		S129.456,345.93,129.456,345.156z M130.739,345.145c0,0.559,0.064,0.934,0.193,1.125c0.098,0.141,0.232,0.211,0.404,0.211
		c0.176,0,0.312-0.07,0.41-0.211c0.125-0.191,0.188-0.566,0.188-1.125s-0.062-0.932-0.188-1.119
		c-0.098-0.145-0.234-0.217-0.41-0.217c-0.172,0-0.307,0.07-0.404,0.211C130.804,344.211,130.739,344.586,130.739,345.145z
		 M132.591,351.953h-1.219l4.576-9.064h1.184L132.591,351.953z M135.251,349.697c0-0.77,0.169-1.34,0.507-1.711
		s0.8-0.557,1.386-0.557c0.59,0,1.054,0.186,1.392,0.557s0.507,0.941,0.507,1.711c0,0.773-0.169,1.346-0.507,1.717
		s-0.796,0.557-1.374,0.557c-0.598,0-1.065-0.186-1.403-0.557S135.251,350.471,135.251,349.697z M136.534,349.691
		c0,0.559,0.064,0.932,0.193,1.119c0.098,0.145,0.232,0.217,0.404,0.217c0.176,0,0.311-0.07,0.404-0.211
		c0.129-0.191,0.193-0.566,0.193-1.125s-0.062-0.934-0.188-1.125c-0.098-0.141-0.234-0.211-0.41-0.211s-0.311,0.07-0.404,0.211
		C136.599,348.758,136.534,349.133,136.534,349.691z"/>
</g>
<g>
	<rect x="228.058" y="4.254" fill="none" width="120.863" height="48.64"/>
	<path fill="#1D1D1B" d="M233.358,12.846v-8.59h1.711l2.033,6.082c0.188,0.566,0.324,0.99,0.41,1.271
		c0.098-0.312,0.25-0.771,0.457-1.377l2.057-5.977h1.529v8.59h-1.096V5.656l-2.496,7.189h-1.025l-2.484-7.312v7.312H233.358z"/>
	<path fill="#1D1D1B" d="M247.315,12.078c-0.391,0.332-0.767,0.566-1.128,0.703s-0.749,0.205-1.163,0.205
		c-0.684,0-1.209-0.167-1.576-0.501s-0.551-0.761-0.551-1.28c0-0.305,0.069-0.583,0.208-0.835s0.32-0.454,0.545-0.606
		s0.478-0.268,0.759-0.346c0.207-0.055,0.52-0.107,0.938-0.158c0.852-0.102,1.479-0.223,1.881-0.363
		c0.004-0.145,0.006-0.236,0.006-0.275c0-0.43-0.1-0.732-0.299-0.908c-0.27-0.238-0.67-0.357-1.201-0.357
		c-0.496,0-0.862,0.087-1.099,0.261s-0.411,0.481-0.524,0.923l-1.031-0.141c0.094-0.441,0.248-0.798,0.463-1.069
		s0.525-0.48,0.932-0.627s0.877-0.22,1.412-0.22c0.531,0,0.963,0.062,1.295,0.188s0.576,0.282,0.732,0.472s0.266,0.429,0.328,0.718
		c0.035,0.18,0.053,0.504,0.053,0.973v1.406c0,0.98,0.022,1.601,0.067,1.86s0.134,0.509,0.267,0.747h-1.102
		C247.417,12.627,247.347,12.371,247.315,12.078z M247.228,9.723c-0.383,0.156-0.957,0.289-1.723,0.398
		c-0.434,0.062-0.74,0.133-0.92,0.211s-0.318,0.192-0.416,0.343s-0.146,0.317-0.146,0.501c0,0.281,0.106,0.516,0.319,0.703
		s0.524,0.281,0.935,0.281c0.406,0,0.768-0.089,1.084-0.267s0.549-0.421,0.697-0.729c0.113-0.238,0.17-0.59,0.17-1.055V9.723z"/>
	<path fill="#1D1D1B" d="M253.989,10.566l1.037,0.135c-0.113,0.715-0.403,1.274-0.87,1.679s-1.04,0.606-1.72,0.606
		c-0.852,0-1.536-0.278-2.054-0.835s-0.776-1.354-0.776-2.394c0-0.672,0.111-1.26,0.334-1.764s0.562-0.882,1.017-1.134
		s0.95-0.378,1.485-0.378c0.676,0,1.229,0.171,1.658,0.513s0.705,0.827,0.826,1.456l-1.025,0.158
		c-0.098-0.418-0.271-0.732-0.519-0.943s-0.548-0.316-0.899-0.316c-0.531,0-0.963,0.19-1.295,0.571s-0.498,0.983-0.498,1.808
		c0,0.836,0.16,1.443,0.48,1.822s0.738,0.568,1.254,0.568c0.414,0,0.76-0.127,1.037-0.381S253.915,11.094,253.989,10.566z"/>
	<path fill="#1D1D1B" d="M255.929,12.846v-8.59h1.055v3.082c0.492-0.57,1.113-0.855,1.863-0.855c0.461,0,0.861,0.091,1.201,0.272
		s0.583,0.433,0.729,0.753s0.22,0.785,0.22,1.395v3.943h-1.055V8.902c0-0.527-0.114-0.911-0.343-1.151s-0.552-0.36-0.97-0.36
		c-0.312,0-0.606,0.081-0.882,0.243s-0.472,0.382-0.589,0.659s-0.176,0.66-0.176,1.148v3.404H255.929z"/>
	<path fill="#1D1D1B" d="M262.608,5.469V4.256h1.055v1.213H262.608z M262.608,12.846V6.623h1.055v6.223H262.608z"/>
	<path fill="#1D1D1B" d="M265.269,12.846V6.623h0.949v0.885c0.457-0.684,1.117-1.025,1.98-1.025c0.375,0,0.72,0.067,1.034,0.202
		s0.55,0.312,0.706,0.53s0.266,0.479,0.328,0.779c0.039,0.195,0.059,0.537,0.059,1.025v3.826h-1.055V9.061
		c0-0.43-0.041-0.751-0.123-0.964s-0.228-0.383-0.437-0.51s-0.454-0.19-0.735-0.19c-0.449,0-0.837,0.143-1.163,0.428
		s-0.489,0.826-0.489,1.623v3.398H265.269z"/>
	<path fill="#1D1D1B" d="M276.202,10.842l1.09,0.135c-0.172,0.637-0.49,1.131-0.955,1.482s-1.059,0.527-1.781,0.527
		c-0.91,0-1.632-0.28-2.165-0.841s-0.8-1.347-0.8-2.358c0-1.047,0.27-1.859,0.809-2.438s1.238-0.867,2.098-0.867
		c0.832,0,1.512,0.283,2.039,0.85s0.791,1.363,0.791,2.391c0,0.062-0.002,0.156-0.006,0.281h-4.641
		c0.039,0.684,0.232,1.207,0.58,1.57s0.781,0.545,1.301,0.545c0.387,0,0.717-0.102,0.99-0.305S276.042,11.287,276.202,10.842z
		 M272.739,9.137h3.475c-0.047-0.523-0.18-0.916-0.398-1.178c-0.336-0.406-0.771-0.609-1.307-0.609
		c-0.484,0-0.892,0.162-1.222,0.486S272.774,8.594,272.739,9.137z"/>
	<path fill="#1D1D1B" d="M278.604,12.846V6.623h0.949v0.943c0.242-0.441,0.466-0.732,0.671-0.873s0.431-0.211,0.677-0.211
		c0.355,0,0.717,0.113,1.084,0.34l-0.363,0.979c-0.258-0.152-0.516-0.229-0.773-0.229c-0.23,0-0.438,0.069-0.621,0.208
		s-0.314,0.331-0.393,0.577c-0.117,0.375-0.176,0.785-0.176,1.23v3.258H278.604z"/>
	<path fill="#1D1D1B" d="M282.565,15.242l-0.117-0.99c0.23,0.062,0.432,0.094,0.604,0.094c0.234,0,0.422-0.039,0.562-0.117
		s0.256-0.188,0.346-0.328c0.066-0.105,0.174-0.367,0.322-0.785c0.02-0.059,0.051-0.145,0.094-0.258l-2.361-6.234h1.137l1.295,3.604
		c0.168,0.457,0.318,0.938,0.451,1.441c0.121-0.484,0.266-0.957,0.434-1.418l1.33-3.627h1.055l-2.367,6.328
		c-0.254,0.684-0.451,1.154-0.592,1.412c-0.188,0.348-0.402,0.603-0.645,0.765s-0.531,0.243-0.867,0.243
		C283.042,15.371,282.815,15.328,282.565,15.242z"/>
	<path fill="#1D1D1B" d="M291.735,8.662c0-1.426,0.383-2.542,1.148-3.349s1.754-1.21,2.965-1.21c0.793,0,1.508,0.189,2.145,0.568
		s1.122,0.907,1.456,1.585s0.501,1.446,0.501,2.306c0,0.871-0.176,1.65-0.527,2.338s-0.85,1.208-1.494,1.562s-1.34,0.53-2.086,0.53
		c-0.809,0-1.531-0.195-2.168-0.586s-1.119-0.924-1.447-1.6S291.735,9.416,291.735,8.662z M292.907,8.68
		c0,1.035,0.278,1.851,0.835,2.446s1.255,0.894,2.095,0.894c0.855,0,1.56-0.301,2.112-0.902s0.829-1.455,0.829-2.561
		c0-0.699-0.118-1.31-0.354-1.831s-0.582-0.926-1.037-1.213s-0.966-0.431-1.532-0.431c-0.805,0-1.497,0.276-2.077,0.829
		S292.907,7.387,292.907,8.68z"/>
	<path fill="#1D1D1B" d="M301.28,15.23V6.623h0.961v0.809c0.227-0.316,0.482-0.554,0.768-0.712s0.631-0.237,1.037-0.237
		c0.531,0,1,0.137,1.406,0.41s0.713,0.659,0.92,1.157s0.311,1.044,0.311,1.638c0,0.637-0.114,1.21-0.343,1.72
		s-0.561,0.9-0.996,1.172s-0.894,0.407-1.374,0.407c-0.352,0-0.667-0.074-0.946-0.223s-0.509-0.336-0.688-0.562v3.029H301.28z
		 M302.235,9.77c0,0.801,0.162,1.393,0.486,1.775s0.717,0.574,1.178,0.574c0.469,0,0.87-0.198,1.204-0.595s0.501-1.011,0.501-1.843
		c0-0.793-0.163-1.387-0.489-1.781s-0.716-0.592-1.169-0.592c-0.449,0-0.847,0.21-1.192,0.63S302.235,8.969,302.235,9.77z"/>
	<path fill="#1D1D1B" d="M312.214,10.842l1.09,0.135c-0.172,0.637-0.49,1.131-0.955,1.482s-1.059,0.527-1.781,0.527
		c-0.91,0-1.632-0.28-2.165-0.841s-0.8-1.347-0.8-2.358c0-1.047,0.27-1.859,0.809-2.438s1.238-0.867,2.098-0.867
		c0.832,0,1.512,0.283,2.039,0.85s0.791,1.363,0.791,2.391c0,0.062-0.002,0.156-0.006,0.281h-4.641
		c0.039,0.684,0.232,1.207,0.58,1.57s0.781,0.545,1.301,0.545c0.387,0,0.717-0.102,0.99-0.305S312.054,11.287,312.214,10.842z
		 M308.751,9.137h3.475c-0.047-0.523-0.18-0.916-0.398-1.178c-0.336-0.406-0.771-0.609-1.307-0.609
		c-0.484,0-0.892,0.162-1.222,0.486S308.786,8.594,308.751,9.137z"/>
	<path fill="#1D1D1B" d="M314.616,12.846V6.623h0.949v0.943c0.242-0.441,0.466-0.732,0.671-0.873s0.431-0.211,0.677-0.211
		c0.355,0,0.717,0.113,1.084,0.34l-0.363,0.979c-0.258-0.152-0.516-0.229-0.773-0.229c-0.23,0-0.438,0.069-0.621,0.208
		s-0.314,0.331-0.393,0.577c-0.117,0.375-0.176,0.785-0.176,1.23v3.258H314.616z"/>
	<path fill="#1D1D1B" d="M322.685,12.078c-0.391,0.332-0.767,0.566-1.128,0.703s-0.749,0.205-1.163,0.205
		c-0.684,0-1.209-0.167-1.576-0.501s-0.551-0.761-0.551-1.28c0-0.305,0.069-0.583,0.208-0.835s0.32-0.454,0.545-0.606
		s0.478-0.268,0.759-0.346c0.207-0.055,0.52-0.107,0.938-0.158c0.852-0.102,1.479-0.223,1.881-0.363
		c0.004-0.145,0.006-0.236,0.006-0.275c0-0.43-0.1-0.732-0.299-0.908c-0.27-0.238-0.67-0.357-1.201-0.357
		c-0.496,0-0.862,0.087-1.099,0.261s-0.411,0.481-0.524,0.923l-1.031-0.141c0.094-0.441,0.248-0.798,0.463-1.069
		s0.525-0.48,0.932-0.627s0.877-0.22,1.412-0.22c0.531,0,0.963,0.062,1.295,0.188s0.576,0.282,0.732,0.472s0.266,0.429,0.328,0.718
		c0.035,0.18,0.053,0.504,0.053,0.973v1.406c0,0.98,0.022,1.601,0.067,1.86s0.134,0.509,0.267,0.747h-1.102
		C322.786,12.627,322.716,12.371,322.685,12.078z M322.597,9.723c-0.383,0.156-0.957,0.289-1.723,0.398
		c-0.434,0.062-0.74,0.133-0.92,0.211s-0.318,0.192-0.416,0.343s-0.146,0.317-0.146,0.501c0,0.281,0.106,0.516,0.319,0.703
		s0.524,0.281,0.935,0.281c0.406,0,0.768-0.089,1.084-0.267s0.549-0.421,0.697-0.729c0.113-0.238,0.17-0.59,0.17-1.055V9.723z"/>
	<path fill="#1D1D1B" d="M327.601,11.902l0.152,0.932c-0.297,0.062-0.562,0.094-0.797,0.094c-0.383,0-0.68-0.061-0.891-0.182
		s-0.359-0.28-0.445-0.478s-0.129-0.612-0.129-1.245v-3.58h-0.773v-0.82h0.773V5.082l1.049-0.633v2.174h1.061v0.82h-1.061v3.639
		c0,0.301,0.019,0.494,0.056,0.58s0.098,0.154,0.182,0.205s0.204,0.076,0.36,0.076C327.255,11.943,327.409,11.93,327.601,11.902z"/>
	<path fill="#1D1D1B" d="M328.239,9.734c0-1.152,0.32-2.006,0.961-2.561c0.535-0.461,1.188-0.691,1.957-0.691
		c0.855,0,1.555,0.28,2.098,0.841s0.814,1.335,0.814,2.323c0,0.801-0.12,1.431-0.36,1.89s-0.59,0.815-1.049,1.069
		s-0.96,0.381-1.503,0.381c-0.871,0-1.575-0.279-2.112-0.838S328.239,10.785,328.239,9.734z M329.323,9.734
		c0,0.797,0.174,1.394,0.521,1.79s0.785,0.595,1.312,0.595c0.523,0,0.959-0.199,1.307-0.598s0.521-1.006,0.521-1.822
		c0-0.77-0.175-1.353-0.524-1.749s-0.784-0.595-1.304-0.595c-0.527,0-0.965,0.197-1.312,0.592S329.323,8.938,329.323,9.734z"/>
	<path fill="#1D1D1B" d="M335.294,12.846V6.623h0.949v0.943c0.242-0.441,0.466-0.732,0.671-0.873s0.431-0.211,0.677-0.211
		c0.355,0,0.717,0.113,1.084,0.34l-0.363,0.979c-0.258-0.152-0.516-0.229-0.773-0.229c-0.23,0-0.438,0.069-0.621,0.208
		s-0.314,0.331-0.393,0.577c-0.117,0.375-0.176,0.785-0.176,1.23v3.258H335.294z"/>
	<path fill="#1D1D1B" d="M338.88,10.988l1.043-0.164c0.059,0.418,0.222,0.738,0.489,0.961s0.642,0.334,1.122,0.334
		c0.484,0,0.844-0.099,1.078-0.296s0.352-0.429,0.352-0.694c0-0.238-0.104-0.426-0.311-0.562c-0.145-0.094-0.504-0.213-1.078-0.357
		c-0.773-0.195-1.31-0.364-1.608-0.507s-0.525-0.34-0.68-0.592s-0.231-0.53-0.231-0.835c0-0.277,0.063-0.534,0.19-0.771
		s0.3-0.433,0.519-0.589c0.164-0.121,0.388-0.224,0.671-0.308s0.587-0.126,0.911-0.126c0.488,0,0.917,0.07,1.286,0.211
		s0.642,0.331,0.817,0.571s0.297,0.562,0.363,0.964l-1.031,0.141c-0.047-0.32-0.183-0.57-0.407-0.75s-0.542-0.27-0.952-0.27
		c-0.484,0-0.83,0.08-1.037,0.24s-0.311,0.348-0.311,0.562c0,0.137,0.043,0.26,0.129,0.369c0.086,0.113,0.221,0.207,0.404,0.281
		c0.105,0.039,0.416,0.129,0.932,0.27c0.746,0.199,1.267,0.362,1.562,0.489s0.526,0.312,0.694,0.554s0.252,0.543,0.252,0.902
		c0,0.352-0.103,0.683-0.308,0.993s-0.501,0.551-0.888,0.721s-0.824,0.255-1.312,0.255c-0.809,0-1.425-0.168-1.849-0.504
		S338.997,11.648,338.88,10.988z"/>
	<path fill="#1D1D1B" d="M252.325,26.478c-0.391,0.332-0.767,0.566-1.128,0.703s-0.749,0.205-1.163,0.205
		c-0.684,0-1.209-0.167-1.576-0.501s-0.551-0.761-0.551-1.28c0-0.305,0.069-0.583,0.208-0.835s0.32-0.454,0.545-0.606
		s0.478-0.268,0.759-0.346c0.207-0.055,0.52-0.107,0.938-0.158c0.852-0.102,1.479-0.223,1.881-0.363
		c0.004-0.145,0.006-0.236,0.006-0.275c0-0.43-0.1-0.732-0.299-0.908c-0.27-0.238-0.67-0.357-1.201-0.357
		c-0.496,0-0.862,0.087-1.099,0.261s-0.411,0.481-0.524,0.923l-1.031-0.141c0.094-0.441,0.248-0.798,0.463-1.069
		s0.525-0.48,0.932-0.627s0.877-0.22,1.412-0.22c0.531,0,0.963,0.062,1.295,0.188s0.576,0.282,0.732,0.472s0.266,0.429,0.328,0.718
		c0.035,0.18,0.053,0.504,0.053,0.973v1.406c0,0.98,0.022,1.601,0.067,1.86s0.134,0.509,0.267,0.747h-1.102
		C252.427,27.027,252.356,26.771,252.325,26.478z M252.237,24.123c-0.383,0.156-0.957,0.289-1.723,0.398
		c-0.434,0.062-0.74,0.133-0.92,0.211s-0.318,0.192-0.416,0.343s-0.146,0.317-0.146,0.501c0,0.281,0.106,0.516,0.319,0.703
		s0.524,0.281,0.935,0.281c0.406,0,0.768-0.089,1.084-0.267s0.549-0.421,0.697-0.729c0.113-0.238,0.17-0.59,0.17-1.055V24.123z"/>
	<path fill="#1D1D1B" d="M254.938,27.246v-6.223h0.949v0.885c0.457-0.684,1.117-1.025,1.98-1.025c0.375,0,0.72,0.067,1.034,0.202
		s0.55,0.312,0.706,0.53s0.266,0.479,0.328,0.779c0.039,0.195,0.059,0.537,0.059,1.025v3.826h-1.055V23.46
		c0-0.43-0.041-0.751-0.123-0.964s-0.228-0.383-0.437-0.51s-0.454-0.19-0.735-0.19c-0.449,0-0.837,0.143-1.163,0.428
		s-0.489,0.826-0.489,1.623v3.398H254.938z"/>
	<path fill="#1D1D1B" d="M265.649,27.246V26.46c-0.395,0.617-0.975,0.926-1.74,0.926c-0.496,0-0.952-0.137-1.368-0.41
		s-0.738-0.655-0.967-1.146s-0.343-1.054-0.343-1.69c0-0.621,0.104-1.185,0.311-1.69s0.518-0.894,0.932-1.163
		s0.877-0.404,1.389-0.404c0.375,0,0.709,0.079,1.002,0.237s0.531,0.364,0.715,0.618v-3.082h1.049v8.59H265.649z M262.315,24.14
		c0,0.797,0.168,1.393,0.504,1.787s0.732,0.592,1.189,0.592c0.461,0,0.853-0.188,1.175-0.565s0.483-0.952,0.483-1.726
		c0-0.852-0.164-1.477-0.492-1.875s-0.732-0.598-1.213-0.598c-0.469,0-0.86,0.191-1.175,0.574S262.315,23.316,262.315,24.14z"/>
	<path fill="#1D1D1B" d="M271.755,27.246v-8.59h2.959c0.668,0,1.178,0.041,1.529,0.123c0.492,0.113,0.912,0.318,1.26,0.615
		c0.453,0.383,0.792,0.872,1.017,1.468s0.337,1.276,0.337,2.042c0,0.652-0.076,1.23-0.229,1.734s-0.348,0.921-0.586,1.251
		s-0.499,0.59-0.782,0.779s-0.625,0.333-1.025,0.431s-0.86,0.146-1.38,0.146H271.755z M272.892,26.232h1.834
		c0.566,0,1.011-0.053,1.333-0.158s0.579-0.254,0.771-0.445c0.27-0.27,0.479-0.632,0.63-1.087s0.226-1.007,0.226-1.655
		c0-0.898-0.147-1.589-0.442-2.071s-0.653-0.806-1.075-0.97c-0.305-0.117-0.795-0.176-1.471-0.176h-1.805V26.232z"/>
	<path fill="#1D1D1B" d="M280.274,27.246v-6.223h0.949v0.943c0.242-0.441,0.466-0.732,0.671-0.873s0.431-0.211,0.677-0.211
		c0.355,0,0.717,0.113,1.084,0.34l-0.363,0.979c-0.258-0.152-0.516-0.229-0.773-0.229c-0.23,0-0.438,0.069-0.621,0.208
		s-0.314,0.331-0.393,0.577c-0.117,0.375-0.176,0.785-0.176,1.23v3.258H280.274z"/>
	<path fill="#1D1D1B" d="M284.288,19.869v-1.213h1.055v1.213H284.288z M284.288,27.246v-6.223h1.055v6.223H284.288z"/>
	<path fill="#1D1D1B" d="M288.677,27.246l-2.367-6.223h1.113l1.336,3.727c0.145,0.402,0.277,0.82,0.398,1.254
		c0.094-0.328,0.225-0.723,0.393-1.184l1.383-3.797h1.084l-2.355,6.223H288.677z"/>
	<path fill="#1D1D1B" d="M297.208,25.242l1.09,0.135c-0.172,0.637-0.49,1.131-0.955,1.482s-1.059,0.527-1.781,0.527
		c-0.91,0-1.632-0.28-2.165-0.841s-0.8-1.347-0.8-2.358c0-1.047,0.27-1.859,0.809-2.438s1.238-0.867,2.098-0.867
		c0.832,0,1.512,0.283,2.039,0.85s0.791,1.363,0.791,2.391c0,0.062-0.002,0.156-0.006,0.281h-4.641
		c0.039,0.684,0.232,1.207,0.58,1.57s0.781,0.545,1.301,0.545c0.387,0,0.717-0.102,0.99-0.305S297.048,25.687,297.208,25.242z
		 M293.745,23.537h3.475c-0.047-0.523-0.18-0.916-0.398-1.178c-0.336-0.406-0.771-0.609-1.307-0.609
		c-0.484,0-0.892,0.162-1.222,0.486S293.78,22.994,293.745,23.537z"/>
	<path fill="#1D1D1B" d="M299.61,27.246v-6.223h0.949v0.943c0.242-0.441,0.466-0.732,0.671-0.873s0.431-0.211,0.677-0.211
		c0.355,0,0.717,0.113,1.084,0.34l-0.363,0.979c-0.258-0.152-0.516-0.229-0.773-0.229c-0.23,0-0.438,0.069-0.621,0.208
		s-0.314,0.331-0.393,0.577c-0.117,0.375-0.176,0.785-0.176,1.23v3.258H299.61z"/>
	<path fill="#1D1D1B" d="M303.196,25.388l1.043-0.164c0.059,0.418,0.222,0.738,0.489,0.961s0.642,0.334,1.122,0.334
		c0.484,0,0.844-0.099,1.078-0.296s0.352-0.429,0.352-0.694c0-0.238-0.104-0.426-0.311-0.562c-0.145-0.094-0.504-0.213-1.078-0.357
		c-0.773-0.195-1.31-0.364-1.608-0.507s-0.525-0.34-0.68-0.592s-0.231-0.53-0.231-0.835c0-0.277,0.063-0.534,0.19-0.771
		s0.3-0.433,0.519-0.589c0.164-0.121,0.388-0.224,0.671-0.308s0.587-0.126,0.911-0.126c0.488,0,0.917,0.07,1.286,0.211
		s0.642,0.331,0.817,0.571s0.297,0.562,0.363,0.964l-1.031,0.141c-0.047-0.32-0.183-0.57-0.407-0.75s-0.542-0.27-0.952-0.27
		c-0.484,0-0.83,0.08-1.037,0.24s-0.311,0.348-0.311,0.562c0,0.137,0.043,0.26,0.129,0.369c0.086,0.113,0.221,0.207,0.404,0.281
		c0.105,0.039,0.416,0.129,0.932,0.27c0.746,0.199,1.267,0.362,1.562,0.489s0.526,0.312,0.694,0.554s0.252,0.543,0.252,0.902
		c0,0.352-0.103,0.683-0.308,0.993s-0.501,0.551-0.888,0.721s-0.824,0.255-1.312,0.255c-0.809,0-1.425-0.168-1.849-0.504
		S303.313,26.048,303.196,25.388z"/>
	<path fill="#1D1D1B" d="M315.899,27.246v-1.729h-3.516v-1.441l3.727-5.455h1.383v5.449h1.066v1.447h-1.066v1.729H315.899z
		 M315.899,24.07v-2.936l-1.975,2.936H315.899z"/>
	<path fill="#1D1D1B" d="M319.356,20.777c0-0.77,0.169-1.34,0.507-1.711s0.796-0.557,1.374-0.557c0.598,0,1.065,0.185,1.403,0.554
		s0.507,0.94,0.507,1.714c0,0.77-0.169,1.34-0.507,1.711s-0.796,0.557-1.374,0.557c-0.598,0-1.065-0.185-1.403-0.554
		S319.356,21.55,319.356,20.777z M320.64,20.765c0,0.559,0.064,0.934,0.193,1.125c0.098,0.141,0.232,0.211,0.404,0.211
		c0.176,0,0.312-0.07,0.41-0.211c0.125-0.191,0.188-0.566,0.188-1.125s-0.062-0.932-0.188-1.119
		c-0.098-0.145-0.234-0.217-0.41-0.217c-0.172,0-0.307,0.07-0.404,0.211C320.704,19.832,320.64,20.207,320.64,20.765z
		 M322.491,27.574h-1.219l4.576-9.064h1.184L322.491,27.574z M325.151,25.318c0-0.77,0.169-1.34,0.507-1.711s0.8-0.557,1.386-0.557
		c0.59,0,1.054,0.186,1.392,0.557s0.507,0.941,0.507,1.711c0,0.773-0.169,1.346-0.507,1.717s-0.796,0.557-1.374,0.557
		c-0.598,0-1.065-0.186-1.403-0.557S325.151,26.091,325.151,25.318z M326.435,25.312c0,0.559,0.064,0.932,0.193,1.119
		c0.098,0.145,0.232,0.217,0.404,0.217c0.176,0,0.311-0.07,0.404-0.211c0.129-0.191,0.193-0.566,0.193-1.125
		s-0.062-0.934-0.188-1.125c-0.098-0.141-0.234-0.211-0.41-0.211s-0.311,0.07-0.404,0.211
		C326.499,24.378,326.435,24.753,326.435,25.312z"/>
</g>
<g>
	<rect x="288.489" y="442.384" fill="none" width="137.41" height="31.156"/>
	<path fill="#1D1D1B" d="M296.884,447.964l1.137,0.287c-0.238,0.934-0.667,1.646-1.286,2.136s-1.376,0.735-2.271,0.735
		c-0.926,0-1.679-0.188-2.259-0.565s-1.021-0.923-1.324-1.638s-0.454-1.482-0.454-2.303c0-0.895,0.171-1.675,0.513-2.341
		s0.828-1.172,1.459-1.518s1.325-0.519,2.083-0.519c0.859,0,1.582,0.219,2.168,0.656s0.994,1.053,1.225,1.846l-1.119,0.264
		c-0.199-0.625-0.488-1.08-0.867-1.365s-0.855-0.428-1.43-0.428c-0.66,0-1.212,0.158-1.655,0.475s-0.755,0.741-0.935,1.274
		s-0.27,1.083-0.27,1.649c0,0.73,0.106,1.368,0.319,1.913s0.544,0.952,0.993,1.222s0.936,0.404,1.459,0.404
		c0.637,0,1.176-0.184,1.617-0.551S296.728,448.687,296.884,447.964z"/>
	<path fill="#1D1D1B" d="M298.894,447.864c0-1.152,0.32-2.006,0.961-2.561c0.535-0.461,1.188-0.691,1.957-0.691
		c0.855,0,1.555,0.28,2.098,0.841s0.814,1.335,0.814,2.323c0,0.801-0.12,1.431-0.36,1.89s-0.59,0.815-1.049,1.069
		s-0.96,0.381-1.503,0.381c-0.871,0-1.575-0.279-2.112-0.838S298.894,448.915,298.894,447.864z M299.978,447.864
		c0,0.797,0.174,1.394,0.521,1.79s0.785,0.595,1.312,0.595c0.523,0,0.959-0.199,1.307-0.598s0.521-1.006,0.521-1.822
		c0-0.77-0.175-1.353-0.524-1.749s-0.784-0.595-1.304-0.595c-0.527,0-0.965,0.197-1.312,0.592S299.978,447.067,299.978,447.864z"/>
	<path fill="#1D1D1B" d="M305.96,450.976v-6.223h0.943v0.873c0.195-0.305,0.455-0.55,0.779-0.735s0.693-0.278,1.107-0.278
		c0.461,0,0.839,0.096,1.134,0.287s0.503,0.459,0.624,0.803c0.492-0.727,1.133-1.09,1.922-1.09c0.617,0,1.092,0.171,1.424,0.513
		s0.498,0.868,0.498,1.579v4.271h-1.049v-3.92c0-0.422-0.034-0.726-0.103-0.911s-0.192-0.335-0.372-0.448s-0.391-0.17-0.633-0.17
		c-0.438,0-0.801,0.146-1.09,0.437s-0.434,0.757-0.434,1.397v3.615h-1.055v-4.043c0-0.469-0.086-0.82-0.258-1.055
		s-0.453-0.352-0.844-0.352c-0.297,0-0.571,0.078-0.823,0.234s-0.435,0.385-0.548,0.686s-0.17,0.734-0.17,1.301v3.229H305.96z"/>
	<path fill="#1D1D1B" d="M315.956,450.976v-6.223h0.943v0.873c0.195-0.305,0.455-0.55,0.779-0.735s0.693-0.278,1.107-0.278
		c0.461,0,0.839,0.096,1.134,0.287s0.503,0.459,0.624,0.803c0.492-0.727,1.133-1.09,1.922-1.09c0.617,0,1.092,0.171,1.424,0.513
		s0.498,0.868,0.498,1.579v4.271h-1.049v-3.92c0-0.422-0.034-0.726-0.103-0.911s-0.192-0.335-0.372-0.448s-0.391-0.17-0.633-0.17
		c-0.438,0-0.801,0.146-1.09,0.437s-0.434,0.757-0.434,1.397v3.615h-1.055v-4.043c0-0.469-0.086-0.82-0.258-1.055
		s-0.453-0.352-0.844-0.352c-0.297,0-0.571,0.078-0.823,0.234s-0.435,0.385-0.548,0.686s-0.17,0.734-0.17,1.301v3.229H315.956z"/>
	<path fill="#1D1D1B" d="M330.03,450.976v-0.914c-0.484,0.703-1.143,1.055-1.975,1.055c-0.367,0-0.71-0.07-1.028-0.211
		s-0.555-0.317-0.709-0.53s-0.263-0.474-0.325-0.782c-0.043-0.207-0.064-0.535-0.064-0.984v-3.855h1.055v3.451
		c0,0.551,0.021,0.922,0.064,1.113c0.066,0.277,0.207,0.495,0.422,0.653s0.48,0.237,0.797,0.237s0.613-0.081,0.891-0.243
		s0.474-0.383,0.589-0.662s0.173-0.685,0.173-1.216v-3.334h1.055v6.223H330.03z"/>
	<path fill="#1D1D1B" d="M332.626,450.976v-6.223h0.949v0.885c0.457-0.684,1.117-1.025,1.98-1.025c0.375,0,0.72,0.067,1.034,0.202
		s0.55,0.312,0.706,0.53s0.266,0.479,0.328,0.779c0.039,0.195,0.059,0.537,0.059,1.025v3.826h-1.055v-3.785
		c0-0.43-0.041-0.751-0.123-0.964s-0.228-0.383-0.437-0.51s-0.454-0.19-0.735-0.19c-0.449,0-0.837,0.143-1.163,0.428
		s-0.489,0.826-0.489,1.623v3.398H332.626z"/>
	<path fill="#1D1D1B" d="M339.306,443.599v-1.213h1.055v1.213H339.306z M339.306,450.976v-6.223h1.055v6.223H339.306z"/>
	<path fill="#1D1D1B" d="M344.269,450.032l0.152,0.932c-0.297,0.062-0.562,0.094-0.797,0.094c-0.383,0-0.68-0.061-0.891-0.182
		s-0.359-0.28-0.445-0.478s-0.129-0.612-0.129-1.245v-3.58h-0.773v-0.82h0.773v-1.541l1.049-0.633v2.174h1.061v0.82h-1.061v3.639
		c0,0.301,0.019,0.494,0.056,0.58s0.098,0.154,0.182,0.205s0.204,0.076,0.36,0.076C343.923,450.073,344.077,450.06,344.269,450.032z
		"/>
	<path fill="#1D1D1B" d="M345.253,453.372l-0.117-0.99c0.23,0.062,0.432,0.094,0.604,0.094c0.234,0,0.422-0.039,0.562-0.117
		s0.256-0.188,0.346-0.328c0.066-0.105,0.174-0.367,0.322-0.785c0.02-0.059,0.051-0.145,0.094-0.258l-2.361-6.234h1.137l1.295,3.604
		c0.168,0.457,0.318,0.938,0.451,1.441c0.121-0.484,0.266-0.957,0.434-1.418l1.33-3.627h1.055l-2.367,6.328
		c-0.254,0.684-0.451,1.154-0.592,1.412c-0.188,0.348-0.402,0.603-0.645,0.765s-0.531,0.243-0.867,0.243
		C345.729,453.501,345.503,453.458,345.253,453.372z"/>
	<path fill="#1D1D1B" d="M358.694,450.208c-0.391,0.332-0.767,0.566-1.128,0.703s-0.749,0.205-1.163,0.205
		c-0.684,0-1.209-0.167-1.576-0.501s-0.551-0.761-0.551-1.28c0-0.305,0.069-0.583,0.208-0.835s0.32-0.454,0.545-0.606
		s0.478-0.268,0.759-0.346c0.207-0.055,0.52-0.107,0.938-0.158c0.852-0.102,1.479-0.223,1.881-0.363
		c0.004-0.145,0.006-0.236,0.006-0.275c0-0.43-0.1-0.732-0.299-0.908c-0.27-0.238-0.67-0.357-1.201-0.357
		c-0.496,0-0.862,0.087-1.099,0.261s-0.411,0.481-0.524,0.923l-1.031-0.141c0.094-0.441,0.248-0.798,0.463-1.069
		s0.525-0.48,0.932-0.627s0.877-0.22,1.412-0.22c0.531,0,0.963,0.062,1.295,0.188s0.576,0.282,0.732,0.472s0.266,0.429,0.328,0.718
		c0.035,0.18,0.053,0.504,0.053,0.973v1.406c0,0.98,0.022,1.601,0.067,1.86s0.134,0.509,0.267,0.747h-1.102
		C358.796,450.757,358.726,450.501,358.694,450.208z M358.606,447.853c-0.383,0.156-0.957,0.289-1.723,0.398
		c-0.434,0.062-0.74,0.133-0.92,0.211s-0.318,0.192-0.416,0.343s-0.146,0.317-0.146,0.501c0,0.281,0.106,0.516,0.319,0.703
		s0.524,0.281,0.935,0.281c0.406,0,0.768-0.089,1.084-0.267s0.549-0.421,0.697-0.729c0.113-0.238,0.17-0.59,0.17-1.055V447.853z"/>
	<path fill="#1D1D1B" d="M361.308,450.976v-6.223h0.949v0.885c0.457-0.684,1.117-1.025,1.98-1.025c0.375,0,0.72,0.067,1.034,0.202
		s0.55,0.312,0.706,0.53s0.266,0.479,0.328,0.779c0.039,0.195,0.059,0.537,0.059,1.025v3.826h-1.055v-3.785
		c0-0.43-0.041-0.751-0.123-0.964s-0.228-0.383-0.437-0.51s-0.454-0.19-0.735-0.19c-0.449,0-0.837,0.143-1.163,0.428
		s-0.489,0.826-0.489,1.623v3.398H361.308z"/>
	<path fill="#1D1D1B" d="M372.019,450.976v-0.785c-0.395,0.617-0.975,0.926-1.74,0.926c-0.496,0-0.952-0.137-1.368-0.41
		s-0.738-0.655-0.967-1.146s-0.343-1.054-0.343-1.69c0-0.621,0.104-1.185,0.311-1.69s0.518-0.894,0.932-1.163
		s0.877-0.404,1.389-0.404c0.375,0,0.709,0.079,1.002,0.237s0.531,0.364,0.715,0.618v-3.082h1.049v8.59H372.019z M368.685,447.87
		c0,0.797,0.168,1.393,0.504,1.787s0.732,0.592,1.189,0.592c0.461,0,0.853-0.188,1.175-0.565s0.483-0.952,0.483-1.726
		c0-0.852-0.164-1.477-0.492-1.875s-0.732-0.598-1.213-0.598c-0.469,0-0.86,0.191-1.175,0.574S368.685,447.046,368.685,447.87z"/>
	<path fill="#1D1D1B" d="M378.124,450.976v-8.59h3.24c0.57,0,1.006,0.027,1.307,0.082c0.422,0.07,0.775,0.204,1.061,0.401
		s0.515,0.474,0.688,0.829s0.261,0.746,0.261,1.172c0,0.73-0.232,1.349-0.697,1.854s-1.305,0.759-2.52,0.759h-2.203v3.492H378.124z
		 M379.261,446.47h2.221c0.734,0,1.256-0.137,1.564-0.41s0.463-0.658,0.463-1.154c0-0.359-0.091-0.667-0.272-0.923
		s-0.421-0.425-0.718-0.507c-0.191-0.051-0.545-0.076-1.061-0.076h-2.197V446.47z"/>
	<path fill="#1D1D1B" d="M390.253,448.972l1.09,0.135c-0.172,0.637-0.49,1.131-0.955,1.482s-1.059,0.527-1.781,0.527
		c-0.91,0-1.632-0.28-2.165-0.841s-0.8-1.347-0.8-2.358c0-1.047,0.27-1.859,0.809-2.438s1.238-0.867,2.098-0.867
		c0.832,0,1.512,0.283,2.039,0.85s0.791,1.363,0.791,2.391c0,0.062-0.002,0.156-0.006,0.281h-4.641
		c0.039,0.684,0.232,1.207,0.58,1.57s0.781,0.545,1.301,0.545c0.387,0,0.717-0.102,0.99-0.305S390.093,449.417,390.253,448.972z
		 M386.79,447.267h3.475c-0.047-0.523-0.18-0.916-0.398-1.178c-0.336-0.406-0.771-0.609-1.307-0.609
		c-0.484,0-0.892,0.162-1.222,0.486S386.825,446.724,386.79,447.267z"/>
	<path fill="#1D1D1B" d="M392.655,450.976v-6.223h0.949v0.943c0.242-0.441,0.466-0.732,0.671-0.873s0.431-0.211,0.677-0.211
		c0.355,0,0.717,0.113,1.084,0.34l-0.363,0.979c-0.258-0.152-0.516-0.229-0.773-0.229c-0.23,0-0.438,0.069-0.621,0.208
		s-0.314,0.331-0.393,0.577c-0.117,0.375-0.176,0.785-0.176,1.23v3.258H392.655z"/>
	<path fill="#1D1D1B" d="M396.241,449.118l1.043-0.164c0.059,0.418,0.222,0.738,0.489,0.961s0.642,0.334,1.122,0.334
		c0.484,0,0.844-0.099,1.078-0.296s0.352-0.429,0.352-0.694c0-0.238-0.104-0.426-0.311-0.562c-0.145-0.094-0.504-0.213-1.078-0.357
		c-0.773-0.195-1.31-0.364-1.608-0.507s-0.525-0.34-0.68-0.592s-0.231-0.53-0.231-0.835c0-0.277,0.063-0.534,0.19-0.771
		s0.3-0.433,0.519-0.589c0.164-0.121,0.388-0.224,0.671-0.308s0.587-0.126,0.911-0.126c0.488,0,0.917,0.07,1.286,0.211
		s0.642,0.331,0.817,0.571s0.297,0.562,0.363,0.964l-1.031,0.141c-0.047-0.32-0.183-0.57-0.407-0.75s-0.542-0.27-0.952-0.27
		c-0.484,0-0.83,0.08-1.037,0.24s-0.311,0.348-0.311,0.562c0,0.137,0.043,0.26,0.129,0.369c0.086,0.113,0.221,0.207,0.404,0.281
		c0.105,0.039,0.416,0.129,0.932,0.27c0.746,0.199,1.267,0.362,1.562,0.489s0.526,0.312,0.694,0.554s0.252,0.543,0.252,0.902
		c0,0.352-0.103,0.683-0.308,0.993s-0.501,0.551-0.888,0.721s-0.824,0.255-1.312,0.255c-0.809,0-1.425-0.168-1.849-0.504
		S396.358,449.778,396.241,449.118z"/>
	<path fill="#1D1D1B" d="M402.271,447.864c0-1.152,0.32-2.006,0.961-2.561c0.535-0.461,1.188-0.691,1.957-0.691
		c0.855,0,1.555,0.28,2.098,0.841s0.814,1.335,0.814,2.323c0,0.801-0.12,1.431-0.36,1.89s-0.59,0.815-1.049,1.069
		s-0.96,0.381-1.503,0.381c-0.871,0-1.575-0.279-2.112-0.838S402.271,448.915,402.271,447.864z M403.354,447.864
		c0,0.797,0.174,1.394,0.521,1.79s0.785,0.595,1.312,0.595c0.523,0,0.959-0.199,1.307-0.598s0.521-1.006,0.521-1.822
		c0-0.77-0.175-1.353-0.524-1.749s-0.784-0.595-1.304-0.595c-0.527,0-0.965,0.197-1.312,0.592S403.354,447.067,403.354,447.864z"/>
	<path fill="#1D1D1B" d="M409.337,450.976v-6.223h0.949v0.885c0.457-0.684,1.117-1.025,1.98-1.025c0.375,0,0.72,0.067,1.034,0.202
		s0.55,0.312,0.706,0.53s0.266,0.479,0.328,0.779c0.039,0.195,0.059,0.537,0.059,1.025v3.826h-1.055v-3.785
		c0-0.43-0.041-0.751-0.123-0.964s-0.228-0.383-0.437-0.51s-0.454-0.19-0.735-0.19c-0.449,0-0.837,0.143-1.163,0.428
		s-0.489,0.826-0.489,1.623v3.398H409.337z"/>
	<path fill="#1D1D1B" d="M420.071,450.208c-0.391,0.332-0.767,0.566-1.128,0.703s-0.749,0.205-1.163,0.205
		c-0.684,0-1.209-0.167-1.576-0.501s-0.551-0.761-0.551-1.28c0-0.305,0.069-0.583,0.208-0.835s0.32-0.454,0.545-0.606
		s0.478-0.268,0.759-0.346c0.207-0.055,0.52-0.107,0.938-0.158c0.852-0.102,1.479-0.223,1.881-0.363
		c0.004-0.145,0.006-0.236,0.006-0.275c0-0.43-0.1-0.732-0.299-0.908c-0.27-0.238-0.67-0.357-1.201-0.357
		c-0.496,0-0.862,0.087-1.099,0.261s-0.411,0.481-0.524,0.923l-1.031-0.141c0.094-0.441,0.248-0.798,0.463-1.069
		s0.525-0.48,0.932-0.627s0.877-0.22,1.412-0.22c0.531,0,0.963,0.062,1.295,0.188s0.576,0.282,0.732,0.472s0.266,0.429,0.328,0.718
		c0.035,0.18,0.053,0.504,0.053,0.973v1.406c0,0.98,0.022,1.601,0.067,1.86s0.134,0.509,0.267,0.747h-1.102
		C420.173,450.757,420.103,450.501,420.071,450.208z M419.983,447.853c-0.383,0.156-0.957,0.289-1.723,0.398
		c-0.434,0.062-0.74,0.133-0.92,0.211s-0.318,0.192-0.416,0.343s-0.146,0.317-0.146,0.501c0,0.281,0.106,0.516,0.319,0.703
		s0.524,0.281,0.935,0.281c0.406,0,0.768-0.089,1.084-0.267s0.549-0.421,0.697-0.729c0.113-0.238,0.17-0.59,0.17-1.055V447.853z"/>
	<path fill="#1D1D1B" d="M422.661,450.976v-8.59h1.055v8.59H422.661z"/>
	<path fill="#1D1D1B" d="M300.159,462.615l1.072-0.094c0.051,0.43,0.169,0.783,0.354,1.059s0.474,0.498,0.864,0.668
		s0.83,0.254,1.318,0.254c0.434,0,0.816-0.064,1.148-0.193s0.579-0.305,0.741-0.529s0.243-0.471,0.243-0.736
		c0-0.27-0.078-0.504-0.234-0.705s-0.414-0.371-0.773-0.508c-0.23-0.09-0.74-0.229-1.529-0.418s-1.342-0.369-1.658-0.537
		c-0.41-0.215-0.716-0.48-0.917-0.799s-0.302-0.676-0.302-1.07c0-0.434,0.123-0.838,0.369-1.215s0.605-0.664,1.078-0.859
		s0.998-0.293,1.576-0.293c0.637,0,1.198,0.104,1.685,0.309s0.86,0.506,1.122,0.904s0.402,0.85,0.422,1.354l-1.09,0.082
		c-0.059-0.543-0.257-0.953-0.595-1.23s-0.837-0.416-1.497-0.416c-0.688,0-1.188,0.127-1.503,0.379s-0.472,0.555-0.472,0.91
		c0,0.309,0.111,0.562,0.334,0.762c0.219,0.199,0.79,0.404,1.714,0.613s1.558,0.391,1.901,0.547c0.5,0.23,0.869,0.523,1.107,0.877
		s0.357,0.76,0.357,1.221c0,0.457-0.131,0.889-0.393,1.293s-0.638,0.719-1.128,0.943s-1.042,0.336-1.655,0.336
		c-0.777,0-1.429-0.113-1.954-0.34s-0.938-0.566-1.236-1.021S300.175,463.189,300.159,462.615z"/>
	<path fill="#1D1D1B" d="M312.675,463.371l1.09,0.135c-0.172,0.637-0.49,1.131-0.955,1.482s-1.059,0.527-1.781,0.527
		c-0.91,0-1.632-0.279-2.165-0.84s-0.8-1.348-0.8-2.359c0-1.047,0.27-1.859,0.809-2.438s1.238-0.867,2.098-0.867
		c0.832,0,1.512,0.283,2.039,0.85s0.791,1.363,0.791,2.391c0,0.062-0.002,0.156-0.006,0.281h-4.641
		c0.039,0.684,0.232,1.207,0.58,1.57s0.781,0.545,1.301,0.545c0.387,0,0.717-0.102,0.99-0.305S312.515,463.816,312.675,463.371z
		 M309.212,461.666h3.475c-0.047-0.523-0.18-0.916-0.398-1.178c-0.336-0.406-0.771-0.609-1.307-0.609
		c-0.484,0-0.892,0.162-1.222,0.486S309.247,461.123,309.212,461.666z"/>
	<path fill="#1D1D1B" d="M315.077,465.375v-6.223h0.949v0.943c0.242-0.441,0.466-0.732,0.671-0.873s0.431-0.211,0.677-0.211
		c0.355,0,0.717,0.113,1.084,0.34l-0.363,0.979c-0.258-0.152-0.516-0.229-0.773-0.229c-0.23,0-0.438,0.07-0.621,0.209
		s-0.314,0.33-0.393,0.576c-0.117,0.375-0.176,0.785-0.176,1.23v3.258H315.077z"/>
	<path fill="#1D1D1B" d="M320.813,465.375l-2.367-6.223h1.113l1.336,3.727c0.145,0.402,0.277,0.82,0.398,1.254
		c0.094-0.328,0.225-0.723,0.393-1.184l1.383-3.797h1.084l-2.355,6.223H320.813z"/>
	<path fill="#1D1D1B" d="M325.091,457.998v-1.213h1.055v1.213H325.091z M325.091,465.375v-6.223h1.055v6.223H325.091z"/>
	<path fill="#1D1D1B" d="M331.812,463.096l1.037,0.135c-0.113,0.715-0.403,1.275-0.87,1.68s-1.04,0.605-1.72,0.605
		c-0.852,0-1.536-0.277-2.054-0.834s-0.776-1.355-0.776-2.395c0-0.672,0.111-1.26,0.334-1.764s0.562-0.881,1.017-1.133
		s0.95-0.379,1.485-0.379c0.676,0,1.229,0.172,1.658,0.514s0.705,0.826,0.826,1.455l-1.025,0.158
		c-0.098-0.418-0.271-0.732-0.519-0.943s-0.548-0.316-0.899-0.316c-0.531,0-0.963,0.191-1.295,0.572s-0.498,0.982-0.498,1.807
		c0,0.836,0.16,1.443,0.48,1.822s0.738,0.568,1.254,0.568c0.414,0,0.76-0.127,1.037-0.381S331.737,463.623,331.812,463.096z"/>
	<path fill="#1D1D1B" d="M338.011,463.371l1.09,0.135c-0.172,0.637-0.49,1.131-0.955,1.482s-1.059,0.527-1.781,0.527
		c-0.91,0-1.632-0.279-2.165-0.84s-0.8-1.348-0.8-2.359c0-1.047,0.27-1.859,0.809-2.438s1.238-0.867,2.098-0.867
		c0.832,0,1.512,0.283,2.039,0.85s0.791,1.363,0.791,2.391c0,0.062-0.002,0.156-0.006,0.281h-4.641
		c0.039,0.684,0.232,1.207,0.58,1.57s0.781,0.545,1.301,0.545c0.387,0,0.717-0.102,0.99-0.305S337.851,463.816,338.011,463.371z
		 M334.548,461.666h3.475c-0.047-0.523-0.18-0.916-0.398-1.178c-0.336-0.406-0.771-0.609-1.307-0.609
		c-0.484,0-0.892,0.162-1.222,0.486S334.583,461.123,334.548,461.666z"/>
	<path fill="#1D1D1B" d="M345.394,465.375l-2.279-8.59h1.166l1.307,5.631c0.141,0.59,0.262,1.176,0.363,1.758
		c0.219-0.918,0.348-1.447,0.387-1.588l1.635-5.801h1.371l1.23,4.348c0.309,1.078,0.531,2.092,0.668,3.041
		c0.109-0.543,0.252-1.166,0.428-1.869l1.348-5.52h1.143l-2.355,8.59h-1.096l-1.811-6.545c-0.152-0.547-0.242-0.883-0.27-1.008
		c-0.09,0.395-0.174,0.73-0.252,1.008l-1.822,6.545H345.394z"/>
	<path fill="#1D1D1B" d="M354.476,462.264c0-1.152,0.32-2.006,0.961-2.561c0.535-0.461,1.188-0.691,1.957-0.691
		c0.855,0,1.555,0.281,2.098,0.842s0.814,1.334,0.814,2.322c0,0.801-0.12,1.432-0.36,1.891s-0.59,0.814-1.049,1.068
		s-0.96,0.381-1.503,0.381c-0.871,0-1.575-0.279-2.112-0.838S354.476,463.314,354.476,462.264z M355.56,462.264
		c0,0.797,0.174,1.395,0.521,1.791s0.785,0.594,1.312,0.594c0.523,0,0.959-0.199,1.307-0.598s0.521-1.006,0.521-1.822
		c0-0.77-0.175-1.352-0.524-1.748s-0.784-0.596-1.304-0.596c-0.527,0-0.965,0.197-1.312,0.592S355.56,461.467,355.56,462.264z"/>
	<path fill="#1D1D1B" d="M361.53,465.375v-6.223h0.949v0.943c0.242-0.441,0.466-0.732,0.671-0.873s0.431-0.211,0.677-0.211
		c0.355,0,0.717,0.113,1.084,0.34l-0.363,0.979c-0.258-0.152-0.516-0.229-0.773-0.229c-0.23,0-0.438,0.07-0.621,0.209
		s-0.314,0.33-0.393,0.576c-0.117,0.375-0.176,0.785-0.176,1.23v3.258H361.53z"/>
	<path fill="#1D1D1B" d="M365.544,465.375v-8.59h1.055v4.898l2.496-2.531h1.365l-2.379,2.309l2.619,3.914h-1.301l-2.057-3.182
		l-0.744,0.715v2.467H365.544z"/>
	<path fill="#1D1D1B" d="M375.798,463.371l1.09,0.135c-0.172,0.637-0.49,1.131-0.955,1.482s-1.059,0.527-1.781,0.527
		c-0.91,0-1.632-0.279-2.165-0.84s-0.8-1.348-0.8-2.359c0-1.047,0.27-1.859,0.809-2.438s1.238-0.867,2.098-0.867
		c0.832,0,1.512,0.283,2.039,0.85s0.791,1.363,0.791,2.391c0,0.062-0.002,0.156-0.006,0.281h-4.641
		c0.039,0.684,0.232,1.207,0.58,1.57s0.781,0.545,1.301,0.545c0.387,0,0.717-0.102,0.99-0.305S375.638,463.816,375.798,463.371z
		 M372.335,461.666h3.475c-0.047-0.523-0.18-0.916-0.398-1.178c-0.336-0.406-0.771-0.609-1.307-0.609
		c-0.484,0-0.892,0.162-1.222,0.486S372.37,461.123,372.335,461.666z"/>
	<path fill="#1D1D1B" d="M378.2,465.375v-6.223h0.949v0.943c0.242-0.441,0.466-0.732,0.671-0.873s0.431-0.211,0.677-0.211
		c0.355,0,0.717,0.113,1.084,0.34l-0.363,0.979c-0.258-0.152-0.516-0.229-0.773-0.229c-0.23,0-0.438,0.07-0.621,0.209
		s-0.314,0.33-0.393,0.576c-0.117,0.375-0.176,0.785-0.176,1.23v3.258H378.2z"/>
	<path fill="#1D1D1B" d="M381.786,463.518l1.043-0.164c0.059,0.418,0.222,0.738,0.489,0.961s0.642,0.334,1.122,0.334
		c0.484,0,0.844-0.098,1.078-0.295s0.352-0.43,0.352-0.695c0-0.238-0.104-0.426-0.311-0.562c-0.145-0.094-0.504-0.213-1.078-0.357
		c-0.773-0.195-1.31-0.363-1.608-0.506s-0.525-0.34-0.68-0.592s-0.231-0.531-0.231-0.836c0-0.277,0.063-0.533,0.19-0.77
		s0.3-0.434,0.519-0.59c0.164-0.121,0.388-0.223,0.671-0.307s0.587-0.127,0.911-0.127c0.488,0,0.917,0.07,1.286,0.211
		s0.642,0.332,0.817,0.572s0.297,0.561,0.363,0.963l-1.031,0.141c-0.047-0.32-0.183-0.57-0.407-0.75s-0.542-0.27-0.952-0.27
		c-0.484,0-0.83,0.08-1.037,0.24s-0.311,0.348-0.311,0.562c0,0.137,0.043,0.26,0.129,0.369c0.086,0.113,0.221,0.207,0.404,0.281
		c0.105,0.039,0.416,0.129,0.932,0.27c0.746,0.199,1.267,0.363,1.562,0.49s0.526,0.311,0.694,0.553s0.252,0.543,0.252,0.902
		c0,0.352-0.103,0.684-0.308,0.994s-0.501,0.551-0.888,0.721s-0.824,0.254-1.312,0.254c-0.809,0-1.425-0.168-1.849-0.504
		S381.903,464.178,381.786,463.518z"/>
	<path fill="#1D1D1B" d="M396.821,463.846v1.529h-5.771c0.062-0.578,0.25-1.125,0.562-1.643s0.93-1.205,1.852-2.061
		c0.742-0.691,1.197-1.16,1.365-1.406c0.227-0.34,0.34-0.676,0.34-1.008c0-0.367-0.099-0.648-0.296-0.846s-0.47-0.297-0.817-0.297
		c-0.344,0-0.617,0.104-0.82,0.311s-0.32,0.551-0.352,1.031l-1.641-0.164c0.098-0.906,0.404-1.557,0.92-1.951
		s1.16-0.592,1.934-0.592c0.848,0,1.514,0.229,1.998,0.686s0.727,1.025,0.727,1.705c0,0.387-0.069,0.756-0.208,1.105
		s-0.358,0.715-0.659,1.098c-0.199,0.254-0.559,0.619-1.078,1.096s-0.849,0.793-0.987,0.949s-0.251,0.309-0.337,0.457H396.821z"/>
	<path fill="#1D1D1B" d="M397.876,463.096l1.594-0.193c0.051,0.406,0.188,0.717,0.41,0.932s0.492,0.322,0.809,0.322
		c0.34,0,0.626-0.129,0.858-0.387s0.349-0.605,0.349-1.043c0-0.414-0.111-0.742-0.334-0.984s-0.494-0.363-0.814-0.363
		c-0.211,0-0.463,0.041-0.756,0.123l0.182-1.342c0.445,0.012,0.785-0.084,1.02-0.289s0.352-0.479,0.352-0.818
		c0-0.289-0.086-0.52-0.258-0.691s-0.4-0.258-0.686-0.258c-0.281,0-0.521,0.098-0.721,0.293s-0.32,0.48-0.363,0.855l-1.518-0.258
		c0.105-0.52,0.265-0.934,0.478-1.244s0.51-0.555,0.891-0.732s0.808-0.268,1.28-0.268c0.809,0,1.457,0.258,1.945,0.773
		c0.402,0.422,0.604,0.898,0.604,1.43c0,0.754-0.412,1.355-1.236,1.805c0.492,0.105,0.886,0.342,1.181,0.709s0.442,0.811,0.442,1.33
		c0,0.754-0.275,1.396-0.826,1.928s-1.236,0.797-2.057,0.797c-0.777,0-1.422-0.223-1.934-0.67S397.958,463.818,397.876,463.096z"/>
	<path fill="#1D1D1B" d="M404.62,458.906c0-0.77,0.169-1.34,0.507-1.711s0.796-0.557,1.374-0.557c0.598,0,1.065,0.186,1.403,0.555
		s0.507,0.939,0.507,1.713c0,0.77-0.169,1.34-0.507,1.711s-0.796,0.557-1.374,0.557c-0.598,0-1.065-0.184-1.403-0.553
		S404.62,459.68,404.62,458.906z M405.903,458.895c0,0.559,0.064,0.934,0.193,1.125c0.098,0.141,0.232,0.211,0.404,0.211
		c0.176,0,0.312-0.07,0.41-0.211c0.125-0.191,0.188-0.566,0.188-1.125s-0.062-0.932-0.188-1.119
		c-0.098-0.145-0.234-0.217-0.41-0.217c-0.172,0-0.307,0.07-0.404,0.211C405.968,457.961,405.903,458.336,405.903,458.895z
		 M407.755,465.703h-1.219l4.576-9.064h1.184L407.755,465.703z M410.415,463.447c0-0.77,0.169-1.34,0.507-1.711
		s0.8-0.557,1.386-0.557c0.59,0,1.054,0.186,1.392,0.557s0.507,0.941,0.507,1.711c0,0.773-0.169,1.346-0.507,1.717
		s-0.796,0.557-1.374,0.557c-0.598,0-1.065-0.186-1.403-0.557S410.415,464.221,410.415,463.447z M411.698,463.441
		c0,0.559,0.064,0.932,0.193,1.119c0.098,0.145,0.232,0.217,0.404,0.217c0.176,0,0.311-0.07,0.404-0.211
		c0.129-0.191,0.193-0.566,0.193-1.125s-0.062-0.934-0.188-1.125c-0.098-0.141-0.234-0.211-0.41-0.211s-0.311,0.07-0.404,0.211
		C411.763,462.508,411.698,462.883,411.698,463.441z"/>
</g>
<g>
</g>
<g>
</g>
<g>
</g>
<g>
</g>
<g>
</g>
<g>
</g>
<g>
</g>
</svg>
