<svg enable-background="new 0 0 542.446 469.784" height="469.784" viewBox="0 0 542.446 469.784" width="542.446" xmlns="http://www.w3.org/2000/svg" xmlns:xlink="http://www.w3.org/1999/xlink"><clipPath id="a"><path d="m-16.101 28.574h658v419h-658z"/></clipPath><clipPath id="b"><path d="m-16.101 28.574h658v419h-658z"/></clipPath><clipPath id="c"><path d="m-16.101 28.574h658v419h-658z"/></clipPath><clipPath id="d"><path d="m-16.101 28.574h658v419h-658z"/></clipPath><clipPath id="e"><path d="m-16.101 28.574h658v419h-658z"/></clipPath><clipPath id="f"><path d="m-16.101 28.574h658v419h-658z"/></clipPath><clipPath id="g"><path d="m-16.101 28.574h658v419h-658z"/></clipPath><path clip-path="url(#a)" clip-rule="evenodd" d="m312.899 41.574c108.524 0 196.5 87.976 196.5 196.5 0 49.979-19.045 98.081-53.258 134.514l-143.242-134.514z" fill="#3c659d" fill-rule="evenodd"/><path clip-path="url(#a)" d="m312.899 41.574c108.523 0 196.5 87.977 196.5 196.5 0 49.979-19.045 98.081-53.258 134.514l-143.242-134.514z" fill="none" stroke="#fff" stroke-linejoin="round" stroke-miterlimit="10"/><path clip-path="url(#b)" clip-rule="evenodd" d="m456.142 372.588c-67.771 72.168-178.648 82.648-258.742 24.457l115.5-158.971z" fill="#4673b1" fill-rule="evenodd"/><path clip-path="url(#b)" d="m456.142 372.588c-67.771 72.168-178.648 82.65-258.742 24.457l115.5-158.971z" fill="none" stroke="#fff" stroke-linejoin="round" stroke-miterlimit="10"/><path clip-path="url(#c)" clip-rule="evenodd" d="m197.399 397.045c-40.434-29.377-68.154-73.057-77.52-122.15l193.02-36.821z" fill="#4e7dbe" fill-rule="evenodd"/><path clip-path="url(#c)" d="m197.399 397.045c-40.434-29.377-68.154-73.057-77.52-122.15l193.02-36.821z" fill="none" stroke="#fff" stroke-linejoin="round" stroke-miterlimit="10"/><path clip-path="url(#d)" clip-rule="evenodd" d="m119.88 274.895c-8.568-44.917-1.204-91.416 20.825-131.486l172.194 94.665z" fill="#5685c4" fill-rule="evenodd"/><path clip-path="url(#d)" d="m119.88 274.895c-8.568-44.917-1.204-91.416 20.825-131.486l172.194 94.665z" fill="none" stroke="#fff" stroke-linejoin="round" stroke-miterlimit="10"/><path clip-path="url(#e)" clip-rule="evenodd" d="m140.705 143.409c15.945-29.004 38.958-53.511 66.904-71.245l105.29 165.91z" fill="#92a8d7" fill-rule="evenodd"/><path clip-path="url(#e)" d="m140.705 143.41c15.945-29.005 38.958-53.512 66.904-71.246l105.29 165.91z" fill="none" stroke="#fff" stroke-linejoin="round" stroke-miterlimit="10"/><path clip-path="url(#f)" clip-rule="evenodd" d="m207.609 72.164c17.41-11.049 36.45-19.288 56.422-24.416l48.868 190.326z" fill="#b5c2e2" fill-rule="evenodd"/><path clip-path="url(#f)" d="m207.609 72.164c17.41-11.049 36.45-19.288 56.422-24.416l48.868 190.326z" fill="none" stroke="#fff" stroke-linejoin="round" stroke-miterlimit="10"/><path clip-path="url(#g)" clip-rule="evenodd" d="m264.032 47.748c15.966-4.1 32.384-6.174 48.868-6.174v196.5z" fill="#cdd5e9" fill-rule="evenodd"/><path clip-path="url(#g)" d="m264.032 47.748c15.966-4.1 32.384-6.174 48.868-6.174v196.5z" fill="none" stroke="#fff" stroke-linejoin="round" stroke-miterlimit="10"/><path d="m441.079 70.943h125.899v27.777h-125.899z" fill="none"/><path d="m442.005 79.535v-8.59h3.24c.57 0 1.006.027 1.307.082.422.07.775.204 1.061.401s.515.474.688.829.261.746.261 1.172c0 .73-.232 1.349-.697 1.854s-1.305.759-2.52.759h-2.203v3.492h-1.137zm1.137-4.506h2.221c.734 0 1.256-.137 1.564-.41s.463-.658.463-1.154c0-.359-.091-.667-.272-.923s-.421-.425-.718-.507c-.191-.051-.545-.076-1.061-.076h-2.197z" fill="#1d1d1b"/><path d="m449.862 79.535v-6.223h.949v.943c.242-.441.466-.732.671-.873s.431-.211.677-.211c.355 0 .717.113 1.084.34l-.363.979c-.258-.152-.516-.229-.773-.229-.23 0-.438.069-.621.208s-.314.331-.393.577c-.117.375-.176.785-.176 1.23v3.258h-1.055z" fill="#1d1d1b"/><path d="m453.478 76.423c0-1.152.32-2.006.961-2.561.535-.461 1.188-.691 1.957-.691.855 0 1.555.28 2.098.841s.814 1.335.814 2.323c0 .801-.12 1.431-.36 1.89s-.59.815-1.049 1.069-.96.381-1.503.381c-.871 0-1.575-.279-2.112-.838s-.806-1.363-.806-2.414zm1.084 0c0 .797.174 1.394.521 1.79s.785.595 1.312.595c.523 0 .959-.199 1.307-.598s.521-1.006.521-1.822c0-.77-.175-1.353-.524-1.749s-.784-.595-1.304-.595c-.527 0-.965.197-1.312.592s-.521.99-.521 1.787z" fill="#1d1d1b"/><path d="m460.796 79.535v-5.402h-.932v-.82h.932v-.663c0-.418.037-.729.111-.932.102-.273.28-.495.536-.665s.614-.255 1.075-.255c.297 0 .625.035.984.105l-.158.92c-.219-.039-.426-.059-.621-.059-.32 0-.547.068-.68.205s-.199.393-.199.768v.574h1.213v.82h-1.213v5.402h-1.048z" fill="#1d1d1b"/><path d="m468.138 77.531 1.09.135c-.172.637-.49 1.131-.955 1.482s-1.059.527-1.781.527c-.91 0-1.632-.28-2.165-.841s-.8-1.347-.8-2.358c0-1.047.27-1.859.809-2.438s1.238-.867 2.098-.867c.832 0 1.512.283 2.039.85s.791 1.363.791 2.391c0 .062-.002.156-.006.281h-4.641c.039.684.232 1.207.58 1.57s.781.545 1.301.545c.387 0 .717-.102.99-.305s.49-.527.65-.972zm-3.463-1.705h3.475c-.047-.523-.18-.916-.398-1.178-.336-.406-.771-.609-1.307-.609-.484 0-.892.162-1.222.486s-.513.758-.548 1.301z" fill="#1d1d1b"/><path d="m470.13 77.677 1.043-.164c.059.418.222.738.489.961s.642.334 1.122.334c.484 0 .844-.099 1.078-.296s.352-.429.352-.694c0-.238-.104-.426-.311-.562-.145-.094-.504-.213-1.078-.357-.773-.195-1.31-.364-1.608-.507s-.525-.34-.68-.592-.231-.53-.231-.835c0-.277.063-.534.19-.771s.3-.433.519-.589c.164-.121.388-.224.671-.308s.587-.126.911-.126c.488 0 .917.07 1.286.211s.642.331.817.571.297.562.363.964l-1.031.141c-.047-.32-.183-.57-.407-.75s-.542-.27-.952-.27c-.484 0-.83.08-1.037.24s-.311.348-.311.562c0 .137.043.26.129.369.086.113.221.207.404.281.105.039.416.129.932.27.746.199 1.267.362 1.562.489s.526.312.694.554.252.543.252.902c0 .352-.103.683-.308.993s-.501.551-.888.721-.824.255-1.312.255c-.809 0-1.425-.168-1.849-.504s-.694-.833-.811-1.493z" fill="#1d1d1b"/><path d="m476.13 77.677 1.043-.164c.059.418.222.738.489.961s.642.334 1.122.334c.484 0 .844-.099 1.078-.296s.352-.429.352-.694c0-.238-.104-.426-.311-.562-.145-.094-.504-.213-1.078-.357-.773-.195-1.31-.364-1.608-.507s-.525-.34-.68-.592-.231-.53-.231-.835c0-.277.063-.534.19-.771s.3-.433.519-.589c.164-.121.388-.224.671-.308s.587-.126.911-.126c.488 0 .917.07 1.286.211s.642.331.817.571.297.562.363.964l-1.031.141c-.047-.32-.183-.57-.407-.75s-.542-.27-.952-.27c-.484 0-.83.08-1.037.24s-.311.348-.311.562c0 .137.043.26.129.369.086.113.221.207.404.281.105.039.416.129.932.27.746.199 1.267.362 1.562.489s.526.312.694.554.252.543.252.902c0 .352-.103.683-.308.993s-.501.551-.888.721-.824.255-1.312.255c-.809 0-1.425-.168-1.849-.504s-.694-.833-.811-1.493z" fill="#1d1d1b"/><path d="m482.558 72.158v-1.213h1.055v1.213zm0 7.377v-6.223h1.055v6.223z" fill="#1d1d1b"/><path d="m484.825 76.423c0-1.152.32-2.006.961-2.561.535-.461 1.188-.691 1.957-.691.855 0 1.555.28 2.098.841s.814 1.335.814 2.323c0 .801-.12 1.431-.36 1.89s-.59.815-1.049 1.069-.96.381-1.503.381c-.871 0-1.575-.279-2.112-.838s-.806-1.363-.806-2.414zm1.084 0c0 .797.174 1.394.521 1.79s.785.595 1.312.595c.523 0 .959-.199 1.307-.598s.521-1.006.521-1.822c0-.77-.175-1.353-.524-1.749s-.784-.595-1.304-.595c-.527 0-.965.197-1.312.592s-.521.99-.521 1.787z" fill="#1d1d1b"/><path d="m491.892 79.535v-6.223h.949v.885c.457-.684 1.117-1.025 1.98-1.025.375 0 .72.067 1.034.202s.55.312.706.53.266.479.328.779c.039.195.059.537.059 1.025v3.826h-1.055v-3.784c0-.43-.041-.751-.123-.964s-.228-.383-.437-.51-.454-.19-.735-.19c-.449 0-.837.143-1.163.428s-.489.826-.489 1.623v3.398z" fill="#1d1d1b"/><path d="m502.626 78.767c-.391.332-.767.566-1.128.703s-.749.205-1.163.205c-.684 0-1.209-.167-1.576-.501s-.551-.761-.551-1.28c0-.305.069-.583.208-.835s.32-.454.545-.606.478-.268.759-.346c.207-.055.52-.107.938-.158.852-.102 1.479-.223 1.881-.363.004-.145.006-.236.006-.275 0-.43-.1-.732-.299-.908-.27-.238-.67-.357-1.201-.357-.496 0-.862.087-1.099.261s-.411.481-.524.923l-1.031-.141c.094-.441.248-.798.463-1.069s.525-.48.932-.627.877-.22 1.412-.22c.531 0 .963.062 1.295.188s.576.282.732.472.266.429.328.718c.035.18.053.504.053.973v1.406c0 .98.022 1.601.067 1.86s.134.509.267.747h-1.102c-.11-.221-.181-.477-.212-.77zm-.088-2.355c-.383.156-.957.289-1.723.398-.434.062-.74.133-.92.211s-.318.192-.416.343-.146.317-.146.501c0 .281.106.516.319.703s.524.281.935.281c.406 0 .768-.089 1.084-.267s.549-.421.697-.729c.113-.238.17-.59.17-1.055z" fill="#1d1d1b"/><path d="m505.216 79.535v-8.59h1.055v8.59z" fill="#1d1d1b"/><path d="m507.483 77.677 1.043-.164c.059.418.222.738.489.961s.642.334 1.122.334c.484 0 .844-.099 1.078-.296s.352-.429.352-.694c0-.238-.104-.426-.311-.562-.145-.094-.504-.213-1.078-.357-.773-.195-1.31-.364-1.608-.507s-.525-.34-.68-.592-.231-.53-.231-.835c0-.277.063-.534.19-.771s.3-.433.519-.589c.164-.121.388-.224.671-.308s.587-.126.911-.126c.488 0 .917.07 1.286.211s.642.331.817.571.297.562.363.964l-1.031.141c-.047-.32-.183-.57-.407-.75s-.542-.27-.952-.27c-.484 0-.83.08-1.037.24s-.311.348-.311.562c0 .137.043.26.129.369.086.113.221.207.404.281.105.039.416.129.932.27.746.199 1.267.362 1.562.489s.526.312.694.554.252.543.252.902c0 .352-.103.683-.308.993s-.501.551-.888.721-.824.255-1.312.255c-.809 0-1.425-.168-1.849-.504s-.693-.833-.811-1.493z" fill="#1d1d1b"/><path d="m516.899 77.255 1.594-.193c.051.406.188.717.41.932s.492.322.809.322c.34 0 .626-.129.858-.387s.349-.605.349-1.043c0-.414-.111-.742-.334-.984s-.494-.363-.814-.363c-.211 0-.463.041-.756.123l.182-1.342c.445.012.785-.085 1.02-.29s.352-.478.352-.817c0-.289-.086-.52-.258-.691s-.4-.258-.686-.258c-.281 0-.521.098-.721.293s-.32.48-.363.855l-1.518-.258c.105-.52.265-.935.478-1.245s.51-.555.891-.732.808-.267 1.28-.267c.809 0 1.457.258 1.945.773.402.422.604.898.604 1.43 0 .754-.412 1.355-1.236 1.805.492.105.886.342 1.181.709s.442.811.442 1.33c0 .754-.275 1.396-.826 1.928s-1.236.797-2.057.797c-.777 0-1.422-.224-1.934-.671s-.81-1.033-.892-1.756z" fill="#1d1d1b"/><path d="m523.632 72.591v-1.529h5.631v1.195c-.465.457-.938 1.113-1.418 1.969s-.847 1.765-1.099 2.728-.376 1.823-.372 2.581h-1.588c.027-1.188.272-2.398.735-3.633s1.081-2.338 1.854-3.311z" fill="#1d1d1b"/><path d="m530.317 73.066c0-.77.169-1.34.507-1.711s.796-.557 1.374-.557c.598 0 1.065.185 1.403.554s.507.94.507 1.714c0 .77-.169 1.34-.507 1.711s-.796.557-1.374.557c-.598 0-1.065-.185-1.403-.554s-.507-.941-.507-1.714zm1.284-.012c0 .559.064.934.193 1.125.098.141.232.211.404.211.176 0 .312-.07.41-.211.125-.191.188-.566.188-1.125s-.062-.932-.188-1.119c-.098-.145-.234-.217-.41-.217-.172 0-.307.07-.404.211-.129.192-.193.567-.193 1.125zm1.851 6.809h-1.219l4.576-9.064h1.184zm2.66-2.256c0-.77.169-1.34.507-1.711s.8-.557 1.386-.557c.59 0 1.054.186 1.392.557s.507.941.507 1.711c0 .773-.169 1.346-.507 1.717s-.796.557-1.374.557c-.598 0-1.065-.186-1.403-.557s-.508-.944-.508-1.717zm1.284-.006c0 .559.064.932.193 1.119.098.145.232.217.404.217.176 0 .311-.07.404-.211.129-.191.193-.566.193-1.125s-.062-.934-.188-1.125c-.098-.141-.234-.211-.41-.211s-.311.07-.404.211c-.128.191-.192.566-.192 1.125z" fill="#1d1d1b"/><path d="m153.116 44.911h99.281v26.48h-99.281z" fill="none"/><path d="m153.995 53.503v-8.59h1.137v7.576h4.23v1.014z" fill="#1d1d1b"/><path d="m164.641 52.735c-.391.332-.767.566-1.128.703s-.749.205-1.163.205c-.684 0-1.209-.167-1.576-.501s-.551-.761-.551-1.28c0-.305.069-.583.208-.835s.32-.454.545-.606.478-.268.759-.346c.207-.055.52-.107.938-.158.852-.102 1.479-.223 1.881-.363.004-.145.006-.236.006-.275 0-.43-.1-.732-.299-.908-.27-.238-.67-.357-1.201-.357-.496 0-.862.087-1.099.261s-.411.481-.524.923l-1.031-.141c.094-.441.248-.798.463-1.069s.525-.48.932-.627.877-.22 1.412-.22c.531 0 .963.062 1.295.188s.576.282.732.472.266.429.328.718c.035.18.053.504.053.973v1.406c0 .98.022 1.601.067 1.86s.134.509.267.747h-1.102c-.11-.221-.181-.477-.212-.77zm-.088-2.355c-.383.156-.957.289-1.723.398-.434.062-.74.133-.92.211s-.318.192-.416.343-.146.317-.146.501c0 .281.106.516.319.703s.524.281.935.281c.406 0 .768-.089 1.084-.267s.549-.421.697-.729c.113-.238.17-.59.17-1.055z" fill="#1d1d1b"/><path d="m168.227 53.503h-.979v-8.59h1.055v3.064c.445-.559 1.014-.838 1.705-.838.383 0 .745.077 1.087.231s.623.371.844.65.394.616.519 1.011.188.816.188 1.266c0 1.066-.264 1.891-.791 2.473s-1.16.873-1.898.873c-.734 0-1.311-.307-1.729-.92v.78zm-.012-3.158c0 .746.102 1.285.305 1.617.332.543.781.814 1.348.814.461 0 .859-.2 1.195-.601s.504-.997.504-1.79c0-.812-.161-1.412-.483-1.799s-.712-.58-1.169-.58c-.461 0-.859.2-1.195.601s-.505.98-.505 1.738z" fill="#1d1d1b"/><path d="m173.536 50.392c0-1.152.32-2.006.961-2.561.535-.461 1.188-.691 1.957-.691.855 0 1.555.28 2.098.841s.814 1.335.814 2.323c0 .801-.12 1.431-.36 1.89s-.59.815-1.049 1.069-.96.381-1.503.381c-.871 0-1.575-.279-2.112-.838s-.806-1.364-.806-2.414zm1.084 0c0 .797.174 1.394.521 1.79s.785.595 1.312.595c.523 0 .959-.199 1.307-.598s.521-1.006.521-1.822c0-.77-.175-1.353-.524-1.749s-.784-.595-1.304-.595c-.527 0-.965.197-1.312.592s-.521.99-.521 1.787z" fill="#1d1d1b"/><path d="m184.68 53.503v-.914c-.484.703-1.143 1.055-1.975 1.055-.367 0-.71-.07-1.028-.211s-.555-.317-.709-.53-.263-.474-.325-.782c-.043-.207-.064-.535-.064-.984v-3.857h1.055v3.451c0 .551.021.922.064 1.113.066.277.207.495.422.653s.48.237.797.237.613-.081.891-.243.474-.383.589-.662.173-.685.173-1.216v-3.333h1.055v6.223z" fill="#1d1d1b"/><path d="m187.264 53.503v-6.223h.949v.943c.242-.441.466-.732.671-.873s.431-.211.677-.211c.355 0 .717.113 1.084.34l-.363.979c-.258-.152-.516-.229-.773-.229-.23 0-.438.069-.621.208s-.314.331-.393.577c-.117.375-.176.785-.176 1.23v3.258h-1.055z" fill="#1d1d1b"/><path d="m195.532 51.499 1.09.135c-.172.637-.49 1.131-.955 1.482s-1.059.527-1.781.527c-.91 0-1.632-.28-2.165-.841s-.8-1.347-.8-2.358c0-1.047.27-1.859.809-2.438s1.238-.867 2.098-.867c.832 0 1.512.283 2.039.85s.791 1.363.791 2.391c0 .062-.002.156-.006.281h-4.641c.039.684.232 1.207.58 1.57s.781.545 1.301.545c.387 0 .717-.102.99-.305s.49-.527.65-.972zm-3.463-1.705h3.475c-.047-.523-.18-.916-.398-1.178-.336-.406-.771-.609-1.307-.609-.484 0-.892.162-1.222.486s-.513.758-.548 1.301z" fill="#1d1d1b"/><path d="m197.934 53.503v-6.223h.949v.943c.242-.441.466-.732.671-.873s.431-.211.677-.211c.355 0 .717.113 1.084.34l-.363.979c-.258-.152-.516-.229-.773-.229-.23 0-.438.069-.621.208s-.314.331-.393.577c-.117.375-.176.785-.176 1.23v3.258h-1.055z" fill="#1d1d1b"/><path d="m201.52 51.646 1.043-.164c.059.418.222.738.489.961s.642.334 1.122.334c.484 0 .844-.099 1.078-.296s.352-.429.352-.694c0-.238-.104-.426-.311-.562-.145-.094-.504-.213-1.078-.357-.773-.195-1.31-.364-1.608-.507s-.525-.34-.68-.592-.231-.53-.231-.835c0-.277.063-.534.19-.771s.3-.433.519-.589c.164-.121.388-.224.671-.308s.587-.126.911-.126c.488 0 .917.07 1.286.211s.642.331.817.571.297.562.363.964l-1.031.141c-.047-.32-.183-.57-.407-.75s-.542-.27-.952-.27c-.484 0-.83.08-1.037.24s-.311.348-.311.562c0 .137.043.26.129.369.086.113.221.207.404.281.105.039.416.129.932.27.746.199 1.267.362 1.562.489s.526.312.694.554.252.543.252.902c0 .352-.103.683-.308.993s-.501.551-.888.721-.824.255-1.312.255c-.809 0-1.425-.168-1.849-.504s-.694-.833-.811-1.493z" fill="#1d1d1b"/><path d="m216.194 47.207h-3.022l-.168 1.199c.168-.024.312-.024.504-.024.743 0 1.499.168 2.051.563.588.396.947 1.043.947 1.955 0 1.451-1.247 2.734-3.346 2.734-.948 0-1.739-.216-2.171-.444l.323-1.367c.349.168 1.056.384 1.764.384.755 0 1.559-.36 1.559-1.187 0-.804-.636-1.295-2.194-1.295-.432 0-.731.024-1.056.072l.516-4.09h4.294v1.5z" fill="#1d1d1b"/><path d="m221.75 47.89c0 1.631-1.031 2.482-2.159 2.482-1.187 0-2.122-.887-2.122-2.351 0-1.391.852-2.447 2.183-2.447 1.343.001 2.098.985 2.098 2.316zm-2.926.084c0 .815.276 1.403.804 1.403.516 0 .768-.528.768-1.403 0-.792-.216-1.403-.779-1.403-.541 0-.793.623-.793 1.403zm.864 5.661 4.474-8.06h.983l-4.486 8.06zm7.676-2.507c0 1.631-1.032 2.482-2.159 2.482-1.176 0-2.11-.888-2.123-2.351 0-1.391.852-2.447 2.183-2.447 1.343.001 2.099.985 2.099 2.316zm-2.915.084c-.012.815.264 1.403.792 1.403.516 0 .768-.527.768-1.403 0-.792-.204-1.403-.768-1.403-.552 0-.792.624-.792 1.403z" fill="#1d1d1b"/><path d="m64.626 90.796h99.281v37.981h-99.281z" fill="none"/><path d="m65.165 96.628 1.072-.094c.051.43.169.782.354 1.058s.474.498.864.668.83.255 1.318.255c.434 0 .816-.064 1.148-.193s.579-.306.741-.53.243-.47.243-.735c0-.27-.078-.505-.234-.706s-.414-.37-.773-.507c-.23-.09-.74-.229-1.529-.419s-1.342-.368-1.658-.536c-.41-.215-.716-.481-.917-.8s-.302-.675-.302-1.069c0-.434.123-.839.369-1.216s.605-.663 1.078-.858.998-.293 1.576-.293c.637 0 1.198.103 1.685.308s.86.507 1.122.905.402.85.422 1.354l-1.09.082c-.059-.543-.257-.953-.595-1.23s-.837-.416-1.497-.416c-.688 0-1.188.126-1.503.378s-.472.556-.472.911c0 .309.111.562.334.762.219.199.79.403 1.714.612s1.558.392 1.901.548c.5.23.869.522 1.107.876s.357.761.357 1.222c0 .457-.131.888-.393 1.292s-.638.719-1.128.943-1.042.337-1.655.337c-.777 0-1.429-.113-1.954-.34s-.938-.567-1.236-1.022-.453-.973-.469-1.547z" fill="#1d1d1b"/><path d="m77.481 98.62c-.391.332-.767.566-1.128.703s-.749.205-1.163.205c-.684 0-1.209-.167-1.576-.501s-.551-.761-.551-1.28c0-.305.069-.583.208-.835s.32-.454.545-.606.478-.268.759-.346c.207-.055.52-.107.938-.158.852-.102 1.479-.223 1.881-.363.004-.145.006-.236.006-.275 0-.43-.1-.732-.299-.908-.27-.238-.67-.357-1.201-.357-.496 0-.862.087-1.099.261s-.411.481-.524.923l-1.031-.141c.094-.441.248-.798.463-1.069s.525-.48.932-.627.877-.22 1.412-.22c.531 0 .963.062 1.295.188s.576.282.732.472.266.429.328.718c.035.18.053.504.053.973v1.406c0 .98.022 1.601.067 1.86s.134.509.267.747h-1.102c-.11-.221-.18-.477-.212-.77zm-.087-2.355c-.383.156-.957.289-1.723.398-.434.062-.74.133-.92.211s-.318.192-.416.343-.146.317-.146.501c0 .281.106.516.319.703s.524.281.935.281c.406 0 .768-.089 1.084-.267s.549-.421.697-.729c.113-.238.17-.59.17-1.055z" fill="#1d1d1b"/><path d="m80.071 99.388v-8.59h1.055v8.59z" fill="#1d1d1b"/><path d="m87.021 97.384 1.09.135c-.172.637-.49 1.131-.955 1.482s-1.059.527-1.781.527c-.91 0-1.632-.28-2.165-.841s-.8-1.347-.8-2.358c0-1.047.27-1.859.809-2.438s1.238-.867 2.098-.867c.832 0 1.512.283 2.039.85s.791 1.363.791 2.391c0 .062-.002.156-.006.281h-4.641c.039.684.232 1.207.58 1.57s.781.545 1.301.545c.387 0 .717-.102.99-.305s.489-.527.65-.972zm-3.463-1.705h3.475c-.047-.523-.18-.916-.398-1.178-.336-.406-.771-.609-1.307-.609-.484 0-.892.162-1.222.486s-.513.758-.548 1.301z" fill="#1d1d1b"/><path d="m89.013 97.53 1.043-.164c.059.418.222.738.489.961s.642.334 1.122.334c.484 0 .844-.099 1.078-.296s.352-.429.352-.694c0-.238-.104-.426-.311-.562-.145-.094-.504-.213-1.078-.357-.773-.195-1.31-.364-1.608-.507s-.525-.34-.68-.592-.231-.53-.231-.835c0-.277.063-.534.19-.771s.3-.433.519-.589c.164-.121.388-.224.671-.308s.587-.126.911-.126c.488 0 .917.07 1.286.211s.642.331.817.571.297.562.363.964l-1.031.141c-.047-.32-.183-.57-.407-.75s-.542-.27-.952-.27c-.484 0-.83.08-1.037.24s-.311.348-.311.562c0 .137.043.26.129.369.086.113.221.207.404.281.105.039.416.129.932.27.746.199 1.267.362 1.562.489s.526.312.694.554.252.543.252.902c0 .352-.103.683-.308.993s-.501.551-.888.721-.824.255-1.312.255c-.809 0-1.425-.168-1.849-.504s-.694-.833-.811-1.493z" fill="#1d1d1b"/><path d="m100.403 99.388-2.279-8.59h1.166l1.307 5.631c.141.59.262 1.176.363 1.758.219-.918.348-1.447.387-1.588l1.635-5.801h1.371l1.23 4.348c.309 1.078.531 2.092.668 3.041.109-.543.252-1.166.428-1.869l1.348-5.52h1.143l-2.355 8.59h-1.096l-1.811-6.545c-.152-.547-.242-.883-.27-1.008-.09.395-.174.73-.252 1.008l-1.822 6.545z" fill="#1d1d1b"/><path d="m109.485 96.276c0-1.152.32-2.006.961-2.561.535-.461 1.188-.691 1.957-.691.855 0 1.555.28 2.098.841s.814 1.335.814 2.323c0 .801-.12 1.431-.36 1.89s-.59.815-1.049 1.069-.96.381-1.503.381c-.871 0-1.575-.279-2.112-.838s-.806-1.363-.806-2.414zm1.084 0c0 .797.174 1.394.521 1.79s.785.595 1.312.595c.523 0 .959-.199 1.307-.598s.521-1.006.521-1.822c0-.77-.175-1.353-.524-1.749s-.784-.595-1.304-.595c-.527 0-.965.197-1.312.592s-.521.99-.521 1.787z" fill="#1d1d1b"/><path d="m116.54 99.388v-6.223h.949v.943c.242-.441.466-.732.671-.873s.431-.211.677-.211c.355 0 .717.113 1.084.34l-.363.979c-.258-.152-.516-.229-.773-.229-.23 0-.438.069-.621.208s-.314.331-.393.577c-.117.375-.176.785-.176 1.23v3.258h-1.055z" fill="#1d1d1b"/><path d="m120.554 99.388v-8.59h1.055v4.898l2.496-2.531h1.365l-2.379 2.309 2.619 3.914h-1.301l-2.057-3.182-.744.715v2.467z" fill="#1d1d1b"/><path d="m130.808 97.384 1.09.135c-.172.637-.49 1.131-.955 1.482s-1.059.527-1.781.527c-.91 0-1.632-.28-2.165-.841s-.8-1.347-.8-2.358c0-1.047.27-1.859.809-2.438s1.238-.867 2.098-.867c.832 0 1.512.283 2.039.85s.791 1.363.791 2.391c0 .062-.002.156-.006.281h-4.641c.039.684.232 1.207.58 1.57s.781.545 1.301.545c.387 0 .717-.102.99-.305s.489-.527.65-.972zm-3.463-1.705h3.475c-.047-.523-.18-.916-.398-1.178-.336-.406-.771-.609-1.307-.609-.484 0-.892.162-1.222.486s-.513.758-.548 1.301z" fill="#1d1d1b"/><path d="m133.21 99.388v-6.223h.949v.943c.242-.441.466-.732.671-.873s.431-.211.677-.211c.355 0 .717.113 1.084.34l-.363.979c-.258-.152-.516-.229-.773-.229-.23 0-.438.069-.621.208s-.314.331-.393.577c-.117.375-.176.785-.176 1.23v3.258h-1.055z" fill="#1d1d1b"/><path d="m136.796 97.53 1.043-.164c.059.418.222.738.489.961s.642.334 1.122.334c.484 0 .844-.099 1.078-.296s.352-.429.352-.694c0-.238-.104-.426-.311-.562-.145-.094-.504-.213-1.078-.357-.773-.195-1.31-.364-1.608-.507s-.525-.34-.68-.592-.231-.53-.231-.835c0-.277.063-.534.19-.771s.3-.433.519-.589c.164-.121.388-.224.671-.308s.587-.126.911-.126c.488 0 .917.07 1.286.211s.642.331.817.571.297.562.363.964l-1.031.141c-.047-.32-.183-.57-.407-.75s-.542-.27-.952-.27c-.484 0-.83.08-1.037.24s-.311.348-.311.562c0 .137.043.26.129.369.086.113.221.207.404.281.105.039.416.129.932.27.746.199 1.267.362 1.562.489s.526.312.694.554.252.543.252.902c0 .352-.103.683-.308.993s-.501.551-.888.721-.824.255-1.312.255c-.809 0-1.425-.168-1.849-.504s-.694-.833-.811-1.493z" fill="#1d1d1b"/><path d="m147.683 94.753c-.426-.18-.735-.427-.929-.741s-.29-.659-.29-1.034c0-.641.224-1.17.671-1.588s1.083-.627 1.907-.627c.816 0 1.45.209 1.901.627s.677.947.677 1.588c0 .398-.104.753-.311 1.063s-.498.548-.873.712c.477.191.839.471 1.087.838s.372.791.372 1.271c0 .793-.253 1.438-.759 1.934s-1.179.744-2.019.744c-.781 0-1.432-.205-1.951-.615-.613-.484-.92-1.148-.92-1.992 0-.465.115-.892.346-1.28s.595-.689 1.091-.9zm.187 2.021c0 .453.116.807.349 1.061s.522.381.87.381c.34 0 .621-.122.844-.366s.334-.597.334-1.058c0-.402-.113-.726-.34-.97s-.514-.366-.861-.366c-.402 0-.702.139-.899.416s-.297.578-.297.902zm.152-3.679c0 .328.093.584.278.768s.433.275.741.275c.312 0 .562-.093.75-.278s.281-.442.281-.771c0-.309-.093-.556-.278-.741s-.431-.278-.735-.278c-.316 0-.568.094-.756.281s-.281.435-.281.744z" fill="#1d1d1b"/><path d="m152.956 92.919c0-.77.169-1.34.507-1.711s.796-.557 1.374-.557c.598 0 1.065.185 1.403.554s.507.94.507 1.714c0 .77-.169 1.34-.507 1.711s-.796.557-1.374.557c-.598 0-1.065-.185-1.403-.554s-.507-.941-.507-1.714zm1.283-.012c0 .559.064.934.193 1.125.098.141.232.211.404.211.176 0 .312-.07.41-.211.125-.191.188-.566.188-1.125s-.062-.932-.188-1.119c-.098-.145-.234-.217-.41-.217-.172 0-.307.07-.404.211-.128.192-.193.567-.193 1.125zm1.852 6.809h-1.219l4.576-9.064h1.184zm2.66-2.256c0-.77.169-1.34.507-1.711s.8-.557 1.386-.557c.59 0 1.054.186 1.392.557s.507.941.507 1.711c0 .773-.169 1.346-.507 1.717s-.796.557-1.374.557c-.598 0-1.065-.186-1.403-.557s-.508-.944-.508-1.717zm1.283-.006c0 .559.064.932.193 1.119.098.145.232.217.404.217.176 0 .311-.07.404-.211.129-.191.193-.566.193-1.125s-.062-.934-.188-1.125c-.098-.141-.234-.211-.41-.211s-.311.07-.404.211c-.127.192-.192.567-.192 1.125z" fill="#1d1d1b"/><path d="m-4.316 176.127h116.583v67.197h-116.583z" fill="none"/><path d="m29.321 184.719v-7.576h-2.83v-1.014h6.809v1.014h-2.842v7.576z" fill="#1d1d1b"/><path d="m37.261 182.715 1.09.135c-.172.637-.49 1.131-.955 1.482s-1.059.527-1.781.527c-.91 0-1.632-.28-2.165-.841s-.8-1.347-.8-2.358c0-1.047.27-1.859.809-2.438s1.238-.867 2.098-.867c.832 0 1.512.283 2.039.85s.791 1.363.791 2.391c0 .062-.002.156-.006.281h-4.641c.039.684.232 1.207.58 1.57s.781.545 1.301.545c.387 0 .717-.102.99-.305s.49-.527.65-.972zm-3.463-1.705h3.475c-.047-.523-.18-.916-.398-1.178-.336-.406-.771-.609-1.307-.609-.484 0-.892.162-1.222.486s-.513.758-.548 1.301z" fill="#1d1d1b"/><path d="m43.735 182.439 1.037.135c-.113.715-.403 1.274-.87 1.679s-1.04.606-1.72.606c-.852 0-1.536-.278-2.054-.835s-.776-1.354-.776-2.394c0-.672.111-1.26.334-1.764s.562-.882 1.017-1.134.95-.378 1.485-.378c.676 0 1.229.171 1.658.513s.705.827.826 1.456l-1.025.158c-.098-.418-.271-.732-.519-.943s-.548-.316-.899-.316c-.531 0-.963.19-1.295.571s-.498.983-.498 1.808c0 .836.16 1.443.48 1.822s.738.568 1.254.568c.414 0 .76-.127 1.037-.381s.454-.643.528-1.171z" fill="#1d1d1b"/><path d="m45.675 184.719v-8.59h1.055v3.082c.492-.57 1.113-.855 1.863-.855.461 0 .861.091 1.201.272s.583.433.729.753.22.785.22 1.395v3.943h-1.055v-3.943c0-.527-.114-.911-.343-1.151s-.552-.36-.97-.36c-.312 0-.606.081-.882.243s-.472.382-.589.659-.176.66-.176 1.148v3.404z" fill="#1d1d1b"/><path d="m52.349 184.719v-6.223h.949v.885c.457-.684 1.117-1.025 1.98-1.025.375 0 .72.067 1.034.202s.55.312.706.53.266.479.328.779c.039.195.059.537.059 1.025v3.826h-1.055v-3.785c0-.43-.041-.751-.123-.964s-.228-.383-.437-.51-.454-.19-.735-.19c-.449 0-.837.143-1.163.428s-.489.826-.489 1.623v3.398h-1.054z" fill="#1d1d1b"/><path d="m59.028 177.342v-1.213h1.055v1.213zm0 7.377v-6.223h1.055v6.223z" fill="#1d1d1b"/><path d="m65.749 182.439 1.037.135c-.113.715-.403 1.274-.87 1.679s-1.04.606-1.72.606c-.852 0-1.536-.278-2.054-.835s-.776-1.354-.776-2.394c0-.672.111-1.26.334-1.764s.562-.882 1.017-1.134.95-.378 1.485-.378c.676 0 1.229.171 1.658.513s.705.827.826 1.456l-1.025.158c-.098-.418-.271-.732-.519-.943s-.548-.316-.899-.316c-.531 0-.963.19-1.295.571s-.498.983-.498 1.808c0 .836.16 1.443.48 1.822s.738.568 1.254.568c.414 0 .76-.127 1.037-.381s.454-.643.528-1.171z" fill="#1d1d1b"/><path d="m67.694 177.342v-1.213h1.055v1.213zm0 7.377v-6.223h1.055v6.223z" fill="#1d1d1b"/><path d="m74.415 183.951c-.391.332-.767.566-1.128.703s-.749.205-1.163.205c-.684 0-1.209-.167-1.576-.501s-.551-.761-.551-1.28c0-.305.069-.583.208-.835s.32-.454.545-.606.478-.268.759-.346c.207-.055.52-.107.938-.158.852-.102 1.479-.223 1.881-.363.004-.145.006-.236.006-.275 0-.43-.1-.732-.299-.908-.27-.238-.67-.357-1.201-.357-.496 0-.862.087-1.099.261s-.411.481-.524.923l-1.031-.141c.094-.441.248-.798.463-1.069s.525-.48.932-.627.877-.22 1.412-.22c.531 0 .963.062 1.295.188s.576.282.732.472.266.429.328.718c.035.18.053.504.053.973v1.406c0 .98.022 1.601.067 1.86s.134.509.267.747h-1.102c-.11-.221-.181-.477-.212-.77zm-.088-2.355c-.383.156-.957.289-1.723.398-.434.062-.74.133-.92.211s-.318.192-.416.343-.146.317-.146.501c0 .281.106.516.319.703s.524.281.935.281c.406 0 .768-.089 1.084-.267s.549-.421.697-.729c.113-.238.17-.59.17-1.055z" fill="#1d1d1b"/><path d="m77.028 184.719v-6.223h.949v.885c.457-.684 1.117-1.025 1.98-1.025.375 0 .72.067 1.034.202s.55.312.706.53.266.479.328.779c.039.195.059.537.059 1.025v3.826h-1.054v-3.785c0-.43-.041-.751-.123-.964s-.228-.383-.437-.51-.454-.19-.735-.19c-.449 0-.837.143-1.163.428s-.489.826-.489 1.623v3.398h-1.055z" fill="#1d1d1b"/><path d="m83.28 182.861 1.043-.164c.059.418.222.738.489.961s.642.334 1.122.334c.484 0 .844-.099 1.078-.296s.352-.429.352-.694c0-.238-.104-.426-.311-.562-.145-.094-.504-.213-1.078-.357-.773-.195-1.31-.364-1.608-.507s-.525-.34-.68-.592-.231-.53-.231-.835c0-.277.063-.534.19-.771s.3-.433.519-.589c.164-.121.388-.224.671-.308s.587-.126.911-.126c.488 0 .917.07 1.286.211s.642.331.817.571.297.562.363.964l-1.031.141c-.047-.32-.183-.57-.407-.75s-.542-.27-.952-.27c-.484 0-.83.08-1.037.24s-.311.348-.311.562c0 .137.043.26.129.369.086.113.221.207.404.281.105.039.416.129.932.27.746.199 1.267.362 1.562.489s.526.312.694.554.252.543.252.902c0 .352-.103.683-.308.993s-.501.551-.888.721-.824.255-1.312.255c-.809 0-1.425-.168-1.849-.504s-.694-.833-.811-1.493z" fill="#1d1d1b"/><path d="m97.097 183.951c-.391.332-.767.566-1.128.703s-.749.205-1.163.205c-.684 0-1.209-.167-1.576-.501s-.551-.761-.551-1.28c0-.305.069-.583.208-.835s.32-.454.545-.606.478-.268.759-.346c.207-.055.52-.107.938-.158.852-.102 1.479-.223 1.881-.363.004-.145.006-.236.006-.275 0-.43-.1-.732-.299-.908-.27-.238-.67-.357-1.201-.357-.496 0-.862.087-1.099.261s-.411.481-.524.923l-1.031-.141c.094-.441.248-.798.463-1.069s.525-.48.932-.627.877-.22 1.412-.22c.531 0 .963.062 1.295.188s.576.282.732.472.266.429.328.718c.035.18.053.504.053.973v1.406c0 .98.022 1.601.067 1.86s.134.509.267.747h-1.102c-.111-.221-.181-.477-.212-.77zm-.088-2.355c-.383.156-.957.289-1.723.398-.434.062-.74.133-.92.211s-.318.192-.416.343-.146.317-.146.501c0 .281.106.516.319.703s.524.281.935.281c.406 0 .768-.089 1.084-.267s.549-.421.697-.729c.113-.238.17-.59.17-1.055z" fill="#1d1d1b"/><path d="m99.71 184.719v-6.223h.949v.885c.457-.684 1.117-1.025 1.98-1.025.375 0 .72.067 1.034.202s.55.312.706.53.266.479.328.779c.039.195.059.537.059 1.025v3.826h-1.055v-3.785c0-.43-.041-.751-.123-.964s-.228-.383-.437-.51-.454-.19-.735-.19c-.449 0-.837.143-1.163.428s-.489.826-.489 1.623v3.398h-1.054z" fill="#1d1d1b"/><path d="m110.421 184.719v-.785c-.395.617-.975.926-1.74.926-.496 0-.952-.137-1.368-.41s-.738-.655-.967-1.146-.343-1.054-.343-1.69c0-.621.104-1.185.311-1.69s.518-.894.932-1.163.877-.404 1.389-.404c.375 0 .709.079 1.002.237s.531.364.715.618v-3.082h1.049v8.59h-.98zm-3.334-3.106c0 .797.168 1.393.504 1.787s.732.592 1.189.592c.461 0 .853-.188 1.175-.565s.483-.952.483-1.726c0-.852-.164-1.477-.492-1.875s-.732-.598-1.213-.598c-.469 0-.86.191-1.175.574s-.471.987-.471 1.811z" fill="#1d1d1b"/><path d="m4.003 199.119v-7.576h-2.83v-1.014h6.809v1.014h-2.842v7.576z" fill="#1d1d1b"/><path d="m8.556 199.119v-6.223h.949v.943c.242-.441.466-.732.671-.873s.431-.211.677-.211c.355 0 .717.113 1.084.34l-.363.979c-.258-.152-.516-.229-.773-.229-.23 0-.438.069-.621.208s-.314.331-.393.577c-.117.375-.176.785-.176 1.23v3.258h-1.055z" fill="#1d1d1b"/><path d="m16.624 198.351c-.391.332-.767.566-1.128.703s-.749.205-1.163.205c-.684 0-1.209-.167-1.576-.501s-.551-.761-.551-1.28c0-.305.069-.583.208-.835s.32-.454.545-.606.478-.268.759-.346c.207-.055.52-.107.938-.158.852-.102 1.479-.223 1.881-.363.004-.145.006-.236.006-.275 0-.43-.1-.732-.299-.908-.27-.238-.67-.357-1.201-.357-.496 0-.862.087-1.099.261s-.411.481-.524.923l-1.031-.141c.094-.441.248-.798.463-1.069s.525-.48.932-.627.877-.22 1.412-.22c.531 0 .963.062 1.295.188s.576.282.732.472.266.429.328.718c.035.18.053.504.053.973v1.406c0 .98.022 1.601.067 1.86s.134.509.267.747h-1.102c-.11-.221-.181-.477-.212-.77zm-.088-2.355c-.383.156-.957.289-1.723.398-.434.062-.74.133-.92.211s-.318.192-.416.343-.146.317-.146.501c0 .281.106.516.319.703s.524.281.935.281c.406 0 .768-.089 1.084-.267s.549-.421.697-.729c.113-.238.17-.59.17-1.055z" fill="#1d1d1b"/><path d="m23.274 199.119v-.785c-.395.617-.975.926-1.74.926-.496 0-.952-.137-1.368-.41s-.738-.655-.967-1.146-.343-1.054-.343-1.69c0-.621.104-1.185.311-1.69s.518-.894.932-1.163.877-.404 1.389-.404c.375 0 .709.079 1.002.237s.531.364.715.618v-3.082h1.049v8.59h-.98zm-3.334-3.106c0 .797.168 1.393.504 1.787s.732.592 1.189.592c.461 0 .853-.188 1.175-.565s.483-.952.483-1.726c0-.852-.164-1.477-.492-1.875s-.732-.598-1.213-.598c-.469 0-.86.191-1.175.574s-.471.987-.471 1.811z" fill="#1d1d1b"/><path d="m30.171 197.115 1.09.135c-.172.637-.49 1.131-.955 1.482s-1.059.527-1.781.527c-.91 0-1.632-.28-2.165-.841s-.8-1.347-.8-2.358c0-1.047.27-1.859.809-2.438s1.238-.867 2.098-.867c.832 0 1.512.283 2.039.85s.791 1.363.791 2.391c0 .062-.002.156-.006.281h-4.641c.039.684.232 1.207.58 1.57s.781.545 1.301.545c.387 0 .717-.102.99-.305s.49-.527.65-.972zm-3.463-1.705h3.475c-.047-.523-.18-.916-.398-1.178-.336-.406-.771-.609-1.307-.609-.484 0-.892.162-1.222.486s-.513.758-.548 1.301z" fill="#1d1d1b"/><path d="m32.163 197.261 1.043-.164c.059.418.222.738.489.961s.642.334 1.122.334c.484 0 .844-.099 1.078-.296s.352-.429.352-.694c0-.238-.104-.426-.311-.562-.145-.094-.504-.213-1.078-.357-.773-.195-1.31-.364-1.608-.507s-.525-.34-.68-.592-.231-.53-.231-.835c0-.277.063-.534.19-.771s.3-.433.519-.589c.164-.121.388-.224.671-.308s.587-.126.911-.126c.488 0 .917.07 1.286.211s.642.331.817.571.297.562.363.964l-1.031.141c-.047-.32-.183-.57-.407-.75s-.542-.27-.952-.27c-.484 0-.83.08-1.037.24s-.311.348-.311.562c0 .137.043.26.129.369.086.113.221.207.404.281.105.039.416.129.932.27.746.199 1.267.362 1.562.489s.526.312.694.554.252.543.252.902c0 .352-.103.683-.308.993s-.501.551-.888.721-.824.255-1.312.255c-.809 0-1.425-.168-1.849-.504s-.694-.833-.811-1.493z" fill="#1d1d1b"/><path d="m43.554 199.119-2.279-8.59h1.166l1.307 5.631c.141.59.262 1.176.363 1.758.219-.918.348-1.447.387-1.588l1.635-5.801h1.371l1.23 4.348c.309 1.078.531 2.092.668 3.041.109-.543.252-1.166.428-1.869l1.348-5.52h1.143l-2.355 8.59h-1.096l-1.811-6.545c-.152-.547-.242-.883-.27-1.008-.09.395-.174.73-.252 1.008l-1.822 6.545z" fill="#1d1d1b"/><path d="m52.636 196.007c0-1.152.32-2.006.961-2.561.535-.461 1.188-.691 1.957-.691.855 0 1.555.28 2.098.841s.814 1.335.814 2.323c0 .801-.12 1.431-.36 1.89s-.59.815-1.049 1.069-.96.381-1.503.381c-.871 0-1.575-.279-2.112-.838s-.806-1.363-.806-2.414zm1.084 0c0 .797.174 1.394.521 1.79s.785.595 1.312.595c.523 0 .959-.199 1.307-.598s.521-1.006.521-1.822c0-.77-.175-1.353-.524-1.749s-.784-.595-1.304-.595c-.527 0-.965.197-1.312.592s-.521.99-.521 1.787z" fill="#1d1d1b"/><path d="m59.69 199.119v-6.223h.949v.943c.242-.441.466-.732.671-.873s.431-.211.677-.211c.355 0 .717.113 1.084.34l-.363.979c-.258-.152-.516-.229-.773-.229-.23 0-.438.069-.621.208s-.314.331-.393.577c-.117.375-.176.785-.176 1.23v3.258h-1.055z" fill="#1d1d1b"/><path d="m63.704 199.119v-8.59h1.055v4.898l2.496-2.531h1.365l-2.379 2.309 2.619 3.914h-1.3l-2.057-3.182-.744.715v2.467z" fill="#1d1d1b"/><path d="m73.958 197.115 1.09.135c-.172.637-.49 1.131-.955 1.482s-1.059.527-1.781.527c-.91 0-1.632-.28-2.165-.841s-.8-1.347-.8-2.358c0-1.047.27-1.859.809-2.438s1.238-.867 2.098-.867c.832 0 1.512.283 2.039.85s.791 1.363.791 2.391c0 .062-.002.156-.006.281h-4.641c.039.684.232 1.207.58 1.57s.781.545 1.301.545c.387 0 .717-.102.99-.305s.49-.527.65-.972zm-3.463-1.705h3.475c-.047-.523-.18-.916-.398-1.178-.336-.406-.771-.609-1.307-.609-.484 0-.892.162-1.222.486s-.513.758-.548 1.301z" fill="#1d1d1b"/><path d="m76.36 199.119v-6.223h.949v.943c.242-.441.466-.732.671-.873s.431-.211.677-.211c.355 0 .717.113 1.084.34l-.363.979c-.258-.152-.516-.229-.773-.229-.23 0-.438.069-.621.208s-.314.331-.393.577c-.117.375-.176.785-.176 1.23v3.258h-1.055z" fill="#1d1d1b"/><path d="m79.946 197.261 1.043-.164c.059.418.222.738.489.961s.642.334 1.122.334c.484 0 .844-.099 1.078-.296s.352-.429.352-.694c0-.238-.104-.426-.311-.562-.145-.094-.504-.213-1.078-.357-.773-.195-1.31-.364-1.608-.507s-.525-.34-.68-.592-.231-.53-.231-.835c0-.277.063-.534.19-.771s.3-.433.519-.589c.164-.121.388-.224.671-.308s.587-.126.911-.126c.488 0 .917.07 1.286.211s.642.331.817.571.297.562.363.964l-1.031.141c-.047-.32-.183-.57-.407-.75s-.542-.27-.952-.27c-.484 0-.83.08-1.037.24s-.311.348-.311.562c0 .137.043.26.129.369.086.113.221.207.404.281.105.039.416.129.932.27.746.199 1.267.362 1.562.489s.526.312.694.554.252.543.252.902c0 .352-.103.683-.308.993s-.501.551-.888.721-.824.255-1.312.255c-.809 0-1.425-.168-1.849-.504s-.694-.833-.811-1.493z" fill="#1d1d1b"/><path d="m93.634 199.119h-1.646v-6.205c-.602.562-1.311.979-2.127 1.248v-1.494c.43-.141.896-.407 1.4-.8s.85-.851 1.037-1.374h1.336z" fill="#1d1d1b"/><path d="m99.646 199.119h-1.646v-6.205c-.602.562-1.311.979-2.127 1.248v-1.494c.43-.141.896-.407 1.4-.8s.85-.851 1.037-1.374h1.336z" fill="#1d1d1b"/><path d="m102.118 192.65c0-.77.169-1.34.507-1.711s.796-.557 1.374-.557c.598 0 1.065.185 1.403.554s.507.94.507 1.714c0 .77-.169 1.34-.507 1.711s-.796.557-1.374.557c-.598 0-1.065-.185-1.403-.554s-.507-.941-.507-1.714zm1.283-.012c0 .559.064.934.193 1.125.098.141.232.211.404.211.176 0 .312-.07.41-.211.125-.191.188-.566.188-1.125s-.062-.932-.188-1.119c-.098-.145-.234-.217-.41-.217-.172 0-.307.07-.404.211-.128.192-.193.567-.193 1.125zm1.852 6.809h-1.219l4.576-9.064h1.184zm2.66-2.256c0-.77.169-1.34.507-1.711s.8-.557 1.386-.557c.59 0 1.054.186 1.392.557s.507.941.507 1.711c0 .773-.169 1.346-.507 1.717s-.796.557-1.374.557c-.598 0-1.065-.186-1.403-.557s-.508-.944-.508-1.717zm1.283-.006c0 .559.064.932.193 1.119.098.145.232.217.404.217.176 0 .311-.07.404-.211.129-.191.193-.566.193-1.125s-.062-.934-.188-1.125c-.098-.141-.234-.211-.41-.211s-.311.07-.404.211c-.127.191-.192.566-.192 1.125z" fill="#1d1d1b"/><path d="m23.022 343.033h116.583v67.197h-116.583z" fill="none"/><path d="m59.782 351.625v-8.59h1.711l2.033 6.082c.188.566.324.99.41 1.271.098-.312.25-.771.457-1.377l2.057-5.977h1.529v8.59h-1.096v-7.189l-2.496 7.189h-1.025l-2.484-7.312v7.312h-1.096z" fill="#1d1d1b"/><path d="m73.739 350.857c-.391.332-.767.566-1.128.703s-.749.205-1.163.205c-.684 0-1.209-.167-1.576-.501s-.551-.761-.551-1.28c0-.305.069-.583.208-.835s.32-.454.545-.606.478-.268.759-.346c.207-.055.52-.107.938-.158.852-.102 1.479-.223 1.881-.363.004-.145.006-.236.006-.275 0-.43-.1-.732-.299-.908-.27-.238-.67-.357-1.201-.357-.496 0-.862.087-1.099.261s-.411.481-.524.923l-1.031-.141c.094-.441.248-.798.463-1.069s.525-.48.932-.627.877-.22 1.412-.22c.531 0 .963.062 1.295.188s.576.282.732.472.266.429.328.718c.035.18.053.504.053.973v1.406c0 .98.022 1.601.067 1.86s.134.509.267.747h-1.103c-.109-.221-.179-.477-.211-.77zm-.088-2.355c-.383.156-.957.289-1.723.398-.434.062-.74.133-.92.211s-.318.192-.416.343-.146.317-.146.501c0 .281.106.516.319.703s.524.281.935.281c.406 0 .768-.089 1.084-.267s.549-.421.697-.729c.113-.238.17-.59.17-1.055z" fill="#1d1d1b"/><path d="m76.353 351.625v-6.223h.949v.885c.457-.684 1.117-1.025 1.98-1.025.375 0 .72.067 1.034.202s.55.312.706.53.266.479.328.779c.039.195.059.537.059 1.025v3.826h-1.055v-3.785c0-.43-.041-.751-.123-.964s-.228-.383-.437-.51-.454-.19-.735-.19c-.449 0-.837.143-1.163.428s-.489.826-.489 1.623v3.398h-1.054z" fill="#1d1d1b"/><path d="m87.087 350.857c-.391.332-.767.566-1.128.703s-.749.205-1.163.205c-.684 0-1.209-.167-1.576-.501s-.551-.761-.551-1.28c0-.305.069-.583.208-.835s.32-.454.545-.606.478-.268.759-.346c.207-.055.52-.107.938-.158.852-.102 1.479-.223 1.881-.363.004-.145.006-.236.006-.275 0-.43-.1-.732-.299-.908-.27-.238-.67-.357-1.201-.357-.496 0-.862.087-1.099.261s-.411.481-.524.923l-1.031-.141c.094-.441.248-.798.463-1.069s.525-.48.932-.627.877-.22 1.412-.22c.531 0 .963.062 1.295.188s.576.282.732.472.266.429.328.718c.035.18.053.504.053.973v1.406c0 .98.022 1.601.067 1.86s.134.509.267.747h-1.102c-.111-.221-.181-.477-.212-.77zm-.088-2.355c-.383.156-.957.289-1.723.398-.434.062-.74.133-.92.211s-.318.192-.416.343-.146.317-.146.501c0 .281.106.516.319.703s.524.281.935.281c.406 0 .768-.089 1.084-.267s.549-.421.697-.729c.113-.238.17-.59.17-1.055z" fill="#1d1d1b"/><path d="m89.507 352.141 1.025.152c.043.316.162.547.357.691.262.195.619.293 1.072.293.488 0 .865-.098 1.131-.293s.445-.469.539-.82c.055-.215.08-.666.076-1.354-.461.543-1.035.814-1.723.814-.855 0-1.518-.309-1.986-.926s-.703-1.357-.703-2.221c0-.594.107-1.142.322-1.644s.526-.89.935-1.163.888-.41 1.438-.41c.734 0 1.34.297 1.816.891v-.75h.973v5.379c0 .969-.099 1.655-.296 2.06s-.51.724-.938.958-.954.352-1.579.352c-.742 0-1.342-.167-1.799-.501s-.676-.837-.66-1.508zm.873-3.739c0 .816.162 1.412.486 1.787s.73.562 1.219.562c.484 0 .891-.187 1.219-.56s.492-.958.492-1.755c0-.762-.169-1.336-.507-1.723s-.745-.58-1.222-.58c-.469 0-.867.19-1.195.571s-.492.948-.492 1.698z" fill="#1d1d1b"/><path d="m100.634 349.621 1.09.135c-.172.637-.49 1.131-.955 1.482s-1.059.527-1.781.527c-.91 0-1.632-.28-2.165-.841s-.8-1.347-.8-2.358c0-1.047.27-1.859.809-2.438s1.238-.867 2.098-.867c.832 0 1.512.283 2.039.85s.791 1.363.791 2.391c0 .062-.002.156-.006.281h-4.641c.039.684.232 1.207.58 1.57s.781.545 1.301.545c.387 0 .717-.102.99-.305s.49-.527.65-.972zm-3.463-1.705h3.475c-.047-.523-.18-.916-.398-1.178-.336-.406-.771-.609-1.307-.609-.484 0-.892.162-1.222.486s-.513.758-.548 1.301z" fill="#1d1d1b"/><path d="m103.036 351.625v-6.223h.949v.943c.242-.441.466-.732.671-.873s.431-.211.677-.211c.355 0 .717.113 1.084.34l-.363.979c-.258-.152-.516-.229-.773-.229-.23 0-.438.069-.621.208s-.314.331-.393.577c-.117.375-.176.785-.176 1.23v3.258h-1.055z" fill="#1d1d1b"/><path d="m106.622 349.768 1.043-.164c.059.418.222.738.489.961s.642.334 1.122.334c.484 0 .844-.099 1.078-.296s.352-.429.352-.694c0-.238-.104-.426-.311-.562-.145-.094-.504-.213-1.078-.357-.773-.195-1.31-.364-1.608-.507s-.525-.34-.68-.592-.231-.53-.231-.835c0-.277.063-.534.19-.771s.3-.433.519-.589c.164-.121.388-.224.671-.308s.587-.126.911-.126c.488 0 .917.07 1.286.211s.642.331.817.571.297.562.363.964l-1.031.141c-.047-.32-.183-.57-.407-.75s-.542-.27-.952-.27c-.484 0-.83.08-1.037.24s-.311.348-.311.562c0 .137.043.26.129.369.086.113.221.207.404.281.105.039.416.129.932.27.746.199 1.267.362 1.562.489s.526.312.694.554.252.543.252.902c0 .352-.103.683-.308.993s-.501.551-.888.721-.824.255-1.312.255c-.809 0-1.425-.168-1.849-.504s-.694-.833-.811-1.493z" fill="#1d1d1b"/><path d="m120.31 351.625h-1.646v-6.205c-.602.562-1.311.979-2.127 1.248v-1.494c.43-.141.896-.407 1.4-.8s.85-.851 1.037-1.374h1.336z" fill="#1d1d1b"/><path d="m128.331 350.096v1.529h-5.771c.062-.578.25-1.126.562-1.644s.93-1.204 1.852-2.06c.742-.691 1.197-1.16 1.365-1.406.227-.34.34-.676.34-1.008 0-.367-.099-.649-.296-.847s-.47-.296-.817-.296c-.344 0-.617.104-.82.311s-.32.551-.352 1.031l-1.641-.164c.098-.906.404-1.557.92-1.951s1.16-.592 1.934-.592c.848 0 1.514.229 1.998.686s.727 1.025.727 1.705c0 .387-.069.755-.208 1.104s-.358.716-.659 1.099c-.199.254-.559.619-1.078 1.096s-.849.793-.987.949-.251.309-.337.457h3.268z" fill="#1d1d1b"/><path d="m129.456 345.156c0-.77.169-1.34.507-1.711s.796-.557 1.374-.557c.598 0 1.065.185 1.403.554s.507.94.507 1.714c0 .77-.169 1.34-.507 1.711s-.796.557-1.374.557c-.598 0-1.065-.185-1.403-.554s-.507-.94-.507-1.714zm1.283-.011c0 .559.064.934.193 1.125.098.141.232.211.404.211.176 0 .312-.07.41-.211.125-.191.188-.566.188-1.125s-.062-.932-.188-1.119c-.098-.145-.234-.217-.41-.217-.172 0-.307.07-.404.211-.128.191-.193.566-.193 1.125zm1.852 6.808h-1.219l4.576-9.064h1.184zm2.66-2.256c0-.77.169-1.34.507-1.711s.8-.557 1.386-.557c.59 0 1.054.186 1.392.557s.507.941.507 1.711c0 .773-.169 1.346-.507 1.717s-.796.557-1.374.557c-.598 0-1.065-.186-1.403-.557s-.508-.943-.508-1.717zm1.283-.006c0 .559.064.932.193 1.119.098.145.232.217.404.217.176 0 .311-.07.404-.211.129-.191.193-.566.193-1.125s-.062-.934-.188-1.125c-.098-.141-.234-.211-.41-.211s-.311.07-.404.211c-.127.192-.192.567-.192 1.125z" fill="#1d1d1b"/><path d="m228.058 4.254h120.863v48.64h-120.863z" fill="none"/><path d="m233.358 12.846v-8.59h1.711l2.033 6.082c.188.566.324.99.41 1.271.098-.312.25-.771.457-1.377l2.057-5.977h1.529v8.59h-1.096v-7.189l-2.496 7.189h-1.025l-2.484-7.312v7.312h-1.096z" fill="#1d1d1b"/><path d="m247.315 12.078c-.391.332-.767.566-1.128.703s-.749.205-1.163.205c-.684 0-1.209-.167-1.576-.501s-.551-.761-.551-1.28c0-.305.069-.583.208-.835s.32-.454.545-.606.478-.268.759-.346c.207-.055.52-.107.938-.158.852-.102 1.479-.223 1.881-.363.004-.145.006-.236.006-.275 0-.43-.1-.732-.299-.908-.27-.238-.67-.357-1.201-.357-.496 0-.862.087-1.099.261s-.411.481-.524.923l-1.031-.141c.094-.441.248-.798.463-1.069s.525-.48.932-.627.877-.22 1.412-.22c.531 0 .963.062 1.295.188s.576.282.732.472.266.429.328.718c.035.18.053.504.053.973v1.406c0 .98.022 1.601.067 1.86s.134.509.267.747h-1.102c-.11-.221-.18-.477-.212-.77zm-.087-2.355c-.383.156-.957.289-1.723.398-.434.062-.74.133-.92.211s-.318.192-.416.343-.146.317-.146.501c0 .281.106.516.319.703s.524.281.935.281c.406 0 .768-.089 1.084-.267s.549-.421.697-.729c.113-.238.17-.59.17-1.055z" fill="#1d1d1b"/><path d="m253.989 10.566 1.037.135c-.113.715-.403 1.274-.87 1.679s-1.04.606-1.72.606c-.852 0-1.536-.278-2.054-.835s-.776-1.354-.776-2.394c0-.672.111-1.26.334-1.764s.562-.882 1.017-1.134.95-.378 1.485-.378c.676 0 1.229.171 1.658.513s.705.827.826 1.456l-1.025.158c-.098-.418-.271-.732-.519-.943s-.548-.316-.899-.316c-.531 0-.963.19-1.295.571s-.498.983-.498 1.808c0 .836.16 1.443.48 1.822s.738.568 1.254.568c.414 0 .76-.127 1.037-.381s.454-.643.528-1.171z" fill="#1d1d1b"/><path d="m255.929 12.846v-8.59h1.055v3.082c.492-.57 1.113-.855 1.863-.855.461 0 .861.091 1.201.272s.583.433.729.753.22.785.22 1.395v3.943h-1.055v-3.944c0-.527-.114-.911-.343-1.151s-.552-.36-.97-.36c-.312 0-.606.081-.882.243s-.472.382-.589.659-.176.66-.176 1.148v3.404h-1.053z" fill="#1d1d1b"/><path d="m262.608 5.469v-1.213h1.055v1.213zm0 7.377v-6.223h1.055v6.223z" fill="#1d1d1b"/><path d="m265.269 12.846v-6.223h.949v.885c.457-.684 1.117-1.025 1.98-1.025.375 0 .72.067 1.034.202s.55.312.706.53.266.479.328.779c.039.195.059.537.059 1.025v3.826h-1.055v-3.784c0-.43-.041-.751-.123-.964s-.228-.383-.437-.51-.454-.19-.735-.19c-.449 0-.837.143-1.163.428s-.489.826-.489 1.623v3.398z" fill="#1d1d1b"/><path d="m276.202 10.842 1.09.135c-.172.637-.49 1.131-.955 1.482s-1.059.527-1.781.527c-.91 0-1.632-.28-2.165-.841s-.8-1.347-.8-2.358c0-1.047.27-1.859.809-2.438s1.238-.867 2.098-.867c.832 0 1.512.283 2.039.85s.791 1.363.791 2.391c0 .062-.002.156-.006.281h-4.641c.039.684.232 1.207.58 1.57s.781.545 1.301.545c.387 0 .717-.102.99-.305s.49-.527.65-.972zm-3.463-1.705h3.475c-.047-.523-.18-.916-.398-1.178-.336-.406-.771-.609-1.307-.609-.484 0-.892.162-1.222.486s-.513.758-.548 1.301z" fill="#1d1d1b"/><path d="m278.604 12.846v-6.223h.949v.943c.242-.441.466-.732.671-.873s.431-.211.677-.211c.355 0 .717.113 1.084.34l-.363.979c-.258-.152-.516-.229-.773-.229-.23 0-.438.069-.621.208s-.314.331-.393.577c-.117.375-.176.785-.176 1.23v3.258h-1.055z" fill="#1d1d1b"/><path d="m282.565 15.242-.117-.99c.23.062.432.094.604.094.234 0 .422-.039.562-.117s.256-.188.346-.328c.066-.105.174-.367.322-.785.02-.059.051-.145.094-.258l-2.361-6.234h1.137l1.295 3.604c.168.457.318.938.451 1.441.121-.484.266-.957.434-1.418l1.33-3.627h1.055l-2.367 6.328c-.254.684-.451 1.154-.592 1.412-.188.348-.402.603-.645.765s-.531.243-.867.243c-.204-.001-.431-.044-.681-.13z" fill="#1d1d1b"/><path d="m291.735 8.662c0-1.426.383-2.542 1.148-3.349s1.754-1.21 2.965-1.21c.793 0 1.508.189 2.145.568s1.122.907 1.456 1.585.501 1.446.501 2.306c0 .871-.176 1.65-.527 2.338s-.85 1.208-1.494 1.562-1.34.53-2.086.53c-.809 0-1.531-.195-2.168-.586s-1.119-.924-1.447-1.6-.493-1.39-.493-2.144zm1.172.018c0 1.035.278 1.851.835 2.446s1.255.894 2.095.894c.855 0 1.56-.301 2.112-.902s.829-1.455.829-2.561c0-.699-.118-1.31-.354-1.831s-.582-.926-1.037-1.213-.966-.431-1.532-.431c-.805 0-1.497.276-2.077.829s-.871 1.476-.871 2.769z" fill="#1d1d1b"/><path d="m301.28 15.23v-8.607h.961v.809c.227-.316.482-.554.768-.712s.631-.237 1.037-.237c.531 0 1 .137 1.406.41s.713.659.92 1.157.311 1.044.311 1.638c0 .637-.114 1.21-.343 1.72s-.561.9-.996 1.172-.894.407-1.374.407c-.352 0-.667-.074-.946-.223s-.509-.336-.688-.562v3.029h-1.056zm.955-5.46c0 .801.162 1.393.486 1.775s.717.574 1.178.574c.469 0 .87-.198 1.204-.595s.501-1.011.501-1.843c0-.793-.163-1.387-.489-1.781s-.716-.592-1.169-.592c-.449 0-.847.21-1.192.63s-.519 1.031-.519 1.832z" fill="#1d1d1b"/><path d="m312.214 10.842 1.09.135c-.172.637-.49 1.131-.955 1.482s-1.059.527-1.781.527c-.91 0-1.632-.28-2.165-.841s-.8-1.347-.8-2.358c0-1.047.27-1.859.809-2.438s1.238-.867 2.098-.867c.832 0 1.512.283 2.039.85s.791 1.363.791 2.391c0 .062-.002.156-.006.281h-4.641c.039.684.232 1.207.58 1.57s.781.545 1.301.545c.387 0 .717-.102.99-.305s.49-.527.65-.972zm-3.463-1.705h3.475c-.047-.523-.18-.916-.398-1.178-.336-.406-.771-.609-1.307-.609-.484 0-.892.162-1.222.486s-.513.758-.548 1.301z" fill="#1d1d1b"/><path d="m314.616 12.846v-6.223h.949v.943c.242-.441.466-.732.671-.873s.431-.211.677-.211c.355 0 .717.113 1.084.34l-.363.979c-.258-.152-.516-.229-.773-.229-.23 0-.438.069-.621.208s-.314.331-.393.577c-.117.375-.176.785-.176 1.23v3.258h-1.055z" fill="#1d1d1b"/><path d="m322.685 12.078c-.391.332-.767.566-1.128.703s-.749.205-1.163.205c-.684 0-1.209-.167-1.576-.501s-.551-.761-.551-1.28c0-.305.069-.583.208-.835s.32-.454.545-.606.478-.268.759-.346c.207-.055.52-.107.938-.158.852-.102 1.479-.223 1.881-.363.004-.145.006-.236.006-.275 0-.43-.1-.732-.299-.908-.27-.238-.67-.357-1.201-.357-.496 0-.862.087-1.099.261s-.411.481-.524.923l-1.031-.141c.094-.441.248-.798.463-1.069s.525-.48.932-.627.877-.22 1.412-.22c.531 0 .963.062 1.295.188s.576.282.732.472.266.429.328.718c.035.18.053.504.053.973v1.406c0 .98.022 1.601.067 1.86s.134.509.267.747h-1.102c-.111-.221-.181-.477-.212-.77zm-.088-2.355c-.383.156-.957.289-1.723.398-.434.062-.74.133-.92.211s-.318.192-.416.343-.146.317-.146.501c0 .281.106.516.319.703s.524.281.935.281c.406 0 .768-.089 1.084-.267s.549-.421.697-.729c.113-.238.17-.59.17-1.055z" fill="#1d1d1b"/><path d="m327.601 11.902.152.932c-.297.062-.562.094-.797.094-.383 0-.68-.061-.891-.182s-.359-.28-.445-.478-.129-.612-.129-1.245v-3.58h-.773v-.82h.773v-1.541l1.049-.633v2.174h1.061v.82h-1.061v3.639c0 .301.019.494.056.58s.098.154.182.205.204.076.36.076c.117 0 .271-.013.463-.041z" fill="#1d1d1b"/><path d="m328.239 9.734c0-1.152.32-2.006.961-2.561.535-.461 1.188-.691 1.957-.691.855 0 1.555.28 2.098.841s.814 1.335.814 2.323c0 .801-.12 1.431-.36 1.89s-.59.815-1.049 1.069-.96.381-1.503.381c-.871 0-1.575-.279-2.112-.838s-.806-1.363-.806-2.414zm1.084 0c0 .797.174 1.394.521 1.79s.785.595 1.312.595c.523 0 .959-.199 1.307-.598s.521-1.006.521-1.822c0-.77-.175-1.353-.524-1.749s-.784-.595-1.304-.595c-.527 0-.965.197-1.312.592s-.521.991-.521 1.787z" fill="#1d1d1b"/><path d="m335.294 12.846v-6.223h.949v.943c.242-.441.466-.732.671-.873s.431-.211.677-.211c.355 0 .717.113 1.084.34l-.363.979c-.258-.152-.516-.229-.773-.229-.23 0-.438.069-.621.208s-.314.331-.393.577c-.117.375-.176.785-.176 1.23v3.258h-1.055z" fill="#1d1d1b"/><path d="m338.88 10.988 1.043-.164c.059.418.222.738.489.961s.642.334 1.122.334c.484 0 .844-.099 1.078-.296s.352-.429.352-.694c0-.238-.104-.426-.311-.562-.145-.094-.504-.213-1.078-.357-.773-.195-1.31-.364-1.608-.507s-.525-.34-.68-.592-.231-.53-.231-.835c0-.277.063-.534.19-.771s.3-.433.519-.589c.164-.121.388-.224.671-.308s.587-.126.911-.126c.488 0 .917.07 1.286.211s.642.331.817.571.297.562.363.964l-1.031.141c-.047-.32-.183-.57-.407-.75s-.542-.27-.952-.27c-.484 0-.83.08-1.037.24s-.311.348-.311.562c0 .137.043.26.129.369.086.113.221.207.404.281.105.039.416.129.932.27.746.199 1.267.362 1.562.489s.526.312.694.554.252.543.252.902c0 .352-.103.683-.308.993s-.501.551-.888.721-.824.255-1.312.255c-.809 0-1.425-.168-1.849-.504s-.694-.833-.811-1.493z" fill="#1d1d1b"/><path d="m252.325 26.478c-.391.332-.767.566-1.128.703s-.749.205-1.163.205c-.684 0-1.209-.167-1.576-.501s-.551-.761-.551-1.28c0-.305.069-.583.208-.835s.32-.454.545-.606.478-.268.759-.346c.207-.055.52-.107.938-.158.852-.102 1.479-.223 1.881-.363.004-.145.006-.236.006-.275 0-.43-.1-.732-.299-.908-.27-.238-.67-.357-1.201-.357-.496 0-.862.087-1.099.261s-.411.481-.524.923l-1.031-.141c.094-.441.248-.798.463-1.069s.525-.48.932-.627.877-.22 1.412-.22c.531 0 .963.062 1.295.188s.576.282.732.472.266.429.328.718c.035.18.053.504.053.973v1.406c0 .98.022 1.601.067 1.86s.134.509.267.747h-1.102c-.11-.221-.181-.477-.212-.77zm-.088-2.355c-.383.156-.957.289-1.723.398-.434.062-.74.133-.92.211s-.318.192-.416.343-.146.317-.146.501c0 .281.106.516.319.703s.524.281.935.281c.406 0 .768-.089 1.084-.267s.549-.421.697-.729c.113-.238.17-.59.17-1.055z" fill="#1d1d1b"/><path d="m254.938 27.246v-6.223h.949v.885c.457-.684 1.117-1.025 1.98-1.025.375 0 .72.067 1.034.202s.55.312.706.53.266.479.328.779c.039.195.059.537.059 1.025v3.826h-1.055v-3.785c0-.43-.041-.751-.123-.964s-.228-.383-.437-.51-.454-.19-.735-.19c-.449 0-.837.143-1.163.428s-.489.826-.489 1.623v3.398h-1.054z" fill="#1d1d1b"/><path d="m265.649 27.246v-.786c-.395.617-.975.926-1.74.926-.496 0-.952-.137-1.368-.41s-.738-.655-.967-1.146-.343-1.054-.343-1.69c0-.621.104-1.185.311-1.69s.518-.894.932-1.163.877-.404 1.389-.404c.375 0 .709.079 1.002.237s.531.364.715.618v-3.082h1.049v8.59zm-3.334-3.106c0 .797.168 1.393.504 1.787s.732.592 1.189.592c.461 0 .853-.188 1.175-.565s.483-.952.483-1.726c0-.852-.164-1.477-.492-1.875s-.732-.598-1.213-.598c-.469 0-.86.191-1.175.574s-.471.987-.471 1.811z" fill="#1d1d1b"/><path d="m271.755 27.246v-8.59h2.959c.668 0 1.178.041 1.529.123.492.113.912.318 1.26.615.453.383.792.872 1.017 1.468s.337 1.276.337 2.042c0 .652-.076 1.23-.229 1.734s-.348.921-.586 1.251-.499.59-.782.779-.625.333-1.025.431-.86.146-1.38.146h-3.1zm1.137-1.014h1.834c.566 0 1.011-.053 1.333-.158s.579-.254.771-.445c.27-.27.479-.632.63-1.087s.226-1.007.226-1.655c0-.898-.147-1.589-.442-2.071s-.653-.806-1.075-.97c-.305-.117-.795-.176-1.471-.176h-1.805v6.562z" fill="#1d1d1b"/><path d="m280.274 27.246v-6.223h.949v.943c.242-.441.466-.732.671-.873s.431-.211.677-.211c.355 0 .717.113 1.084.34l-.363.979c-.258-.152-.516-.229-.773-.229-.23 0-.438.069-.621.208s-.314.331-.393.577c-.117.375-.176.785-.176 1.23v3.258h-1.055z" fill="#1d1d1b"/><path d="m284.288 19.869v-1.213h1.055v1.213zm0 7.377v-6.223h1.055v6.223z" fill="#1d1d1b"/><path d="m288.677 27.246-2.367-6.223h1.113l1.336 3.727c.145.402.277.82.398 1.254.094-.328.225-.723.393-1.184l1.383-3.797h1.084l-2.355 6.223z" fill="#1d1d1b"/><path d="m297.208 25.242 1.09.135c-.172.637-.49 1.131-.955 1.482s-1.059.527-1.781.527c-.91 0-1.632-.28-2.165-.841s-.8-1.347-.8-2.358c0-1.047.27-1.859.809-2.438s1.238-.867 2.098-.867c.832 0 1.512.283 2.039.85s.791 1.363.791 2.391c0 .062-.002.156-.006.281h-4.641c.039.684.232 1.207.58 1.57s.781.545 1.301.545c.387 0 .717-.102.99-.305s.49-.527.65-.972zm-3.463-1.705h3.475c-.047-.523-.18-.916-.398-1.178-.336-.406-.771-.609-1.307-.609-.484 0-.892.162-1.222.486s-.513.758-.548 1.301z" fill="#1d1d1b"/><path d="m299.61 27.246v-6.223h.949v.943c.242-.441.466-.732.671-.873s.431-.211.677-.211c.355 0 .717.113 1.084.34l-.363.979c-.258-.152-.516-.229-.773-.229-.23 0-.438.069-.621.208s-.314.331-.393.577c-.117.375-.176.785-.176 1.23v3.258h-1.055z" fill="#1d1d1b"/><path d="m303.196 25.388 1.043-.164c.059.418.222.738.489.961s.642.334 1.122.334c.484 0 .844-.099 1.078-.296s.352-.429.352-.694c0-.238-.104-.426-.311-.562-.145-.094-.504-.213-1.078-.357-.773-.195-1.31-.364-1.608-.507s-.525-.34-.68-.592-.231-.53-.231-.835c0-.277.063-.534.19-.771s.3-.433.519-.589c.164-.121.388-.224.671-.308s.587-.126.911-.126c.488 0 .917.07 1.286.211s.642.331.817.571.297.562.363.964l-1.031.141c-.047-.32-.183-.57-.407-.75s-.542-.27-.952-.27c-.484 0-.83.08-1.037.24s-.311.348-.311.562c0 .137.043.26.129.369.086.113.221.207.404.281.105.039.416.129.932.27.746.199 1.267.362 1.562.489s.526.312.694.554.252.543.252.902c0 .352-.103.683-.308.993s-.501.551-.888.721-.824.255-1.312.255c-.809 0-1.425-.168-1.849-.504s-.694-.833-.811-1.493z" fill="#1d1d1b"/><path d="m315.899 27.246v-1.729h-3.516v-1.441l3.727-5.455h1.383v5.449h1.066v1.447h-1.066v1.729zm0-3.176v-2.936l-1.975 2.936z" fill="#1d1d1b"/><path d="m319.356 20.777c0-.77.169-1.34.507-1.711s.796-.557 1.374-.557c.598 0 1.065.185 1.403.554s.507.94.507 1.714c0 .77-.169 1.34-.507 1.711s-.796.557-1.374.557c-.598 0-1.065-.185-1.403-.554s-.507-.941-.507-1.714zm1.284-.012c0 .559.064.934.193 1.125.098.141.232.211.404.211.176 0 .312-.07.41-.211.125-.191.188-.566.188-1.125s-.062-.932-.188-1.119c-.098-.145-.234-.217-.41-.217-.172 0-.307.07-.404.211-.129.192-.193.567-.193 1.125zm1.851 6.809h-1.219l4.576-9.064h1.184zm2.66-2.256c0-.77.169-1.34.507-1.711s.8-.557 1.386-.557c.59 0 1.054.186 1.392.557s.507.941.507 1.711c0 .773-.169 1.346-.507 1.717s-.796.557-1.374.557c-.598 0-1.065-.186-1.403-.557s-.508-.944-.508-1.717zm1.284-.006c0 .559.064.932.193 1.119.098.145.232.217.404.217.176 0 .311-.07.404-.211.129-.191.193-.566.193-1.125s-.062-.934-.188-1.125c-.098-.141-.234-.211-.41-.211s-.311.07-.404.211c-.128.191-.192.566-.192 1.125z" fill="#1d1d1b"/><path d="m288.489 442.384h137.41v31.156h-137.41z" fill="none"/><g fill="#1d1d1b"><path d="m296.884 447.964 1.137.287c-.238.934-.667 1.646-1.286 2.136s-1.376.735-2.271.735c-.926 0-1.679-.188-2.259-.565s-1.021-.923-1.324-1.638-.454-1.482-.454-2.303c0-.895.171-1.675.513-2.341s.828-1.172 1.459-1.518 1.325-.519 2.083-.519c.859 0 1.582.219 2.168.656s.994 1.053 1.225 1.846l-1.119.264c-.199-.625-.488-1.08-.867-1.365s-.855-.428-1.43-.428c-.66 0-1.212.158-1.655.475s-.755.741-.935 1.274-.27 1.083-.27 1.649c0 .73.106 1.368.319 1.913s.544.952.993 1.222.936.404 1.459.404c.637 0 1.176-.184 1.617-.551s.741-.91.897-1.633z"/><path d="m298.894 447.864c0-1.152.32-2.006.961-2.561.535-.461 1.188-.691 1.957-.691.855 0 1.555.28 2.098.841s.814 1.335.814 2.323c0 .801-.12 1.431-.36 1.89s-.59.815-1.049 1.069-.96.381-1.503.381c-.871 0-1.575-.279-2.112-.838s-.806-1.363-.806-2.414zm1.084 0c0 .797.174 1.394.521 1.79s.785.595 1.312.595c.523 0 .959-.199 1.307-.598s.521-1.006.521-1.822c0-.77-.175-1.353-.524-1.749s-.784-.595-1.304-.595c-.527 0-.965.197-1.312.592s-.521.99-.521 1.787z"/><path d="m305.96 450.976v-6.223h.943v.873c.195-.305.455-.55.779-.735s.693-.278 1.107-.278c.461 0 .839.096 1.134.287s.503.459.624.803c.492-.727 1.133-1.09 1.922-1.09.617 0 1.092.171 1.424.513s.498.868.498 1.579v4.271h-1.049v-3.92c0-.422-.034-.726-.103-.911s-.192-.335-.372-.448-.391-.17-.633-.17c-.438 0-.801.146-1.09.437s-.434.757-.434 1.397v3.615h-1.055v-4.043c0-.469-.086-.82-.258-1.055s-.453-.352-.844-.352c-.297 0-.571.078-.823.234s-.435.385-.548.686-.17.734-.17 1.301v3.229z"/><path d="m315.956 450.976v-6.223h.943v.873c.195-.305.455-.55.779-.735s.693-.278 1.107-.278c.461 0 .839.096 1.134.287s.503.459.624.803c.492-.727 1.133-1.09 1.922-1.09.617 0 1.092.171 1.424.513s.498.868.498 1.579v4.271h-1.049v-3.92c0-.422-.034-.726-.103-.911s-.192-.335-.372-.448-.391-.17-.633-.17c-.438 0-.801.146-1.09.437s-.434.757-.434 1.397v3.615h-1.055v-4.043c0-.469-.086-.82-.258-1.055s-.453-.352-.844-.352c-.297 0-.571.078-.823.234s-.435.385-.548.686-.17.734-.17 1.301v3.229z"/><path d="m330.03 450.976v-.914c-.484.703-1.143 1.055-1.975 1.055-.367 0-.71-.07-1.028-.211s-.555-.317-.709-.53-.263-.474-.325-.782c-.043-.207-.064-.535-.064-.984v-3.855h1.055v3.451c0 .551.021.922.064 1.113.066.277.207.495.422.653s.48.237.797.237.613-.081.891-.243.474-.383.589-.662.173-.685.173-1.216v-3.334h1.055v6.223h-.945z"/><path d="m332.626 450.976v-6.223h.949v.885c.457-.684 1.117-1.025 1.98-1.025.375 0 .72.067 1.034.202s.55.312.706.53.266.479.328.779c.039.195.059.537.059 1.025v3.826h-1.055v-3.785c0-.43-.041-.751-.123-.964s-.228-.383-.437-.51-.454-.19-.735-.19c-.449 0-.837.143-1.163.428s-.489.826-.489 1.623v3.398h-1.054z"/><path d="m339.306 443.599v-1.213h1.055v1.213zm0 7.377v-6.223h1.055v6.223z"/><path d="m344.269 450.032.152.932c-.297.062-.562.094-.797.094-.383 0-.68-.061-.891-.182s-.359-.28-.445-.478-.129-.612-.129-1.245v-3.58h-.773v-.82h.773v-1.541l1.049-.633v2.174h1.061v.82h-1.061v3.639c0 .301.019.494.056.58s.098.154.182.205.204.076.36.076c.117 0 .271-.013.463-.041z"/><path d="m345.253 453.372-.117-.99c.23.062.432.094.604.094.234 0 .422-.039.562-.117s.256-.188.346-.328c.066-.105.174-.367.322-.785.02-.059.051-.145.094-.258l-2.361-6.234h1.137l1.295 3.604c.168.457.318.938.451 1.441.121-.484.266-.957.434-1.418l1.33-3.627h1.055l-2.367 6.328c-.254.684-.451 1.154-.592 1.412-.188.348-.402.603-.645.765s-.531.243-.867.243c-.205-.001-.431-.044-.681-.13z"/><path d="m358.694 450.208c-.391.332-.767.566-1.128.703s-.749.205-1.163.205c-.684 0-1.209-.167-1.576-.501s-.551-.761-.551-1.28c0-.305.069-.583.208-.835s.32-.454.545-.606.478-.268.759-.346c.207-.055.52-.107.938-.158.852-.102 1.479-.223 1.881-.363.004-.145.006-.236.006-.275 0-.43-.1-.732-.299-.908-.27-.238-.67-.357-1.201-.357-.496 0-.862.087-1.099.261s-.411.481-.524.923l-1.031-.141c.094-.441.248-.798.463-1.069s.525-.48.932-.627.877-.22 1.412-.22c.531 0 .963.062 1.295.188s.576.282.732.472.266.429.328.718c.035.18.053.504.053.973v1.406c0 .98.022 1.601.067 1.86s.134.509.267.747h-1.102c-.11-.221-.18-.477-.212-.77zm-.088-2.355c-.383.156-.957.289-1.723.398-.434.062-.74.133-.92.211s-.318.192-.416.343-.146.317-.146.501c0 .281.106.516.319.703s.524.281.935.281c.406 0 .768-.089 1.084-.267s.549-.421.697-.729c.113-.238.17-.59.17-1.055z"/><path d="m361.308 450.976v-6.223h.949v.885c.457-.684 1.117-1.025 1.98-1.025.375 0 .72.067 1.034.202s.55.312.706.53.266.479.328.779c.039.195.059.537.059 1.025v3.826h-1.055v-3.785c0-.43-.041-.751-.123-.964s-.228-.383-.437-.51-.454-.19-.735-.19c-.449 0-.837.143-1.163.428s-.489.826-.489 1.623v3.398h-1.054z"/><path d="m372.019 450.976v-.785c-.395.617-.975.926-1.74.926-.496 0-.952-.137-1.368-.41s-.738-.655-.967-1.146-.343-1.054-.343-1.69c0-.621.104-1.185.311-1.69s.518-.894.932-1.163.877-.404 1.389-.404c.375 0 .709.079 1.002.237s.531.364.715.618v-3.082h1.049v8.59h-.98zm-3.334-3.106c0 .797.168 1.393.504 1.787s.732.592 1.189.592c.461 0 .853-.188 1.175-.565s.483-.952.483-1.726c0-.852-.164-1.477-.492-1.875s-.732-.598-1.213-.598c-.469 0-.86.191-1.175.574s-.471.987-.471 1.811z"/><path d="m378.124 450.976v-8.59h3.24c.57 0 1.006.027 1.307.082.422.07.775.204 1.061.401s.515.474.688.829.261.746.261 1.172c0 .73-.232 1.349-.697 1.854s-1.305.759-2.52.759h-2.203v3.492h-1.137zm1.137-4.506h2.221c.734 0 1.256-.137 1.564-.41s.463-.658.463-1.154c0-.359-.091-.667-.272-.923s-.421-.425-.718-.507c-.191-.051-.545-.076-1.061-.076h-2.197z"/><path d="m390.253 448.972 1.09.135c-.172.637-.49 1.131-.955 1.482s-1.059.527-1.781.527c-.91 0-1.632-.28-2.165-.841s-.8-1.347-.8-2.358c0-1.047.27-1.859.809-2.438s1.238-.867 2.098-.867c.832 0 1.512.283 2.039.85s.791 1.363.791 2.391c0 .062-.002.156-.006.281h-4.641c.039.684.232 1.207.58 1.57s.781.545 1.301.545c.387 0 .717-.102.99-.305s.49-.527.65-.972zm-3.463-1.705h3.475c-.047-.523-.18-.916-.398-1.178-.336-.406-.771-.609-1.307-.609-.484 0-.892.162-1.222.486s-.513.758-.548 1.301z"/><path d="m392.655 450.976v-6.223h.949v.943c.242-.441.466-.732.671-.873s.431-.211.677-.211c.355 0 .717.113 1.084.34l-.363.979c-.258-.152-.516-.229-.773-.229-.23 0-.438.069-.621.208s-.314.331-.393.577c-.117.375-.176.785-.176 1.23v3.258h-1.055z"/><path d="m396.241 449.118 1.043-.164c.059.418.222.738.489.961s.642.334 1.122.334c.484 0 .844-.099 1.078-.296s.352-.429.352-.694c0-.238-.104-.426-.311-.562-.145-.094-.504-.213-1.078-.357-.773-.195-1.31-.364-1.608-.507s-.525-.34-.68-.592-.231-.53-.231-.835c0-.277.063-.534.19-.771s.3-.433.519-.589c.164-.121.388-.224.671-.308s.587-.126.911-.126c.488 0 .917.07 1.286.211s.642.331.817.571.297.562.363.964l-1.031.141c-.047-.32-.183-.57-.407-.75s-.542-.27-.952-.27c-.484 0-.83.08-1.037.24s-.311.348-.311.562c0 .137.043.26.129.369.086.113.221.207.404.281.105.039.416.129.932.27.746.199 1.267.362 1.562.489s.526.312.694.554.252.543.252.902c0 .352-.103.683-.308.993s-.501.551-.888.721-.824.255-1.312.255c-.809 0-1.425-.168-1.849-.504s-.694-.833-.811-1.493z"/><path d="m402.271 447.864c0-1.152.32-2.006.961-2.561.535-.461 1.188-.691 1.957-.691.855 0 1.555.28 2.098.841s.814 1.335.814 2.323c0 .801-.12 1.431-.36 1.89s-.59.815-1.049 1.069-.96.381-1.503.381c-.871 0-1.575-.279-2.112-.838s-.806-1.363-.806-2.414zm1.083 0c0 .797.174 1.394.521 1.79s.785.595 1.312.595c.523 0 .959-.199 1.307-.598s.521-1.006.521-1.822c0-.77-.175-1.353-.524-1.749s-.784-.595-1.304-.595c-.527 0-.965.197-1.312.592s-.521.99-.521 1.787z"/><path d="m409.337 450.976v-6.223h.949v.885c.457-.684 1.117-1.025 1.98-1.025.375 0 .72.067 1.034.202s.55.312.706.53.266.479.328.779c.039.195.059.537.059 1.025v3.826h-1.055v-3.785c0-.43-.041-.751-.123-.964s-.228-.383-.437-.51-.454-.19-.735-.19c-.449 0-.837.143-1.163.428s-.489.826-.489 1.623v3.398h-1.054z"/><path d="m420.071 450.208c-.391.332-.767.566-1.128.703s-.749.205-1.163.205c-.684 0-1.209-.167-1.576-.501s-.551-.761-.551-1.28c0-.305.069-.583.208-.835s.32-.454.545-.606.478-.268.759-.346c.207-.055.52-.107.938-.158.852-.102 1.479-.223 1.881-.363.004-.145.006-.236.006-.275 0-.43-.1-.732-.299-.908-.27-.238-.67-.357-1.201-.357-.496 0-.862.087-1.099.261s-.411.481-.524.923l-1.031-.141c.094-.441.248-.798.463-1.069s.525-.48.932-.627.877-.22 1.412-.22c.531 0 .963.062 1.295.188s.576.282.732.472.266.429.328.718c.035.18.053.504.053.973v1.406c0 .98.022 1.601.067 1.86s.134.509.267.747h-1.102c-.11-.221-.18-.477-.212-.77zm-.088-2.355c-.383.156-.957.289-1.723.398-.434.062-.74.133-.92.211s-.318.192-.416.343-.146.317-.146.501c0 .281.106.516.319.703s.524.281.935.281c.406 0 .768-.089 1.084-.267s.549-.421.697-.729c.113-.238.17-.59.17-1.055z"/><path d="m422.661 450.976v-8.59h1.055v8.59z"/><path d="m300.159 462.615 1.072-.094c.051.43.169.783.354 1.059s.474.498.864.668.83.254 1.318.254c.434 0 .816-.064 1.148-.193s.579-.305.741-.529.243-.471.243-.736c0-.27-.078-.504-.234-.705s-.414-.371-.773-.508c-.23-.09-.74-.229-1.529-.418s-1.342-.369-1.658-.537c-.41-.215-.716-.48-.917-.799s-.302-.676-.302-1.07c0-.434.123-.838.369-1.215s.605-.664 1.078-.859.998-.293 1.576-.293c.637 0 1.198.104 1.685.309s.86.506 1.122.904.402.85.422 1.354l-1.09.082c-.059-.543-.257-.953-.595-1.23s-.837-.416-1.497-.416c-.688 0-1.188.127-1.503.379s-.472.555-.472.91c0 .309.111.562.334.762.219.199.79.404 1.714.613s1.558.391 1.901.547c.5.23.869.523 1.107.877s.357.76.357 1.221c0 .457-.131.889-.393 1.293s-.638.719-1.128.943-1.042.336-1.655.336c-.777 0-1.429-.113-1.954-.34s-.938-.566-1.236-1.021-.453-.974-.469-1.548z"/><path d="m312.675 463.371 1.09.135c-.172.637-.49 1.131-.955 1.482s-1.059.527-1.781.527c-.91 0-1.632-.279-2.165-.84s-.8-1.348-.8-2.359c0-1.047.27-1.859.809-2.438s1.238-.867 2.098-.867c.832 0 1.512.283 2.039.85s.791 1.363.791 2.391c0 .062-.002.156-.006.281h-4.641c.039.684.232 1.207.58 1.57s.781.545 1.301.545c.387 0 .717-.102.99-.305s.49-.527.65-.972zm-3.463-1.705h3.475c-.047-.523-.18-.916-.398-1.178-.336-.406-.771-.609-1.307-.609-.484 0-.892.162-1.222.486s-.513.758-.548 1.301z"/><path d="m315.077 465.375v-6.223h.949v.943c.242-.441.466-.732.671-.873s.431-.211.677-.211c.355 0 .717.113 1.084.34l-.363.979c-.258-.152-.516-.229-.773-.229-.23 0-.438.07-.621.209s-.314.33-.393.576c-.117.375-.176.785-.176 1.23v3.258h-1.055z"/><path d="m320.813 465.375-2.367-6.223h1.113l1.336 3.727c.145.402.277.82.398 1.254.094-.328.225-.723.393-1.184l1.383-3.797h1.084l-2.355 6.223z"/><path d="m325.091 457.998v-1.213h1.055v1.213zm0 7.377v-6.223h1.055v6.223z"/><path d="m331.812 463.096 1.037.135c-.113.715-.403 1.275-.87 1.68s-1.04.605-1.72.605c-.852 0-1.536-.277-2.054-.834s-.776-1.355-.776-2.395c0-.672.111-1.26.334-1.764s.562-.881 1.017-1.133.95-.379 1.485-.379c.676 0 1.229.172 1.658.514s.705.826.826 1.455l-1.025.158c-.098-.418-.271-.732-.519-.943s-.548-.316-.899-.316c-.531 0-.963.191-1.295.572s-.498.982-.498 1.807c0 .836.16 1.443.48 1.822s.738.568 1.254.568c.414 0 .76-.127 1.037-.381s.453-.644.528-1.171z"/><path d="m338.011 463.371 1.09.135c-.172.637-.49 1.131-.955 1.482s-1.059.527-1.781.527c-.91 0-1.632-.279-2.165-.84s-.8-1.348-.8-2.359c0-1.047.27-1.859.809-2.438s1.238-.867 2.098-.867c.832 0 1.512.283 2.039.85s.791 1.363.791 2.391c0 .062-.002.156-.006.281h-4.641c.039.684.232 1.207.58 1.57s.781.545 1.301.545c.387 0 .717-.102.99-.305s.49-.527.65-.972zm-3.463-1.705h3.475c-.047-.523-.18-.916-.398-1.178-.336-.406-.771-.609-1.307-.609-.484 0-.892.162-1.222.486s-.513.758-.548 1.301z"/><path d="m345.394 465.375-2.279-8.59h1.166l1.307 5.631c.141.59.262 1.176.363 1.758.219-.918.348-1.447.387-1.588l1.635-5.801h1.371l1.23 4.348c.309 1.078.531 2.092.668 3.041.109-.543.252-1.166.428-1.869l1.348-5.52h1.143l-2.355 8.59h-1.096l-1.811-6.545c-.152-.547-.242-.883-.27-1.008-.09.395-.174.73-.252 1.008l-1.822 6.545z"/><path d="m354.476 462.264c0-1.152.32-2.006.961-2.561.535-.461 1.188-.691 1.957-.691.855 0 1.555.281 2.098.842s.814 1.334.814 2.322c0 .801-.12 1.432-.36 1.891s-.59.814-1.049 1.068-.96.381-1.503.381c-.871 0-1.575-.279-2.112-.838s-.806-1.364-.806-2.414zm1.084 0c0 .797.174 1.395.521 1.791s.785.594 1.312.594c.523 0 .959-.199 1.307-.598s.521-1.006.521-1.822c0-.77-.175-1.352-.524-1.748s-.784-.596-1.304-.596c-.527 0-.965.197-1.312.592s-.521.99-.521 1.787z"/><path d="m361.53 465.375v-6.223h.949v.943c.242-.441.466-.732.671-.873s.431-.211.677-.211c.355 0 .717.113 1.084.34l-.363.979c-.258-.152-.516-.229-.773-.229-.23 0-.438.07-.621.209s-.314.33-.393.576c-.117.375-.176.785-.176 1.23v3.258h-1.055z"/><path d="m365.544 465.375v-8.59h1.055v4.898l2.496-2.531h1.365l-2.379 2.309 2.619 3.914h-1.301l-2.057-3.182-.744.715v2.467z"/><path d="m375.798 463.371 1.09.135c-.172.637-.49 1.131-.955 1.482s-1.059.527-1.781.527c-.91 0-1.632-.279-2.165-.84s-.8-1.348-.8-2.359c0-1.047.27-1.859.809-2.438s1.238-.867 2.098-.867c.832 0 1.512.283 2.039.85s.791 1.363.791 2.391c0 .062-.002.156-.006.281h-4.641c.039.684.232 1.207.58 1.57s.781.545 1.301.545c.387 0 .717-.102.99-.305s.49-.527.65-.972zm-3.463-1.705h3.475c-.047-.523-.18-.916-.398-1.178-.336-.406-.771-.609-1.307-.609-.484 0-.892.162-1.222.486s-.513.758-.548 1.301z"/><path d="m378.2 465.375v-6.223h.949v.943c.242-.441.466-.732.671-.873s.431-.211.677-.211c.355 0 .717.113 1.084.34l-.363.979c-.258-.152-.516-.229-.773-.229-.23 0-.438.07-.621.209s-.314.33-.393.576c-.117.375-.176.785-.176 1.23v3.258h-1.055z"/><path d="m381.786 463.518 1.043-.164c.059.418.222.738.489.961s.642.334 1.122.334c.484 0 .844-.098 1.078-.295s.352-.43.352-.695c0-.238-.104-.426-.311-.562-.145-.094-.504-.213-1.078-.357-.773-.195-1.31-.363-1.608-.506s-.525-.34-.68-.592-.231-.531-.231-.836c0-.277.063-.533.19-.77s.3-.434.519-.59c.164-.121.388-.223.671-.307s.587-.127.911-.127c.488 0 .917.07 1.286.211s.642.332.817.572.297.561.363.963l-1.031.141c-.047-.32-.183-.57-.407-.75s-.542-.27-.952-.27c-.484 0-.83.08-1.037.24s-.311.348-.311.562c0 .137.043.26.129.369.086.113.221.207.404.281.105.039.416.129.932.27.746.199 1.267.363 1.562.49s.526.311.694.553.252.543.252.902c0 .352-.103.684-.308.994s-.501.551-.888.721-.824.254-1.312.254c-.809 0-1.425-.168-1.849-.504s-.694-.833-.811-1.493z"/><path d="m396.821 463.846v1.529h-5.771c.062-.578.25-1.125.562-1.643s.93-1.205 1.852-2.061c.742-.691 1.197-1.16 1.365-1.406.227-.34.34-.676.34-1.008 0-.367-.099-.648-.296-.846s-.47-.297-.817-.297c-.344 0-.617.104-.82.311s-.32.551-.352 1.031l-1.641-.164c.098-.906.404-1.557.92-1.951s1.16-.592 1.934-.592c.848 0 1.514.229 1.998.686s.727 1.025.727 1.705c0 .387-.069.756-.208 1.105s-.358.715-.659 1.098c-.199.254-.559.619-1.078 1.096s-.849.793-.987.949-.251.309-.337.457h3.268z"/><path d="m397.876 463.096 1.594-.193c.051.406.188.717.41.932s.492.322.809.322c.34 0 .626-.129.858-.387s.349-.605.349-1.043c0-.414-.111-.742-.334-.984s-.494-.363-.814-.363c-.211 0-.463.041-.756.123l.182-1.342c.445.012.785-.084 1.02-.289s.352-.479.352-.818c0-.289-.086-.52-.258-.691s-.4-.258-.686-.258c-.281 0-.521.098-.721.293s-.32.48-.363.855l-1.518-.258c.105-.52.265-.934.478-1.244s.51-.555.891-.732.808-.268 1.28-.268c.809 0 1.457.258 1.945.773.402.422.604.898.604 1.43 0 .754-.412 1.355-1.236 1.805.492.105.886.342 1.181.709s.442.811.442 1.33c0 .754-.275 1.396-.826 1.928s-1.236.797-2.057.797c-.777 0-1.422-.223-1.934-.67s-.81-1.035-.892-1.757z"/><path d="m404.62 458.906c0-.77.169-1.34.507-1.711s.796-.557 1.374-.557c.598 0 1.065.186 1.403.555s.507.939.507 1.713c0 .77-.169 1.34-.507 1.711s-.796.557-1.374.557c-.598 0-1.065-.184-1.403-.553s-.507-.941-.507-1.715zm1.283-.011c0 .559.064.934.193 1.125.098.141.232.211.404.211.176 0 .312-.07.41-.211.125-.191.188-.566.188-1.125s-.062-.932-.188-1.119c-.098-.145-.234-.217-.41-.217-.172 0-.307.07-.404.211-.128.191-.193.566-.193 1.125zm1.852 6.808h-1.219l4.576-9.064h1.184zm2.66-2.256c0-.77.169-1.34.507-1.711s.8-.557 1.386-.557c.59 0 1.054.186 1.392.557s.507.941.507 1.711c0 .773-.169 1.346-.507 1.717s-.796.557-1.374.557c-.598 0-1.065-.186-1.403-.557s-.508-.943-.508-1.717zm1.283-.006c0 .559.064.932.193 1.119.098.145.232.217.404.217.176 0 .311-.07.404-.211.129-.191.193-.566.193-1.125s-.062-.934-.188-1.125c-.098-.141-.234-.211-.41-.211s-.311.07-.404.211c-.127.192-.192.567-.192 1.125z"/></g></svg>