<svg viewBox="0 0 468.11 179.05" xmlns="http://www.w3.org/2000/svg"><path d="m79.13 111.77 18.62-46.45v-65.32l-18.62 46.46z" fill="#e21e26"/><path d="m125.89 22.14v65.28l-41.95 26.87 26.85-40.66v-41.83z" fill="#e21e26"/><path d="m86.54 119.07 49.46-19.94v-50.41h14.03v70.35z" fill="#e21e26"/><path d="m70.9 111.77-18.62-46.45v-65.32l18.62 46.46z" fill="#e21e26"/><path d="m24.14 22.14v65.28l41.95 26.87-26.85-40.66v-41.83z" fill="#e21e26"/><path d="m63.49 119.07-49.46-19.94v-50.41h-14.03v70.35z" fill="#e21e26"/><path d="m372.78 34.52c0 4.17 3.94 7.54 8.8 7.54s8.78-3.37 8.78-7.54-3.94-7.52-8.78-7.52-8.8 3.35-8.8 7.52z" fill="#e21e26" transform="translate(-14.1 -18.88)"/><path d="m335.78 33.82c-1.44-.16-3.2-.29-3.92-.29-7.62 0-9.37 2.24-9.37 7v6.87h17.11v-3.25c0-6.64.76-11.76 6.64-15.27 5.4-3.22 13.76-3.68 19.76-3.68 1.39 0 3.54.09 5.7.27a12 12 0 0 0 -4.09 8.4c-1.35-.18-2.89-.34-3.58-.34-7.3 0-8.06 3-8.06 7v6.87h33.52v43.6h-16.4v-34.86h-17.09v34.86h-16.4v-34.77h-17.11v34.77h-16.42v-34.77h-6.35v-8.82h6.33v-3.26c0-6.64.78-11.76 6.64-15.27 5.4-3.22 15.45-3.89 23.18-3.89 2.51 0 4.63.06 6.5.2a16.56 16.56 0 0 0 -6.59 8.63z" fill="#e21e26" transform="translate(-14.1 -18.88)"/><path d="m268.23 46.17c-6.05 0-8.84 5.57-10.24 10.49v-9.25h-16.4v43.59h16.41v-21c0-6.71 3.71-12.76 8.83-12.76a22.66 22.66 0 0 1 4.92.76v-11.53a21.48 21.48 0 0 0 -3.52-.3z" fill="#e21e26" transform="translate(-14.1 -18.88)"/><path d="m262.65 28.53h16.4v43.62h-16.4z" fill="#e21e26"/><g transform="translate(-14.1 -18.88)"><path d="m276.19 34.52c0 4.17 3.93 7.54 8.78 7.54s8.79-3.37 8.79-7.54-3.94-7.52-8.76-7.52-8.81 3.35-8.81 7.52z" fill="#e21e26"/><path d="m431.9 82a38.32 38.32 0 0 1 -6.63.59c-7.86 0-7.76-5.44-7.76-11.6v-14.76h14.39v-8.82h-14.39v-19.83h-16.41v19.83h-6.35v8.82h6.34v16.77c0 6.64.76 11.77 6.62 15.27 5.41 3.23 12 3.69 18.13 3.69 1.28 0 3.44-.08 6-.24z" fill="#e21e26"/><path d="m479 51.67c-3.5-4-8.15-5.5-13.37-5.5-4.17 0-8.72.87-11.85 4v-22.57h-16.4v63.4h16.4v-27.15c0-4.52.94-7.81 5.68-7.81 4.21 0 5.8 2.22 5.8 9.23v25.73h16.4v-26c.03-4.6.6-9.72-2.66-13.33z" fill="#e21e26"/><path d="m234.09 40.77c-5.35-2.69-11.92-3.69-17.3-3.69-13.78 0-21.1 8-21.1 19.55 0 11.8 4.13 25.41 18.05 25.41a17.15 17.15 0 0 0 3.84-.29v-24.26h16.51v31.56a77.93 77.93 0 0 1 -20.45 3c-20 0-36.11-11.31-36.11-32.6 0-21.62 15.49-33.52 39.5-33.52a89.28 89.28 0 0 1 17.08 2.6z" fill="#e21e26"/><path d="m366.2 109.85a6.35 6.35 0 0 1 -2 4.93 10.14 10.14 0 0 1 -5.55 2.39 54.1 54.1 0 0 1 -6.13.23h-6.18v-14.4h9.39a28.7 28.7 0 0 1 4.9.29 6 6 0 0 1 3.33 1.54 6.6 6.6 0 0 1 2.24 5.02zm7.33 28.1-6.37-13.3c-1.27-2.63-3.37-4.81-5-5a12.3 12.3 0 0 0 5.37-2.58 9.18 9.18 0 0 0 2.8-7 10.46 10.46 0 0 0 -3.41-8 10.62 10.62 0 0 0 -5.65-2.49 57.23 57.23 0 0 0 -6.38-.24h-12.8v38.66h4.18v-17h8.26c3.22 0 5.42.49 6.62 1.62a11.52 11.52 0 0 1 1.85 2.67c.19.38.67 1.35 1.42 2.9l4.66 9.81z" fill="#1d1d1b"/><path d="m207.32 134.9c-2.54 2.46-6.92 3.68-11.37 3.68s-8.74-1.26-11.36-3.8a11.74 11.74 0 0 1 -3.4-7 61.48 61.48 0 0 1 -.3-8v-20.38h4.17v24.25q0 6.21 2.39 8.53c1.9 1.78 5.3 2.68 8.68 2.68 3.1 0 6.37-.8 8.06-2.39s2.59-4.11 2.72-7.56c0-.72 0-2.06 0-4.06v-21.45h4.09v21.14a66.34 66.34 0 0 1 -.3 7.68 12 12 0 0 1 -3.38 6.68z" fill="#1d1d1b"/><path d="m247 138-23.5-31.64.06 31.64h-4.06v-38.6h4.5l23.8 32.12-.05-32.12h4.05v38.6z" fill="#1d1d1b"/><path d="m260.11 138v-38.6h4.29v38.6z" fill="#1d1d1b"/><path d="m289.09 138h-4.77l-14.75-38.6h4.79l12.46 33.79 12.75-33.79h4.5z" fill="#1d1d1b"/><path d="m308.47 138v-38.6h26.47v3.69h-22.29v12.73h20.13v3.63h-20.13v14.7h23.45v3.85z" fill="#1d1d1b"/><path d="m399.5 105.79a11.16 11.16 0 0 0 -4.5-2.79 14.48 14.48 0 0 0 -4.63-.69c-2.86 0-4.89.52-6.49 1.74a5.39 5.39 0 0 0 -2.3 4.49q0 3.5 5 5.8c2.16.82 4.49 1.63 6.64 2.44a21 21 0 0 1 5.89 3.31 9.24 9.24 0 0 1 3.29 7.08 10.56 10.56 0 0 1 -3.27 8.15c-2.44 2.21-5.91 3.23-10.25 3.23a18.67 18.67 0 0 1 -12.66-4.52l2.49-2.89a18.22 18.22 0 0 0 10.15 3.62c3.06 0 5.31-.47 6.88-1.83a7.08 7.08 0 0 0 2.43-5.56c0-2.13-1.16-4-3.64-5.52a54.12 54.12 0 0 0 -6.83-2.93 27.79 27.79 0 0 1 -7-3.51 8.38 8.38 0 0 1 -3.16-6.79 8.74 8.74 0 0 1 3.47-7.14 14 14 0 0 1 9.05-2.79 19.56 19.56 0 0 1 6.16.9 15.13 15.13 0 0 1 6 3.68z" fill="#1d1d1b"/><path d="m409.63 138v-38.6h4.29v38.6z" fill="#1d1d1b"/><path d="m435.11 103.09v34.91h-4.11v-34.91h-11.83v-3.69h27.08v3.69z" fill="#1d1d1b"/><path d="m467.4 122.34v15.66h-4.11v-15.66l-14.93-22.94h5l12.13 18.6 11.82-18.6h4.9z" fill="#1d1d1b"/><path d="m186 193.36-.05-.07h-.07c-4.14-.59-8.32-4.74-8.32-11.51 0-7 4.32-11.89 10.51-11.89s10.3 4.82 10.3 11.72c0 4.94-2.34 11-8.93 11.68h-.33l.21.25c1.28 1.54 3.54 2.35 6.55 2.35a14.75 14.75 0 0 0 2.16-.18h.09c0 .27.25 1.61.29 1.86a14.21 14.21 0 0 1 -3.33.35c-4.08.02-7.08-1.48-9.08-4.56zm-5.6-11.66c0 5.53 3.21 9.54 7.63 9.54 4.63 0 7.5-3.73 7.5-9.75 0-5.58-3.08-9.33-7.67-9.33s-7.49 3.74-7.49 9.54z" fill="#1d1d1b"/><path d="m215.78 176.67v16.44h-2.28v-1.4l-.34.23a9.19 9.19 0 0 1 -5.07 1.62 5.92 5.92 0 0 1 -4-1.33c-1.55-1.55-1.55-3.32-1.55-6v-9.57h2.6v9.34c0 2.2 0 3.59 1 4.5a3.56 3.56 0 0 0 2.48.88 9.53 9.53 0 0 0 4.51-1.48l.08-.06v-13.2z" fill="#1d1d1b"/><path d="m219.91 185c0-5.24 3.07-8.76 7.63-8.76 4.21 0 6.73 3.07 6.73 8.21l-.06 1.07h-11.7v.26a5.73 5.73 0 0 0 1.52 4.09 5.33 5.33 0 0 0 3.93 1.48 9.49 9.49 0 0 0 4.68-1.25l1 1.72a10.58 10.58 0 0 1 -5.88 1.68c-4.76-.01-7.85-3.34-7.85-8.5zm2.64-1.64v.19h9.25v-.18c0-1.9-.89-5.13-4.21-5.13-2.78-.01-4.8 2.04-5.04 5.11z" fill="#1d1d1b"/><path d="m237.53 185c0-5.24 3.06-8.76 7.63-8.76 4.21 0 6.72 3.07 6.72 8.21v1.07h-11.7v.26a5.73 5.73 0 0 0 1.52 4.09 5.31 5.31 0 0 0 3.92 1.48 9.47 9.47 0 0 0 4.69-1.25c.13.24.82 1.5 1 1.72a10.64 10.64 0 0 1 -5.88 1.68c-4.84-.01-7.9-3.34-7.9-8.5zm2.63-1.64v.19h9.24v-.18c0-1.9-.88-5.13-4.2-5.13-2.77-.01-4.79 2.04-5.04 5.11z" fill="#1d1d1b"/><path d="m258.57 177.89.09-.06a9.2 9.2 0 0 1 5-1.6 5.33 5.33 0 0 1 3.9 1.4c1.54 1.53 1.61 3.16 1.61 5.91v9.57h-2.59v-9.37c0-2.19-.05-3.58-.95-4.49a3.62 3.62 0 0 0 -2.48-.88 9.28 9.28 0 0 0 -4.52 1.49h-.07v13.2h-2.56v-16.39h2.28v1.4z" fill="#1d1d1b"/><path d="m281.51 188.81c0-1.65-1.74-2.38-3.57-3.16-2.22-.94-4.72-2-4.72-4.85 0-2.69 2.33-4.57 5.68-4.57a9.18 9.18 0 0 1 5.08 1.36l-1 1.68a8.35 8.35 0 0 0 -3.92-1.07c-2 0-3.26 1-3.26 2.42s1.71 2.25 3.52 3c2.28 1 4.87 2.07 4.87 5 0 3.41-3.09 5-6 5a10.41 10.41 0 0 1 -5.53-1.54l.95-1.76a8.65 8.65 0 0 0 4.4 1.23c2.07-.06 3.5-1.2 3.5-2.74z" fill="#1d1d1b"/><path d="m290.9 168.46v24.65h-2.6v-24.65z" fill="#1d1d1b"/><path d="m301.72 176.23a6.71 6.71 0 0 1 4.74 1.64c1.21 1.22 1.29 2.65 1.29 4.87v10.37h-2.28v-1.39l-.4.24a9.18 9.18 0 0 1 -4.91 1.5 4.86 4.86 0 0 1 -5.23-5c0-5.52 7.07-5.52 9.39-5.52h.94v-1.24a3.12 3.12 0 0 0 -.74-2.49 4.25 4.25 0 0 0 -3.08-.91 9.31 9.31 0 0 0 -4.53 1.26l-.93-1.71a10.23 10.23 0 0 1 5.74-1.62zm3.36 8.56h-.86c-3 0-5 .49-6 1.5a2.72 2.72 0 0 0 -.81 2.06c0 1.86 1.37 3.06 3.5 3.06a8.91 8.91 0 0 0 4.05-1.15l.32-.16v-5.31z" fill="#1d1d1b"/><path d="m315.06 177.89.1-.06a9.17 9.17 0 0 1 5-1.6 5.27 5.27 0 0 1 3.91 1.4c1.54 1.53 1.61 3.16 1.61 5.91v9.57h-2.6v-9.37c0-2.18 0-3.58-.95-4.49a3.6 3.6 0 0 0 -2.48-.88 9.28 9.28 0 0 0 -4.52 1.49h-.07v13.2h-2.59v-16.39h2.28v1.4z" fill="#1d1d1b"/><path d="m344 168.46v24.65h-2.28v-1.53l-.32.27a6.91 6.91 0 0 1 -4.57 1.64c-4.34 0-7.25-3.37-7.25-8.39s3.37-8.87 8-8.87a6.62 6.62 0 0 1 3.5.94l.32.2v-8.91zm-11.76 16.64c0 3.68 2.11 6.24 5.13 6.24a6.27 6.27 0 0 0 3.95-1.45l.1-.08v-10.24l-.09-.07a5.58 5.58 0 0 0 -3.45-1.13c-3.42 0-5.64 2.63-5.64 6.73z" fill="#1d1d1b"/><path d="m350.2 190.78v.22a7.39 7.39 0 0 1 -2.8 5.75l-1.16-1a7.43 7.43 0 0 0 1.7-4.42v-.59z" fill="#1d1d1b"/><path d="m369.71 170.32c.08.23 8.17 22.33 8.33 22.79h-2.88l-2.11-6h-9.79l-2.12 6h-2.74c.16-.46 8.18-22.56 8.26-22.79zm-1.71 3.07-4 11.5h8.3l-4.16-12z" fill="#1d1d1b"/><path d="m394 176.67v16.44h-2.28v-1.4l-.35.23a9.16 9.16 0 0 1 -5.06 1.62 5.93 5.93 0 0 1 -4-1.33c-1.54-1.55-1.54-3.32-1.54-6v-9.57h2.59v9.34c0 2.2.05 3.59 1 4.5a3.54 3.54 0 0 0 2.48.88 9.42 9.42 0 0 0 4.5-1.48l.08-.06v-13.2z" fill="#1d1d1b"/><path d="m406.56 188.81c0-1.65-1.74-2.38-3.57-3.16-2.21-.94-4.72-2-4.72-4.85 0-2.69 2.34-4.57 5.68-4.57a9.11 9.11 0 0 1 5.08 1.36l-.94 1.68a8.4 8.4 0 0 0 -3.93-1.07c-2 0-3.26 1-3.26 2.42s1.71 2.25 3.52 3c2.29 1 4.88 2.07 4.88 5 0 3.41-3.09 5-6 5a10.41 10.41 0 0 1 -5.5-1.62l.95-1.76a8.66 8.66 0 0 0 4.41 1.23c1.97.02 3.4-1.12 3.4-2.66z" fill="#1d1d1b"/><path d="m417.2 172v4.71h5.17v2.08h-5.17v9.21c0 1.58 0 3.36 2.64 3.36a6 6 0 0 0 2.22-.4c.09.26.56 1.54.65 1.77a7.28 7.28 0 0 1 -3.39.82 5 5 0 0 1 -3.66-1.24c-1.07-1.07-1.06-2.59-1.06-4.35v-9.19h-3v-2.08h3v-4.69z" fill="#1d1d1b"/><path d="m428.75 178.79a6.83 6.83 0 0 1 5.25-2.53 4 4 0 0 1 1.59.23c-.07.25-.53 1.82-.61 2.07a6.43 6.43 0 0 0 -1.11-.09 5.88 5.88 0 0 0 -5 2.68l-.12.17v11.82h-2.6v-16.47h2.29v2.51z" fill="#1d1d1b"/><path d="m443.9 176.23a6.68 6.68 0 0 1 4.73 1.64c1.17 1.18 1.3 2.44 1.3 4.87v10.37h-2.28v-1.39l-.39.24a9.21 9.21 0 0 1 -4.92 1.5 4.87 4.87 0 0 1 -5.24-5c0-5.52 7.08-5.52 9.4-5.52h.94v-1.24a3.13 3.13 0 0 0 -.74-2.49 4.28 4.28 0 0 0 -3.08-.91 9.31 9.31 0 0 0 -4.53 1.26c-.14-.25-.81-1.5-.93-1.71a10.26 10.26 0 0 1 5.74-1.62zm3.37 8.56h-.87c-3 0-5 .49-6 1.5a2.71 2.71 0 0 0 -.81 2.06c0 1.86 1.37 3.06 3.5 3.06a8.79 8.79 0 0 0 4.05-1.15l.32-.16v-5.31z" fill="#1d1d1b"/><path d="m457.28 168.46v24.65h-2.59v-24.65z" fill="#1d1d1b"/><path d="m461.94 171.16a1.63 1.63 0 1 1 1.62 1.62 1.6 1.6 0 0 1 -1.62-1.62z" fill="#1d1d1b"/><path d="m464.88 176.67v16.44h-2.6v-16.44z" fill="#1d1d1b"/><path d="m475.66 176.23a6.75 6.75 0 0 1 4.74 1.63c1.17 1.19 1.3 2.45 1.3 4.88v10.37h-2.28v-1.39l-.4.24a9.26 9.26 0 0 1 -4.92 1.5 4.87 4.87 0 0 1 -5.23-5c0-5.52 7.07-5.52 9.39-5.52h.94v-1.24a3.12 3.12 0 0 0 -.74-2.49 4.25 4.25 0 0 0 -3.07-.91 9.34 9.34 0 0 0 -4.54 1.26l-.92-1.71a10.21 10.21 0 0 1 5.73-1.62zm3.37 8.56h-.87c-3 0-5 .49-6 1.5a2.71 2.71 0 0 0 -.82 2.06c0 1.86 1.38 3.06 3.5 3.06a9 9 0 0 0 4.07-1.16l.3-.15v-5.31z" fill="#1d1d1b"/></g><path d="m163.44 135.79h304.16v1.58h-304.16z" fill="#1d1d1b"/></svg>